<?xml version="1.0" standalone="no"?>
<!DOCTYPE svg PUBLIC "-//W3C//DTD SVG 20010904//EN"
 "http://www.w3.org/TR/2001/REC-SVG-20010904/DTD/svg10.dtd">
<svg version="1.0" xmlns="http://www.w3.org/2000/svg"
 width="233.000000pt" height="400.000000pt" viewBox="0 0 233.000000 400.000000"
 preserveAspectRatio="xMidYMid meet">
<metadata>
Created by potrace 1.15, written by Peter Selinger 2001-2017
</metadata>
<g transform="translate(0.000000,400.000000) scale(0.100000,-0.100000)"
fill="#000000" stroke="none">
<path d="M56 3952 c-2 -4 -9 -586 -15 -1292 -6 -707 -14 -1573 -17 -1925 -4
-352 -3 -655 1 -674 l7 -34 662 7 c363 3 856 7 1094 7 334 1 436 4 446 14 10
10 13 147 16 611 3 566 4 1953 1 2877 l-1 417 -1094 0 c-602 0 -1097 -4 -1100
-8z m2174 -329 c0 -174 2 -396 5 -493 l5 -177 -73 3 c-66 3 -68 2 -22 -5 82
-13 95 -20 95 -47 0 -13 -5 -24 -12 -24 -9 0 -9 -3 0 -12 14 -14 17 -484 3
-492 -5 -3 -18 10 -30 30 -24 40 -27 58 -6 30 8 -11 18 -16 22 -12 4 3 -3 17
-15 29 -18 17 -24 19 -31 8 -6 -9 -11 -10 -15 -2 -19 30 -157 -3 -155 -38 0
-10 2 -12 6 -3 7 19 58 42 93 42 47 0 90 -47 90 -97 -1 -21 -8 -47 -18 -58
-37 -45 -82 -38 -82 12 0 20 4 24 20 20 23 -6 27 11 5 19 -20 8 -45 -13 -45
-39 0 -26 28 -57 52 -57 29 0 69 31 84 65 12 27 13 28 14 7 0 -13 -5 -32 -11
-44 -6 -11 -8 -22 -6 -25 3 -3 12 8 21 24 14 27 15 23 16 -77 l0 -105 -19 30
c-22 35 -71 83 -71 68 0 -5 12 -20 26 -34 49 -46 67 -95 62 -173 -3 -41 -14
-91 -26 -118 -24 -55 -20 -62 8 -15 l20 32 0 -36 c0 -38 -21 -64 -68 -86 -15
-6 -20 -12 -12 -12 8 -1 29 7 45 17 l30 19 0 -78 c0 -83 -15 -113 -59 -122
-17 -4 -16 -5 6 -6 15 0 30 4 33 9 10 17 25 11 25 -9 0 -14 -10 -22 -32 -27
-29 -6 -30 -8 -13 -15 18 -7 17 -8 -6 -8 -14 -1 -40 4 -57 10 -30 10 -30 11
-25 63 6 59 -12 100 -50 112 -12 4 -28 13 -36 21 -12 13 -7 14 40 9 30 -2 46
-2 36 2 -15 7 -12 11 19 25 20 10 34 20 31 24 -3 3 -21 -4 -40 -16 -19 -11
-43 -21 -53 -21 -14 1 -11 5 11 17 70 36 126 111 140 183 7 41 -25 155 -54
188 -10 12 -36 29 -57 38 -22 8 -49 27 -62 42 -20 23 -23 24 -20 7 2 -11 18
-29 36 -40 95 -59 96 -59 119 -125 35 -99 21 -171 -49 -239 -50 -49 -143 -85
-101 -39 45 50 65 106 66 194 1 45 -2 87 -8 93 -7 7 -10 -22 -10 -87 -1 -84
-4 -103 -25 -142 -14 -25 -40 -54 -57 -65 -39 -24 -42 -34 -8 -27 15 2 25 0
25 -7 0 -6 -13 -11 -29 -11 -21 0 -32 -6 -36 -20 -3 -11 -13 -20 -21 -20 -8 0
-14 -8 -15 -17 0 -10 -3 -13 -6 -6 -7 19 40 90 77 115 52 35 73 80 78 167 4
67 1 83 -23 134 -15 31 -31 57 -36 57 -12 0 -12 2 16 -53 13 -27 27 -68 30
-92 9 -59 -18 -149 -56 -188 -25 -24 -36 -28 -69 -25 -42 4 -54 -6 -20 -17 24
-8 25 -18 4 -39 -20 -21 -43 -20 -66 1 -38 34 -24 50 92 103 8 4 26 22 38 41
21 30 23 43 19 107 -3 54 -10 81 -26 103 -85 114 -89 134 -33 170 32 21 37 30
40 66 3 35 -1 44 -22 58 -20 13 -29 14 -46 5 -30 -16 -23 -54 10 -58 22 -2 23
-1 8 8 -24 14 -23 40 1 40 47 0 52 -76 6 -106 -57 -37 -144 50 -89 90 8 6 16
20 18 31 2 11 13 22 27 25 16 4 20 8 12 13 -28 18 -93 -47 -93 -92 0 -15 7
-36 15 -48 14 -20 14 -23 -1 -31 -13 -7 -15 -17 -11 -40 5 -26 1 -35 -24 -56
-36 -30 -51 -32 -70 -9 -17 19 -71 43 -96 42 -10 0 1 -7 24 -16 23 -8 53 -28
65 -44 13 -16 33 -42 46 -59 27 -34 51 -41 28 -8 -20 28 -20 42 -1 34 13 -5
14 -2 4 15 -8 15 -8 19 0 15 6 -4 11 -2 11 4 0 6 16 24 35 41 40 35 45 50 14
42 -17 -5 -20 -2 -17 13 2 11 13 20 26 22 19 3 22 -1 22 -31 0 -24 12 -52 36
-87 20 -29 42 -68 50 -86 16 -38 19 -124 4 -124 -5 0 -10 -5 -10 -11 0 -15
-26 -39 -34 -32 -3 4 -6 -4 -6 -17 0 -19 -2 -20 -15 -10 -12 10 -15 9 -15 -4
0 -10 -5 -14 -10 -11 -5 3 -10 -2 -10 -12 0 -15 -2 -16 -10 -3 -8 12 -14 9
-40 -17 -26 -27 -40 -32 -93 -37 -34 -3 -78 -8 -97 -9 -19 -2 -3 -4 35 -5 39
-1 87 2 108 7 27 7 37 6 34 -2 -2 -6 -20 -15 -41 -19 -54 -11 -73 -24 -106
-70 -52 -71 -36 -157 40 -214 32 -24 38 -33 33 -56 -3 -14 0 -43 7 -63 10 -31
10 -39 -1 -46 -11 -7 -10 -9 4 -9 10 0 32 -16 49 -36 52 -59 100 -78 193 -77
117 1 212 50 250 129 9 19 19 33 22 30 3 -3 2 -133 -2 -289 l-7 -285 -322 -4
c-216 -3 -323 0 -328 7 -4 5 -5 91 -2 190 3 104 1 191 -5 205 -6 17 -9 -38
-10 -175 -1 -233 -11 -476 -20 -471 -3 2 -4 100 -1 218 3 117 6 439 5 715 0
276 3 499 7 495 4 -4 8 -175 9 -380 2 -204 6 -366 11 -360 4 7 8 37 8 66 0 53
0 53 22 38 12 -9 32 -16 43 -15 17 1 17 2 -6 12 -27 12 -59 41 -59 52 0 4 14
-5 31 -19 22 -18 41 -26 67 -25 l37 1 -39 8 c-47 9 -95 61 -96 102 0 14 -3 33
-6 42 -4 9 -1 16 6 16 6 0 14 -9 17 -20 3 -11 9 -20 13 -20 12 0 20 29 10 35
-5 3 -6 13 -3 22 4 11 3 14 -5 9 -8 -5 -10 -1 -5 11 5 15 3 16 -8 6 -25 -24
-29 -13 -29 82 0 86 8 113 25 85 4 -7 13 -7 26 0 23 13 23 19 3 45 -15 20 -15
20 -34 -5 l-20 -25 0 120 c0 66 -1 391 -1 723 0 640 -4 698 -48 729 -13 8 -21
31 -26 70 -8 64 -27 93 -60 93 -30 0 -52 -27 -67 -85 l-13 -50 -5 54 c-4 40
-10 57 -26 68 -31 20 -50 -3 -59 -72 l-6 -55 -29 20 c-15 11 -35 20 -44 20
-20 0 -20 14 0 45 12 19 14 31 6 52 l-10 28 -1 -35 c-1 -20 -8 -46 -17 -58
-14 -20 -17 -21 -31 -6 -9 9 -19 32 -22 52 -3 19 -12 37 -20 40 -10 3 -11 0
-3 -14 5 -11 7 -25 5 -32 -3 -7 3 -25 13 -39 12 -19 14 -28 5 -31 -57 -19
-104 -110 -83 -158 15 -32 15 -34 -2 -34 -10 0 -16 19 -21 63 -4 34 -15 76
-25 92 -10 17 -23 47 -30 67 -14 44 -43 68 -83 68 -39 0 -64 -15 -84 -53 -17
-30 -18 -79 -18 -649 0 -340 -2 -618 -5 -618 -3 0 -28 19 -55 41 -57 47 -130
99 -140 99 -4 0 19 -20 52 -44 104 -79 131 -108 141 -152 8 -35 6 -104 -3
-104 -18 0 -125 55 -129 67 -6 15 18 70 28 66 3 -2 18 -3 34 -2 17 0 -1 9 -53
27 -44 15 -85 34 -92 42 -6 9 -30 25 -52 35 -22 11 -41 25 -41 31 0 17 32 42
60 47 21 4 21 4 -7 6 -23 1 -37 -6 -52 -25 -29 -37 -27 -48 21 -88 40 -35 41
-37 22 -51 -10 -8 -29 -18 -41 -21 -12 -3 -26 -19 -32 -35 -8 -25 -7 -32 11
-49 15 -13 25 -17 33 -10 8 7 27 5 56 -3 24 -8 50 -12 57 -9 6 2 24 -6 38 -17
15 -12 31 -21 36 -21 6 0 30 -13 55 -30 24 -16 48 -30 54 -30 5 0 9 -7 9 -15
0 -16 -65 16 -155 75 -23 15 -47 24 -54 22 -7 -2 18 -20 55 -39 38 -20 88 -49
112 -65 l43 -29 -6 -362 c-3 -199 -5 -444 -5 -544 l0 -182 -167 5 c-93 3 -195
11 -228 19 -33 8 -82 16 -110 18 -27 3 -65 11 -83 17 -19 7 -52 10 -77 7 -42
-6 -43 -6 -46 26 -4 33 6 1456 17 2505 l6 582 1079 0 1079 0 0 -317z m-1330
-193 c20 -11 43 -67 30 -75 -4 -3 -11 6 -14 20 -13 51 -80 53 -107 3 -9 -17
-13 -351 -16 -1413 -2 -764 -4 -1407 -5 -1428 -1 -31 -4 -36 -20 -31 -10 3
-18 2 -18 -3 0 -4 -18 -8 -40 -8 -22 -1 -40 3 -40 7 0 4 16 8 35 8 19 0 35 5
35 10 0 10 -45 13 -192 11 -56 0 -78 3 -78 12 0 8 19 11 68 10 95 -3 204 -10
222 -14 13 -4 15 157 17 1396 2 1062 6 1409 15 1439 9 28 21 42 43 52 37 16
42 17 65 4z m254 -101 c29 24 91 -15 105 -66 20 -74 -30 -143 -106 -143 -80 0
-133 78 -102 151 15 37 69 75 80 57 6 -9 11 -8 23 1z m358 -61 c32 -26 41 -87
40 -282 0 -105 -1 -263 -1 -350 -1 -274 -10 -166 -15 189 -5 345 -12 407 -44
420 -35 13 -59 -45 -54 -132 0 -13 -4 -23 -10 -23 -7 0 -9 16 -4 46 3 26 6 57
6 69 0 26 35 75 54 75 7 0 19 -6 28 -12z m-12 -194 c0 -8 -17 -22 -37 -32 -34
-14 -36 -16 -15 -20 23 -3 23 -4 5 -19 -17 -14 -17 -14 2 -8 11 4 29 9 40 12
17 4 17 2 -5 -17 l-25 -21 23 6 24 7 -23 -23 c-22 -22 -22 -23 -3 -30 17 -6
17 -8 2 -14 -9 -3 -19 -17 -22 -31 -4 -13 -12 -24 -19 -25 -6 0 -3 -4 8 -8 18
-7 17 -9 -10 -24 -17 -9 -24 -16 -17 -17 24 0 1 -20 -24 -20 -14 0 -23 -4 -20
-8 6 -9 -29 -42 -44 -42 -6 0 -10 -6 -10 -13 0 -8 -11 -20 -25 -27 -13 -7 -30
-29 -36 -49 -7 -20 -14 -31 -16 -24 -2 7 -11 9 -19 6 -10 -4 -14 3 -14 24 0
35 -16 53 -46 53 -31 0 -47 -25 -41 -63 3 -17 3 -26 0 -18 -5 11 -7 11 -14 0
-7 -11 -9 -9 -9 6 0 38 -28 63 -85 76 -30 7 -55 15 -55 20 0 4 18 9 40 11 22
2 40 0 40 -4 0 -5 7 -8 16 -8 14 0 14 3 4 15 -7 9 -19 14 -27 11 -7 -3 -13 1
-13 9 0 8 -4 15 -10 15 -5 0 -10 -7 -10 -15 0 -8 -4 -15 -10 -15 -5 0 -10 5
-10 10 0 6 -7 10 -16 10 -8 0 -12 -4 -9 -10 3 -5 1 -10 -4 -10 -6 0 -11 6 -11
14 0 8 -10 16 -22 18 -17 2 -23 10 -24 31 -1 26 1 27 35 22 l36 -4 -37 10
c-39 11 -42 20 -38 97 1 4 13 6 28 5 18 -1 21 0 7 4 -30 8 -42 23 -19 24 19 0
19 1 -1 10 -16 7 -13 8 13 4 18 -2 32 0 32 6 0 5 -15 12 -32 16 -32 7 -32 7
-8 14 15 4 18 7 8 8 -18 1 -42 34 -32 44 3 3 20 1 38 -4 75 -21 505 -15 534 7
23 18 32 17 32 -2z m19 -490 c0 -186 0 -346 0 -354 0 -8 2 -53 6 -99 4 -71 3
-82 -10 -77 -8 3 -55 13 -104 22 -98 19 -107 28 -129 123 l-10 43 26 -5 27 -6
-3 155 c-2 128 -1 153 11 148 8 -3 20 2 27 11 11 13 10 20 -7 43 -11 15 -28
28 -37 30 -14 3 -16 -15 -16 -182 0 -104 -4 -186 -9 -186 -5 0 -8 82 -6 193 3
149 6 191 16 189 22 -5 57 7 62 23 4 8 -1 22 -10 30 -8 9 -14 17 -12 18 2 2
22 15 45 30 22 15 43 27 46 27 4 0 7 -78 8 -172 0 -95 3 -214 6 -265 l4 -92
-37 -4 c-27 -2 -20 -4 22 -5 l60 -2 -6 157 c-13 308 -13 442 0 457 7 9 15 34
18 56 3 22 7 39 9 37 2 -2 4 -156 3 -343z m-688 279 c4 -21 11 -110 14 -198 3
-88 8 -226 11 -306 5 -124 3 -147 -10 -158 -20 -17 -21 -55 -1 -71 17 -14 21
-70 5 -70 -5 0 -16 10 -24 23 -11 16 -15 58 -16 167 -3 296 0 663 6 657 3 -3
10 -23 15 -44z m116 -133 c37 -22 42 -29 41 -58 -1 -23 5 -37 20 -48 19 -13
19 -17 7 -40 -10 -21 -11 -31 -2 -45 13 -21 27 -25 27 -9 0 6 7 10 15 10 20 0
19 29 -1 52 -13 14 -14 21 -5 32 13 15 7 36 -10 36 -5 0 -9 -7 -9 -16 0 -8 -4
-12 -10 -9 -5 3 -10 17 -10 31 0 20 5 24 28 24 34 0 53 -29 52 -80 -1 -19 -1
-100 -1 -180 1 -164 0 -166 -87 -191 -23 -6 -40 -14 -38 -17 3 -2 28 3 57 12
28 10 53 15 55 13 3 -2 2 -24 -2 -48 -5 -32 -18 -54 -45 -81 -20 -20 -35 -39
-33 -41 3 -3 -11 -8 -31 -11 -20 -4 -44 -10 -53 -12 -14 -5 -13 -2 2 10 11 9
29 16 41 16 13 0 22 6 22 15 0 11 -11 15 -39 15 l-38 0 0 50 c0 48 1 50 28 51
l27 2 -27 4 -28 4 0 137 c0 75 -3 197 -7 271 -3 79 -2 132 3 130 5 -2 28 -15
51 -29z m218 -200 c4 -6 13 -5 25 2 35 22 46 -12 53 -151 10 -195 52 -319 124
-366 33 -22 44 -9 13 15 -14 10 -22 21 -19 25 11 10 100 -17 106 -33 9 -21
-24 -42 -66 -42 -20 0 -50 -4 -67 -9 -18 -5 -37 -5 -47 1 -11 5 -17 5 -17 0 0
-5 -21 -15 -46 -21 -63 -16 -50 -24 17 -11 30 6 77 16 104 21 28 6 79 9 115 7
l65 -3 1 -597 c1 -574 1 -597 -17 -601 -18 -5 -19 11 -19 488 0 271 3 500 6
509 3 9 10 13 15 10 5 -3 9 0 9 6 0 7 -12 9 -32 6 -18 -3 -75 -11 -125 -17
l-93 -12 5 -493 5 -494 -190 0 -190 0 0 494 0 494 23 -4 22 -5 -22 12 c-13 7
-23 18 -23 26 0 11 4 11 23 -1 27 -17 133 -40 153 -32 8 3 14 1 14 -5 0 -7
-25 -9 -69 -7 -38 2 -67 0 -64 -4 6 -11 179 -9 228 2 38 8 37 9 -18 7 -52 -2
-62 2 -58 26 0 4 -8 7 -19 7 -11 0 -20 -4 -20 -10 0 -5 -5 -10 -11 -10 -5 0
-8 4 -5 9 7 11 -11 25 -51 39 -18 6 -48 23 -68 39 -33 27 -35 31 -35 91 l0 62
37 -15 c24 -10 39 -12 41 -5 5 13 102 13 102 0 0 -5 -5 -10 -11 -10 -5 0 -7
-4 -4 -10 3 -5 1 -10 -4 -10 -6 0 -11 5 -11 10 0 6 -15 10 -32 10 l-33 -1 30
-16 c17 -9 33 -21 37 -26 5 -9 40 -12 89 -8 5 1 7 6 4 11 -3 6 -19 8 -36 5
-24 -4 -28 -2 -26 13 1 10 17 36 35 58 18 21 35 49 38 62 7 25 24 30 24 7 0
-8 4 -15 9 -15 5 0 18 -16 30 -35 11 -19 25 -35 30 -35 6 0 -6 26 -27 58 -44
70 -59 70 -91 3 l-23 -49 -70 5 c-47 3 -73 1 -78 -6 -5 -8 -14 -9 -33 -2 -32
12 -34 26 -7 41 16 8 20 8 20 -4 0 -8 -6 -17 -12 -19 -7 -3 -3 -6 10 -6 16 -1
41 18 79 57 34 35 63 56 73 54 10 -2 21 2 25 8 3 6 -3 10 -14 10 -12 0 -21 4
-21 10 0 5 6 7 14 4 8 -3 17 -1 21 5 3 7 -3 11 -15 11 -12 0 -18 4 -15 11 4 6
13 8 21 5 20 -7 17 4 -3 20 -16 12 -16 13 -2 14 21 0 34 30 14 30 -20 0 -19
10 3 26 16 13 16 13 -3 14 -20 1 -20 1 -1 15 12 9 15 15 7 15 -11 0 -12 19 -7
93 4 50 9 100 12 110 6 18 29 23 39 7z m-562 -401 c40 -11 45 -20 23 -38 -41
-35 -20 -74 56 -102 58 -23 88 -45 88 -66 0 -18 -7 -17 -38 6 -15 10 -47 30
-72 44 -25 14 -62 41 -84 61 -21 20 -41 34 -45 30 -3 -4 0 -9 6 -11 7 -3 23
-14 35 -25 21 -18 21 -19 3 -13 -11 4 -45 9 -75 11 -64 5 -76 14 -60 44 11 21
12 21 25 3 14 -17 14 -17 15 3 0 28 38 60 75 63 6 1 27 -4 48 -10z m245 -341
c9 -9 12 -137 12 -515 l0 -503 -28 0 -28 0 2 108 c2 59 4 290 4 515 2 415 3
430 38 395z m596 -515 c0 -270 -1 -494 -4 -497 -3 -3 -29 -7 -58 -10 l-52 -5
-1 57 c-7 433 -9 793 -4 859 l7 82 36 4 c83 9 75 63 76 -490z m33 -58 c-1
-305 -5 -546 -9 -537 -9 22 -10 1077 -1 1085 3 4 7 7 9 7 1 0 2 -250 1 -555z
m-166 78 c1 -526 0 -565 -14 -579 -3 -4 -6 225 -7 508 0 453 2 528 17 528 1 0
3 -206 4 -457z m499 442 c7 -9 14 -42 14 -74 1 -87 54 -153 119 -150 17 1 16
3 -8 10 -17 4 -44 22 -60 39 -25 26 -27 33 -15 40 10 6 22 3 37 -12 13 -12 23
-17 23 -11 0 6 -7 16 -15 23 -8 7 -15 24 -14 39 0 14 3 20 6 14 9 -25 25 -13
19 13 -6 21 -4 25 8 21 10 -4 16 -1 16 8 0 18 28 45 47 45 12 0 9 -7 -11 -25
-14 -13 -26 -28 -26 -32 0 -18 18 -34 38 -36 29 -2 28 -25 0 -37 -21 -8 -21
-9 -3 -9 45 -1 67 45 35 74 -18 16 -20 16 -20 2 0 -20 -15 -22 -26 -5 -12 19
36 50 65 43 36 -8 51 -32 51 -78 0 -46 -15 -78 -34 -71 -7 3 -16 -2 -19 -10
-4 -9 -14 -16 -22 -16 -9 0 -13 -5 -9 -11 5 -8 1 -8 -14 0 -29 15 -50 15 -34
-1 7 -7 12 -27 12 -44 0 -38 -38 -74 -79 -74 -17 0 -22 3 -13 8 8 6 2 9 -17 9
-26 0 -29 -3 -19 -15 9 -10 25 -13 57 -9 51 6 91 42 91 81 0 16 9 25 38 35 20
8 40 19 44 25 5 7 15 3 31 -12 13 -13 36 -22 54 -22 27 0 33 -5 47 -42 10 -22
13 -44 8 -47 -17 -12 -22 -41 -6 -41 15 0 13 -24 -5 -57 -14 -26 -73 -84 -100
-97 -115 -60 -274 -27 -331 67 -11 18 -20 35 -20 40 0 15 25 1 45 -26 22 -32
85 -75 85 -59 0 6 -14 19 -30 29 -17 10 -40 37 -51 60 -11 24 -25 43 -30 43
-5 0 -9 11 -9 25 0 19 5 25 23 25 36 1 107 37 107 56 0 13 -5 11 -26 -10 -38
-37 -113 -37 -161 0 -79 60 -95 141 -43 212 17 23 33 42 36 42 4 0 1 -7 -6
-15 -21 -25 -4 -29 22 -5 13 11 28 25 33 30 16 14 51 11 65 -5z m-922 -684
c-2 -300 -7 -551 -11 -557 -10 -17 -65 -4 -70 17 -8 29 4 61 19 55 8 -3 14 -1
14 4 0 6 -7 10 -15 10 -8 0 -15 5 -15 10 0 6 7 10 15 10 8 0 15 9 15 20 0 11
-6 20 -14 20 -7 0 -16 9 -19 20 -3 12 0 20 8 20 7 0 15 7 19 15 3 9 0 15 -9
15 -8 0 -15 5 -15 10 0 6 4 10 9 10 5 0 16 3 25 6 11 4 16 0 17 -12 1 -11 4
-5 8 11 3 17 6 220 6 452 0 236 4 419 9 416 5 -3 7 -247 4 -552z m-132 -403
c0 -48 -4 -88 -8 -88 -4 0 -8 5 -8 10 0 6 -11 10 -25 10 -14 0 -25 -4 -25 -10
0 -5 -12 -10 -27 -9 -16 0 -22 3 -15 6 6 2 12 12 12 20 0 12 9 14 40 11 30 -3
39 0 36 9 -3 7 -1 13 4 13 6 0 10 5 10 10 0 6 -25 10 -55 10 -44 0 -53 3 -49
15 9 23 -15 45 -50 46 -17 1 -23 3 -13 6 28 7 20 21 -15 26 -18 2 17 4 78 4
l111 0 -1 -89z m-436 -48 c0 -5 -14 -13 -32 -18 -52 -13 -46 -30 9 -24 l48 5
-16 -24 c-19 -28 -96 -55 -133 -45 -14 3 -35 16 -46 28 -19 21 -20 23 -3 39
33 32 173 63 173 39z m-127 -165 c1 -5 -8 -11 -20 -13 -37 -5 -26 -19 14 -18
29 1 38 -3 41 -18 7 -33 -25 -46 -110 -46 l-78 0 0 49 c0 28 5 53 12 57 39 25
136 17 141 -11z m512 -22 c29 -14 38 -15 44 -4 11 18 95 11 98 -9 6 -35 -14
-43 -124 -50 -119 -7 -129 -6 -137 17 -8 21 10 41 48 52 17 5 32 10 33 10 1 1
18 -7 38 -16z m1521 -89 c-3 -8 -6 -72 -6 -140 l0 -124 -615 0 -615 0 2 33 c1
17 8 37 16 42 11 9 11 16 1 38 -13 29 -29 36 -29 12 0 -22 -18 -18 -31 7 -10
18 -9 20 5 15 10 -4 16 -1 16 8 0 21 -46 19 -54 -2 -4 -9 -2 -21 3 -26 7 -7 3
-14 -12 -22 -32 -15 -29 -49 5 -53 23 -3 27 1 30 25 l3 28 13 -23 c8 -13 11
-35 7 -52 l-6 -28 -162 -7 c-89 -3 -295 -5 -457 -3 l-295 3 -3 131 c-3 130 -2
132 20 137 13 3 232 6 487 7 256 0 467 2 469 5 2 2 276 4 609 5 553 0 605 -1
599 -16z"/>
<path d="M839 3908 c0 -2 -1 -25 -3 -53 -1 -27 -8 -91 -15 -142 -16 -107 -13
-125 30 -176 30 -37 89 -76 89 -59 0 5 -11 14 -25 20 -13 6 -38 31 -56 54 -31
42 -31 44 -26 133 4 67 11 102 27 133 22 42 38 58 26 25 -4 -9 -16 -52 -27
-95 -16 -62 -18 -82 -9 -93 7 -8 10 -26 8 -40 -3 -14 -1 -28 3 -31 5 -3 9 6 9
20 0 14 5 28 10 31 11 7 14 -13 11 -56 -1 -14 5 -32 14 -39 12 -10 15 -10 15
4 0 10 -4 15 -9 12 -11 -7 -2 84 11 104 6 10 7 -2 3 -32 -4 -31 -2 -48 4 -48
6 0 11 12 12 28 0 15 3 21 6 15 7 -18 23 -16 23 2 0 9 6 12 15 9 22 -9 18 -34
-5 -34 -19 0 -40 -27 -40 -51 0 -8 4 -8 15 1 8 7 15 19 15 26 0 19 10 18 26
-3 12 -16 13 -15 14 10 0 16 4 26 10 22 6 -3 10 0 10 7 0 7 -20 26 -45 41 -32
21 -45 35 -45 52 0 12 -6 35 -14 50 -8 15 -17 50 -21 76 -4 30 -12 49 -20 49
-7 0 -15 7 -19 15 -4 12 -24 22 -27 13z"/>
<path d="M1396 3898 c-3 -7 -7 -33 -11 -57 -10 -76 -36 -142 -58 -150 -13 -5
-16 -10 -9 -15 12 -7 5 -37 -12 -48 -7 -5 -7 -8 2 -8 14 0 6 -76 -11 -97 -6
-9 -6 -13 1 -13 12 0 21 20 38 90 l14 55 -4 -45 c-2 -25 -7 -53 -11 -62 -12
-29 31 -10 45 20 7 16 15 22 17 15 3 -7 9 -13 14 -13 14 0 10 100 -6 154 -8
27 -15 59 -14 70 0 12 8 -10 19 -49 10 -38 23 -81 29 -95 10 -25 10 -25 10 -2
1 14 5 21 12 16 27 -16 -18 -122 -63 -149 -16 -9 -27 -19 -24 -22 11 -11 68
45 90 89 l24 49 -19 56 c-11 31 -23 93 -26 139 -5 74 -8 84 -25 84 -10 0 -20
-6 -22 -12z"/>
<path d="M1060 2890 c0 -79 0 -80 25 -80 20 0 25 5 25 24 0 13 8 34 18 46 23
28 47 18 83 -34 17 -25 32 -36 49 -36 25 0 25 0 22 80 -3 68 -6 80 -21 80 -15
0 -17 -7 -11 -50 4 -27 3 -50 -1 -50 -5 0 -23 18 -40 40 l-33 40 -33 -32 c-18
-17 -34 -28 -34 -22 -1 5 -2 14 -4 19 -1 6 -3 20 -3 33 -2 15 -8 22 -22 22
-18 0 -20 -7 -20 -80z"/>
<path d="M1545 284 c-18 -4 -20 -11 -17 -89 l3 -85 35 0 c19 0 34 5 34 10 0 6
-4 10 -10 10 -5 0 -10 14 -10 30 0 20 5 30 15 30 45 0 92 57 68 81 -11 11 -90
19 -118 13z"/>
<path d="M1290 270 c0 -5 5 -10 10 -10 6 0 10 -21 10 -46 0 -66 30 -106 78
-102 47 4 69 37 74 111 l5 57 -30 0 c-24 0 -27 -2 -18 -14 7 -8 11 -36 9 -63
-3 -46 -4 -48 -33 -48 -26 0 -30 5 -38 38 -7 30 -6 42 7 56 9 10 13 21 9 24
-10 11 -83 8 -83 -3z"/>
</g>
</svg>
