<?xml version="1.0" standalone="no"?>
<!DOCTYPE svg PUBLIC "-//W3C//DTD SVG 20010904//EN"
 "http://www.w3.org/TR/2001/REC-SVG-20010904/DTD/svg10.dtd">
<svg version="1.0" xmlns="http://www.w3.org/2000/svg"
 width="233.000000pt" height="400.000000pt" viewBox="0 0 233.000000 400.000000"
 preserveAspectRatio="xMidYMid meet">
<metadata>
Created by potrace 1.15, written by Peter Selinger 2001-2017
</metadata>
<g transform="translate(0.000000,400.000000) scale(0.100000,-0.100000)"
fill="#000000" stroke="none">
<path d="M89 3963 l-27 -4 -6 -202 c-3 -111 -9 -436 -12 -722 -3 -286 -8 -558
-10 -605 -4 -107 -5 -2372 -1 -2376 1 -2 497 -6 1101 -10 l1098 -7 -2 129 c-2
71 -2 948 -1 1948 1 1001 -1 1821 -4 1824 -7 7 -838 18 -1542 21 -299 1 -548
3 -555 5 -7 1 -25 1 -39 -1z m1829 -39 l292 -6 0 -1567 c0 -861 -3 -1612 -7
-1667 l-6 -102 -33 14 c-21 9 -35 10 -39 4 -13 -21 -76 -10 -113 19 -49 38
-69 44 -81 24 -7 -14 -11 -11 -25 15 -9 18 -20 32 -24 32 -5 0 -21 -13 -37
-30 -15 -16 -32 -27 -37 -24 -5 4 -16 -3 -24 -15 -8 -11 -35 -33 -60 -47 -38
-22 -53 -26 -93 -21 -27 3 -52 2 -57 -3 -17 -17 -151 -23 -249 -11 -59 8 -101
9 -108 3 -24 -18 -158 -34 -225 -27 -53 6 -73 13 -99 35 -17 16 -58 36 -90 45
-38 11 -71 29 -94 52 -29 28 -43 34 -70 31 -28 -2 -37 -10 -58 -49 -24 -45
-25 -46 -60 -38 -57 13 -53 15 -123 -44 -28 -23 -85 -22 -131 3 -51 28 -105
26 -147 -5 -19 -14 -40 -25 -47 -25 -9 0 -13 71 -15 323 -2 177 -2 323 -2 325
1 2 22 -7 47 -19 45 -22 46 -23 41 -63 -13 -110 136 -205 237 -152 23 12 29
12 41 -1 19 -19 179 -26 231 -11 43 13 117 89 117 120 0 13 4 17 13 11 6 -4
68 -10 137 -13 l125 -5 -3 -50 c-3 -42 0 -54 20 -72 36 -34 78 -39 111 -13 26
21 27 25 25 98 l-3 77 48 2 c53 2 112 33 122 63 11 34 -30 81 -56 64 -5 -3 -9
0 -9 7 0 7 -7 4 -16 -7 -15 -18 -15 -18 -9 4 8 29 -7 29 -20 0 -6 -13 -18 -24
-28 -26 -15 -3 -17 1 -11 22 5 22 3 25 -10 20 -10 -4 -15 -12 -12 -19 2 -7 -1
-18 -7 -24 -8 -8 7 -10 61 -7 39 2 80 2 91 -1 19 -5 19 -7 7 -32 -8 -15 -25
-32 -38 -39 -27 -14 -219 -19 -295 -7 -40 6 -53 4 -53 -5 0 -7 7 -10 16 -6 9
3 35 1 58 -5 35 -10 38 -13 21 -20 -36 -14 -197 -10 -255 7 -30 9 -98 20 -150
24 -160 14 -212 40 -226 116 -7 37 11 159 26 179 4 6 11 24 14 40 l7 31 66 -4
c50 -3 64 -2 58 8 -4 6 -16 10 -26 7 -25 -7 -24 5 1 21 17 10 22 9 32 -8 9
-13 24 -20 44 -20 26 0 33 5 39 27 4 19 2 31 -9 39 -9 6 -16 14 -16 18 0 11
18 6 34 -10 9 -8 20 -12 26 -9 5 3 10 -3 10 -14 0 -11 -8 -24 -17 -29 -13 -8
-29 -42 -19 -42 1 0 46 43 99 95 105 104 117 128 18 39 -34 -31 -63 -55 -64
-53 -1 2 -7 13 -13 24 -6 11 -22 26 -35 32 -16 8 -23 19 -21 32 2 11 -4 37
-14 56 -13 27 -14 39 -5 48 6 6 11 33 11 60 0 40 -5 53 -29 78 -16 16 -39 29
-50 29 -25 0 -25 -2 -5 46 25 59 14 150 -23 206 -43 64 -94 90 -168 85 -33 -2
-66 -6 -74 -8 -8 -3 -14 7 -17 27 l-4 32 39 -14 c59 -20 105 -8 151 40 31 32
42 38 52 28 9 -9 8 -12 -6 -12 -16 0 -15 -4 9 -25 21 -21 26 -31 20 -53 -4
-15 -11 -30 -17 -33 -12 -8 -4 -39 11 -39 15 0 61 60 61 78 -1 33 -25 73 -55
90 -29 18 -29 19 -26 98 2 74 1 82 -27 120 -34 46 -101 84 -150 84 -71 0 -175
-65 -188 -117 -5 -17 -13 -23 -36 -23 -16 0 -39 -5 -50 -11 l-21 -11 7 703 c4
387 9 718 12 735 l6 32 766 -4 c422 -3 899 -7 1060 -10z m-1481 -1335 c60 -29
93 -87 92 -160 -1 -30 -3 -45 -6 -34 -9 38 -23 40 -23 4 0 -19 -6 -41 -12 -47
-10 -10 -10 -15 -1 -20 27 -17 -56 -74 -104 -71 -10 0 -2 5 17 11 44 13 60 26
53 44 -4 11 -8 12 -19 3 -11 -9 -21 -9 -40 0 l-26 12 20 18 c26 22 20 54 -14
70 -38 17 -50 14 -79 -21 -20 -23 -26 -40 -23 -64 4 -32 4 -32 -24 -18 -47 25
-103 18 -143 -17 -19 -17 -35 -26 -36 -20 -4 101 1 154 16 172 18 19 49 24 80
13 22 -9 48 -62 39 -82 -6 -14 -8 -13 -13 7 -4 13 -18 33 -32 43 -21 16 -30
17 -51 7 -21 -9 -26 -18 -26 -47 0 -32 1 -34 13 -19 9 13 21 16 41 12 28 -6
28 -6 10 9 -11 9 -29 14 -40 11 -20 -6 -20 -5 -3 8 10 8 27 13 38 10 20 -5 36
-44 25 -61 -3 -5 3 -12 14 -15 15 -4 24 2 33 21 16 31 12 57 -13 92 -16 22
-16 30 -5 55 35 82 151 118 242 74z m-204 -290 c28 -14 57 -49 56 -69 0 -12
-2 -11 -10 3 -15 25 -30 21 -20 -5 5 -13 16 -22 25 -20 9 2 16 -2 16 -8 0 -5
-7 -10 -15 -10 -8 0 -29 -19 -46 -42 -27 -38 -30 -49 -27 -98 2 -30 7 -62 11
-71 6 -11 1 -19 -17 -27 -28 -13 -51 -71 -43 -112 5 -25 3 -28 -26 -34 -17 -3
-42 -16 -55 -28 l-23 -22 4 230 c3 138 9 240 16 252 31 59 103 87 154 61z
m260 -124 c40 -28 87 -94 87 -122 0 -11 -7 -6 -17 15 -20 42 -72 92 -95 92
-26 0 -23 -5 15 -28 18 -10 41 -35 50 -55 19 -39 25 -116 14 -162 l-8 -30 16
25 c12 18 14 19 10 5 -19 -54 -18 -55 12 -55 43 0 78 -41 77 -91 -1 -38 -17
-69 -35 -69 -5 0 -9 6 -9 14 0 27 -41 65 -76 72 -54 10 -103 -10 -163 -66 -30
-27 -60 -50 -68 -50 -25 0 -53 39 -52 73 2 28 2 29 6 6 4 -29 39 -67 50 -55 4
3 1 12 -5 18 -19 19 -14 65 10 88 34 31 15 34 -23 3 -28 -22 -30 -23 -14 -4
34 40 73 54 106 40 16 -6 34 -19 38 -28 12 -19 24 -10 15 12 -7 20 -64 47 -99
47 -102 0 -151 -130 -73 -195 16 -14 36 -25 44 -25 8 0 14 -10 14 -24 0 -20
-6 -25 -45 -30 -28 -5 -62 -20 -90 -42 -25 -19 -49 -34 -54 -34 -5 0 -23 13
-40 29 -23 22 -31 38 -31 63 0 42 26 48 32 7 3 -19 0 -25 -9 -22 -16 6 -16 -7
1 -29 13 -18 56 -15 56 4 0 6 6 6 14 -1 8 -7 17 -8 20 -3 3 6 -1 15 -9 22 -8
7 -15 19 -15 27 0 10 -6 13 -16 9 -15 -6 -16 0 -11 45 5 44 4 49 -8 39 -23
-19 -18 1 7 27 12 13 31 23 44 23 35 0 47 22 29 56 -22 43 -19 81 10 109 28
29 33 30 71 10 16 -8 40 -15 54 -14 14 0 19 3 10 6 -48 16 -82 37 -97 60 -24
36 -19 106 8 145 49 68 173 90 242 43z m-3 -419 c-45 -14 -62 -25 -55 -36 3
-5 18 -1 34 8 25 14 33 15 55 2 14 -7 26 -19 26 -27 0 -7 5 -13 10 -13 17 0
11 22 -12 47 -25 27 -10 31 21 6 14 -12 23 -35 27 -68 6 -41 4 -48 -7 -37 -17
15 -61 16 -77 0 -16 -16 -15 -58 1 -58 8 0 13 10 13 22 -1 28 33 37 50 13 15
-21 7 -83 -14 -108 -17 -19 -70 -36 -89 -29 -7 2 -13 12 -13 22 0 28 -32 60
-75 74 -34 12 -40 19 -43 45 -2 17 1 39 7 48 9 16 10 14 11 -10 0 -16 4 -26
10 -22 6 3 10 19 10 34 0 44 71 100 125 99 12 0 6 -5 -15 -12z m-130 -201 c17
-9 30 -20 30 -26 0 -6 7 -8 15 -5 24 9 40 -35 27 -74 -6 -17 -9 -37 -6 -45 9
-24 -49 -75 -86 -75 -42 0 -84 41 -74 73 13 45 39 61 51 32 3 -9 -2 -22 -13
-30 -18 -14 -18 -14 4 -15 17 0 24 7 29 31 4 20 8 26 14 18 4 -7 3 -21 -2 -30
-12 -22 -11 -29 1 -29 22 0 31 39 16 73 -16 40 -39 48 -87 33 -25 -8 -34 -17
-34 -33 0 -11 -3 -24 -7 -28 -4 -4 -5 -12 -3 -18 2 -7 6 -24 9 -39 7 -33 57
-62 93 -55 22 4 24 2 17 -22 -32 -117 -12 -200 63 -266 l23 -20 -24 -29 c-20
-25 -31 -30 -82 -33 -65 -5 -112 16 -135 59 l-12 23 24 -22 c42 -38 88 -52
133 -39 22 6 41 17 44 24 3 9 -6 8 -31 -4 -32 -15 -36 -15 -79 4 -49 21 -82
71 -71 110 9 35 -15 26 -27 -10 -10 -32 -10 -31 -6 11 3 24 8 47 13 52 4 4 28
1 52 -7 24 -8 54 -14 65 -12 28 4 33 35 7 43 -12 3 -35 18 -53 33 -34 28 -33
30 -10 -28 3 -8 -6 -2 -21 14 -15 16 -32 44 -39 62 -7 19 -17 34 -24 34 -8 0
-10 16 -8 50 2 28 -1 50 -6 50 -14 0 8 61 32 87 27 29 12 30 -19 1 -13 -12
-23 -16 -23 -10 0 6 15 22 33 36 37 28 107 60 107 49 0 -4 5 -2 12 5 16 16 33
15 68 -3z m50 -244 c-5 -11 -10 -31 -10 -45 0 -14 -4 -26 -10 -26 -13 0 -24
-46 -14 -61 5 -9 9 -7 14 7 6 15 11 10 28 -29 24 -54 63 -77 131 -77 30 0 43
-5 51 -20 13 -24 4 -66 -16 -74 -17 -6 -18 6 -3 21 7 7 9 23 5 37 -5 21 -13
26 -36 26 -17 0 -30 -5 -30 -11 0 -6 9 -9 20 -6 27 7 47 -18 30 -38 -28 -34
-113 -5 -161 55 -43 53 -56 133 -34 204 10 33 24 56 32 56 10 0 11 -5 3 -19z
m337 -244 c11 -11 -20 -68 -54 -100 -18 -18 -48 -35 -66 -39 -48 -10 -118 7
-139 33 -25 30 -15 36 27 13 34 -18 36 -18 71 1 34 18 36 21 32 63 l-3 44 63
-5 c34 -2 65 -7 69 -10z m-228 -518 c-5 -10 -16 -19 -23 -19 -8 0 -19 -7 -26
-15 -7 -8 -21 -15 -31 -15 -11 0 -19 -4 -19 -8 0 -12 -171 -92 -197 -92 -12 0
-46 -9 -75 -19 -81 -29 -88 -26 -88 31 0 48 0 48 33 48 18 0 58 9 90 20 31 11
68 20 81 20 49 0 132 25 168 50 26 19 45 25 67 22 26 -4 29 -7 20 -23z m1150
-30 c-11 -7 -9 -9 6 -10 12 0 15 -3 7 -6 -8 -3 -25 0 -38 7 -20 11 -27 11 -41
-1 -33 -27 -67 -38 -143 -43 -41 -3 -91 -7 -110 -9 -19 -1 -48 4 -63 11 -17 9
-39 11 -55 7 -63 -16 -98 -17 -151 -5 -74 16 -111 32 -58 26 21 -3 75 2 120
11 45 9 93 15 107 15 149 -6 308 -5 322 3 22 13 117 7 97 -6z m527 -266 c-5
-59 -13 -94 -24 -106 -15 -17 -14 -18 6 -24 15 -3 22 -13 22 -29 l0 -24 -680
0 c-402 0 -680 4 -680 10 0 5 4 12 10 15 14 9 12 48 -2 64 -11 11 -10 13 4 8
24 -8 31 8 17 35 -11 20 -12 21 -25 4 -12 -17 -13 -16 -24 3 -9 17 -8 21 5 21
16 0 20 15 6 24 -17 11 -41 -6 -41 -28 0 -11 9 -36 20 -54 25 -41 25 -63 -1
-85 -19 -17 -48 -18 -372 -16 -194 1 -358 4 -364 7 -10 3 -13 39 -13 133 l0
129 1071 0 1072 0 -7 -87z"/>
<path d="M1132 3821 c-12 -21 -23 -52 -23 -67 -1 -28 -2 -27 -12 8 -15 55 -81
67 -109 21 -15 -26 -15 -29 4 -55 15 -21 16 -29 6 -32 -39 -12 -41 -14 -17
-15 15 -1 32 6 39 14 9 11 8 18 -9 36 -18 20 -19 25 -7 43 7 12 19 21 25 20 6
-1 20 -2 31 -2 16 -2 20 -9 20 -37 0 -29 5 -37 28 -46 34 -13 171 -7 180 8 4
6 16 12 26 14 26 5 32 27 10 36 -11 4 -22 0 -30 -12 -13 -18 -14 -17 -12 7 3
34 42 55 64 34 17 -18 8 -76 -12 -76 -8 0 -14 -4 -14 -9 0 -25 116 -65 158
-54 25 6 27 1 11 -28 -7 -15 -14 -17 -23 -10 -39 33 -376 80 -376 53 0 -7 16
-9 49 -5 86 10 321 -45 321 -76 0 -5 -7 -12 -16 -15 -10 -4 -14 -14 -11 -26 6
-25 6 -25 -35 0 -74 43 -356 47 -438 6 -42 -20 -41 -20 -35 7 4 16 0 24 -17
32 -14 6 -22 17 -20 29 2 11 -1 15 -7 11 -12 -7 -60 42 -61 61 0 7 -7 14 -15
18 -25 9 -17 24 10 18 16 -3 27 -13 31 -28 8 -32 26 -41 70 -36 l35 4 -28 15
c-15 8 -32 15 -38 16 -5 1 -16 10 -25 19 -8 10 -30 21 -47 24 -26 5 -34 3 -40
-12 -4 -10 -2 -19 5 -22 26 -8 12 -28 -17 -24 -20 3 -35 -2 -50 -17 -29 -29
-26 -42 8 -36 37 6 51 -20 16 -29 -28 -7 -111 -88 -120 -117 -7 -22 5 -25 24
-6 12 10 13 8 6 -8 -13 -32 -18 -95 -8 -95 6 0 18 16 29 35 19 35 34 45 34 23
0 -9 3 -9 12 0 7 7 11 31 9 54 -2 40 -1 42 13 23 12 -16 18 -18 34 -8 17 10
19 8 19 -17 0 -21 -6 -30 -22 -34 -12 -3 -27 -17 -35 -31 -7 -14 -17 -25 -21
-25 -5 0 -20 -11 -34 -26 -18 -18 -23 -32 -19 -48 3 -13 1 -27 -5 -30 -13 -8
-15 -66 -3 -66 15 0 39 34 52 73 12 40 30 50 30 17 0 -11 7 -20 15 -20 8 0 15
7 15 15 0 8 9 15 20 15 19 0 20 -2 6 -29 -16 -31 -13 -43 10 -34 23 9 16 -7
-21 -48 -35 -39 -44 -72 -25 -84 6 -4 19 4 29 16 10 12 23 19 29 15 20 -12 13
-47 -13 -68 -14 -11 -25 -26 -25 -33 0 -7 -8 -27 -17 -44 -15 -24 -15 -33 -5
-43 10 -10 17 -7 38 17 18 21 23 24 18 10 -3 -11 -11 -39 -17 -62 -9 -38 -27
-60 -27 -33 0 12 -10 13 -30 0 -11 -7 -12 -13 -2 -32 9 -16 10 -33 2 -57 -11
-41 -5 -54 22 -45 17 5 20 3 15 -11 -4 -9 -7 -19 -7 -21 0 -2 -7 -4 -15 -4
-18 0 -30 -24 -20 -41 6 -8 9 -8 15 1 4 7 16 -6 31 -36 13 -26 29 -48 34 -48
15 -1 18 54 4 81 -10 18 -10 26 -1 35 7 7 12 20 12 30 0 10 5 18 10 18 6 0 10
-5 10 -11 0 -5 4 -8 9 -4 5 3 9 40 9 83 -1 58 -5 83 -19 104 -23 31 -24 57 -5
83 13 19 14 18 9 -6 -3 -16 1 -30 11 -38 13 -11 16 -11 16 2 0 9 5 28 11 43
l10 28 12 -23 c7 -13 17 -23 22 -23 16 2 16 65 0 92 -8 14 -24 45 -36 70 -12
25 -25 47 -29 50 -14 9 -15 34 -2 57 7 12 9 29 6 37 -3 9 -1 16 5 16 6 0 11
-19 11 -46 0 -61 28 -113 53 -97 10 6 0 73 -15 90 -6 7 -8 23 -4 36 4 17 -3
32 -24 55 -16 18 -34 32 -39 32 -6 0 -11 4 -11 9 0 5 8 8 18 7 14 -1 17 8 18
63 0 54 -2 65 -18 69 -22 5 -22 9 -3 28 14 15 20 11 15 -11 -1 -5 6 -15 16
-22 9 -7 22 -23 28 -35 6 -13 21 -27 34 -33 24 -11 31 -60 12 -95 -8 -14 -6
-29 4 -55 24 -56 46 -41 46 33 0 70 8 83 49 80 l36 -3 -1 -115 c-5 -320 -26
-1113 -34 -1245 -5 -87 -14 -151 -20 -153 -5 -2 -10 -14 -10 -27 0 -13 -4 -26
-9 -29 -5 -3 -14 -26 -20 -51 l-11 -45 -58 0 c-31 0 -96 9 -144 19 l-88 18 -1
-56 c-1 -31 -3 -75 -5 -98 -2 -23 0 -44 4 -46 4 -3 48 3 97 13 57 11 94 14
102 8 7 -6 19 -6 30 0 10 5 37 12 61 15 39 5 42 4 42 -19 0 -13 -6 -24 -12
-24 -7 -1 -3 -7 10 -14 13 -7 57 -13 98 -14 59 -2 74 1 74 12 0 10 -14 16 -42
19 l-43 4 44 1 c33 2 42 5 38 16 -5 12 11 26 29 26 2 0 2 -17 1 -37 l-2 -37
45 -2 c25 -1 32 0 15 3 -16 2 -34 8 -38 12 -12 12 3 61 18 61 13 0 50 -40 58
-63 2 -7 7 -10 10 -7 4 3 0 19 -8 34 -8 16 -15 29 -15 30 0 6 220 -33 248 -44
18 -7 35 -10 38 -7 9 9 10 204 1 213 -4 5 -28 -2 -53 -15 -37 -20 -64 -25
-148 -29 -102 -4 -103 -4 -109 19 -4 13 -7 36 -7 52 0 15 -4 27 -10 27 -5 0
-10 10 -10 21 0 12 -6 27 -14 33 -12 9 -13 126 -7 761 l6 749 38 4 c36 3 37 3
37 -31 0 -19 7 -51 15 -71 14 -32 18 -35 35 -26 21 11 28 64 10 75 -5 3 -10
20 -10 36 0 22 7 32 25 41 14 6 34 26 45 45 10 18 24 33 30 33 5 0 10 9 10 19
0 11 7 26 15 35 8 8 15 22 15 30 0 18 41 41 90 49 32 6 34 6 16 -8 -11 -8 -23
-15 -28 -15 -4 0 -8 -4 -8 -10 0 -5 17 -10 38 -10 52 0 76 -17 36 -25 -49 -11
-75 -25 -69 -36 4 -6 13 -8 20 -5 17 6 85 -12 85 -24 0 -4 -15 -3 -34 2 -19 6
-43 8 -53 4 -15 -6 -11 -10 21 -21 22 -8 49 -23 60 -35 l21 -21 -28 14 c-15 8
-38 12 -52 9 -27 -5 -33 -17 -11 -25 7 -3 17 -22 20 -41 4 -20 16 -53 27 -74
l21 -37 -29 34 c-15 19 -35 44 -45 55 -9 12 -20 18 -24 13 -9 -9 32 -190 53
-231 15 -29 15 -30 0 -17 -14 11 -27 46 -53 139 -2 7 -8 11 -14 7 -6 -3 -7
-31 -4 -68 5 -52 15 -77 61 -155 31 -51 53 -95 50 -98 -6 -6 -16 9 -68 100
-36 62 -55 78 -65 53 -6 -16 43 -103 53 -93 3 3 -5 22 -18 42 -12 21 -17 34
-11 30 7 -4 22 -26 33 -48 11 -22 16 -37 10 -33 -21 12 -11 -4 27 -46 35 -37
81 -133 70 -144 -3 -3 -21 25 -42 63 -47 85 -89 137 -104 128 -19 -11 -14 -35
13 -61 13 -14 20 -25 15 -25 -5 0 -14 -9 -20 -19 -7 -14 -5 -30 10 -63 11 -23
20 -57 20 -75 0 -17 5 -44 10 -58 8 -20 7 -26 -2 -23 -6 2 -21 40 -33 84 -13
43 -28 92 -34 108 -24 61 -29 149 -16 271 29 260 32 311 24 379 -13 101 -21
95 -13 -9 4 -64 1 -134 -12 -240 -29 -231 -25 -326 19 -463 45 -139 47 -192
10 -274 -23 -53 -25 -65 -17 -116 6 -39 14 -58 25 -60 12 -2 18 13 29 70 14
82 34 138 26 75 -3 -20 -1 -37 3 -37 17 0 41 74 41 125 0 30 4 55 9 55 17 0
32 83 22 120 -9 30 -8 32 3 18 7 -10 16 -18 20 -18 12 0 6 81 -9 117 -8 19
-15 48 -15 62 0 15 -18 56 -40 92 -46 73 -73 129 -66 136 2 3 14 -13 25 -35
22 -43 48 -60 57 -37 4 8 12 15 20 15 16 0 19 16 4 25 -5 3 -15 15 -21 26 -10
20 -10 20 15 4 32 -21 33 -13 5 32 -16 26 -19 37 -10 46 15 15 14 33 -5 73 -9
19 -14 37 -11 41 4 3 0 18 -9 34 -8 16 -10 29 -5 29 9 0 23 -33 25 -59 1 -18
33 -38 43 -27 4 4 1 13 -8 19 -16 12 -39 49 -39 63 0 4 8 0 19 -10 15 -14 20
-14 30 -3 8 11 6 20 -13 40 -22 24 -22 26 -5 30 39 10 23 28 -46 52 -17 7 -16
9 13 17 33 9 45 38 16 38 -11 0 -14 5 -9 18 12 28 11 47 -2 44 -7 -1 -13 7
-13 17 0 33 -11 51 -31 51 -14 0 -19 7 -19 28 l0 27 -20 -33 c-17 -28 -58 -56
-68 -47 -2 2 2 14 9 27 7 14 14 18 17 10 6 -18 22 -14 22 6 0 14 -8 18 -35 18
-19 0 -43 8 -55 19 -20 18 -22 17 -24 -20 -1 -13 -7 -19 -18 -17 -11 2 -18 -3
-18 -13 0 -9 -7 -31 -15 -51 -13 -31 -17 -34 -34 -24 -20 10 -20 10 -1 44 l20
33 -23 26 c-25 30 -43 33 -82 15 -23 -10 -26 -17 -23 -50 5 -52 -8 -48 -15 5
-4 31 -14 49 -38 70 -18 15 -38 27 -44 27 -6 0 -21 -17 -33 -39z m23 -853 c-4
-332 -9 -606 -11 -609 -2 -3 -4 -69 -5 -147 0 -89 -5 -142 -11 -142 -6 0 -5
-6 2 -15 10 -12 10 -15 0 -15 -7 0 -10 -7 -6 -16 3 -8 2 -13 -3 -9 -5 3 -15
-8 -23 -25 -15 -35 -30 -40 -24 -7 5 21 15 341 36 1137 6 201 10 385 10 408 0
36 3 42 21 42 l21 0 -7 -602z m67 -115 c-2 -395 -6 -765 -10 -823 l-7 -105
-22 38 -23 37 5 573 c3 314 8 668 11 785 6 208 7 212 28 212 l21 0 -3 -717z
m23 -982 c3 -5 9 -30 14 -55 l8 -46 -88 0 c-49 0 -89 4 -89 8 0 5 -12 13 -27
19 l-28 11 25 2 c23 1 23 2 5 10 -18 8 -17 9 8 9 15 1 27 6 27 12 0 7 -14 10
-35 7 -19 -2 -35 0 -35 4 0 4 16 8 35 8 19 0 35 5 35 10 0 13 137 13 145 1z
m-415 -101 c192 -23 628 -20 723 5 21 6 27 4 27 -10 0 -9 -4 -13 -10 -10 -5 3
-10 -3 -10 -14 0 -12 -4 -21 -9 -21 -5 0 -11 -13 -13 -30 -4 -24 -1 -30 13
-30 12 0 19 10 22 33 3 24 4 20 5 -16 2 -42 0 -48 -15 -43 -169 50 -629 54
-800 7 -48 -14 -53 -14 -53 0 0 5 4 8 9 5 13 -8 61 33 61 53 0 9 -9 23 -20 31
-11 8 -20 20 -20 27 0 7 -4 13 -10 13 -5 0 -10 5 -10 11 0 6 7 8 17 5 10 -4
51 -11 93 -16z"/>
<path d="M1127 293 c-12 -12 -7 -23 7 -17 10 4 24 -15 47 -62 22 -46 29 -69
21 -72 -23 -7 -11 -22 18 -22 33 0 49 22 31 43 -8 10 -7 21 2 40 6 15 14 27
17 27 5 0 50 -75 50 -84 0 -4 -7 -6 -15 -6 -8 0 -15 -4 -15 -10 0 -5 16 -10
36 -10 30 0 34 3 25 14 -9 10 -4 31 19 87 16 41 30 75 30 77 0 1 -13 2 -30 2
-16 0 -30 -4 -30 -10 0 -5 5 -10 11 -10 7 0 9 -10 4 -27 -9 -40 -21 -48 -34
-24 -16 29 -71 29 -78 1 -8 -29 -16 -25 -37 19 -19 41 -60 64 -79 44z"/>
<path d="M1435 275 c-74 -73 23 -186 110 -129 31 20 50 76 36 103 -30 54 -105
68 -146 26z"/>
<path d="M1613 220 c3 -44 1 -80 -4 -80 -5 0 -9 -4 -9 -10 0 -5 13 -10 29 -10
28 0 29 1 24 40 -5 32 -3 40 10 40 9 0 24 -12 34 -27 20 -34 42 -53 60 -53 21
0 15 23 -14 48 -23 20 -25 26 -15 42 17 28 15 77 -4 84 -9 3 -38 6 -66 6 l-50
0 5 -80z"/>
<path d="M1795 211 l0 -89 40 0 c86 -1 143 61 115 127 -14 35 -48 51 -108 51
l-47 0 0 -89z"/>
<path d="M139 285 c0 0 -2 -10 -5 -23 -2 -12 -17 -49 -32 -82 -21 -43 -25 -60
-15 -60 7 0 20 18 29 40 14 36 20 40 50 40 32 0 34 -2 34 -34 0 -19 -6 -37
-12 -39 -7 -3 8 -6 35 -6 43 -1 60 10 38 23 -5 3 -14 35 -21 70 l-12 64 -44 4
c-24 2 -44 3 -45 3z"/>
<path d="M485 205 l0 -85 58 0 c44 0 62 5 78 21 11 11 18 23 15 27 -4 3 -12 0
-18 -6 -7 -7 -27 -12 -45 -12 -31 0 -33 2 -33 33 1 30 1 31 15 13 14 -19 15
-18 15 12 0 32 -14 43 -23 20 -3 -7 -6 0 -6 15 -1 24 3 28 22 25 12 -2 22 -9
22 -17 0 -8 6 -16 13 -18 8 -3 12 6 12 26 l0 31 -62 0 -63 0 0 -85z"/>
</g>
</svg>
