<?xml version="1.0" standalone="no"?>
<!DOCTYPE svg PUBLIC "-//W3C//DTD SVG 20010904//EN"
 "http://www.w3.org/TR/2001/REC-SVG-20010904/DTD/svg10.dtd">
<svg version="1.0" xmlns="http://www.w3.org/2000/svg"
 width="233.000000pt" height="400.000000pt" viewBox="0 0 233.000000 400.000000"
 preserveAspectRatio="xMidYMid meet">
<metadata>
Created by potrace 1.15, written by Peter Selinger 2001-2017
</metadata>
<g transform="translate(0.000000,400.000000) scale(0.100000,-0.100000)"
fill="#000000" stroke="none">
<path d="M54 3948 c-9 -14 -12 -498 -13 -2333 l-2 -1560 1103 1 1103 1 6 64
c8 89 -2 3812 -10 3822 -11 12 -2180 17 -2187 5z m860 -93 c-2 -128 -13 -376
-20 -427 -4 -32 -2 -48 5 -48 6 0 11 5 11 10 0 6 7 10 16 10 10 0 14 -6 10
-15 -3 -8 0 -15 7 -15 8 0 7 -4 -3 -10 -13 -9 -13 -11 0 -20 13 -8 12 -10 -4
-10 -15 0 -16 -3 -6 -15 10 -12 10 -15 -1 -15 -11 0 -11 -2 1 -11 12 -8 11 -9
-5 -7 -16 3 -19 10 -17 41 2 21 -2 37 -8 37 -5 0 -10 -21 -11 -47 -1 -27 -3
-87 -5 -134 -4 -81 -3 -87 17 -92 13 -4 18 -10 14 -17 -4 -7 -1 -16 6 -21 10
-6 10 -9 2 -9 -7 0 -10 -7 -7 -15 4 -10 0 -15 -11 -15 -13 0 -16 6 -13 24 3
14 2 30 -2 36 -8 13 -19 -78 -22 -172 -1 -56 -2 -58 -29 -58 -15 0 -40 -11
-56 -23 -19 -17 -39 -23 -63 -22 -19 1 -25 0 -13 -2 19 -4 50 -59 39 -70 -10
-10 -37 12 -33 28 3 11 -2 19 -17 23 -37 10 -54 7 -59 -11 -2 -10 -2 9 1 43 4
55 0 70 -40 165 -65 150 -63 138 -26 176 l33 34 -23 19 -23 19 27 48 c14 26
31 51 36 54 5 3 12 25 15 48 5 38 4 41 -19 41 -30 0 -41 -9 -29 -24 5 -6 12
-22 16 -34 6 -20 4 -23 -12 -18 -10 3 -25 1 -33 -4 -13 -8 -13 -13 -2 -31 11
-18 12 -26 1 -45 -7 -13 -21 -24 -31 -24 -10 0 -18 -4 -18 -10 0 -5 7 -10 16
-10 13 0 15 -7 10 -31 -5 -27 -4 -29 10 -15 27 27 36 17 14 -14 -25 -35 -30
-36 -53 -10 -19 22 -22 35 -7 25 6 -3 10 -2 10 4 0 5 -13 12 -30 16 -16 4 -30
11 -30 15 0 5 -6 7 -13 4 -8 -3 -19 2 -26 9 -16 21 9 29 51 16 18 -5 34 -9 35
-9 2 0 3 11 3 25 0 20 -5 25 -25 25 -17 0 -23 4 -19 14 3 8 13 12 25 9 28 -8
50 15 43 43 -5 19 -1 26 20 36 31 13 32 44 3 62 -14 9 -21 7 -32 -8 -8 -10
-25 -18 -39 -18 -14 0 -31 -7 -37 -14 -7 -9 -21 -12 -33 -9 -16 5 -18 4 -6 -4
18 -12 7 -26 -15 -18 -20 8 -19 36 3 44 17 7 31 20 89 87 18 21 37 34 43 31 7
-4 3 -13 -10 -25 -11 -9 -20 -20 -20 -24 0 -15 23 -3 57 29 34 32 73 47 73 28
0 -5 -16 -23 -35 -42 -32 -31 -48 -60 -26 -46 5 3 12 1 16 -5 12 -19 35 -10
55 23 24 39 25 51 4 71 -17 18 -69 22 -79 6 -3 -5 -19 -7 -34 -4 -16 4 -32 1
-35 -5 -4 -6 -23 -11 -42 -11 -20 0 -44 -5 -54 -10 -22 -12 -60 6 -60 27 0 21
-31 43 -60 43 -32 0 -76 -45 -86 -88 -4 -15 -13 -36 -20 -47 -8 -11 -14 -30
-14 -43 0 -17 -4 -22 -14 -19 -10 4 -20 -8 -33 -39 -10 -24 -21 -44 -24 -44
-8 0 -16 491 -11 583 l4 58 421 -3 422 -3 -1 -80z m1313 -607 c2 -436 -1 -689
-7 -693 -6 -3 -10 -11 -10 -17 0 -7 4 -7 13 0 10 9 12 4 9 -25 -4 -28 -7 -32
-14 -19 -5 9 -14 16 -20 16 -7 0 -7 -4 0 -13 6 -7 13 -64 15 -127 2 -63 8
-127 12 -142 5 -19 3 -32 -8 -43 -22 -22 -30 -19 -23 10 5 20 3 25 -11 25 -24
0 -78 -56 -61 -63 7 -3 -3 -6 -22 -7 l-35 -2 33 -9 c17 -5 32 -14 32 -20 0 -6
-9 -8 -19 -4 -23 7 -56 -22 -90 -77 -17 -29 -19 -38 -9 -38 8 0 21 -11 28 -25
7 -14 17 -25 22 -25 4 0 8 -17 8 -37 0 -35 1 -36 15 -17 14 18 15 18 13 -11
-3 -52 2 -85 12 -85 6 0 10 18 10 40 0 23 5 40 11 40 8 0 10 -28 7 -95 -3 -52
-2 -95 2 -95 7 0 20 107 20 173 0 21 5 37 11 37 12 0 10 -52 -10 -245 -6 -49
-6 -106 -2 -125 8 -37 8 -36 27 240 4 50 11 90 15 90 11 0 11 -61 0 -175 -18
-180 -24 -325 -12 -325 7 0 11 27 11 75 0 47 4 75 11 75 7 0 9 -26 4 -85 -5
-58 -4 -85 3 -85 6 0 13 19 15 43 3 31 4 26 4 -19 0 -55 -1 -61 -18 -57 -11 3
-19 9 -19 14 0 5 -4 9 -10 9 -5 0 -10 -8 -10 -17 0 -15 -2 -16 -10 -3 -5 9 -6
16 0 18 4 2 3 18 -4 35 -8 18 -16 69 -20 115 -9 118 -32 226 -71 344 -28 85
-34 96 -35 66 0 -20 -4 -39 -9 -42 -5 -3 -7 -16 -4 -29 4 -18 3 -19 -6 -7 -6
8 -11 11 -11 6 0 -14 -30 15 -30 30 0 8 8 14 19 14 12 0 20 9 23 23 6 33 0 46
-21 40 -23 -6 -36 37 -21 70 l11 22 -17 -22 c-18 -25 -34 -30 -34 -10 0 7 -26
28 -57 47 -47 29 -54 36 -35 38 25 4 25 4 16 27 -6 14 -9 13 -30 -6 l-24 -23
21 -22 c18 -19 19 -27 10 -59 -9 -32 -7 -42 9 -62 11 -14 21 -19 25 -13 3 5 2
10 -4 10 -17 0 -23 40 -11 70 12 28 13 29 40 15 28 -15 44 -40 35 -56 -4 -5 1
-6 9 -3 16 6 23 -10 9 -19 -5 -2 -2 -2 5 -1 6 2 12 -3 12 -11 0 -8 -5 -15 -12
-15 -6 0 -3 -6 8 -14 10 -8 16 -18 12 -22 -4 -4 -14 -2 -22 5 -11 9 -15 8 -20
-5 -4 -11 -2 -15 8 -11 17 7 29 -18 21 -44 -8 -23 30 -46 49 -30 8 6 21 9 29
5 14 -5 15 -1 7 27 -15 50 5 21 24 -35 16 -49 23 -132 7 -93 -6 17 -8 17 -20
3 -16 -19 -4 -39 20 -33 10 3 22 1 25 -4 3 -5 -1 -9 -8 -9 -10 0 -9 -3 1 -9
12 -8 13 -12 1 -25 -11 -14 -10 -16 4 -10 13 5 16 -1 16 -32 0 -29 -3 -35 -10
-24 -5 8 -15 15 -22 15 -7 0 -23 16 -36 35 -22 32 -80 103 -129 157 -13 13
-23 28 -23 32 0 23 -43 61 -68 60 -21 -1 -23 -2 -7 -6 26 -6 55 -32 55 -49 0
-7 6 -19 13 -26 7 -7 26 -30 41 -51 29 -38 29 -38 8 -44 -34 -9 -26 -19 12
-15 l33 4 6 -54 c8 -74 40 -207 45 -185 2 9 -4 49 -12 87 -9 38 -16 82 -16 97
1 26 1 27 12 8 6 -11 24 -35 40 -53 15 -18 28 -39 28 -47 0 -8 7 -15 15 -15 9
0 12 6 8 17 -4 11 -3 14 5 9 13 -8 11 -104 -3 -126 -6 -10 -4 -12 8 -7 17 6
19 4 22 -44 2 -22 -1 -25 -19 -21 l-21 5 20 -24 20 -24 -21 18 c-11 9 -24 14
-27 10 -4 -3 -7 -2 -7 3 0 5 9 15 20 22 18 11 19 14 6 27 -19 19 -26 19 -26 0
0 -9 -12 -27 -26 -42 -14 -14 -23 -31 -20 -39 3 -7 1 -16 -5 -20 -6 -3 -7 -18
-4 -34 4 -18 -1 -44 -13 -71 -30 -68 -35 -84 -20 -71 7 6 24 41 38 78 21 57
30 69 59 81 38 16 63 38 54 47 -4 3 -2 6 4 6 5 0 17 -21 25 -48 16 -47 16 -47
-8 -50 -25 -3 -31 -16 -14 -27 6 -3 10 -1 10 4 0 16 17 13 24 -4 9 -23 -4 -45
-27 -45 -11 0 -17 3 -13 7 4 5 13 8 19 8 5 0 12 5 14 11 3 9 -7 8 -34 -1 -35
-12 -40 -12 -60 8 -18 15 -23 17 -23 6 0 -8 5 -20 10 -25 8 -8 0 -18 -25 -35
-41 -28 -48 -50 -7 -23 53 35 76 43 104 37 15 -3 34 0 41 6 8 6 17 8 21 4 4
-4 4 0 0 10 -5 13 -2 16 10 11 18 -7 23 -84 6 -84 -5 0 -10 5 -10 10 0 6 -9
10 -19 10 -11 0 -22 6 -24 13 -3 6 -6 -1 -7 -18 -1 -35 -20 -64 -38 -58 -7 3
-10 -1 -6 -11 3 -9 1 -16 -5 -16 -11 0 -16 15 -11 35 8 38 8 45 1 45 -5 0 -12
-17 -16 -37 -4 -21 -15 -50 -26 -65 -23 -32 -49 -102 -49 -132 0 -12 -9 -39
-20 -61 -11 -22 -20 -48 -20 -59 0 -22 13 -14 16 11 3 22 23 61 46 92 10 13
15 27 12 32 -3 5 4 22 15 38 29 41 26 52 -4 16 l-25 -30 19 43 c24 56 37 70
53 54 16 -16 29 -15 22 2 -3 9 3 17 15 21 13 4 18 11 14 23 -3 9 -3 14 2 10
12 -11 35 11 28 28 -3 8 0 14 6 14 6 0 11 -7 11 -16 0 -8 4 -13 9 -10 15 10
20 -44 21 -242 l0 -192 -22 -1 c-17 -1 -19 -2 -5 -6 9 -2 15 -9 12 -14 -4 -5
-1 -9 4 -9 15 0 14 -50 -1 -51 -10 0 -10 -2 0 -6 25 -10 10 -73 -18 -73 -34 0
-67 53 -69 110 -1 29 -6 60 -12 69 -8 12 -9 7 -4 -20 4 -31 1 -38 -26 -58 -23
-17 -39 -22 -61 -17 -18 3 -27 2 -23 -4 3 -6 16 -10 28 -10 19 -1 20 -2 5 -11
-10 -5 -29 -7 -43 -3 -25 6 -25 7 -10 30 13 20 13 23 0 18 -17 -7 -29 -39 -20
-54 4 -6 11 -8 16 -5 5 4 9 1 9 -5 0 -6 15 -8 42 -4 30 5 39 4 34 -4 -4 -8 3
-16 19 -22 30 -12 75 -57 75 -76 0 -8 6 -14 14 -14 8 0 21 -3 30 -6 9 -3 16
-1 16 5 0 6 -9 11 -20 11 -11 0 -20 4 -20 8 0 15 -62 82 -76 82 -8 0 -14 7
-14 15 0 7 -7 18 -15 22 -13 7 -10 13 15 31 l30 23 0 -27 c0 -19 -4 -25 -14
-21 -10 4 -13 1 -10 -8 3 -8 11 -12 18 -9 12 5 76 -57 76 -73 0 -5 9 -14 20
-21 11 -7 20 -22 20 -33 0 -19 -4 -21 -32 -14 -18 4 -39 7 -46 8 -7 0 -11 5
-9 11 6 14 -80 59 -88 46 -3 -6 0 -10 7 -10 8 0 23 -6 33 -14 17 -12 18 -15 3
-30 -19 -18 -38 -21 -38 -5 0 5 6 7 13 3 9 -5 9 -4 0 6 -10 11 -16 11 -31 -3
-15 -14 -40 -17 -135 -17 -71 0 -117 4 -117 10 0 10 40 14 89 10 13 -1 28 4
32 12 7 11 11 10 19 -2 7 -11 12 -12 21 -3 15 15 -3 49 -31 56 -16 4 -20 0
-20 -18 0 -13 -4 -26 -9 -30 -16 -9 -23 13 -11 35 7 12 7 26 2 36 -7 13 -10
10 -15 -15 -4 -19 -13 -31 -22 -31 -13 0 -14 4 -4 23 11 21 10 21 -6 5 -15
-14 -16 -20 -6 -32 8 -10 9 -16 1 -21 -5 -3 -10 -1 -10 4 0 6 -8 11 -17 11
-15 0 -16 2 -3 10 18 11 6 25 -16 16 -9 -3 -14 -13 -10 -21 9 -26 -11 -26 -28
0 -9 14 -23 25 -31 25 -19 0 -19 -14 0 -30 8 -7 12 -16 9 -21 -5 -8 9 -13 29
-10 4 0 7 -3 7 -8 0 -6 -91 -10 -219 -11 -194 0 -219 1 -225 16 -4 11 -14 15
-31 11 -14 -2 -28 0 -31 4 -3 5 37 8 88 7 75 -1 84 -2 48 -8 l-45 -7 45 -3
c25 -1 90 -2 145 -1 55 0 118 1 140 1 27 1 35 4 26 10 -8 4 -58 8 -112 8 -106
0 -119 3 -119 33 0 25 22 34 49 19 12 -6 27 -7 34 -3 6 4 23 8 37 8 14 1 40 9
58 19 31 16 33 20 28 54 -2 21 -10 50 -16 66 -6 16 -8 31 -5 34 3 3 5 0 5 -6
0 -6 12 -18 28 -27 27 -16 27 -16 2 -11 -23 5 -23 4 3 -6 31 -14 37 -29 7 -21
-17 5 -18 2 -10 -26 5 -17 9 -34 10 -37 0 -3 -9 -14 -22 -24 -26 -22 -18 -26
14 -9 18 10 25 8 39 -10 22 -27 27 -27 21 4 -5 29 6 64 16 49 4 -6 24 26 45
70 22 49 29 71 17 56 -11 -14 -20 -29 -20 -34 0 -5 -3 -7 -6 -4 -3 3 13 41 35
84 33 64 43 96 51 168 11 91 38 178 39 126 0 -14 -6 -50 -14 -80 -8 -30 -17
-100 -19 -155 -3 -64 -2 -87 3 -65 5 22 9 28 11 15 2 -17 3 -17 10 5 4 14 8
42 9 62 1 49 43 189 75 253 14 28 26 46 26 41 0 -6 12 2 28 16 15 14 36 28 47
30 12 2 16 6 9 11 -6 3 -31 -7 -55 -23 -57 -39 -86 -39 -91 -3 -4 25 -5 26
-12 8 -4 -11 -12 -29 -19 -40 -35 -63 -50 -105 -58 -160 -9 -63 -53 -175 -70
-175 -5 0 -9 -4 -9 -10 0 -5 7 -7 15 -4 16 7 22 -21 6 -31 -14 -8 -41 24 -34
41 5 13 1 15 -14 10 -15 -5 -23 1 -36 29 -9 20 -17 40 -17 46 0 5 -9 20 -21
32 l-20 22 20 3 c12 2 21 9 22 15 0 7 2 33 5 59 4 37 1 51 -15 65 -10 10 -20
27 -23 38 -2 11 -13 21 -25 23 -15 2 -23 12 -26 30 -3 22 -4 20 -6 -9 -1 -37
-27 -61 -41 -39 -4 6 -12 -8 -19 -31 -7 -22 -10 -44 -7 -47 3 -3 6 2 6 11 0 9
5 17 10 17 6 0 10 -7 10 -15 0 -9 7 -18 15 -21 9 -4 13 -14 9 -28 -3 -15 3
-28 21 -44 27 -24 28 -45 1 -23 -8 7 -28 16 -44 21 -26 7 -33 5 -46 -13 l-15
-22 0 23 c-1 12 5 22 12 22 9 0 8 3 -2 9 -9 6 -10 11 -2 15 6 4 11 17 11 29 0
18 -3 17 -16 -10 -9 -18 -21 -30 -26 -27 -6 4 -5 10 3 15 16 10 11 16 -16 21
-32 5 -40 18 -37 59 4 40 10 44 67 40 19 -1 19 -1 2 9 -9 6 -26 8 -37 5 -13
-4 -20 -2 -20 7 0 23 14 35 35 31 40 -8 105 -8 105 -1 0 5 -15 9 -32 9 -22 1
-26 3 -13 6 11 3 25 10 30 15 7 7 3 8 -12 4 -12 -4 -24 -2 -28 4 -4 6 7 10 27
11 l33 1 -37 10 c-21 6 -38 16 -38 24 0 8 6 11 15 8 8 -4 15 -1 15 6 0 6 -10
10 -22 8 -16 -2 -22 -9 -20 -20 2 -10 -2 -18 -9 -18 -6 0 -9 -7 -5 -15 3 -8 0
-15 -7 -15 -7 0 -3 -7 8 -16 19 -14 19 -14 -5 -11 -14 2 -25 6 -25 8 1 2 11
32 24 66 l23 63 42 -6 c30 -4 37 -3 26 5 -8 6 -25 11 -37 11 -21 0 -40 16 -30
26 2 2 17 0 32 -6 15 -6 29 -9 31 -7 9 9 16 197 7 197 -6 0 -13 -22 -17 -50
-7 -50 -25 -69 -27 -27 -1 12 0 90 1 172 1 83 0 148 -3 145 -6 -6 -16 -211
-17 -325 0 -51 -4 -75 -9 -66 -5 8 -7 104 -4 215 3 111 3 198 -1 195 -3 -3 -8
-71 -11 -150 -2 -79 -7 -153 -10 -165 -6 -20 -7 -20 -33 6 -22 22 -27 36 -28
81 0 30 -1 110 -2 179 -1 69 -1 134 0 145 1 33 29 56 63 54 16 -1 39 2 49 6
15 6 26 0 50 -27 21 -24 43 -37 69 -41 32 -5 42 -2 72 25 19 16 35 38 35 48 0
10 10 25 23 34 l22 17 -29 -6 c-28 -6 -29 -5 -23 28 3 19 1 39 -5 45 -8 8 -8
15 1 26 16 19 32 86 21 86 -5 0 -15 3 -23 6 -11 4 -21 -6 -33 -31 -15 -32 -21
-36 -43 -31 -14 4 -53 9 -86 12 -33 4 -68 11 -77 15 -10 6 -19 5 -23 -1 -9
-15 -85 -13 -85 3 0 8 19 13 52 15 29 2 56 8 60 15 5 8 11 8 16 2 4 -5 15 -11
26 -13 13 -3 17 1 13 12 -4 9 -3 15 1 15 4 -1 47 -1 95 0 78 1 88 3 85 19 -2
14 7 18 52 22 30 3 54 10 53 15 -1 6 10 11 24 11 24 2 24 2 -9 -28 -20 -19
-23 -24 -8 -14 14 9 39 25 55 35 49 32 74 55 68 64 -3 5 0 8 7 5 8 -2 16 -10
18 -18 3 -7 0 -10 -6 -6 -12 7 -35 -26 -51 -76 -7 -20 -23 -53 -36 -73 -14
-19 -21 -35 -17 -35 19 0 130 146 119 156 -3 3 -15 -11 -27 -30 -25 -41 -34
-46 -24 -13 11 38 35 57 71 57 27 0 35 5 44 28 23 60 46 288 28 277 -5 -4 -9
-28 -9 -56 0 -53 -7 -58 -50 -34 -14 8 -43 14 -65 13 -32 -1 -34 -2 -10 -5 17
-2 49 -11 73 -19 41 -15 42 -17 42 -59 0 -48 -8 -75 -21 -75 -5 0 -9 8 -9 18
-1 16 -1 16 -14 0 -16 -22 -35 -23 -42 -3 -4 10 -13 13 -25 10 -15 -5 -19 -1
-19 19 0 34 -6 33 -38 -6 l-27 -32 -6 45 c-8 54 -4 65 30 85 23 14 14 13 -21
-1 -10 -4 -14 11 -15 52 -2 56 -2 57 12 28 7 -16 13 -23 13 -15 0 8 -8 33 -19
55 -15 31 -18 34 -14 13 3 -16 2 -28 -2 -28 -5 0 -7 -61 -5 -136 3 -127 5
-138 25 -155 27 -22 10 -25 -21 -3 -12 8 -26 13 -30 10 -4 -2 -17 9 -27 25
-14 21 -25 27 -39 23 -16 -5 -18 -3 -11 22 5 16 9 85 10 154 0 69 4 131 9 138
4 6 3 20 -3 30 -5 10 -6 32 -1 52 7 32 8 33 9 7 1 -15 7 -42 14 -60 8 -18 12
-37 10 -43 -2 -6 3 -17 12 -24 23 -19 18 -30 -12 -31 -26 0 -27 -1 -6 -9 20
-8 21 -13 17 -132 -5 -157 3 -142 15 27 7 107 6 134 -5 153 -15 22 -14 22 26
16 28 -5 40 -3 40 5 0 8 -8 10 -22 5 -21 -6 -21 -5 -9 10 13 15 12 20 -12 39
-15 13 -27 34 -29 52 -1 17 -10 42 -20 56 -9 14 -20 45 -24 68 -9 54 -20 53
-17 -1 l3 -43 -16 44 c-12 30 -19 39 -25 30 -6 -11 -14 -8 -36 12 -30 28 -65
49 -82 49 -6 0 -14 -15 -19 -32 -6 -24 -14 -32 -27 -31 -20 2 -47 -26 -38 -40
2 -4 -1 -6 -9 -5 -8 2 -13 -6 -13 -19 0 -26 -10 -38 -20 -24 -3 6 -1 11 5 11
6 0 8 4 5 10 -3 5 1 23 10 41 9 17 14 33 11 36 -13 13 -40 -67 -41 -119 0 -32
1 -58 2 -58 2 0 14 21 28 48 14 26 23 36 19 22 -3 -14 -15 -41 -25 -60 -10
-19 -28 -73 -39 -119 -11 -49 -26 -89 -35 -93 -24 -14 -45 -63 -45 -106 0 -32
4 -40 28 -49 25 -11 24 -11 -13 -7 -53 7 -249 42 -305 55 -43 9 -46 12 -62 63
-10 29 -18 62 -18 74 0 32 -20 27 -21 -5 l-1 -28 -8 25 c-4 14 -8 40 -9 58 -1
19 -5 31 -11 27 -5 -3 -10 0 -10 7 -1 9 -4 8 -10 -3 -6 -11 -4 -42 6 -90 16
-80 24 -96 25 -58 1 22 1 21 10 -5 10 -37 8 -40 -28 -32 l-28 7 0 92 c0 59 5
101 14 116 13 23 60 70 71 71 3 0 6 -26 6 -57 2 -81 18 -154 29 -130 4 11 2
35 -5 57 -19 58 -9 149 20 172 26 21 44 24 37 6 -2 -7 -10 -12 -16 -10 -29 6
-35 -84 -15 -227 6 -42 9 -50 15 -34 4 12 4 36 -1 55 -10 37 -10 138 0 138 4
0 15 27 25 60 10 33 21 60 25 60 11 0 22 -49 14 -61 -3 -5 1 -21 10 -34 9 -13
16 -44 16 -67 1 -41 1 -42 17 -23 15 19 15 19 9 -12 -7 -39 1 -43 14 -9 5 15
5 37 0 55 -10 36 2 41 18 9 6 -13 11 -17 11 -10 1 7 -13 43 -30 78 -24 49 -29
68 -20 77 8 8 11 3 11 -21 0 -31 14 -44 22 -20 8 24 47 -102 42 -135 -4 -24
-3 -28 5 -17 17 23 13 74 -9 121 -11 24 -19 53 -19 64 0 14 2 15 6 5 3 -8 14
-33 25 -55 18 -35 20 -51 14 -137 -4 -56 -3 -99 2 -102 6 -3 13 39 17 99 6 96
5 107 -14 138 -27 44 -27 97 0 131 27 35 10 34 -66 -4 -128 -64 -288 -190
-321 -252 -8 -16 -18 -28 -23 -28 -11 0 -2 183 10 190 10 7 7 42 -6 56 -7 8
-14 9 -22 2 -8 -7 -13 -7 -13 -1 0 12 -45 6 -77 -9 -40 -20 -25 -28 24 -13 57
17 68 12 22 -10 l-34 -15 30 6 c17 3 34 12 38 20 11 20 23 17 23 -6 0 -10 -2
-17 -5 -15 -2 3 -9 1 -15 -4 -17 -14 -109 -21 -123 -9 -20 17 -16 26 26 53 26
18 49 25 75 23 42 -2 60 12 62 50 0 15 2 47 2 71 2 35 5 42 18 37 8 -3 126
-13 262 -21 136 -9 321 -23 412 -31 91 -9 194 -16 230 -17 l65 -2 7 145 c4 80
12 224 18 320 7 96 14 243 17 326 5 140 4 152 -13 158 -11 4 -84 12 -164 17
-133 8 -400 28 -460 34 -14 1 -46 3 -72 4 -27 0 -48 6 -48 11 0 7 173 9 513 8
l512 -3 2 -687z m-947 622 c-17 -10 -17 -103 0 -108 22 -8 9 -24 -15 -18 -24
6 -35 -7 -15 -19 16 -10 12 -28 -5 -21 -19 7 -19 -12 -1 -33 23 -27 30 -61 11
-61 -9 0 -14 4 -11 9 3 5 -11 12 -31 16 -29 5 -40 3 -50 -11 -12 -16 -13 -16
-13 -1 0 9 9 22 20 29 18 11 18 14 3 30 -8 9 -13 26 -10 37 5 22 -22 30 -112
32 -31 1 -47 4 -35 6 30 6 54 52 41 81 -5 12 -18 22 -28 22 -10 0 -21 5 -24
10 -4 6 46 10 142 10 95 0 143 -4 133 -10z m249 -129 c60 -6 77 -11 89 -29
l14 -22 25 20 c27 21 68 26 92 11 14 -9 4 -38 -27 -74 -14 -16 -14 -19 6 -33
12 -8 26 -24 32 -34 17 -31 32 -177 21 -198 -7 -13 -4 -23 15 -41 14 -13 29
-32 35 -42 8 -15 5 -20 -18 -25 -16 -3 -32 -7 -38 -9 -5 -1 -18 2 -27 7 -15 7
-18 4 -18 -15 0 -16 -19 -43 -56 -80 -44 -43 -67 -58 -105 -67 -27 -7 -61 -9
-74 -6 -22 6 -27 2 -41 -34 -24 -58 -57 -50 -70 18 -6 30 -9 32 -50 32 -55 0
-83 11 -127 50 -56 49 -63 128 -12 128 20 0 23 -3 15 -13 -7 -8 -7 -15 -2 -19
6 -3 12 1 16 9 7 18 32 20 40 3 4 -7 4 2 1 21 -3 18 -5 46 -5 62 0 16 -5 29
-11 29 -8 0 -9 -16 -5 -47 4 -33 3 -42 -3 -28 -5 11 -10 37 -10 58 -1 28 3 37
16 37 12 0 14 3 6 11 -17 17 -33 1 -33 -32 0 -25 -4 -29 -28 -29 -32 0 -80
-34 -62 -45 5 -3 10 -2 10 3 0 14 43 23 54 12 5 -5 6 -13 2 -17 -4 -4 -11 -1
-16 7 -8 13 -10 13 -10 -1 0 -9 -7 -19 -15 -23 -8 -3 -12 -12 -9 -19 6 -17
-16 -28 -73 -34 -35 -4 -43 -2 -43 11 0 9 4 16 9 16 5 0 11 9 14 19 3 11 19
29 37 39 28 18 30 21 14 30 -21 12 -16 62 20 172 l24 75 1 -44 c1 -27 -9 -65
-26 -103 -26 -58 -26 -59 -7 -78 12 -13 27 -17 41 -14 19 5 20 9 10 25 -16 26
-26 24 -20 -3 4 -16 2 -20 -5 -13 -17 17 -17 58 1 92 9 18 17 46 17 63 0 42
27 103 42 97 8 -2 12 -17 10 -35 -2 -16 2 -34 9 -38 8 -5 11 -2 7 7 -6 15 16
42 26 32 3 -4 14 4 25 16 11 12 22 18 25 12 4 -5 1 -13 -4 -16 -6 -4 -25 -25
-41 -47 -29 -41 -38 -91 -18 -104 7 -4 10 3 9 17 -4 46 0 57 41 103 37 42 46
47 78 44 l36 -3 1 -66 c0 -50 5 -73 21 -95 24 -33 30 -61 18 -86 -8 -19 -35
-25 -35 -8 0 6 7 10 15 10 20 0 14 34 -15 83 -22 37 -37 50 -26 22 3 -10 -1
-15 -12 -16 -11 -1 -8 -4 7 -8 14 -4 26 -12 29 -19 4 -14 -14 -16 -23 -2 -3 6
-15 10 -26 10 -23 0 -24 8 -4 34 22 29 17 45 -5 18 -16 -20 -23 -21 -42 -12
-21 10 -21 10 -5 -3 24 -20 23 -41 -2 -27 -25 13 -42 13 -18 -1 10 -6 17 -22
17 -39 0 -17 5 -30 13 -30 12 0 47 -53 47 -72 0 -5 -10 -18 -22 -28 -21 -17
-21 -18 -5 -44 10 -14 22 -26 27 -26 6 0 3 11 -6 25 -16 24 -16 26 10 50 17
16 26 19 26 10 0 -8 -8 -18 -17 -24 -14 -8 -16 -14 -7 -27 6 -10 16 -20 23
-22 10 -3 10 1 -1 18 -10 18 -10 24 0 27 6 3 12 11 12 18 0 8 16 14 40 17 33
3 40 0 40 -14 0 -9 4 -19 9 -22 20 -13 4 51 -17 70 -14 12 -20 24 -14 28 5 3
18 -5 28 -19 10 -13 22 -21 26 -19 5 3 6 -5 3 -18 -4 -16 -1 -29 9 -37 9 -8
16 -18 16 -23 0 -6 -7 -4 -17 3 -14 12 -16 12 -11 -1 2 -8 -6 -24 -18 -35 -18
-17 -21 -27 -15 -55 4 -20 14 -36 23 -38 30 -6 98 18 108 39 6 11 26 29 43 40
28 18 29 20 7 14 -14 -4 -38 -21 -53 -38 -21 -25 -36 -32 -67 -34 -27 -1 -40
3 -40 12 0 7 -3 20 -6 29 -4 10 -1 16 7 16 19 0 49 31 49 50 0 10 -7 23 -15
30 -16 14 -11 49 9 62 6 4 8 8 4 8 -4 0 -1 17 6 38 7 20 12 48 10 62 -1 14 -3
31 -3 39 -1 8 -7 11 -17 7 -8 -3 -22 0 -30 8 -7 8 -18 16 -22 18 -5 1 -12 22
-16 46 -5 34 -3 42 9 42 8 0 15 5 15 10 0 12 -10 13 -28 1 -8 -4 -13 -17 -12
-27 5 -41 0 -54 -21 -54 -19 0 -21 4 -14 36 7 42 -3 54 -49 54 -17 0 -41 10
-55 23 -14 12 -19 14 -12 4 19 -24 10 -30 -17 -11 -22 15 -28 48 -13 72 18 29
107 38 250 23z m-1232 -213 c23 -29 22 -60 -2 -86 -24 -26 -28 -37 -40 -119
-4 -24 -19 -58 -36 -79 -35 -44 -28 -58 32 -58 l41 0 -24 -17 c-13 -9 -32 -25
-44 -36 -56 -49 -74 -166 -37 -233 11 -19 23 -58 27 -85 5 -28 15 -76 23 -108
14 -57 14 -60 -13 -125 -34 -85 -35 -147 -3 -229 25 -66 23 -82 -9 -62 -17 11
-25 11 -45 0 -18 -10 -36 -11 -64 -4 l-38 9 -3 428 c-2 385 -1 431 14 447 10
11 15 28 12 44 -4 19 -2 25 8 21 9 -3 16 4 20 19 3 14 10 25 14 25 5 0 10 11
12 25 2 14 6 25 10 25 16 0 61 46 84 87 14 23 27 59 29 80 1 21 3 39 4 41 3 6
20 1 28 -10z m103 -610 c0 -16 -3 -19 -8 -10 -13 20 -72 -5 -72 -30 0 -15 4
-18 18 -13 9 4 31 11 49 15 30 7 33 6 47 -31 20 -50 20 -59 -1 -58 -12 0 -13
2 -5 6 8 3 10 9 3 16 -10 13 -11 17 -11 42 0 18 -41 20 -57 4 -13 -13 -6 -36
19 -63 13 -15 15 -23 7 -33 -9 -10 -6 -13 15 -13 15 0 29 7 32 15 7 17 40 20
50 4 3 -6 1 -16 -5 -22 -18 -18 -12 -28 9 -15 17 11 22 10 30 -2 13 -19 12
-30 0 -30 -5 0 -10 4 -10 9 0 6 -15 7 -34 4 -32 -5 -34 -3 -29 16 3 11 10 21
16 21 6 0 7 3 4 7 -4 3 -18 -5 -32 -19 -29 -29 -91 -42 -99 -21 -3 7 -15 13
-26 13 -16 0 -21 -6 -20 -22 4 -40 0 -58 -10 -58 -5 0 -10 20 -10 45 0 38 4
47 23 54 13 5 25 5 28 -1 4 -6 7 1 7 15 0 20 -5 24 -22 20 -20 -4 -20 -4 -3
10 18 15 24 32 6 22 -7 -5 -9 7 -5 34 3 26 0 41 -7 41 -25 0 15 19 101 49 1 1
2 -9 2 -21z m500 -178 c0 -5 -5 -10 -11 -10 -8 0 -9 -4 0 -13 6 -8 8 -16 5
-20 -3 -3 -7 -42 -8 -86 -1 -44 -5 -84 -9 -87 -3 -4 -1 -16 5 -28 7 -11 14
-37 17 -56 6 -33 10 -36 75 -58 66 -22 259 -62 381 -79 52 -7 60 -11 63 -30 4
-28 -3 -28 -118 -8 -125 22 -261 63 -402 120 -11 4 -18 3 -18 -5 0 -6 5 -8 10
-5 6 3 10 1 10 -4 0 -6 -14 -11 -31 -11 -29 0 -29 1 -13 17 13 14 14 18 3 21
-8 3 -21 10 -29 16 -13 10 -13 9 -1 -6 23 -30 1 -20 -31 14 -21 22 -32 28 -37
20 -4 -7 -15 -10 -25 -6 -14 5 -17 14 -12 37 3 16 6 36 6 43 0 8 4 14 9 14 6
0 6 -12 0 -32 -12 -42 -12 -41 7 -34 10 4 25 -1 36 -10 10 -10 21 -14 24 -11
4 3 -9 15 -27 26 -39 24 -32 28 11 6 16 -8 34 -25 41 -36 6 -11 13 -18 16 -15
11 10 -26 53 -56 66 -17 7 -31 16 -31 20 0 21 84 -28 103 -59 26 -43 36 -21
11 25 -13 23 -26 34 -41 34 -24 0 -73 19 -73 29 0 3 -23 20 -51 36 -28 17 -69
43 -92 59 l-42 30 55 12 c30 7 71 13 91 14 28 0 38 5 42 20 4 16 14 20 52 20
l46 0 -7 -87 c-4 -49 -11 -94 -17 -100 -7 -9 -5 -13 6 -13 22 0 27 22 27 119
0 48 3 91 7 94 10 10 23 8 23 -3z m714 -249 c3 -101 8 -186 11 -189 11 -12 4
-23 -12 -18 -10 3 -39 6 -65 7 -27 2 -54 7 -60 11 -8 6 13 6 50 3 76 -8 82 6
22 54 -47 38 -49 53 -21 204 13 70 23 101 37 111 10 8 22 12 26 8 4 -4 9 -90
12 -191z m135 184 c24 -12 30 -22 35 -67 7 -62 2 -241 -9 -345 -9 -80 -21 -93
-69 -72 -23 11 -26 18 -26 66 0 31 -4 53 -11 53 -5 0 -8 -4 -4 -10 3 -5 -2
-18 -11 -28 -9 -11 -18 -38 -20 -61 -3 -36 -1 -43 19 -50 13 -5 29 -16 36 -25
12 -14 11 -16 -7 -16 -12 0 -25 8 -31 18 -9 16 -11 16 -25 -3 -14 -20 -14 -20
-38 2 -13 12 -36 25 -53 28 l-30 7 34 -19 c19 -11 37 -25 39 -31 5 -16 -23
-15 -40 1 -7 7 -21 16 -32 20 -11 5 -16 13 -12 23 3 9 6 23 6 31 0 14 2 14 18
0 27 -25 50 -22 27 3 -24 27 -3 54 36 46 33 -6 74 31 59 54 -15 24 -12 30 15
30 16 0 25 6 25 16 0 8 -4 12 -10 9 -7 -4 -10 48 -10 149 0 85 -3 161 -6 170
-5 13 1 16 30 16 21 0 50 -7 65 -15z m-1423 -44 c5 1 22 -1 37 -6 20 -5 25
-11 18 -18 -15 -15 -14 -27 4 -27 8 0 15 -4 15 -10 0 -5 8 -10 19 -10 27 0
131 -48 131 -60 0 -7 -6 -7 -20 0 -12 6 -32 7 -50 3 l-29 -8 24 -12 c16 -7 25
-8 25 -1 0 6 6 5 15 -2 8 -7 15 -16 15 -20 0 -10 -40 -1 -57 13 -10 7 -13 2
-13 -22 0 -30 13 -41 25 -21 11 18 54 11 65 -10 10 -18 9 -19 -14 -8 -22 9
-31 7 -65 -15 -27 -18 -41 -23 -44 -14 -4 9 -7 9 -18 0 -15 -15 -43 -18 -35
-4 4 5 0 12 -6 15 -7 3 -4 4 7 1 11 -2 26 -1 33 4 16 10 12 43 -6 49 -7 2 -10
-2 -6 -12 4 -12 0 -16 -16 -16 -18 0 -20 3 -11 13 6 8 8 17 4 20 -3 4 -1 7 6
7 7 0 9 5 6 10 -3 6 -1 10 4 10 6 0 11 9 11 19 0 11 6 22 13 25 9 5 -42 -2
-63 -8 -3 0 -7 4 -9 9 -11 30 -71 41 -71 13 0 -6 7 -8 15 -4 16 6 21 -9 7 -18
-10 -6 -16 -65 -15 -138 0 -27 -4 -48 -9 -48 -5 0 -7 39 -5 88 2 48 0 95 -4
104 -11 21 -1 48 15 42 7 -3 18 2 25 10 11 13 15 12 32 -5 10 -10 29 -19 42
-18 l22 0 -22 11 c-13 6 -23 20 -23 31 0 14 -5 18 -19 14 -27 -7 -45 8 -37 29
5 14 9 15 15 6 4 -7 12 -12 17 -11z m504 -296 c7 -8 19 -15 27 -15 7 0 16 -7
19 -15 4 -8 12 -15 20 -15 7 0 30 -7 51 -16 21 -9 49 -21 63 -27 14 -5 37 -16
53 -24 15 -8 31 -12 36 -8 5 3 12 1 16 -5 3 -5 15 -10 26 -10 11 0 38 -9 61
-20 22 -11 45 -17 50 -14 5 3 14 1 21 -4 7 -5 35 -13 64 -17 73 -10 86 -27 72
-99 -6 -32 -23 -84 -38 -115 l-27 -56 -50 2 c-52 3 -87 11 -201 49 -39 13 -83
24 -98 24 -18 0 -29 6 -32 20 -5 18 -15 24 -35 21 -7 -1 -21 17 -62 80 -32 50
-56 123 -45 140 13 21 11 26 -11 32 -11 3 -20 1 -20 -5 0 -5 -4 -7 -8 -4 -10
6 -15 72 -7 97 8 23 38 25 55 4z m-683 -109 c-1 -7 11 -10 35 -8 33 2 37 0 41
-25 3 -15 6 -49 6 -74 l1 -47 -43 -6 c-59 -9 -72 -2 -85 47 -5 23 -17 61 -26
85 -9 24 -14 47 -11 52 7 12 85 -10 82 -24z m608 -54 c21 5 25 2 20 -13 -4
-11 -2 -19 3 -19 14 0 23 -43 11 -55 -6 -6 -2 -15 13 -27 21 -16 22 -18 3 -18
-14 0 -16 -3 -8 -11 6 -6 9 -18 6 -25 -3 -8 0 -14 6 -14 15 0 14 -27 -1 -33
-10 -4 -10 -8 1 -15 26 -19 -8 -152 -39 -152 -6 0 -10 7 -10 16 0 13 -3 14
-13 5 -8 -6 -17 -8 -20 -4 -10 9 13 34 25 27 5 -3 8 2 7 12 -2 11 4 33 13 49
10 20 13 37 7 52 -4 12 -4 25 0 27 15 10 -9 99 -44 165 -20 36 -29 58 -21 47
10 -13 23 -17 41 -14z m-414 -41 c-30 -3 -56 -12 -59 -19 -3 -9 3 -10 20 -4
33 11 101 8 105 -5 3 -7 -14 -9 -47 -8 -28 1 -53 -1 -56 -6 -3 -5 25 -10 63
-11 63 -2 64 -2 16 -5 -76 -6 -65 -23 14 -23 36 0 63 -3 59 -7 -4 -4 -27 -6
-52 -4 -34 2 -45 -1 -42 -10 3 -8 24 -12 61 -11 52 0 59 -2 78 -29 l20 -29
-75 0 c-44 0 -76 -4 -76 -10 0 -6 31 -10 74 -10 41 0 78 -4 81 -10 4 -6 -18
-10 -59 -10 -40 0 -66 -4 -66 -11 0 -6 29 -10 78 -9 42 1 87 -2 99 -5 21 -7
21 -9 8 -34 -15 -30 -11 -42 20 -59 20 -11 20 -11 -1 -12 -14 0 -27 11 -38 33
-8 17 -16 26 -16 20 0 -9 -17 -13 -51 -13 -27 0 -48 -4 -45 -8 3 -5 24 -7 48
-6 66 3 109 -48 79 -95 -11 -17 -76 -9 -138 19 -25 11 -45 15 -49 9 -5 -9 53
-39 75 -39 5 0 13 -5 17 -11 8 -14 -27 -4 -78 22 -21 10 -38 15 -38 11 0 -12
51 -39 88 -47 32 -7 33 -9 30 -48 l-3 -42 -92 1 c-91 2 -93 2 -208 60 -88 44
-114 62 -109 74 3 8 13 75 23 147 9 73 21 137 26 142 6 5 34 7 63 4 49 -5 52
-7 52 -32 0 -38 27 -114 49 -138 11 -11 26 -34 35 -51 17 -34 51 -58 60 -43 3
5 -1 15 -10 22 -9 7 -36 44 -60 81 -41 62 -45 73 -48 145 -3 43 -8 90 -11 106
l-7 27 73 -2 c73 -1 73 -1 20 -7z m412 -166 c4 -24 4 -53 0 -62 -8 -24 -44
-63 -57 -63 -16 0 -57 52 -52 66 3 8 -3 10 -17 7 -22 -4 -22 -4 -2 12 20 17
20 17 -2 10 -13 -3 -23 -2 -23 3 0 14 24 22 47 16 13 -4 23 3 32 20 8 14 23
27 35 29 12 2 24 5 27 6 4 0 9 -19 12 -44z m157 -23 c0 -7 82 -31 122 -35 9
-1 15 -3 12 -6 -4 -4 44 -19 191 -58 73 -19 83 -27 63 -50 -8 -10 -18 -23 -21
-29 -8 -13 24 -15 41 -1 27 21 15 -30 -31 -130 -13 -30 -53 -38 -85 -17 -31
20 -146 32 -156 15 -5 -7 2 -9 22 -5 31 6 142 -21 142 -34 0 -5 -16 -6 -35 -4
-21 3 -35 0 -35 -7 0 -12 11 -14 47 -12 24 2 121 -50 148 -79 10 -11 19 -30
20 -42 1 -15 8 -22 27 -22 28 -2 91 -45 113 -80 27 -41 30 -110 6 -168 -21
-54 -61 -209 -61 -240 0 -11 5 -15 15 -12 8 4 15 1 15 -5 0 -6 -4 -11 -10 -11
-5 0 -10 -6 -10 -14 0 -8 -9 -22 -21 -30 -12 -8 -18 -19 -14 -25 3 -6 -1 -14
-9 -17 -17 -7 -22 -24 -7 -24 5 0 16 7 24 15 8 8 18 11 21 7 4 -3 11 -1 15 6
10 17 41 4 41 -17 -1 -14 -3 -13 -15 3 -14 18 -15 18 -26 -10 -24 -64 -23 -91
6 -120 17 -17 23 -30 17 -32 -7 -2 -12 -8 -12 -13 0 -5 11 -3 25 3 20 9 34 9
63 -1 53 -19 59 -26 67 -79 3 -26 9 -57 12 -70 4 -15 1 -22 -10 -22 -14 0 -33
66 -28 98 3 18 -16 15 -23 -4 -10 -26 -7 -79 6 -92 9 -9 8 -12 -4 -12 -9 0
-19 6 -22 13 -5 9 -7 9 -12 0 -3 -7 -10 -13 -16 -13 -7 0 -9 24 -4 72 4 43 3
69 -2 63 -13 -14 -32 -74 -32 -101 0 -15 -6 -24 -15 -24 -21 0 -19 15 11 85
14 33 28 67 31 75 4 10 -1 9 -16 -5 -19 -16 -24 -17 -31 -5 -5 8 -10 12 -12
10 -2 -3 -16 -22 -32 -43 -19 -26 -27 -46 -23 -63 2 -13 -2 -29 -9 -35 -31
-26 -5 -69 42 -69 16 0 43 -26 44 -42 0 -5 -7 -8 -15 -8 -8 0 -15 8 -15 19 0
13 -7 18 -22 17 -13 -1 -32 4 -43 11 -11 7 -51 14 -90 14 -38 1 -60 4 -47 6
12 2 22 11 22 19 0 10 12 14 43 14 31 0 49 6 62 20 10 11 13 20 7 20 -8 0 -9
7 -2 25 10 27 7 30 -40 38 -14 2 -5 5 20 6 33 1 48 6 58 21 7 12 8 20 2 20 -5
0 -10 -4 -10 -10 0 -5 -4 -10 -10 -10 -23 0 -7 19 25 30 39 13 46 29 15 37
-16 4 -18 11 -13 32 6 25 5 25 -13 10 -15 -13 -29 -15 -64 -9 l-45 7 47 2 c39
1 46 4 41 17 -5 13 -2 15 15 9 13 -4 22 -2 22 4 0 6 -7 11 -15 11 -8 0 -23 9
-32 20 -10 11 -24 20 -31 20 -8 0 -12 9 -10 23 2 17 9 22 28 20 14 -1 18 0 8
3 -10 3 -18 10 -18 15 0 5 8 9 18 9 32 1 62 33 55 59 -6 23 -7 23 -22 -10 -13
-27 -22 -33 -41 -31 -21 2 -28 -5 -41 -35 l-16 -37 -7 48 c-4 27 -10 54 -13
62 -2 7 5 18 17 24 15 8 20 8 16 1 -4 -6 -2 -11 4 -11 6 0 8 -5 4 -11 -5 -8
-9 -8 -14 1 -4 7 -10 8 -13 4 -3 -5 1 -15 9 -21 8 -8 15 -9 19 -3 4 6 11 8 16
5 5 -4 9 13 9 36 0 28 7 50 19 63 33 36 63 98 52 106 -8 4 -7 21 3 56 12 40
13 57 2 97 -7 26 -15 45 -18 42 -3 -4 -18 6 -32 20 -32 32 -61 44 -209 89 -64
20 -135 47 -156 61 -36 22 -41 30 -47 77 -9 68 -35 93 -101 95 -34 1 -42 -1
-28 -7 18 -8 18 -9 3 -11 -48 -6 -44 -15 -49 102 -1 36 4 68 15 89 9 18 16 38
16 45 0 6 14 28 31 48 30 35 49 46 49 29z m6 -343 c22 -14 34 -29 35 -45 3
-61 16 -80 70 -103 28 -12 49 -25 47 -29 -2 -4 -16 -41 -32 -82 -33 -86 -35
-88 -44 -74 -15 23 -104 84 -123 84 -10 0 -19 5 -19 10 0 18 -29 11 -40 -10
-12 -22 -2 -101 14 -112 5 -4 12 -21 14 -37 l3 -31 -100 0 c-122 0 -136 18
-18 23 66 2 59 3 -40 5 -80 1 -123 6 -123 13 0 7 29 9 85 7 47 -2 85 0 85 5 0
4 -69 7 -154 7 -85 0 -161 3 -170 6 -9 3 -16 1 -16 -5 0 -7 24 -11 66 -11 59
0 64 -1 50 -16 -9 -8 -16 -20 -16 -25 0 -5 -10 -10 -22 -10 -19 -1 -19 -2 -5
-6 11 -3 16 -11 13 -19 -3 -9 -1 -12 4 -9 10 6 14 -7 11 -32 -1 -7 3 -13 10
-13 6 0 9 -6 6 -13 -3 -8 3 -14 14 -14 16 -2 17 2 9 18 -8 14 -6 27 7 51 9 18
16 39 15 46 -2 6 7 12 19 12 l22 0 -22 -24 c-15 -16 -18 -25 -10 -28 9 -3 10
-11 1 -36 -6 -19 -7 -32 -1 -32 5 0 9 5 9 10 0 6 11 20 25 32 14 12 25 28 25
36 0 9 6 12 16 8 9 -3 21 -6 28 -6 6 0 13 -14 14 -32 3 -39 9 -47 19 -22 10
28 23 34 79 34 l51 0 -8 -42 c-4 -24 -8 -47 -9 -51 0 -4 -29 -5 -65 -1 -36 4
-65 4 -65 1 0 -14 13 -37 22 -37 5 0 6 5 3 10 -4 6 7 10 27 10 l33 0 -33 -20
c-21 -13 -42 -18 -55 -15 -15 4 -18 3 -9 -3 18 -12 -78 -24 -182 -23 -85 1
-98 -9 -19 -15 26 -2 53 -3 58 -4 20 -1 -34 -36 -76 -49 -49 -15 -159 -62
-164 -72 -2 -3 35 -7 82 -8 47 -1 90 -4 94 -7 5 -3 9 -1 9 5 0 5 -6 11 -12 14
-10 3 -10 7 1 20 21 27 39 20 43 -15 2 -28 8 -34 31 -36 16 -2 40 5 55 15 47
31 56 31 92 1 48 -39 52 -43 78 -72 23 -24 23 -25 3 -35 -27 -15 -41 -14 -41
4 0 8 5 15 11 15 5 0 7 5 4 10 -5 8 -12 7 -23 -2 -15 -12 -16 -11 -3 5 12 15
11 20 -3 36 -10 11 -25 17 -37 14 -14 -4 -19 0 -19 16 0 23 -7 26 -30 11 -12
-7 -9 -13 14 -35 23 -21 31 -24 37 -13 7 9 8 8 7 -7 -1 -11 11 -47 26 -79 27
-55 28 -60 12 -72 -31 -22 -286 -45 -286 -25 0 6 3 10 8 10 22 -4 24 3 3 14
-13 6 -23 15 -22 20 2 11 -30 70 -36 64 -2 -3 0 -14 6 -25 6 -12 11 -29 11
-39 0 -12 -6 -7 -16 15 -19 37 -29 40 -46 13 -9 -15 -16 -17 -30 -10 -19 10
-26 -5 -8 -16 11 -7 40 -70 40 -87 0 -6 -11 -8 -24 -4 -28 7 -40 -2 -25 -21 7
-8 8 -13 1 -13 -5 0 -12 7 -16 15 -3 8 -15 15 -26 15 -11 0 -20 6 -20 13 0 8
-9 22 -20 32 -11 10 -20 25 -21 34 0 9 -4 6 -10 -9 -8 -20 -6 -28 10 -41 20
-17 18 -29 -5 -29 -8 0 -11 6 -8 15 4 8 1 15 -5 15 -6 0 -11 -4 -11 -10 0 -5
-9 -10 -20 -10 -11 0 -20 5 -20 10 0 6 10 10 21 10 20 0 21 4 16 45 -5 47 -16
69 -24 48 -6 -18 -23 -16 -23 2 0 8 -7 15 -15 15 -20 0 -19 20 2 50 16 24 16
24 -1 10 -10 -8 -22 -23 -26 -35 -6 -14 -9 -6 -9 30 -1 38 2 46 10 35 7 -10
12 -11 15 -4 3 6 21 10 40 8 20 -1 46 1 58 6 20 8 20 9 -4 11 -14 1 -29 1 -33
0 -5 -1 -6 3 -3 8 8 12 -34 11 -50 -1 -7 -5 -16 -2 -23 6 -10 12 -5 15 30 21
33 6 45 4 54 -9 13 -17 66 -21 100 -6 16 7 14 9 -15 9 -19 1 -48 8 -65 17 -20
11 -44 14 -72 10 -35 -5 -43 -3 -43 11 0 9 8 22 17 29 17 13 17 13 1 14 -24 0
-23 13 2 35 23 21 24 20 37 -20 7 -22 17 -31 37 -33 16 -2 33 1 38 6 6 6 1 8
-15 5 -25 -5 -51 17 -29 25 7 2 12 10 12 18 0 8 5 14 10 14 6 0 10 9 10 21 0
11 -5 17 -10 14 -6 -3 -10 -1 -10 4 0 6 7 11 15 11 8 0 15 4 15 9 0 6 -9 9
-20 8 -11 -1 -20 -5 -20 -9 0 -4 -8 -4 -17 -1 -13 5 -15 2 -10 -11 4 -11 3
-15 -4 -10 -6 4 -15 0 -20 -7 -4 -7 -11 -10 -15 -6 -4 3 -1 13 6 22 17 20 5
32 -15 15 -13 -10 -15 -9 -15 10 0 20 4 22 40 18 22 -2 40 0 40 4 0 5 -9 8
-20 8 -12 0 -20 7 -20 18 -1 16 -1 16 -14 0 -21 -28 -26 -22 -25 30 1 43 1 45
10 20 9 -24 13 -26 35 -16 26 12 31 24 12 30 -6 2 24 5 68 7 96 3 112 11 22
11 -58 0 -67 3 -84 25 -11 14 -30 25 -44 26 l-25 1 25 8 c24 8 24 8 3 9 -19 1
-23 7 -23 32 0 24 3 30 16 25 9 -3 31 -6 50 -6 24 0 34 -5 34 -15 0 -8 -4 -15
-10 -15 -17 0 -11 -27 8 -31 9 -3 51 -3 92 -1 69 3 77 6 90 29 l15 25 199 -1
c171 -2 201 -4 211 -18 9 -12 14 -13 19 -4 10 16 13 151 4 151 -5 0 -9 -30 -9
-67 -1 -38 -4 -58 -6 -45 -4 18 -11 22 -39 22 -21 0 -34 -5 -34 -13 0 -10 -26
-13 -110 -13 -60 1 -110 4 -110 7 0 3 -41 3 -90 1 -87 -4 -91 -4 -110 21 -14
17 -26 23 -40 20 -12 -3 -20 0 -20 7 0 8 12 11 35 8 46 -5 46 9 0 18 -19 3
-35 10 -35 16 0 5 -5 6 -10 3 -6 -4 -8 -15 -5 -26 4 -12 1 -21 -10 -25 -10 -4
-13 -13 -10 -25 6 -18 2 -19 -42 -15 -26 2 -56 5 -65 5 -14 1 -18 10 -18 44 0
36 4 46 23 55 l22 11 -22 0 c-21 1 -23 6 -23 49 l0 47 51 -1 c28 -1 53 -5 56
-8 4 -3 15 -6 26 -6 10 0 37 -13 60 -29 60 -42 143 -61 262 -58 81 2 108 -2
143 -17 35 -16 41 -24 36 -40 -4 -12 -7 -22 -8 -23 -3 -4 -76 23 -76 29 0 16
21 18 45 2 16 -11 25 -12 25 -5 0 18 -64 41 -107 39 -37 -1 -37 -1 -5 -5 37
-5 34 -23 -4 -23 -31 0 -30 -10 2 -34 18 -13 28 -15 33 -8 5 8 18 9 45 1 27
-8 42 -7 49 0 6 6 26 11 45 11 32 0 33 1 27 29 -4 19 -1 34 7 41 9 9 12 37 10
97 -3 59 0 83 7 78 6 -3 11 -1 11 4 0 6 -4 11 -10 11 -19 0 -10 18 13 25 12 5
31 11 42 15 31 12 35 11 71 -11z m185 -255 c7 -9 13 -26 14 -38 0 -16 -8 -22
-35 -27 -30 -5 -27 -6 20 -7 30 -1 50 2 43 6 -7 4 -10 17 -6 30 7 27 23 19 23
-11 0 -21 1 -21 18 4 15 23 19 25 31 12 7 -8 26 -13 45 -11 78 7 146 -20 146
-57 0 -3 -42 -3 -92 0 -51 3 -133 7 -181 9 -48 2 -90 5 -92 8 -9 9 29 98 41
98 6 0 18 -7 25 -16z m20 -115 c5 -9 171 -28 248 -29 85 0 31 13 -71 17 -57 3
-107 9 -113 15 -10 10 211 1 228 -9 7 -4 2 -53 -10 -95 -3 -12 -15 -18 -36
-19 -31 0 -31 -1 -7 -10 33 -13 33 -14 20 -38 -7 -15 -20 -21 -44 -21 -18 0
-35 3 -38 6 -10 10 4 44 18 44 8 0 14 5 14 10 0 6 -7 10 -15 10 -8 0 -15 5
-15 11 0 8 -5 7 -15 -1 -12 -10 -19 -10 -27 -2 -8 8 -46 12 -103 11 -52 -1
-80 -4 -65 -8 15 -4 20 -10 13 -14 -6 -4 -19 -4 -30 -1 -11 4 -14 3 -6 -3 9
-6 7 -15 -8 -33 l-19 -25 6 42 c5 34 3 44 -10 49 -20 8 -35 -4 -19 -14 7 -4
13 -30 15 -57 2 -40 7 -51 23 -54 16 -3 17 -1 7 11 -9 12 -4 22 28 53 22 22
40 35 40 29 0 -5 -9 -15 -21 -22 -12 -8 -18 -19 -15 -28 3 -9 1 -12 -4 -9 -6
3 -10 3 -11 -2 0 -4 -2 -17 -4 -28 -2 -11 3 -27 12 -37 8 -9 16 -28 17 -41 0
-14 4 -23 7 -21 3 2 15 -3 25 -11 34 -26 37 -16 5 20 -17 20 -31 41 -31 48 0
25 27 50 47 45 12 -3 27 -2 34 3 9 6 1 9 -25 9 -31 0 -37 3 -32 16 3 9 6 29 6
45 0 28 2 29 43 29 35 -1 112 -28 82 -30 -5 0 -4 -4 4 -9 8 -5 11 -16 8 -26
-4 -9 -11 -13 -17 -10 -6 4 -8 11 -5 16 4 5 -1 9 -9 9 -8 0 -20 -9 -26 -20
-10 -19 -8 -20 65 -20 79 0 93 -9 48 -29 -18 -8 -29 -9 -37 -1 -5 5 -28 10
-50 10 -46 0 -43 -11 3 -12 21 -1 30 -5 27 -14 -2 -6 5 -15 17 -19 37 -11 1
-17 -38 -6 -35 9 -36 9 -53 -27 -21 -47 -39 -66 -47 -52 -3 5 -11 10 -16 10
-6 0 -7 -5 -3 -11 4 -7 1 -10 -7 -7 -8 3 -13 10 -12 16 2 6 -3 9 -11 6 -15 -6
-30 22 -16 31 6 4 5 12 -3 19 -6 8 -16 12 -20 9 -5 -3 -8 1 -6 8 3 25 -1 40
-9 35 -4 -2 -16 2 -26 9 -14 11 -19 29 -22 77 -3 75 2 98 23 98 13 0 13 -3 2
-17 -12 -17 -12 -17 6 -1 15 14 17 21 7 30 -16 16 -15 28 4 28 8 0 13 -4 10
-9 -6 -10 50 -21 108 -21 71 0 13 17 -64 19 -26 1 -31 4 -20 11 11 7 5 10 -22
10 -21 0 -38 5 -38 11 0 12 92 1 101 -12z m-181 -17 c25 -8 47 -16 49 -18 5
-4 -26 -149 -70 -330 -48 -199 -50 -252 -10 -293 15 -16 38 -32 50 -36 21 -6
19 -9 -19 -27 -49 -25 -47 -35 4 -14 l35 15 31 -61 c17 -33 30 -61 28 -63 -2
-1 -25 -5 -51 -8 -37 -5 -49 -3 -53 8 -4 9 -19 15 -35 15 -16 0 -29 4 -29 9 0
5 11 8 25 5 14 -2 25 0 25 6 0 5 6 10 14 10 8 0 18 5 22 12 5 8 2 9 -12 4 -10
-4 -32 -10 -49 -12 -27 -5 -27 -4 10 15 42 21 35 28 -11 11 -15 -6 -35 -8 -43
-4 -12 5 -9 9 14 15 25 7 23 8 -13 5 -34 -3 -41 -2 -32 9 6 7 7 21 4 31 -6 16
-5 17 7 7 16 -15 29 -17 29 -3 0 5 -9 14 -20 20 -17 9 -22 6 -35 -22 -11 -24
-14 -26 -9 -8 3 14 8 34 11 44 4 13 2 17 -5 12 -6 -4 -14 -23 -18 -42 -4 -23
-10 -32 -16 -26 -6 6 -4 20 5 38 8 16 15 47 15 69 0 22 9 94 22 160 15 83 20
139 16 181 -5 44 -1 82 14 139 11 43 20 96 20 118 0 33 3 38 18 32 9 -4 37
-15 62 -23z m691 -388 c9 -8 23 -16 31 -18 7 -1 19 -5 26 -10 14 -9 62 -103
62 -123 0 -7 6 -10 15 -7 26 10 16 -20 -11 -33 -46 -22 -67 6 -45 62 13 32 2
56 -19 45 -14 -8 -19 -6 -23 8 -2 12 -9 4 -21 -24 -13 -32 -22 -41 -35 -37
-15 4 -18 14 -17 50 1 36 -3 48 -19 57 -11 6 -22 12 -25 14 -8 6 32 32 49 32
8 0 22 -7 32 -16z m-270 -159 c10 -3 20 -2 24 4 9 16 25 13 25 -3 0 -16 -34
-31 -50 -21 -5 3 -8 0 -5 -7 3 -7 -17 -32 -45 -56 -40 -34 -54 -41 -75 -36
-20 5 -24 3 -19 -10 4 -11 1 -16 -11 -16 -12 0 -15 5 -10 18 18 41 16 61 -5
82 -12 12 -25 19 -28 15 -4 -4 1 -11 11 -16 25 -14 22 -63 -5 -82 -19 -13 -20
-16 -5 -16 20 -1 23 -29 3 -37 -15 -6 -86 23 -86 35 0 3 -3 17 -6 31 -4 20 -3
22 5 10 9 -13 11 -11 11 7 0 12 3 29 7 39 5 13 3 15 -8 10 -8 -4 -3 2 10 13
18 16 37 21 83 21 33 0 57 -4 54 -9 -4 -5 3 -7 14 -4 11 3 26 0 34 -6 11 -10
17 -8 24 6 6 10 14 15 18 10 4 -4 -1 -17 -12 -29 l-19 -22 23 14 c13 8 23 18
23 23 -1 4 -1 14 -1 22 0 10 -10 15 -30 15 -16 0 -30 4 -30 9 0 9 47 1 81 -14z
m-651 -117 c0 -12 10 -32 22 -45 23 -25 26 -23 -30 -27 -16 -1 -42 -34 -42
-53 0 -9 17 -13 60 -13 33 0 60 -4 60 -9 0 -5 8 -12 18 -14 9 -2 1 -2 -18 1
-19 4 -57 7 -85 7 -27 1 -60 7 -72 13 -21 12 -27 9 -24 -10 0 -4 -6 -5 -15 -1
-10 4 -17 -2 -21 -16 l-6 -22 -14 21 c-8 11 -21 20 -29 20 -12 0 -16 23 -14
78 1 4 -14 10 -32 13 l-33 6 37 2 c37 1 38 0 44 -39 6 -36 9 -40 28 -34 39 12
77 35 83 49 3 8 9 13 13 10 13 -8 54 31 46 43 -9 15 -86 -8 -122 -37 -26 -20
-44 -20 -44 0 0 6 5 7 10 4 6 -4 17 -1 26 5 11 10 12 16 2 28 -11 13 -9 14 22
9 25 -4 44 0 65 13 42 26 65 25 65 -2z m1528 -217 c5 -2 0 -178 -6 -221 l-7
-45 -70 0 c-38 0 -525 1 -1081 3 l-1011 2 -7 71 c-3 39 -3 100 0 134 l7 64
1086 -3 c597 -2 1087 -4 1089 -5z"/>
<path d="M1405 2882 c-44 -5 -85 -62 -85 -119 0 -23 5 -43 10 -43 6 0 10 20
10 44 0 30 6 51 21 67 18 21 20 21 14 4 -21 -61 -24 -85 -18 -149 4 -39 7 -88
7 -108 0 -21 4 -38 8 -38 4 0 8 7 8 15 0 8 5 14 12 13 18 -4 26 39 27 143 1
82 4 101 24 130 12 19 32 35 42 37 17 4 16 0 -7 -25 -26 -27 -49 -103 -30
-103 5 0 5 -31 0 -72 -5 -40 -7 -84 -5 -98 2 -14 5 -4 6 22 0 26 6 50 12 54 9
5 10 -7 7 -44 -3 -28 -1 -49 4 -46 4 3 8 21 8 40 0 19 5 34 11 34 7 0 8 11 3
33 -4 17 -7 42 -6 55 1 13 -2 20 -8 17 -14 -9 -12 10 4 50 8 19 11 35 6 35 -4
0 -11 -6 -13 -12 -4 -10 -6 -9 -6 1 -1 18 40 53 56 47 7 -3 15 -1 18 4 5 8
-64 21 -95 17 -8 -1 -28 -3 -45 -5z"/>
<path d="M1480 1779 c0 -24 22 -48 58 -62 56 -22 75 -57 67 -120 -3 -29 -8
-64 -11 -79 -4 -19 1 -32 15 -45 19 -16 21 -29 21 -127 0 -60 2 -107 4 -105 2
2 7 70 11 152 6 130 5 147 -9 147 -19 0 -22 -16 -4 -22 7 -3 9 -12 4 -23 -5
-13 -10 -15 -18 -7 -16 16 -1 122 17 116 8 -3 16 -13 18 -22 2 -10 7 12 12 48
5 36 8 68 7 73 -1 4 4 7 12 7 11 0 14 -34 15 -182 1 -181 6 -244 20 -253 4 -2
4 22 -1 53 -9 68 -6 342 5 342 4 0 7 -4 7 -10 0 -5 6 -10 14 -10 9 0 15 -18
19 -52 21 -170 56 -391 73 -453 23 -85 27 -97 45 -134 25 -49 25 -10 1 44 -24
53 -45 130 -40 146 2 7 12 -18 22 -54 10 -37 22 -64 27 -61 5 3 7 10 3 15 -12
21 -45 153 -40 166 3 7 1 13 -4 13 -6 0 -10 15 -10 33 0 17 -4 48 -9 67 -5 19
-12 71 -15 115 -3 44 -8 95 -12 113 -5 25 -3 32 9 32 18 0 22 -15 42 -165 8
-66 19 -145 24 -175 5 -30 7 -58 5 -61 -2 -4 3 -24 12 -44 8 -21 13 -46 11
-57 -3 -10 -1 -18 4 -18 4 0 15 -12 23 -27 14 -26 15 -26 16 -6 0 12 -9 39
-19 60 -11 21 -26 83 -35 138 -26 169 -49 339 -49 363 1 13 -5 22 -14 22 -8 0
-11 -5 -7 -11 5 -8 -1 -10 -19 -7 -23 5 -25 2 -21 -21 9 -57 24 -195 20 -198
-5 -5 -24 104 -32 184 -6 52 -9 60 -25 56 -13 -4 -22 2 -29 22 -13 33 -13 45
0 25 9 -13 11 -13 20 0 9 14 11 13 14 -9 3 -25 15 -20 14 5 -1 16 0 35 3 43 2
7 -2 16 -8 18 -7 3 -13 -2 -13 -11 0 -8 -5 -18 -10 -21 -6 -4 -10 -3 -9 2 4
23 -3 24 -26 3 -16 -15 -25 -19 -25 -10 0 9 -5 7 -14 -6 -8 -11 -18 -15 -23
-10 -4 5 -2 11 5 13 14 5 17 33 2 33 -14 0 -30 -35 -30 -66 l0 -27 -23 21
c-13 12 -30 22 -38 22 -24 0 -59 30 -59 51 0 10 -4 19 -10 19 -5 0 -10 -5 -10
-11z"/>
<path d="M491 274 c22 -7 27 -30 21 -93 -3 -34 -9 -51 -18 -51 -8 0 -14 -4
-14 -9 0 -16 143 0 170 18 31 22 41 99 16 120 -8 7 -53 14 -103 16 -48 2 -81
2 -72 -1z"/>
<path d="M1428 209 c3 -52 0 -74 -10 -80 -8 -6 3 -9 31 -9 36 0 42 2 32 14 -7
8 -10 27 -8 43 3 26 7 28 50 31 l47 3 0 -33 c0 -19 -5 -39 -12 -46 -9 -9 -4
-12 23 -12 l34 0 -3 80 c-3 77 -5 80 -27 80 -20 0 -23 -5 -22 -27 2 -26 -1
-28 -40 -31 -42 -3 -43 -2 -43 27 0 27 -4 31 -27 31 l-28 0 3 -71z"/>
</g>
</svg>
