<?xml version="1.0" standalone="no"?>
<!DOCTYPE svg PUBLIC "-//W3C//DTD SVG 20010904//EN"
 "http://www.w3.org/TR/2001/REC-SVG-20010904/DTD/svg10.dtd">
<svg version="1.0" xmlns="http://www.w3.org/2000/svg"
 width="243.000000pt" height="400.000000pt" viewBox="0 0 243.000000 400.000000"
 preserveAspectRatio="xMidYMid meet">
<metadata>
Created by potrace 1.15, written by Peter Selinger 2001-2017
</metadata>
<g transform="translate(0.000000,400.000000) scale(0.100000,-0.100000)"
fill="#000000" stroke="none">
<path d="M518 3875 c-3 -3 -87 -6 -186 -6 -100 1 -183 -3 -186 -8 -8 -12 -19
-2516 -15 -3446 1 -66 0 -157 -1 -202 -1 -45 0 -86 4 -91 3 -5 145 -8 338 -6
183 2 596 3 918 3 322 0 626 1 675 2 50 1 122 2 160 3 l70 1 -3 865 c-5 1636
-13 2864 -18 2869 -3 3 -361 6 -797 8 -436 1 -828 5 -872 8 -45 3 -84 3 -87 0z
m1741 -31 c3 -3 7 -350 9 -771 3 -669 2 -767 -12 -781 -8 -10 -19 -29 -25 -45
-6 -15 -15 -27 -20 -27 -13 0 -22 43 -16 77 3 15 1 35 -4 43 -8 12 -12 12 -29
-3 -21 -19 -38 -22 -47 -6 -7 11 22 38 40 38 6 1 -1 -8 -15 -19 -14 -11 -19
-20 -12 -20 8 0 24 8 36 18 21 16 21 18 4 35 -10 9 -18 12 -18 6 0 -6 -7 -8
-16 -5 -8 3 -12 2 -9 -4 3 -6 -1 -7 -9 -4 -25 9 -19 21 13 27 25 5 28 9 23 34
l-6 28 -7 -25 c-6 -21 -7 -22 -8 -5 -1 12 4 26 10 32 7 7 6 15 -5 25 -11 11
-12 18 -3 27 8 8 6 11 -9 11 -14 0 -16 2 -5 9 10 7 12 29 7 102 -4 51 -9 110
-12 131 -6 34 -2 42 44 94 28 31 53 67 56 79 7 27 -9 75 -24 75 -13 0 -48 -35
-71 -70 -9 -14 -19 -23 -22 -20 -7 7 -30 231 -24 237 3 2 15 0 26 -7 18 -9 22
-8 28 6 4 10 2 19 -5 22 -7 2 -12 15 -12 29 0 34 -24 24 -30 -13 -8 -44 -17
-18 -25 71 -9 110 -31 184 -58 194 -14 5 -17 10 -9 15 9 5 9 13 1 29 -16 30
-15 30 -38 18 -17 -10 -20 -9 -15 4 4 8 1 15 -5 15 -6 0 -11 -13 -11 -29 0
-16 -6 -32 -12 -34 -10 -4 -10 -8 1 -15 7 -5 11 -16 9 -23 -3 -8 3 -30 13 -49
9 -19 22 -80 29 -135 6 -55 15 -129 20 -165 6 -41 6 -68 0 -74 -7 -7 -10 -2
-10 12 0 12 -4 22 -9 22 -5 0 -16 3 -24 6 -10 4 -16 -4 -19 -26 -4 -23 0 -33
11 -38 9 -3 19 -10 23 -16 4 -6 11 -6 20 2 12 10 17 -2 27 -67 13 -80 8 -121
-11 -87 -9 15 -13 15 -53 -9 -24 -14 -51 -25 -59 -25 -9 0 -16 -4 -16 -10 0
-5 -5 -10 -12 -10 -22 0 -100 -43 -89 -49 6 -4 7 -12 1 -21 -8 -13 -10 -12
-10 2 0 14 -6 16 -31 11 -21 -4 -34 -1 -40 8 -8 12 -10 12 -18 0 -5 -7 -13
-11 -19 -7 -12 7 -26 -11 -27 -33 0 -7 -10 -17 -22 -22 -27 -10 -27 -12 -8 42
26 75 36 90 58 83 12 -4 17 -2 13 4 -3 5 1 12 9 16 9 3 15 0 15 -10 0 -8 4
-13 9 -10 4 3 6 16 4 29 -5 27 -32 31 -50 8 -20 -26 -15 -2 27 129 56 172 89
253 111 268 20 14 26 57 9 67 -5 3 -10 12 -10 18 0 8 3 7 9 -2 7 -11 11 -9 21
8 13 26 7 51 -14 51 -7 0 -16 10 -19 22 -5 18 -8 19 -22 8 -12 -10 -15 -23
-10 -49 4 -20 12 -39 18 -44 7 -4 0 -5 -15 -1 -32 7 -52 -18 -67 -88 -6 -26
-17 -62 -25 -80 -8 -18 -20 -48 -26 -66 -10 -26 -15 -30 -26 -21 -12 10 -12
13 1 23 13 9 14 17 6 40 -15 37 -35 28 -39 -17 -2 -20 -8 -37 -14 -37 -5 0 -8
7 -4 15 6 16 -9 21 -19 5 -9 -15 27 -51 41 -40 8 7 16 5 25 -6 11 -13 8 -30
-19 -107 -83 -242 -110 -307 -128 -307 -8 0 -37 -11 -66 -24 -29 -14 -67 -30
-85 -36 -37 -14 -45 -32 -50 -115 -2 -33 -5 -71 -6 -85 -1 -14 4 -38 12 -53
10 -22 11 -34 2 -54 -6 -13 -9 -29 -6 -34 4 -5 1 -9 -4 -9 -6 0 -11 5 -11 11
0 8 -5 7 -15 -1 -13 -11 -18 -10 -31 6 -15 19 -15 19 -10 0 5 -16 4 -17 -8 -7
-21 17 -38 4 -30 -22 6 -22 6 -22 -10 -2 -17 20 -17 20 -11 -5 5 -22 4 -23 -5
-7 -21 32 -20 73 1 96 24 25 31 27 22 5 -4 -11 -2 -15 7 -12 7 2 14 16 16 32
1 15 8 34 14 41 17 21 17 115 -1 126 -9 7 -5 7 15 3 23 -6 27 -4 20 7 -9 14
-10 19 -13 40 0 6 -7 9 -15 6 -7 -3 -25 1 -40 8 -14 8 -26 11 -26 8 0 -3 -7 0
-15 7 -22 18 -60 4 -100 -37 -39 -40 -42 -56 -19 -102 11 -23 13 -36 6 -43 -7
-7 -13 0 -17 25 -6 30 -10 35 -24 28 -25 -13 -69 -10 -75 6 -3 8 -1 11 4 8 6
-3 10 -2 10 4 0 18 -17 21 -44 8 -32 -15 -33 -24 -1 -39 29 -13 20 -32 -20
-42 -17 -4 -23 -11 -19 -24 5 -13 4 -14 -4 -3 -8 11 -16 11 -48 1 -22 -7 -45
-17 -51 -23 -9 -6 -13 -6 -13 2 0 6 4 11 9 11 16 0 2 181 -19 230 -10 25 -26
81 -35 125 -10 44 -26 120 -38 169 -15 68 -18 96 -10 117 6 15 8 39 5 54 -4
25 -2 26 24 23 22 -2 29 1 32 17 2 16 1 17 -7 5 -14 -21 -25 -5 -12 19 8 14 8
22 -1 27 -13 8 -48 -30 -49 -55 -2 -32 -20 45 -29 124 -6 44 -14 105 -19 135
-5 30 -16 101 -23 158 -17 126 -35 146 -84 97 l-25 -25 3 27 c2 20 9 28 23 28
26 1 45 13 44 28 0 9 -2 9 -5 1 -3 -7 -14 -9 -25 -7 -16 4 -19 11 -15 29 4 15
2 24 -5 24 -6 0 -9 7 -6 15 4 8 2 17 -3 20 -5 3 -10 0 -13 -7 -2 -7 -2 -3 0
10 4 25 -12 30 -21 6 -4 -10 1 -25 10 -35 16 -18 15 -19 -14 -25 -22 -5 -32
-12 -32 -25 0 -22 29 -26 48 -7 20 20 26 -1 7 -22 -17 -19 -18 -25 -6 -63 47
-160 65 -256 64 -339 0 -17 5 -28 14 -28 10 0 11 -4 1 -19 -13 -21 12 -174 56
-342 14 -53 34 -147 45 -207 18 -104 40 -157 56 -132 3 5 1 10 -4 10 -6 0 -11
4 -11 9 0 5 11 8 25 6 26 -2 34 10 13 18 -8 4 -7 6 3 6 23 1 32 -27 12 -38
-17 -9 -27 -41 -14 -41 4 0 12 5 19 12 9 9 12 9 12 1 0 -7 -5 -15 -10 -18 -6
-4 -8 -10 -5 -15 2 -4 -4 -19 -15 -33 -11 -14 -20 -30 -20 -37 0 -6 -4 -8 -10
-5 -5 3 -10 21 -10 40 0 19 -4 37 -10 40 -6 4 -10 -8 -10 -28 0 -37 32 -87 55
-87 8 0 17 -4 20 -10 3 -5 0 -7 -8 -4 -18 7 -27 -7 -33 -48 -2 -17 -8 -36 -14
-42 -5 -5 -10 -16 -10 -24 0 -8 -9 -25 -20 -40 -13 -16 -17 -29 -11 -35 10
-10 0 -52 -25 -106 -12 -25 -13 -35 -4 -41 15 -9 -3 -49 -23 -51 -25 -2 -52 3
-65 13 -8 7 -12 7 -12 -1 0 -22 46 -34 81 -22 32 11 32 11 13 -10 -18 -20 -18
-20 11 -13 26 6 28 5 17 -8 -10 -13 -10 -17 3 -22 9 -3 14 -10 10 -15 -3 -5
-1 -12 5 -16 11 -7 13 -45 4 -69 -9 -24 -101 -86 -127 -86 -32 0 -54 15 -33
23 9 4 16 12 16 18 0 22 -62 107 -75 103 -8 -3 -16 4 -20 18 -13 45 -40 88
-52 83 -7 -2 -13 0 -13 6 0 6 -5 7 -11 4 -7 -5 -5 -15 5 -31 20 -29 20 -48 2
-64 -8 -6 -12 -18 -9 -27 3 -8 1 -18 -5 -22 -7 -4 -8 -12 -2 -21 8 -13 12 -12
24 5 9 11 15 16 15 10 0 -20 -27 -45 -48 -45 -11 0 -26 9 -33 20 -13 20 -38
28 -38 12 0 -5 9 -18 20 -30 26 -28 69 -28 103 -2 32 25 53 25 67 1 18 -34 11
-53 -34 -92 -44 -39 -65 -87 -43 -101 8 -5 5 -8 -8 -9 -25 -1 -79 -64 -72 -83
8 -20 78 -26 96 -8 10 10 28 13 58 9 24 -2 43 -1 43 4 0 5 -14 9 -31 9 -16 0
-28 4 -25 9 3 5 27 6 53 4 33 -4 45 -2 38 5 -5 6 -26 12 -45 15 -34 4 -34 4 7
5 49 2 70 22 23 22 -19 0 -29 4 -25 10 4 6 15 8 26 5 11 -4 19 -2 19 4 0 6 -4
11 -10 11 -5 0 -10 5 -10 11 0 14 42 0 57 -20 11 -14 12 -14 13 4 1 11 4 14 7
7 2 -6 9 -10 14 -6 13 8 11 -1 -13 -51 -25 -51 -58 -67 -143 -69 l-50 -1 -7
-75 c-7 -80 -27 -138 -53 -160 -24 -20 -43 -62 -56 -119 -12 -57 -31 -80 -53
-62 -11 10 -13 155 -9 899 2 488 5 1123 6 1412 l2 525 155 5 c204 7 1942 1
1949 -6z m-373 -1118 c-1 -7 -33 -47 -71 -87 -38 -41 -63 -65 -55 -54 8 11 -5
2 -28 -20 -23 -21 -42 -44 -42 -50 0 -5 7 -1 15 9 8 11 15 16 15 10 -1 -12
-25 -44 -34 -44 -4 0 -4 5 -1 10 3 6 2 10 -3 10 -6 0 -35 -27 -65 -61 -34 -37
-61 -58 -68 -54 -6 4 -20 27 -30 50 -15 35 -17 48 -8 74 11 32 40 49 133 82
22 8 41 22 44 32 3 12 8 14 16 8 17 -14 176 67 169 86 -3 7 -1 13 5 13 6 0 9
-6 8 -14z m160 -87 c22 -139 22 -159 8 -159 -8 0 -14 11 -14 25 0 14 -6 25
-12 25 -7 0 -24 3 -37 7 -22 5 -22 4 -11 -17 7 -14 15 -18 19 -12 4 7 12 8 21
2 10 -7 11 -10 3 -10 -24 0 -13 -16 20 -31 28 -12 33 -20 39 -64 14 -101 30
-119 74 -90 28 18 32 9 7 -12 -17 -14 -17 -14 0 -9 9 3 17 1 17 -4 0 -6 -4
-10 -10 -10 -8 0 -33 -45 -42 -79 -7 -24 -38 17 -39 52 l-2 32 -6 -35 c-6 -34
-7 -35 -59 -38 -32 -2 -60 2 -68 9 -9 7 -40 11 -77 10 l-62 -2 22 20 c20 19
21 23 8 48 -8 16 -15 33 -15 39 0 13 -23 24 -51 24 -10 0 -18 3 -18 8 4 26 -3
31 -43 26 l-43 -5 43 41 c23 23 39 46 36 52 -4 7 -2 8 5 4 15 -10 146 112 146
135 0 10 4 21 8 25 4 5 5 0 1 -11 -4 -12 16 2 47 33 30 28 58 51 64 49 5 -2
15 -37 21 -78z m-971 -147 c6 -7 20 -14 32 -15 15 -1 19 -5 13 -13 -12 -14 -2
-24 24 -24 20 0 20 0 0 -15 -19 -15 -18 -16 3 -13 12 2 22 0 23 -4 1 -28 0
-30 -13 -19 -17 13 -28 5 -20 -15 3 -8 0 -21 -7 -29 -6 -8 -9 -19 -5 -26 4 -6
2 -15 -6 -19 -8 -6 -17 0 -26 17 -12 23 -11 29 3 45 24 26 15 29 -29 8 -37
-18 -37 -18 -52 3 -13 18 -12 22 3 33 16 13 16 13 0 14 -10 0 -17 3 -16 8 0 4
-3 16 -7 26 -6 13 -4 21 3 24 7 2 12 10 12 18 0 18 50 15 65 -4z m325 -8 c15
-38 12 -62 -7 -68 -10 -2 2 -4 27 -3 43 2 45 1 47 -28 1 -18 -1 -22 -4 -10 -6
25 -23 44 -23 26 0 -8 -7 -10 -20 -6 -37 12 -59 -3 -55 -36 3 -23 0 -29 -15
-29 -10 0 -21 4 -24 9 -3 4 -17 6 -31 3 l-26 -5 4 77 c2 42 7 79 12 83 4 5 5
0 2 -9 -7 -20 -6 -21 17 -12 9 3 13 10 10 15 -3 5 2 6 10 3 8 -3 23 -1 33 5
27 15 33 14 43 -15z m358 -135 c7 -11 16 -43 19 -70 5 -41 3 -49 -11 -49 -9 0
-16 -4 -16 -10 0 -5 4 -10 9 -10 5 0 17 -15 26 -32 15 -30 15 -34 -1 -45 -15
-11 -53 -9 -76 4 -12 6 -10 61 2 68 18 11 10 23 -11 18 -26 -7 -49 19 -49 54
0 24 25 32 33 11 2 -7 7 -10 11 -7 4 3 2 19 -4 34 -8 22 -14 25 -22 17 -19
-19 -29 -14 -16 8 22 35 87 40 106 9z m118 -154 c-4 -11 2 -15 21 -15 29 0 22
-15 -12 -23 -18 -4 -18 -5 3 -6 12 0 22 -5 22 -11 0 -5 -10 -11 -22 -11 -21
-1 -21 -2 -3 -6 27 -7 34 -21 26 -51 -5 -16 -17 -29 -32 -33 -23 -7 -23 -7 -2
-8 29 -1 37 -17 16 -31 -17 -11 -17 -11 0 -6 10 3 17 0 17 -7 0 -16 -118 -48
-127 -34 -3 5 1 13 8 18 8 5 16 3 21 -4 13 -21 15 -3 8 58 -6 52 -4 63 17 94
13 18 23 47 23 62 0 16 5 29 11 29 6 0 9 -7 5 -15z m-394 -25 c-2 -17 2 -21
14 -16 17 6 17 1 -1 -49 -6 -17 -3 -16 15 4 17 19 23 22 30 12 6 -10 9 -8 15
8 7 24 17 26 46 10 19 -10 20 -8 17 18 -2 23 0 27 17 25 24 -5 21 -2 29 -29 6
-19 4 -23 -16 -23 -35 0 -95 -77 -84 -107 3 -7 1 -13 -4 -13 -6 0 -10 10 -11
23 -1 21 -1 21 -9 -3 l-8 -25 -1 28 -1 28 -22 -21 c-27 -25 -38 -25 -38 -2 0
14 -2 15 -10 2 -7 -11 -11 -9 -19 13 -14 36 -14 37 4 31 18 -7 18 -1 5 44 -6
24 -6 39 3 53 15 25 33 18 29 -11z m650 0 l22 -20 -23 0 c-20 0 -22 -2 -10
-16 10 -12 10 -17 1 -23 -7 -4 -14 -25 -17 -47 -9 -78 -57 -163 -92 -164 -8 0
-13 -14 -13 -35 0 -19 -4 -35 -8 -35 -5 0 -8 22 -8 49 0 27 -6 57 -14 66 -11
13 -9 20 15 45 16 17 23 30 17 30 -7 0 -12 -3 -12 -8 0 -4 -9 -13 -20 -20 -18
-11 -20 -10 -20 17 0 25 3 29 28 27 15 0 32 -7 38 -15 12 -15 38 -6 29 10 -4
5 1 9 9 9 17 0 22 15 8 24 -5 3 -2 32 6 66 16 65 29 73 64 40z m-1469 -22 c4
-18 9 -62 12 -98 4 -36 15 -92 25 -125 11 -33 22 -83 26 -112 6 -51 36 -95 52
-78 4 4 1 10 -5 12 -7 3 -13 9 -13 14 0 4 7 6 15 3 8 -4 15 -1 15 5 0 6 -5 11
-12 11 -6 0 -9 2 -6 5 12 13 39 -9 35 -27 -4 -12 -1 -18 6 -15 13 5 13 10 3
77 l-7 45 25 -30 c41 -48 48 -80 25 -109 -11 -14 -22 -33 -24 -43 -7 -39 -24
-69 -53 -96 l-30 -29 -7 23 c-4 12 -24 40 -45 63 -51 56 -77 111 -90 191 -6
36 -17 91 -25 121 -13 50 -12 59 6 111 11 32 17 63 15 70 -5 11 29 43 45 43 4
0 9 -15 12 -32z m757 -58 c0 -26 7 -47 19 -59 24 -24 95 -45 128 -38 19 4 27
-1 34 -22 6 -14 11 -34 12 -45 1 -16 7 -17 45 -12 23 3 63 0 88 -6 43 -12 47
-11 65 11 18 22 95 48 108 36 3 -4 6 -24 6 -46 0 -36 1 -38 13 -22 13 16 14
15 9 -14 -9 -45 -32 -91 -69 -139 -18 -23 -41 -54 -50 -70 -9 -16 -30 -44 -45
-63 -22 -28 -24 -33 -9 -28 15 6 17 5 7 -7 -6 -8 -23 -17 -37 -20 -19 -5 -24
-11 -19 -26 4 -13 1 -22 -9 -26 -9 -3 -16 -12 -16 -20 0 -16 -38 -18 -60 -4
-11 8 -8 9 13 4 15 -3 27 -3 27 0 0 11 -89 46 -116 46 -28 0 -30 10 -9 89 21
82 17 170 -10 234 -5 12 -1 25 11 39 19 21 19 21 -1 10 -11 -6 -33 -25 -49
-42 -32 -33 -46 -38 -46 -15 0 8 -4 15 -10 15 -5 0 -7 -7 -3 -16 6 -16 -15
-64 -29 -64 -12 0 -10 17 5 32 9 8 13 34 12 68 -1 62 -35 200 -49 200 -8 0 -5
-26 10 -77 4 -14 2 -23 -5 -23 -6 0 -11 10 -11 23 0 13 -5 28 -11 34 -8 8 -5
23 12 57 12 25 26 46 31 46 4 0 8 -18 8 -40z m730 -255 c5 -33 19 -134 30
-225 12 -91 26 -182 31 -203 9 -33 13 -36 34 -31 l23 6 4 -129 c3 -97 0 -131
-10 -139 -11 -10 -11 -13 0 -18 12 -6 -44 -1 -87 8 -11 2 -30 4 -42 5 -20 1
-23 6 -23 44 0 23 -7 67 -16 97 -9 30 -20 87 -26 126 -10 67 -9 74 11 102 27
39 28 103 2 140 -11 15 -32 62 -46 104 l-27 77 38 63 c20 35 47 78 58 95 l21
33 8 -48 c4 -26 12 -74 17 -107z m-749 28 c5 -107 3 -119 -13 -137 -22 -24
-23 -69 -3 -86 23 -19 19 -47 -30 -230 -5 -19 -4 -22 4 -10 9 12 11 10 11 -13
0 -44 -17 -68 -45 -63 -43 8 -48 16 -43 68 4 33 2 46 -5 39 -5 -5 -13 -50 -17
-98 -4 -48 -8 -72 -10 -53 -1 19 -2 38 -1 42 0 4 -8 41 -19 84 -22 84 -26 144
-10 144 16 0 12 37 -6 55 -16 15 -16 19 0 51 9 19 21 32 27 29 6 -5 6 -12 -3
-22 -11 -14 -10 -15 9 -9 27 9 30 -1 39 -120 6 -89 16 -125 29 -112 4 4 2 22
-3 40 -6 18 -13 73 -17 121 -6 84 -5 88 13 83 25 -8 52 21 28 30 -9 3 -14 10
-11 15 3 4 12 6 20 2 12 -4 15 4 15 40 0 28 6 49 16 58 11 9 15 25 12 51 -2
21 0 38 4 38 5 0 9 -17 9 -37z m565 -35 c-3 -18 -16 -42 -28 -55 -15 -16 -19
-26 -11 -34 13 -13 0 -79 -19 -90 -7 -5 -8 -9 -2 -9 15 0 10 -40 -7 -51 -10
-6 -10 -9 -1 -9 18 0 15 -27 -4 -38 -11 -6 -13 -11 -5 -16 6 -4 15 -5 19 -2
13 8 33 106 36 176 2 40 9 67 20 78 9 9 16 11 16 5 0 -7 -5 -15 -10 -18 -6 -4
-11 -32 -10 -63 2 -192 0 -251 -11 -257 -6 -4 -24 6 -41 21 -21 20 -29 23 -25
12 10 -28 -3 -48 -30 -48 -20 0 -24 4 -20 20 4 16 0 20 -18 20 -28 0 -39 27
-26 63 10 25 65 107 108 160 28 35 30 57 3 32 -30 -27 -24 -7 9 31 16 18 35
49 42 68 16 45 24 46 15 4z m-428 -43 c-1 -16 2 -41 6 -53 6 -18 3 -29 -13
-43 -11 -11 -24 -18 -28 -18 -4 1 -16 -1 -26 -6 -10 -4 -23 -2 -32 5 -12 10
-15 9 -15 -4 0 -11 9 -16 30 -16 22 0 28 -4 24 -15 -7 -18 -4 -18 30 -5 29 11
29 11 16 -59 -6 -33 -25 -74 -55 -117 -25 -37 -47 -76 -50 -88 -20 -86 -25
-118 -20 -126 10 -16 -48 -120 -67 -120 -27 0 -23 44 13 141 20 55 32 107 34
149 5 107 28 193 55 207 23 11 23 12 5 19 -53 19 -71 64 -35 86 11 7 20 21 20
30 0 10 4 18 10 18 5 0 26 16 46 36 40 41 55 35 52 -21z m-325 -380 c9 -38 18
-106 22 -150 12 -137 14 -129 -20 -129 -24 0 -34 7 -53 40 -19 33 -22 49 -18
99 4 52 1 68 -24 119 l-29 58 47 32 c54 37 52 39 75 -69z m364 74 c26 -10 27
-12 8 -19 l-20 -9 20 0 c42 -2 96 -22 88 -34 -5 -8 -8 -8 -11 1 -2 7 -8 12
-13 12 -5 0 -9 -39 -9 -87 0 -109 -6 -121 -48 -99 -17 9 -39 16 -50 16 -10 0
-23 5 -29 11 -8 8 -20 9 -41 1 -36 -12 -42 -8 -42 31 0 24 2 27 14 17 12 -9
17 -4 26 32 7 24 17 49 22 56 6 7 7 16 3 20 -4 4 -9 3 -12 -3 -8 -22 -22 -39
-28 -33 -8 8 67 97 82 97 6 1 24 -4 40 -10z m-947 -29 c93 -66 129 -177 84
-256 -13 -22 -24 -50 -24 -62 0 -18 -6 -22 -34 -22 -18 0 -39 7 -46 15 -18 22
-35 19 -75 -16 -19 -17 -65 -41 -102 -53 -73 -25 -133 -38 -133 -31 0 10 52
99 91 157 10 15 34 73 53 129 34 100 46 118 76 119 8 0 26 9 40 20 31 25 36
25 70 0z m1108 -1 c-21 -12 -26 -73 -5 -66 6 2 11 10 10 16 -6 25 16 8 32 -25
21 -45 14 -64 -25 -64 -16 0 -30 -5 -30 -10 0 -6 11 -8 28 -4 15 4 32 7 37 8
6 0 10 -18 10 -42 0 -30 4 -41 13 -37 15 6 16 2 31 -93 7 -45 22 -92 41 -125
29 -52 49 -145 50 -229 0 -63 -25 -46 -50 32 -12 39 -27 73 -31 76 -19 11 -40
80 -37 119 2 31 -1 39 -13 38 -9 -2 -27 21 -48 61 -32 63 -34 86 -7 86 8 0 19
6 25 14 10 12 6 14 -20 13 -41 -2 -48 18 -12 31 l28 10 -25 2 c-25 1 -25 1 -2
10 28 12 29 20 2 13 -14 -4 -26 1 -35 13 -20 28 -30 10 -30 -52 0 -32 -4 -53
-10 -51 -10 4 -11 35 -5 150 3 56 17 76 27 37 3 -11 9 -20 14 -20 10 0 0 60
-13 77 -9 11 9 18 52 21 11 1 11 -1 -2 -9z m-719 -13 c12 -15 -4 -77 -43 -168
-18 -41 -13 -63 16 -79 36 -19 55 -2 82 74 l24 72 1 -70 c0 -38 -6 -87 -13
-107 -14 -39 -10 -47 14 -25 12 10 12 9 1 -6 -8 -10 -21 -15 -31 -12 -9 3 -22
0 -28 -8 -9 -11 -53 -14 -123 -8 -12 1 -19 20 -28 74 l-12 74 42 79 c71 134
75 138 98 110z m833 -26 c12 0 29 7 39 16 10 9 22 13 27 10 12 -7 52 -135 52
-164 0 -11 14 -46 30 -77 30 -58 37 -85 21 -85 -5 0 -28 9 -52 19 -31 14 -48
17 -62 10 -26 -15 -16 -33 20 -35 16 -1 43 -9 59 -18 16 -8 37 -18 47 -22 12
-4 17 -18 19 -48 0 -22 2 -45 3 -51 2 -5 3 -15 4 -20 1 -12 39 -29 96 -44 56
-15 95 -14 95 3 0 16 -38 66 -51 66 -5 0 0 -9 11 -20 28 -28 27 -53 -2 -45
-13 4 -27 11 -33 16 -5 5 -19 9 -32 9 -13 0 -29 10 -39 25 -19 30 -10 48 10
20 7 -10 18 -15 24 -11 18 11 14 26 -5 20 -15 -5 -15 -4 -3 4 10 8 18 8 27 0
21 -17 15 7 -7 27 -19 17 -29 52 -12 41 5 -3 34 -6 65 -7 60 -3 76 -15 30 -22
-27 -4 -26 -4 4 -6 30 -1 59 -21 32 -21 -10 0 -10 -3 -1 -12 7 -7 12 -22 12
-35 0 -17 -4 -21 -17 -16 -17 6 -17 5 0 -14 14 -16 15 -22 5 -27 -10 -5 -10
-7 0 -12 14 -7 17 -64 2 -64 -6 0 -9 6 -8 12 2 7 -19 20 -47 29 -62 21 -215
35 -215 21 0 -6 9 -8 20 -5 12 3 20 0 20 -7 0 -9 11 -10 36 -5 20 3 34 2 31
-2 -3 -5 33 -19 80 -32 78 -22 116 -48 84 -59 -9 -3 -9 -7 0 -18 16 -20 5 -28
-19 -15 -38 20 -45 11 -11 -12 32 -21 34 -27 37 -86 3 -58 1 -63 -15 -56 -29
12 -134 45 -144 45 -5 0 -9 -3 -9 -8 0 -4 26 -13 58 -21 31 -7 69 -20 85 -27
27 -14 27 -16 27 -110 0 -94 0 -95 -22 -88 -13 3 -24 11 -26 15 -2 5 -15 9
-28 9 -33 0 -30 18 4 23 17 3 9 5 -23 7 -27 1 -40 5 -27 7 12 2 22 9 22 15 0
6 8 17 17 24 16 11 16 13 -9 24 -15 7 -34 9 -45 5 -15 -7 -13 -9 12 -15 17 -4
22 -8 11 -9 -15 -1 -16 -4 -6 -16 10 -12 9 -15 -4 -15 -9 0 -19 7 -22 15 -8
19 -24 20 -24 1 0 -8 -12 -16 -27 -18 -35 -4 -43 -28 -9 -28 38 0 41 -18 4
-22 -42 -4 -39 -21 4 -29 32 -6 28 -9 -19 -14 -32 -3 -53 -13 -53 -25 0 -5 7
-10 15 -10 8 0 15 5 15 11 0 6 16 9 38 7 32 -3 37 -6 34 -25 -5 -32 18 -107
29 -96 5 5 4 24 -2 46 -16 59 -6 77 46 77 24 0 55 4 69 10 l26 10 0 -110 0
-109 -727 -1 c-401 -1 -880 -3 -1065 -6 l-336 -4 2 168 c2 92 -1 217 -6 277
-10 125 -4 195 17 195 8 0 34 -6 57 -14 70 -23 98 -27 98 -16 0 5 -11 10 -24
10 -36 0 -55 10 -49 26 3 8 1 14 -5 14 -6 0 -12 -5 -14 -11 -3 -9 -10 -9 -27
0 -12 7 -29 10 -37 7 -17 -6 -16 -9 -18 77 -1 48 2 67 11 67 16 0 17 17 1 22
-7 3 -5 7 6 11 16 6 17 3 12 -28 -3 -19 -9 -51 -12 -71 l-7 -37 51 5 c52 5
147 46 146 63 0 6 -21 14 -47 19 -46 8 -65 26 -29 26 10 0 27 7 38 15 18 14
17 14 -13 9 -36 -7 -41 2 -17 32 8 10 13 14 10 7 -11 -21 9 -22 79 -3 82 23
88 23 80 10 -3 -5 0 -10 7 -10 7 0 31 -3 52 -7 28 -4 37 -3 32 5 -4 7 -18 12
-31 12 -13 0 -26 4 -29 8 -3 5 33 7 79 5 52 -3 86 0 90 6 3 6 -1 11 -10 11 -9
0 -13 5 -10 10 4 6 -7 10 -27 9 -31 -1 -32 -1 -8 -9 20 -6 17 -8 -20 -8 -25 0
-58 4 -75 8 -29 7 -29 8 -4 9 45 2 89 13 89 22 0 5 -7 9 -16 9 -8 0 -13 4 -9
10 3 5 15 6 28 1 13 -5 35 -7 49 -4 l27 5 -5 -83 c-2 -46 -9 -100 -16 -118
-10 -31 -9 -36 11 -49 11 -8 21 -19 21 -25 0 -5 -9 -2 -20 8 -15 13 -29 16
-58 12 -27 -5 -45 -2 -61 9 -14 10 -33 14 -51 10 -16 -3 -32 -2 -34 3 -7 11
-62 22 -80 15 -23 -9 -6 -42 25 -49 16 -4 29 -11 29 -16 0 -5 5 -9 10 -9 19 0
10 27 -12 38 -13 6 -17 11 -9 11 8 1 23 -7 33 -16 16 -14 21 -15 28 -4 7 12
20 10 77 -8 52 -16 98 -22 198 -24 72 -2 141 0 155 4 29 8 19 12 -26 9 -23 -1
-35 5 -48 25 -10 15 -33 33 -52 41 -30 13 -34 19 -34 52 0 26 6 41 20 50 11 7
20 21 20 32 0 11 7 20 15 20 8 0 15 6 15 13 1 6 8 -1 16 -16 8 -15 14 -42 12
-60 -3 -31 -5 -32 -43 -30 -31 2 -35 1 -20 -6 11 -5 30 -10 43 -10 12 -1 22
-5 22 -10 0 -4 -19 -5 -42 -1 -50 10 -58 6 -27 -10 14 -8 36 -10 63 -5 66 12
155 6 184 -13 24 -16 26 -16 20 0 -4 9 -2 18 5 21 16 5 -9 37 -29 37 -22 0
-88 65 -101 99 -6 17 -7 31 -3 31 5 0 12 -9 15 -20 3 -11 14 -20 23 -19 11 0
12 3 5 6 -7 2 -13 9 -13 14 0 6 5 7 10 4 6 -3 13 1 16 9 3 9 13 16 22 16 12 0
13 -3 4 -12 -27 -27 -14 -41 33 -35 27 4 45 3 45 -3 0 -6 20 -10 45 -10 57 0
59 18 3 23 -41 3 -41 4 10 5 l52 2 1 -67 c1 -38 1 -74 0 -81 -2 -10 2 -11 17
-3 15 8 21 7 25 -3 4 -9 14 -12 26 -9 23 6 26 -5 10 -39 -9 -20 -16 -23 -46
-20 -25 3 -34 1 -29 -7 4 -6 18 -11 32 -11 29 0 29 -6 5 -63 -21 -49 -52 -75
-124 -101 -39 -15 -48 -22 -44 -37 5 -17 -1 -19 -51 -21 -86 -3 -144 1 -157
12 -16 14 -27 0 -14 -17 8 -9 38 -13 93 -14 44 -1 72 -3 61 -6 -11 -3 -24 -10
-30 -15 -7 -7 -2 -9 15 -4 14 3 49 6 78 6 34 0 51 4 47 10 -4 6 -21 8 -42 4
-24 -4 -34 -3 -30 3 4 6 24 14 44 18 32 6 35 9 22 18 -13 10 -6 17 47 43 35
16 58 24 52 16 -15 -18 9 -35 37 -26 59 17 65 17 65 -5 0 -20 -15 -29 -22 -13
-4 11 -148 -9 -148 -20 0 -4 8 -9 18 -10 62 -5 72 -4 72 8 0 17 -1 17 39 3 45
-16 64 2 56 52 -10 61 2 99 31 99 14 0 34 -4 44 -10 10 -5 34 -12 54 -14 28
-3 36 -1 36 11 0 10 6 14 19 10 10 -2 25 -1 32 4 9 6 1 9 -23 9 -21 0 -38 4
-38 9 0 6 -14 11 -31 13 l-31 3 22 28 c15 19 29 27 41 24 11 -3 37 3 59 14 46
23 50 23 50 6 0 -8 -6 -14 -13 -14 -19 0 -87 -55 -81 -65 8 -13 144 -10 144 3
0 8 -18 10 -61 6 -39 -5 -58 -3 -54 3 3 6 12 10 20 10 8 0 26 5 40 12 25 11
26 14 20 70 l-7 58 76 0 c44 0 76 4 76 10 0 6 -20 10 -44 10 -25 0 -48 5 -52
12 -5 8 -11 5 -20 -7 -20 -27 -29 -11 -14 25 10 25 17 30 34 26 55 -15 99 -19
92 -8 -10 16 26 16 42 0 7 -7 12 -26 12 -42 1 -17 7 -42 15 -56 8 -14 14 -28
15 -32 0 -14 -63 -8 -80 7 -13 12 -30 14 -74 9 -31 -4 -56 -11 -56 -16 0 -6
20 -7 50 -3 35 5 55 3 66 -6 9 -7 37 -12 64 -12 51 1 53 0 71 -61 11 -39 -5
-50 -45 -29 -37 19 -166 31 -166 15 0 -6 16 -8 41 -5 29 4 64 -1 115 -18 64
-21 73 -27 73 -49 1 -89 15 -109 60 -91 16 7 39 10 50 6 24 -7 103 14 95 27
-3 4 -20 15 -37 22 -18 8 -46 27 -64 42 -27 26 -32 37 -37 98 l-5 68 27 -7
c20 -5 24 -4 16 5 -6 6 -19 13 -29 14 -11 2 -23 22 -35 55 l-18 53 65 -4 c55
-3 62 -2 47 9 -10 7 -43 13 -75 13 -50 0 -57 3 -62 22 -8 28 0 36 16 16 14
-18 57 -31 57 -17 0 5 -9 9 -20 9 -11 0 -20 5 -20 10 0 6 4 10 9 10 18 0 77
-24 94 -38 23 -21 22 1 -2 22 -12 11 -43 20 -81 23 -33 3 -63 10 -66 14 -3 5
0 9 5 9 6 0 11 5 11 11 0 5 -4 7 -10 4 -10 -6 -15 11 -23 76 -4 27 -1 38 14
47 27 17 24 31 -21 118 -42 82 -50 103 -24 66 8 -12 25 -22 36 -22z m-947 -83
c-31 -58 -62 -111 -70 -117 -8 -7 -20 -30 -25 -51 -6 -22 -20 -60 -30 -84 -15
-36 -24 -45 -44 -45 -20 0 -26 6 -31 33 -9 47 8 111 42 154 25 34 36 61 71
178 9 29 11 30 65 30 30 0 59 3 63 8 22 21 9 -11 -41 -106z m632 -82 c24 -4
45 -11 48 -15 3 -5 -33 -57 -80 -115 -73 -90 -86 -112 -92 -153 -7 -55 -15
-73 -57 -127 -39 -50 -54 -78 -61 -119 -5 -24 -14 -35 -38 -44 -32 -12 -51 -7
-28 7 7 5 11 15 9 22 -3 8 6 43 20 79 38 100 89 250 102 300 14 52 74 166 93
173 6 3 19 4 27 2 8 -2 34 -7 57 -10z"/>
<path d="M305 2295 c-59 -28 -87 -60 -95 -109 -5 -33 -3 -46 7 -50 7 -3 13
-12 13 -21 0 -9 16 -23 35 -31 39 -16 41 -20 22 -39 -8 -7 -29 -51 -47 -97
-18 -45 -39 -92 -46 -103 -17 -23 -18 -51 -3 -60 17 -11 23 3 9 20 -10 12 -10
18 0 30 19 23 48 84 55 117 4 16 13 32 20 35 8 2 11 11 8 19 -4 10 2 17 16 21
12 3 21 10 20 17 -4 34 3 66 14 66 16 0 41 54 27 58 -7 3 -7 9 1 18 18 22 4
27 -25 9 -14 -10 -26 -13 -26 -8 0 5 11 15 25 21 14 7 28 19 31 27 9 23 24 18
21 -7 -1 -17 3 -23 16 -21 16 1 18 -4 13 -32 -4 -19 -2 -36 4 -40 16 -10 12
-28 -6 -21 -10 4 -18 -1 -21 -13 -3 -12 -17 -23 -34 -26 -47 -11 -46 -26 2
-19 36 6 41 5 36 -9 -3 -9 -2 -19 3 -22 6 -4 10 0 10 9 0 8 12 25 28 38 15 12
40 44 55 70 15 26 33 51 41 55 7 4 17 19 21 32 6 21 5 23 -11 16 -11 -4 -35
-13 -54 -20 -26 -10 -36 -20 -38 -39 -2 -17 2 -28 12 -32 14 -5 14 -9 0 -35
-8 -16 -19 -29 -23 -29 -5 0 -16 -3 -25 -6 -9 -3 -16 -1 -16 5 0 6 9 11 19 11
26 0 36 17 21 35 -7 8 -9 26 -5 44 5 24 2 30 -14 36 -12 3 -21 11 -21 16 0 13
-50 79 -59 79 -3 -1 -19 -7 -36 -15z"/>
</g>
</svg>
