<?xml version="1.0" standalone="no"?>
<!DOCTYPE svg PUBLIC "-//W3C//DTD SVG 20010904//EN"
 "http://www.w3.org/TR/2001/REC-SVG-20010904/DTD/svg10.dtd">
<svg version="1.0" xmlns="http://www.w3.org/2000/svg"
 width="233.000000pt" height="400.000000pt" viewBox="0 0 233.000000 400.000000"
 preserveAspectRatio="xMidYMid meet">
<metadata>
Created by potrace 1.15, written by Peter Selinger 2001-2017
</metadata>
<g transform="translate(0.000000,400.000000) scale(0.100000,-0.100000)"
fill="#000000" stroke="none">
<path d="M54 3949 c-9 -15 -10 -162 -19 -2229 l-8 -1696 549 2 c302 1 797 4
1099 8 303 4 559 7 569 6 18 0 19 10 12 288 -3 158 -6 1035 -7 1950 0 1276 -3
1664 -12 1667 -7 2 -499 6 -1094 10 -829 4 -1083 3 -1089 -6z m1958 -22 c108
-1 199 -5 202 -8 3 -3 9 -602 12 -1331 l7 -1326 -43 0 c-31 -1 -52 6 -76 24
-76 59 -253 93 -384 74 -35 -5 -66 -7 -69 -4 -2 2 -4 43 -3 91 0 47 -3 93 -7
102 -5 9 -12 86 -15 171 -8 174 -23 460 -35 655 -7 110 -12 140 -35 192 -18
40 -34 62 -45 61 -9 0 -36 4 -60 9 -34 6 -48 15 -61 38 -13 23 -24 30 -44 28
-15 -1 -26 3 -26 11 0 21 -24 66 -36 66 -6 0 -21 12 -35 26 -31 34 -95 64
-138 64 -72 0 -147 -68 -157 -144 -7 -51 7 -75 58 -102 46 -24 50 -44 21 -103
-50 -105 -63 -253 -62 -696 1 -170 0 -350 -1 -400 -2 -49 -4 -134 -4 -187 l-1
-96 -40 -6 c-22 -3 -69 -8 -105 -12 -37 -4 -73 -13 -84 -23 -10 -9 -20 -15
-22 -13 -9 8 -204 -11 -204 -19 0 -11 12 -11 142 1 59 6 120 15 135 21 34 13
183 28 183 18 0 -4 -28 -10 -63 -14 -34 -4 -72 -11 -84 -16 -22 -8 -245 -34
-383 -44 -41 -3 -102 -12 -135 -20 -110 -26 -190 -46 -223 -56 -37 -12 -47 -8
-39 15 4 9 40 20 104 31 54 9 116 23 138 30 22 8 68 15 103 16 34 1 65 6 68
11 7 12 -133 10 -156 -2 -19 -10 -153 -36 -220 -42 l-35 -3 -3 108 c-2 81 0
107 10 108 49 4 88 18 88 33 1 21 57 78 65 66 4 -6 -2 -22 -14 -34 -22 -23
-28 -42 -11 -31 18 11 11 -8 -12 -32 -12 -13 -29 -23 -39 -23 -24 0 -49 -10
-49 -21 0 -14 63 2 86 22 11 11 28 19 37 19 9 0 23 10 31 22 22 31 31 15 10
-16 -9 -15 -14 -30 -10 -34 11 -10 40 34 55 84 14 48 25 54 41 24 6 -11 19
-20 28 -20 10 0 27 -7 38 -15 15 -12 16 -16 5 -24 -9 -6 3 -11 40 -16 30 -4
64 -13 77 -21 12 -8 27 -12 33 -8 6 3 -3 15 -21 26 -30 18 -31 20 -14 33 23
16 37 9 29 -15 -5 -16 0 -19 42 -18 26 1 64 -2 83 -5 20 -4 37 -2 41 4 4 8 15
6 32 -5 15 -11 53 -19 97 -21 40 -2 81 -7 91 -10 11 -4 19 -2 19 4 0 6 -10 11
-21 11 -30 0 -99 21 -99 31 0 4 17 3 38 -2 61 -14 82 -11 82 11 0 14 -7 20
-21 20 -17 0 -19 3 -10 13 8 10 4 29 -16 75 -30 66 -38 72 -60 45 -13 -17 -14
-16 -10 4 4 17 -2 24 -26 32 -40 14 -38 15 -31 -16 6 -25 5 -26 -8 -15 -10 8
-19 9 -22 3 -4 -5 2 -15 11 -21 15 -9 12 -10 -14 -6 -20 3 -33 1 -33 -5 0 -6
5 -7 11 -3 9 5 10 -1 5 -20 -5 -19 -3 -26 9 -26 9 0 15 -9 15 -22 -1 -22 -1
-22 -15 -5 -10 15 -21 17 -44 12 -53 -11 -66 -1 -69 57 -4 62 -7 68 -35 68
-13 0 -34 8 -47 17 -14 10 -45 20 -70 23 l-45 5 -5 60 c-4 51 -9 61 -30 72
-14 7 -44 13 -66 13 -46 0 -54 -9 -54 -65 0 -19 -5 -37 -11 -41 -7 -4 -9 0 -5
14 5 14 0 28 -14 42 -19 19 -24 20 -43 7 -12 -8 -28 -26 -35 -41 -7 -15 -21
-26 -33 -26 -10 0 -19 -4 -19 -10 0 -5 -7 -10 -15 -10 -15 0 -26 -29 -29 -75
0 -14 -7 -25 -14 -25 -11 0 -12 137 -7 753 8 1028 14 1759 15 1775 0 13 209
13 1942 -1z m-1652 -2378 c0 -85 11 -103 62 -95 l39 6 -2 -57 c-3 -71 -7 -83
-25 -76 -7 3 -17 -2 -20 -11 -4 -12 -13 -15 -28 -10 -26 8 -56 43 -49 60 2 7
0 15 -6 19 -7 4 -11 -3 -11 -16 0 -18 -3 -20 -12 -11 -13 13 -17 220 -4 240 4
7 18 12 32 12 23 0 24 -3 24 -61z m1615 -222 c80 -22 162 -72 134 -82 -101
-35 -100 -35 -130 -13 -50 37 -119 -1 -119 -67 0 -29 -5 -37 -27 -46 -16 -6
-38 -11 -51 -11 -13 0 -21 -6 -19 -12 6 -16 78 -8 107 13 14 10 37 21 51 24
21 5 26 12 24 32 -4 29 6 38 31 28 16 -6 16 -7 -1 -19 -9 -7 -14 -17 -11 -23
4 -6 21 2 42 22 39 35 127 67 187 67 l37 0 0 -110 c0 -104 -1 -110 -21 -110
-11 0 -17 -4 -14 -10 3 -5 -1 -10 -9 -10 -9 0 -16 5 -16 10 0 6 -7 10 -15 10
-8 0 -15 -9 -15 -20 0 -11 -6 -20 -14 -20 -21 0 -27 -28 -8 -39 11 -7 12 -11
4 -11 -9 0 -11 -7 -7 -20 4 -11 2 -20 -4 -20 -6 0 -11 -7 -11 -15 0 -8 5 -15
10 -15 6 0 10 5 10 10 0 6 5 10 10 10 6 0 10 -29 10 -66 0 -48 3 -65 12 -62 8
3 13 26 13 63 0 37 4 60 12 62 10 4 9 8 -2 20 -21 21 -19 33 8 33 18 0 19 -2
7 -10 -13 -8 -12 -10 3 -10 9 0 17 -7 17 -15 0 -8 6 -15 13 -15 9 0 13 -24 13
-95 0 -89 -1 -95 -21 -96 -11 -1 -27 -2 -35 -3 -8 0 -30 9 -49 21 -27 18 -48
23 -102 23 -37 0 -71 4 -74 10 -3 5 2 21 12 36 17 27 51 102 79 179 18 49 11
83 -19 90 -39 9 -181 22 -213 20 -17 -2 -52 -12 -77 -23 -64 -28 -63 -35 17
-175 15 -26 29 -55 31 -65 2 -9 4 -17 6 -17 1 0 2 -21 3 -47 1 -42 -1 -48 -19
-50 -26 -2 -58 1 -63 6 -6 6 -30 204 -32 261 -3 82 -2 85 30 96 41 15 39 33
-2 25 -33 -6 -33 -6 -33 34 0 22 1 40 3 40 10 0 28 -27 24 -38 -5 -17 23 -15
38 3 7 8 19 15 26 15 8 0 14 5 14 11 0 7 -12 8 -32 4 -25 -5 -29 -4 -18 4 27
19 67 13 73 -10 4 -13 10 -18 17 -14 17 11 6 91 -15 115 -21 24 -73 27 -81 5
-4 -8 -11 -15 -16 -15 -6 0 -17 -8 -24 -17 -12 -16 -13 -15 -15 12 -1 17 -2
45 -4 62 -5 55 20 64 160 58 55 -3 123 -11 150 -18z m-998 -253 c-8 -8 -148
-43 -202 -51 -22 -3 -43 -10 -47 -17 -6 -8 -10 -8 -16 1 -6 10 -31 9 -117 -2
-61 -8 -131 -15 -157 -15 -29 0 -48 -5 -48 -11 0 -11 13 -11 205 5 l60 5 -65
-18 c-36 -10 -90 -28 -120 -40 -65 -25 -60 -24 -60 -7 0 58 -99 32 -143 -37
-25 -39 -33 -44 -90 -56 -34 -7 -77 -17 -94 -21 -18 -5 -33 -5 -33 -2 0 13 39
32 54 26 16 -6 114 22 130 37 20 18 -2 18 -52 -1 -30 -12 -63 -18 -76 -14 -13
3 -27 1 -30 -5 -11 -17 -26 -13 -26 7 0 18 5 19 92 25 28 2 60 12 75 23 16 11
44 26 63 34 43 16 60 30 37 30 -20 0 -63 -18 -97 -41 -14 -9 -58 -19 -97 -23
-61 -6 -73 -5 -73 7 0 15 45 29 139 43 24 3 62 14 85 24 27 12 90 22 191 30
83 6 161 13 175 16 14 2 52 7 85 10 33 4 92 14 130 24 70 18 134 25 122 14z
m959 -33 c-3 -5 8 -11 25 -13 16 -3 32 -1 35 3 8 14 34 -2 34 -22 0 -12 -12
-21 -37 -29 -52 -15 -205 -23 -221 -12 -16 11 -5 42 14 42 8 0 14 7 14 16 0
13 7 15 33 10 17 -3 39 -1 47 4 19 12 63 13 56 1z m-956 -201 l0 -170 -66 0
c-57 0 -65 2 -60 18 3 9 6 35 8 57 3 39 2 40 -33 43 -19 2 -56 -6 -83 -18 -28
-11 -69 -20 -100 -20 -48 0 -52 2 -63 30 -8 22 -18 30 -36 30 -24 0 -115 76
-103 87 12 12 122 54 156 59 19 3 53 10 75 16 21 5 71 9 110 7 137 -5 188 0
181 16 -3 8 -1 15 4 15 6 0 10 -67 10 -170z m1040 111 c-9 -18 -24 -23 -135
-45 -11 -2 -4 -4 15 -5 19 0 50 3 68 8 25 8 32 7 32 -5 0 -8 -6 -14 -14 -14
-8 0 -13 -8 -12 -17 1 -14 -9 -20 -39 -24 -38 -6 -38 -6 -7 -8 17 0 32 -5 32
-11 0 -5 -15 -11 -32 -11 -24 -1 -27 -3 -10 -6 24 -5 25 -8 12 -38 -7 -17 -9
-17 -9 -2 -1 20 -41 24 -41 5 -1 -7 -9 -3 -19 10 -11 12 -23 22 -28 22 -14 0
-51 54 -74 106 l-19 46 22 -6 c13 -3 61 -6 108 -7 68 -1 78 -3 50 -10 -32 -7
-31 -8 12 -5 26 2 54 11 63 20 23 22 38 21 25 -3z m-1631 -33 c5 -13 32 -44
60 -69 l52 -47 -22 -36 c-11 -20 -26 -33 -31 -30 -15 9 -28 -16 -28 -56 -1
-31 -2 -33 -10 -12 -6 14 -6 32 1 48 12 34 2 45 -18 19 -10 -14 -13 -32 -9
-57 4 -23 2 -38 -4 -38 -16 0 -24 51 -11 71 13 22 15 73 2 65 -5 -3 -14 -26
-20 -51 -6 -25 -14 -45 -17 -45 -6 0 -2 27 12 100 5 23 4 24 -9 7 -21 -25 -31
-110 -17 -136 6 -12 9 -21 6 -21 -2 0 -11 -3 -19 -6 -12 -4 -14 6 -12 65 2 38
8 86 15 106 14 44 5 60 -10 19 -18 -45 -29 -116 -24 -149 4 -29 4 -29 -6 -5
-15 34 -3 115 26 173 24 49 16 67 -10 20 -9 -16 -15 -21 -16 -13 0 23 28 59
64 81 40 24 45 24 55 -3z m-167 -130 c-4 -18 -7 -52 -7 -75 0 -40 -1 -42 -25
-36 -26 7 -28 7 -97 -3 l-43 -6 0 59 0 60 68 15 c108 25 113 24 104 -14z m-92
-164 c-13 -32 -13 -44 0 -44 6 0 10 7 10 15 0 8 7 15 15 15 18 0 19 -23 3
-127 -13 -91 -33 -132 -55 -110 -16 16 -31 123 -16 114 6 -4 12 17 15 56 3 35
11 73 17 85 16 30 23 28 11 -4z m139 -18 c36 -23 76 -46 87 -50 40 -12 37
-106 -3 -106 -16 1 -16 2 -2 13 19 14 21 47 3 47 -13 0 -24 -22 -24 -51 0 -10
-5 -19 -11 -19 -8 0 -10 12 -6 35 3 19 2 37 -3 40 -5 3 -12 -15 -16 -40 -9
-63 -25 -67 -17 -5 3 30 2 50 -4 50 -5 0 -10 -6 -10 -12 0 -7 -4 -34 -8 -60
-8 -54 0 -59 53 -33 34 17 69 20 121 9 25 -5 37 -3 45 8 20 27 55 30 129 13
40 -9 82 -18 95 -21 47 -9 16 -35 -81 -68 -43 -14 -50 -15 -63 -1 -20 20 -48
19 -69 -1 -18 -18 -64 -15 -138 11 -23 8 -53 15 -67 15 -42 1 -50 11 -40 55
14 58 12 105 -3 105 -9 0 -13 -17 -15 -52 -1 -29 -6 -66 -12 -83 -7 -23 -8
-12 -4 49 4 56 3 76 -5 72 -6 -4 -11 -2 -11 3 0 6 5 11 10 11 6 0 10 7 10 16
0 8 -5 12 -10 9 -7 -4 -9 10 -8 39 2 25 5 46 7 46 2 0 34 -20 70 -44z m1515
-7 c-8 -28 -31 -85 -50 -127 -19 -41 -31 -79 -27 -82 5 -4 23 -13 42 -20 26
-11 36 -11 39 -2 5 16 22 15 22 -2 0 -8 11 -13 30 -12 31 1 39 11 18 19 -7 3
-3 6 9 6 16 1 23 -7 28 -29 5 -24 -3 -50 -40 -126 -25 -52 -52 -97 -60 -101
-25 -9 -17 -34 16 -45 16 -6 28 -12 26 -15 -3 -2 -210 -8 -461 -13 -406 -8
-459 -7 -488 7 -17 9 -44 16 -60 17 -15 1 -28 4 -28 8 0 4 -15 12 -32 17 l-33
9 32 1 c39 1 83 17 83 30 0 18 -74 30 -198 31 -170 1 -246 -21 -185 -54 28
-15 28 -15 -24 -16 -29 0 -53 3 -53 7 0 3 28 31 62 62 41 38 68 55 83 53 12
-2 28 4 35 12 28 34 191 15 240 -28 8 -8 25 -16 38 -18 22 -3 23 0 28 95 5 88
3 102 -16 135 -12 20 -24 54 -26 76 -3 23 -7 46 -9 53 -2 7 0 15 5 18 6 4 10
19 10 36 l0 29 71 0 c61 0 70 -2 67 -17 -4 -29 11 -43 45 -43 29 0 32 -3 32
-31 0 -42 39 -72 97 -73 31 -1 45 -6 50 -18 4 -10 29 -28 55 -40 34 -17 49
-31 54 -51 9 -32 -4 -76 -23 -81 -7 -2 -40 -10 -72 -17 -73 -18 -92 -41 -56
-69 25 -19 74 -25 200 -24 98 2 106 3 119 28 8 14 20 22 30 19 9 -2 24 2 35
10 15 11 17 17 7 35 -7 13 -9 27 -5 33 3 6 -2 19 -11 29 -13 14 -16 28 -11 55
6 32 10 35 42 35 39 0 94 27 94 46 0 32 -14 73 -22 68 -21 -13 16 40 43 64 16
13 29 32 29 43 0 16 7 19 44 19 l45 0 -15 -51z m454 -246 l-3 -298 -30 2 c-16
1 -85 3 -152 4 -68 1 -123 3 -123 5 0 2 15 8 33 14 28 8 28 9 5 6 -24 -3 -28
0 -28 21 0 13 7 26 16 30 9 3 11 9 6 12 -6 3 -7 23 -3 46 9 56 39 60 64 7 10
-21 32 -54 48 -73 34 -39 36 -49 12 -50 -10 0 -13 -3 -7 -5 6 -3 21 -1 33 4
l23 8 -27 32 c-53 63 -83 200 -54 253 7 14 7 29 -2 53 -11 31 -10 38 21 92 75
133 76 134 125 134 l45 0 -2 -297z m-227 268 c13 -4 22 -12 20 -17 -3 -5 8
-12 25 -15 16 -4 24 -7 17 -8 -7 -1 -10 -8 -6 -17 5 -14 2 -16 -23 -10 -23 5
-25 4 -11 -4 9 -6 17 -15 17 -20 0 -5 -8 -6 -17 -3 -16 6 -16 5 -5 -10 17 -20
7 -38 -16 -30 -15 5 -15 4 1 -9 17 -13 17 -15 3 -27 -8 -7 -19 -10 -24 -7 -15
9 -37 -25 -34 -53 3 -25 2 -26 -13 -6 -9 11 -14 29 -10 42 3 12 1 23 -3 25 -7
3 -92 173 -92 184 0 8 146 -5 171 -15z m-1651 -281 c41 -11 85 -20 98 -20 24
0 27 -24 12 -85 -6 -24 -8 -26 -9 -7 -2 37 -21 25 -21 -14 0 -21 -4 -33 -10
-29 -5 3 -10 17 -10 31 0 45 -20 24 -22 -23 -1 -48 -1 -48 -5 -8 -6 61 -23 68
-23 10 0 -28 -5 -57 -10 -65 -7 -11 -10 -1 -10 36 0 63 -10 114 -21 114 -5 0
-6 -33 -3 -72 3 -41 0 -86 -5 -103 -10 -26 -10 -23 -7 25 5 67 -9 162 -30 201
-17 34 -19 34 76 9z m1580 -111 c-10 -57 -22 -119 -26 -136 -7 -33 -18 -42
-29 -23 -3 6 -14 10 -24 10 -9 0 -25 6 -35 13 -17 12 -16 16 12 58 32 48 74
137 86 182 6 24 9 26 20 14 12 -12 12 -29 -4 -118z m-517 57 c-4 -26 -3 -28
10 -17 8 6 17 8 20 4 3 -7 3 -49 -2 -76 0 -5 -11 -1 -22 7 -17 11 -26 12 -40
3 -14 -9 -21 -9 -31 1 -19 19 -30 14 -23 -10 6 -22 6 -22 -14 2 -18 21 -22 23
-31 10 -6 -10 -10 -11 -10 -3 0 13 -21 12 -52 -1 -22 -10 -63 -4 -62 9 2 17
46 34 105 40 46 5 58 10 67 29 8 18 16 22 41 18 20 -3 31 0 31 8 0 8 -9 10
-25 6 -18 -5 -25 -2 -25 8 0 20 53 25 61 6 3 -8 4 -28 2 -44z m-1152 7 c13
-46 16 -219 4 -231 -13 -13 -45 37 -60 93 -18 70 -19 95 -4 95 7 0 9 13 5 38
-5 34 -5 35 6 12 l12 -25 4 33 c5 45 17 40 33 -15z m-48 -227 l21 -29 -64 6
c-34 4 -78 7 -96 7 -32 0 -34 2 -34 34 0 39 15 55 50 52 26 -2 50 10 50 25 0
5 -10 9 -22 9 -19 1 -17 4 12 18 l35 17 14 -55 c7 -30 23 -68 34 -84z m596 78
c10 -10 -11 -15 -78 -21 -79 -7 -98 -28 -33 -38 20 -3 45 -10 54 -16 10 -5 30
-9 45 -9 16 0 33 -4 39 -8 7 -4 -58 -8 -143 -9 -128 -1 -154 1 -149 13 3 8 -1
13 -12 12 -9 -1 -36 0 -59 0 -50 2 -59 22 -10 22 17 0 38 4 46 9 18 12 5 31
-21 31 -32 0 -13 12 29 19 39 7 285 2 292 -5z"/>
</g>
</svg>
