<?xml version="1.0" standalone="no"?>
<!DOCTYPE svg PUBLIC "-//W3C//DTD SVG 20010904//EN"
 "http://www.w3.org/TR/2001/REC-SVG-20010904/DTD/svg10.dtd">
<svg version="1.0" xmlns="http://www.w3.org/2000/svg"
 width="233.000000pt" height="400.000000pt" viewBox="0 0 233.000000 400.000000"
 preserveAspectRatio="xMidYMid meet">
<metadata>
Created by potrace 1.15, written by Peter Selinger 2001-2017
</metadata>
<g transform="translate(0.000000,400.000000) scale(0.100000,-0.100000)"
fill="#000000" stroke="none">
<path d="M223 3960 c-100 -3 -184 -7 -187 -10 -3 -3 -6 -887 -7 -1965 l-1
-1959 189 0 c103 0 602 2 1108 5 l920 5 -2 1169 c-3 2517 -4 2740 -12 2753 -7
12 -163 13 -917 10 -500 -1 -991 -5 -1091 -8z m968 -20 c13 0 19 -7 19 -24 0
-35 10 -56 26 -56 12 0 12 -4 4 -21 -7 -11 -9 -26 -7 -33 10 -25 -11 -39 -63
-43 l-51 -4 7 38 c8 48 11 53 32 53 9 0 12 3 7 8 -14 10 -195 3 -195 -9 0 -5
7 -9 15 -9 11 0 15 -11 15 -40 0 -33 -3 -40 -20 -40 -11 0 -20 -4 -20 -10 0
-6 40 -10 101 -10 l102 0 -6 -49 c-5 -44 -3 -53 18 -73 14 -13 25 -30 25 -39
0 -8 6 -23 13 -33 13 -17 14 -17 31 -1 20 21 34 12 16 -10 -10 -12 -12 -48 -8
-145 3 -72 3 -130 -1 -130 -7 0 -4 -113 5 -185 3 -22 6 -299 7 -615 1 -316 6
-587 11 -602 5 -19 3 -41 -10 -74 -14 -38 -15 -50 -5 -66 8 -12 9 -24 3 -31
-5 -7 -20 -46 -33 -87 -13 -41 -31 -84 -41 -96 -10 -11 -18 -25 -18 -30 0 -5
-14 -27 -31 -48 -27 -31 -37 -37 -61 -34 -19 3 -33 -1 -41 -11 -12 -16 -30
-28 -118 -75 -53 -29 -73 -50 -66 -71 4 -8 -4 -22 -18 -34 -14 -10 -25 -28
-25 -39 0 -27 -21 -33 -43 -13 -17 14 -20 14 -32 -2 -11 -16 -15 -13 -39 24
-32 48 -56 48 -70 -1 -10 -35 -10 -35 -14 -7 -2 16 -10 31 -18 34 -8 3 -21 17
-28 31 l-13 26 -1 -27 c0 -15 4 -24 9 -21 5 3 9 1 9 -5 0 -5 -6 -11 -12 -14
-8 -2 -9 -8 -4 -13 5 -5 11 -4 13 4 7 19 23 14 23 -7 0 -14 -6 -17 -28 -15
-15 2 -19 1 -9 -2 9 -3 17 -9 17 -14 0 -11 -28 -20 -44 -14 -8 3 -24 1 -35 -6
-12 -6 -21 -7 -21 -2 0 14 28 35 38 29 4 -3 13 3 20 14 7 11 8 19 2 19 -5 0
-10 -4 -10 -10 0 -5 -4 -10 -10 -10 -16 0 -12 30 5 36 8 4 15 12 15 20 0 18
-16 18 -23 0 -3 -8 -15 -19 -25 -25 -18 -9 -19 -8 -15 12 6 21 5 21 -14 -3
-22 -28 -28 -87 -10 -108 8 -11 7 -16 -6 -23 -9 -6 -17 -16 -17 -24 0 -18 -87
-18 -149 1 -25 8 -69 14 -97 14 -38 0 -55 5 -69 20 -13 15 -22 17 -36 9 -19
-9 -19 25 -19 1418 l0 1428 178 -2 c97 -1 184 -2 192 -2 12 -1 14 -12 11 -52
-2 -36 2 -55 13 -68 12 -14 14 -24 6 -52 -17 -57 -12 -78 29 -127 22 -26 41
-58 43 -72 2 -16 12 -28 31 -34 37 -13 61 2 65 42 4 44 24 57 55 38 22 -15 25
-15 41 3 10 11 22 38 27 60 5 23 17 50 27 61 l17 21 5 -23 c3 -13 19 -29 35
-37 25 -12 30 -12 40 3 7 9 16 16 21 16 14 0 63 108 71 153 5 30 10 37 29 37
13 0 28 9 34 20 8 15 23 20 68 23 31 1 63 2 70 0 8 -2 22 -3 33 -3z m760 -3
c-6 -8 -8 -16 -5 -19 3 -4 0 -31 -8 -62 l-13 -57 -15 47 c-16 51 -46 79 -70
64 -12 -7 -10 -12 7 -27 24 -21 43 -72 43 -115 0 -34 -16 -29 -31 9 -8 21 -12
23 -24 13 -11 -9 -13 -25 -9 -64 5 -40 3 -55 -9 -65 -14 -11 -17 -9 -23 15 -4
16 -2 35 5 46 10 17 9 20 -8 25 -23 6 -28 32 -10 50 7 7 9 19 5 28 -5 14 -9
15 -21 5 -13 -11 -15 -8 -15 15 0 18 11 37 32 57 42 39 62 47 127 47 44 1 51
-1 42 -12z m87 6 c-51 -99 -62 -150 -38 -178 7 -8 22 -15 34 -15 26 0 62 -58
46 -74 -14 -14 -13 -99 2 -114 9 -9 5 -24 -15 -66 -32 -64 -35 -121 -9 -134 9
-5 23 -7 30 -5 12 5 12 -9 -4 -68 -7 -25 16 -67 38 -73 20 -5 47 6 81 33 16
13 17 -4 18 -330 0 -189 3 -633 5 -987 3 -445 1 -642 -6 -642 -6 0 -13 7 -17
16 -3 8 -12 13 -19 10 -9 -3 -16 4 -20 19 -7 30 -9 30 -36 5 -28 -26 -42 -25
-83 6 -18 14 -36 21 -39 16 -3 -6 11 -22 31 -37 26 -20 46 -28 73 -27 31 2 39
-2 44 -21 6 -21 7 -21 20 -4 9 11 17 14 20 8 4 -6 13 -8 21 -4 18 6 20 -8 3
-25 -8 -8 -8 -15 0 -25 17 -20 12 -287 -5 -294 -7 -3 -13 -14 -13 -25 0 -10
-4 -17 -9 -14 -4 3 -6 17 -3 31 3 20 1 24 -12 19 -34 -13 -13 -79 26 -79 l23
0 2 -295 c1 -162 4 -335 6 -384 6 -133 12 -126 -107 -126 -68 0 -106 4 -115
12 -10 10 -15 10 -18 1 -3 -8 -47 -11 -146 -11 -78 0 -132 3 -119 5 35 7 24
39 -12 36 -35 -3 -43 -10 -28 -25 21 -21 13 -24 -60 -20 -48 3 -76 9 -81 18
-10 17 -34 18 -39 2 -2 -6 -31 -13 -65 -16 -55 -4 -62 -2 -68 17 -8 28 -32 27
-38 -1 l-4 -23 -8 23 c-9 26 -23 29 -32 5 -5 -14 -8 -13 -14 5 -11 30 -29 28
-29 -3 0 -21 -5 -25 -30 -25 -17 0 -33 7 -39 17 -7 14 -12 15 -24 4 -13 -10
-16 -9 -19 5 -3 16 -5 16 -22 -2 -18 -17 -35 -19 -164 -19 -104 0 -149 3 -158
12 -17 18 -35 16 -28 -2 5 -11 -1 -15 -24 -15 -17 0 -34 5 -37 11 -4 6 -20 7
-38 3 -53 -11 -141 -12 -154 -2 -9 7 -17 7 -27 -1 -11 -9 -15 -9 -18 1 -4 11
-8 11 -20 0 -12 -9 -18 -10 -23 -2 -5 8 -11 8 -20 0 -21 -17 -65 -20 -65 -4 0
15 -26 19 -32 5 -1 -4 -60 -11 -130 -15 l-126 -6 -7 31 c-4 17 -3 35 1 39 5 5
52 -2 103 -16 91 -23 96 -23 115 -6 12 9 38 26 59 36 39 20 46 39 23 65 -20
23 -86 205 -86 238 0 15 5 35 10 43 6 10 4 22 -6 37 -13 21 -12 27 6 65 11 23
20 48 20 55 0 7 9 13 20 13 11 0 20 5 20 10 0 6 -4 10 -10 10 -18 0 -11 31 22
92 39 73 32 84 -65 100 -62 10 -169 2 -219 -17 -11 -4 -14 4 -13 36 2 67 41
88 150 80 11 -1 43 1 70 5 28 3 57 5 65 5 66 -5 111 -1 139 13 18 10 51 20 74
22 22 3 50 10 61 17 23 13 48 18 84 17 26 0 118 54 126 75 3 8 12 15 21 15 11
0 14 6 9 24 -4 18 -1 27 15 35 13 8 23 26 27 51 5 31 12 41 38 51 17 7 40 20
51 29 11 10 44 23 74 30 58 14 125 64 144 110 10 25 10 25 17 -10 9 -49 15
-58 66 -81 24 -12 44 -24 44 -28 0 -13 -52 -32 -71 -26 -29 10 -107 -36 -167
-98 -43 -45 -58 -77 -40 -88 9 -6 9 -11 -1 -23 -18 -22 -5 -54 41 -102 30 -31
36 -43 25 -47 -8 -3 -25 -24 -38 -46 -12 -23 -30 -41 -38 -41 -9 0 -25 -7 -35
-15 -19 -15 -19 -15 1 -57 27 -55 73 -173 73 -186 0 -6 6 -13 13 -16 9 -3 7
-9 -5 -19 -23 -18 -23 -45 -1 -69 15 -17 15 -24 -1 -101 -19 -88 -35 -130 -74
-189 -20 -31 -22 -41 -12 -53 7 -8 18 -15 25 -15 7 0 41 -9 76 -21 42 -13 77
-19 104 -15 85 12 136 23 145 32 6 6 -3 29 -23 59 -30 46 -68 139 -72 175 -1
8 -5 37 -10 63 -5 34 -4 56 6 73 10 20 11 29 1 45 -11 16 -5 41 34 156 32 92
43 138 36 141 -7 2 -12 8 -12 13 0 5 10 5 23 0 12 -4 27 -6 34 -4 7 2 78 -17
159 -42 134 -43 173 -49 148 -26 -5 5 -79 30 -164 56 -309 93 -409 141 -410
199 0 12 -5 16 -15 12 -26 -9 -17 19 23 73 35 48 68 69 56 36 -4 -10 5 -20 30
-30 23 -10 33 -20 30 -29 -9 -22 55 -53 126 -61 80 -8 102 -14 95 -25 -3 -5
11 -12 30 -16 25 -4 57 -26 103 -68 37 -33 87 -70 110 -80 40 -18 43 -22 38
-49 -3 -17 0 -40 9 -58 9 -17 11 -29 5 -29 -6 0 -16 11 -22 25 -12 26 -23 31
-33 15 -7 -11 25 -59 40 -60 10 0 21 -19 61 -102 10 -21 25 -38 32 -38 7 0 11
-4 7 -10 -8 -12 30 -50 51 -50 8 0 23 7 31 16 14 13 14 20 4 36 -8 13 -10 34
-6 59 5 31 1 51 -24 103 -16 35 -31 81 -33 102 -3 33 0 39 22 45 14 4 48 7 76
8 63 1 118 23 139 54 23 35 17 188 -9 216 -11 12 -26 21 -33 21 -8 0 -26 9
-40 20 -14 11 -31 20 -37 20 -12 1 -66 45 -66 55 0 3 6 5 14 5 21 0 85 70 93
100 3 14 9 30 13 35 4 6 17 42 28 82 16 58 18 84 12 140 -12 102 -21 134 -34
126 -8 -5 -7 -2 1 8 40 49 -109 182 -230 204 -21 4 -40 11 -43 16 -3 5 -12 9
-19 9 -11 0 -13 -8 -9 -29 5 -21 0 -34 -17 -50 -12 -11 -31 -21 -40 -21 -10 0
-30 -5 -44 -12 -17 -7 -29 -8 -33 -2 -4 5 -19 17 -34 26 -19 13 -25 23 -21 38
5 20 33 29 33 11 0 -24 43 -22 80 3 l39 25 -2 -26 c-1 -14 4 -28 12 -31 11 -4
13 3 8 30 -7 45 3 59 41 60 30 1 31 2 35 57 3 31 5 71 6 90 0 35 -23 95 -46
119 -16 17 -17 29 0 35 6 3 -6 6 -28 8 -60 3 -63 4 -70 11 -4 4 -14 4 -22 1
-19 -7 -35 17 -22 33 7 9 7 58 0 151 -13 166 -21 678 -12 747 5 44 8 47 20 33
7 -10 20 -17 27 -17 9 0 14 -11 14 -29 0 -19 8 -36 23 -48 13 -10 29 -28 36
-41 7 -13 21 -22 36 -22 22 0 24 -3 15 -25 -12 -33 3 -77 25 -69 18 7 19 -10
4 -55 -9 -25 -8 -36 4 -55 20 -30 52 -38 70 -17 19 21 32 81 18 81 -5 0 -13
-16 -17 -35 -7 -39 -23 -41 -40 -6 -9 16 -9 30 -1 51 12 31 -3 60 -29 60 -15
0 -11 36 7 72 5 9 9 26 9 38 0 17 -4 20 -22 15 -13 -4 -28 -13 -34 -21 -10
-12 -13 -11 -17 8 -4 14 3 38 18 65 29 49 30 54 10 47 -31 -12 -14 5 35 35 48
30 66 29 54 -3 -3 -9 -2 -16 3 -16 5 0 24 -14 41 -31 24 -23 32 -40 32 -65 0
-36 -8 -42 -28 -22 -9 9 -15 9 -24 0 -8 -8 -5 -20 15 -50 31 -44 33 -52 11
-52 -12 0 -15 -6 -9 -22 3 -13 9 -33 12 -45 11 -45 29 -22 25 30 -1 10 3 27 8
38 8 13 7 25 0 39 -9 17 -7 26 10 47 16 20 19 34 14 57 -4 17 -6 48 -6 68 1
20 -3 40 -8 43 -6 3 -7 17 -4 30 6 24 -20 85 -36 85 -13 0 -13 -22 0 -56 13
-34 6 -56 -16 -47 -13 5 -15 14 -9 50 6 40 4 44 -12 41 -10 -2 -19 -12 -21
-23 -7 -49 -13 -63 -28 -69 -14 -6 -16 1 -12 46 3 29 9 61 13 71 5 12 3 17 -8
17 -9 0 -19 -9 -22 -20 -7 -22 -25 -27 -25 -7 0 6 6 24 14 39 16 31 11 41 -15
27 -16 -8 -19 -6 -19 14 0 13 9 33 21 46 20 21 20 51 -1 51 -5 0 -10 10 -10
23 1 21 1 21 21 -6 20 -27 21 -27 50 -10 16 10 32 26 35 38 7 19 32 44 46 45
3 0 0 -14 -9 -30 -8 -17 -12 -42 -9 -55 6 -22 5 -23 -24 -12 -38 14 -47 4 -20
-23 13 -13 20 -30 17 -40 -3 -11 5 -28 19 -41 13 -12 24 -31 24 -41 0 -10 7
-18 15 -18 22 0 19 43 -5 70 -11 13 -20 27 -20 33 0 5 9 -2 20 -16 12 -15 27
-24 35 -20 11 4 15 -2 15 -22 0 -14 5 -36 12 -48 6 -12 12 -46 13 -76 2 -44 7
-57 30 -77 32 -27 37 -28 53 -12 19 19 15 40 -7 33 -14 -4 -23 0 -30 14 -14
26 -14 84 0 98 8 8 5 17 -11 33 -19 19 -21 30 -17 64 4 23 4 52 0 64 -4 18 -9
20 -24 11 -11 -5 -17 -14 -14 -19 3 -6 2 -18 -4 -27 -8 -16 -11 -15 -20 10 -6
16 -11 37 -11 48 0 16 3 18 18 10 11 -6 24 -6 32 -1 9 5 19 5 27 -2 7 -5 20
-7 29 -4 13 5 14 9 4 21 -7 8 -9 22 -6 31 4 9 1 23 -5 30 -16 20 -39 -1 -39
-35 l0 -26 -18 23 c-26 34 -26 99 -1 166 12 34 18 67 15 82 -6 22 -3 24 25 24
17 0 29 -3 27 -7z m109 -13 c18 -8 37 -26 42 -40 9 -21 9 -123 1 -140 -1 -3
-2 -27 -1 -55 2 -27 -2 -63 -8 -78 -8 -22 -7 -44 4 -93 19 -85 20 -158 0 -174
-10 -9 -13 -23 -10 -49 7 -46 -7 -70 -29 -52 -22 18 -20 67 4 120 15 32 17 47
9 57 -14 17 -39 7 -39 -15 0 -10 -3 -21 -7 -24 -10 -11 -33 14 -33 37 0 25 37
108 52 117 7 5 3 15 -11 30 -18 19 -22 32 -18 62 3 21 13 47 22 57 19 21 11
45 -11 36 -17 -6 -19 35 -4 63 6 13 5 24 -4 37 -12 15 -16 16 -30 5 -9 -7 -16
-19 -16 -26 0 -7 -7 -18 -15 -25 -12 -10 -15 -7 -21 15 -4 18 2 45 22 90 32
69 40 73 101 45z m-1657 -25 c-7 -19 -3 -36 18 -77 30 -60 40 -70 65 -62 14 4
16 2 8 -18 -17 -46 22 -95 54 -68 18 15 19 7 5 -21 -6 -10 -17 -19 -24 -19
-17 0 -26 -22 -26 -62 0 -23 -4 -29 -17 -26 -19 4 -21 21 -9 98 8 56 -11 92
-41 74 -10 -6 -18 -17 -18 -25 0 -8 -4 -15 -10 -16 -12 -3 -11 87 0 131 7 26
6 27 -13 17 -16 -8 -21 -7 -26 4 -7 19 3 76 17 92 15 20 27 5 17 -22z m186 16
c4 -9 8 -32 8 -51 1 -26 6 -36 20 -38 11 -2 28 -14 37 -26 25 -29 24 -41 -2
-15 -19 19 -23 20 -37 5 -14 -13 -14 -18 -1 -33 24 -29 14 -133 -12 -133 -7 0
-10 15 -7 41 3 35 0 44 -20 57 -20 13 -25 13 -32 1 -16 -25 -22 -1 -10 36 6
20 9 42 6 50 -8 22 -44 18 -51 -5 -13 -39 -28 -21 -23 28 9 83 19 97 71 98 33
1 48 -4 53 -15z m210 2 c7 -10 14 -35 14 -56 0 -34 -2 -37 -24 -31 -28 7 -41
-17 -26 -47 14 -25 2 -89 -15 -83 -24 10 -34 49 -23 93 8 32 8 45 -1 54 -10 9
-17 7 -31 -11 -39 -47 -55 8 -20 66 18 29 24 32 66 32 33 0 51 -5 60 -17z
m725 -151 c-10 -15 -30 -46 -45 -70 -15 -24 -35 -46 -44 -49 -9 -3 -27 -15
-39 -26 -12 -10 -26 -16 -32 -12 -17 10 -13 -6 9 -42 23 -39 35 -42 26 -8 -5
19 -3 23 8 19 8 -3 17 3 20 14 4 11 17 27 31 36 13 8 38 43 56 76 35 63 54 72
54 27 1 -20 -4 -27 -18 -27 -15 0 -18 -5 -13 -25 5 -20 3 -23 -10 -18 -13 5
-15 0 -12 -28 2 -23 -1 -33 -9 -31 -9 1 -13 -10 -13 -34 0 -31 -3 -35 -20 -29
-34 11 -44 -5 -20 -30 12 -13 20 -33 18 -44 l-3 -21 -31 22 c-24 17 -91 106
-112 149 -6 13 31 19 44 8 18 -15 29 12 17 38 -5 10 -6 32 -2 48 3 17 7 23 8
14 0 -9 7 -22 15 -28 19 -16 63 5 73 33 7 21 9 28 12 74 1 22 2 22 26 6 24
-16 24 -16 6 -42z m-221 -272 c0 -6 -4 -10 -8 -10 -5 0 -8 -16 -8 -35 1 -24 9
-40 24 -51 12 -8 22 -21 21 -27 0 -9 -2 -9 -6 1 -2 6 -9 12 -14 12 -15 0 -10
-22 9 -44 17 -21 17 -21 -6 -2 -26 22 -42 14 -24 -14 6 -11 9 -26 6 -35 -3 -8
-2 -15 4 -15 6 0 15 -14 21 -31 13 -39 14 -52 2 -45 -15 10 -18 -15 -13 -107
3 -55 11 -101 22 -122 11 -22 16 -49 14 -77 -5 -55 2 -88 20 -88 9 0 12 -7 9
-21 -4 -12 2 -31 14 -48 22 -29 63 -110 63 -123 0 -5 -4 -6 -10 -3 -13 8 -5
-74 9 -88 13 -13 14 -27 2 -27 -5 0 -14 13 -21 30 -14 35 -35 54 -49 46 -6 -4
0 -21 14 -43 28 -40 34 -73 11 -54 -22 19 -31 -7 -10 -30 23 -25 34 -24 34 4
l1 22 19 -24 c13 -15 17 -28 11 -35 -5 -6 -8 -32 -6 -58 3 -40 0 -48 -16 -53
-11 -4 -27 -19 -37 -33 -9 -15 -23 -33 -30 -40 -13 -14 -13 -114 0 -106 3 2 9
-18 13 -46 4 -31 12 -50 20 -50 26 0 24 -29 -3 -48 -27 -18 -87 -45 -107 -48
-5 0 -16 -2 -23 -2 -7 -1 -24 -13 -37 -27 l-23 -26 -8 33 c-4 18 -7 136 -8
261 l-2 228 28 6 c15 3 28 12 28 20 0 11 -7 13 -30 8 -19 -4 -30 -3 -30 4 0 6
11 11 25 11 14 0 25 4 25 8 0 17 -13 21 -31 11 -24 -12 -24 -6 -2 17 13 13 14
19 5 22 -18 6 -15 62 4 62 8 0 12 5 9 10 -4 6 -11 8 -16 5 -5 -4 -9 -2 -9 4 0
5 6 12 13 15 10 5 10 7 0 12 -9 4 -13 37 -13 115 0 90 3 109 15 109 21 0 19
20 -2 20 -16 1 -16 2 -3 13 9 7 14 24 12 45 -3 27 1 34 25 44 l28 11 -30 7
-30 6 31 8 c28 6 31 11 29 39 -2 24 -7 32 -21 32 -41 1 -63 16 -64 43 0 15 -2
54 -4 87 -1 33 2 65 7 72 5 7 6 17 2 23 -3 5 0 10 7 10 21 0 21 50 0 51 -16 1
-16 2 1 6 9 2 17 11 17 20 0 9 -6 13 -15 9 -8 -3 -15 -1 -15 4 0 6 5 10 10 10
6 0 15 10 20 23 8 20 9 19 9 -10 1 -18 5 -33 10 -33 12 0 23 48 16 71 -4 11
-2 19 4 19 6 0 11 5 11 10 0 6 -7 10 -15 10 -18 0 -19 7 -2 24 13 15 47 4 47
-14z m235 -1348 c26 5 45 -13 45 -46 0 -14 5 -37 10 -52 6 -15 8 -34 5 -43 -7
-22 -66 -61 -92 -61 -22 0 -50 26 -39 37 3 4 13 -2 21 -13 13 -18 14 -18 15
-1 0 10 5 15 10 12 6 -3 10 -1 10 5 0 7 -14 10 -36 8 -33 -2 -37 0 -51 32 -8
19 -16 53 -18 74 -5 51 14 67 63 54 19 -5 45 -8 57 -6z m-215 -243 c0 -8 4 -8
13 -1 9 8 12 2 13 -23 0 -24 13 -47 43 -84 24 -28 48 -51 54 -51 6 0 0 12 -14
28 l-24 27 30 -25 c17 -14 35 -28 40 -33 6 -4 2 -5 -9 -1 -16 6 -17 5 -6 -16
7 -12 19 -24 28 -27 19 -4 21 -44 8 -100 -5 -24 -13 -33 -27 -33 -20 0 -20 0
0 29 11 15 19 30 16 32 -2 2 -24 3 -49 1 -31 -3 -46 -9 -46 -18 0 -8 3 -13 8
-11 7 2 12 -6 12 -22 0 -5 -11 -11 -23 -15 -13 -3 -29 -16 -36 -28 -11 -23
-11 -23 -5 2 21 78 -19 144 -95 156 -23 4 -44 11 -47 16 -3 5 5 6 19 3 29 -8
46 11 18 20 -29 9 -43 30 -36 58 5 18 12 23 26 20 10 -3 19 -1 19 5 0 6 -7 12
-16 14 -23 5 39 88 66 88 11 0 20 -5 20 -11z m376 -33 c-22 -34 -20 -43 4 -21
11 10 20 24 20 31 0 7 5 16 12 20 8 5 9 2 5 -9 -8 -22 9 -22 22 1 10 16 10 16
11 -2 0 -15 3 -16 15 -6 12 10 20 8 43 -11 15 -13 37 -37 47 -54 l20 -29 -42
-39 c-23 -21 -46 -36 -51 -33 -18 11 -75 -39 -91 -81 -20 -53 -19 -51 -71 -58
-68 -8 -104 -16 -117 -27 -10 -8 -13 -3 -13 18 0 21 3 25 9 15 7 -10 11 -2 16
30 4 24 5 50 3 58 -2 7 3 16 10 18 8 3 10 -1 5 -13 -4 -12 -2 -15 8 -12 8 3
14 11 14 19 0 8 7 19 15 26 8 6 12 15 7 19 -4 4 5 20 20 36 15 15 23 28 19 28
-15 0 -86 -64 -86 -77 0 -8 -4 -11 -10 -8 -14 8 -13 35 1 35 17 0 127 98 146
131 9 15 19 26 21 24 3 -2 -3 -16 -12 -29z m-199 -510 c20 -40 63 -86 80 -86
7 0 12 -3 11 -7 -1 -5 3 -18 10 -30 11 -19 10 -23 -2 -23 -8 0 -18 -5 -22 -11
-5 -9 1 -10 22 -5 19 5 26 4 19 -2 -5 -6 -21 -12 -34 -14 -18 -2 -25 -10 -28
-30 l-4 -27 48 14 c57 18 53 17 53 5 0 -5 -9 -10 -19 -10 -11 0 -28 -11 -39
-25 -11 -14 -25 -25 -31 -25 -6 0 -11 -5 -11 -10 0 -6 12 -8 28 -4 21 4 24 3
12 -5 -23 -17 -50 -13 -50 7 -1 22 -23 52 -40 52 -7 0 -10 -8 -7 -19 4 -17 2
-18 -25 -9 -39 14 -86 75 -69 91 10 9 11 9 6 -4 -6 -16 35 -69 54 -69 24 0 18
21 -17 59 -37 40 -62 52 -62 29 0 -6 -9 -3 -20 7 -36 32 -33 8 7 -52 27 -41
51 -64 83 -81 36 -17 39 -21 15 -16 -37 9 -99 60 -115 97 -21 47 -140 122
-140 88 0 -4 18 -20 40 -35 41 -27 80 -79 80 -106 0 -8 -12 6 -27 32 -20 36
-39 54 -84 78 -33 17 -59 28 -59 24 0 -5 -5 -3 -12 4 -7 7 -21 12 -33 12 -19
1 -19 2 -3 14 21 16 114 20 123 6 9 -15 38 -12 32 4 -4 10 5 13 36 10 58 -3
89 5 83 23 -3 8 4 18 17 24 13 6 28 24 34 40 14 36 37 30 60 -15z m447 -276
c16 -16 19 -32 18 -87 -1 -42 -7 -73 -16 -82 -19 -19 -189 -34 -252 -22 -33 6
-51 6 -55 -1 -4 -6 -12 -2 -18 11 -9 16 -18 20 -36 15 -17 -4 -27 -1 -31 9 -3
9 -11 14 -18 11 -7 -3 -24 9 -39 26 -15 16 -32 30 -37 30 -6 0 -10 4 -10 8 0
5 14 6 31 4 17 -3 47 0 67 6 140 40 202 44 233 17 14 -13 23 -15 30 -8 8 8 4
15 -12 27 -26 17 -21 25 26 51 36 19 91 12 119 -15z m-1945 -41 c12 -20 19
-21 75 -16 34 3 80 1 101 -5 22 -5 63 -10 91 -11 44 -1 50 -3 42 -16 -8 -13
-36 -17 -150 -19 -98 -2 -150 -8 -169 -18 -15 -8 -30 -14 -32 -14 -5 0 2 87 8
108 6 18 18 15 34 -9z m1046 -249 c3 -5 34 -7 68 -5 42 3 57 2 47 -5 -8 -5
-34 -10 -58 -10 -28 0 -41 -4 -37 -10 4 -7 24 -8 51 -4 28 4 44 2 44 -4 0 -12
-55 -26 -69 -18 -5 4 -12 2 -16 -4 -4 -6 9 -10 34 -10 23 0 41 -4 41 -10 0 -5
-16 -10 -35 -10 -19 0 -35 -4 -35 -10 0 -5 11 -10 25 -10 14 0 25 -4 25 -10 0
-5 -9 -10 -20 -10 -11 0 -20 -5 -20 -11 0 -6 6 -9 14 -6 21 8 25 -1 15 -36 -6
-22 -6 -39 3 -55 9 -17 9 -25 0 -34 -9 -9 -12 -7 -13 7 -1 11 -1 23 0 28 0 4
-6 7 -14 7 -10 0 -15 -10 -15 -30 0 -16 -4 -30 -10 -30 -5 0 -8 15 -5 35 4 31
1 35 -18 35 -19 0 -28 13 -55 78 -17 42 -33 89 -36 104 -2 15 -7 32 -11 38 -4
6 12 10 44 10 27 0 52 -4 56 -10z m-955 -35 c25 -1 64 3 88 8 24 5 45 7 48 5
2 -3 -4 -25 -15 -49 -10 -24 -30 -75 -45 -114 l-26 -70 -39 0 c-22 0 -43 3
-47 8 -4 4 0 7 9 7 10 0 17 5 17 10 0 6 -11 10 -25 10 -14 0 -25 4 -25 9 0 4
11 6 24 4 13 -3 26 -1 30 5 3 5 -12 12 -34 16 -51 8 -53 23 -2 18 28 -2 33 -1
22 7 -8 6 -27 11 -42 11 -46 0 -43 20 4 21 l43 2 -52 10 c-68 13 -70 31 -4 22
31 -4 51 -3 56 4 4 7 -7 11 -32 11 -21 0 -45 5 -53 11 -11 7 1 9 43 4 34 -4
57 -3 57 3 0 5 -29 13 -65 17 -36 3 -65 11 -65 17 0 6 16 7 43 3 23 -4 62 -9
87 -10z m948 -221 c0 -14 9 -35 21 -48 12 -12 19 -24 17 -27 -2 -2 -7 -67 -11
-144 -4 -77 -8 -141 -9 -142 -1 -1 -20 4 -41 12 -48 17 -65 18 -65 5 0 -9 74
-35 97 -33 6 0 14 -6 17 -13 3 -8 -1 -14 -11 -14 -14 0 -122 30 -132 36 -2 2
13 29 32 61 23 37 45 95 60 158 25 99 25 100 6 121 -24 25 -24 41 -1 47 9 3
18 5 18 6 1 0 2 -10 2 -25z m-978 -69 c7 -8 18 -14 24 -13 23 4 56 -14 56 -31
0 -19 56 -194 71 -223 7 -13 3 -21 -18 -32 -16 -8 -22 -15 -15 -16 7 0 22 5
33 10 37 21 18 -5 -24 -32 l-44 -28 -81 16 c-45 9 -82 21 -82 27 0 8 36 5 98
-10 12 -3 22 -1 22 5 0 5 -27 15 -60 21 -56 11 -59 13 -50 35 5 13 14 43 20
66 9 34 15 41 31 37 10 -3 19 -1 19 4 0 5 -7 9 -15 9 -8 0 -15 5 -15 10 0 6 9
10 20 10 11 0 20 5 20 10 0 6 -9 10 -20 10 -11 0 -20 5 -20 10 0 6 11 10 24
10 25 0 36 -28 36 -97 0 -77 36 -163 56 -132 4 7 0 17 -9 24 -22 16 -21 22 3
28 14 3 20 0 20 -11 0 -21 13 -7 17 18 3 23 -1 24 -26 10 -17 -8 -19 -3 -25
63 -15 160 -17 167 -41 167 -12 0 -30 9 -40 20 -10 11 -13 20 -8 20 6 0 16 -7
23 -15z"/>
<path d="M405 2395 c-16 -9 -42 -28 -56 -41 -17 -17 -28 -21 -31 -14 -6 20
-54 14 -87 -9 -38 -27 -48 -61 -30 -103 12 -29 11 -33 -9 -46 -26 -17 -30 -52
-6 -52 10 0 14 6 10 15 -3 8 3 19 14 25 28 15 29 13 17 -25 -7 -25 -16 -35
-31 -35 -12 0 -33 -8 -49 -18 -59 -40 -71 -83 -37 -139 25 -42 52 -55 95 -47
25 4 39 2 51 -11 11 -10 27 -15 42 -12 14 3 39 -3 56 -12 40 -21 114 -13 155
17 17 12 37 22 46 22 24 0 55 38 55 68 0 37 -24 58 -77 67 -39 6 -43 5 -49
-19 -8 -32 -39 -53 -96 -61 -35 -5 -48 -3 -54 8 -5 8 -18 19 -29 25 -24 12
-65 89 -65 120 0 40 19 70 60 93 37 21 41 27 36 52 -12 61 56 127 131 127 32
0 48 -7 83 -40 28 -26 50 -38 61 -35 24 8 76 -39 84 -76 9 -42 -10 -61 -31
-31 -12 18 -25 22 -65 22 -27 0 -65 -6 -83 -14 -30 -12 -34 -19 -39 -62 -6
-58 7 -92 29 -73 9 7 11 16 5 23 -5 6 -6 29 -2 51 11 67 75 82 141 33 63 -47
53 -118 -18 -118 -31 0 -34 2 -30 25 3 14 2 25 -3 25 -22 0 -39 -15 -39 -35 0
-33 24 -49 65 -42 41 7 49 -3 41 -49 -5 -24 -12 -34 -26 -34 -10 0 -22 -5 -25
-10 -10 -16 15 -40 41 -40 14 0 32 -4 42 -10 9 -5 43 -17 75 -26 45 -12 57
-19 53 -32 -2 -9 -7 -35 -11 -57 -7 -48 -43 -144 -62 -166 -12 -14 -9 -23 23
-70 20 -30 39 -54 43 -54 3 0 31 6 61 13 30 7 85 20 123 29 37 8 70 19 72 24
3 4 -11 26 -31 48 -48 54 -76 143 -78 247 -1 52 -6 88 -15 98 -11 14 -11 16 3
16 23 0 43 47 29 68 -7 13 -5 31 8 71 11 30 23 59 28 65 5 6 19 38 32 71 12
33 26 65 31 72 5 7 7 17 4 22 -22 34 -300 41 -333 8 -13 -13 -15 -21 -5 -39 6
-13 25 -59 42 -103 17 -44 36 -88 41 -97 12 -23 12 -55 -1 -63 -6 -4 -8 -15
-5 -25 6 -20 -19 -40 -50 -40 -16 0 -85 65 -85 80 0 4 9 15 19 24 20 18 26 72
9 82 -5 3 -6 20 -2 39 11 60 -40 125 -100 125 -21 0 -38 10 -60 35 -38 43
-102 56 -151 30z m478 -115 c16 0 26 -4 22 -10 -3 -5 0 -10 9 -10 8 0 17 -6
20 -12 5 -10 7 -10 12 0 3 6 10 12 15 12 6 0 8 -4 5 -8 -3 -5 8 -6 25 -4 37 5
37 -3 -1 -78 -33 -66 -48 -134 -31 -144 7 -5 6 -15 -5 -31 -13 -19 -20 -23
-34 -15 -24 13 -33 39 -19 56 6 8 8 14 3 14 -14 0 -30 -13 -42 -35 -11 -19
-11 -18 -12 7 0 14 5 28 10 30 12 4 -21 122 -51 180 -29 56 -26 69 13 57 18
-5 46 -9 61 -9z m-675 -196 c12 -4 22 -12 22 -19 0 -7 12 -26 28 -42 51 -55
12 -103 -78 -95 -32 3 -43 10 -53 31 -8 14 -12 32 -11 39 1 6 2 15 3 20 0 4
10 22 21 40 20 33 29 36 68 26z m353 -76 c30 -56 13 -87 -37 -68 -35 14 -37
13 -31 -12 8 -27 -17 -47 -59 -48 -35 0 -106 46 -125 81 l-12 22 26 -20 c20
-15 37 -19 73 -17 53 4 121 39 130 66 7 24 21 23 35 -4z m210 -40 c21 0 45 5
53 11 27 22 136 -23 113 -46 -4 -3 -1 -13 6 -22 9 -12 7 -11 -13 2 -13 9 -34
17 -45 16 -15 0 -11 -4 14 -15 39 -17 37 -29 -3 -14 -34 13 -49 13 -41 0 3 -5
17 -10 31 -10 13 0 24 -5 24 -10 0 -12 -64 -5 -140 16 -74 21 -89 33 -83 67 5
23 8 25 25 16 10 -6 37 -11 59 -11z m159 -118 c0 -5 -6 -10 -12 -10 -9 0 -10
-2 -2 -8 22 -14 26 -50 7 -62 -15 -10 -16 -11 -1 -6 13 4 20 -6 32 -47 31
-107 31 -104 -3 -110 -17 -4 -31 -11 -31 -17 0 -12 38 -4 54 11 14 13 26 11
26 -5 0 -7 -14 -16 -32 -20 -17 -3 -29 -9 -25 -12 3 -3 22 -1 42 6 20 7 39 9
42 6 10 -10 0 -14 -72 -30 -39 -8 -80 -18 -91 -22 l-22 -6 22 46 c17 37 28 47
59 56 20 6 37 13 37 16 0 3 -17 2 -37 -1 -28 -4 -33 -3 -18 4 20 9 20 10 1 10
-24 1 -11 17 19 24 11 2 8 3 -7 2 -28 -2 -28 -1 -28 62 0 53 3 63 18 64 10 0
12 3 5 6 -19 7 -16 53 2 53 8 0 15 -4 15 -10z"/>
<path d="M1173 1377 c-18 -7 -42 -20 -53 -29 -11 -10 -27 -18 -35 -18 -8 0
-15 -5 -15 -11 0 -5 -5 -7 -11 -4 -9 6 -41 -5 -108 -38 -13 -6 -26 -19 -30
-29 -3 -9 -10 -18 -16 -20 -5 -2 -8 -13 -7 -24 2 -12 -4 -24 -12 -27 -17 -7
-22 -57 -6 -57 6 0 10 7 10 16 0 13 3 14 14 5 11 -9 20 -10 35 -1 32 17 25 30
-11 23 -27 -5 -31 -3 -20 8 6 7 12 19 12 25 0 7 14 28 31 46 20 21 29 26 25
14 -6 -18 9 -46 25 -46 5 0 6 13 3 28 -6 27 -3 30 82 65 60 26 90 34 94 26 13
-20 47 10 42 37 -5 27 -5 27 -49 11z"/>
<path d="M565 869 c-80 -7 -135 -21 -135 -37 0 -4 9 -25 20 -47 11 -22 20 -45
20 -52 0 -8 17 -48 39 -91 31 -62 36 -80 27 -94 -16 -26 5 -54 38 -51 28 2 36
-14 9 -19 -9 -2 -17 -12 -19 -23 -5 -48 -25 -127 -44 -181 -12 -33 -24 -67
-27 -76 -3 -10 -9 -18 -14 -18 -16 0 -9 -20 9 -27 9 -3 37 -15 62 -26 25 -11
48 -21 52 -21 3 -1 10 -4 14 -9 12 -12 35 -8 78 12 23 10 57 24 76 31 39 15
60 29 60 40 0 4 -11 19 -25 34 -32 35 -68 113 -93 202 -17 63 -18 73 -5 98 9
18 11 31 5 39 -6 8 -1 36 14 82 14 39 31 92 39 118 7 26 18 54 24 61 18 21 2
45 -38 55 -37 10 -50 10 -186 0z m180 -101 c-7 -24 -26 -79 -42 -123 -28 -79
-29 -80 -65 -83 -24 -2 -44 3 -57 15 -28 24 -26 31 7 26 26 -4 26 -4 8 11 -11
9 -28 16 -38 16 -10 0 -18 4 -18 8 0 4 16 6 35 4 52 -6 43 16 -10 24 -56 8
-59 24 -5 24 22 0 40 5 40 10 0 6 -6 10 -12 11 -94 8 -90 7 -83 19 3 6 31 7
68 4 79 -8 67 11 -13 20 -81 10 -81 22 0 18 47 -3 70 -1 70 7 0 6 -6 12 -12
12 -23 3 55 16 99 18 l41 1 -13 -42z m-140 -485 c0 -92 4 -137 11 -140 14 -5
22 42 14 76 -3 14 -4 39 -2 57 4 28 8 33 40 37 26 3 41 0 50 -11 22 -29 18
-34 -40 -46 -16 -4 -28 -11 -28 -16 0 -11 59 -2 78 13 8 6 12 6 12 0 0 -6 11
-27 25 -47 17 -25 20 -36 11 -36 -8 0 -16 5 -18 11 -3 8 -21 9 -56 4 -33 -4
-51 -11 -49 -19 4 -12 28 -12 65 -1 40 13 23 -10 -20 -26 -52 -19 -69 -18
-133 10 -61 27 -59 25 -46 50 10 17 16 19 38 10 35 -13 43 -3 9 12 -33 15 -34
32 -1 19 15 -6 25 -6 25 0 0 5 -9 12 -21 15 -16 5 -19 12 -14 28 3 12 11 48
18 80 20 98 32 68 32 -80z"/>
<path d="M2030 420 c0 -5 12 -10 28 -11 24 -1 23 -2 -10 -11 -21 -6 -38 -16
-38 -24 0 -9 -11 -14 -30 -14 -19 0 -30 -5 -30 -14 0 -14 36 -32 53 -28 4 1 7
-2 7 -8 0 -5 -16 -12 -35 -16 -59 -11 -54 -38 6 -36 33 1 40 -13 8 -15 -29 -3
-41 -16 -33 -36 9 -25 37 -22 29 3 -5 16 -2 20 14 20 17 0 21 -7 22 -32 1 -40
9 -91 15 -97 2 -3 9 0 14 5 6 6 6 30 1 62 l-8 52 62 0 c68 0 113 21 85 40 -8
5 -45 10 -82 10 -42 0 -68 4 -68 11 0 6 15 9 34 8 19 -2 38 0 42 4 4 4 -11 7
-34 7 -23 0 -42 5 -42 10 0 6 25 10 56 10 35 0 53 4 49 10 -4 6 -14 9 -23 8
-9 -2 -16 3 -14 10 1 8 -10 12 -33 12 -26 0 -35 4 -35 16 0 12 6 15 22 11 12
-3 30 -1 40 4 15 8 17 13 7 25 -13 16 -79 19 -79 4z"/>
</g>
</svg>
