<?xml version="1.0" standalone="no"?>
<!DOCTYPE svg PUBLIC "-//W3C//DTD SVG 20010904//EN"
 "http://www.w3.org/TR/2001/REC-SVG-20010904/DTD/svg10.dtd">
<svg version="1.0" xmlns="http://www.w3.org/2000/svg"
 width="233.000000pt" height="400.000000pt" viewBox="0 0 233.000000 400.000000"
 preserveAspectRatio="xMidYMid meet">
<metadata>
Created by potrace 1.15, written by Peter Selinger 2001-2017
</metadata>
<g transform="translate(0.000000,400.000000) scale(0.100000,-0.100000)"
fill="#000000" stroke="none">
<path d="M668 3963 c-570 -3 -608 -4 -609 -21 -5 -106 -13 -1517 -20 -3597
l-1 -310 248 -5 c137 -3 633 -4 1102 -2 l852 3 -2 1892 c-2 1041 -4 1927 -6
1970 l-4 77 -476 -2 c-262 -2 -750 -4 -1084 -5z m1542 -98 l0 -85 -22 14 c-21
13 -135 54 -255 90 -58 18 -113 21 -113 6 0 -5 -6 -7 -14 -4 -17 7 -124 -111
-133 -146 -3 -14 -14 -42 -24 -62 -22 -44 -24 -88 -5 -150 7 -25 10 -52 5 -60
-14 -26 -23 -118 -10 -118 6 0 11 11 11 25 0 18 5 25 20 25 11 0 20 5 20 11 0
5 -4 8 -9 5 -5 -3 -11 3 -14 13 -3 14 3 23 24 31 16 7 29 16 29 21 0 13 -14
11 -28 -3 -24 -24 -22 1 3 30 32 38 31 40 -5 36 -16 -2 -30 1 -30 6 0 6 4 10
9 10 5 0 7 9 4 20 -3 11 -10 17 -16 13 -6 -3 -7 -1 -3 5 4 7 19 12 34 13 40 1
69 14 53 24 -8 4 -16 3 -20 -4 -8 -13 -41 -4 -41 11 0 5 -4 6 -10 3 -5 -3 -10
-1 -10 5 0 6 10 8 28 4 27 -7 27 -7 8 14 -16 19 -17 22 -4 27 9 4 27 28 42 55
15 27 31 52 36 55 17 10 11 28 -6 21 -14 -5 -15 -4 -4 9 7 8 16 15 20 15 13 0
8 -35 -8 -55 -16 -19 -16 -19 3 -3 18 17 19 16 35 -10 16 -26 15 -28 -4 -39
-12 -7 -29 -16 -38 -19 -34 -12 -18 -32 35 -43 17 -4 33 -13 35 -20 3 -10 0
-12 -12 -8 -18 7 -66 -11 -66 -25 0 -4 7 -8 16 -8 14 0 15 -2 3 -17 -10 -11
-10 -14 -1 -9 6 4 12 2 12 -3 0 -6 -9 -11 -21 -11 -15 0 -19 5 -15 15 8 21 -9
19 -25 -2 -7 -10 -9 -15 -5 -11 5 4 15 3 23 -3 15 -13 18 -33 3 -24 -6 3 -7
-1 -4 -9 3 -9 17 -16 30 -16 18 0 24 -6 24 -21 0 -17 -4 -20 -24 -15 -25 6
-34 -8 -42 -65 -3 -22 1 -28 24 -34 l27 -8 -32 -8 c-41 -12 -48 -23 -26 -45
13 -12 14 -19 5 -22 -18 -6 -15 -22 6 -23 12 0 10 -3 -8 -10 -23 -10 -24 -11
-7 -23 23 -17 22 -26 -4 -26 -15 0 -19 -4 -15 -16 4 -11 2 -15 -8 -11 -18 7
-36 -12 -29 -30 5 -12 1 -14 -14 -9 -22 7 -73 -39 -57 -52 5 -4 8 -5 6 -3 -1
3 8 15 19 28 19 20 24 21 33 7 6 -8 29 -21 51 -29 l40 -14 -37 -1 c-20 0 -40
5 -43 10 -11 18 -45 11 -45 -9 0 -25 -21 -40 -45 -31 -13 5 -24 2 -32 -9 -11
-14 -13 -14 -27 4 -15 20 -15 20 -10 -1 5 -19 2 -21 -20 -17 -18 4 -26 12 -26
27 1 21 1 21 17 1 15 -19 15 -19 9 8 -8 36 16 46 54 23 35 -20 41 -20 34 -1
-4 8 -12 15 -20 15 -8 0 -14 5 -14 11 0 6 7 8 16 5 9 -3 12 -2 9 5 -4 6 -1 10
6 8 32 -4 41 2 36 21 -3 10 -2 19 2 18 3 0 13 0 21 1 12 1 11 5 -4 16 -19 14
-19 15 -1 15 10 0 15 3 12 7 -4 3 -2 12 4 19 7 8 7 14 -1 19 -16 10 -2 25 16
18 14 -5 15 -3 5 14 -8 17 -7 22 4 27 25 9 17 24 -10 18 -17 -3 -27 -13 -31
-31 -19 -89 -77 -171 -122 -171 -9 0 -36 -11 -59 -24 -29 -17 -44 -21 -52 -13
-14 14 -100 19 -120 7 -12 -7 -6 -9 22 -10 20 0 37 -4 37 -10 0 -13 -56 -13
-81 0 -25 14 -24 50 1 100 23 45 28 47 46 23 11 -17 16 -17 55 -3 23 8 47 24
53 35 6 11 13 22 16 25 3 3 20 28 38 55 17 28 37 56 43 63 22 26 -2 25 -29 -1
-34 -32 -52 -34 -52 -6 0 15 4 19 16 15 10 -4 22 1 29 11 11 14 9 20 -12 36
-19 15 -23 25 -18 48 4 19 3 29 -5 29 -6 0 -8 4 -5 10 4 6 16 3 31 -6 27 -18
39 -13 39 19 0 23 14 31 34 18 17 -11 8 -54 -14 -73 -47 -39 -47 -39 -28 -54
24 -18 36 -17 29 2 -4 9 4 28 19 46 14 16 25 40 25 52 0 12 5 27 12 34 9 9 2
12 -34 12 -26 0 -50 -5 -54 -11 -5 -8 -10 -6 -16 5 -5 9 -16 16 -23 16 -8 0
-15 7 -15 15 0 8 -7 15 -15 15 -8 0 -15 7 -15 15 0 8 -4 15 -10 15 -5 0 -10 7
-10 15 0 8 -5 15 -11 15 -6 0 -8 9 -4 20 7 22 5 23 -18 14 -13 -5 -13 -10 3
-37 10 -18 20 -41 21 -52 4 -23 -50 -83 -60 -67 -3 6 -17 12 -31 13 -20 3 -25
10 -25 34 -1 28 -3 30 -42 33 -75 6 -102 -59 -38 -94 38 -20 63 -10 52 20 -9
24 -26 19 -20 -5 5 -19 4 -20 -15 -10 -28 15 -35 28 -28 55 7 29 66 36 66 8 0
-27 29 -62 51 -62 10 0 19 -6 19 -13 0 -24 -13 -28 -32 -10 -10 9 -21 13 -24
10 -9 -9 15 -37 32 -37 8 0 14 -4 14 -10 0 -5 -9 -10 -21 -10 -29 0 -86 -28
-93 -46 -3 -8 -9 -43 -12 -77 -7 -75 -10 -80 -35 -67 -11 6 -25 8 -31 4 -7 -5
-4 -10 10 -15 44 -17 12 -37 -45 -30 -7 1 -13 -7 -13 -19 0 -22 15 -27 26 -9
4 8 9 7 14 -2 7 -10 11 -10 24 0 23 19 55 -2 49 -32 -3 -13 2 -47 10 -75 17
-55 15 -62 -18 -62 -18 0 -23 8 -32 58 -6 31 -7 62 -3 67 5 6 -2 15 -17 22
-23 11 -25 11 -19 -12 3 -13 9 -31 13 -41 11 -29 -56 -9 -95 29 -54 51 -72 96
-65 156 4 35 2 51 -6 51 -10 0 -16 -27 -12 -57 1 -7 -3 -13 -8 -13 -15 0 -41
41 -41 64 0 15 -3 17 -12 8 -9 -9 -9 -18 0 -36 11 -25 10 -25 -21 -19 -39 7
-48 14 -49 39 -3 40 14 75 45 95 28 18 29 20 7 14 -64 -17 -94 -101 -53 -147
9 -10 24 -18 34 -18 18 0 18 -1 2 -20 -23 -27 -49 -25 -78 5 -28 27 -33 76
-10 95 16 13 21 40 8 40 -5 0 -9 11 -9 25 -1 15 4 25 12 25 7 0 24 10 39 23
24 21 24 23 10 51 -8 15 -15 34 -15 42 0 27 24 65 46 70 24 6 72 -15 93 -40
16 -19 42 -21 59 -4 9 9 7 17 -8 34 -18 19 -19 25 -8 49 11 25 10 29 -16 50
-28 22 -28 23 -7 30 14 4 34 -1 57 -14 44 -26 64 -27 64 -1 0 38 26 20 39 -27
18 -69 29 -93 41 -93 7 0 5 9 -4 22 -23 33 -19 66 10 93 46 43 90 24 64 -25
-8 -15 -9 -25 -2 -32 7 -7 10 -4 9 8 -3 28 35 24 50 -6 8 -14 12 -40 10 -57
-2 -18 1 -33 5 -33 9 0 9 2 13 40 1 13 7 26 14 28 14 5 -8 49 -38 76 -25 23
-28 11 -3 -17 17 -20 4 -17 -25 5 -18 14 -4 38 23 38 13 0 24 5 24 10 0 6 -10
10 -22 10 -12 0 -30 8 -40 17 -18 16 -18 17 4 40 12 13 27 23 35 23 17 0 17
17 1 21 -28 8 -298 -3 -298 -12 0 -5 13 -9 30 -9 43 0 59 -34 28 -60 -13 -11
-33 -19 -45 -20 -28 0 -84 -32 -80 -45 2 -5 14 -11 26 -13 29 -5 37 -28 17
-51 -18 -20 -13 -46 10 -55 16 -6 19 -26 3 -26 -14 0 -79 53 -79 64 0 14 33
35 55 36 19 1 19 1 2 11 -20 12 -63 -10 -74 -37 -3 -7 -9 -11 -15 -8 -5 3 -22
0 -39 -6 -40 -17 -59 -78 -35 -114 22 -34 3 -69 -32 -63 -26 5 -38 -13 -27
-40 12 -28 11 -46 -4 -70 -21 -35 -6 -88 33 -118 18 -14 40 -25 48 -25 9 0 21
-7 28 -15 15 -18 57 -20 62 -3 3 7 9 8 19 2 8 -5 19 -9 24 -9 13 0 19 -113 6
-128 -5 -7 -44 -13 -88 -15 -74 -3 -82 -1 -120 27 -45 33 -153 162 -153 183 0
8 4 18 9 24 19 21 28 123 21 240 -10 162 -29 218 -94 277 -31 27 -32 27 -131
22 -115 -7 -166 -20 -198 -49 -20 -19 -96 -50 -104 -43 -1 2 0 42 4 90 l6 87
591 3 c325 1 804 3 1064 5 l472 2 0 -85z m-213 -41 c24 -19 40 -28 37 -20 -5
14 -3 14 22 1 16 -8 34 -15 40 -15 6 0 19 -9 29 -20 10 -11 13 -20 7 -20 -7 0
-12 -8 -12 -17 0 -15 2 -16 10 -3 8 12 10 9 10 -12 0 -15 5 -30 10 -33 6 -3
10 -13 10 -21 0 -29 -39 5 -46 41 -3 19 -12 39 -20 46 -8 6 -14 19 -14 28 0
13 -2 13 -9 2 -5 -8 -14 -10 -22 -6 -8 5 -5 -1 5 -13 11 -12 17 -24 15 -27 -6
-6 -58 44 -82 79 -12 17 -27 26 -45 26 l-27 0 33 -20 c37 -23 42 -40 11 -40
-16 0 -19 4 -15 17 6 16 6 16 -11 0 -25 -22 -47 -7 -38 24 l7 24 -17 -23 c-20
-28 -7 -49 33 -54 l27 -3 -28 -6 c-22 -5 -35 -1 -55 17 l-27 24 24 21 c16 13
21 23 14 27 -6 4 10 8 35 9 40 1 53 -3 89 -33z m-1547 22 c0 -18 -14 -34 -26
-29 -8 3 -14 3 -14 0 0 -16 34 -13 52 5 l21 21 -5 -21 c-4 -12 -1 -22 4 -22 6
0 4 -8 -3 -17 -13 -16 -12 -17 3 -5 9 8 14 20 11 28 -12 31 14 11 41 -31 27
-43 27 -47 12 -70 -9 -14 -21 -25 -26 -25 -6 0 -10 -5 -10 -12 0 -9 3 -9 12 0
16 16 33 15 19 -1 -8 -10 -7 -19 3 -33 13 -17 14 -16 12 19 -2 21 1 40 7 44 6
3 8 -6 5 -26 -3 -18 -1 -34 4 -37 4 -3 -3 -15 -17 -28 -14 -13 -25 -28 -25
-34 0 -16 38 -2 43 17 3 9 5 -8 6 -37 1 -43 -4 -60 -25 -88 -15 -19 -23 -34
-20 -34 11 0 -44 -70 -92 -117 -24 -24 -48 -43 -53 -43 -5 0 6 14 26 31 20 18
34 38 31 45 -3 8 -2 13 2 13 18 -3 22 3 12 20 -7 14 -6 21 3 25 9 4 9 7 1 11
-8 4 -2 17 17 37 16 18 27 33 26 34 -2 2 -27 -8 -56 -22 -36 -17 -56 -23 -63
-16 -14 14 0 35 18 28 8 -3 14 1 14 9 0 8 4 15 10 15 5 0 19 9 30 20 11 11 20
15 20 8 0 -6 7 -3 15 8 14 18 14 18 15 -11 0 -19 3 -26 10 -19 7 7 7 21 -1 43
-10 27 -9 35 7 52 18 20 18 20 -10 10 -36 -14 -39 -14 -32 4 3 8 2 15 -3 15
-5 0 -8 11 -8 25 0 14 5 25 11 25 6 0 4 5 -4 10 -20 13 -67 13 -92 -1 -16 -9
-19 -8 -16 2 2 7 17 20 34 29 48 27 42 79 -8 71 -5 0 -8 4 -8 9 0 6 -4 10 -10
10 -5 0 -7 -6 -4 -14 3 -7 -7 -21 -22 -31 -22 -14 -28 -15 -35 -4 -7 11 -9 10
-9 -4 0 -9 -11 -22 -24 -29 -20 -8 -28 -7 -40 5 -9 9 -16 23 -16 31 0 10 -9
16 -21 16 -15 0 -19 -5 -15 -15 3 -8 1 -15 -4 -15 -6 0 -10 8 -10 19 0 19 42
44 101 61 23 7 29 5 29 -7 0 -13 3 -13 15 -3 13 11 14 10 10 -2 -4 -9 0 -18 9
-21 9 -4 15 -1 13 6 -1 6 14 19 33 29 33 17 60 23 60 14z m959 -302 c-8 -10
-8 -18 -1 -27 6 -7 9 -22 6 -34 -3 -11 1 -27 10 -36 22 -22 20 -37 -5 -37 -30
0 -23 -54 9 -58 12 -2 22 -7 22 -11 0 -12 -23 -31 -39 -31 -8 0 -24 -9 -36
-20 -31 -29 -55 -17 -55 26 0 19 -5 43 -12 53 -8 13 -9 29 -2 52 10 34 34 52
34 25 0 -9 -4 -16 -10 -16 -15 0 -12 -39 4 -56 8 -8 25 -14 38 -14 20 1 19 3
-9 15 -36 15 -43 39 -17 53 21 12 9 54 -14 50 -10 -2 -17 4 -17 12 0 9 7 14
18 12 13 -2 17 4 17 30 0 26 6 37 28 50 26 16 27 16 35 -4 4 -12 3 -26 -4 -34z
m-845 -109 c-4 -10 0 -15 10 -15 14 0 15 -4 5 -21 -6 -12 -19 -24 -30 -26 -10
-3 -16 -9 -14 -14 3 -4 12 -6 20 -2 8 3 15 0 15 -6 0 -6 -9 -11 -20 -11 -15 0
-20 -7 -20 -26 0 -14 4 -23 10 -19 6 3 10 0 10 -7 0 -7 3 -24 7 -37 4 -16 3
-22 -5 -17 -6 4 -16 -4 -23 -16 -11 -20 -11 -22 3 -10 14 11 19 10 37 -9 11
-12 26 -19 34 -16 11 4 10 -2 -2 -29 -9 -19 -21 -32 -29 -29 -7 3 -10 1 -7 -4
8 -13 -10 -22 -29 -15 -14 5 -14 8 -1 21 8 8 15 19 15 24 0 13 -34 11 -48 -3
-9 -9 -15 -9 -24 0 -10 10 -8 14 10 18 12 4 22 11 22 16 0 6 -7 7 -16 4 -14
-5 -15 -4 -4 9 16 20 1 19 -28 -1 -27 -19 -45 -9 -19 10 21 16 23 30 3 23 -10
-4 -13 -1 -9 9 3 8 16 17 29 20 13 3 24 10 24 16 0 5 5 6 11 2 6 -3 4 7 -5 24
-15 29 -15 32 11 71 15 23 31 41 36 41 5 0 7 6 4 14 -6 15 1 26 14 26 5 0 6
-7 3 -15z m1634 -114 c11 -6 14 -50 15 -185 1 -97 0 -176 -1 -176 -2 0 -15 9
-29 20 -28 21 -53 26 -53 10 0 -5 6 -10 13 -10 16 0 57 -37 57 -51 0 -6 -12
-1 -26 10 -27 21 -54 28 -54 13 0 -4 10 -12 22 -17 28 -13 68 -71 67 -99 0
-19 -1 -19 -10 4 -6 13 -17 33 -26 42 -17 20 -43 24 -43 8 0 -5 6 -10 14 -10
15 0 46 -58 46 -87 0 -15 -2 -15 -10 -3 -16 26 -19 5 -5 -35 13 -40 14 -40 24
-15 8 19 10 -15 9 -132 0 -96 -4 -158 -10 -158 -6 0 -8 -7 -5 -15 8 -21 -11
-29 -30 -13 -14 11 -16 11 -11 -2 2 -8 14 -16 26 -18 21 -3 32 -32 12 -32 -5
0 -10 5 -10 10 0 6 -8 10 -17 10 -9 0 -25 7 -35 17 -16 14 -18 15 -18 0 0 -9
5 -19 10 -22 6 -3 10 -12 10 -18 -1 -17 -40 32 -40 49 0 8 -4 14 -10 14 -15 0
-12 -28 6 -55 10 -15 26 -25 40 -25 18 0 24 -5 24 -22 0 -30 -15 -52 -28 -44
-6 3 -12 2 -14 -3 -1 -5 -15 -12 -29 -16 -23 -6 -29 -1 -53 39 -14 24 -26 54
-26 65 0 25 -18 37 -26 17 -9 -24 -20 -19 -34 13 -16 39 -47 71 -68 71 -14 -1
-14 -3 5 -19 l21 -18 -29 -28 c-17 -15 -28 -34 -25 -41 8 -22 -14 -27 -35 -8
-23 21 -24 17 -3 -31 8 -21 12 -45 8 -54 -5 -11 -10 -2 -15 29 -7 33 -18 53
-44 75 -37 32 -45 55 -20 55 8 0 15 -7 15 -16 0 -8 5 -12 11 -9 6 4 8 13 5 21
-3 8 -2 14 3 14 5 0 12 -10 16 -22 l8 -23 4 23 c3 15 -2 28 -13 36 -28 21 -7
36 47 32 38 -2 46 0 32 7 -10 6 -20 11 -21 13 -2 1 1 18 7 37 8 25 26 43 61
65 36 23 50 27 50 17 0 -8 5 -15 11 -15 5 0 8 -4 5 -9 -3 -5 11 -19 32 -31 37
-23 31 -41 -7 -21 -16 9 -21 7 -26 -9 -3 -11 -9 -20 -13 -20 -4 0 -7 -13 -8
-30 -1 -17 3 -27 9 -23 5 3 7 0 5 -8 -3 -8 -15 -13 -26 -12 -20 2 -20 2 -4
-27 21 -36 32 -38 32 -6 0 33 17 42 26 14 6 -21 7 -21 21 -2 7 10 19 19 26 20
80 8 108 92 55 167 -30 43 -40 32 -13 -15 26 -45 32 -83 15 -93 -6 -4 -10 8
-10 27 0 21 -10 48 -25 68 -15 20 -23 41 -20 51 4 11 -3 27 -16 40 l-22 22 27
-7 c14 -3 26 -2 26 3 0 16 -55 19 -80 4 -14 -8 -35 -31 -45 -51 -27 -49 -68
-64 -97 -34 -19 18 -20 25 -10 47 13 27 49 36 38 9 -4 -10 -1 -14 6 -12 7 3
13 13 13 24 0 15 -7 19 -32 20 -18 1 -41 -5 -52 -12 -21 -15 -35 -92 -19 -111
5 -7 6 -18 2 -24 -5 -9 -10 -7 -15 7 -6 15 -8 13 -8 -12 -1 -40 -36 -120 -56
-128 -8 -3 -15 -13 -15 -23 0 -13 -2 -15 -9 -5 -6 10 -15 4 -35 -22 -31 -42
-29 -43 20 -16 40 23 64 15 64 -21 0 -11 5 -19 10 -19 6 0 10 -7 10 -16 0 -18
-23 -44 -40 -44 -6 0 -27 -11 -47 -24 -19 -14 -42 -22 -49 -19 -8 3 -14 1 -14
-5 0 -5 -28 -12 -62 -15 -76 -6 -84 -8 -126 -31 -23 -12 -32 -22 -28 -33 3 -8
9 -26 12 -39 5 -21 9 -23 22 -12 13 11 14 10 9 -14 -6 -21 -3 -30 14 -38 21
-12 19 -21 -4 -27 -7 -1 -48 -10 -92 -18 -43 -9 -87 -21 -97 -26 -12 -6 -18
-6 -18 1 0 5 5 10 10 10 6 0 10 6 10 14 0 8 6 17 13 19 9 4 9 8 -2 15 -16 11
-6 32 15 32 8 0 14 5 14 10 0 6 -4 10 -10 10 -5 0 -10 12 -10 26 0 14 4 23 10
19 6 -3 13 2 16 12 4 10 27 39 53 66 25 26 41 47 35 47 -15 0 -56 -31 -83 -63
-13 -15 -26 -26 -28 -23 -11 11 44 88 80 112 21 14 37 28 34 31 -20 19 -117
-62 -117 -98 0 -12 -3 -19 -7 -15 -9 9 -12 46 -3 46 3 0 14 15 23 34 11 25 32
42 76 65 l60 30 58 -20 c31 -10 75 -20 98 -21 22 0 46 -5 53 -11 8 -6 12 -6
12 2 0 6 -5 11 -10 11 -6 0 -15 20 -22 45 -8 28 -15 40 -20 32 -5 -8 -8 -5 -8
10 0 12 14 33 31 47 17 14 27 26 22 26 -11 0 -56 -30 -65 -44 -5 -7 -8 -7 -8
2 0 13 13 26 78 72 43 31 56 65 27 76 -16 7 -21 34 -5 34 5 0 7 6 4 14 -6 14
15 40 52 63 17 11 16 12 -8 7 -16 -3 -28 -4 -28 -1 0 11 69 39 79 33 5 -4 13
-1 16 5 4 6 -2 13 -14 16 -20 5 -20 6 -4 19 10 7 28 14 41 14 23 0 32 19 10
21 -7 0 -4 4 7 8 26 11 86 2 105 -15 12 -12 12 -14 -3 -14 -15 0 -14 -3 4 -21
17 -17 23 -19 30 -8 5 8 9 18 9 22 0 14 -49 57 -65 57 -12 0 -15 8 -13 31 4
41 30 59 59 40 20 -12 21 -11 16 9 -4 16 -2 20 9 16 8 -3 14 1 14 9 0 8 -5 15
-11 15 -16 0 31 36 59 44 15 5 32 2 47 -8 31 -21 46 -20 20 0 -14 11 -16 18
-7 21 6 3 12 16 12 30 0 23 -3 25 -29 20 -67 -14 -135 77 -111 147 13 37 38
69 68 85 26 14 94 12 104 -3 4 -6 10 -4 14 7 7 18 31 22 52 8z m-1184 -183
c16 -18 39 -55 51 -82 18 -42 23 -46 27 -28 4 12 2 25 -3 28 -5 3 -9 12 -9 21
0 13 2 13 16 2 11 -9 14 -23 11 -46 l-6 -34 26 21 c30 23 43 25 67 7 17 -12
16 -14 -13 -14 -32 0 -65 -29 -54 -47 3 -5 0 -7 -8 -4 -9 3 -18 -7 -25 -26
-16 -47 -5 -51 32 -12 35 37 45 41 79 26 17 -7 18 -9 2 -9 -20 -1 -87 -58 -87
-75 0 -5 15 4 33 21 32 31 77 39 84 16 3 -7 -4 -9 -17 -6 -14 4 -28 -3 -45
-23 -24 -28 -31 -44 -20 -44 3 0 16 12 28 26 16 18 30 25 47 22 l25 -4 -30
-16 c-39 -21 -135 -112 -135 -128 0 -7 -7 -10 -15 -6 -10 4 -15 -1 -15 -14 0
-11 -5 -20 -10 -20 -20 0 -60 -48 -54 -64 14 -37 -31 -9 -60 37 -17 27 -17 30
3 73 12 24 21 46 21 49 0 5 62 106 91 148 11 15 15 27 10 27 -5 0 -13 -5 -16
-10 -8 -13 -31 0 -71 39 -33 32 -53 76 -31 68 17 -6 40 20 26 29 -8 5 -6 10 5
16 20 11 21 28 1 28 -8 0 -15 4 -15 10 0 5 8 7 18 4 14 -5 14 -3 -2 10 -15 12
-16 16 -5 16 8 0 27 -15 43 -32z m381 -108 l-6 -45 20 25 c11 14 21 29 21 34
0 5 2 7 5 4 11 -11 -28 -93 -53 -115 -15 -12 -23 -25 -19 -29 3 -4 14 -1 22 6
12 10 19 10 28 1 8 -8 6 -17 -12 -34 -13 -12 -21 -16 -17 -9 10 17 -9 15 -24
-3 -9 -11 -9 -15 -1 -15 7 0 9 -5 5 -11 -5 -8 -10 -6 -16 5 -14 25 -31 19 -24
-9 4 -15 2 -25 -4 -25 -6 0 -8 5 -5 10 3 6 1 10 -4 10 -6 0 -11 9 -11 20 0 26
-14 25 -33 -2 -15 -22 -15 -22 -13 17 2 49 11 65 36 65 10 0 31 10 46 23 22
19 27 32 28 73 0 27 -4 58 -8 68 -9 19 -9 19 17 0 25 -17 27 -23 22 -64z
m-494 33 c8 -10 21 -31 29 -47 8 -16 31 -42 52 -58 31 -26 35 -34 28 -56 -11
-42 -87 -156 -92 -141 -4 12 -8 12 -22 0 -9 -8 -20 -10 -24 -6 -4 4 -1 10 6
12 16 6 16 30 -1 40 -29 18 -57 67 -57 100 0 35 -19 81 -52 123 l-20 25 49 6
c57 7 73 -6 98 -81 11 -32 28 -57 50 -74 35 -27 55 -33 55 -16 0 6 -4 10 -8
10 -27 0 -122 133 -122 170 0 16 15 12 31 -7z m654 -49 c25 -9 47 -26 57 -45
10 -16 28 -33 42 -38 13 -6 27 -14 30 -20 4 -6 13 -8 20 -5 8 3 17 1 20 -5 3
-5 -7 -12 -24 -16 -16 -4 -45 -17 -64 -30 -29 -20 -35 -21 -40 -8 -9 22 -8 23
17 24 12 0 16 3 10 6 -8 3 -11 15 -7 31 5 25 4 26 -9 9 -15 -18 -15 -18 -19 0
-3 15 -7 13 -21 -12 -20 -38 -22 -15 -2 25 23 45 2 36 -23 -9 -12 -21 -29 -42
-38 -45 -8 -3 -12 -11 -9 -17 5 -7 12 -5 23 5 15 13 20 12 51 -13 l33 -27 -19
-38 c-20 -39 -96 -85 -108 -65 -4 5 2 9 12 9 10 0 29 10 43 21 l25 20 -35 -6
-35 -7 22 23 22 22 -24 19 c-31 24 -43 23 -20 -2 15 -16 16 -23 6 -33 -7 -7
-14 -8 -19 -2 -4 6 -15 16 -24 23 -15 12 -17 11 -16 -10 1 -13 8 -31 16 -40
21 -25 -3 -24 -35 2 -14 11 -34 20 -44 20 -32 0 -21 25 26 64 43 36 58 66 34
66 -14 0 -7 42 15 95 17 39 25 40 111 9z m-813 -31 c33 -36 66 -118 44 -110
-8 3 -17 1 -19 -6 -2 -7 -12 4 -22 23 -10 19 -20 30 -22 23 -2 -6 3 -23 12
-37 10 -15 14 -33 11 -43 -6 -15 -10 -13 -31 12 -17 21 -24 25 -25 14 0 -9 7
-22 15 -29 20 -17 19 -31 -2 -23 -10 3 -15 2 -10 -2 4 -5 0 -17 -10 -27 -22
-24 -8 -23 28 3 39 27 37 13 -3 -23 -36 -32 -20 -38 22 -8 26 18 40 18 40 -2
0 -5 -4 -6 -10 -3 -5 3 -10 -1 -10 -9 0 -10 -6 -13 -15 -10 -10 4 -15 0 -15
-10 0 -14 -4 -15 -20 -6 -11 6 -25 8 -30 5 -5 -3 -7 0 -5 8 3 7 -4 22 -16 33
-20 17 -22 17 -16 2 7 -21 -3 -24 -21 -6 -9 9 -8 14 4 22 18 14 8 50 -12 42
-16 -6 -38 32 -47 81 -6 28 -2 35 34 64 35 27 75 44 115 48 5 1 22 -11 36 -26z
m-499 -241 c15 -17 15 -20 -9 -45 -14 -15 -22 -32 -18 -38 4 -8 9 -7 16 2 7
10 8 6 4 -11 -7 -33 6 -82 23 -88 10 -3 11 0 2 16 -16 30 -14 62 4 62 18 0 20
16 3 23 -8 4 -4 8 10 12 24 8 29 21 10 28 -9 4 -8 6 3 6 8 1 20 -4 26 -10 7
-7 15 -2 27 15 13 21 24 26 54 25 21 -1 28 -3 17 -6 -11 -3 -24 -9 -30 -15 -7
-6 0 -7 18 -3 15 4 39 4 55 -1 l27 -8 -35 -6 -35 -7 31 -2 c35 -1 94 -54 74
-66 -6 -4 -15 -16 -19 -28 -4 -11 -23 -26 -42 -32 -22 -7 -39 -22 -49 -43 -10
-21 -20 -30 -31 -26 -38 11 -93 -36 -69 -60 7 -7 10 -4 10 8 0 16 6 18 35 13
33 -5 50 6 23 16 -7 2 -3 2 9 1 12 -2 23 1 25 7 2 6 16 12 31 12 15 0 27 3 27
8 0 5 -10 9 -22 9 -19 0 -20 2 -8 10 8 5 31 10 49 10 26 0 32 3 24 11 -8 8 -8
18 -1 35 13 28 39 38 74 30 14 -4 24 -2 24 4 0 5 -15 10 -32 10 -25 0 -29 3
-18 10 35 23 112 -4 149 -52 l22 -27 -35 -7 c-20 -3 -59 -9 -88 -13 l-53 -6 4
-124 c3 -89 0 -122 -8 -117 -7 5 -9 -2 -5 -22 8 -38 -10 -70 -48 -86 -39 -17
-74 -9 -98 22 -25 31 -26 61 -2 78 28 22 54 18 50 -8 -2 -17 -9 -22 -23 -20
-19 3 -19 2 -3 -14 23 -23 48 -11 48 23 0 35 -9 49 -35 56 l-20 5 20 1 c32 1
48 -15 48 -48 0 -17 4 -31 9 -31 15 0 8 58 -8 75 -9 9 -14 18 -12 21 3 2 17
-8 31 -22 29 -29 38 -13 10 18 -18 21 -59 24 -67 6 -5 -10 -7 -10 -12 0 -8 18
-34 15 -40 -5 -11 -36 -39 -93 -45 -93 -4 0 -12 14 -19 30 -7 17 -16 30 -21
30 -5 0 -2 -14 6 -31 23 -43 12 -47 -14 -6 -23 37 -27 57 -11 57 6 0 10 8 10
18 -1 15 -2 15 -16 -3 -10 -13 -13 -31 -9 -52 8 -47 -2 -41 -15 8 -8 29 -8 44
-1 48 5 4 13 26 17 50 6 35 4 43 -7 39 -8 -3 -13 -15 -11 -27 1 -15 -3 -21
-10 -19 -18 6 -23 59 -6 69 7 5 21 6 31 3 9 -3 17 -1 17 4 0 12 -54 32 -86 32
-29 0 -58 41 -49 70 4 11 2 20 -4 20 -6 0 -11 -7 -11 -15 0 -8 -4 -15 -10 -15
-23 0 -4 83 27 116 31 33 21 45 -12 14 -14 -13 -25 -19 -25 -13 0 12 85 93 98
93 5 0 16 -8 25 -18z m1147 -10 c-46 -6 -40 -18 8 -16 56 1 72 -9 72 -46 0
-24 -4 -28 -40 -33 -48 -6 -94 -33 -84 -49 5 -8 10 -7 18 3 13 16 66 42 73 35
3 -2 -12 -12 -32 -21 -19 -10 -42 -27 -50 -39 -18 -24 -20 -62 -4 -72 7 -4 9
1 7 12 -7 28 19 72 51 88 16 9 31 12 35 9 3 -4 6 -1 6 5 0 7 11 12 25 12 14 0
25 -4 25 -10 0 -5 -7 -10 -15 -10 -9 0 -27 -11 -41 -25 -20 -20 -25 -34 -22
-63 2 -35 1 -37 -26 -34 -16 2 -36 -4 -47 -14 -11 -9 -21 -15 -24 -13 -6 7
-35 120 -35 139 0 8 -5 32 -11 54 -10 37 -12 38 -45 33 -19 -3 -34 -2 -34 4 0
8 23 14 44 10 5 -1 15 7 23 19 8 11 18 18 23 15 5 -3 12 0 15 6 4 5 13 8 20 5
7 -2 26 -1 42 3 15 5 33 5 38 2 6 -3 -1 -7 -15 -9z m-125 -99 c3 -21 12 -67
20 -103 8 -36 15 -70 15 -75 0 -9 -61 -39 -65 -32 -1 1 -9 52 -18 112 -15 101
-15 111 1 123 27 21 41 14 47 -25z m-115 0 c-19 -8 -38 -21 -43 -28 -4 -7 -26
-17 -50 -21 -23 -4 -37 -9 -30 -11 16 -6 93 16 93 26 0 7 43 31 55 31 14 0 2
-18 -17 -29 l-23 -12 23 5 c18 3 22 0 22 -20 0 -16 -6 -24 -17 -25 -17 -1 -17
-2 0 -6 10 -3 17 -14 17 -27 0 -17 -9 -26 -32 -34 l-33 -12 33 5 c24 3 32 1
32 -10 0 -8 -6 -15 -14 -15 -8 0 -18 -5 -21 -10 -4 -7 2 -9 18 -5 19 5 25 2
30 -15 3 -12 0 -23 -6 -25 -7 -1 -41 -12 -77 -23 -36 -12 -78 -22 -95 -24 -26
-3 -30 1 -36 27 -4 17 -7 71 -8 122 l-1 91 48 11 c26 5 67 19 92 30 25 11 52
20 60 20 8 0 -1 -7 -20 -16z m-1044 -90 c11 -29 22 -43 34 -43 9 0 23 -7 30
-15 7 -8 22 -15 33 -15 15 0 18 -3 10 -11 -6 -6 -8 -29 -6 -53 5 -40 3 -44
-26 -59 -17 -8 -29 -12 -28 -8 1 5 -13 22 -30 38 -19 17 -33 25 -33 18 0 -7
12 -23 28 -34 15 -11 22 -21 16 -21 -7 0 -22 8 -34 18 -24 20 -41 102 -21 102
7 0 9 5 5 11 -4 8 1 9 17 4 24 -7 24 -6 -3 17 -32 28 -47 99 -26 122 11 12 13
11 16 -8 1 -11 10 -40 18 -63z m1486 20 c28 -17 30 -17 44 1 7 11 16 17 19 14
11 -11 -7 -34 -40 -52 -56 -30 -80 -62 -80 -107 0 -21 -3 -39 -7 -39 -8 0 -12
15 -9 37 1 6 -3 14 -9 18 -5 3 -10 -3 -10 -14 0 -33 11 -51 31 -51 10 0 19 -6
19 -14 0 -12 -8 -12 -52 1 -29 9 -71 16 -93 16 -22 0 -34 2 -27 4 6 3 12 9 12
15 0 6 -7 8 -15 4 -16 -6 -20 11 -6 33 7 11 11 10 20 -5 10 -18 10 -18 11 2 0
22 24 39 41 28 5 -3 9 2 9 10 0 8 6 13 13 11 8 -4 12 6 12 31 0 21 6 39 13 41
7 3 12 -4 12 -16 0 -12 4 -21 9 -21 5 0 7 10 4 21 -4 15 0 27 12 35 24 18 31
18 67 -3z m-642 -55 c0 -35 3 -90 7 -123 8 -59 9 -60 38 -57 19 2 34 -3 43
-15 13 -17 14 -17 8 3 -6 21 -1 23 84 49 3 1 13 5 23 10 21 9 28 4 30 -24 1
-11 5 -21 10 -21 5 0 4 -7 -3 -15 -10 -12 -9 -15 4 -15 13 0 16 -5 10 -22 -8
-27 -22 -38 -49 -38 -11 0 -27 -5 -35 -11 -11 -8 -5 -9 23 -4 21 3 45 9 53 12
9 3 14 -2 14 -15 0 -24 -16 -38 -53 -47 -15 -4 -29 -11 -32 -15 -3 -4 16 -2
41 6 35 10 45 11 41 1 -2 -6 -13 -13 -25 -15 -12 -2 -22 -7 -22 -12 0 -6 11
-5 26 0 14 6 29 8 34 5 4 -2 8 -34 8 -70 0 -62 -2 -65 -32 -83 -30 -18 -167
-65 -172 -59 -7 8 -32 218 -27 235 5 22 12 25 71 37 18 4 31 9 29 12 -3 3 -31
0 -61 -7 -40 -8 -56 -16 -57 -28 -3 -30 2 -115 10 -180 5 -44 4 -65 -3 -67
-77 -19 -102 -23 -109 -16 -4 4 -10 60 -14 124 -6 119 -18 157 -44 142 -13 -8
-21 -10 -99 -19 -19 -2 -42 -6 -50 -9 -8 -3 -27 -7 -42 -10 -32 -5 -38 6 -38
67 l0 43 78 11 c113 16 145 23 161 36 11 9 12 34 7 128 -7 132 -13 124 102
137 9 1 12 -17 12 -61z m-136 -66 c4 -56 6 -108 3 -116 -5 -13 -76 -29 -183
-41 l-51 -5 -7 92 c-4 51 -8 104 -9 118 -2 23 2 25 63 32 36 4 84 12 105 17
69 16 69 16 79 -97z m1199 -181 c56 -30 125 -10 154 45 40 78 43 63 43 -254
l0 -300 -22 -5 c-24 -7 -38 7 -38 37 0 52 -80 136 -128 136 -9 0 -1 -8 18 -17
38 -18 51 -34 62 -73 7 -24 7 -24 -8 -5 -14 18 -14 17 -8 -25 l6 -45 -34 64
c-20 36 -44 68 -56 72 -11 4 -23 12 -27 18 -7 13 -36 0 -66 -30 -26 -26 -24
-31 9 -27 16 2 27 9 27 18 0 24 31 28 58 8 15 -12 15 -17 0 -60 -12 -37 -20
-48 -37 -48 -19 -1 -19 -2 -4 -13 11 -9 17 -31 19 -67 1 -30 6 -64 12 -74 8
-16 6 -18 -8 -13 -13 6 -13 2 4 -19 22 -28 28 -50 11 -39 -13 8 -13 4 4 -36
17 -41 9 -93 -29 -194 -72 -191 -75 -226 -19 -310 30 -45 38 -66 38 -105 0
-43 -4 -54 -34 -85 -19 -19 -41 -35 -49 -35 -12 0 -13 -2 -3 -8 10 -7 9 -23
-2 -83 -38 -199 -42 -251 -21 -316 6 -17 3 -23 -9 -23 -8 0 -43 40 -77 91
l-61 92 -7 96 c-6 93 4 201 27 284 9 33 9 37 -4 26 -8 -6 -14 -19 -14 -27 0
-36 -21 7 -34 70 -14 65 -13 77 14 191 6 23 13 57 17 75 5 31 8 33 36 28 36
-7 31 -1 -15 22 -25 13 -34 24 -36 48 -4 45 27 69 91 69 31 0 52 5 54 13 3 8
-11 12 -49 13 -29 0 -62 2 -73 4 -22 4 -149 47 -177 59 -11 5 -18 4 -18 -3 0
-6 5 -11 10 -11 17 0 11 -16 -15 -44 -30 -33 -45 -33 -45 -1 0 13 -10 34 -22
46 l-23 21 45 -6 c57 -7 51 -5 -99 42 l-124 40 -41 -19 c-23 -10 -51 -19 -63
-19 -13 0 -23 -4 -23 -10 0 -16 26 -12 74 12 l44 21 90 -29 90 -29 -25 -23
c-18 -17 -23 -29 -19 -47 8 -32 -9 -40 -40 -20 -14 9 -28 14 -31 12 -12 -12
48 -39 73 -33 22 6 25 11 19 35 -8 36 16 59 35 36 10 -12 10 -19 2 -27 -17
-17 -15 -26 7 -38 26 -14 70 3 98 38 11 15 24 24 27 21 4 -4 -13 -26 -36 -50
-60 -60 -74 -90 -60 -126 12 -30 15 -52 13 -95 -1 -32 -24 -38 -40 -10 -10 16
-10 16 -11 -1 0 -13 -6 -17 -22 -15 -21 3 -23 8 -23 68 0 74 -19 124 -52 139
-31 14 -29 5 5 -24 27 -23 27 -24 7 -39 -32 -24 -52 -20 -58 14 -10 47 -77 55
-77 9 0 -28 -36 -24 -56 6 -19 30 -39 34 -24 5 10 -19 59 -50 78 -50 5 0 12
13 15 30 5 21 11 28 22 24 17 -7 21 -44 4 -44 -5 0 -8 -4 -5 -9 10 -16 61 -19
94 -5 18 7 30 9 27 4 -11 -17 -65 -41 -76 -34 -6 4 -15 0 -20 -7 -12 -19 -11
-102 1 -135 13 -32 0 -51 -49 -71 -23 -10 -37 -11 -44 -4 -7 7 -4 12 9 17 68
23 72 27 61 53 -21 51 -33 56 -52 25 -15 -27 -16 -28 -10 -4 10 41 16 138 7
110 -9 -27 -30 -30 -102 -16 l-35 7 40 -21 c48 -25 60 -36 47 -44 -6 -3 -17 1
-26 9 -8 8 -27 18 -43 21 -25 4 -31 0 -56 -40 -16 -25 -31 -46 -33 -46 -8 0
10 36 29 58 11 12 15 22 9 22 -7 0 -12 5 -12 11 0 5 4 8 9 5 5 -3 14 1 21 9
15 18 7 19 -21 5 -15 -8 -19 -7 -19 3 0 8 -9 17 -20 20 -17 4 -20 14 -20 57 0
43 6 61 33 99 47 66 54 80 20 46 -67 -69 -72 -85 -57 -208 5 -40 8 -46 20 -36
21 17 29 3 15 -23 -9 -19 -11 -19 -6 -3 5 20 5 20 -10 1 -8 -11 -15 -36 -15
-56 0 -20 -5 -41 -12 -48 -9 -9 -7 -12 10 -12 12 0 22 -6 22 -14 0 -7 7 -19
15 -26 23 -19 12 -22 -19 -6 -18 9 -23 16 -14 19 7 3 -3 6 -23 6 -33 1 -79 28
-79 46 0 4 11 4 24 1 14 -3 27 -2 31 4 3 5 12 7 20 4 11 -5 12 0 5 26 -5 17
-6 38 -3 46 3 9 0 12 -9 9 -10 -4 -13 -17 -10 -42 3 -27 1 -34 -9 -31 -17 6
-26 44 -29 128 -4 106 -9 118 -78 183 -10 9 -25 35 -32 57 -8 23 -20 40 -28
40 -9 0 -24 8 -35 18 -16 13 -19 14 -15 2 2 -8 15 -20 27 -26 13 -7 34 -34 47
-62 13 -28 32 -53 42 -57 22 -6 37 -33 51 -90 15 -55 15 -55 -18 -55 -33 0
-51 17 -27 26 25 10 18 42 -12 58 -16 8 -33 11 -38 8 -17 -11 -24 -55 -11 -71
10 -11 9 -13 -3 -8 -8 4 -23 10 -33 13 -10 4 -16 12 -13 19 2 7 8 33 11 59 4
25 11 49 16 52 12 7 12 44 0 44 -5 0 -12 -6 -15 -12 -5 -10 -7 -10 -12 0 -4 9
-19 2 -51 -24 -42 -35 -45 -35 -50 -15 -13 52 -43 -6 -43 -84 0 -30 -3 -55 -7
-55 -8 1 -53 89 -53 103 0 4 -10 21 -21 37 -25 33 -33 123 -17 178 6 18 7 48
4 65 -5 27 -15 36 -56 55 l-50 23 -30 -22 c-16 -13 -30 -24 -30 -25 0 -7 33
-34 41 -34 16 0 9 28 -8 32 -14 2 -12 6 8 20 25 16 27 15 52 -8 17 -15 32 -21
43 -17 15 6 16 1 9 -38 -14 -76 -7 -201 14 -229 32 -45 32 -49 9 -42 -22 5
-22 5 -6 -12 17 -17 23 -40 32 -126 14 -131 18 -166 23 -180 7 -20 52 200 53
265 2 55 17 119 19 78 2 -33 15 -35 42 -7 13 14 32 30 41 35 14 8 16 6 12 -8
-5 -17 -5 -17 9 -1 8 10 17 15 20 12 4 -4 -7 -23 -23 -43 -35 -41 -40 -63 -9
-35 22 19 22 19 10 -4 -6 -12 -11 -28 -9 -35 3 -17 -28 -73 -45 -80 -9 -3 -18
-37 -26 -94 -12 -96 -31 -173 -42 -173 -4 0 -5 -9 -2 -20 6 -22 -34 -93 -48
-84 -5 3 -9 0 -9 -5 0 -14 23 -14 37 0 26 26 27 -123 1 -226 -10 -40 -109
-165 -130 -165 -6 0 -17 -8 -24 -17 -12 -16 -13 -9 -14 51 l0 69 30 -7 c19 -3
29 -2 25 4 -3 6 -18 10 -33 11 -29 1 -24 3 20 13 16 4 28 11 28 17 0 6 -4 7
-10 4 -19 -12 -82 7 -87 26 -7 26 -20 24 -25 -5 -3 -15 1 -27 13 -34 13 -9 17
-27 18 -92 1 -44 2 -84 4 -88 5 -17 -31 -50 -57 -53 -25 -4 -30 0 -33 23 -3
23 0 28 19 29 l23 2 -22 4 c-13 2 -23 9 -23 14 0 5 11 7 25 3 32 -8 32 4 0 16
-14 5 -25 14 -25 20 0 6 9 6 26 0 31 -12 34 -12 34 -1 0 5 -13 11 -30 15 -24
4 -30 11 -30 32 0 19 4 25 15 20 8 -3 15 -1 15 4 0 6 -7 10 -15 10 -8 0 -15 5
-15 10 0 6 8 10 18 10 16 1 16 1 -1 11 -9 5 -17 15 -17 20 0 6 5 7 10 4 6 -3
10 1 10 10 0 11 -5 15 -14 12 -28 -11 -29 57 -1 136 14 40 25 87 25 103 0 44
-24 122 -55 183 -24 48 -28 70 -32 168 -5 109 -5 114 19 145 23 31 29 33 76
31 55 -3 48 -11 78 96 l15 54 -56 53 c-30 29 -55 58 -55 64 0 7 -8 9 -20 5
-21 -7 -28 10 -7 18 8 4 6 6 -4 6 -9 1 -36 -14 -59 -32 -43 -32 -43 -33 -46
-106 -3 -46 0 -79 7 -87 6 -8 8 -14 3 -14 -5 -1 7 -9 26 -19 19 -11 38 -17 42
-14 16 9 7 -17 -17 -53 -14 -20 -25 -43 -25 -50 0 -19 -30 -18 -68 2 -36 17
-42 43 -13 51 26 7 32 25 20 66 -10 37 -32 49 -66 36 -17 -6 -20 -13 -15 -31
l7 -23 3 23 c7 48 62 15 62 -37 0 -16 -6 -21 -27 -20 -61 3 -58 -7 -60 195
l-3 186 33 39 c38 46 63 50 72 11 7 -36 37 -54 102 -63 57 -8 111 11 138 48 7
10 15 16 17 13 3 -3 15 -20 28 -39 38 -55 108 -75 163 -47 15 8 27 11 27 6 0
-11 75 -40 103 -39 12 0 1 6 -26 13 -26 7 -55 20 -66 30 -17 16 -20 16 -48 0
-21 -12 -37 -15 -59 -9 -24 7 -26 9 -9 13 11 2 34 15 51 27 28 22 32 22 47 8
8 -9 33 -18 54 -20 126 -14 126 -14 107 -34 -25 -28 -1 -23 25 5 12 13 37 26
55 29 19 3 46 18 61 33 19 18 21 25 8 19 -29 -12 -97 -6 -109 10 -16 22 -27
18 -49 -18 -17 -26 -27 -32 -60 -34 -25 -1 -56 6 -82 20 l-43 22 -15 -22 c-9
-12 -32 -27 -53 -33 -40 -11 -39 -11 -94 62 l-18 23 -23 -27 c-23 -28 -51 -36
-62 -18 -3 5 -19 7 -35 4 -23 -5 -34 -1 -52 19 -23 25 -24 25 -36 6 -17 -27
-26 -24 -39 12 -10 26 -16 30 -35 24 -13 -4 -33 -18 -44 -32 l-22 -25 -7 183
c-3 101 -5 219 -3 263 l3 78 60 5 c32 2 65 9 72 15 7 6 13 9 14 7 0 -2 2 -13
4 -23 10 -51 66 -96 123 -96 22 0 32 -5 32 -15 0 -8 15 -24 33 -36 42 -26 108
-21 143 12 13 12 25 21 25 18 1 -2 5 -78 8 -169 l6 -165 69 -3 c63 -3 154 10
271 38 22 5 78 16 124 25 46 9 103 26 125 37 l41 20 -25 -28 c-14 -15 -31 -34
-37 -42 -20 -21 -15 -38 19 -67 32 -27 36 -27 124 -22 138 8 231 43 269 101
19 29 8 61 -25 71 -11 3 -20 11 -20 16 0 5 -6 9 -13 9 -19 0 -71 46 -64 57 3
4 -1 19 -9 33 -8 15 -13 19 -14 10 0 -13 -1 -13 -10 0 -25 38 -1 52 131 74 48
8 103 23 123 33 30 14 41 15 56 5 24 -15 57 -16 65 -1 4 5 17 9 28 8 40 -3 47
1 57 26 5 14 16 25 23 25 7 0 24 14 36 31 l23 31 18 -38 c9 -22 29 -45 43 -53z
m-1164 -236 c8 -90 8 -121 -1 -126 -25 -16 -230 -30 -242 -18 -3 3 -6 56 -7
118 -2 82 1 115 11 121 23 14 210 40 222 30 4 -3 11 -59 17 -125z m1361 -295
c0 -5 -6 -10 -12 -10 -10 0 -10 -2 -1 -8 17 -11 21 -369 5 -399 -7 -13 -17
-23 -22 -23 -18 0 -10 31 11 49 19 15 20 21 10 58 -17 63 -64 70 -89 13 -12
-26 -12 -34 2 -55 9 -14 21 -25 26 -25 22 0 8 -26 -18 -36 -29 -11 -29 -10
-41 36 -10 40 -10 54 3 85 9 22 16 67 16 107 0 68 32 174 50 163 4 -2 5 6 3
19 -5 24 -4 25 50 35 4 0 7 -3 7 -9z m-537 -277 c31 -6 31 -6 16 -48 -10 -26
-9 -38 5 -65 21 -43 21 -109 0 -117 -13 -5 -13 -7 -2 -14 8 -5 -23 -9 -74 -9
-52 0 -88 4 -88 10 0 6 17 11 38 12 l37 1 -36 4 c-26 3 -38 10 -42 23 -4 16 2
20 37 23 l41 4 -47 1 c-43 2 -48 5 -48 25 0 39 17 51 77 58 l58 7 -58 -1 c-31
-1 -57 1 -57 5 0 4 13 16 28 26 15 11 34 32 42 47 9 17 19 24 29 20 9 -4 28
-9 44 -12z m539 -285 c-4 -36 -37 -94 -72 -128 -16 -15 -70 -89 -70 -95 0 -5
9 0 20 10 33 30 22 6 -15 -33 -34 -36 -45 -57 -26 -50 13 5 151 177 151 189 0
6 -4 7 -10 4 -15 -9 -12 11 4 24 18 15 28 -19 16 -59 -8 -29 -186 -260 -200
-260 -4 0 -13 6 -19 14 -8 10 -7 21 5 46 12 24 15 46 10 87 -4 38 -3 52 4 48
13 -8 39 23 40 46 0 15 30 23 30 8 0 -5 -14 -24 -31 -44 -18 -20 -29 -39 -25
-42 3 -3 7 -4 9 -2 1 2 19 24 38 49 46 59 129 179 129 187 0 3 -10 -2 -22 -13
-21 -19 -19 -13 12 34 21 32 26 28 22 -20z m-1406 -25 c2 -13 19 -30 37 -39
17 -9 46 -32 64 -50 20 -22 41 -34 58 -34 16 0 38 -12 56 -29 l29 -29 0 29 c0
32 23 40 35 12 7 -16 9 -15 14 5 l6 24 28 -26 c26 -24 34 -26 79 -20 36 5 46
9 35 15 -9 6 -27 5 -43 -1 -15 -6 -29 -8 -32 -5 -12 12 13 19 114 30 52 5 57
4 42 -8 -26 -21 -22 -28 7 -15 14 6 25 15 25 19 0 4 10 9 22 11 16 2 27 16 40
48 9 25 17 37 17 27 1 -11 10 -21 21 -24 11 -3 17 -9 14 -14 -3 -5 0 -9 7 -9
10 0 10 -3 2 -11 -6 -6 -9 -18 -6 -25 3 -10 -3 -14 -20 -14 -19 0 -35 -13 -61
-49 -39 -52 -58 -65 -73 -50 -7 7 -16 5 -27 -6 -9 -9 -16 -11 -16 -5 0 6 -5 8
-10 5 -5 -3 -10 -15 -10 -25 0 -10 -9 -22 -20 -25 -46 -15 -52 -42 -46 -210 6
-155 6 -156 -16 -165 -13 -5 -21 -9 -18 -10 3 -1 88 -4 190 -7 180 -4 199 -8
200 -38 0 -9 -791 -11 -882 -2 -25 2 -20 10 104 160 128 155 131 158 167 155
25 -2 37 -8 39 -21 3 -15 0 -18 -16 -13 -13 5 -29 -1 -46 -16 -26 -23 -146
-204 -146 -220 0 -4 71 -8 157 -8 86 0 153 3 149 8 -4 4 -15 7 -24 8 -10 1
-27 2 -39 3 -36 2 -57 125 -31 189 13 33 17 182 5 182 -5 0 -7 5 -5 12 5 13
-46 68 -62 68 -6 0 -10 4 -10 9 0 5 -18 22 -39 38 -22 15 -49 44 -60 64 -23
40 -42 52 -68 42 -12 -5 -15 -2 -10 9 3 9 -3 24 -14 34 -23 21 -10 34 34 34
21 0 30 6 35 23 6 20 6 21 9 2 2 -11 6 -30 9 -42z m879 -25 c-4 -24 -9 -46
-11 -49 -6 -10 -65 0 -81 12 -10 9 -18 8 -33 -6 -19 -17 -24 -16 -17 3 1 4
-18 9 -43 12 -30 3 -45 10 -46 20 -1 8 -2 19 -3 23 -2 17 -41 -15 -41 -34 0
-17 -5 -19 -37 -15 l-38 6 33 -12 c17 -6 32 -14 32 -18 0 -12 -49 -30 -55 -20
-3 4 3 10 12 13 17 4 17 4 -1 12 -10 5 -21 4 -25 -3 -3 -6 -20 -13 -36 -16
l-30 -7 32 17 c28 15 31 20 26 51 -4 22 -1 38 6 43 7 4 91 8 188 9 l175 2 -7
-43z m-42 -65 c20 -3 37 -10 37 -14 0 -11 -61 -12 -92 -1 -13 5 -34 6 -48 2
-23 -6 -23 -7 10 -13 19 -3 56 -9 83 -13 38 -5 47 -10 47 -26 0 -19 -4 -20
-57 -12 -78 10 -107 11 -113 1 -3 -5 15 -10 40 -12 84 -5 150 -17 150 -27 0
-5 -8 -7 -17 -4 -40 11 -209 8 -240 -5 -33 -13 -50 -9 -38 10 3 6 19 11 35 11
16 0 32 5 35 10 4 6 -5 10 -19 10 -14 0 -26 4 -26 10 0 9 18 15 65 22 11 2 20
10 21 18 2 35 5 41 14 35 5 -3 18 -1 27 4 10 6 25 8 33 5 8 -3 32 -8 53 -11z
m-1519 -120 c31 -32 54 -50 50 -40 -3 9 -4 17 -1 17 9 0 52 -44 81 -83 30 -39
23 -57 -9 -27 -12 12 -27 20 -33 18 -6 -2 -25 13 -42 32 -42 47 -26 17 22 -41
21 -26 38 -53 38 -60 0 -7 -3 -10 -6 -7 -3 3 -24 -14 -46 -38 -22 -24 -44 -44
-48 -44 -12 0 -72 90 -68 102 2 6 17 -10 34 -35 26 -41 44 -58 44 -41 0 3 -21
34 -46 70 -25 35 -41 64 -36 64 5 0 24 -22 42 -49 30 -47 60 -81 60 -67 0 4
-25 42 -55 85 -51 73 -54 80 -48 122 3 24 5 52 5 62 0 9 1 17 3 17 2 0 29 -26
59 -57z m1596 -57 c0 -11 -23 -14 -107 -15 -59 -1 -109 -3 -111 -5 -3 -3 159
-245 195 -291 5 -6 39 -56 76 -113 l68 -103 -52 3 -52 3 -72 130 c-124 225
-137 248 -176 317 -22 36 -39 71 -39 77 0 7 45 11 135 11 108 0 135 -3 135
-14z m-861 -53 c-12 -16 -162 -187 -250 -285 -33 -37 -35 -44 -31 -91 2 -29
-1 -63 -6 -77 -7 -18 -8 -6 -4 45 5 67 4 69 -14 55 -19 -15 -57 -57 -91 -99
-17 -21 -73 -39 -73 -23 0 13 54 84 71 93 10 5 56 53 102 107 46 53 119 132
161 175 l76 77 -80 1 c-106 2 -104 1 -108 22 -3 15 8 17 128 17 125 0 132 -1
119 -17z m1270 -207 c76 -75 84 -86 86 -124 1 -23 0 -42 -2 -42 -5 0 -35 33
-88 97 -22 26 -62 73 -90 103 -104 116 -99 108 -86 124 11 13 19 8 54 -31 23
-25 80 -82 126 -127z m-1847 122 c-9 -24 -21 -50 -26 -59 -18 -26 -187 -201
-191 -197 -2 2 -5 25 -6 52 -3 42 1 52 24 70 l26 21 -24 30 c-13 17 -24 39
-25 50 0 14 7 9 27 -20 14 -22 27 -42 29 -43 5 -7 33 14 99 76 37 34 71 62 75
62 5 0 1 -19 -8 -42z m1179 -15 c4 -4 31 -53 60 -108 28 -55 62 -119 75 -142
30 -52 30 -61 0 -56 -19 4 -35 30 -86 139 l-63 134 -81 2 c-45 1 -98 2 -119 3
-27 0 -37 4 -37 16 0 9 2 18 4 20 8 8 239 0 247 -8z m757 -532 l-3 -136 -435
0 c-239 0 -722 -2 -1073 -4 -351 -2 -641 0 -645 4 -12 12 -2 259 11 267 7 4
477 8 1046 8 569 0 1036 2 1038 3 1 2 17 2 33 -1 l31 -4 -3 -137z"/>
<path d="M1550 1858 c0 -4 5 -18 11 -32 10 -20 9 -28 -5 -42 -19 -19 -18 -20
-41 26 -10 19 -20 29 -23 22 -2 -7 3 -24 12 -37 21 -32 20 -42 -4 -48 -11 -3
-20 0 -20 6 0 7 -10 26 -21 42 -20 29 -21 29 -16 5 2 -14 8 -33 12 -42 5 -14
2 -18 -13 -18 -21 0 -32 18 -32 51 0 10 -5 19 -11 19 -8 0 -10 -12 -6 -36 l6
-36 -52 6 c-29 3 -55 6 -59 6 -5 0 -8 11 -8 25 0 14 -4 25 -10 25 -5 0 -10 -9
-10 -20 0 -14 -7 -20 -21 -20 -16 0 -20 5 -16 20 3 11 1 23 -4 26 -5 3 -9 -1
-9 -8 0 -16 -41 -19 -95 -8 -22 5 -52 11 -67 15 -16 3 -28 1 -28 -4 0 -4 23
-11 50 -15 42 -6 52 -11 60 -32 12 -30 38 -59 47 -51 3 3 -2 14 -11 23 -32 32
-8 25 46 -12 51 -36 59 -39 198 -56 80 -10 150 -16 155 -14 6 3 0 5 -13 5 -12
1 -26 9 -29 19 -4 9 -13 23 -20 30 -18 18 -16 25 7 40 17 10 21 8 36 -19 13
-26 14 -33 2 -40 -9 -6 -7 -9 8 -9 13 0 24 -8 27 -20 4 -14 10 -18 23 -13 11
4 13 8 6 11 -7 2 -12 10 -12 18 0 8 -3 14 -8 14 -4 0 -16 15 -26 34 -15 29
-16 37 -4 55 14 23 34 28 41 9 2 -7 4 2 3 19 -1 18 -5 31 -11 30 -5 -2 -17 6
-27 17 -10 12 -17 18 -18 14z"/>
<path d="M1857 1849 c-10 -6 -17 -22 -17 -38 0 -15 -6 -36 -14 -46 -8 -11 -12
-25 -9 -32 8 -19 -5 -16 -64 17 -29 17 -58 30 -65 30 -7 0 -22 12 -34 28 -30
37 -39 24 -11 -16 14 -21 28 -31 39 -28 10 2 35 -7 55 -21 22 -15 59 -28 88
-32 38 -5 51 -11 53 -24 3 -16 0 -18 -20 -12 -17 5 -19 4 -8 -4 8 -5 12 -12
10 -15 -3 -2 -56 -6 -117 -7 -62 -2 -113 -7 -113 -11 0 -5 52 -8 116 -7 89 1
118 -2 125 -12 7 -11 -11 -15 -94 -20 l-102 -5 105 -2 c58 -1 116 -5 130 -7
l25 -6 -24 11 c-21 9 -23 15 -18 55 7 47 -2 64 -49 91 -18 10 -18 12 -1 28 9
10 17 30 17 46 0 16 6 30 13 33 6 2 10 7 7 10 -3 3 -13 1 -23 -4z"/>
<path d="M1704 289 c-2 -4 0 -10 6 -14 15 -9 13 -142 -2 -148 -7 -3 2 -6 20
-6 22 -1 31 3 26 10 -8 14 -13 81 -7 92 3 4 14 -5 25 -20 46 -60 70 -81 89
-76 17 5 19 15 19 89 0 80 -1 84 -22 84 -22 0 -23 -4 -20 -57 l3 -58 -21 25
c-11 14 -28 37 -37 52 -16 25 -68 44 -79 27z"/>
<path d="M754 283 c-19 -4 -20 -11 -20 -88 l1 -85 38 0 c62 0 105 26 113 67 9
47 -9 81 -51 99 -34 14 -42 15 -81 7z"/>
<path d="M1290 287 c0 -1 -2 -41 -3 -89 -2 -75 0 -88 15 -92 16 -4 17 1 12 37
-3 23 -7 52 -10 65 -6 32 11 27 42 -13 14 -19 30 -35 35 -35 4 0 20 17 34 37
l25 38 0 -58 c0 -55 1 -57 26 -57 23 0 25 2 14 15 -9 11 -11 37 -8 85 5 68 5
70 -18 70 -13 0 -23 -4 -21 -8 3 -11 -36 -82 -45 -82 -4 0 -19 18 -34 39 -14
21 -34 41 -45 44 -10 3 -19 4 -19 4z"/>
</g>
</svg>
