<?xml version="1.0" standalone="no"?>
<!DOCTYPE svg PUBLIC "-//W3C//DTD SVG 20010904//EN"
 "http://www.w3.org/TR/2001/REC-SVG-20010904/DTD/svg10.dtd">
<svg version="1.0" xmlns="http://www.w3.org/2000/svg"
 width="233.000000pt" height="400.000000pt" viewBox="0 0 233.000000 400.000000"
 preserveAspectRatio="xMidYMid meet">
<metadata>
Created by potrace 1.15, written by Peter Selinger 2001-2017
</metadata>
<g transform="translate(0.000000,400.000000) scale(0.100000,-0.100000)"
fill="#000000" stroke="none">
<path d="M1470 3963 c-30 -2 -360 -4 -732 -5 -372 -2 -680 -7 -685 -11 -10
-11 -4 -3899 7 -3910 7 -8 1075 6 1365 18 61 2 271 4 468 5 l358 0 -1 1883 c0
1035 -3 1915 -7 1955 l-6 72 -356 -2 c-196 -1 -381 -3 -411 -5z m750 -24 c3
-4 7 -637 9 -1406 1 -769 3 -1428 5 -1466 2 -70 1 -73 -24 -57 -11 7 -14 25
-12 75 3 54 1 65 -12 65 -14 0 -16 24 -16 200 0 187 1 202 20 222 23 25 26 48
6 48 -8 0 -16 6 -19 14 -4 11 -11 2265 -8 2319 1 10 44 -2 51 -14z m-375 -27
c-1 -20 -6 -46 -13 -58 -25 -47 -208 -187 -317 -242 -112 -56 -305 -88 -484
-79 -82 4 -125 11 -191 35 -135 47 -336 148 -386 194 -44 40 -44 41 -44 108 0
36 2 69 5 72 3 3 326 6 719 6 l713 2 -2 -38z m38 -24 c15 -9 27 0 26 20 0 14
-2 13 -9 -3 -7 -16 -9 -17 -9 -3 -1 9 -4 23 -7 32 -5 14 10 16 130 16 114 0
136 -2 136 -15 0 -8 -4 -15 -10 -15 -5 0 -11 -26 -11 -57 l-2 -58 -6 52 c-20
167 -21 -60 -1 -307 l8 -95 1 130 c1 133 10 302 16 320 2 6 5 -298 6 -675 4
-962 4 -1009 0 -1005 -2 2 -7 19 -11 37 l-8 33 -1 -37 c-1 -21 -5 -38 -11 -38
-6 0 -9 -38 -8 -97 l2 -98 6 70 6 70 4 -85 4 -85 5 70 c5 52 8 64 13 45 11
-37 10 -140 -2 -140 -5 0 -10 -22 -10 -50 0 -27 5 -50 10 -50 6 0 10 -21 10
-47 0 -35 -3 -44 -10 -33 -5 8 -10 28 -10 43 0 16 -7 35 -15 43 -10 10 -13 28
-10 52 2 22 -1 39 -8 44 -9 6 -8 10 3 18 13 8 13 10 -2 10 -9 0 -20 -4 -23
-10 -3 -5 -28 -10 -55 -10 -58 0 -62 7 -57 107 3 72 11 86 33 55 8 -12 20 -20
25 -17 13 8 11 42 -2 51 -8 4 -9 -1 -5 -17 5 -17 4 -19 -2 -9 -5 8 -12 39 -15
68 -5 40 -16 66 -42 103 -20 27 -41 49 -46 49 -5 0 -9 7 -9 15 0 8 -10 29 -23
47 l-22 34 -2 744 c0 410 1 732 4 715 3 -16 10 -33 16 -37z m-1788 -1346 c-1
-1118 -3 -1408 -14 -1450 -7 -31 -10 -64 -5 -80 4 -15 6 -32 5 -38 -1 -9 9 -9
39 -2 22 6 40 16 40 24 0 8 5 14 11 14 6 0 8 -9 4 -20 -4 -12 -2 -20 5 -20 7
0 14 9 17 20 5 18 14 20 79 20 43 0 74 -4 74 -10 0 -5 7 -10 16 -10 9 0 23 -8
30 -17 9 -12 13 -14 14 -5 0 15 20 6 20 -9 0 -9 -327 -13 -352 -4 -11 4 -13
246 -10 1403 1 768 2 1439 2 1490 0 67 3 92 13 92 9 0 12 -286 12 -1398z m38
1173 c-2 -142 1 -225 7 -225 6 0 10 84 10 225 l0 225 35 0 c19 0 35 -4 35 -10
0 -5 -4 -10 -10 -10 -5 0 -10 -4 -10 -10 0 -18 18 -11 25 10 9 29 25 25 26 -7
l2 -28 4 28 c3 21 10 27 28 27 28 0 42 -17 26 -33 -13 -13 -15 -127 -3 -127 5
0 9 24 9 54 0 29 3 58 7 65 12 19 36 12 36 -11 1 -13 2 -52 4 -88 2 -36 5
-200 7 -365 1 -165 6 -392 10 -505 5 -112 7 -206 5 -207 -2 -2 -11 -1 -20 3
-15 6 -16 58 -16 590 0 404 -3 584 -11 584 -7 0 -10 -178 -8 -581 1 -448 -1
-583 -11 -592 -9 -10 -11 97 -8 511 1 287 0 522 -3 522 -3 0 -9 -239 -13 -532
-4 -293 -8 -534 -10 -535 -5 -5 -51 -4 -85 3 -38 7 -51 -5 -51 -48 0 -36 32
-55 67 -39 13 6 38 11 56 11 27 -1 29 -2 14 -11 -19 -11 -25 -83 -7 -94 6 -3
10 -17 10 -31 0 -14 7 -33 16 -41 12 -13 14 -28 9 -70 l-6 -53 30 -6 c28 -6
31 -10 33 -48 2 -62 -3 -101 -13 -104 -5 -2 -9 -8 -9 -13 0 -6 5 -7 10 -4 6 4
11 -38 12 -117 3 -256 4 -278 11 -285 5 -4 7 124 5 285 -2 161 0 292 5 292 4
0 6 -201 5 -447 -1 -247 -5 -398 -8 -338 -8 146 -11 124 -10 -72 1 -107 -3
-163 -10 -163 -5 0 -10 -7 -10 -16 0 -8 5 -12 10 -9 6 4 10 -14 10 -47 0 -30
5 -59 12 -66 9 -9 9 -12 0 -12 -7 0 -12 -5 -12 -11 0 -5 4 -7 10 -4 5 3 10 1
10 -4 0 -7 -41 -11 -115 -11 l-115 0 -2 308 -3 307 -2 -307 c-2 -173 -7 -308
-12 -308 -5 0 -7 134 -4 320 4 247 3 320 -7 320 -9 0 -11 -39 -9 -157 4 -248
0 -483 -9 -483 -5 0 -9 262 -8 582 0 321 0 711 -2 868 -7 745 -2 1370 11 1370
9 0 11 -50 10 -225z m350 -105 c17 0 111 -72 113 -87 1 -8 6 -18 10 -21 4 -4
4 1 1 11 -9 23 2 22 45 -8 51 -34 114 -54 181 -56 31 -1 54 -6 51 -11 -3 -4 5
-4 18 0 13 5 37 5 53 1 27 -6 26 -9 -4 -13 -18 -2 -24 -16 -12 -30 8 -10 9
-16 1 -21 -5 -3 -10 -1 -10 4 0 6 -7 11 -15 11 -7 0 -19 8 -24 18 -10 16 -10
16 -11 0 0 -11 -5 -15 -15 -12 -10 4 -15 0 -16 -12 0 -15 -2 -15 -6 -4 -3 8
-12 18 -19 23 -7 4 -11 15 -8 25 5 15 4 14 -10 -2 -9 -12 -21 -16 -32 -12 -10
4 -21 1 -27 -6 -6 -9 -7 -6 -4 9 3 13 1 26 -4 29 -5 3 -9 1 -9 -3 0 -5 -9 -9
-20 -9 -11 0 -20 4 -20 8 0 4 -8 4 -17 1 -12 -5 -15 -2 -10 10 3 9 2 19 -3 22
-4 3 -13 -7 -19 -22 -8 -21 -10 -22 -7 -6 6 32 -12 39 -24 11 -10 -22 -10 -22
-5 3 3 20 -1 29 -19 39 -16 8 -22 18 -18 29 5 13 3 14 -10 3 -13 -10 -17 -9
-22 10 -7 22 -8 22 -15 4 -7 -19 -8 -18 -14 5 -6 20 -9 22 -18 9 -8 -12 -10
-9 -6 12 5 32 -20 28 -26 -5 -3 -17 -5 -16 -6 6 0 16 -8 35 -16 43 -8 9 -15
23 -15 32 0 12 7 9 28 -11 15 -15 31 -27 35 -27z m1131 -124 c-16 -19 -39 -38
-51 -42 -13 -3 -21 -10 -18 -14 3 -5 1 -11 -4 -14 -5 -4 -12 -2 -16 4 -11 17
-27 11 -21 -8 5 -14 -3 -23 -31 -39 -21 -11 -55 -30 -75 -42 -21 -13 -38 -18
-38 -13 0 6 5 12 11 14 7 2 9 13 4 26 -7 23 -32 25 -27 3 1 -8 -3 -8 -17 1
-19 11 -18 13 10 30 16 10 35 18 42 18 7 0 21 6 32 14 11 7 22 13 25 13 3 0
24 10 47 22 23 11 53 21 65 21 13 0 37 11 53 24 40 32 44 25 9 -18z m-1107
-21 c23 -25 49 -45 57 -45 9 0 33 -10 54 -23 45 -28 69 -38 103 -43 14 -2 39
-9 55 -15 16 -7 31 -13 34 -14 57 -19 163 -27 194 -15 18 7 26 6 26 -1 0 -8 4
-8 13 -2 17 14 67 25 67 15 0 -5 14 -7 30 -4 21 3 30 10 30 23 0 12 -6 17 -20
14 -11 -2 -20 0 -20 5 0 4 -3 17 -6 27 -6 15 -4 16 6 6 10 -9 17 -10 27 -1 11
8 12 7 7 -6 -3 -9 -1 -16 5 -16 7 0 16 10 21 23 9 22 9 22 11 -3 1 -18 3 -20
6 -7 4 14 8 16 19 6 21 -17 30 -3 10 16 -9 9 -16 18 -16 21 0 9 10 3 32 -19
13 -13 29 -22 35 -20 7 3 9 -4 6 -16 -6 -23 -19 -28 -26 -8 -3 9 -7 9 -20 -2
-9 -7 -24 -10 -33 -7 -12 5 -14 3 -7 -6 6 -9 4 -24 -7 -44 -14 -28 -21 -31
-58 -30 -23 0 -42 -2 -42 -5 0 -3 -17 -7 -37 -8 -21 -2 -46 -3 -55 -4 -10 -1
-18 -7 -18 -14 0 -7 -6 -13 -14 -13 -9 0 -13 -8 -10 -22 4 -21 4 -21 -6 2 -15
34 -31 42 -47 22 -11 -15 -12 -15 -10 7 2 28 -19 40 -26 14 -4 -15 -5 -15 -6
3 -1 28 -41 25 -52 -4 -12 -31 -16 -27 -11 10 4 26 2 30 -11 25 -9 -3 -19 -2
-22 3 -3 5 -14 8 -25 7 -18 -1 -24 -10 -21 -30 1 -4 -8 -3 -19 3 -23 12 -27
22 -5 14 11 -5 15 1 15 22 0 23 2 26 10 14 8 -13 10 -12 10 3 0 20 -4 21 -31
7 -13 -8 -19 -7 -19 0 0 6 -4 9 -9 5 -5 -3 -12 -1 -16 5 -3 5 -1 10 6 10 7 0
9 3 6 6 -11 12 -36 -17 -30 -34 4 -12 0 -11 -16 5 -23 25 -29 42 -7 24 19 -16
28 0 10 17 -8 7 -14 9 -14 5 0 -4 -4 -2 -9 5 -5 8 -20 15 -35 15 -14 1 -26 4
-26 7 0 3 -13 14 -30 23 -16 10 -33 29 -36 43 -3 13 -14 29 -23 34 -9 5 -12
10 -6 10 5 0 28 -20 52 -45z m1209 -167 c-6 -63 -15 -95 -51 -174 -29 -62 -32
-78 -28 -134 3 -38 1 -60 -4 -57 -5 4 -8 21 -5 39 5 32 5 32 -19 17 -13 -9
-26 -27 -30 -40 -3 -13 -10 -23 -16 -22 -16 3 -35 -45 -21 -53 6 -4 8 -3 5 2
-7 13 10 41 19 31 4 -4 8 -24 9 -44 1 -29 5 -37 17 -35 9 1 19 -2 23 -8 5 -8
11 -7 21 1 10 8 14 8 14 0 0 -6 -4 -11 -10 -11 -18 0 -10 -27 13 -43 22 -15
22 -15 -8 -13 -24 3 -30 8 -30 27 0 13 -4 25 -10 26 -5 1 -9 -5 -9 -13 3 -22
-11 -17 -22 9 -6 12 -9 17 -7 10 1 -7 -2 -15 -8 -18 -5 -4 -8 -1 -7 6 2 6 -3
14 -9 16 -7 3 -13 -2 -13 -11 0 -9 -4 -16 -10 -16 -13 0 -13 6 0 30 7 13 6 19
-5 24 -8 3 -15 11 -15 18 0 9 3 9 12 0 7 -7 17 -12 22 -12 6 0 1 7 -11 15 -12
8 -28 12 -36 9 -8 -3 -18 0 -23 7 -4 8 -3 10 4 5 18 -11 54 13 48 31 -4 9 -3
25 0 37 7 21 7 21 15 1 6 -13 6 -7 3 18 -4 22 -2 37 4 37 5 0 13 12 17 27 3
15 12 31 18 35 9 6 9 13 -1 29 -12 19 -11 20 7 14 21 -6 29 9 11 20 -16 10
-12 23 8 21 11 -1 16 5 14 17 -2 9 1 17 6 17 16 0 24 33 10 42 -10 6 -9 8 4 8
9 0 24 7 33 16 13 14 14 19 3 26 -9 6 -6 7 9 3 12 -3 24 -1 28 5 3 5 -1 10 -9
10 -19 0 -20 6 -3 25 21 24 28 17 23 -27z m-546 -187 c0 -25 5 -29 31 -33 27
-4 32 -1 41 24 11 30 25 35 51 16 23 -18 12 -58 -17 -59 -17 -1 -17 -2 -3 -6
9 -2 17 -9 17 -14 0 -5 -8 -10 -17 -10 -17 -1 -17 -2 0 -6 21 -5 22 -41 2 -67
-10 -13 -11 -25 -5 -42 6 -14 6 -26 0 -29 -6 -4 -10 -16 -10 -28 1 -22 1 -22
16 -2 8 11 13 30 11 43 -2 12 0 22 4 22 5 0 9 -34 9 -76 0 -52 3 -73 11 -68 8
4 8 0 0 -15 -13 -24 -26 -29 -17 -6 3 8 2 15 -2 15 -5 0 -6 17 -4 38 6 50 -4
38 -12 -16 -6 -38 -3 -46 21 -71 29 -29 41 -61 24 -61 -6 0 -8 -7 -5 -15 4 -8
2 -15 -3 -15 -17 0 -22 12 -13 31 14 25 2 53 -16 38 -10 -8 -14 -8 -14 0 0 6
5 11 10 11 6 0 2 8 -7 18 -10 11 -21 17 -24 16 -10 -5 -18 47 -13 81 l4 30
-15 -30 c-8 -16 -14 -35 -15 -42 0 -17 -55 -53 -80 -53 -13 0 -36 15 -54 35
-36 39 -52 46 -35 14 8 -16 8 -28 -2 -48 -7 -14 -12 -33 -10 -41 1 -11 -3 -10
-14 4 -8 11 -17 17 -21 14 -3 -3 11 -29 32 -57 47 -67 40 -76 -9 -11 -43 58
-49 91 -14 87 22 -2 22 0 22 104 -1 95 1 106 16 102 9 -3 19 -13 22 -24 6 -22
25 -24 51 -4 26 20 5 46 -35 41 -16 -2 -26 0 -24 4 7 12 155 12 155 1 0 -6 -7
-8 -15 -5 -29 11 -45 -14 -38 -62 5 -41 4 -44 -17 -44 -19 0 -20 -2 -10 -15
10 -13 9 -15 -8 -15 -12 0 -24 -5 -27 -10 -5 -7 7 -9 34 -6 46 5 53 0 19 -14
-22 -9 -22 -9 3 -9 26 -1 45 20 31 33 -7 8 -9 116 -1 116 3 0 11 -6 18 -12 10
-11 12 -10 9 1 -2 7 3 16 10 18 8 3 10 -1 5 -13 -4 -12 -3 -15 6 -9 7 4 11 18
8 31 -3 15 1 25 12 27 35 10 -187 6 -228 -4 -50 -11 -63 -5 -35 17 18 15 18
15 -3 9 -18 -5 -20 -2 -16 14 3 11 -4 35 -15 53 -19 32 -19 34 -1 52 21 22 49
15 49 -13 0 -26 12 -32 49 -25 26 5 31 11 31 34 0 35 6 40 52 40 35 0 38 -2
38 -29z m604 2 c4 -16 9 -36 13 -47 3 -12 1 -16 -6 -12 -13 8 -14 -3 -2 -22 7
-11 9 -11 14 2 9 23 27 20 27 -5 0 -26 -26 -55 -33 -36 -3 6 -5 -3 -4 -20 0
-29 2 -31 16 -21 10 8 9 5 -3 -9 -13 -16 -17 -31 -13 -52 5 -23 3 -29 -8 -25
-10 4 -12 0 -8 -15 3 -14 0 -23 -11 -27 -17 -7 -22 -34 -6 -34 6 0 10 -5 10
-11 0 -5 -4 -8 -9 -4 -5 3 -12 1 -16 -5 -3 -5 -1 -10 4 -10 6 0 11 -7 11 -15
0 -18 -20 -20 -21 -2 0 6 -2 23 -4 37 -1 14 1 33 6 42 7 13 4 18 -12 23 -12 4
-17 10 -12 14 20 13 21 48 1 60 -11 7 -17 15 -14 18 3 3 17 -2 31 -11 22 -14
24 -20 14 -32 -10 -12 -9 -17 1 -27 8 -8 11 -8 7 -1 -4 7 0 17 9 24 12 11 12
15 2 21 -10 7 -11 12 -1 28 9 14 9 22 2 27 -6 3 -8 17 -5 30 5 19 -2 32 -29
60 -43 43 -40 56 4 19 24 -21 31 -23 31 -11 0 9 -9 21 -20 28 -11 7 -20 17
-20 22 0 5 9 1 20 -9 18 -16 20 -16 20 -2 0 10 -4 17 -10 17 -5 0 -10 5 -10
10 0 22 28 8 34 -17z m-558 -391 c1 -7 2 -18 3 -26 0 -7 15 -16 31 -20 17 -3
29 -9 28 -13 -1 -5 3 -18 10 -30 11 -19 10 -23 -3 -23 -8 0 -15 -4 -15 -10 0
-5 -7 -7 -15 -4 -10 4 -15 0 -15 -11 0 -9 -5 -13 -10 -10 -7 4 -6 14 1 28 9
19 8 20 -3 6 -24 -29 -73 -31 -111 -4 -20 13 -38 20 -42 17 -4 -4 -5 -2 -3 5
2 6 -5 18 -15 25 -17 13 -17 15 5 39 17 18 30 24 43 19 10 -4 34 1 54 11 38
19 55 19 57 1z m164 -72 c0 -5 -4 -10 -10 -10 -5 0 -6 -7 -3 -17 4 -11 3 -14
-5 -9 -7 4 -12 3 -12 -3 0 -5 5 -13 10 -16 6 -4 8 -11 4 -16 -3 -6 -12 -2 -19
8 -8 10 -17 14 -22 9 -4 -5 -2 -11 5 -13 21 -8 13 -25 -8 -18 -12 4 -20 2 -20
-5 0 -6 -6 -10 -12 -8 -21 4 -68 -12 -68 -23 0 -6 14 -7 38 -3 20 4 44 7 52 7
8 0 22 5 30 12 26 21 110 65 125 65 8 0 15 -5 15 -11 0 -6 9 -8 20 -4 11 4 20
2 20 -4 0 -6 -4 -11 -10 -11 -16 0 -12 -27 5 -34 9 -3 15 0 15 9 0 17 16 20
25 5 3 -5 23 -10 43 -10 33 -1 83 -24 71 -33 -10 -10 -79 -15 -79 -6 0 5 7 9
15 9 8 0 15 5 15 10 0 12 -3 12 -24 4 -9 -3 -16 -12 -16 -20 0 -8 -4 -14 -10
-14 -5 0 -10 9 -10 20 0 31 -20 24 -21 -7 -2 -25 -2 -25 -6 -5 -3 17 -9 21
-24 17 -14 -5 -19 -1 -21 12 0 10 -2 23 -2 30 -3 35 -55 17 -57 -20 -1 -17 -2
-18 -6 -4 -8 29 -26 20 -19 -10 l6 -28 -15 25 c-13 22 -14 23 -15 5 0 -17 -2
-17 -10 -5 -8 13 -10 13 -10 -2 0 -39 70 -44 82 -6 3 9 13 6 31 -9 25 -19 26
-21 7 -26 -11 -3 -23 -1 -26 4 -3 5 -12 2 -21 -6 -8 -8 -31 -15 -51 -15 -21 0
-53 -2 -72 -4 -44 -4 -53 1 -40 24 11 20 -4 39 -15 20 -4 -6 -15 -8 -26 -5
-27 9 -24 -4 4 -15 21 -8 21 -9 -5 -9 -24 -1 -28 3 -28 29 0 17 -7 33 -17 39
-16 9 -16 12 -3 21 22 14 33 12 26 -5 -14 -37 57 -4 111 50 43 44 63 55 63 35z
m-670 -160 c-13 -8 -12 -10 3 -10 9 0 17 -6 17 -14 0 -24 18 -28 91 -21 49 5
69 11 69 21 0 20 27 17 35 -3 7 -17 8 -16 15 2 5 11 9 15 9 8 1 -14 109 -6
129 10 9 7 11 6 7 -5 -4 -10 -27 -18 -66 -22 -60 -7 -74 -11 -156 -47 -43 -19
-94 -23 -125 -11 -24 10 -90 96 -77 101 6 2 15 -2 19 -8 5 -9 10 -8 20 4 7 8
15 13 19 10 3 -3 -1 -10 -9 -15z m346 -412 c-3 -29 -6 -74 -6 -100 0 -39 -3
-48 -17 -49 -14 -1 -15 -2 -3 -5 12 -4 14 -15 12 -45 -4 -37 -8 -43 -46 -60
-48 -22 -72 -23 -104 -6 l-23 13 27 13 c24 11 26 10 14 -3 -11 -14 -9 -16 14
-16 14 0 29 0 33 -1 19 -2 11 19 -9 24 l-23 6 22 21 c26 23 41 27 23 5 -24
-29 0 -29 28 -1 15 16 20 26 12 24 -8 -3 -20 1 -27 8 -19 18 -16 26 7 19 21
-7 23 -3 14 32 -4 13 -10 20 -16 17 -5 -3 -4 -12 3 -20 9 -11 8 -14 -5 -14
-18 0 -19 4 -10 49 4 17 10 28 15 25 5 -3 7 -10 4 -15 -4 -5 1 -9 9 -9 9 0 16
5 16 11 0 5 4 7 10 4 6 -4 6 3 0 21 -6 16 -7 31 -1 38 5 6 7 23 5 39 -2 19 2
27 13 27 13 0 15 -9 9 -52z m1018 -165 c-26 -221 -36 -268 -60 -290 -24 -21
-25 -23 -10 -52 18 -33 63 -48 116 -38 16 4 32 2 35 -3 3 -6 1 -10 -6 -10 -8
0 -8 -4 1 -15 10 -12 10 -18 -1 -31 -10 -13 -10 -17 2 -25 10 -6 10 -9 2 -9
-8 0 -13 -13 -13 -29 0 -16 6 -32 13 -34 9 -4 9 -7 0 -14 -8 -6 -13 -45 -15
-108 l-3 -100 -122 -3 -123 -3 -1 78 -2 78 -7 -72 c-14 -158 -20 -68 -20 315
0 261 3 402 10 402 6 0 10 -11 10 -25 0 -14 5 -25 10 -25 6 0 10 -17 10 -38 0
-36 14 -62 32 -62 4 0 8 19 8 43 0 23 7 51 15 61 8 11 15 28 15 38 0 15 9 18
55 18 l55 0 -6 -47z m-1229 -122 c3 -6 -3 -15 -14 -20 -11 -6 -22 -24 -26 -41
-4 -17 -10 -28 -15 -25 -5 3 -11 1 -15 -5 -3 -5 -2 -10 3 -10 6 0 8 -9 5 -20
-3 -11 -9 -20 -14 -20 -5 0 -9 -5 -9 -11 0 -5 5 -7 10 -4 6 3 10 -3 10 -14 0
-10 3 -26 6 -34 3 -8 -2 -17 -12 -21 -22 -8 -31 1 -16 16 21 21 13 29 -13 12
l-24 -16 20 -21 c17 -19 21 -20 30 -7 8 13 11 12 24 -4 18 -23 19 -42 5 -51
-6 -4 -8 -15 -5 -26 7 -21 -22 -40 -34 -22 -3 5 -14 12 -23 16 -20 7 -26 67
-6 67 6 0 4 7 -5 18 -19 20 -23 67 -7 77 6 3 10 1 10 -4 0 -6 5 -11 11 -11 6
0 9 9 6 20 -3 11 1 27 9 34 11 12 9 14 -12 12 -19 -1 -24 -5 -20 -18 2 -10 0
-18 -5 -18 -5 0 -9 11 -9 24 0 24 23 41 41 30 5 -3 9 2 9 10 0 9 7 16 15 16 8
0 15 5 15 12 0 6 8 20 18 31 16 19 16 20 0 14 -20 -7 -25 9 -5 16 20 9 35 8
42 -2z m-205 -408 c2 -60 3 -131 4 -160 0 -28 5 -49 10 -46 5 3 6 0 2 -8 -3
-8 -9 -22 -12 -31 -4 -10 -10 -18 -14 -18 -5 0 -11 -19 -15 -42 -4 -24 -13
-54 -21 -68 -12 -22 -13 -15 -14 75 -2 223 -1 328 5 333 3 3 5 -20 5 -51 0
-32 5 -57 10 -57 6 0 10 -37 10 -92 0 -50 3 -88 7 -84 13 13 6 188 -9 198 -10
7 -10 11 0 15 6 2 12 12 12 21 0 15 -2 15 -10 2 -9 -13 -10 -13 -10 1 0 8 5
20 12 27 16 16 17 52 1 52 -7 0 -13 4 -13 10 0 5 8 6 17 3 12 -5 15 -2 10 10
-3 9 -2 17 2 17 5 0 10 -48 11 -107z m1423 -255 c4 -10 8 -10 15 1 8 10 11 6
17 -18 9 -41 26 -41 18 1 -4 22 -3 29 5 24 7 -4 12 -21 12 -38 0 -23 4 -29 15
-24 9 3 15 0 15 -9 0 -12 -21 -15 -120 -15 l-120 0 -2 33 -1 32 -4 -33 c-4
-28 -7 -31 -19 -21 -10 8 -14 8 -14 0 0 -12 -39 -16 -41 -3 -14 82 -15 82 110
82 78 0 111 -4 114 -12z m64 -120 l11 -33 1 33 c1 17 5 32 10 32 10 0 74 -61
69 -66 -3 -2 -419 -7 -443 -5 -5 1 0 7 11 14 12 6 32 18 45 26 24 14 24 14 5
-8 -11 -11 -14 -21 -8 -21 6 0 20 12 33 28 19 24 21 25 15 5 -8 -25 8 -32 18
-8 3 8 9 14 13 14 4 -1 15 1 23 4 25 10 52 13 121 15 l66 3 10 -33z m-353 -90
c22 -15 36 -7 37 20 1 22 3 19 14 -18 l13 -45 1 38 c1 20 6 37 11 37 6 0 9 -3
9 -7 -4 -27 3 -63 11 -58 5 3 7 19 3 35 -3 19 -1 30 6 30 6 0 11 -13 11 -30 0
-16 5 -30 10 -30 6 0 10 15 10 33 0 32 2 33 40 35 34 2 42 -1 50 -20 l9 -23 0
23 c1 13 5 20 11 17 6 -4 8 -10 5 -15 -3 -5 -1 -11 5 -15 5 -3 10 3 10 14 0
38 20 22 21 -16 1 -38 1 -38 9 -9 5 16 7 33 4 38 -3 4 2 8 10 8 12 0 16 -11
16 -51 0 -31 4 -48 10 -44 6 3 10 27 10 52 0 57 8 53 11 -5 4 -61 19 -63 19
-3 0 39 4 51 15 51 11 0 15 -12 15 -45 0 -27 5 -45 11 -45 8 0 10 15 7 45 -5
39 -3 45 13 45 16 0 19 -8 19 -55 l0 -55 -152 -1 c-84 -1 -157 0 -163 1 -145
38 -166 49 -164 89 1 21 2 22 6 6 3 -11 10 -23 17 -27z m-1446 7 c2 -1 0 -26
-4 -54 l-7 -51 -63 0 -64 0 0 43 c-1 40 -1 41 -16 22 -15 -19 -15 -19 -8 10 4
17 8 33 10 36 3 5 146 0 152 -6z m1903 -163 c1 -82 -2 -186 -4 -189 -9 -8
-299 -12 -909 -13 l-727 0 4 -88 c3 -48 5 -93 5 -101 0 -8 3 -11 6 -8 4 4 6
45 5 93 -2 59 1 84 8 79 6 -3 11 -39 11 -81 0 -68 10 -93 24 -61 3 6 4 1 3
-13 -2 -23 -6 -25 -60 -28 -55 -3 -57 -2 -57 23 0 14 -4 25 -10 25 -5 0 -10
-11 -10 -25 0 -20 -5 -25 -24 -25 -13 0 -27 6 -30 13 -5 10 -7 10 -12 0 -9
-20 -21 -15 -28 10 -7 21 -7 21 -16 2 -8 -19 -9 -19 -9 3 -1 28 -21 19 -21 -9
0 -16 -7 -19 -40 -19 l-40 0 0 43 c-1 34 -3 39 -11 24 -6 -10 -8 -29 -5 -43 4
-14 2 -24 -4 -24 -5 0 -10 14 -10 31 0 19 -4 28 -11 23 -6 -3 -9 -15 -6 -25 3
-10 1 -22 -4 -25 -5 -3 -9 2 -9 10 0 9 -4 16 -10 16 -5 0 -10 -7 -10 -15 0
-11 -11 -15 -39 -15 -37 0 -39 1 -47 43 l-8 42 -4 -42 c-4 -52 -19 -56 -28 -8
-3 19 -11 33 -18 32 -7 -1 -12 19 -13 58 l-1 60 13 -55 13 -55 1 52 c1 66 21
82 21 18 0 -27 4 -44 10 -40 5 3 7 11 4 18 -3 8 0 24 5 38 9 23 10 23 10 -8 1
-46 21 -52 22 -6 1 65 17 7 18 -64 1 -40 5 -63 12 -63 9 0 10 23 6 80 -4 52
-3 79 3 75 6 -3 10 -26 10 -51 0 -30 4 -43 11 -38 7 4 9 22 4 50 -4 29 -2 44
4 44 6 0 11 -18 11 -40 0 -22 5 -40 10 -40 6 0 10 21 11 48 0 35 3 42 9 27 5
-11 9 -32 9 -47 1 -16 6 -28 12 -28 6 0 9 15 7 38 -1 20 2 39 7 42 6 3 11 -22
13 -63 4 -86 22 -79 22 9 0 36 4 64 10 64 6 0 10 -24 10 -54 0 -30 5 -58 10
-61 6 -4 10 15 10 49 0 30 5 58 10 61 6 4 10 -15 10 -49 0 -31 5 -56 10 -56 6
0 10 14 10 31 0 17 4 28 10 24 6 -3 10 -22 10 -41 0 -19 4 -34 10 -34 5 0 9
27 9 61 -1 33 2 63 5 66 3 4 6 -17 6 -45 0 -28 5 -54 10 -57 6 -4 10 15 10 49
0 57 13 75 24 34 3 -13 6 -40 6 -60 0 -21 5 -38 10 -38 6 0 10 28 11 63 1 88
17 43 18 -50 1 -44 5 -73 12 -73 6 0 9 35 8 98 l-2 97 -260 -3 -260 -3 6 122
c3 67 8 123 9 125 3 3 209 6 296 5 21 -1 32 -6 32 -15 0 -19 39 -46 66 -46 17
0 23 -8 28 -38 3 -21 15 -47 26 -57 19 -17 25 -18 73 -5 29 7 65 13 80 12 16
-2 40 6 55 16 15 10 42 24 60 32 61 24 142 -21 142 -80 0 -34 65 -27 130 14
29 19 60 32 67 29 7 -3 41 0 76 6 65 12 430 33 529 31 31 0 59 4 63 9 4 7 26
9 60 5 29 -4 65 -4 78 0 24 6 25 9 20 61 l-6 54 79 3 c44 2 107 4 142 5 l62 2
1 -77z m-104 -292 c-3 -52 -2 -92 4 -95 5 -4 9 19 10 52 1 65 6 113 12 119 2
2 14 5 28 6 24 3 24 1 29 -87 3 -49 4 -93 2 -97 -2 -5 -43 -8 -92 -8 l-89 0 2
89 c1 50 6 93 10 97 4 4 7 -4 8 -17 5 -114 7 -141 13 -146 3 -4 6 33 6 80 0
66 3 87 13 87 9 0 12 -10 9 -30 -3 -18 0 -30 7 -30 6 0 11 13 11 28 0 27 7 42
18 42 3 0 2 -40 -1 -90z m-1275 3 c3 -80 -7 -123 -29 -123 -7 0 -13 8 -13 18
-1 16 -1 16 -11 0 -5 -10 -20 -18 -32 -18 -21 0 -22 3 -18 97 3 101 5 105 16
39 8 -48 20 -38 16 14 -1 24 2 40 8 40 6 0 11 -18 11 -39 0 -22 5 -43 10 -46
6 -4 10 13 10 44 0 38 4 51 15 51 11 0 15 -18 17 -77z m39 -7 c5 -6 9 6 9 31
0 23 5 45 10 48 6 4 10 -8 10 -29 0 -48 20 -46 21 2 2 33 2 34 6 7 7 -46 23
-55 23 -12 0 20 5 37 10 37 6 0 10 -18 10 -40 0 -22 5 -40 10 -40 6 0 10 18
10 40 0 22 5 40 10 40 6 0 10 -18 10 -39 0 -22 4 -42 9 -46 6 -3 8 13 5 41 -5
45 -5 45 23 42 20 -2 29 -9 31 -25 4 -29 22 -30 22 -2 0 11 4 18 9 14 5 -3 13
0 17 6 4 8 9 7 16 -2 7 -11 11 -11 15 -1 10 26 23 10 23 -28 0 -49 18 -53 22
-5 4 50 22 48 26 -3 4 -53 22 -45 22 9 0 24 4 38 10 34 6 -3 10 -33 10 -66 0
-33 4 -59 10 -59 6 0 10 26 10 59 0 33 5 63 10 66 6 4 10 -23 10 -74 0 -47 4
-81 10 -81 6 0 10 33 10 80 0 51 4 80 11 80 7 0 10 -21 9 -57 -4 -88 -1 -113
11 -113 6 0 8 7 5 16 -8 22 5 154 15 154 5 0 9 -39 9 -87 0 -107 18 -102 22 7
2 46 7 73 13 70 11 -5 16 -106 8 -152 -5 -28 -6 -28 -79 -28 -67 0 -74 2 -74
20 0 11 -4 20 -10 20 -5 0 -10 -9 -10 -20 0 -18 -7 -20 -55 -20 -52 0 -55 1
-55 24 0 14 -4 28 -10 31 -5 3 -10 15 -10 26 0 11 5 17 10 14 14 -9 12 39 -2
53 -22 22 -28 12 -28 -50 0 -44 -3 -58 -10 -48 -5 8 -7 25 -3 37 3 14 1 23 -6
23 -7 0 -11 -21 -11 -55 l0 -55 -36 0 c-28 0 -35 3 -30 15 3 9 0 15 -9 15 -23
0 -30 -4 -27 -16 3 -16 -69 -24 -75 -9 -2 7 -5 24 -7 39 -5 45 -18 43 -15 -3
3 -40 1 -44 -20 -48 -22 -3 -23 -1 -17 28 3 17 7 64 8 103 1 45 3 56 5 31 3
-22 9 -44 14 -49z m624 12 c0 -88 11 -95 18 -11 10 98 27 105 27 10 0 -45 4
-77 10 -77 6 0 10 30 10 69 0 39 5 73 10 76 6 4 10 -6 10 -24 0 -16 5 -33 10
-36 6 -4 10 6 10 21 0 27 1 27 15 8 14 -18 14 -18 15 9 0 38 20 34 21 -5 1
-22 3 -26 6 -13 14 55 43 58 43 6 0 -52 18 -62 22 -14 l4 38 8 -29 c6 -19 5
-35 -3 -47 -6 -10 -11 -37 -11 -59 0 -29 -4 -40 -15 -40 -12 0 -15 14 -15 62
0 76 -10 72 -11 -5 -2 -63 -19 -69 -19 -6 0 27 -4 38 -11 33 -7 -4 -9 -21 -5
-45 4 -24 2 -39 -4 -39 -5 0 -10 20 -10 45 0 27 -5 45 -11 45 -8 0 -10 -15 -7
-45 5 -44 5 -45 -23 -45 -20 0 -29 5 -29 16 0 8 -5 12 -10 9 -6 -4 -8 -11 -5
-16 4 -5 1 -9 -4 -9 -6 0 -11 10 -11 23 0 17 -2 19 -9 7 -6 -8 -7 -18 -5 -22
3 -4 -10 -8 -29 -8 l-34 0 1 58 c4 131 5 134 24 130 14 -3 17 -15 17 -70z
m285 -18 c5 0 7 13 4 29 -3 16 -1 37 5 48 8 15 10 9 11 -30 0 -31 4 -46 10
-42 6 4 8 15 5 26 -7 23 2 59 16 59 5 0 6 -34 3 -85 -5 -61 -4 -85 5 -85 7 0
11 25 12 73 0 61 2 68 11 47 l11 -25 4 25 c2 14 6 32 9 40 9 27 24 -11 23 -60
-2 -91 0 -101 19 -98 27 5 30 15 26 89 -3 65 9 96 19 47 4 -19 4 -18 6 5 1 38
21 24 21 -15 0 -23 -4 -29 -15 -24 -12 4 -15 -6 -15 -59 l0 -65 -40 0 -40 0 0
50 c0 28 -4 50 -10 50 -9 0 -11 -9 -14 -70 -1 -23 -6 -25 -48 -28 -47 -3 -58
4 -38 24 13 13 2 46 -14 41 -6 -2 -12 -16 -13 -31 -1 -16 -5 -31 -9 -35 -3 -3
-4 17 0 44 3 28 5 67 5 88 0 57 16 70 19 15 2 -27 7 -48 12 -48z m430 -249 l0
-138 -672 -6 c-370 -4 -856 -10 -1080 -13 l-408 -7 0 142 0 141 58 0 c216 1
1138 13 1140 16 2 1 219 3 483 3 l479 0 0 -138z"/>
<path d="M990 3878 c0 -4 8 -8 18 -8 10 0 25 -13 34 -28 16 -27 16 -29 -6 -57
-12 -15 -28 -25 -34 -21 -6 3 -14 2 -17 -4 -4 -7 35 -10 123 -8 72 2 128 6
125 11 -2 4 -15 7 -29 7 -24 0 -25 3 -22 47 3 44 5 48 33 54 17 4 28 7 25 8
-21 6 -250 5 -250 -1z"/>
</g>
</svg>
