<?xml version="1.0" standalone="no"?>
<!DOCTYPE svg PUBLIC "-//W3C//DTD SVG 20010904//EN"
 "http://www.w3.org/TR/2001/REC-SVG-20010904/DTD/svg10.dtd">
<svg version="1.0" xmlns="http://www.w3.org/2000/svg"
 width="233.000000pt" height="400.000000pt" viewBox="0 0 233.000000 400.000000"
 preserveAspectRatio="xMidYMid meet">
<metadata>
Created by potrace 1.15, written by Peter Selinger 2001-2017
</metadata>
<g transform="translate(0.000000,400.000000) scale(0.100000,-0.100000)"
fill="#000000" stroke="none">
<path d="M528 3962 l-488 -2 0 -193 c0 -105 -2 -340 -4 -522 -6 -421 -8 -1012
-7 -2239 l1 -979 423 8 c232 4 730 11 1106 14 l685 6 -2 1485 c-1 817 -2 1698
-2 1957 l0 473 -612 -3 c-337 -1 -832 -3 -1100 -5z m637 -73 c8 -23 31 -25 39
-4 3 8 10 15 15 15 6 0 3 -13 -6 -28 -16 -28 -16 -30 11 -65 16 -21 37 -37 48
-37 10 0 16 -4 13 -10 -4 -6 -57 -10 -128 -9 -94 0 -116 3 -94 11 25 9 27 13
27 69 0 32 -3 58 -7 58 -21 -3 -53 2 -53 9 0 4 29 8 65 8 55 1 65 -1 70 -17z
m970 -228 c86 -8 -168 -11 -955 -14 -557 -2 -660 1 -660 19 0 14 69 15 763 9
419 -4 803 -10 852 -14z m92 -35 c3 -3 -83 -6 -193 -7 -109 0 -257 -2 -329 -4
-71 -1 -367 -6 -657 -10 -483 -7 -528 -6 -528 9 0 14 50 16 543 18 754 4 1156
2 1164 -6z m-437 -192 c239 -4 437 -8 439 -10 2 -2 2 -6 0 -8 -2 -2 -406 -7
-896 -11 l-893 -8 0 28 0 28 458 -7 c251 -3 653 -9 892 -12z m439 -48 c-8 -8
-352 -15 -924 -21 -314 -3 -636 -8 -717 -11 -145 -5 -148 -5 -148 15 l0 21
897 0 c493 0 894 -2 892 -4z m-1806 -98 c2 -18 4 -96 3 -173 -1 -117 -3 -140
-16 -140 -12 0 -17 28 -27 150 -16 211 -17 195 11 195 19 0 25 -6 29 -32z
m1795 -113 c3 -16 -1680 -14 -1685 2 -4 10 173 12 839 10 552 -1 844 -5 846
-12z m2 -37 c0 -5 -141 -8 -312 -9 -172 0 -324 -2 -338 -3 -14 -2 -251 -7
-527 -11 -486 -7 -503 -7 -503 11 0 18 28 19 840 19 462 0 840 -3 840 -7z
m-1889 -125 c0 -38 3 -114 5 -170 3 -65 1 -104 -6 -104 -5 -1 -15 -2 -21 -3
-6 -1 -12 29 -14 74 -13 222 -14 254 -9 262 3 4 14 8 25 8 17 0 19 -8 20 -67z
m1893 -82 c9 -14 -214 -20 -764 -21 -289 -1 -637 -2 -775 -3 -231 -2 -250 -1
-253 16 -3 16 45 17 892 17 492 0 897 -4 900 -9z m-5 -35 c-5 -5 -313 -14
-744 -21 -170 -3 -373 -7 -450 -10 -77 -3 -240 -7 -362 -10 -217 -5 -223 -4
-223 15 0 19 9 20 508 23 279 1 680 3 891 5 211 1 382 0 380 -2z m8 -183 c3
-7 -10 -14 -29 -17 -18 -3 -312 -8 -653 -11 -341 -3 -695 -8 -787 -11 -163 -5
-168 -5 -168 14 0 19 8 20 142 24 79 2 426 5 773 7 346 1 631 3 632 5 8 8 87
-2 90 -11z m-7 -42 c0 -7 -26 -11 -72 -11 -73 0 -156 -2 -738 -20 -816 -25
-820 -25 -820 -1 0 21 2 21 268 22 290 2 1003 12 1225 18 95 2 137 0 137 -8z
m-1863 -108 c1 -27 -1 -99 -4 -160 -4 -99 -7 -113 -23 -113 -15 0 -18 16 -23
153 -3 83 -3 155 0 160 2 4 14 7 26 7 19 0 22 -6 24 -47z m1571 -51 c164 -1
292 -6 292 -11 0 -5 -224 -10 -527 -11 -291 -1 -575 -6 -633 -10 -62 -5 155
-7 528 -5 544 3 632 2 632 -11 0 -12 -35 -14 -217 -14 -120 0 -321 -2 -448 -5
-945 -18 -1075 -18 -1075 -1 0 9 1 17 3 18 1 0 108 4 237 8 l235 6 -232 2
c-127 1 -238 -1 -247 -4 -9 -3 -16 -14 -16 -24 0 -11 -5 -22 -12 -26 -8 -5 -9
-2 -5 10 4 10 7 26 7 37 0 12 7 19 20 19 11 0 20 4 20 10 0 14 570 19 1438 12z
m-105 -242 c323 0 408 -3 404 -12 -3 -10 -88 -13 -383 -13 -208 0 -383 -2
-389 -5 -5 -3 -202 -4 -437 -2 -423 2 -428 3 -428 23 0 20 2 20 413 14 226 -3
596 -6 820 -5z m-412 -53 c-19 -19 -144 -26 -488 -26 -271 -1 -333 1 -333 12
0 8 2 16 5 19 3 2 190 5 416 5 300 1 408 -2 400 -10z m819 4 c0 -13 -76 -17
-356 -19 -215 -2 -253 0 -258 13 -5 13 34 15 304 15 178 0 310 -4 310 -9z
m-1863 -240 l-2 -188 -25 7 -25 6 0 165 c0 90 3 171 6 179 4 9 16 16 27 17 21
2 21 -2 19 -186z m1153 79 c-14 -26 -7 -50 15 -50 21 0 75 28 103 53 12 11 22
16 22 11 0 -5 -19 -26 -42 -46 -24 -21 -38 -38 -32 -38 6 0 30 17 54 37 30 26
39 30 31 16 -11 -22 -52 -58 -74 -66 -7 -2 -9 -8 -5 -12 4 -4 14 -2 23 5 9 7
18 10 22 7 3 -4 -6 -12 -21 -18 -15 -7 -25 -18 -22 -26 3 -7 2 -13 -2 -13 -17
0 -63 -47 -68 -70 -3 -14 -9 -81 -14 -150 -9 -153 -37 -222 -75 -190 -11 9
-13 39 -8 153 4 119 9 151 29 199 13 32 24 77 24 100 0 38 37 134 48 123 2 -2
-2 -13 -8 -25z m-100 -1 c0 -11 5 -19 10 -19 6 0 10 5 10 11 0 5 4 8 9 4 6 -3
14 3 20 12 5 10 13 14 18 10 4 -5 0 -22 -10 -38 -9 -17 -17 -51 -17 -75 l0
-44 -25 16 c-14 9 -25 12 -25 8 0 -5 -9 -15 -20 -22 -18 -11 -21 -8 -40 33
-11 24 -30 53 -41 64 -34 32 -1 58 73 58 30 0 38 -3 38 -18z m-120 -57 c22
-24 40 -52 40 -60 0 -14 -2 -14 -12 0 -13 17 -68 15 -68 -2 0 -4 11 -5 24 -3
16 3 31 -2 45 -16 22 -22 28 -37 11 -26 -5 3 -10 4 -10 0 0 -3 5 -14 10 -25 6
-11 14 -29 20 -39 10 -21 7 -162 -5 -180 -9 -16 -13 -151 -4 -151 11 0 28 93
35 193 10 150 23 85 22 -114 l-1 -191 -24 -9 c-31 -12 -30 -12 -36 11 -6 25
-24 26 -30 3 -4 -14 -5 -12 -6 5 0 12 -5 22 -11 22 -15 0 -12 107 4 170 8 30
11 56 6 58 -4 2 -6 12 -3 22 3 11 9 17 14 14 5 -3 7 -9 4 -14 -3 -5 -1 -11 5
-15 5 -3 10 3 10 14 0 24 -13 33 -33 25 -10 -3 -19 -33 -27 -87 -7 -45 -15
-86 -18 -91 -2 -4 -13 5 -23 22 -17 26 -18 35 -7 83 11 49 13 51 16 22 6 -59
18 -35 19 40 1 51 -1 65 -7 49 -5 -12 -7 -29 -4 -37 4 -9 0 -15 -10 -15 -9 0
-19 -13 -24 -32 -5 -20 -16 -34 -27 -36 -16 -4 -17 1 -11 39 4 28 3 39 -3 30
-17 -27 -29 -3 -20 40 12 50 30 87 65 128 14 17 21 31 15 31 -6 0 -29 -27 -50
-60 -41 -63 -59 -135 -42 -167 5 -10 12 -26 15 -36 3 -11 14 -21 24 -24 15 -4
18 -17 20 -86 1 -45 5 -115 8 -154 6 -64 9 -73 26 -73 14 0 18 5 14 15 -3 8
-1 15 4 15 19 0 10 -32 -10 -37 -11 -3 -18 -9 -15 -13 2 -4 -4 -15 -15 -25
-18 -16 -19 -15 -29 22 -6 21 -11 84 -11 141 0 69 -4 102 -11 102 -8 0 -10 12
-6 35 3 19 2 35 -4 35 -11 0 -9 15 -16 -125 -5 -117 6 -205 26 -205 22 0 17
-34 -14 -92 l-34 -63 -15 37 c-9 21 -16 44 -16 52 0 20 -17 29 -23 14 -15 -37
-3 194 23 440 15 136 47 248 87 305 44 62 37 72 -10 15 -28 -35 -41 -65 -62
-153 -15 -60 -29 -128 -30 -150 -2 -22 -5 -47 -8 -55 -9 -27 -21 -263 -18
-369 2 -101 17 -151 43 -151 5 0 2 10 -6 22 -9 12 -16 36 -15 53 l1 30 10 -35
c5 -19 16 -42 24 -51 11 -12 11 -21 2 -47 -15 -39 -21 -40 -46 -4 -44 61 -55
126 -45 274 5 87 5 139 -1 141 -6 2 2 49 17 108 15 57 30 122 33 144 4 22 11
48 16 59 8 14 7 17 -3 14 -8 -3 -18 -22 -22 -44 -5 -21 -27 -111 -49 -199 -35
-143 -39 -174 -41 -295 -1 -149 9 -187 60 -235 27 -24 27 -25 6 -25 -25 0 -47
29 -58 75 -3 17 -16 40 -27 52 -33 35 -41 96 -23 177 67 301 118 485 155 561
10 22 26 58 35 80 18 44 44 77 55 70 4 -3 13 2 20 10 10 12 7 14 -17 12 -24
-2 -33 -13 -68 -79 -22 -43 -46 -83 -52 -90 -7 -6 -13 -22 -13 -34 0 -12 -5
-24 -10 -26 -21 -7 -61 -138 -54 -175 5 -24 2 -38 -8 -46 -14 -12 -53 -160
-79 -297 -7 -36 -18 -84 -26 -108 -23 -76 -18 -110 25 -149 33 -30 34 -33 12
-27 -25 7 -39 21 -61 61 -17 32 6 159 80 438 12 44 30 119 41 166 21 98 114
300 163 356 28 32 34 34 71 30 23 -3 35 -4 29 -1 -23 10 -14 21 12 16 14 -2
43 -25 65 -50z m-1203 7 c3 -12 9 -16 12 -10 6 10 118 30 169 31 19 0 22 -5
22 -40 l0 -40 -69 0 c-38 0 -82 5 -97 10 -21 8 -31 7 -44 -5 -29 -26 -40 -18
-40 30 0 39 3 45 21 45 13 0 23 -8 26 -21z m1013 12 c0 -28 -31 -31 -317 -31
-288 0 -293 0 -293 20 0 20 5 20 305 20 168 -1 305 -4 305 -9z m1028 0 l93 -1
-3 -32 -3 -33 -281 -3 c-241 -2 -283 0 -287 12 -5 13 31 15 273 13 154 -1 280
1 280 6 0 4 -124 7 -275 7 -259 0 -275 1 -266 18 8 15 27 17 193 15 100 -1
225 -2 276 -2z m-1074 -66 c-5 -13 -43 -15 -243 -16 -130 -1 -256 -2 -281 -3
-35 0 -46 4 -48 17 -3 16 18 17 287 17 254 0 290 -2 285 -15z m-615 -200 c0
-78 3 -149 7 -158 10 -28 -4 -67 -25 -67 -15 0 -19 10 -24 58 -5 43 -3 201 3
309 0 1 9 1 20 0 19 -1 20 -9 19 -142z m313 6 c177 -5 206 -8 198 -20 -7 -12
-46 -16 -189 -19 -162 -4 -181 -3 -181 12 0 9 -5 16 -11 16 -7 0 -9 -10 -5
-24 7 -27 -1 -56 -15 -56 -5 0 -9 9 -9 21 0 12 -4 17 -11 14 -6 -4 -8 -13 -5
-20 4 -12 -21 -25 -50 -25 -13 0 -25 70 -17 101 5 19 10 20 47 14 23 -4 134
-10 248 -14z m1468 -9 c0 -9 -315 -22 -537 -22 -112 0 -133 2 -133 15 0 13 44
15 335 15 184 0 335 -4 335 -8z m-314 -475 c1 -1 -8 -22 -20 -47 l-21 -45 -74
-3 c-83 -3 -106 8 -77 36 17 15 18 15 13 0 -3 -9 0 -19 9 -22 17 -6 18 -1 4
25 -8 14 -6 25 6 45 16 24 20 25 88 19 38 -3 71 -7 72 -8z m-1789 -50 c4 -6 0
-8 -10 -4 -10 3 -17 2 -17 -3 0 -6 8 -11 18 -11 44 -3 77 -15 125 -47 39 -26
45 -42 8 -22 -12 6 -21 7 -21 2 0 -5 10 -14 23 -21 22 -11 22 -11 -3 -5 -20 6
-23 4 -15 -7 6 -8 10 -21 9 -29 -1 -8 -2 -23 -3 -32 -1 -11 -6 -15 -16 -12
-18 7 -20 -7 -4 -23 9 -9 7 -12 -7 -12 -10 -1 -39 -3 -64 -5 -35 -3 -47 0 -58
15 -7 10 -20 19 -28 19 -11 0 -14 20 -14 103 l0 103 35 1 c19 1 38 -4 42 -10z
m1403 -44 c2 -2 -1 -12 -8 -21 -7 -9 -20 -29 -30 -45 -10 -15 -23 -25 -31 -22
-8 3 -11 0 -8 -9 4 -11 -3 -13 -36 -9 -23 3 -48 10 -54 16 -9 6 -13 6 -13 -2
0 -6 -5 -11 -10 -11 -12 0 -3 20 36 82 l23 36 63 -5 c35 -3 65 -8 68 -10z
m317 -18 c9 -3 8 -17 -3 -57 -19 -63 -22 -67 -34 -48 -6 8 -10 10 -10 5 0 -6
-9 -11 -20 -11 -13 0 -19 5 -16 13 3 7 1 13 -4 13 -6 0 -10 -7 -10 -15 0 -8
-5 -15 -10 -15 -6 0 -8 11 -4 28 9 37 23 62 35 62 6 0 6 -8 -1 -21 -13 -24 -4
-41 10 -19 16 25 11 50 -8 50 -18 0 -52 -56 -52 -85 0 -8 -4 -15 -10 -15 -5 0
-10 6 -10 13 0 9 -3 8 -9 -2 -5 -8 -16 -11 -29 -7 -24 8 -22 18 14 81 l23 40
68 -3 c37 -2 73 -5 80 -7z m368 -37 c3 -3 -2 -31 -12 -62 -15 -50 -20 -56 -43
-55 -46 4 -93 -1 -86 -8 3 -4 30 -6 58 -4 l51 3 -7 -69 c-4 -37 -10 -71 -14
-75 -10 -10 -132 3 -132 14 0 5 5 6 11 2 6 -3 15 -1 19 7 5 7 18 13 29 14 11
1 18 -2 15 -7 -11 -17 12 -6 34 16 24 26 29 60 10 72 -18 11 -58 14 -58 4 0
-4 -7 -11 -16 -14 -11 -4 -15 -2 -11 8 4 10 1 13 -7 10 -18 -7 -26 -47 -14
-69 12 -20 1 -35 -11 -16 -7 10 -10 9 -14 -3 -4 -9 -11 -16 -16 -16 -10 0 5
81 17 90 4 3 7 12 7 20 0 9 7 14 18 12 9 -2 17 2 17 8 0 5 -6 9 -12 8 -16 -4
-14 67 2 97 10 19 20 21 86 20 40 -1 76 -4 79 -7z m-1812 -15 c-27 -10 -11
-23 27 -23 43 0 55 16 18 23 -13 2 66 5 175 6 l197 1 0 -38 c0 -21 7 -47 15
-58 8 -10 15 -22 15 -26 0 -13 -38 -9 -43 5 -2 7 -8 8 -13 3 -5 -5 -4 -11 4
-13 20 -8 14 -23 -10 -24 -16 -1 -12 -4 12 -10 19 -4 40 -6 47 -4 7 2 15 -1
19 -6 7 -11 -299 -5 -317 6 -5 4 -9 -1 -9 -9 0 -13 -11 -16 -57 -14 -36 1 -45
3 -25 5 56 7 35 20 -38 22 -55 2 -69 -1 -65 -11 4 -9 -4 -14 -25 -16 -16 -1
-30 2 -30 8 0 5 5 10 10 10 21 0 9 18 -15 22 -17 4 -25 1 -25 -8 0 -8 -9 -14
-20 -14 -24 0 -24 -3 1 64 14 39 24 53 35 49 7 -3 14 0 14 6 0 6 7 11 16 11 8
0 12 5 9 10 -4 6 5 10 19 10 14 0 26 5 26 10 0 6 10 10 23 9 12 0 16 -3 10 -6z
m877 -69 c0 -8 -30 -105 -41 -132 -5 -13 -14 -20 -19 -17 -14 9 -12 52 3 58 6
2 8 8 4 13 -5 5 -17 -2 -27 -16 -14 -19 -16 -29 -8 -44 9 -16 7 -18 -13 -14
-13 3 -33 9 -44 13 -16 5 -17 5 -5 -4 9 -6 10 -11 3 -11 -6 0 -19 -8 -28 -17
-16 -16 -17 -13 -10 48 9 80 24 104 72 117 42 11 113 15 113 6z m538 -21 c2
-7 0 -13 -5 -13 -4 0 -9 -23 -11 -52 -2 -28 -5 -55 -8 -60 -3 -4 -22 -7 -42
-7 -34 2 -34 2 -7 6 38 6 47 14 35 33 -7 10 -10 11 -10 3 0 -7 -7 -13 -15 -13
-24 0 -17 17 9 24 31 8 40 33 21 62 -12 19 -21 22 -52 17 -50 -7 -72 -27 -56
-51 6 -9 16 -16 22 -14 6 1 11 -4 11 -12 0 -8 6 -16 13 -19 6 -2 9 -8 5 -12
-4 -5 -23 8 -42 28 -40 42 -46 45 -46 17 0 -11 -4 -20 -10 -20 -5 0 -10 -5
-10 -11 0 -6 9 -9 20 -6 13 3 20 0 20 -10 0 -10 6 -12 19 -8 11 3 22 1 26 -5
4 -6 -15 -10 -54 -10 -70 0 -70 -1 -41 91 l19 64 92 -5 c61 -3 94 -9 97 -17z
m160 -19 c21 -4 23 -8 16 -37 -5 -18 -8 -50 -9 -72 l0 -40 84 -8 c47 -4 86 -9
88 -10 2 -2 0 -31 -3 -65 -6 -57 -9 -62 -31 -62 -20 0 -22 2 -11 19 9 15 9 25
0 43 -11 23 -11 23 -6 -3 7 -36 -26 -59 -84 -59 -51 0 -58 11 -44 76 15 72 5
82 -90 86 -43 2 -78 0 -78 -4 0 -5 34 -8 75 -8 51 0 77 -4 80 -12 3 -7 2 -40
-2 -73 -7 -54 -11 -60 -33 -63 -20 -3 -23 -1 -12 9 17 18 15 34 -3 19 -15 -12
-45 -7 -45 7 0 4 14 16 30 25 54 31 34 73 -35 73 -27 0 -30 -4 -33 -33 -2 -18
2 -40 9 -48 7 -9 8 -14 1 -14 -6 0 -14 5 -18 12 -8 13 -22 -14 -23 -44 -1 -16
9 -18 71 -18 70 0 71 0 52 -19 -10 -10 -20 -14 -22 -10 -2 5 -8 9 -14 9 -6 0
-8 -7 -4 -15 3 -8 -3 -19 -12 -25 -16 -11 -16 -11 1 -6 9 3 24 9 32 12 11 5
13 2 9 -10 -3 -9 -1 -16 5 -16 6 0 11 11 11 25 0 14 4 25 10 25 10 0 2 -100
-9 -112 -6 -7 -71 -11 -156 -9 -31 1 -45 4 -37 10 9 5 14 31 15 70 1 34 7 65
13 69 6 4 14 39 18 79 3 40 10 83 15 95 5 13 15 50 21 84 l12 60 61 -3 c34 -2
72 -6 85 -9z m-406 -149 c-8 -90 -18 -139 -31 -143 -9 -3 -11 2 -6 17 7 23 -4
28 -23 9 -9 -9 -15 -9 -24 0 -8 8 -5 14 15 21 14 6 34 22 43 37 18 26 17 27
-5 45 -32 26 -58 24 -86 -7 -30 -33 -32 -54 -5 -61 32 -9 23 -23 -15 -23 -39
0 -46 -14 -12 -25 20 -6 20 -8 3 -12 -33 -9 -40 11 -30 89 10 84 16 88 119 85
l60 -2 -3 -30z m200 -45 c-2 -36 -5 -72 -8 -80 -5 -19 -66 -19 -72 0 -4 10 -6
10 -12 -1 -13 -19 -99 -24 -106 -5 -5 13 9 106 21 144 4 9 28 12 92 10 l88 -3
-3 -65z m-392 23 c0 -21 -3 -55 -6 -75 l-7 -38 -64 0 c-63 0 -65 1 -59 23 3
12 6 46 6 75 l0 52 65 0 65 0 0 -37z m-322 -46 c2 -20 0 -37 -5 -38 -22 -3
-207 -7 -578 -14 -226 -4 -413 -9 -417 -12 -5 -2 -8 14 -8 36 0 26 5 41 13 41
231 6 458 13 552 18 66 4 192 7 280 6 l160 0 3 -37z m150 -160 c2 -42 -1 -77
-5 -77 -4 -1 -27 -5 -50 -9 -34 -7 -43 -5 -43 5 0 8 -5 14 -11 14 -6 0 -9 -7
-5 -15 3 -9 -1 -15 -11 -15 -13 0 -15 10 -10 66 2 36 10 71 16 77 13 13 90 36
106 33 6 -2 11 -37 13 -79z m527 35 c-3 -4 -9 -1 -13 5 -8 13 -69 13 -89 0 -7
-5 -13 -19 -13 -33 0 -14 -7 -27 -15 -30 -8 -4 -15 -11 -15 -16 0 -6 6 -8 14
-5 7 3 23 -1 35 -9 11 -8 26 -14 33 -13 31 4 42 -3 19 -12 -18 -7 -28 -6 -41
6 -9 8 -27 14 -41 14 -23 -2 -23 -2 -1 -6 12 -2 22 -11 22 -20 0 -13 9 -15 50
-11 58 6 66 -6 56 -76 -6 -39 -9 -42 -41 -44 -23 -2 -35 2 -35 10 0 9 -2 10
-8 2 -4 -7 -28 -13 -54 -15 -48 -4 -48 -4 -48 27 0 17 3 46 6 63 6 27 11 31
37 31 26 0 31 13 6 16 -5 1 -13 2 -19 3 -6 0 -10 33 -10 76 l0 74 83 3 c73 3
82 1 85 -15 2 -10 1 -22 -3 -25z m-1004 26 c0 -10 2 -10 6 0 3 9 46 12 165 12
l160 0 -6 -62 c-3 -35 -5 -78 -5 -95 -1 -22 -6 -33 -16 -33 -18 0 -18 5 -5 31
14 25 -8 49 -47 50 -20 1 -22 3 -8 6 45 10 48 12 34 29 -19 23 -63 14 -67 -13
-2 -15 -10 -23 -23 -23 -10 0 -19 -6 -20 -12 -1 -7 -4 -2 -8 12 l-7 25 -165
-1 c-90 -1 -227 -2 -304 -3 -77 0 -169 -1 -205 -1 -36 0 -86 -2 -112 -6 l-48
-6 0 45 0 44 287 2 c158 1 289 4 292 6 11 11 101 5 102 -7z m819 -65 l0 -74
-27 3 c-20 2 -27 8 -25 21 3 19 -14 24 -21 5 -8 -23 5 -38 32 -38 35 0 39 -5
33 -36 l-5 -25 -20 21 c-15 17 -27 21 -50 16 -56 -11 -63 -51 -16 -90 25 -21
27 -26 12 -27 -10 0 -28 -2 -41 -5 -14 -2 -21 0 -17 6 3 5 13 10 21 10 8 0 12
5 9 11 -4 6 -13 8 -21 5 -11 -4 -14 7 -14 49 0 57 6 62 58 56 6 -1 12 3 12 10
0 7 -11 9 -35 5 l-35 -7 0 78 0 78 75 1 75 1 0 -74z m578 68 c13 -8 13 -57 0
-181 -2 -19 -5 -52 -6 -72 -2 -33 -5 -38 -27 -38 -14 0 -25 5 -25 10 0 6 5 10
12 10 6 0 9 3 6 6 -4 3 -15 1 -26 -5 -15 -8 -23 -7 -32 4 -16 20 -30 19 -30
-1 0 -13 -3 -14 -14 -5 -11 9 -15 9 -18 0 -2 -7 -10 -9 -16 -5 -20 12 -12 116
9 116 5 0 9 -8 9 -17 0 -18 15 -8 15 10 0 7 8 11 18 11 13 -2 16 3 12 20 -6
19 -5 20 8 4 9 -12 28 -18 56 -18 37 0 41 3 43 25 7 103 6 105 -55 112 -39 5
-46 3 -52 -16 -3 -11 -3 -30 0 -41 4 -11 2 -20 -4 -20 -6 0 -11 5 -11 11 0 6
-7 3 -16 -5 -8 -9 -17 -16 -20 -16 -2 0 -4 25 -4 55 l0 55 78 0 c42 0 83 -4
90 -9z m-1202 -153 c-21 -12 -20 -34 2 -43 16 -6 16 -7 0 -16 -10 -6 -18 -19
-18 -29 0 -22 16 -27 23 -7 2 6 5 -26 6 -72 1 -46 4 -88 7 -93 15 -25 20 2 16
92 l-4 100 40 0 c31 0 42 -5 46 -18 11 -33 -22 -172 -48 -206 l-24 -32 -274
-3 c-150 -1 -357 -4 -460 -7 l-188 -4 0 28 0 28 92 0 c51 1 183 4 293 8 110 4
259 8 330 9 l130 3 -2 140 -2 141 26 -5 c21 -4 23 -6 9 -14z m-360 -18 c8 0
11 -6 8 -15 -11 -27 15 -83 42 -89 14 -4 22 -11 19 -16 -3 -6 3 -10 15 -10 12
0 18 -4 15 -10 -3 -5 3 -10 15 -10 12 0 18 -5 15 -10 -3 -6 1 -13 9 -16 9 -3
16 -13 16 -20 0 -11 4 -12 19 -4 11 5 27 7 37 3 12 -4 15 -2 12 8 -3 8 -13 16
-24 17 -10 2 -23 8 -29 14 -7 7 0 8 22 3 25 -5 32 -3 36 12 4 15 5 14 6 -4 0
-12 5 -23 9 -25 5 -1 4 -16 -3 -31 -11 -26 -13 -27 -28 -13 -17 18 -32 22 -22
6 3 -6 -3 -10 -14 -10 -11 0 -25 8 -30 18 -5 10 -40 33 -76 52 -65 33 -87 50
-65 50 6 0 8 5 5 11 -5 6 -12 4 -20 -8 -7 -10 -11 -22 -8 -26 3 -5 -5 -6 -18
-2 -32 10 -32 10 -20 34 8 14 8 22 1 26 -8 5 -7 12 2 23 11 15 11 15 -4 4 -20
-16 -31 -3 -15 19 17 22 51 40 55 28 2 -5 10 -9 18 -9z m637 -67 c-3 -43 -9
-82 -13 -86 -4 -5 -20 -1 -35 9 -26 17 -27 16 -48 -6 l-22 -22 22 11 c32 16
83 -16 54 -33 -5 -3 -7 -16 -4 -27 5 -19 3 -20 -18 -13 -13 5 -39 8 -57 8 -30
0 -33 2 -30 25 2 14 9 25 16 23 6 -1 12 2 12 8 0 6 -4 10 -9 10 -5 0 -8 35 -7
77 l1 78 30 6 c17 4 49 7 71 8 l42 1 -5 -77z m-1068 -36 c11 -2 25 0 32 5 6 5
27 8 45 6 l33 -4 -42 -8 c-24 -5 -43 -13 -43 -18 0 -6 9 -8 20 -5 11 3 23 1
26 -4 10 -18 -85 -14 -102 4 -10 10 -24 9 -24 -2 0 -5 15 -14 33 -21 17 -7 37
-19 42 -25 8 -10 20 -10 55 2 25 9 47 18 50 22 3 3 23 7 45 8 24 1 33 -1 22
-5 -30 -12 20 -47 63 -44 l35 2 -40 -20 -40 -19 -27 29 c-34 36 -51 37 -124 5
-31 -14 -62 -25 -70 -25 -7 0 -22 21 -34 48 -13 26 -27 55 -32 66 -9 17 -6 18
24 13 18 -3 42 -7 53 -10z m1775 -32 c0 -3 -9 -15 -20 -27 -30 -32 -15 -34 16
-3 26 26 28 27 35 9 4 -10 8 -40 8 -66 1 -36 -3 -48 -14 -48 -8 0 -15 4 -15
10 0 5 -13 7 -30 4 -16 -4 -54 -3 -84 0 -52 7 -54 9 -57 39 -2 18 -3 44 -1 60
3 27 4 27 83 27 43 0 79 -2 79 -5z m-494 -128 c4 -4 17 -7 28 -7 17 0 18 -2 6
-10 -8 -5 -10 -10 -4 -10 5 0 15 5 21 11 22 22 237 29 358 11 44 -7 114 -16
155 -21 64 -7 44 -9 -130 -11 -113 -1 -274 -3 -357 -4 -84 -1 -153 1 -153 4 0
3 6 15 14 26 14 20 48 26 62 11z m804 -115 l0 -69 -727 -6 c-401 -4 -889 -10
-1086 -14 l-357 -6 0 71 0 71 257 1 c142 0 346 3 454 5 l196 4 -1 -22 c-1 -20
5 -22 59 -27 80 -7 238 12 260 30 19 15 121 19 723 28 l222 4 0 -70z"/>
</g>
</svg>
