<?xml version="1.0" standalone="no"?>
<!DOCTYPE svg PUBLIC "-//W3C//DTD SVG 20010904//EN"
 "http://www.w3.org/TR/2001/REC-SVG-20010904/DTD/svg10.dtd">
<svg version="1.0" xmlns="http://www.w3.org/2000/svg"
 width="233.000000pt" height="400.000000pt" viewBox="0 0 233.000000 400.000000"
 preserveAspectRatio="xMidYMid meet">
<metadata>
Created by potrace 1.15, written by Peter Selinger 2001-2017
</metadata>
<g transform="translate(0.000000,400.000000) scale(0.100000,-0.100000)"
fill="#000000" stroke="none">
<path d="M1965 3968 c-99 -3 -569 -6 -1045 -6 -476 0 -869 -1 -875 -1 -7 -1
-10 -597 -11 -1764 -1 -969 -4 -1851 -7 -1959 -3 -109 -1 -200 3 -203 5 -3
246 -5 537 -4 290 0 784 1 1098 1 375 0 574 3 583 10 14 13 18 583 3 574 -5
-3 -11 1 -14 9 -4 9 -1 12 8 9 18 -7 28 124 21 286 -3 69 -8 780 -12 1580 -3
800 -9 1458 -12 1461 -13 12 -97 14 -277 7z m242 -16 c7 -4 15 -37 18 -72 3
-36 7 -692 9 -1457 4 -1296 3 -1393 -12 -1394 -15 -1 -15 -2 1 -6 13 -3 17
-15 17 -48 l0 -44 -32 6 c-18 3 -48 12 -67 19 -18 8 -41 14 -50 14 -20 -1 50
-28 107 -42 39 -9 42 -12 41 -41 l-1 -32 -11 27 c-7 19 -18 28 -31 27 -12 0
-15 -3 -8 -6 6 -2 12 -11 12 -19 0 -8 5 -14 11 -14 5 0 7 -4 4 -10 -3 -5 0
-10 8 -10 23 0 21 -77 -1 -77 -9 0 -22 3 -28 8 -6 5 -52 9 -103 10 -96 1 -185
16 -111 18 53 2 75 21 25 21 -22 0 -100 3 -174 7 -96 4 -132 3 -127 -5 5 -9
79 -15 167 -13 14 1 34 -6 45 -14 17 -13 11 -14 -63 -15 -45 0 -85 5 -88 10
-3 6 -33 10 -66 10 -32 0 -59 4 -59 9 0 5 9 7 20 4 15 -4 19 -1 15 9 -4 10 6
18 37 27 29 9 43 10 46 3 2 -7 12 -8 25 -3 12 4 28 6 36 3 8 -2 11 0 7 6 -4 6
2 8 14 5 11 -3 20 0 20 6 0 6 -7 11 -16 11 -8 0 -13 4 -10 9 3 4 -13 2 -37 -5
-73 -23 -196 -47 -212 -40 -22 8 -18 26 6 26 11 0 18 4 15 8 -3 5 -19 7 -37 4
-22 -3 -27 -7 -18 -13 9 -6 2 -9 -21 -8 -27 0 -30 2 -15 8 16 7 14 9 -15 14
-18 4 -35 5 -38 2 -3 -3 3 -5 13 -5 40 0 3 -12 -47 -16 l-53 -4 35 18 35 17
-105 3 c-66 2 -106 -1 -108 -8 -4 -11 -32 -14 -32 -2 0 14 15 29 30 30 8 0 60
1 114 2 55 1 108 6 118 11 10 6 39 11 63 12 25 1 45 7 45 13 0 6 7 17 15 24
12 10 15 10 15 -1 1 -11 3 -11 13 1 7 9 41 35 77 58 36 23 71 51 78 62 18 29
33 25 77 -20 21 -21 42 -37 46 -34 11 7 -75 84 -94 84 -9 0 -29 -12 -44 -26
-48 -46 -145 -104 -173 -104 -15 0 -51 -8 -82 -19 -36 -12 -92 -20 -167 -23
l-113 -3 7 42 c3 24 3 49 -2 55 -4 7 -7 26 -6 43 1 21 -3 14 -14 -23 l-16 -53
-51 6 c-69 9 -92 26 -99 72 -7 45 -1 78 23 113 25 37 43 94 30 98 -5 2 -15 22
-21 45 -13 48 4 117 29 117 8 0 21 8 28 18 13 16 13 16 14 0 0 -23 52 -25 70
-3 7 8 20 15 29 15 9 0 23 6 29 12 20 20 5 -175 -19 -247 -11 -33 -22 -78 -24
-100 l-5 -40 11 35 c6 19 20 64 31 100 11 36 24 110 29 165 4 55 8 101 9 103
0 1 9 2 21 2 15 0 19 5 15 15 -3 9 -8 91 -10 183 -5 173 4 131 19 -91 4 -61
11 -95 17 -91 6 4 8 23 5 43 -4 20 -8 92 -11 161 -4 104 -3 114 4 60 6 -36 17
-97 27 -137 13 -59 14 -75 3 -88 -7 -8 -8 -15 -2 -15 5 0 15 7 22 16 11 12 10
24 -3 67 -9 29 -23 111 -32 182 -9 72 -21 157 -28 190 -6 33 -11 110 -9 170 1
61 2 145 2 189 0 67 2 77 14 67 23 -20 68 -9 85 20 9 14 25 38 35 53 13 19 22
60 31 139 6 62 13 117 16 122 5 15 -21 56 -32 50 -5 -4 -6 -11 -3 -17 4 -6 0
-14 -7 -19 -11 -8 -11 -12 5 -24 18 -14 18 -20 7 -117 -14 -111 -21 -132 -51
-148 -11 -6 -20 -19 -20 -30 0 -27 -13 -31 -49 -19 -31 11 -31 12 -15 30 14
16 15 24 6 45 -16 33 -15 33 8 27 21 -6 28 11 10 22 -8 5 -7 12 2 22 10 12 9
17 -5 24 -21 12 -23 31 -2 23 8 -4 15 -1 15 5 0 6 -5 11 -11 11 -7 0 -8 7 -4
18 4 9 15 44 25 77 10 33 22 59 28 58 7 -2 9 4 5 14 -4 11 -3 14 5 9 7 -4 12
-2 12 4 0 8 9 10 24 6 14 -3 28 -2 31 4 9 15 25 12 25 -5 0 -8 -5 -15 -12 -15
-9 0 -9 -3 -1 -11 19 -19 35 1 30 35 -5 33 7 69 31 99 11 12 11 17 3 17 -7 0
-20 -14 -29 -31 -31 -56 -53 -79 -77 -79 -26 0 -41 15 -25 25 5 3 10 14 10 23
1 17 110 99 110 83 0 -9 54 7 78 22 8 5 12 3 12 -7 0 -8 -8 -20 -17 -25 -14
-8 -15 -10 -3 -11 20 0 70 92 70 130 0 17 -3 30 -7 30 -5 -1 -24 -21 -43 -46
-19 -25 -44 -50 -55 -54 -18 -8 -19 -9 -1 -9 10 -1 36 18 58 42 27 29 35 34
27 17 -7 -14 -11 -26 -10 -28 1 -1 -3 -10 -8 -20 -6 -9 -11 -12 -11 -7 0 6 5
16 12 23 7 7 8 12 2 12 -6 0 -16 -11 -22 -25 -11 -23 -31 -31 -69 -26 -7 1
-23 -3 -35 -10 -23 -12 -23 -11 1 15 14 14 32 26 42 26 9 0 22 7 29 15 11 13
10 14 -6 8 -14 -5 -12 2 11 29 17 19 32 33 34 32 2 -2 -3 -12 -12 -22 -26 -29
-20 -38 8 -12 14 13 25 30 25 38 0 8 11 23 25 34 60 47 85 162 52 238 -29 69
-121 130 -196 130 -54 0 -120 -31 -156 -72 -74 -87 -62 -226 24 -296 14 -11
12 -16 -17 -42 -24 -21 -42 -52 -63 -112 -16 -45 -31 -84 -34 -86 -2 -2 -17 5
-33 17 -17 12 -35 21 -41 21 -8 0 -9 13 -4 43 10 53 9 152 -1 287 -11 134 -32
177 -108 214 -68 32 -128 40 -203 27 -33 -6 -76 -13 -95 -15 -19 -1 -51 -9
-70 -16 -55 -21 -63 -22 -103 -27 -63 -7 -81 -18 -96 -58 -11 -31 -11 -39 0
-46 8 -5 12 -25 10 -59 -4 -71 16 -100 69 -100 25 0 40 -5 41 -12 0 -10 2 -10
6 0 2 6 9 12 14 12 5 0 2 -16 -6 -36 -18 -45 -18 -45 0 -38 8 3 17 15 21 26 6
20 6 20 27 0 12 -11 35 -24 51 -28 25 -6 28 -5 22 11 -5 15 -4 16 9 5 8 -7 13
-21 10 -30 -6 -18 19 -35 35 -25 18 11 22 -19 5 -31 -12 -9 -16 -20 -11 -38 6
-24 6 -24 -25 -9 -55 27 -146 -14 -171 -77 -18 -45 -19 -72 -18 -295 1 -169 4
-222 14 -227 8 -4 11 -18 8 -33 -2 -14 0 -31 5 -38 12 -16 32 -84 35 -122 2
-24 8 -31 30 -33 26 -3 26 -3 33 84 4 48 5 116 2 150 -4 35 -4 64 -2 64 2 0
15 -24 28 -52 14 -29 36 -68 51 -87 26 -35 35 -94 16 -106 -22 -14 -123 -211
-175 -345 -32 -80 -61 -150 -67 -157 -12 -15 7 -53 27 -53 8 0 15 -4 15 -10 0
-5 4 -10 10 -10 5 0 7 6 4 14 -7 17 67 230 128 371 55 126 63 139 77 131 8 -5
4 -20 -13 -49 -41 -69 -114 -258 -151 -389 -40 -140 -42 -158 -17 -158 12 0
13 3 5 8 -14 9 -3 65 39 192 47 144 153 390 169 390 15 0 10 -17 -21 -67 -34
-55 -159 -424 -167 -495 -5 -41 -3 -48 13 -54 11 -3 27 -10 36 -15 10 -5 24
-9 32 -9 13 0 15 -22 12 -136 l-4 -136 -60 -116 c-52 -101 -61 -126 -64 -180
-3 -59 -4 -62 -28 -61 -23 0 -23 1 -5 9 16 7 13 9 -17 9 -50 1 -57 18 -19 48
l32 25 -7 72 c-6 69 -25 123 -48 139 -6 4 -27 6 -48 5 -20 -1 -43 4 -52 11
-10 9 -30 12 -56 8 -22 -3 -43 -1 -46 4 -3 5 -9 7 -14 4 -5 -3 -14 3 -19 13
-15 28 -45 32 -80 11 -20 -12 -49 -18 -90 -18 -71 1 -77 -2 -86 -40 -8 -39
-52 -91 -59 -71 -3 8 -5 637 -3 1398 l2 1382 978 4 c538 2 981 7 984 10 9 9
176 7 190 -2z m-540 -450 c54 -38 86 -96 87 -156 1 -93 -39 -153 -127 -190
-27 -11 -37 -11 -41 -3 -3 9 -7 9 -14 -1 -14 -20 -115 21 -148 61 -61 72 -68
137 -26 218 40 76 85 101 173 96 47 -3 76 -10 96 -25z m-556 -138 c14 -13 16
-20 8 -30 -7 -9 -9 -31 -4 -60 5 -38 9 -43 21 -33 8 6 14 8 14 3 -1 -17 -25
-99 -32 -110 -9 -14 -81 -3 -103 16 -9 7 -19 9 -23 5 -4 -4 4 -15 17 -24 65
-43 65 -43 50 -94 -15 -53 -29 -61 -29 -18 0 25 -7 33 -43 50 -24 12 -49 21
-55 21 -14 0 -14 16 -3 45 6 14 2 28 -10 47 -17 23 -18 30 -7 55 7 15 18 32
25 36 7 4 13 21 13 36 0 16 9 39 20 53 16 22 26 25 70 22 32 -1 59 -9 71 -20z
m315 -247 c-30 -39 -32 -47 -11 -47 8 0 12 6 10 13 -2 6 7 24 20 40 19 21 30
26 50 21 34 -8 32 -16 -10 -38 -19 -11 -33 -21 -31 -23 2 -2 20 6 41 18 28 17
95 34 95 24 0 0 -20 -21 -45 -45 -50 -49 -62 -43 -14 8 16 17 26 32 21 32 -4
0 -23 -15 -41 -34 l-33 -34 21 -23 c27 -29 27 -31 -11 -53 -17 -11 -48 -34
-68 -52 l-36 -33 -27 22 -27 22 20 55 c20 52 27 75 29 92 2 12 63 79 68 74 3
-3 -7 -20 -21 -39z m-576 -152 c16 -8 48 -28 72 -44 56 -37 128 -61 179 -59
46 2 90 32 114 79 14 25 18 27 39 17 39 -17 30 -67 -22 -122 -49 -52 -82 -63
-117 -40 -15 10 -32 13 -47 9 -19 -6 -21 -5 -10 6 6 7 12 17 12 21 0 8 -44 29
-91 43 -23 7 -23 7 4 -19 15 -14 32 -26 37 -26 5 0 12 -5 16 -11 10 -17 -18
-30 -35 -16 -11 9 -15 9 -18 0 -3 -7 -9 -13 -14 -13 -4 0 -6 7 -3 15 10 25 -9
16 -34 -16 l-24 -29 24 -20 c12 -10 30 -17 39 -14 11 3 19 -3 24 -18 6 -20 8
-21 12 -5 8 29 -5 50 -27 44 -11 -3 -20 -1 -20 4 0 5 -7 9 -16 9 -8 0 -13 4
-9 9 3 5 25 7 49 5 26 -3 47 -1 51 5 10 17 62 13 80 -5 10 -10 13 -24 9 -37
-6 -18 -4 -20 7 -10 11 9 14 7 14 -12 0 -17 -9 -26 -32 -35 -18 -6 -33 -16
-33 -21 0 -13 14 -11 28 3 7 7 20 13 30 13 11 0 18 10 20 30 2 17 8 35 14 42
5 7 7 17 3 23 -3 5 -1 10 5 10 7 0 14 -9 17 -20 3 -11 9 -18 13 -15 5 3 6 13
3 23 -5 23 72 112 97 112 9 0 25 -9 34 -19 15 -16 15 -22 4 -40 -7 -12 -16
-21 -20 -21 -4 0 -5 -6 -2 -14 3 -8 -4 -23 -15 -33 -12 -9 -21 -23 -21 -29 0
-7 -11 -26 -25 -42 -20 -24 -22 -32 -11 -41 15 -13 26 -5 26 19 0 9 9 25 20
35 11 10 17 21 15 26 -3 4 6 20 20 35 14 15 25 38 25 52 0 18 3 23 10 16 13
-13 -17 -83 -66 -160 -19 -29 -34 -58 -34 -63 0 -17 -43 -41 -73 -41 -25 0
-28 2 -17 15 7 8 8 15 3 15 -13 0 -33 -22 -33 -37 0 -12 15 -12 87 3 13 2 33
24 52 56 l30 53 -1 -135 c0 -74 3 -143 7 -153 4 -9 4 -36 1 -60 l-7 -42 -86 6
c-50 4 -89 12 -93 19 -4 7 -11 35 -14 62 -9 63 -21 54 -17 -12 2 -49 -3 -57
-25 -42 -14 9 -54 141 -54 176 0 20 5 26 23 26 12 0 28 4 35 9 8 4 -22 8 -70
9 -46 0 -87 1 -91 1 -5 1 -5 10 -2 22 5 14 -1 27 -18 45 -18 18 -27 21 -30 12
-2 -7 -2 -2 0 10 3 16 0 23 -9 20 -23 -8 -21 -49 2 -70 18 -17 24 -18 32 -7 7
10 8 9 3 -6 -4 -11 -8 -31 -9 -45 -1 -31 -20 -29 -24 2 -2 12 -15 35 -28 51
-13 16 -24 34 -24 40 0 7 -20 34 -45 62 -25 27 -45 52 -45 57 0 4 -14 20 -31
36 -27 26 -29 30 -16 44 18 17 27 77 12 77 -5 1 -15 -14 -21 -31 -8 -24 -12
-28 -17 -16 -3 10 3 28 14 42 12 15 15 27 9 31 -5 3 -10 13 -10 21 0 8 5 12
10 9 6 -3 10 -1 10 4 0 6 5 11 10 11 6 0 5 -8 -2 -20 -7 -10 -9 -22 -6 -25 9
-9 45 29 40 43 -2 6 12 15 30 21 47 13 55 13 88 -4z m-46 -364 c9 -20 23 -47
30 -61 8 -14 19 -41 23 -60 l9 -35 31 31 c23 23 44 33 78 36 41 5 45 4 40 -13
-4 -10 3 -53 15 -94 25 -89 23 -131 -4 -70 -10 22 -23 66 -30 97 -6 31 -15 60
-19 64 -15 15 -6 -59 13 -117 12 -34 19 -63 16 -66 -4 -5 -34 58 -57 120 -7
20 -16 34 -20 31 -4 -2 4 -32 17 -65 14 -34 22 -64 18 -68 -4 -3 -9 0 -11 6
-3 7 -13 23 -24 35 l-20 23 11 -23 c19 -39 6 -34 -26 8 -16 22 -33 40 -37 40
-5 0 1 -12 12 -26 12 -15 21 -31 21 -37 0 -6 -14 8 -31 31 -17 23 -28 46 -25
51 3 5 1 20 -4 33 -9 21 -10 20 -5 -7 4 -18 3 -26 -3 -20 -16 18 -52 126 -52
155 0 16 -4 32 -10 35 -6 4 -10 -12 -10 -41 0 -63 -7 -53 -12 18 l-4 57 27
-16 c15 -9 34 -32 43 -52z m177 -332 c8 -4 44 -18 80 -30 91 -31 176 -71 162
-76 -7 -3 -40 5 -73 16 -33 12 -81 21 -108 21 -65 1 -165 23 -170 38 -2 6 1
12 7 12 6 0 11 6 11 14 0 25 46 28 91 5z m-46 -297 c-20 -103 -45 -230 -55
-282 -29 -140 -27 -168 14 -161 4 1 14 -3 21 -9 8 -6 32 -9 58 -6 39 5 46 2
65 -23 l21 -28 -26 -84 c-14 -46 -36 -97 -50 -113 -34 -41 -55 -85 -49 -103 6
-15 -14 -60 -46 -104 -16 -21 -29 -26 -66 -28 -54 -2 -61 -6 -40 -27 15 -15
21 -14 72 5 73 27 73 27 31 -10 -20 -18 -33 -34 -30 -37 3 -3 16 5 30 18 29
27 33 15 5 -18 -43 -52 -119 -58 -148 -11 -12 19 -11 20 10 14 22 -6 22 -6 4
9 -12 10 -15 16 -7 16 11 0 11 3 1 15 -7 8 -9 15 -4 15 5 0 9 24 9 53 1 43 9
68 43 130 l43 78 4 150 c4 140 3 150 -14 144 -10 -3 -32 2 -49 11 -40 20 -41
43 -7 162 31 108 68 203 61 155 -8 -46 10 -41 19 5 18 99 105 306 113 269 2
-10 -13 -103 -33 -205z m150 174 c1 -18 5 -38 8 -43 4 -6 -5 -78 -19 -159 -19
-113 -23 -153 -14 -167 13 -22 -19 -197 -36 -197 -7 0 -15 -11 -18 -24 -7 -30
-64 -43 -83 -19 -7 9 -19 13 -27 10 -22 -9 -27 31 -11 93 7 30 18 84 24 120
22 137 66 310 79 310 6 0 12 11 12 24 0 48 20 85 48 88 35 4 36 3 37 -36z m97
7 l27 -5 -2 -317 c-1 -174 -6 -321 -10 -328 -8 -13 -44 -6 -49 10 -4 12 6 219
16 341 7 73 -1 83 -15 19 -5 -24 -7 8 -4 82 2 66 7 133 11 149 4 19 3 27 -3
23 -15 -9 -22 -79 -34 -309 -11 -240 -25 -323 -54 -323 -18 0 -20 6 -17 55 2
30 8 71 13 90 5 19 18 93 29 165 15 101 17 131 7 137 -9 6 -8 12 5 22 10 7 16
15 13 18 -5 4 11 118 21 151 3 11 0 17 -10 17 -8 0 -18 5 -22 11 -5 9 1 10 22
5 16 -4 41 -10 56 -13z m105 -35 c31 -22 42 -38 26 -38 -7 0 -7 -109 0 -413 1
-82 -1 -107 -11 -107 -10 0 -13 39 -12 178 1 305 0 362 -7 362 -5 0 -9 -125
-11 -277 -3 -277 -7 -308 -38 -296 -13 5 -15 48 -12 309 3 336 0 325 65 282z
m-221 -803 c4 -25 -1 -48 -20 -91 -14 -31 -26 -65 -26 -76 0 -10 -7 -29 -15
-42 -17 -26 -18 -79 -2 -113 14 -30 6 -36 -48 -37 -37 -1 -44 2 -39 14 11 25
25 92 30 139 2 24 11 58 19 74 8 17 15 34 15 39 0 6 9 23 21 39 11 16 25 45
30 65 12 41 26 37 35 -11z m-858 -120 l12 -20 -3 20 c-1 11 -6 26 -10 33 -6 8
-2 12 12 12 11 0 23 5 26 10 3 6 11 10 17 10 6 0 3 -8 -6 -19 -16 -18 -16 -18
28 -14 42 5 45 4 52 -21 3 -14 3 -33 0 -42 -4 -9 -1 -23 5 -30 9 -11 8 -14 -5
-14 -18 0 -22 -16 -4 -22 27 -9 -6 -28 -44 -26 -52 4 -100 44 -91 77 4 16 1
21 -16 21 -23 0 -29 16 -9 22 9 3 8 9 -5 22 -9 10 -17 24 -17 31 0 16 40 -18
58 -50z m280 35 c7 -12 8 -20 2 -20 -5 0 -10 -4 -10 -10 0 -5 7 -7 15 -4 15 6
65 -37 65 -56 0 -5 -7 -10 -16 -10 -12 0 -15 -7 -11 -26 7 -38 -13 -69 -47
-71 -26 -2 -28 0 -22 27 3 17 1 30 -4 30 -6 0 -10 -4 -10 -9 0 -5 -13 -16 -30
-25 -16 -8 -30 -11 -30 -6 0 5 12 15 28 22 18 9 30 25 36 49 9 37 6 50 -16 80
-15 21 -4 49 19 49 10 0 24 -9 31 -20z m-215 -279 c15 -1 27 -5 27 -9 0 -4
-16 -6 -35 -4 -19 2 -35 0 -35 -5 0 -5 24 -10 53 -11 47 -2 178 -39 195 -56 8
-9 -92 -1 -106 8 -7 4 -17 4 -23 0 -8 -4 -3 -12 12 -20 18 -10 20 -13 7 -14
-35 0 -29 -20 6 -20 27 0 36 4 36 16 0 16 18 17 80 2 10 -2 15 4 14 19 0 20 2
21 25 9 14 -7 50 -16 80 -19 29 -4 55 -8 58 -10 2 -2 -8 -28 -23 -56 -14 -29
-23 -55 -20 -58 3 -4 8 -4 10 -2 11 12 67 144 73 169 3 17 9 30 13 30 15 0 51
-39 45 -49 -3 -6 -1 -11 5 -11 6 0 8 -4 5 -10 -3 -5 -2 -10 2 -10 16 0 8 -51
-9 -64 -14 -10 -15 -15 -5 -25 9 -10 6 -11 -18 -5 l-30 7 29 -25 c22 -19 27
-30 22 -44 -7 -15 -9 -16 -13 -4 -10 29 -36 50 -62 50 -24 -1 -24 -2 -9 -14
10 -7 15 -16 11 -19 -3 -4 2 -16 12 -27 10 -11 13 -20 7 -20 -6 0 -17 8 -24
18 -7 10 -20 21 -30 24 -23 9 -32 -31 -11 -54 13 -14 14 -21 5 -30 -7 -7 -12
-9 -12 -4 0 4 -8 0 -17 -10 -16 -15 -16 -17 0 -29 10 -7 16 -18 15 -25 -5 -19
18 -23 35 -5 9 8 20 15 26 15 8 0 8 6 -1 19 -9 15 -7 24 11 50 12 17 33 34 46
37 28 7 34 22 37 82 1 24 5 45 9 48 5 2 6 10 4 17 -6 16 21 51 34 43 5 -4 12
-2 15 3 4 5 -2 11 -11 13 -38 7 4 13 52 7 43 -5 45 -6 15 -8 l-35 -2 35 -13
c66 -24 80 -27 80 -17 0 5 -8 11 -17 14 -10 2 -1 4 19 3 39 -1 45 -5 28 -22
-5 -5 -12 -54 -15 -109 -3 -55 -9 -118 -15 -140 -8 -36 -3 -66 7 -37 3 6 9 12
15 12 6 0 8 -7 4 -15 -7 -19 -5 -19 30 0 25 13 29 13 37 0 4 -8 15 -15 22 -15
8 0 15 -4 15 -9 0 -13 -34 -24 -38 -12 -7 22 -52 12 -64 -14 -10 -21 -8 -27 7
-39 17 -12 16 -14 -11 -23 -23 -8 -32 -6 -46 9 -17 17 -17 18 2 18 13 0 20 7
20 20 0 11 -5 20 -10 20 -6 0 -10 7 -8 16 4 23 -28 42 -49 28 -14 -9 -18 -20
-25 -71 -1 -7 -6 -13 -11 -13 -5 0 -6 7 -3 16 4 10 1 14 -6 12 -7 -3 -14 -14
-16 -26 -2 -12 -8 -22 -14 -22 -6 0 -8 13 -4 33 5 25 2 36 -15 50 -11 10 -23
17 -25 14 -8 -8 8 -37 17 -31 5 3 9 -2 9 -12 0 -13 -3 -14 -15 -4 -11 10 -18
9 -30 -3 -19 -20 -19 -31 0 -23 9 3 18 -1 22 -10 8 -22 -4 -29 -23 -14 -12 10
-20 11 -33 3 -10 -6 -29 -9 -44 -6 -23 5 -26 10 -24 36 1 19 -3 32 -13 35 -13
4 -13 3 -1 -11 11 -14 11 -18 -4 -23 -9 -4 -21 -16 -25 -28 -8 -19 -9 -18 -9
7 -1 16 3 26 8 22 5 -3 12 -1 16 5 7 12 -15 13 -31 2 -6 -4 -14 -16 -18 -26
-6 -19 -7 -19 -22 0 -15 19 -15 19 -12 -1 2 -11 -6 -29 -19 -42 -25 -24 -26
-24 -23 27 1 28 -1 33 -11 23 -19 -18 -29 -16 -29 7 0 14 -5 18 -16 13 -15 -5
-15 -4 0 20 17 24 19 25 51 11 19 -7 40 -11 48 -8 8 3 18 1 21 -5 12 -19 37 0
30 22 -9 29 -41 60 -53 52 -17 -10 -13 -25 4 -19 20 8 19 -13 -2 -34 -12 -12
-18 -13 -21 -4 -2 6 -12 12 -23 12 -10 0 -19 2 -19 4 0 13 67 126 88 148 14
15 23 31 19 34 -4 4 -16 -5 -28 -19 -11 -15 -27 -27 -35 -27 -8 0 -14 -6 -12
-12 1 -7 -1 -23 -6 -35 -6 -18 -14 -22 -42 -21 -24 1 -34 6 -34 17 1 25 26 65
34 53 3 -6 2 -13 -4 -17 -16 -10 -12 -22 10 -28 23 -6 26 15 10 59 -9 22 -15
26 -39 21 -24 -5 -32 -1 -45 18 -20 31 -20 36 2 28 15 -6 16 -5 2 12 -14 17
-14 18 7 7 12 -7 27 -12 34 -12 21 0 -4 19 -38 29 -26 7 -35 5 -57 -15 -14
-14 -26 -31 -26 -39 0 -19 40 -15 41 5 1 8 5 -1 9 -20 10 -41 6 -48 -15 -30
-8 7 -22 9 -32 6 -9 -4 -20 -1 -24 6 -4 7 -11 9 -15 5 -10 -10 28 -38 43 -32
7 2 19 -6 28 -18 13 -19 13 -22 0 -27 -13 -5 -13 -8 0 -34 18 -34 19 -44 3
-28 -16 16 -33 16 -20 0 14 -18 13 -73 -1 -59 -17 17 -26 13 -20 -8 3 -11 -2
-21 -11 -24 -21 -8 -31 10 -16 28 7 9 8 15 2 15 -5 0 -16 -7 -23 -17 -11 -13
-11 -17 -1 -20 16 -6 15 -30 -2 -36 -8 -3 -28 -4 -45 -2 -17 2 -31 0 -31 -5 0
-6 5 -10 11 -10 6 0 9 -6 6 -14 -6 -14 25 -30 52 -26 7 1 10 -3 6 -10 -4 -7
-19 -10 -36 -6 -16 3 -29 1 -29 -4 0 -6 21 -10 46 -10 37 0 45 3 40 15 -3 9 0
15 9 15 28 0 15 -28 -18 -39 -72 -23 -151 -1 -99 28 14 8 15 12 5 22 -7 7 -13
23 -13 35 0 17 8 24 30 29 38 8 40 29 3 22 -38 -7 -63 8 -56 33 4 15 0 20 -16
20 -24 0 -26 -11 -10 -42 10 -18 9 -20 -6 -15 -9 4 -22 7 -29 7 -16 0 -15 52
2 58 14 4 16 41 2 62 -5 8 -21 15 -36 15 -21 1 -28 7 -30 28 -3 29 5 34 24 15
9 -9 12 -9 12 1 0 7 -9 15 -20 18 -22 6 -28 33 -7 34 10 0 10 2 0 6 -14 5 -19
152 -5 154 67 6 142 27 142 41 0 6 -11 8 -25 6 -14 -3 -28 -1 -31 3 -3 5 4 9
14 9 11 0 25 7 32 15 7 8 22 13 34 11 11 -3 33 -5 49 -5z m855 -28 c36 -4 52
-2 52 6 0 6 5 11 11 11 8 0 8 -4 0 -13 -10 -12 -21 -70 -37 -199 -6 -45 -6
-47 36 -77 24 -17 47 -31 53 -31 5 0 38 -14 73 -31 64 -32 74 -49 27 -49 -18
0 -24 4 -19 15 5 14 -5 19 -31 16 -7 -1 -13 3 -13 9 0 6 -7 6 -20 -2 -16 -10
-24 -10 -40 0 -18 11 -20 10 -20 -9 0 -11 -5 -19 -12 -17 -18 6 -20 24 -5 39
7 8 12 20 9 27 -6 18 -32 -5 -32 -29 0 -10 -4 -21 -10 -24 -5 -3 -10 1 -10 9
0 11 -9 16 -26 16 -20 0 -25 -4 -20 -16 3 -8 2 -12 -4 -9 -5 3 -18 0 -29 -7
-45 -28 -65 45 -22 80 9 8 11 11 4 8 -6 -4 -14 -2 -18 4 -3 6 1 13 10 16 13 6
14 8 3 15 -11 7 -10 11 2 19 8 5 10 10 4 10 -6 0 -11 11 -11 25 0 14 4 22 10
18 6 -4 8 2 5 15 -4 14 -1 22 11 25 11 3 9 5 -6 6 -13 0 -23 6 -23 12 0 5 5 7
10 4 6 -3 15 -3 21 1 8 4 7 9 -2 15 -11 7 -10 9 4 9 25 0 21 17 -8 36 -14 9
-25 20 -25 25 0 5 10 3 23 -5 16 -11 31 -13 52 -7 17 5 23 10 15 10 -8 1 -33
10 -55 21 -25 13 -31 18 -15 15 14 -3 49 -8 78 -12z m195 -106 c31 -6 57 -15
57 -19 0 -6 -43 -3 -75 7 -6 1 -28 -1 -50 -5 l-40 -8 40 -1 c22 0 56 -4 75 -7
30 -6 32 -8 15 -15 -14 -5 -4 -8 32 -8 60 -1 91 -10 73 -21 -7 -4 29 -11 79
-15 62 -5 91 -11 88 -19 -2 -6 2 -23 9 -37 12 -24 20 -27 89 -32 42 -3 82 -10
89 -16 7 -6 17 -7 21 -3 5 4 5 -1 2 -10 -7 -19 8 -25 18 -8 7 11 64 14 89 4 9
-3 14 -10 11 -14 -3 -5 18 -6 47 -4 29 3 98 1 153 -3 92 -7 100 -10 97 -28 -1
-11 -2 -41 -3 -67 0 -27 -5 -48 -10 -48 -6 0 -7 4 -4 10 4 6 -5 10 -20 10 -15
0 -24 -4 -20 -10 3 -6 1 -10 -4 -10 -6 0 -11 5 -11 11 0 5 -3 8 -7 6 -5 -3
-14 2 -22 11 -13 13 -10 14 32 10 26 -3 47 -2 47 3 0 5 -21 10 -47 11 -44 1
-45 2 -13 6 l35 5 -35 6 c-40 7 -49 34 -12 39 15 2 22 -2 22 -14 0 -13 3 -14
15 -4 24 20 8 30 -45 30 -46 0 -50 -2 -47 -22 2 -19 -4 -24 -30 -26 -44 -4
-42 -18 5 -29 l37 -10 -43 -7 c-46 -9 -48 -26 -2 -26 41 0 47 -18 8 -22 -34
-3 -56 -38 -24 -38 9 0 15 6 13 12 -1 7 8 14 21 16 18 3 22 -1 22 -22 0 -27
19 -47 21 -22 3 33 4 37 19 46 13 8 12 10 -4 10 -11 0 -16 3 -12 7 11 11 100
2 108 -10 4 -7 8 -23 8 -36 0 -21 -3 -23 -31 -17 -22 4 -29 2 -26 -7 2 -6 17
-15 33 -18 28 -6 27 -7 -8 -8 -21 0 -39 4 -41 12 -4 9 -8 9 -14 1 -12 -17
-485 -17 -495 -1 -6 9 -10 9 -16 0 -11 -17 -588 -21 -605 -4 -15 15 11 34 33
24 8 -4 30 -7 48 -7 17 0 32 -3 32 -6 0 -4 11 -5 25 -2 27 5 33 17 13 25 -7 2
-9 8 -5 13 5 5 15 0 23 -11 22 -30 78 -30 111 1 29 27 48 32 40 10 -4 -10 -1
-13 9 -9 23 9 16 33 -9 33 -33 0 -40 10 -21 32 14 14 14 20 4 33 -13 16 -7 45
10 45 5 0 10 -7 10 -15 0 -8 5 -15 11 -15 6 0 9 8 7 18 -3 11 5 25 20 37 24
18 25 18 18 0 -10 -27 12 -35 45 -16 36 20 36 29 3 42 -25 9 -25 11 -11 27 20
22 8 44 -21 39 -31 -5 -37 -14 -22 -33 12 -13 11 -17 -1 -25 -8 -5 -16 -7 -19
-6 -3 1 -24 11 -47 21 -24 10 -43 22 -43 27 0 13 9 11 26 -6 19 -19 34 -19 34
-1 0 8 3 23 7 33 6 16 5 16 -10 4 -9 -7 -17 -9 -17 -4 0 4 -18 8 -40 8 -22 0
-40 -3 -40 -7 0 -5 7 -8 15 -8 8 0 15 -5 15 -10 0 -14 -70 16 -98 43 -22 20
-23 28 -17 80 10 96 4 93 148 64z m419 -30 c5 -8 65 -11 207 -10 119 1 203 -2
206 -7 4 -6 24 -10 46 -10 21 0 39 -4 39 -10 0 -5 -14 -7 -31 -5 -37 5 -59 -3
-59 -19 0 -8 -10 -11 -29 -8 -22 3 -28 8 -24 23 6 22 -23 37 -40 20 -6 -6 -31
-11 -55 -11 -24 0 -52 -5 -63 -11 -16 -8 -25 -7 -39 6 -12 11 -20 13 -25 6 -8
-14 -42 -14 -47 0 -3 8 -13 7 -33 -3 -23 -12 -34 -13 -47 -5 -14 9 -22 7 -38
-11 -21 -22 -50 -30 -50 -13 0 5 -27 12 -60 16 -36 4 -68 14 -81 26 -12 10
-32 19 -45 19 -45 0 -34 19 13 22 92 6 248 -4 255 -15z m495 -481 c3 -2 1 -42
-3 -89 -6 -72 -10 -86 -25 -90 -15 -4 -19 0 -19 23 0 30 -14 46 -44 51 -11 2
-21 10 -24 16 -6 19 28 29 39 12 6 -11 11 -11 20 -2 7 7 9 16 5 20 -8 8 -92 6
-106 -2 -16 -10 6 -49 31 -55 25 -6 35 -30 24 -58 -6 -16 -8 -15 -20 2 -16 21
-45 15 -45 -9 0 -13 13 -15 74 -14 81 2 96 -3 96 -30 0 -17 -31 -18 -542 -24
-299 -4 -790 -7 -1093 -7 l-550 -1 -3 132 -3 131 333 -6 c183 -3 605 -2 938 2
577 7 909 6 917 -2z"/>
<path d="M1536 3432 c-18 -54 -19 -54 -105 -65 -19 -3 -10 -22 9 -21 8 0 27 3
43 7 21 6 27 4 27 -9 0 -12 -7 -14 -32 -9 l-33 6 27 -16 c27 -15 27 -16 13
-55 -19 -53 -4 -59 45 -20 38 30 43 31 73 19 18 -7 38 -17 45 -22 16 -12 16
13 0 49 -11 24 -10 29 20 55 18 16 32 31 32 34 0 3 -22 5 -50 5 -49 0 -50 1
-73 47 l-24 47 -17 -52z"/>
</g>
</svg>
