<?xml version="1.0" standalone="no"?>
<!DOCTYPE svg PUBLIC "-//W3C//DTD SVG 20010904//EN"
 "http://www.w3.org/TR/2001/REC-SVG-20010904/DTD/svg10.dtd">
<svg version="1.0" xmlns="http://www.w3.org/2000/svg"
 width="233.000000pt" height="400.000000pt" viewBox="0 0 233.000000 400.000000"
 preserveAspectRatio="xMidYMid meet">
<metadata>
Created by potrace 1.15, written by Peter Selinger 2001-2017
</metadata>
<g transform="translate(0.000000,400.000000) scale(0.100000,-0.100000)"
fill="#000000" stroke="none">
<path d="M876 3963 c-1 -2 -182 -5 -402 -7 -219 -3 -406 -5 -415 -5 -15 -1
-17 -95 -17 -1143 0 -629 0 -1506 -1 -1950 -1 -444 1 -813 5 -819 5 -9 203
-10 763 -5 416 3 911 6 1100 6 l344 0 -7 723 c-4 397 -9 1275 -12 1952 -4 938
-8 1231 -17 1237 -11 7 -285 10 -1035 12 -167 1 -304 0 -306 -1z m21 -48 c1
-19 -3 -35 -8 -35 -5 0 -9 -7 -9 -16 0 -12 6 -15 28 -10 25 6 26 5 8 -9 -13
-10 -23 -11 -31 -5 -7 5 -14 7 -17 4 -3 -2 -12 16 -19 41 -7 25 -19 45 -26 45
-17 0 -16 -5 3 -47 13 -25 14 -37 5 -46 -8 -8 -11 -6 -11 9 0 12 -9 29 -21 40
-21 19 -22 18 -70 -9 -27 -15 -51 -27 -53 -27 -3 0 -2 16 1 35 6 39 -8 47 -29
16 -14 -19 -14 -19 -26 0 -10 16 -19 19 -50 13 -20 -4 -45 -11 -54 -16 -25
-12 -23 4 3 25 12 10 28 15 39 12 10 -3 21 -2 24 3 3 5 75 10 159 11 l153 2 1
-36z m329 18 c13 -17 15 -17 25 0 5 9 21 17 34 17 21 0 22 -2 12 -23 -8 -17
-17 -22 -33 -19 -12 2 -25 -1 -28 -7 -10 -16 -26 -13 -26 4 0 8 -8 15 -18 15
-10 0 -23 5 -29 11 -15 15 -33 3 -33 -22 0 -13 7 -19 22 -19 17 0 19 -3 10
-12 -16 -16 -15 -28 3 -28 8 0 15 4 15 9 0 10 30 24 37 17 3 -3 -4 -15 -16
-27 -12 -13 -21 -28 -22 -33 0 -16 -106 -67 -124 -60 -24 10 -18 22 9 17 24
-5 49 18 28 25 -7 2 -9 15 -5 33 7 35 -18 41 -40 9 -8 -12 -20 -18 -30 -15
-20 8 -32 -12 -17 -30 7 -8 10 -16 6 -16 -3 -1 -10 -2 -15 -3 -5 0 -13 -4 -17
-8 -4 -5 -18 -8 -30 -8 -13 0 -28 -9 -34 -21 -15 -26 -6 -36 16 -18 15 12 16
11 10 -9 -5 -14 -3 -29 4 -37 18 -22 30 -8 23 25 -3 19 -1 30 6 30 6 0 11 8
11 17 0 13 3 14 12 5 7 -7 20 -12 29 -12 9 0 19 -7 23 -15 6 -18 -5 -20 -22
-3 -8 8 -15 8 -27 -2 -23 -19 -18 -29 18 -29 17 0 43 -1 57 -2 14 -2 32 -1 40
2 11 3 14 -2 12 -18 -3 -18 2 -23 17 -23 12 0 21 -7 21 -15 0 -20 19 -19 27 1
4 10 0 20 -10 26 -25 13 -21 27 6 21 20 -4 21 -3 5 10 -10 8 -18 19 -18 25 0
6 -6 13 -12 15 -7 3 4 6 25 6 31 1 37 -2 37 -20 0 -12 5 -19 13 -16 6 2 11 12
11 21 -1 9 3 16 8 16 6 0 8 -12 5 -30 -8 -39 0 -60 24 -60 20 0 26 24 9 35
-28 17 -5 26 55 22 61 -4 104 -17 57 -17 -31 0 -35 -15 -8 -28 27 -12 36 -7
36 20 0 11 4 17 8 14 5 -3 8 -26 7 -51 -1 -35 2 -44 13 -40 9 3 12 -1 7 -15
-5 -14 -2 -20 10 -20 9 0 14 4 10 9 -3 6 2 14 12 19 14 9 15 12 4 26 -8 9 -10
20 -6 24 4 4 10 1 12 -5 5 -15 33 -17 33 -3 0 6 -6 10 -14 10 -11 0 -14 11
-11 42 3 45 28 67 59 55 26 -10 18 -28 -11 -25 -19 2 -28 -2 -31 -14 -5 -23
22 -50 42 -42 12 5 15 2 10 -10 -7 -18 11 -22 22 -5 4 8 9 7 15 -2 4 -7 11
-10 16 -6 4 4 2 17 -5 27 -13 22 -6 25 18 10 13 -8 13 -13 -2 -39 -15 -28 -15
-30 0 -36 12 -5 13 -9 5 -12 -15 -6 -17 -43 -3 -43 6 0 10 7 10 16 0 11 5 14
16 10 13 -5 15 -1 12 26 l-5 32 19 -24 c23 -28 26 -25 31 24 2 23 12 45 23 53
16 12 17 15 4 24 -12 9 -11 9 5 3 11 -5 37 -8 58 -8 33 0 36 -2 31 -21 -9 -30
-13 -31 -30 -9 -15 18 -15 18 -11 -3 6 -26 4 -27 -23 -11 -25 16 -37 3 -18
-19 14 -15 14 -20 2 -31 -8 -7 -14 -19 -14 -27 0 -23 27 -17 35 8 6 19 8 19
12 5 7 -29 25 -20 20 10 -2 15 -2 21 0 15 6 -18 23 -16 23 2 0 8 5 15 10 15 6
0 10 -10 10 -22 0 -21 0 -21 16 -2 15 18 15 18 9 -4 -5 -19 -3 -23 11 -20 10
2 20 -4 22 -13 2 -10 -4 -15 -17 -15 -11 1 -20 -3 -20 -9 0 -5 7 -9 15 -7 13
3 13 -1 4 -18 -13 -24 -6 -55 10 -45 5 3 10 17 10 31 0 17 5 24 20 24 22 0 27
15 8 24 -10 5 -10 7 0 12 19 9 14 24 -8 24 -22 0 -27 15 -7 24 10 5 10 7 0 12
-17 7 -17 27 -1 22 7 -3 19 -18 28 -34 19 -34 46 -43 53 -17 3 12 5 8 6 -9 0
-16 6 -28 11 -28 6 0 10 -5 10 -12 0 -6 -3 -8 -6 -5 -8 8 -44 -11 -44 -23 0
-5 8 -7 18 -3 16 6 16 5 -1 -14 -20 -22 -20 -64 -1 -70 6 -2 17 10 24 27 7 16
16 30 21 30 12 0 11 -34 -1 -46 -6 -6 -7 -19 -4 -29 7 -16 8 -16 17 6 l10 24
5 -24 c6 -37 -14 -48 -41 -23 -21 20 -25 21 -37 7 -7 -8 -16 -13 -20 -10 -10
6 -40 -22 -40 -37 0 -5 6 -8 13 -5 35 13 57 18 57 12 0 -3 -7 -20 -16 -36 -15
-30 -15 -31 5 -24 16 5 21 2 21 -13 0 -11 -7 -25 -15 -32 -12 -10 -20 -6 -47
26 -92 107 -144 134 -324 164 -172 29 -259 25 -377 -20 -66 -25 -101 -45 -139
-81 -40 -37 -55 -46 -68 -39 -10 5 -33 7 -53 3 l-36 -5 -3 43 c-2 24 -7 44
-13 45 -5 0 -18 4 -28 9 -13 5 -24 2 -35 -9 -16 -16 -16 -18 1 -27 17 -10 24
-39 10 -39 -5 0 -18 -3 -30 -6 -17 -5 -23 -2 -23 9 0 20 -37 32 -55 17 -16
-13 -9 -74 11 -105 20 -28 18 -36 -16 -74 -33 -36 -33 -54 2 -103 30 -43 45
-97 53 -191 6 -82 3 -115 -25 -224 -4 -18 -5 -33 0 -33 11 0 9 -79 -2 -87 -6
-3 -8 2 -4 13 7 25 -8 52 -20 33 -4 -8 -2 -15 5 -17 8 -3 -6 -22 -35 -48 -26
-24 -45 -46 -42 -49 3 -3 22 11 42 31 30 30 39 35 46 23 7 -10 13 -5 24 23 9
20 13 44 10 52 -3 9 -2 16 4 16 30 0 7 -84 -36 -133 -14 -16 -14 -17 0 -12 8
3 24 24 34 47 10 22 20 36 22 30 2 -6 -4 -24 -13 -41 -8 -17 -14 -31 -11 -31
2 0 11 -3 20 -6 9 -3 16 -1 16 6 0 6 -4 8 -10 5 -13 -8 -13 5 0 25 8 13 10 13
10 -2 0 -12 5 -15 16 -11 14 5 14 3 3 -14 -10 -17 -9 -24 7 -46 10 -15 27 -29
37 -33 10 -3 16 -8 13 -11 -3 -3 -23 6 -44 21 -69 48 -145 58 -223 31 -86 -31
-134 -83 -165 -181 -14 -46 -15 -59 -2 -115 13 -55 13 -69 1 -98 -8 -19 -12
-45 -8 -58 4 -19 1 -26 -15 -30 -11 -3 -20 -9 -20 -14 0 -5 -18 -9 -39 -9 -22
0 -43 -5 -46 -10 -9 -15 -35 8 -29 25 4 10 -16 13 -93 13 -94 0 -100 1 -150
33 -62 41 -70 55 -44 83 11 12 32 46 48 75 40 78 65 82 133 26 41 -34 68 -47
123 -59 77 -18 141 -21 133 -7 -3 5 -14 7 -25 4 -10 -2 -55 5 -99 17 -63 17
-92 31 -126 61 -46 41 -87 50 -119 27 -9 -7 -27 -38 -41 -70 -14 -31 -30 -59
-35 -63 -8 -4 -11 62 -11 213 l0 220 25 16 c18 12 25 25 25 49 0 24 3 28 10
17 5 -8 12 -12 15 -9 8 8 -5 39 -16 39 -5 0 -9 5 -9 10 0 6 9 10 20 10 17 0
19 3 11 18 -6 10 -7 28 -4 40 3 13 1 22 -6 22 -6 0 -11 7 -11 15 0 9 9 15 25
15 14 0 25 5 25 10 0 6 -13 10 -30 10 -16 0 -30 5 -30 11 0 6 8 8 19 4 11 -3
22 -1 26 5 3 6 -3 10 -14 10 -12 0 -21 6 -21 14 0 8 -6 14 -12 13 -32 -1 -48
4 -48 14 0 7 11 9 30 6 19 -4 30 -2 30 5 0 6 9 3 20 -7 20 -18 50 -15 50 6 0
6 -7 9 -15 5 -16 -6 -32 35 -20 53 3 6 3 16 -1 22 -4 8 -8 8 -13 0 -4 -5 -16
-8 -28 -5 -23 6 -40 71 -23 88 7 7 10 1 10 -16 0 -31 24 -56 36 -37 4 7 2 15
-4 17 -14 4 -16 32 -4 32 5 0 17 -9 26 -19 10 -11 30 -22 44 -26 25 -6 26 -8
9 -19 -21 -16 -22 -36 -1 -36 8 0 13 -4 10 -9 -3 -4 1 -17 9 -27 8 -10 15 -14
15 -9 10 91 6 115 -21 115 -21 0 -26 15 -8 26 8 4 7 10 -1 18 -8 8 -15 7 -24
-6 -16 -22 -26 -23 -26 -3 0 8 -7 15 -15 15 -8 0 -15 8 -15 18 0 11 -10 24
-22 29 -23 11 -23 11 5 18 31 8 34 17 12 39 -21 21 -19 25 13 23 23 -2 27 1
24 23 -4 27 -40 72 -52 65 -5 -3 -11 2 -14 11 -3 8 -10 13 -15 9 -6 -3 -10 12
-9 35 0 33 6 44 27 58 14 9 31 23 37 31 12 15 38 6 28 -10 -3 -6 -3 -17 0 -26
6 -14 9 -14 26 2 25 23 25 32 0 40 -26 8 -26 20 0 22 13 1 25 -7 32 -23 6 -13
15 -24 20 -24 15 0 21 31 9 43 -17 17 -14 24 21 41 36 19 47 13 30 -14 -17
-27 -15 -32 8 -25 30 10 51 -17 44 -54 -8 -37 -3 -38 30 -7 30 27 33 48 11 66
-9 7 -14 19 -11 26 5 14 -20 27 -35 18 -5 -3 -9 3 -9 13 0 11 -5 24 -12 31
-16 16 -7 23 20 16 12 -4 24 -15 27 -25 9 -28 35 -24 35 6 0 17 -8 29 -25 37
-14 6 -25 20 -25 30 0 26 -22 18 -37 -12 l-12 -24 -9 24 c-8 23 -6 26 36 44
33 15 47 17 50 8 2 -7 13 -12 25 -11 l22 0 -22 11 c-26 12 -38 37 -24 51 5 5
12 1 16 -12 3 -12 13 -21 21 -21 8 0 17 -7 20 -15 4 -8 11 -15 16 -15 6 0 7 7
4 16 -4 10 1 22 11 30 26 19 31 17 38 -16 7 -34 16 -37 36 -14 10 12 10 20 1
34 -6 10 -8 34 -5 54 4 27 1 42 -12 56 -16 18 -16 20 -2 20 23 0 32 -19 32
-70 0 -34 4 -45 15 -45 8 1 30 -10 48 -23 17 -13 37 -20 43 -16 7 4 10 1 7 -7
-3 -9 -16 -13 -36 -11 -16 2 -33 -2 -37 -7 -3 -6 1 -11 9 -11 11 0 13 -8 9
-35 -7 -44 15 -49 24 -5 6 32 13 36 30 19 8 -8 13 -8 17 0 4 6 2 11 -4 11 -7
0 -10 6 -7 13 2 6 16 12 30 12 33 0 36 18 5 26 -22 5 -22 6 9 22 22 12 40 34
55 67 13 27 27 50 31 50 5 0 5 -5 2 -10 -4 -6 7 -8 29 -5 20 2 36 0 36 -5 0
-6 -10 -10 -22 -10 -13 0 -30 -5 -38 -11 -12 -8 -10 -9 8 -4 15 5 22 2 22 -8
0 -8 7 -17 15 -21 8 -3 15 0 15 6 0 7 10 22 22 35 14 15 17 23 8 23 -9 0 -8 4
5 13 10 8 15 19 12 24 -10 16 25 26 35 11 6 -10 10 -10 17 2 12 17 5 30 -16
30 -14 0 -14 3 1 25 22 33 20 36 -11 33 -19 -2 -28 2 -31 15 -3 16 9 17 144
17 128 0 149 -2 160 -17z m396 -15 c2 -18 8 -31 13 -29 6 1 9 7 8 12 -2 4 6
13 17 19 14 8 20 8 20 0 0 -7 6 -10 13 -7 6 2 12 9 12 15 0 16 12 25 25 17 7
-4 4 -15 -9 -31 -11 -14 -17 -32 -14 -40 4 -12 0 -14 -21 -8 -20 5 -26 2 -26
-10 0 -9 7 -16 15 -16 8 0 15 -7 15 -15 0 -18 -36 -39 -45 -25 -3 5 1 10 9 10
9 0 16 5 16 10 0 15 -39 12 -56 -4 -18 -19 -18 -26 1 -26 8 0 15 -5 15 -10 0
-7 -13 -8 -35 -4 -25 4 -43 1 -60 -10 -30 -20 -35 -20 -35 -1 0 8 7 15 15 15
8 0 15 5 15 11 0 6 9 8 21 4 19 -6 21 -4 17 18 -6 29 10 61 19 40 6 -17 23
-16 23 1 0 7 -10 16 -22 19 -18 5 -19 9 -9 21 7 8 10 20 6 26 -9 14 -32 13
-38 -2 -2 -7 -8 -10 -12 -6 -18 17 6 38 44 38 38 0 40 -2 43 -32z m296 11 c6
-15 22 -10 22 6 0 8 4 15 9 15 5 0 14 -7 21 -15 14 -17 40 -20 40 -5 0 6 25
10 55 10 50 0 55 -2 55 -22 0 -19 -2 -20 -17 -6 -20 17 -43 13 -43 -8 0 -8 6
-11 16 -7 10 4 22 -1 30 -12 7 -10 20 -15 29 -12 19 8 19 -3 0 -29 -19 -25
-19 -34 0 -34 8 0 15 -4 15 -10 0 -5 -7 -10 -15 -10 -8 0 -15 -7 -15 -15 0 -9
6 -12 17 -8 11 4 14 3 9 -5 -4 -7 -2 -12 3 -12 6 0 11 -4 11 -10 0 -5 -7 -10
-15 -10 -8 0 -22 -11 -31 -25 -9 -14 -21 -25 -27 -25 -5 0 -3 8 6 18 11 12 14
29 10 59 -3 24 -9 40 -14 38 -16 -10 -20 16 -4 31 21 21 13 29 -15 14 -20 -10
-21 -10 -16 8 10 29 -10 36 -28 11 l-14 -21 -23 21 c-30 28 -41 26 -37 -6 2
-19 10 -29 28 -33 24 -6 24 -7 5 -17 -17 -10 -17 -13 -5 -28 13 -16 15 -16 27
1 7 10 13 27 13 38 0 14 3 17 10 10 7 -7 8 -19 1 -37 -7 -18 -7 -28 0 -33 6
-3 13 3 16 15 6 25 10 26 27 8 11 -11 9 -17 -10 -34 -13 -12 -26 -17 -30 -12
-3 5 -10 7 -15 4 -5 -4 -9 -1 -9 6 0 8 -4 8 -15 -1 -12 -10 -15 -10 -15 0 0
21 -30 49 -46 43 -8 -3 -11 -10 -7 -17 3 -6 4 -9 0 -6 -3 3 -5 9 -6 14 0 7
-46 36 -57 36 -2 0 0 -8 3 -17 6 -16 5 -16 -10 -4 -21 17 -23 43 -2 35 9 -4
18 1 21 10 9 23 -2 32 -20 17 -9 -8 -16 -8 -20 -2 -4 5 -2 12 4 16 5 3 10 15
10 26 0 23 9 24 24 3 10 -12 19 -14 46 -7 33 9 34 10 14 21 -12 6 -38 13 -60
15 -21 2 -40 9 -42 15 -4 12 81 3 86 -9z m-350 -479 c131 -17 281 -90 303
-148 5 -14 11 -168 12 -347 2 -261 5 -326 17 -339 10 -13 11 -19 2 -25 -7 -4
-11 -36 -10 -87 0 -44 -3 -90 -6 -102 -5 -16 -3 -24 8 -28 26 -10 18 -27 -9
-20 -25 6 -25 6 -27 -61 -3 -102 -15 368 -17 631 0 126 1 227 3 225 2 -2 6
-125 10 -274 4 -148 9 -271 11 -274 3 -2 4 141 3 320 l-2 324 -25 42 c-45 74
-188 133 -336 138 -161 6 -336 -56 -384 -136 -12 -20 -21 -27 -26 -19 -11 18
23 73 58 96 17 10 43 26 57 35 37 23 92 40 152 45 29 3 54 7 57 9 7 8 69 5
149 -5z m612 -20 c0 -5 -4 -10 -9 -10 -14 0 -23 -32 -12 -43 7 -7 15 -6 25 2
20 16 23 7 27 -70 3 -47 0 -71 -11 -83 -11 -15 -12 -21 -1 -38 13 -21 17 -150
5 -169 -3 -5 0 -9 5 -9 6 0 11 -5 11 -11 0 -8 -5 -8 -15 1 -8 7 -21 10 -29 7
-10 -4 -16 2 -18 15 -4 30 -28 35 -29 6 -1 -18 -3 -16 -10 11 -12 38 -11 40
25 47 23 4 26 1 26 -22 0 -16 5 -24 13 -22 19 7 20 38 1 59 -16 17 -16 19 -1
19 10 0 17 5 17 10 0 6 -8 10 -18 10 -10 0 -23 5 -30 12 -6 6 -15 8 -19 4 -4
-4 -1 -11 7 -17 13 -8 13 -10 0 -18 -20 -14 -30 -4 -30 30 0 19 4 28 11 24 11
-7 49 22 49 37 0 5 -9 6 -20 3 -11 -3 -20 -2 -20 2 0 16 24 33 47 33 13 0 23
5 23 10 0 6 -5 10 -10 10 -6 0 -8 12 -4 28 l5 27 -20 -24 c-12 -13 -21 -18
-21 -12 0 6 -7 11 -16 11 -11 0 -14 -6 -8 -22 6 -20 5 -21 -10 -9 -22 18 -19
121 3 121 12 0 12 3 3 12 -17 17 -15 26 6 31 31 8 52 7 52 -3z m-621 -46 c10
-13 25 -24 32 -24 8 -1 3 -7 -11 -15 l-25 -14 23 -1 c17 0 23 -5 20 -17 -2
-13 -13 -18 -36 -19 -26 0 -36 -6 -47 -28 -8 -16 -15 -34 -15 -42 0 -21 -35
-35 -62 -25 -12 4 -35 5 -50 0 -20 -5 -28 -4 -28 5 0 23 27 38 47 28 10 -5 24
-7 32 -4 8 2 11 0 7 -6 -4 -6 2 -8 14 -5 26 7 26 19 0 26 -11 3 -20 13 -20 22
0 9 -4 14 -10 10 -5 -3 -6 -13 -3 -22 4 -11 2 -14 -8 -11 -22 7 -24 48 -3 48
14 0 12 6 -12 31 -19 21 -25 33 -16 36 6 3 9 9 6 14 -15 24 6 34 75 36 64 2
72 0 90 -23z m-208 -93 c25 -32 24 -41 -6 -41 -16 0 -25 6 -25 15 0 8 -4 15
-10 15 -11 0 -13 -11 -4 -34 3 -9 14 -16 23 -16 10 0 18 -6 18 -14 0 -8 -6
-12 -12 -10 -7 3 -18 -2 -25 -11 -11 -13 9 -15 191 -16 112 -1 207 -1 210 -1
3 1 17 -27 30 -61 19 -47 30 -63 49 -67 25 -6 25 -6 3 -14 -30 -10 -41 -2 -51
37 -6 21 -15 32 -25 31 -10 -1 -17 4 -17 12 0 7 6 11 14 8 11 -4 13 0 9 14 -6
26 -32 29 -255 26 -118 -1 -188 1 -188 8 0 5 5 18 10 29 8 15 7 23 -5 35 -15
15 -15 18 1 35 9 10 13 22 9 28 -3 6 2 22 12 35 18 24 18 24 21 3 2 -12 13
-32 23 -46z m-318 -41 c3 -22 10 -36 21 -38 20 -4 20 7 1 32 -20 26 -19 56 1
56 12 0 15 -6 10 -24 -6 -24 6 -40 28 -41 18 0 17 -23 -1 -29 -10 -3 -29 -16
-43 -28 -56 -51 -195 -138 -220 -138 -24 0 -7 29 20 35 35 8 38 20 10 35 -23
12 -27 45 -6 53 18 7 40 -18 33 -36 -8 -20 6 -37 22 -28 11 7 10 14 -5 40 -10
17 -22 31 -26 31 -4 0 -8 11 -8 25 0 18 5 25 18 25 25 0 34 -11 22 -25 -7 -9
-5 -22 7 -44 20 -34 28 -38 36 -17 4 9 -2 17 -15 21 -16 6 -19 13 -14 36 3 15
1 31 -4 34 -15 9 -12 25 5 25 8 0 15 7 15 15 0 8 12 17 28 21 15 3 32 7 37 9
16 4 24 -9 28 -45z m1029 -68 c14 -62 14 -64 -6 -72 -20 -7 -19 -8 7 -15 23
-6 28 -12 25 -33 -4 -32 -25 -40 -30 -11 -2 12 -9 24 -17 27 -10 3 -13 -3 -9
-26 4 -30 3 -31 -26 -28 l-31 3 -3 72 -3 72 28 -3 c23 -2 27 -7 25 -27 -3 -16
1 -22 10 -19 18 6 21 38 8 73 -8 21 -14 25 -22 17 -14 -14 -48 -16 -48 -3 0
26 13 37 44 37 32 0 33 -1 48 -64z m-1011 -122 l47 -50 -23 -48 c-25 -52 -49
-77 -64 -68 -14 9 -1 45 21 60 25 18 7 29 -26 16 -22 -8 -26 -7 -26 8 -1 15
-2 15 -15 -2 -17 -22 -17 -22 -39 22 -9 18 -24 36 -32 39 -12 4 -11 8 7 21 13
9 24 11 28 5 7 -12 51 -36 56 -31 1 2 6 14 10 28 8 24 8 24 -19 7 -28 -19 -30
-18 -20 7 3 9 13 16 21 16 8 0 11 5 8 10 -3 6 -1 10 6 10 7 0 34 -23 60 -50z
m122 -95 c41 -7 43 -11 23 -58 -31 -73 -146 -141 -119 -70 3 6 0 20 -6 31 -15
28 27 123 49 111 8 -4 32 -11 53 -14z m907 -69 c0 -8 3 -22 6 -31 5 -11 0 -18
-15 -22 -20 -5 -30 -23 -13 -23 11 0 29 -50 35 -98 l5 -44 -26 24 c-15 12 -31
29 -35 36 -4 6 -13 12 -18 12 -6 0 -7 -5 -3 -11 3 -6 0 -15 -7 -20 -10 -6 -6
-9 14 -9 20 0 30 -6 34 -20 3 -11 10 -17 16 -13 6 4 8 -3 3 -21 -4 -15 -2 -26
4 -26 5 0 10 7 10 15 0 8 5 15 11 15 7 0 9 -9 5 -22 -3 -13 -6 -34 -7 -48 0
-14 -3 -19 -6 -12 -2 6 -9 10 -14 6 -5 -3 -9 0 -9 5 0 6 -7 11 -15 11 -9 0
-12 -6 -9 -15 4 -9 0 -15 -9 -15 -24 0 -32 21 -13 32 9 5 14 13 11 18 -9 14
-32 1 -38 -21 -3 -10 -9 -19 -14 -19 -7 0 -10 229 -4 265 1 6 8 -5 16 -22 8
-18 18 -33 23 -33 12 0 25 77 16 92 -4 6 1 8 15 3 16 -5 20 -3 15 9 -3 9 -1
16 5 16 6 0 11 -6 11 -14z m-825 -26 c-3 -4 0 -10 7 -12 8 -3 0 -20 -23 -46
-20 -23 -52 -72 -71 -110 l-34 -67 -42 3 c-25 2 -42 8 -42 16 0 6 -14 34 -32
62 -32 51 -43 90 -27 100 9 5 13 -8 10 -36 -2 -12 0 -13 7 -1 6 7 15 11 21 7
7 -5 9 -1 5 8 -3 9 -10 16 -15 16 -5 0 -9 7 -9 16 0 13 4 11 18 -6 9 -12 33
-25 52 -30 l35 -8 -32 -1 c-21 -1 -36 -8 -43 -20 -16 -30 -11 -49 5 -21 14 25
14 25 9 -10 -5 -28 -3 -32 6 -20 9 12 11 10 7 -12 -2 -16 -1 -28 3 -28 4 0 11
21 15 48 6 37 9 43 16 27 7 -19 8 -19 8 3 1 21 31 33 31 12 0 -5 -4 -10 -10
-10 -5 0 -10 -8 -10 -17 0 -15 2 -16 10 -3 8 12 10 11 10 -7 0 -13 5 -23 10
-23 13 0 13 21 1 54 -9 21 -6 28 25 51 20 15 39 23 47 19 7 -5 6 0 -3 11 -14
17 -13 17 10 10 22 -7 23 -6 12 8 -14 17 -7 41 9 31 5 -3 7 -9 4 -14z m220
-325 c-3 -16 -1 -37 5 -45 9 -13 11 -13 20 0 8 13 10 12 10 -2 0 -10 -5 -18
-10 -18 -6 0 -8 -15 -5 -37 9 -65 12 -165 5 -153 -4 6 -13 -9 -21 -32 -15 -49
-86 -125 -139 -152 -19 -9 -29 -11 -22 -4 19 19 14 30 -8 16 -11 -7 -19 -20
-17 -28 1 -9 -5 -14 -17 -13 -10 0 -36 -5 -57 -12 -36 -13 -38 -13 -55 13 -10
15 -24 33 -31 40 -9 10 -10 19 -3 33 8 15 7 19 -5 19 -8 0 -15 4 -15 9 0 18
19 22 40 9 18 -12 24 -9 50 19 16 17 39 34 50 38 17 5 29 25 16 25 -14 0 -78
-45 -87 -61 -11 -21 -29 -26 -29 -7 0 19 93 99 101 86 5 -8 11 -9 21 -1 7 6
30 16 51 23 36 11 77 44 77 62 0 4 -8 4 -17 1 -15 -5 -16 -4 -7 8 14 18 44
112 44 136 0 11 7 28 15 39 14 18 14 17 5 -10 -6 -16 -8 -48 -4 -71 3 -23 1
-58 -4 -78 -6 -22 -7 -39 -1 -43 5 -3 9 -4 10 -2 2 7 18 204 19 228 0 20 2 22
10 10 5 -8 7 -28 5 -45z m631 -54 c-3 -5 1 -11 9 -15 22 -8 18 -34 -5 -41 -27
-9 -25 -27 3 -23 19 3 22 -1 19 -28 -2 -17 6 -49 17 -70 23 -45 36 -122 26
-154 l-7 -22 -12 23 c-17 35 -42 35 -61 0 -13 -27 -19 -30 -48 -25 -29 4 -30
4 -9 -7 29 -16 28 -21 -9 -42 -25 -14 -30 -14 -26 -3 4 10 1 13 -8 10 -21 -9
-27 47 -23 213 3 123 6 148 18 148 9 0 16 -11 18 -27 2 -16 7 -28 12 -28 12 0
23 57 14 71 -5 8 -2 10 9 6 23 -9 39 16 31 50 l-7 28 22 -27 c12 -15 20 -32
17 -37z m-1238 -73 c24 -13 59 -40 77 -61 52 -61 61 -109 43 -247 -2 -17 -11
-27 -28 -32 -17 -5 -13 -6 14 -3 21 2 46 11 56 20 9 8 23 15 30 15 17 0 60
-39 60 -54 0 -6 -5 -4 -10 4 -7 11 -10 11 -10 2 0 -7 -4 -11 -10 -7 -5 3 -18
-11 -29 -32 -36 -66 -47 -76 -71 -63 -17 9 -26 7 -51 -14 -34 -29 -27 -35 11
-10 l25 17 -21 -23 c-16 -16 -28 -20 -44 -15 -22 7 -22 8 16 40 21 18 36 37
31 41 -4 4 -20 -4 -35 -18 -30 -29 -71 -52 -78 -45 -3 2 11 14 30 25 37 22 77
82 54 82 -6 0 -24 -12 -40 -27 -15 -14 -31 -23 -35 -20 -3 4 2 14 13 23 13 10
14 14 4 11 -8 -2 -21 -16 -28 -30 -11 -24 -19 -27 -61 -27 -59 0 -111 16 -132
41 -16 18 -17 18 -23 -4 -3 -12 -1 -23 4 -25 6 -2 10 -8 10 -13 0 -4 -7 -6
-15 -3 -17 7 -20 55 -4 71 12 12 -13 43 -36 43 -32 0 -53 138 -32 213 11 39
75 107 122 128 56 26 137 24 193 -3z m1011 -249 c-10 -6 -10 -11 -1 -21 12
-15 4 -67 -16 -105 -17 -31 -14 -43 3 -13 8 14 14 20 15 13 0 -7 6 -10 14 -7
11 4 13 0 9 -15 -5 -20 -6 -21 -20 -4 -13 15 -14 16 -10 1 6 -16 -8 -19 -29
-5 -15 9 -26 -20 -18 -47 6 -20 6 -20 -8 -2 -20 26 -42 12 -33 -23 6 -24 5
-25 -8 -7 -14 18 -15 17 -27 -19 -12 -37 -13 -38 -28 -19 -14 18 -14 18 -9 -4
4 -19 3 -21 -8 -12 -11 9 -12 7 -8 -11 4 -14 2 -20 -5 -16 -5 4 -12 2 -14 -5
-3 -7 -7 -5 -11 6 -4 10 -3 15 3 11 6 -3 10 -2 10 4 0 5 -9 9 -20 8 -23 -2
-23 -2 -9 -30 11 -21 11 -21 -7 -5 -16 14 -27 15 -64 7 -25 -6 -54 -15 -66
-21 -11 -5 -34 -8 -50 -6 -24 3 -18 6 30 17 71 16 177 69 227 114 38 33 92
114 104 157 4 14 14 33 23 43 9 11 11 17 4 17 -7 0 -12 4 -12 9 0 4 12 6 26 3
18 -3 22 -7 13 -13z m258 -16 c4 -10 13 -23 21 -28 9 -7 15 -39 18 -93 4 -67
2 -82 -10 -82 -19 0 -29 -17 -20 -32 5 -8 10 -6 15 8 6 16 8 15 8 -8 1 -32 -7
-34 -35 -14 -16 13 -17 18 -6 36 11 19 11 27 -3 57 -15 30 -20 34 -43 28 -33
-8 -45 -25 -30 -42 14 -17 1 -30 -14 -15 -18 18 -36 14 -49 -10 -9 -16 -9 -23
0 -26 6 -2 11 -10 11 -18 0 -9 5 -12 10 -9 7 4 6 13 -1 26 -6 12 -8 24 -4 27
3 3 8 -3 11 -14 4 -16 12 -19 35 -16 16 2 29 0 29 -6 0 -6 3 -19 6 -29 5 -17
5 -17 -9 0 -17 21 -46 22 -53 3 -5 -13 -44 -19 -44 -6 -1 3 -3 22 -6 42 -4 24
0 45 11 61 10 17 12 27 5 30 -6 3 -5 4 2 3 7 -2 25 5 40 16 16 11 33 16 39 13
6 -4 9 -1 7 6 -4 19 32 109 43 109 5 0 13 -8 16 -17z m-738 -335 c-3 -24 13
-58 27 -58 8 0 14 9 14 20 0 11 5 20 10 20 6 0 10 -5 10 -12 0 -6 7 -3 15 8
14 18 14 18 15 -6 1 -24 1 -24 10 -3 13 33 80 61 80 33 0 -5 -7 -10 -15 -10
-8 0 -20 -10 -26 -22 -7 -13 -16 -26 -21 -29 -4 -3 0 -14 9 -25 34 -37 57 -69
43 -56 -20 17 -40 15 -47 -5 -4 -10 -15 -26 -26 -35 -10 -9 -17 -21 -14 -25 3
-4 -1 -31 -8 -58 -8 -28 -14 -42 -14 -32 -1 11 -10 32 -22 48 -11 16 -18 33
-14 38 3 5 0 13 -6 17 -6 4 -9 19 -5 37 7 34 -7 57 -35 57 -11 0 -19 5 -19 10
0 6 5 10 10 10 6 0 10 13 10 29 0 30 8 61 17 61 2 0 3 -6 2 -12z m-274 -68 c3
-11 11 -20 16 -20 12 0 11 14 -2 27 -7 7 1 10 28 9 31 -1 39 -5 41 -23 2 -13
8 -23 13 -23 5 0 7 12 4 28 -6 27 -6 27 8 -3 8 -16 10 -31 5 -33 -4 -2 -8 -10
-8 -17 0 -7 -7 -15 -14 -18 -31 -12 -45 -63 -46 -163 0 -55 4 -117 10 -139 23
-83 23 -88 6 -101 -25 -17 -12 -57 15 -49 10 4 19 2 19 -4 0 -5 -8 -12 -17
-14 -14 -4 -12 -5 5 -6 21 -1 33 -21 12 -21 -19 0 -10 -18 12 -24 22 -5 22 -6
3 -20 -20 -15 -20 -15 0 -16 15 0 17 -2 6 -9 -11 -7 -10 -11 5 -20 18 -10 18
-10 -1 -11 -19 -1 -19 -1 -2 -14 21 -16 22 -27 2 -20 -8 4 -15 1 -15 -5 0 -6
6 -11 13 -12 6 0 2 -4 -11 -10 -18 -7 -22 -14 -17 -29 4 -14 2 -20 -9 -20 -8
0 -18 -5 -22 -12 -5 -8 -2 -9 11 -4 15 5 16 4 5 -9 -10 -12 -16 -13 -26 -4
-11 9 -14 7 -15 -7 0 -12 -3 -14 -6 -6 -4 10 -11 8 -29 -9 -13 -12 -27 -19
-31 -15 -5 4 2 16 14 26 12 9 19 20 16 24 -4 3 -1 6 5 6 6 0 9 7 6 15 -4 8
-10 15 -15 15 -4 0 -6 -7 -3 -15 4 -10 0 -15 -14 -15 -15 0 -22 -9 -27 -32 -7
-29 -9 -30 -20 -14 -10 13 -14 14 -18 4 -2 -7 -2 -2 0 12 3 14 9 27 14 28 5 2
7 7 5 11 -3 4 11 15 30 26 20 11 34 26 34 37 0 11 4 27 9 36 4 9 11 32 14 50
8 40 -14 53 -43 27 -28 -25 -34 -14 -9 14 18 19 19 22 4 19 -10 -2 -20 3 -23
11 -3 9 0 12 10 9 31 -12 41 7 34 66 -6 47 -11 56 -28 56 -16 0 -19 5 -15 26
3 17 0 28 -10 31 -11 5 -12 7 -2 14 10 6 10 11 0 23 -8 9 -9 16 -4 16 5 0 10
7 10 15 0 10 -4 12 -12 5 -6 -5 -16 -5 -25 0 -12 8 -11 10 5 10 18 1 18 2 -2
10 -13 5 -23 14 -23 21 0 7 7 8 18 4 38 -16 55 -15 25 1 -26 13 -33 23 -33 45
0 16 4 29 10 29 5 0 7 -7 4 -15 -6 -15 11 -45 26 -45 5 0 6 9 3 20 -3 11 -9
20 -14 20 -5 0 -6 7 -3 15 4 10 0 15 -15 15 -12 0 -21 5 -21 11 0 7 10 9 25 5
33 -8 32 2 -1 14 -19 7 -25 16 -22 33 2 14 9 21 21 21 21 -2 23 12 3 19 -20 8
-9 43 22 67 32 26 59 25 67 0z m-645 -110 c0 -25 -4 -30 -23 -30 -13 0 -33
-12 -46 -26 -21 -24 -23 -25 -46 -10 -35 23 -58 20 -95 -13 -28 -24 -45 -30
-97 -33 -73 -5 -99 -21 -68 -44 19 -14 19 -14 -5 -12 -14 2 -28 8 -32 13 -13
17 -9 85 4 90 7 2 49 6 94 9 121 7 213 26 232 47 16 16 55 37 75 38 4 1 7 -12
7 -29z m-300 -160 c0 -5 -7 -10 -15 -10 -8 0 -15 -7 -15 -15 0 -19 5 -19 35 1
15 10 34 14 49 10 15 -4 26 -1 29 7 3 6 6 0 6 -15 1 -16 -3 -29 -9 -29 -5 -1
-15 -2 -21 -3 -20 -2 -27 -39 -13 -61 16 -23 18 -93 4 -115 -8 -11 -9 -6 -5
19 3 18 3 42 -1 53 -6 19 -6 19 -20 1 -11 -15 -13 -15 -14 -2 0 8 5 20 12 27
9 9 9 12 -1 12 -7 0 -9 5 -5 13 5 8 2 8 -9 -2 -9 -7 -17 -24 -17 -36 0 -14 -7
-25 -20 -28 -24 -6 -53 -67 -39 -83 12 -14 1 -44 -15 -44 -9 0 -11 12 -6 43 8
55 32 99 83 155 26 28 35 43 23 39 -16 -6 -17 -5 -6 8 7 8 24 15 38 15 20 0
23 3 14 12 -29 29 -142 -68 -142 -122 0 -16 -4 -31 -10 -35 -16 -10 -1 65 18
94 10 14 19 36 20 49 0 13 6 30 13 38 13 16 39 19 39 4z m1577 -12 c13 -12 23
-27 23 -35 0 -7 4 -13 9 -13 11 0 21 25 21 53 1 20 2 20 11 5 7 -12 6 -24 -1
-37 -5 -11 -10 -29 -10 -41 0 -32 -22 -19 -44 26 -10 21 -21 33 -23 26 -3 -7
2 -24 11 -37 9 -14 14 -25 10 -25 -4 0 -1 -6 5 -14 17 -20 -26 -68 -62 -68
-15 0 -24 -4 -21 -9 8 -14 37 -11 62 7 26 18 29 8 5 -18 -27 -30 -113 -20
-113 13 0 11 9 35 19 55 11 20 17 42 15 49 -7 16 21 71 38 78 20 8 20 8 45
-15z m-258 -243 l1 -121 -44 1 c-24 0 -42 4 -39 9 4 5 -7 6 -23 2 -21 -5 -25
-4 -14 4 13 8 13 10 -2 10 -10 0 -18 4 -18 9 0 5 28 3 61 -5 34 -8 64 -12 66
-10 3 2 -20 10 -50 17 -31 6 -61 15 -68 20 -27 16 -2 18 51 4 30 -8 60 -15 65
-15 20 1 -22 18 -73 30 -62 14 -83 35 -25 24 21 -4 49 -11 62 -16 13 -5 26 -7
28 -4 2 2 -25 14 -61 26 -36 12 -66 25 -66 29 0 8 73 -8 114 -25 12 -5 17 -4
13 3 -3 5 -36 18 -72 27 -35 10 -62 22 -59 27 2 5 22 2 42 -5 44 -17 92 -28
92 -22 0 2 -29 14 -65 26 -36 12 -65 25 -65 29 0 5 25 0 57 -10 62 -21 77 -23
69 -11 -3 5 -30 14 -60 21 -31 7 -58 17 -61 22 -8 12 0 11 65 -6 66 -18 60
-17 60 -6 0 5 -29 14 -65 21 -36 7 -65 16 -65 21 0 9 55 1 82 -12 9 -5 24 -9
34 -9 12 0 14 3 5 13 -8 10 -7 17 2 26 19 19 26 -14 26 -144z m551 28 c16 -27
18 -38 9 -49 -6 -7 -8 -22 -5 -32 4 -11 0 -24 -9 -32 -8 -7 -12 -16 -9 -21 9
-15 -26 -58 -44 -52 -9 3 -24 7 -32 10 -13 4 -12 6 3 14 9 6 17 17 17 25 0 19
-39 10 -56 -12 -10 -13 -12 -12 -17 1 -4 8 -16 14 -29 12 -19 -2 -23 3 -23 23
0 21 5 26 33 28 25 3 32 8 30 20 -2 11 -11 16 -26 14 -26 -4 -29 10 -6 29 13
10 19 8 40 -14 16 -17 30 -24 41 -20 12 5 15 2 10 -10 -15 -39 23 -9 50 39 14
26 9 34 -16 27 -13 -3 -17 -11 -14 -24 3 -11 0 -19 -7 -19 -7 0 -10 6 -7 14 3
7 1 18 -5 24 -17 17 -2 40 26 40 19 0 31 -10 46 -35z m89 -154 c1 -13 8 -27
14 -31 8 -5 6 -12 -8 -23 -19 -16 -19 -16 10 -10 29 6 29 6 10 -9 -18 -14 -19
-15 -2 -16 10 0 27 5 38 10 11 6 19 7 19 1 0 -5 -10 -11 -23 -14 -38 -10 -101
-83 -103 -120 -1 -17 -2 -34 -3 -36 -3 -12 -41 35 -41 51 0 46 -76 4 -110 -60
-15 -31 -23 -22 -11 12 7 18 7 34 0 50 -10 21 -15 23 -35 14 -13 -6 -24 -20
-24 -30 0 -17 -56 -77 -72 -78 -8 0 -5 21 5 38 5 6 4 12 -1 12 -5 0 -14 -10
-20 -22 -6 -13 -11 -17 -11 -9 -1 11 -4 11 -17 0 -15 -12 -14 -14 7 -20 22 -6
21 -8 -18 -25 -35 -15 -41 -23 -37 -39 5 -17 4 -18 -7 -7 -8 7 -14 18 -14 24
0 6 -6 13 -12 15 -16 6 -17 -21 -3 -48 13 -22 5 -25 -16 -5 -8 8 -11 22 -8 30
3 9 1 16 -5 16 -6 0 -11 -10 -11 -22 0 -20 -1 -20 -18 -5 -23 21 -36 22 -29 3
4 -10 -4 -13 -34 -12 -51 1 -49 10 6 28 32 11 47 12 56 4 9 -8 11 -7 6 5 -7
21 82 72 109 63 14 -4 15 -3 6 4 -11 7 -8 13 12 28 19 14 24 25 20 42 -4 12
-10 22 -15 22 -5 0 -6 -6 -3 -14 3 -9 -6 -17 -26 -24 -25 -9 -32 -9 -37 4 -4
11 -14 14 -32 10 -25 -6 -25 -6 -7 9 25 19 14 30 -13 13 -12 -7 -19 -19 -16
-25 2 -7 -4 -17 -15 -23 -22 -12 -43 -13 -36 -2 2 4 -11 8 -30 8 -19 0 -34 -4
-34 -9 0 -5 -7 -6 -16 -3 -8 3 -24 1 -35 -4 -12 -7 -19 -7 -19 -1 0 5 10 13
23 17 12 3 34 15 49 25 14 11 33 19 42 19 8 0 30 15 48 34 39 39 78 62 87 50
8 -12 46 -11 62 2 18 15 84 15 69 0 -36 -36 16 -28 68 11 18 14 39 22 46 20 8
-3 18 -1 24 5 6 6 18 8 27 4 15 -5 15 -9 4 -23 -12 -13 -12 -17 -1 -21 10 -3
6 -13 -14 -33 -15 -16 -24 -32 -20 -36 4 -5 20 6 35 22 33 36 90 70 99 60 4
-4 0 -10 -8 -13 -8 -3 -29 -22 -48 -43 -19 -21 -40 -35 -46 -33 -7 3 -19 -2
-26 -11 -8 -9 -8 -15 -2 -15 6 0 14 5 17 10 4 6 10 8 15 5 5 -3 11 -1 15 4 3
6 12 8 20 4 9 -3 15 1 15 10 0 16 64 77 80 77 6 0 10 5 10 10 0 16 -73 12 -98
-6 -12 -8 -22 -11 -22 -7 0 17 59 43 97 44 42 1 37 4 -19 14 -33 5 -36 8 -26
24 6 10 19 16 28 14 10 -3 21 0 25 7 11 17 30 6 34 -21z m-2039 -104 c0 -30
31 -50 50 -32 10 9 14 9 17 -1 3 -9 16 -11 39 -6 25 5 34 3 34 -7 0 -11 2 -11
9 0 11 16 82 21 120 7 16 -6 21 -5 17 3 -4 6 -2 11 4 11 6 0 13 -7 16 -15 9
-21 22 -19 29 6 4 13 10 17 14 11 8 -14 44 -9 49 6 2 7 8 12 13 12 4 0 6 -7 3
-15 -4 -8 -2 -15 4 -15 17 0 33 27 26 44 -8 22 12 21 26 -1 10 -17 10 -17 20
0 6 9 15 17 21 17 5 0 2 -11 -8 -25 -10 -13 -24 -22 -32 -20 -9 4 -11 0 -7
-10 3 -8 2 -15 -3 -15 -4 0 -6 -12 -3 -26 3 -19 1 -25 -7 -20 -6 4 -11 3 -11
-3 0 -15 87 -3 129 17 19 9 45 15 58 14 15 -1 21 3 17 12 -7 19 21 28 94 30
39 1 61 -2 59 -9 -2 -5 -14 -9 -27 -7 -13 2 -20 -1 -16 -6 12 -19 -17 -25 -30
-7 -12 17 -17 17 -40 5 -23 -13 -24 -15 -8 -27 9 -7 21 -10 25 -7 11 7 100
-16 124 -33 19 -13 19 -13 -5 -13 -14 0 -56 10 -95 21 -86 25 -112 25 -149 -2
-20 -16 -37 -20 -62 -16 -20 4 -34 1 -37 -6 -3 -8 -8 -9 -18 -2 -8 6 -25 10
-39 10 -14 0 -29 5 -33 10 -4 6 -7 -1 -5 -15 2 -14 9 -25 18 -25 21 0 19 -29
-2 -33 -11 -2 -18 3 -18 12 0 19 -16 21 -23 4 -3 -9 -21 -12 -55 -10 -44 3
-49 6 -44 24 5 20 2 20 -79 16 -46 -3 -92 -9 -101 -13 -13 -5 -18 -2 -18 10 0
9 -4 14 -10 10 -5 -3 -7 -11 -5 -18 3 -7 -10 -19 -27 -27 -63 -30 -31 -56 36
-30 14 5 26 7 26 3 0 -11 -35 -32 -53 -33 -9 0 -25 -9 -34 -20 -10 -11 -20
-20 -23 -20 -3 0 -5 31 -6 69 l0 70 49 20 c61 26 89 27 80 5 -4 -12 -2 -15 8
-12 8 3 14 13 14 24 0 14 8 20 33 22 18 2 32 -1 32 -7 0 -6 5 -11 11 -11 6 0
9 9 6 20 -4 14 0 20 11 21 13 0 13 2 -3 8 -13 6 -23 4 -27 -4 -6 -9 -29 -12
-75 -10 -38 1 -74 -2 -80 -8 -9 -7 -13 -5 -13 6 0 8 -5 17 -11 19 -6 2 -13 21
-15 42 -3 24 -1 35 6 31 5 -3 10 -17 10 -30z m1238 -3 c13 -20 13 -22 -2 -16
-12 5 -16 0 -16 -22 1 -24 3 -27 13 -14 7 8 22 14 35 12 24 -4 29 -17 10 -25
-7 -3 -4 -6 7 -6 11 -1 27 8 35 19 8 11 18 20 23 20 5 0 4 -6 -2 -14 -9 -10
-8 -16 4 -26 12 -10 15 -10 15 3 0 8 3 22 6 30 3 9 -3 16 -17 20 -34 9 -15 20
20 12 26 -5 31 -11 31 -35 0 -33 -13 -45 -60 -56 -41 -9 -62 -6 -72 9 -6 9
-11 8 -18 -3 -5 -8 -10 -11 -10 -7 0 5 -7 1 -16 -7 -14 -14 -14 -18 0 -38 18
-25 22 -93 6 -83 -5 3 -10 15 -10 26 0 10 -5 18 -12 16 -6 -1 -18 9 -25 23
-13 23 -14 21 -8 -25 7 -63 15 -115 22 -137 2 -10 0 -18 -6 -18 -6 0 -11 9
-11 19 0 23 -16 36 -48 36 -21 1 -23 -3 -20 -37 5 -51 -5 -48 -19 5 -9 33 -9
45 1 57 8 8 16 22 19 30 3 9 6 4 6 -11 1 -21 6 -26 26 -26 19 0 24 4 21 16 -2
9 -7 36 -10 61 -5 36 -11 46 -26 47 -22 2 -23 1 -14 -21 3 -9 10 -13 15 -11
10 7 24 -43 15 -53 -4 -3 -9 3 -12 15 -8 30 -38 22 -42 -10 -4 -37 -19 -34
-30 6 -6 17 -13 40 -17 50 -5 12 -2 17 8 17 21 0 32 19 18 33 -13 13 -15 37
-2 37 5 0 12 -8 14 -17 4 -14 5 -13 6 4 1 13 12 27 29 35 19 10 27 21 27 39 0
58 59 71 93 21z m-1012 -155 c4 -4 2 -7 -5 -7 -15 0 -41 -25 -41 -39 0 -6 -10
-11 -21 -11 -16 0 -19 -3 -11 -12 5 -7 8 -30 6 -50 -1 -21 1 -40 7 -43 5 -4 9
5 9 19 0 14 5 26 11 26 5 0 8 -4 4 -9 -3 -5 -1 -12 5 -16 6 -4 10 6 11 22 0
24 1 25 9 8 6 -16 9 -17 13 -5 16 47 15 62 -4 67 -10 3 -19 10 -19 15 0 15 74
-3 92 -23 20 -23 26 -24 24 -2 -1 13 8 17 37 18 26 1 37 -2 37 -12 0 -8 -4
-12 -9 -9 -5 3 -11 0 -14 -8 -3 -8 -16 -16 -29 -19 -21 -4 -21 -4 4 -6 15 0
30 4 33 9 9 14 18 13 41 -6 19 -15 19 -15 -3 -11 -11 3 -39 1 -62 -3 -35 -6
-42 -4 -58 16 -27 36 -39 29 -40 -23 0 -27 1 -40 4 -30 4 14 16 17 64 17 33 0
59 -4 59 -10 0 -5 -6 -10 -14 -10 -22 0 -26 -13 -15 -53 14 -52 33 -48 26 6
-2 23 -3 36 0 29 7 -17 23 -5 23 19 0 10 5 19 11 19 6 0 8 -9 4 -20 -4 -11 -2
-20 4 -20 6 0 16 9 23 20 14 23 30 27 22 6 -3 -7 2 -16 10 -19 9 -4 16 -13 16
-21 0 -12 8 -14 30 -11 17 3 44 7 60 10 31 5 38 -3 19 -22 -8 -8 -8 -17 -1
-30 10 -16 12 -15 23 12 l13 30 4 -27 c2 -16 7 -28 11 -28 14 0 19 38 7 50 -8
9 -6 11 9 8 14 -2 19 -10 17 -26 -2 -12 2 -22 7 -22 6 0 11 4 11 10 0 5 7 7
15 4 8 -4 23 0 32 7 13 12 17 11 26 -2 9 -15 12 -14 33 4 27 23 22 41 -9 31
-21 -6 -21 -5 -5 12 14 14 20 15 32 4 9 -7 17 -22 17 -34 1 -17 2 -17 6 -4 2
10 15 21 29 24 13 3 24 10 24 15 0 5 5 9 11 9 5 0 7 -4 4 -10 -4 -6 8 -10 29
-10 34 0 41 -7 37 -37 -1 -9 8 -11 31 -7 18 4 35 7 38 7 17 2 70 -16 70 -24 0
-5 5 -9 11 -9 6 0 8 9 4 20 -6 18 -2 20 49 20 43 0 56 -3 56 -15 0 -8 5 -15
10 -15 6 0 10 7 10 15 0 9 9 15 25 15 16 0 25 -6 25 -15 0 -18 1 -18 35 -5 20
8 27 7 31 -5 4 -8 14 -15 23 -15 14 1 14 2 -1 14 -20 15 -25 66 -7 66 6 0 9
-9 6 -20 -3 -11 -1 -21 4 -21 19 -3 24 -5 37 -12 7 -5 10 -12 7 -17 -3 -5 -1
-11 5 -15 6 -3 10 4 10 17 1 21 2 21 11 5 6 -9 14 -15 20 -12 5 4 9 1 9 -5 0
-6 4 -9 9 -6 5 3 7 16 5 29 -2 12 -1 16 2 8 5 -11 8 -11 16 0 7 11 11 11 15 2
9 -23 25 -14 17 9 -6 20 -5 21 9 10 11 -10 16 -10 19 -1 3 8 9 7 20 -4 18 -18
29 -13 21 11 -4 13 -3 14 5 3 6 -8 17 -11 32 -6 18 6 21 3 18 -11 -2 -12 -12
-19 -28 -19 -22 0 -25 -4 -22 -30 2 -16 7 -32 11 -35 5 -3 12 -20 16 -37 3
-19 13 -33 21 -33 24 0 15 -26 -10 -28 -21 -1 -24 4 -30 49 -6 40 -10 50 -22
45 -9 -3 -27 -9 -40 -12 -20 -5 -24 -12 -24 -44 0 -22 5 -42 10 -45 5 -3 10
-19 10 -36 0 -19 5 -29 15 -29 10 0 15 10 15 28 1 22 2 24 10 10 14 -23 -4
-70 -25 -62 -8 3 -15 10 -15 15 0 17 -20 9 -21 -8 0 -14 -2 -14 -9 3 -13 33
-30 39 -37 14 -3 -12 -11 -19 -19 -16 -7 3 -16 1 -19 -4 -9 -15 -82 -12 -89 3
-5 9 -7 10 -12 0 -9 -20 -21 -15 -29 10 l-7 22 -7 -25 -7 -25 -10 30 c-6 17
-9 55 -8 85 2 50 1 53 -12 36 -14 -20 -14 -20 -15 0 0 16 -2 15 -11 -6 l-11
-25 -6 25 c-11 39 -44 33 -57 -10 -6 -19 -16 -34 -22 -33 -7 2 -12 -1 -12 -6
0 -5 11 -8 25 -8 19 0 25 5 25 23 0 12 5 26 10 29 6 3 10 -3 10 -14 0 -12 7
-21 15 -21 15 0 64 -85 54 -94 -8 -8 -219 -11 -219 -3 0 4 9 7 20 7 22 0 25 7
10 30 -8 13 -10 12 -10 -2 0 -11 -8 -18 -19 -18 -11 0 -22 -6 -24 -12 -3 -7
-6 -1 -6 15 -1 38 -19 34 -24 -5 -4 -32 -4 -32 -5 5 -1 20 -6 37 -12 37 -5 0
-10 -4 -10 -10 0 -5 -6 -9 -12 -7 -7 1 -12 -4 -11 -10 2 -7 -4 -13 -12 -13 -8
0 -15 -7 -15 -15 0 -8 -7 -15 -16 -15 -10 0 -14 6 -10 15 3 9 0 15 -9 15 -8 0
-15 -7 -15 -15 0 -12 -13 -15 -58 -15 -32 0 -63 5 -70 12 -9 9 -12 9 -12 0 0
-20 -27 -13 -42 10 -12 18 -25 23 -62 23 -33 0 -46 4 -46 14 0 14 -41 12 -139
-6 -23 -4 -32 -2 -27 5 4 6 22 14 41 18 19 3 35 9 35 13 -1 16 -17 27 -42 26
-23 0 -27 -4 -23 -20 3 -11 2 -14 -1 -7 -3 6 -12 12 -20 12 -9 0 -12 -5 -8
-11 3 -6 1 -15 -7 -19 -18 -12 8 -42 31 -35 9 3 38 7 64 10 44 5 47 3 41 -15
-4 -11 -2 -20 4 -20 6 0 11 4 11 8 0 12 123 9 127 -3 2 -6 -43 -11 -117 -13
-111 -2 -119 -1 -114 15 5 16 4 15 -10 -2 -16 -19 -16 -19 -32 3 -8 12 -22 22
-30 22 -8 0 -14 7 -14 15 0 8 6 14 13 13 6 -2 12 6 12 17 0 11 -7 20 -15 21
-34 2 -40 5 -40 17 0 7 -9 18 -20 25 -17 10 -20 10 -20 -6 0 -9 -9 -23 -20
-30 -24 -15 -26 -5 -3 20 9 10 13 21 9 26 -4 4 -14 -2 -22 -13 -8 -11 -22 -19
-29 -17 -9 2 -13 -3 -9 -11 7 -19 -37 -14 -68 7 -28 20 -38 20 -38 1 0 -18 -1
-18 -34 -5 -15 5 -28 5 -31 0 -3 -4 3 -10 12 -13 15 -3 14 -6 -7 -14 -19 -8
-26 -7 -28 3 -2 8 -10 14 -18 14 -8 0 -14 5 -14 10 0 6 -4 10 -10 10 -5 0 -10
-13 -10 -30 0 -20 5 -30 15 -30 16 0 20 -12 8 -23 -10 -11 -32 26 -33 56 0 16
-4 26 -10 22 -6 -3 -10 1 -10 10 0 9 5 13 10 10 5 -3 10 3 10 14 0 12 -4 21
-10 21 -6 0 -10 34 -10 83 0 79 1 85 30 112 16 15 41 30 56 31 14 2 33 12 41
23 8 12 21 21 29 21 8 0 14 5 14 10 0 13 -51 13 -86 0 -39 -15 -41 -4 -4 15
20 10 44 15 61 11 21 -4 29 -2 29 9 0 10 11 13 45 11 24 -1 48 -5 51 -9z
m1903 -635 l-2 -139 -651 -6 c-849 -9 -1488 -9 -1502 1 -10 6 -18 47 -15 76 1
6 11 0 22 -13 17 -18 30 -22 60 -19 30 3 39 0 42 -14 4 -13 14 -18 39 -17 18
1 25 3 16 6 -26 7 -33 41 -13 63 13 14 16 28 11 55 -6 29 -14 39 -41 51 -68
28 -125 7 -125 -47 0 -16 -5 -29 -11 -29 -12 0 -3 129 10 142 3 4 202 9 441
10 239 2 548 5 685 8 138 3 427 6 643 8 l393 3 -2 -139z"/>
<path d="M723 2310 l-16 -60 -59 0 c-32 0 -58 -4 -58 -9 0 -5 15 -19 34 -30
56 -35 58 -41 37 -104 -13 -36 -16 -59 -10 -63 6 -3 34 10 63 29 l53 36 51
-34 c58 -40 68 -32 40 33 -10 24 -18 47 -18 50 0 4 25 23 55 42 30 19 55 38
55 43 0 4 -33 7 -74 7 -69 0 -75 2 -81 23 -12 42 -38 97 -46 97 -5 0 -16 -27
-26 -60z"/>
<path d="M964 631 c-2 -2 3 -12 11 -21 13 -14 12 -18 -4 -32 -22 -19 -37 -12
-20 9 6 7 8 14 3 14 -31 4 -40 3 -51 -8 -7 -6 -13 -19 -13 -28 0 -9 -4 -14
-10 -10 -5 3 -7 12 -4 19 5 14 -23 43 -33 33 -3 -4 0 -13 7 -22 7 -9 8 -15 2
-15 -5 0 -8 -9 -5 -20 3 -11 1 -20 -5 -20 -13 0 -24 29 -16 42 4 6 1 14 -6 18
-18 11 -50 0 -50 -16 0 -18 -30 -31 -39 -17 -9 15 -51 26 -51 14 0 -6 7 -11
15 -11 9 0 15 -9 15 -22 0 -21 -1 -21 -13 -4 -12 17 -14 17 -20 2 -7 -17 -47
-23 -47 -6 0 6 -5 10 -10 10 -6 0 -8 -11 -4 -25 4 -17 2 -25 -7 -25 -7 0 -10
-3 -7 -6 4 -3 20 2 37 10 27 14 30 14 25 1 -8 -19 3 -19 21 -2 8 9 32 13 60
12 44 -1 46 0 44 24 -2 14 2 35 9 46 10 17 11 14 6 -22 l-6 -42 37 6 c35 6 38
4 33 -14 -3 -12 -2 -27 3 -34 6 -10 9 -7 10 11 1 14 2 33 1 43 -1 9 2 17 7 17
11 0 21 -25 21 -51 0 -10 5 -19 10 -19 6 0 10 16 10 35 0 26 3 33 15 29 8 -4
15 -19 15 -34 0 -38 20 -50 21 -13 0 24 1 25 8 8 5 -11 7 -23 4 -27 -2 -5 1
-8 6 -8 6 0 11 6 11 13 0 9 2 9 8 -1 13 -19 45 -3 39 19 -3 11 -1 19 4 19 5 0
9 -6 9 -14 0 -7 7 -19 16 -27 13 -10 17 -10 24 2 6 9 5 15 -3 18 -7 2 -16 10
-20 17 -4 8 -14 14 -22 14 -9 0 -11 7 -7 22 3 14 2 19 -6 14 -7 -4 -12 -3 -12
2 0 12 26 23 43 17 6 -2 23 -6 37 -9 14 -2 33 -7 43 -11 10 -4 17 -3 17 5 0 6
-4 8 -10 5 -5 -3 -10 1 -10 9 0 11 -10 16 -32 16 -18 0 -44 3 -57 7 -17 4 -22
3 -17 -5 4 -7 1 -12 -9 -12 -9 0 -27 -12 -42 -26 -14 -14 -27 -23 -30 -20 -9
9 18 47 40 56 17 7 18 9 5 9 -10 1 -18 5 -18 11 0 5 7 7 15 4 10 -4 15 0 15
10 0 12 -8 16 -30 14 -17 -1 -33 -4 -36 -7z"/>
<path d="M1310 263 c-4 -22 0 -153 4 -153 3 0 12 0 20 0 10 0 12 11 8 45 -5
52 9 60 28 16 15 -38 44 -64 65 -59 14 2 17 16 18 76 1 39 0 72 -3 72 -3 0
-15 3 -27 6 -14 4 -23 2 -23 -5 0 -6 6 -11 14 -11 10 0 13 -11 11 -42 -2 -24
-4 -45 -5 -48 0 -3 -14 20 -29 50 -24 45 -34 55 -55 55 -14 1 -26 0 -26 -2z"/>
<path d="M1990 258 c0 -4 5 -10 10 -13 6 -3 10 -27 10 -53 0 -41 -3 -49 -27
-59 -15 -7 -31 -13 -35 -13 -4 0 -8 32 -8 70 0 69 0 70 -26 70 -22 0 -24 -2
-14 -14 7 -9 10 -39 8 -78 l-3 -63 40 -3 c29 -3 43 1 52 14 7 10 13 12 13 6 0
-19 96 -16 104 3 6 17 -19 21 -29 5 -13 -20 -35 -10 -35 16 0 21 3 24 13 15
16 -13 27 -5 27 20 0 24 -20 35 -31 18 -6 -10 -9 -4 -9 19 0 22 5 32 15 32 8
0 15 -4 15 -10 0 -5 5 -10 10 -10 11 0 14 30 3 31 -50 4 -103 3 -103 -3z"/>
</g>
</svg>
