<?xml version="1.0" standalone="no"?>
<!DOCTYPE svg PUBLIC "-//W3C//DTD SVG 20010904//EN"
 "http://www.w3.org/TR/2001/REC-SVG-20010904/DTD/svg10.dtd">
<svg version="1.0" xmlns="http://www.w3.org/2000/svg"
 width="233.000000pt" height="400.000000pt" viewBox="0 0 233.000000 400.000000"
 preserveAspectRatio="xMidYMid meet">
<metadata>
Created by potrace 1.15, written by Peter Selinger 2001-2017
</metadata>
<g transform="translate(0.000000,400.000000) scale(0.100000,-0.100000)"
fill="#000000" stroke="none">
<path d="M39 3944 c-6 -7 -8 -757 -7 -1950 l3 -1939 1104 0 1103 0 8 21 c5 11
7 37 5 56 -3 37 -11 1179 -20 2867 -3 520 -8 947 -11 950 -3 3 -494 6 -1091 6
-791 0 -1087 -3 -1094 -11z m2153 -16 c15 -12 17 -130 23 -1224 6 -1168 6
-1211 -12 -1216 -10 -2 -39 -2 -65 0 -39 3 -47 7 -51 28 -5 27 11 31 46 12 28
-15 77 -20 77 -9 0 5 -14 12 -30 16 -30 7 -33 28 -3 23 9 -2 18 3 20 9 3 9 -4
12 -24 9 -15 -2 -20 -1 -10 1 9 2 15 8 12 13 -3 5 -11 7 -18 4 -15 -6 -77 67
-77 91 0 9 -4 14 -9 11 -5 -4 -7 -50 -4 -104 l6 -98 -42 -33 -41 -33 0 329 c0
227 3 332 11 340 6 6 12 33 13 60 l1 48 50 5 c48 5 50 6 50 35 0 30 0 30 -57
30 -32 0 -58 2 -58 5 0 3 -7 50 -15 105 -7 54 -10 106 -5 114 4 8 3 27 -2 43
-8 22 -16 28 -38 28 -37 0 -64 -26 -55 -54 9 -27 9 -33 0 -148 l-8 -98 -64 0
-64 0 3 -32 c3 -33 4 -33 59 -36 57 -3 57 -3 61 -38 2 -19 0 -37 -4 -40 -4 -3
-8 6 -8 20 0 25 -2 26 -62 26 l-63 0 -3 68 c-2 37 -7 82 -12 101 -7 25 -5 39
7 58 12 18 13 27 4 36 -17 17 -13 30 16 51 l26 19 33 -38 c32 -39 33 -39 53
-21 28 25 27 35 -8 77 l-30 36 75 77 c41 43 74 82 74 87 0 51 -81 70 -101 25
-6 -13 -33 -36 -60 -51 -27 -14 -49 -30 -49 -36 0 -5 22 5 49 22 l50 30 21
-21 22 -22 -23 -26 c-13 -15 -33 -37 -45 -49 l-22 -22 -26 33 c-50 66 -52 79
-18 128 17 24 37 50 46 57 23 19 20 68 -3 81 -32 17 -50 12 -69 -20 -14 -23
-21 -27 -30 -18 -17 17 -16 23 23 74 19 25 35 51 35 58 0 7 14 27 30 44 33 35
35 44 20 73 -20 36 -52 22 -137 -63 l-83 -82 -28 27 c-34 32 -53 34 -77 7 -18
-20 -18 -21 20 -60 l38 -39 -42 -63 c-45 -68 -109 -144 -115 -137 -10 11 8 69
21 69 13 0 13 2 2 17 -12 15 -12 16 5 10 14 -6 17 -4 12 8 -3 8 0 15 6 15 7 0
6 5 -2 15 -7 8 -8 15 -3 15 19 0 11 46 -14 72 -24 25 -25 31 -19 91 3 36 3 72
0 81 -8 21 -81 59 -100 52 -8 -3 -14 -1 -14 4 0 13 -86 13 -112 -1 -22 -12
-48 -66 -57 -119 -4 -19 -10 -34 -14 -32 -4 1 -21 -4 -37 -13 -24 -13 -29 -21
-28 -49 1 -35 -19 -96 -32 -96 -4 0 -15 -16 -26 -35 -10 -19 -21 -35 -25 -35
-3 0 -26 13 -50 30 -55 37 -65 37 -83 2 -15 -29 -14 -29 25 -51 22 -13 39 -25
37 -27 -7 -6 -90 11 -90 19 0 35 26 158 38 179 13 24 13 32 2 55 -11 23 -20
28 -48 28 -41 0 -64 -33 -50 -71 7 -16 0 -41 -23 -96 l-33 -74 -39 17 c-51 22
-81 23 -89 3 -9 -24 -7 -44 4 -44 6 0 10 11 10 25 0 30 1 30 69 4 55 -20 70
-17 71 17 0 6 10 35 22 63 18 46 24 52 47 49 23 -3 26 -7 23 -36 -2 -18 -9
-52 -16 -75 -11 -39 -14 -42 -44 -39 -62 7 -31 -6 58 -23 50 -10 90 -20 90
-24 0 -3 -4 -12 -9 -20 -8 -12 -33 -8 -151 23 -78 20 -144 35 -147 32 -3 -3
10 -9 28 -14 l34 -8 -2 -65 c-1 -44 -31 -179 -93 -424 -91 -356 -92 -359 -130
-396 -36 -35 -37 -39 -30 -80 8 -41 5 -51 -46 -148 -30 -58 -54 -113 -54 -123
0 -26 35 -23 55 5 15 21 15 21 9 -13 -4 -19 -13 -52 -20 -73 -14 -40 -10 -67
11 -67 21 0 44 28 56 71 9 30 16 38 29 34 22 -7 115 57 114 78 -1 9 3 15 10
14 6 -1 10 4 8 11 -1 6 1 11 5 10 14 -2 43 14 43 24 0 6 -6 5 -15 -2 -8 -6
-18 -9 -24 -6 -5 3 -34 -22 -65 -56 -31 -33 -58 -59 -61 -56 -3 3 52 63 121
134 70 71 117 117 105 103 -31 -38 -26 -47 9 -14 17 16 30 24 30 19 0 -17 -48
-57 -59 -50 -5 4 -12 2 -16 -4 -3 -5 -1 -10 5 -10 6 0 8 -5 4 -11 -5 -8 -8 -8
-13 0 -5 7 -18 0 -36 -19 -16 -16 -24 -30 -18 -30 5 0 18 9 28 20 10 11 21 17
26 14 5 -2 28 16 52 42 39 40 47 45 65 35 32 -17 81 -13 127 10 l43 22 23 -22
c30 -27 32 -27 76 13 33 29 93 66 108 67 3 0 25 8 51 19 67 29 82 26 90 -15 3
-19 2 -87 -2 -152 -12 -170 -11 -210 5 -225 11 -11 13 -6 7 32 -4 34 -3 41 5
27 5 -9 14 -15 20 -12 5 4 9 2 9 -4 0 -5 -5 -11 -10 -13 -14 -4 17 -95 46
-135 13 -17 24 -36 24 -41 0 -13 -43 -24 -50 -13 -3 5 -41 10 -85 12 -71 4
-85 8 -127 37 -48 33 -73 41 -66 21 8 -25 132 -79 185 -81 44 -2 51 -5 40 -15
-17 -17 -212 -28 -247 -15 -50 19 -129 101 -141 145 -15 58 -42 106 -83 150
-34 36 -49 41 -108 37 -29 -2 -34 6 -20 27 10 15 69 20 96 8 16 -7 18 -5 13 8
-8 21 -13 21 58 -6 37 -14 65 -32 74 -49 35 -57 87 -125 123 -160 36 -36 68
-49 68 -28 0 6 -6 10 -12 10 -26 1 -114 106 -164 195 -16 29 -143 80 -165 67
-29 -19 -43 8 -17 35 12 13 17 23 12 23 -6 0 -39 -29 -75 -65 -35 -36 -74 -74
-86 -86 -20 -19 -28 -48 -52 -184 -4 -23 -11 -46 -15 -53 -10 -17 -34 -15 -53
4 -10 9 -25 13 -39 10 -13 -4 -24 -1 -26 6 -6 17 -98 11 -119 -8 -16 -15 -89
-55 -89 -49 0 2 7 31 16 65 8 34 13 64 10 67 -4 5 -31 -79 -38 -121 -2 -11 -9
-21 -17 -24 -10 -3 -12 0 -8 11 3 9 2 19 -3 22 -6 4 -10 0 -10 -8 0 -13 -14
-22 -73 -46 l-27 -11 0 1318 c0 724 3 1350 7 1389 l6 73 1056 0 c833 0 1060
-3 1073 -12z m-830 -1121 c16 -23 21 -59 9 -66 -7 -5 -8 -17 -1 -41 6 -19 10
-36 10 -38 0 -1 -11 0 -25 4 -26 6 -35 -9 -12 -20 6 -4 -2 -4 -20 -1 -40 6
-51 -8 -18 -23 16 -8 25 -20 25 -35 0 -36 -9 -38 -49 -12 -19 14 -41 25 -47
25 -7 0 -14 6 -17 13 -2 6 -8 9 -12 4 -5 -4 4 -21 20 -37 28 -30 28 -30 14
-77 -18 -56 -42 -67 -112 -46 -46 13 -47 14 -47 55 0 39 44 148 59 146 3 0 12
0 19 1 17 1 15 21 -3 21 -20 0 -36 32 -24 51 7 12 9 11 9 -2 0 -9 8 -23 17
-30 15 -13 16 -12 11 9 -7 24 1 29 19 11 7 -7 19 -8 30 -4 10 5 23 8 28 7 13
-2 35 45 35 74 0 12 6 25 13 28 17 7 60 -3 69 -17z m161 -50 c-14 -24 -227
-272 -578 -671 -110 -125 -217 -249 -238 -274 -21 -26 -66 -78 -100 -115 -34
-38 -63 -74 -65 -80 -2 -7 20 13 47 43 28 30 51 50 51 44 0 -6 -7 -17 -15 -24
-8 -7 -15 -17 -15 -23 0 -6 11 0 25 13 14 13 27 21 29 19 3 -3 -42 -54 -100
-114 -58 -61 -96 -96 -86 -80 11 17 46 55 76 85 31 30 56 59 56 64 0 6 -18 -8
-41 -29 -28 -28 -38 -34 -34 -20 7 20 6 20 -9 1 -21 -26 -21 -3 0 32 l16 27
-26 -29 c-27 -28 -31 -63 -7 -58 8 1 9 -2 4 -11 -11 -19 -83 -102 -83 -96 0 3
11 37 24 75 18 54 21 74 13 92 -8 16 -8 26 0 30 5 4 12 14 15 21 3 12 6 12 11
-2 3 -9 2 -17 -3 -17 -6 0 -10 -12 -10 -27 l1 -28 17 28 c11 18 23 26 34 24
12 -4 82 71 245 257 125 144 257 297 293 340 36 43 70 83 75 90 6 6 46 53 90
104 43 50 82 92 87 92 4 0 15 14 24 31 24 47 165 210 175 203 5 -3 6 -11 2
-17z m-53 -131 c0 -15 -129 -162 -511 -580 -85 -93 -167 -184 -182 -202 -32
-38 -85 -74 -57 -38 8 10 157 181 330 379 173 198 335 384 358 413 41 48 62
58 62 28z m-600 -3 c3 -3 -44 -101 -104 -219 -60 -118 -110 -213 -112 -211 -1
1 10 43 26 92 15 50 47 150 70 223 l41 134 37 -7 c20 -4 39 -9 42 -12z m14
-106 c-15 -29 -57 -106 -94 -172 -37 -66 -118 -214 -180 -330 -122 -228 -117
-221 -126 -212 -3 3 83 181 192 396 175 343 201 388 216 380 17 -9 16 -13 -8
-62z m122 31 c-13 -44 -17 -106 -7 -112 6 -4 7 -14 4 -23 -5 -12 -2 -15 9 -10
12 4 14 1 11 -14 -4 -14 -9 -17 -18 -9 -6 5 -15 7 -18 3 -12 -11 -8 -23 8 -23
9 0 12 -6 8 -16 -3 -8 -12 -13 -19 -10 -16 6 -31 -13 -17 -23 5 -3 9 -19 9
-35 -1 -17 6 -33 17 -40 15 -9 23 -5 47 24 17 19 35 52 40 73 6 21 15 35 20
32 18 -11 32 5 19 21 -12 15 -5 17 23 6 15 -6 14 -10 -8 -35 -13 -15 -24 -23
-24 -18 0 6 -5 11 -11 11 -6 0 -9 -8 -7 -17 4 -14 -42 -85 -72 -113 -3 -3 -41
-48 -84 -100 -44 -52 -84 -100 -90 -107 -15 -17 -18 117 -5 227 8 61 19 102
41 145 29 56 117 185 126 185 2 0 1 -10 -2 -22z m-320 -5 c-3 -10 -21 -76 -40
-148 -95 -358 -161 -573 -172 -562 -2 2 14 68 35 148 21 79 62 236 91 349 63
250 56 230 75 230 11 0 15 -6 11 -17z m232 -62 c-17 -31 -93 -164 -168 -296
-76 -132 -144 -253 -153 -270 -9 -16 -29 -46 -46 -65 -30 -34 -30 -34 7 35 22
39 65 120 97 180 32 61 61 115 65 120 4 6 31 55 60 110 111 212 144 264 157
253 10 -8 6 -22 -19 -67z m-178 59 c0 -28 -141 -463 -164 -506 -15 -27 -24
-40 -22 -29 3 11 34 124 69 250 36 127 68 245 72 263 5 22 12 32 26 32 10 0
19 -5 19 -10z m724 -52 c-141 -146 -505 -538 -500 -538 6 0 245 243 256 260
14 22 315 330 322 330 4 0 8 -6 8 -13 0 -16 -690 -720 -698 -712 -3 3 20 32
51 63 35 35 56 64 52 73 -3 8 14 35 42 64 26 28 110 118 187 200 78 83 179
192 225 243 47 50 92 92 100 92 9 0 -9 -26 -45 -62z m144 -49 c-29 -26 -103
-89 -164 -140 -61 -52 -189 -161 -285 -244 -96 -82 -184 -156 -194 -164 -37
-27 319 333 378 382 31 27 55 52 52 56 -2 5 8 19 23 32 l27 24 -24 -27 c-33
-37 -15 -36 23 2 17 16 67 59 111 95 74 60 81 64 93 48 12 -16 7 -23 -40 -64z
m-230 16 c-3 -14 -130 -154 -279 -310 -53 -55 -111 -117 -129 -137 -18 -21
-37 -38 -42 -38 -16 0 -5 16 48 72 27 29 74 80 104 113 29 33 85 96 125 140
40 44 92 103 116 131 41 47 64 59 57 29z m251 -40 c4 -33 4 -64 -4 -157 l-8
-97 -56 -3 c-53 -3 -56 -5 -59 -30 -3 -26 -1 -27 50 -30 l53 -3 0 -47 c0 -25
4 -50 8 -54 4 -4 7 -90 7 -190 l0 -183 -30 4 c-20 3 -30 0 -30 -9 0 -9 10 -12
30 -10 27 3 30 0 36 -33 4 -20 3 -42 -2 -49 -82 -113 -105 -156 -94 -169 14
-17 75 -21 65 -5 -3 6 -17 10 -31 10 -13 0 -24 4 -24 9 0 6 12 6 32 0 41 -11
48 -11 48 1 0 5 -15 12 -34 16 l-35 6 36 54 c20 30 37 54 39 54 2 0 4 -40 4
-90 0 -73 -3 -90 -15 -90 -8 0 -15 -7 -15 -15 0 -22 -17 -18 -23 5 -6 23 -37
17 -37 -7 0 -12 -3 -13 -14 -4 -7 6 -11 22 -8 36 2 15 0 25 -7 25 -6 0 -11
-10 -12 -22 -1 -36 -5 -60 -18 -105 -11 -39 -13 -41 -56 -45 -49 -3 -51 -2
-30 26 21 28 19 44 -13 76 -37 36 -59 110 -72 235 -5 55 -15 135 -21 178 -12
79 -5 107 25 107 28 0 56 50 81 145 15 55 28 103 31 106 2 3 6 32 9 65 9 102
10 105 105 183 50 41 88 76 86 79 -4 4 -88 -62 -178 -140 -15 -13 -55 -45 -90
-73 -35 -27 -108 -88 -163 -135 -146 -124 -293 -240 -305 -240 -6 0 93 89 221
198 127 108 292 250 368 314 75 64 139 117 142 117 3 1 7 -6 8 -14z m-804
-162 c-4 -10 -9 -35 -12 -55 -3 -20 -10 -36 -16 -35 -6 1 -14 -14 -18 -33 -6
-26 -4 -38 7 -46 7 -6 14 -17 14 -25 0 -10 -3 -10 -12 -1 -17 17 -31 15 -24
-5 4 -9 1 -20 -6 -25 -10 -6 -10 -10 2 -18 12 -8 12 -10 -5 -10 -18 0 -18 -2
5 -20 l25 -20 -37 5 c-33 4 -37 1 -47 -27 -6 -17 -8 -34 -6 -38 12 -19 -16
-19 -47 0 -22 13 -27 20 -15 20 14 0 16 5 11 25 -5 19 -2 25 10 25 9 0 16 7
16 15 0 8 8 16 18 16 16 1 16 2 0 6 -23 6 -11 31 44 91 22 24 37 46 34 50 -4
3 -13 -3 -22 -14 -8 -10 -4 1 11 26 14 25 34 60 42 78 17 33 41 46 28 15z
m575 -215 c-12 -35 -23 -77 -25 -94 -10 -71 -54 -124 -90 -110 -9 3 -13 2 -10
-3 3 -5 1 -12 -5 -16 -5 -3 -10 -1 -10 5 0 7 -14 3 -33 -9 -19 -11 -36 -19
-39 -16 -2 3 -24 -5 -49 -17 -24 -12 -54 -21 -66 -20 -13 1 -29 -8 -38 -20 -8
-13 -16 -17 -16 -10 -1 6 -3 17 -4 22 -1 6 -3 15 -4 20 0 6 -15 19 -32 29
l-31 19 30 16 c39 20 66 20 82 1 7 -8 18 -15 24 -15 6 0 -1 12 -16 25 -35 30
-36 43 -2 20 29 -19 43 -13 24 10 -10 12 -10 15 4 15 9 0 19 7 22 15 3 8 15
17 26 21 15 4 18 12 14 30 -5 20 7 34 85 101 51 43 110 95 133 115 l41 37 3
-54 c2 -35 -4 -76 -18 -117z m474 64 c3 -5 8 -152 11 -328 l6 -319 -25 30
c-29 34 -38 97 -11 75 21 -17 33 -3 14 16 -25 24 -52 7 -45 -27 5 -25 -2 -37
-42 -79 -26 -28 -51 -50 -55 -50 -4 0 -7 128 -7 285 0 183 4 285 10 285 6 0
10 27 10 60 l0 60 64 0 c36 0 67 -4 70 -8z m54 -445 c2 -243 5 -541 6 -662 2
-121 0 -245 -4 -275 -6 -46 -8 -35 -9 60 -1 63 -4 165 -5 225 -1 61 -6 332
-11 603 -7 421 -6 492 6 492 12 0 15 -70 17 -443z m43 -256 c-1 -381 -6 -703
-11 -715 -5 -12 -9 136 -10 354 0 206 -3 530 -7 718 -5 328 -5 344 13 340 17
-3 18 -35 15 -697z m-301 447 c0 -79 3 -376 7 -660 6 -486 5 -518 -11 -518
-16 0 -17 14 -14 158 3 154 -9 908 -17 1068 -4 83 -2 94 22 94 10 0 13 -30 13
-142z m30 -20 c0 -90 3 -338 6 -553 4 -214 4 -388 1 -385 -3 3 -8 116 -11 250
-17 755 -18 850 -7 850 7 0 11 -52 11 -162z m-845 -39 c5 -5 26 -9 46 -9 39 0
37 2 56 -64 4 -15 1 -18 -15 -14 -11 3 -30 -1 -41 -8 -32 -23 -104 -45 -110
-35 -3 5 -20 11 -36 14 l-30 4 32 2 c47 2 52 21 6 22 -30 2 -32 3 -10 6 15 2
27 9 27 14 0 5 -11 7 -25 3 -28 -7 -88 13 -79 27 3 5 13 5 24 -1 29 -16 60
-13 54 5 -4 8 -1 15 5 15 6 0 11 -7 11 -15 0 -8 5 -15 10 -15 6 0 10 11 10 25
0 29 -16 32 -48 9 -12 -8 -22 -11 -22 -6 0 5 10 17 23 25 23 16 92 13 112 -4z
m-110 -330 c36 -15 73 -53 89 -93 9 -22 15 -40 14 -41 -2 0 -34 -14 -72 -30
-38 -16 -84 -43 -102 -61 -28 -28 -32 -39 -27 -67 7 -46 -14 -140 -39 -172
-11 -14 -23 -24 -26 -21 -3 3 -11 1 -18 -5 -14 -12 -64 -20 -64 -10 0 3 -14
14 -30 23 l-30 17 34 73 c64 137 75 166 87 228 6 34 20 69 29 79 10 9 25 31
34 49 25 50 57 58 121 31z m1438 11 l38 0 -3 -72 -3 -73 -40 0 c-22 0 -45 -4
-52 -8 -7 -4 -16 0 -22 10 -9 16 -10 16 -11 1 0 -14 -16 -17 -40 -8 -3 1 -9 2
-14 1 -29 -5 -46 12 -46 49 0 33 6 44 43 75 36 30 47 35 77 30 19 -2 52 -5 73
-5z m-1779 -232 c22 -31 20 -47 -6 -57 -22 -8 -22 -9 -4 -17 25 -10 45 17 38
51 -3 17 0 25 10 25 37 0 51 -54 21 -81 -10 -9 -23 -25 -29 -35 -11 -19 -12
-19 -48 0 -20 11 -36 25 -36 33 0 16 -16 17 -25 2 -4 -6 1 -17 11 -24 18 -14
18 -14 -3 -15 -12 0 -26 8 -32 17 -5 10 -13 15 -17 11 -4 -4 -1 -14 6 -23 23
-27 -9 -17 -36 12 l-25 27 -6 -22 c-5 -22 -6 -22 -19 4 -13 24 -12 28 3 40 40
32 52 35 62 17 9 -16 10 -16 11 4 0 33 27 53 70 53 29 0 43 -6 54 -22z m937
-129 c8 -15 6 -26 -10 -48 -11 -15 -18 -31 -14 -35 3 -3 1 -6 -6 -6 -7 0 -11
-6 -8 -12 3 -9 -7 -14 -31 -16 -26 -2 -63 12 -146 54 -164 84 -163 92 7 97 68
3 123 9 129 15 13 13 62 -17 79 -49z m-907 -78 c-3 -3 -13 -6 -22 -6 -11 0
-16 -7 -14 -17 2 -10 -3 -18 -9 -18 -7 0 -4 -7 7 -16 19 -15 19 -15 -2 -9 -27
7 -41 -30 -16 -40 10 -4 12 -9 6 -13 -5 -4 -11 -20 -12 -35 -1 -15 -8 -40 -16
-56 -15 -28 -15 -28 -108 -25 -90 3 -178 20 -195 38 -4 5 6 6 22 2 56 -13 265
-22 265 -11 0 6 -37 10 -92 10 -63 0 -109 6 -143 18 -27 9 -50 17 -50 17 0 0
-1 11 -1 25 l-2 25 149 -7 c101 -4 149 -3 149 4 0 7 -49 11 -137 12 -143 1
-173 10 -160 45 5 12 15 14 39 10 25 -4 29 -3 18 5 -8 6 -25 11 -38 11 -15 0
-22 5 -19 13 2 7 17 11 37 9 28 -3 32 -1 26 14 -5 14 -4 15 9 4 11 -9 31 -11
68 -6 28 4 83 9 121 12 38 2 71 6 73 8 3 3 16 0 29 -6 13 -6 21 -14 18 -17z
m602 -83 c4 -7 -21 -8 -75 -4 -67 4 -81 3 -81 -9 0 -8 -3 -14 -7 -13 -21 5
-74 -16 -83 -33 -6 -10 -17 -19 -25 -19 -7 0 -21 -7 -29 -16 -21 -20 -106 -44
-184 -51 -55 -5 -62 -3 -56 11 4 10 16 16 28 15 11 -2 31 1 44 5 22 7 22 9 8
25 -9 10 -16 24 -16 32 0 8 6 5 16 -9 17 -25 39 -30 30 -7 -3 8 0 15 6 15 6 0
9 3 5 6 -15 15 25 34 72 34 27 0 62 5 78 12 30 13 177 25 231 19 18 -2 35 -8
38 -13z m219 -63 c17 -4 47 -8 69 -10 21 -2 39 -5 40 -7 1 -2 22 -28 48 -59
37 -44 47 -64 49 -100 l4 -44 -440 -2 c-382 -1 -436 0 -410 12 23 11 25 14 10
14 -11 0 -31 -6 -45 -14 -31 -18 -70 -19 -70 -3 0 9 -3 9 -12 0 -24 -24 -38
-13 -38 28 0 45 -3 43 90 57 62 9 258 2 325 -12 209 -43 217 -43 237 -14 13
20 18 21 54 11 l39 -10 -37 -1 c-21 -1 -38 -5 -38 -11 0 -11 18 -12 168 -13
50 -1 92 -5 92 -9 0 -12 38 -10 46 3 11 18 -18 30 -56 23 -54 -9 -86 -5 -143
16 -62 24 -167 38 -167 22 0 -6 6 -13 13 -15 18 -8 -14 -28 -33 -21 -8 3 -29
8 -46 11 -18 3 -34 14 -40 26 -6 15 -20 22 -44 24 -34 2 -35 2 -7 -8 15 -6 27
-15 27 -20 0 -8 -18 -7 -113 12 -26 5 -86 9 -132 9 -47 0 -85 4 -85 9 0 5 29
14 65 21 50 9 68 10 79 1 17 -14 86 -5 86 11 0 6 -14 8 -34 4 -23 -4 -37 -2
-45 8 -16 19 33 36 113 37 34 0 86 7 116 14 53 12 200 12 265 0z m-1143 -84
c9 -1 24 -8 33 -17 13 -13 21 -14 41 -5 32 14 147 3 140 -14 -2 -7 1 -18 7
-25 9 -10 8 -12 -4 -7 -11 3 -31 -10 -60 -39 l-43 -44 -82 0 -81 0 -6 73 c-5
81 -4 87 21 82 9 -2 25 -4 34 -4z m1358 -160 c0 -7 -34 -11 -92 -11 -51 0
-282 -3 -513 -6 -292 -4 -417 -3 -410 4 14 15 56 17 563 20 315 2 452 0 452
-7z m756 -133 c3 -76 1 -118 -6 -118 -5 0 -10 4 -10 9 0 6 -15 12 -32 14 -32
4 -32 4 5 5 24 1 36 6 32 13 -4 6 -13 8 -21 5 -8 -3 -14 -1 -14 4 0 6 -17 11
-37 11 -37 1 -37 2 -8 8 43 9 40 36 -5 36 -28 0 -36 -4 -38 -21 -2 -15 -12
-24 -33 -28 -37 -7 -38 -26 -1 -27 27 0 27 -1 5 -11 -26 -13 -30 -28 -8 -28 8
0 15 5 15 10 0 19 16 10 17 -10 1 -11 -4 -20 -12 -20 -20 0 -29 -20 -16 -33 8
-8 11 -6 11 6 0 9 7 17 15 17 10 0 15 -8 14 -22 -5 -51 2 -151 9 -144 4 4 7
44 7 89 l0 82 55 0 55 0 3 -136 3 -136 -578 -6 c-318 -4 -809 -7 -1091 -7
l-513 0 1 68 c1 37 4 156 7 265 l5 197 54 0 c30 0 54 -4 54 -8 0 -5 -7 -24
-16 -41 -13 -26 -14 -38 -5 -57 12 -27 18 -28 80 -13 28 6 63 27 100 58 31 27
66 54 78 60 15 8 173 11 530 11 462 0 505 -1 485 -16 -43 -30 -28 -44 46 -44
77 0 86 5 96 42 l6 28 218 3 c119 1 266 3 325 2 l109 0 4 -117z"/>
</g>
</svg>
