<?xml version="1.0" standalone="no"?>
<!DOCTYPE svg PUBLIC "-//W3C//DTD SVG 20010904//EN"
 "http://www.w3.org/TR/2001/REC-SVG-20010904/DTD/svg10.dtd">
<svg version="1.0" xmlns="http://www.w3.org/2000/svg"
 width="233.000000pt" height="400.000000pt" viewBox="0 0 233.000000 400.000000"
 preserveAspectRatio="xMidYMid meet">
<metadata>
Created by potrace 1.15, written by Peter Selinger 2001-2017
</metadata>
<g transform="translate(0.000000,400.000000) scale(0.100000,-0.100000)"
fill="#000000" stroke="none">
<path d="M218 3962 l-188 -2 0 -338 c0 -185 -1 -1067 -3 -1960 l-3 -1622 1111
0 1110 0 -3 1947 c-2 1303 -7 1953 -13 1966 -10 18 -33 19 -917 15 -499 -1
-991 -4 -1094 -6z m1993 -59 c0 -21 2 -207 5 -413 l4 -375 -24 30 c-20 25 -31
30 -76 31 -36 1 -55 7 -64 20 -10 13 -22 16 -48 11 l-36 -5 -22 76 c-12 42
-24 85 -27 95 -2 10 2 20 11 23 19 7 20 26 5 69 -11 29 -8 39 31 116 23 46 56
108 72 137 60 109 21 145 -167 150 -93 3 -129 8 -161 23 -69 32 -143 17 -128
-27 4 -14 3 -15 -4 -5 -16 22 -21 0 -32 -129 -10 -126 -18 -148 -69 -194 -26
-23 -30 -91 -6 -100 57 -21 121 87 132 223 4 52 10 81 17 78 6 -1 40 -60 75
-129 60 -118 63 -127 48 -143 -22 -22 -22 -27 8 -55 31 -29 31 -30 1 -132 -27
-93 -36 -118 -42 -118 -14 0 -30 27 -26 42 2 10 1 26 -3 35 -5 10 -7 21 -7 26
1 4 -4 7 -11 7 -8 0 -7 3 3 10 24 15 -17 42 -57 36 -25 -4 -33 -1 -33 10 0 11
-6 13 -20 9 -15 -5 -20 -2 -20 10 0 11 -5 15 -16 11 -23 -9 -57 28 -49 53 7
23 -1 26 -25 11 -12 -8 -13 -12 -2 -19 11 -6 10 -10 -4 -15 -9 -4 -22 -2 -27
3 -5 5 -17 7 -26 4 -10 -3 -9 0 3 8 15 9 21 9 24 1 2 -7 8 -12 14 -12 6 0 6 6
-2 15 -7 8 -20 15 -29 15 -14 0 -14 2 -1 11 12 9 12 10 -5 7 -17 -4 -20 1 -21
33 -1 21 -9 46 -18 54 -9 9 -16 27 -16 41 0 27 -9 30 -30 12 -8 -7 -6 -3 4 10
25 29 13 41 -16 16 -23 -19 -23 -19 -5 2 26 32 23 57 -8 52 -17 -4 -25 -1 -25
8 0 17 -16 18 -24 2 -3 -7 -3 -3 -1 8 5 20 2 22 -55 22 -49 0 -64 -5 -86 -24
-14 -14 -30 -22 -35 -19 -5 3 -6 -1 -3 -10 4 -11 2 -14 -9 -9 -12 4 -14 1 -10
-15 3 -12 11 -21 19 -21 19 0 28 -20 15 -33 -8 -8 -11 -6 -11 7 0 15 -6 17
-27 12 -16 -3 -22 -3 -15 0 12 6 7 24 -7 24 -18 0 -4 -38 23 -62 25 -21 27
-27 17 -44 -11 -18 -12 -18 -6 3 5 17 -3 27 -40 52 -25 17 -45 26 -45 21 0 -5
5 -12 10 -15 7 -4 6 -13 -1 -27 -9 -18 -8 -24 7 -35 15 -11 16 -13 2 -13 -9 0
-20 5 -23 10 -3 6 -12 10 -18 10 -7 0 -1 -9 13 -20 14 -11 19 -20 12 -20 -8 0
-10 -5 -5 -12 4 -7 -5 -5 -20 5 -15 9 -27 13 -27 8 0 -6 8 -15 18 -21 16 -11
16 -11 -2 -6 -10 4 -28 4 -39 0 -18 -6 -16 -8 12 -21 17 -9 31 -20 31 -25 0
-6 -11 -3 -25 6 -37 25 -44 18 -10 -10 20 -17 23 -22 8 -15 -16 8 -30 7 -55
-4 -18 -8 -29 -14 -25 -15 4 0 2 -6 -5 -14 -7 -8 -17 -11 -23 -8 -5 3 -1 -5
10 -18 19 -22 19 -23 1 -16 -17 6 -17 5 -5 -11 15 -18 16 -18 -38 4 -12 5 -14
3 -8 -7 6 -10 3 -12 -13 -8 -23 6 -31 -7 -9 -15 6 -3 1 -6 -13 -7 l-25 -1 25
-14 25 -14 -28 -1 c-16 0 -26 -4 -22 -10 3 -5 -2 -11 -12 -11 -17 -1 -17 -2 0
-6 23 -6 12 -23 -16 -24 -17 -1 -15 -3 8 -9 29 -7 29 -8 8 -15 -13 -4 -23 -12
-23 -17 0 -5 10 -6 23 -2 22 7 22 6 3 -15 -11 -11 -14 -21 -8 -21 6 0 14 5 17
10 10 16 28 12 21 -5 -17 -42 -16 -47 4 -17 24 35 39 38 21 4 -21 -39 -10 -47
13 -9 30 48 41 59 25 24 -7 -15 -9 -30 -4 -35 4 -4 10 -1 12 6 3 6 11 12 18
12 8 0 18 6 22 13 9 13 43 19 43 7 0 -4 18 -10 39 -14 33 -5 43 -13 63 -48 14
-24 35 -70 47 -103 12 -33 31 -80 42 -104 19 -41 19 -44 2 -56 -15 -11 -15
-17 -5 -40 10 -21 10 -26 0 -21 -7 3 -21 9 -30 12 -10 4 -18 14 -18 23 0 72
-149 128 -242 90 -54 -21 -116 -68 -142 -105 l-24 -36 -22 59 c-25 65 -39 263
-18 263 6 0 8 -11 4 -30 -6 -34 8 -40 24 -10 8 15 6 24 -10 40 l-20 20 54 139
c73 185 73 185 43 214 -19 20 -22 28 -13 43 21 36 33 83 25 95 -4 7 -4 20 1
30 6 11 3 34 -10 70 -11 30 -20 62 -20 71 0 10 -5 18 -11 18 -6 0 -25 11 -42
24 -38 27 -115 40 -154 25 -16 -6 -40 -12 -55 -13 -29 -2 -68 -32 -68 -51 0
-7 -9 -19 -21 -26 -17 -12 -40 -70 -40 -104 -1 -62 9 -129 20 -133 18 -6 65
-51 59 -57 -3 -3 -22 -6 -42 -7 -66 -2 -65 -22 10 -166 37 -70 75 -138 84
-152 14 -20 16 -30 8 -44 -8 -14 -8 -24 1 -37 6 -11 11 -33 11 -50 l0 -31 -26
17 c-14 9 -35 15 -45 12 -11 -3 -19 0 -18 6 3 28 -2 37 -22 37 -11 0 -35 16
-53 35 -37 38 -77 46 -112 21 -17 -13 -14 -13 23 -3 39 10 45 9 68 -13 13 -13
27 -31 30 -41 4 -11 14 -18 27 -16 11 1 23 -4 25 -11 3 -7 -1 -12 -8 -11 -26
4 -48 -13 -59 -45 -6 -20 -21 -37 -38 -44 -27 -12 -27 -12 7 -7 18 3 45 5 60
6 26 0 26 0 4 11 -24 12 -29 23 -14 32 5 3 11 -1 15 -9 3 -8 15 -15 27 -15 12
0 19 -5 16 -12 -2 -7 2 -17 10 -23 9 -7 -11 -10 -66 -10 -73 0 -82 -2 -118
-31 -21 -17 -47 -45 -58 -62 -20 -31 -35 -41 -35 -23 0 5 6 16 14 23 7 8 16
24 20 36 6 17 4 21 -8 16 -13 -5 -16 2 -16 40 0 33 4 46 14 46 11 0 12 8 4 40
-9 34 -7 45 11 77 15 27 16 32 4 17 -10 -12 -22 -29 -28 -39 -10 -17 -10 935
0 963 3 9 229 12 1080 12 l1075 0 1 -37z m-323 -173 c77 0 132 -4 132 -10 0
-8 -13 -12 -90 -23 -14 -3 -2 -5 25 -6 38 -2 45 -4 30 -11 -11 -5 -14 -9 -7
-9 20 -1 14 -16 -10 -27 -13 -6 -17 -9 -10 -7 15 3 16 -13 0 -23 -7 -4 -42
-11 -78 -15 l-65 -7 68 2 c37 1 67 -2 67 -6 0 -4 -4 -8 -10 -8 -5 0 -10 -7
-10 -15 0 -11 -13 -15 -47 -17 l-48 -1 43 -4 c59 -6 52 -23 -10 -25 -49 -1
-50 -2 -12 -5 36 -3 41 -7 37 -24 -3 -10 -12 -19 -19 -19 -17 0 -18 17 -1 23
6 3 2 6 -11 6 -13 1 -20 -3 -17 -9 4 -6 -5 -10 -20 -10 -15 0 -24 4 -20 10 3
6 0 10 -8 10 -22 0 -29 28 -9 33 12 3 11 5 -5 6 -27 1 -31 18 -5 24 11 3 7 5
-10 6 -21 1 -30 10 -48 49 -12 26 -26 55 -31 64 -16 31 -10 36 33 27 24 -6 45
-6 50 -1 5 5 -4 9 -22 10 -38 1 -70 11 -70 22 0 4 17 4 38 -1 20 -5 97 -9 170
-9z m-1503 -139 c6 -11 106 -8 124 3 6 4 19 2 28 -3 16 -9 16 -10 -3 -11 -30
0 -64 -30 -69 -62 -6 -31 10 -47 18 -18 3 14 14 20 31 20 14 0 26 5 26 11 0 6
-8 8 -19 4 -24 -7 -36 9 -17 24 20 17 44 3 50 -27 13 -69 -9 -122 -66 -165
l-26 -20 -46 39 c-35 29 -50 51 -65 95 -23 70 -16 88 28 69 48 -19 50 -3 3 18
-23 10 -39 22 -35 25 9 10 31 8 38 -2z m827 -8 c9 -10 21 -35 26 -56 15 -52
54 -116 96 -155 20 -19 36 -38 36 -43 0 -5 8 -9 17 -9 15 0 15 1 0 18 -70 74
-97 108 -107 135 -6 18 -16 40 -21 49 -12 24 -11 45 3 54 8 5 9 2 5 -9 -3 -10
-2 -17 3 -17 5 0 6 -7 3 -17 -5 -12 -3 -14 7 -8 8 5 11 4 6 -3 -11 -18 19 -77
62 -121 22 -23 44 -41 50 -41 5 0 13 -7 16 -16 4 -9 13 -14 21 -10 9 3 15 -1
15 -11 0 -13 2 -14 17 -2 15 12 16 12 10 -3 -4 -12 -2 -18 8 -18 8 0 15 -4 15
-10 0 -5 -5 -10 -12 -10 -6 0 -3 -6 7 -14 18 -13 15 -16 -34 -41 -106 -53
-256 -89 -283 -68 -7 6 -28 14 -46 18 -18 3 -30 10 -27 15 3 5 -21 18 -52 30
-32 12 -67 27 -78 34 -26 16 -67 27 -59 15 3 -5 12 -9 20 -9 8 0 28 -14 46
-30 19 -19 57 -38 100 -50 37 -12 68 -24 68 -27 0 -16 -124 7 -158 29 -20 13
-53 32 -73 41 -66 30 -67 41 -6 86 55 40 139 145 179 224 12 23 27 47 33 54
15 18 70 15 87 -4z m-558 -199 c8 -21 1 -31 -42 -55 l-37 -20 31 5 c41 7 39
-8 -22 -141 -8 -17 -14 -36 -14 -42 0 -6 -5 -11 -11 -11 -6 0 -9 -6 -6 -14 3
-8 -1 -17 -9 -20 -9 -3 -12 -10 -9 -16 3 -5 1 -10 -5 -10 -6 0 -9 -4 -6 -9 3
-5 -6 -12 -20 -15 -16 -4 -25 -13 -23 -24 5 -50 -3 -60 -30 -43 -12 8 -12 13
2 35 20 30 22 46 4 46 -11 0 -57 121 -58 155 -1 6 -5 16 -11 23 -8 9 -6 12 6
12 11 0 16 -9 16 -30 0 -16 5 -30 10 -30 7 0 10 21 8 55 -2 30 -6 55 -10 55
-8 0 -12 -16 -9 -32 0 -5 -6 -8 -14 -8 -8 0 -15 7 -15 15 0 8 -4 15 -10 15 -5
0 -10 -4 -10 -10 0 -5 -4 -10 -10 -10 -5 0 -10 8 -10 18 0 11 -12 22 -32 30
-42 15 -31 26 12 11 38 -14 228 -5 244 11 5 5 17 10 26 10 8 0 26 7 38 16 18
13 21 19 11 30 -7 8 -7 14 -1 14 5 0 13 -7 16 -16z m1187 -131 c2 -179 0 -191
-24 -161 -14 18 -77 32 -77 18 0 -6 6 -10 13 -10 9 0 8 -3 -2 -9 -9 -6 3 -11
35 -16 27 -5 52 -8 55 -7 4 1 10 -18 13 -41 11 -71 14 -73 94 -54 38 9 79 17
91 17 29 0 26 23 -9 90 -31 57 -37 80 -20 80 6 0 10 5 10 11 0 6 -7 9 -15 5
-8 -3 -15 -1 -15 3 0 5 7 12 16 15 18 7 44 -10 44 -29 0 -8 14 -11 48 -7 41 3
53 0 78 -21 16 -14 25 -29 21 -33 -4 -5 -11 -3 -15 3 -11 18 -79 44 -96 37 -9
-3 -14 -10 -11 -14 3 -4 -5 -11 -18 -15 -19 -6 -16 -8 18 -14 50 -9 80 -28 95
-59 14 -32 23 -22 10 12 -5 15 -26 36 -45 47 -43 26 -45 31 -5 17 32 -11 70
-51 70 -74 0 -8 5 -14 10 -14 6 0 10 -4 10 -10 0 -5 -9 -10 -20 -10 -25 0 -72
-23 -89 -44 -7 -9 -18 -13 -23 -10 -26 16 -81 5 -118 -25 -30 -24 -39 -27 -44
-16 -6 17 -46 21 -46 5 0 -5 6 -10 14 -10 23 0 25 -25 5 -51 -10 -13 -22 -41
-25 -61 -4 -20 -13 -39 -20 -42 -8 -3 -14 -13 -14 -23 0 -15 -9 -18 -65 -18
-77 0 -110 -20 -140 -83 -22 -47 -43 -54 -95 -34 -47 19 -115 10 -146 -19 -13
-12 -24 -28 -24 -35 0 -7 -10 -18 -21 -25 -26 -14 -33 -4 -49 63 -10 39 -9 52
6 83 9 20 22 38 28 40 6 2 23 6 39 9 16 4 27 13 28 24 0 10 3 12 6 5 9 -23 24
-14 17 11 -11 46 69 73 125 42 14 -8 31 -12 38 -9 20 8 15 18 -9 20 -13 1 -47
5 -75 9 -50 6 -54 5 -83 -26 -21 -23 -30 -27 -30 -16 0 29 48 69 76 63 36 -6
50 17 25 42 -30 30 -36 81 -16 142 29 87 96 139 179 139 28 0 65 -27 51 -37
-6 -5 -21 -25 -35 -45 -14 -21 -29 -38 -33 -38 -17 0 6 -21 36 -34 45 -18 177
-49 183 -43 3 3 -11 10 -33 16 -171 46 -168 45 -137 75 30 31 124 268 124 315
0 12 6 21 15 21 13 0 15 -22 16 -137z m65 125 c4 -6 -1 -17 -11 -25 -17 -12
-17 -13 -2 -13 22 0 22 -17 0 -23 -14 -4 -12 -5 5 -6 27 -1 30 -21 2 -21 -11
0 -20 -5 -20 -10 0 -6 10 -8 24 -4 17 4 25 1 29 -13 3 -10 12 -39 20 -64 l15
-46 -23 5 c-13 2 -31 -1 -42 -8 -15 -10 -14 -11 12 -6 l30 5 -30 -15 -30 -15
47 6 c28 4 49 2 53 -5 4 -6 -5 -10 -22 -10 -21 0 -24 -3 -13 -10 12 -7 10 -11
-10 -20 -21 -8 -17 -9 20 -4 51 7 47 -5 -8 -23 -35 -11 -33 -11 22 -6 69 7 72
-11 3 -22 -43 -7 -84 -24 -59 -25 20 0 3 -20 -17 -20 -11 0 -21 10 -25 23 -10
35 -20 331 -12 360 7 28 29 36 42 15z m-766 -270 l9 -23 0 23 c1 32 21 17 22
-16 1 -24 3 -23 9 8 l7 35 2 -33 c1 -38 21 -34 21 4 0 20 5 24 30 24 23 0 30
-5 30 -19 0 -41 10 -50 48 -44 20 3 45 10 54 15 13 6 16 5 12 -6 -3 -8 -26
-18 -52 -24 -41 -8 -43 -10 -14 -11 17 0 32 -5 32 -11 0 -5 -15 -14 -32 -19
l-33 -9 30 -1 c17 -1 26 -5 20 -9 -5 -4 -10 -13 -10 -21 0 -8 -18 -20 -40 -27
-37 -12 -37 -13 -6 -7 29 4 33 3 28 -12 -4 -9 -7 -21 -7 -26 0 -5 -12 -10 -27
-10 -25 -2 -25 -2 -5 -6 19 -4 21 -7 11 -19 -6 -8 -8 -14 -4 -14 4 0 2 -6 -4
-14 -9 -11 -10 -25 -2 -51 8 -31 7 -37 -7 -41 -9 -3 -35 -13 -57 -23 -38 -18
-40 -21 -37 -57 2 -22 6 -105 9 -186 3 -90 9 -148 16 -148 6 0 8 63 3 190 -6
163 -5 190 8 190 8 0 21 3 29 6 11 4 19 -12 32 -73 9 -43 18 -82 19 -87 0 -5
-10 -13 -24 -17 -24 -8 -24 -8 4 -6 23 2 30 -3 32 -20 3 -17 -2 -22 -23 -25
-15 -2 -28 -9 -31 -15 -2 -9 5 -11 27 -7 34 7 38 -1 16 -32 -8 -12 -11 -24 -8
-28 6 -6 -15 -10 -44 -9 -7 1 -13 -10 -13 -23 0 -13 5 -24 10 -24 6 0 10 -4
10 -10 0 -5 -7 -10 -15 -10 -8 0 -12 -6 -9 -13 6 -16 -78 -14 -150 2 -26 7
-58 9 -70 5 -17 -6 -15 0 14 33 20 22 42 38 50 35 13 -3 13 -2 1 6 -11 8 -12
14 -3 25 14 17 62 215 62 257 0 21 5 30 18 31 16 1 16 2 0 6 -13 3 -18 15 -18
39 0 19 5 34 11 34 6 0 8 -8 4 -19 -3 -11 1 -24 12 -32 15 -12 16 -12 10 5 -4
10 -2 25 4 32 9 11 9 14 0 14 -7 0 -9 5 -6 10 4 6 -6 10 -23 10 -37 0 -50 19
-93 131 -17 46 -36 90 -42 97 -6 8 -6 12 2 12 6 0 14 -6 17 -13 6 -16 150 -23
167 -8 7 5 26 11 42 14 17 2 -2 4 -41 4 -39 0 -76 3 -83 7 -16 11 -13 29 4 22
11 -4 15 2 15 24 0 36 7 38 20 8z m300 -18 c5 8 10 11 10 6 0 -6 5 -5 12 2 29
29 34 9 10 -39 -32 -65 -33 -139 -2 -182 20 -26 20 -29 3 -25 -25 6 -70 -18
-84 -45 -7 -12 -12 -37 -10 -54 1 -30 -1 -33 -28 -33 -20 0 -36 -8 -49 -25
-19 -24 -20 -24 -25 -4 -3 12 1 32 10 46 12 17 13 29 6 46 -10 22 -9 27 34
127 33 79 46 107 64 142 10 20 19 45 20 55 0 13 3 12 10 -7 8 -20 12 -22 19
-10z m778 -167 c-1 -28 -9 -59 -20 -75 -19 -28 -12 -38 10 -16 9 9 12 -8 12
-80 l0 -91 -36 24 c-62 42 -170 24 -211 -34 -8 -12 -20 -18 -30 -14 -11 4 -14
2 -11 -8 3 -8 11 -13 17 -11 14 3 14 -11 -1 -26 -9 -9 -15 -5 -25 20 -8 17
-10 34 -6 37 10 7 11 71 1 71 -11 0 -20 -39 -12 -52 5 -8 2 -9 -9 -5 -20 7
-22 -4 -5 -21 23 -23 -3 -12 -30 13 -15 14 -38 28 -50 32 -52 13 -143 -36
-142 -76 1 -13 4 -12 18 4 29 35 65 55 98 55 42 0 91 -44 96 -87 3 -18 3 -33
1 -33 -2 0 -12 20 -23 44 -20 49 -44 61 -94 52 -36 -7 -94 -60 -77 -70 7 -5 7
-14 -1 -31 -17 -38 3 -75 41 -75 16 0 33 5 36 10 8 13 -4 50 -16 50 -6 0 -8
-9 -4 -19 8 -26 -13 -37 -32 -18 -21 21 -10 61 22 75 45 21 68 14 97 -28 21
-30 35 -40 55 -40 23 0 25 13 2 16 -5 1 -13 2 -18 3 -4 0 -20 19 -35 41 -28
42 -57 51 -98 29 -30 -16 -36 0 -8 21 14 11 40 20 58 20 30 0 35 -5 53 -44 17
-39 24 -45 60 -51 36 -6 45 -4 67 19 15 14 21 26 14 26 -6 0 -12 -4 -12 -8 0
-12 -46 -32 -54 -25 -11 12 -6 25 8 20 16 -6 56 32 56 54 0 21 36 58 67 70 40
15 38 4 -3 -20 -42 -25 -41 -39 2 -16 16 8 37 15 47 15 27 0 74 -27 91 -52 25
-35 19 -39 -13 -8 -16 16 -40 32 -55 36 -31 7 -76 -2 -76 -17 0 -6 7 -6 20 1
16 8 30 6 64 -9 41 -18 75 -55 62 -68 -3 -3 -8 2 -12 11 -3 9 -10 16 -15 16
-5 0 0 -15 11 -32 13 -22 20 -51 20 -84 0 -34 5 -56 15 -64 13 -11 15 -57 15
-306 l0 -294 -31 0 c-35 0 -67 -15 -92 -43 -21 -25 -32 -61 -22 -77 4 -6 -1
-18 -11 -25 -30 -23 -36 -17 -17 15 14 24 15 34 6 49 -9 15 -7 34 12 92 44
138 65 184 65 146 0 -9 5 -17 10 -17 14 0 13 56 -2 97 -10 28 -10 35 5 45 23
18 47 81 47 124 0 31 -7 44 -41 75 -39 36 -40 39 -25 61 20 28 21 70 2 106
-16 29 -50 62 -66 62 -6 0 -10 5 -10 10 0 6 7 10 15 10 8 0 15 5 15 10 0 6 -8
10 -18 10 -10 0 -23 5 -28 10 -13 13 -58 -46 -50 -65 3 -8 -1 -18 -8 -22 -16
-9 -56 -82 -56 -101 0 -30 -25 -3 -33 36 -6 29 -17 48 -37 62 l-29 20 -15 -22
c-20 -28 -20 -42 -2 -35 18 7 25 -11 19 -46 -7 -37 38 -83 67 -67 11 6 25 8
30 5 16 -10 12 -81 -5 -95 -8 -7 -15 -18 -15 -26 0 -30 -20 -21 -44 21 -30 50
-55 68 -77 55 -11 -7 -13 -30 -12 -100 2 -86 2 -90 -17 -80 -14 7 -23 6 -34
-6 -9 -9 -14 -20 -11 -25 3 -4 -1 -19 -10 -32 -20 -31 -10 -59 19 -51 29 7 58
-27 81 -91 9 -27 21 -58 26 -68 5 -10 7 -22 4 -27 -9 -15 -83 -12 -88 3 -6 16
-36 -21 -37 -45 0 -22 9 -22 45 -4 17 9 22 16 13 19 -7 3 -2 5 12 5 14 -1 34
2 45 5 17 6 23 1 34 -28 10 -28 10 -39 1 -50 -15 -18 2 -45 28 -45 11 0 13 -8
8 -37 -13 -81 -27 -115 -43 -109 -9 4 -27 -1 -40 -9 -19 -13 -27 -14 -39 -5
-24 21 -107 16 -146 -8 -20 -13 -39 -19 -41 -15 -3 4 -10 35 -16 68 -7 33 -14
70 -16 82 -3 14 3 29 17 42 19 18 20 24 9 44 -17 31 -1 95 57 232 25 61 45
118 43 128 -1 10 2 24 7 30 6 7 15 29 20 50 8 30 8 37 -4 37 -19 0 -18 25 2
45 19 18 12 76 -10 94 -8 7 -26 36 -40 66 -14 30 -30 55 -36 55 -6 0 -4 -12 5
-29 10 -20 12 -32 4 -36 -16 -11 -23 2 -24 46 -1 28 -7 46 -20 55 -27 20 -74
18 -82 -3 -4 -10 -11 -21 -17 -25 -6 -4 -7 -10 -3 -15 5 -4 11 -2 15 4 8 12
62 6 62 -8 0 -4 -14 -9 -32 -11 l-32 -3 32 -35 c17 -19 38 -44 47 -55 8 -11
15 -14 15 -7 0 6 5 12 12 12 7 0 6 -6 -4 -17 -23 -28 -29 -53 -17 -75 8 -14 8
-23 0 -31 -6 -6 -11 -28 -11 -49 l0 -38 -94 0 -94 0 -16 34 c-9 19 -15 42 -14
53 1 10 -1 34 -6 54 -6 30 -3 42 19 75 14 21 38 45 52 52 19 11 23 19 19 37
-3 13 -2 27 4 30 16 10 -7 45 -25 39 -11 -5 -15 2 -15 25 0 22 7 35 27 48 33
22 101 22 131 2 27 -19 92 -13 92 8 0 8 8 31 17 50 31 66 143 92 195 46 15
-13 16 -11 11 26 -5 36 -3 41 14 41 17 0 20 6 19 38 -1 47 34 99 80 118 50 21
111 18 131 -6 24 -28 31 -25 43 19 10 36 21 46 57 50 9 1 12 -14 11 -46z
m-1764 -175 c-3 -112 -8 -204 -9 -206 -4 -4 -109 18 -117 26 -4 4 -4 13 1 20
6 10 14 9 37 -3 32 -16 68 -20 60 -6 -3 5 -22 12 -41 15 -20 4 -35 13 -35 21
0 8 7 11 19 8 10 -3 22 0 26 6 3 6 3 11 -2 10 -26 -4 -31 2 -22 34 39 148 59
235 59 255 0 13 6 22 16 22 14 0 15 -22 8 -202z m69 152 c8 0 6 -4 -3 -10 -12
-7 -12 -10 -1 -10 7 0 11 -6 8 -13 -5 -13 0 -27 45 -127 13 -29 16 -46 9 -48
-6 -2 -11 -8 -11 -13 0 -4 6 -6 14 -3 8 3 19 -3 26 -15 8 -16 8 -21 -1 -21 -6
0 -9 -6 -6 -14 4 -11 -8 -18 -49 -27 -30 -7 -57 -16 -60 -21 -7 -11 -1 -10 71
9 44 11 61 21 58 30 -3 7 -1 13 5 13 13 0 25 -31 15 -41 -4 -4 -43 -16 -85
-27 l-77 -20 -7 46 c-4 25 -4 99 -1 166 4 67 7 139 7 161 l1 40 15 -27 c8 -16
20 -28 27 -28z m421 -87 c31 -22 41 -36 41 -56 -1 -16 5 -27 13 -27 7 0 26 -7
42 -15 17 -9 30 -11 30 -5 0 5 7 10 15 10 8 0 15 -4 15 -10 0 -5 -5 -10 -10
-10 -6 0 -6 -7 1 -19 20 -31 5 -51 -33 -45 -44 7 -99 -29 -113 -74 -7 -25 -14
-32 -35 -32 -34 0 -74 36 -65 59 4 9 9 29 11 45 5 40 40 74 81 82 18 3 33 10
33 15 0 13 -82 -19 -106 -42 -26 -25 -41 -119 -22 -148 17 -28 -6 -54 -42 -46
-15 3 -63 6 -107 7 -101 0 -173 -30 -228 -97 -33 -41 -36 -50 -34 -96 3 -46 0
-53 -24 -67 -15 -9 -30 -25 -33 -34 -18 -58 -37 20 -33 133 3 70 1 82 -24 119
-15 23 -27 45 -27 50 0 4 -7 13 -15 20 -9 7 -15 29 -15 50 0 48 -8 70 -26 70
-8 0 -14 9 -14 20 0 11 -5 20 -11 20 -6 0 -8 -7 -5 -16 3 -9 6 -22 6 -31 0 -9
6 -13 14 -10 18 7 26 -13 26 -62 0 -21 7 -52 16 -69 14 -30 22 -167 10 -179
-3 -3 -9 10 -14 28 -7 24 -9 -19 -7 -144 2 -113 7 -183 14 -190 18 -18 23 -1
12 39 -12 45 -11 250 1 232 4 -7 8 -28 8 -45 0 -18 5 -33 10 -33 7 0 8 30 4
91 -6 73 -4 93 7 100 10 6 10 9 2 9 -7 0 -13 7 -13 15 0 21 20 19 21 -2 1 -10
1 -67 0 -128 -2 -125 6 -205 21 -205 6 0 8 10 5 21 -3 12 -2 18 3 13 9 -11 31
-107 24 -113 -2 -2 -41 -6 -86 -9 l-81 -5 7 39 c16 96 19 157 8 150 -16 -10
-16 86 -1 101 6 6 9 17 7 25 -10 28 -33 -40 -40 -117 -4 -44 -9 -100 -12 -125
l-5 -45 11 45 c13 54 23 36 13 -26 -6 -43 -7 -44 -45 -44 -21 0 -42 5 -45 10
-4 6 -11 8 -16 5 -5 -4 -9 1 -9 11 0 13 3 14 14 5 39 -33 74 137 76 372 0 85
1 88 23 85 19 -3 23 -11 29 -67 11 -100 19 -95 13 9 -4 74 -9 101 -25 123 -11
15 -16 27 -10 27 5 0 10 9 10 20 0 11 -4 20 -10 20 -5 0 -10 -8 -10 -17 0 -10
-12 -38 -26 -63 -15 -26 -21 -46 -15 -48 19 -6 8 -223 -16 -334 -6 -30 -16
-42 -45 -57 l-38 -19 0 229 c0 220 1 229 19 229 28 0 53 38 41 61 -13 24 -13
29 5 29 8 0 19 9 25 20 13 25 6 26 -19 1 -10 -10 -24 -20 -31 -23 -10 -3 -10
-9 -1 -26 7 -12 9 -27 5 -33 -4 -7 -12 2 -20 21 -19 43 -18 47 11 54 15 4 25
13 25 24 -1 15 -2 16 -13 1 -7 -9 -22 -19 -35 -23 -32 -10 -28 12 4 24 21 9
24 13 14 25 -10 12 -3 23 37 63 40 40 58 50 96 56 29 4 61 3 82 -4 37 -12 81
-63 70 -80 -4 -6 -16 3 -28 21 -28 42 -64 51 -130 34 -49 -12 -118 -68 -103
-82 3 -4 15 6 27 21 37 47 111 70 164 50 18 -7 60 -84 46 -84 -5 0 -12 8 -15
18 -8 22 -60 52 -93 52 -26 0 -83 -29 -83 -42 0 -4 16 2 36 14 34 20 39 20 77
7 26 -9 47 -25 59 -45 18 -30 18 -31 -13 -72 -17 -23 -29 -48 -26 -55 7 -20
164 -57 193 -46 10 4 58 18 105 30 86 21 87 22 98 61 7 22 31 58 54 81 l41 41
-34 -20 c-19 -11 -44 -37 -55 -57 -11 -20 -22 -37 -25 -37 -3 0 -14 14 -23 30
-23 38 -16 64 32 113 85 90 191 109 275 50z m116 -192 c0 -5 -14 -14 -31 -22
-36 -14 -77 -89 -49 -89 6 0 10 6 10 14 0 24 50 76 73 76 19 0 18 -3 -9 -19
-36 -22 -49 -39 -39 -49 3 -4 11 2 17 12 8 15 12 16 20 5 7 -11 8 -9 6 5 -2
10 2 21 9 23 20 7 4 -77 -28 -144 -32 -67 -59 -85 -88 -59 -24 22 -30 20 -24
-6 4 -21 3 -22 -10 -6 -8 10 -17 15 -20 11 -4 -3 -2 -12 5 -20 15 -19 2 -29
-18 -13 -12 11 -20 11 -35 2 -11 -7 -24 -10 -28 -7 -5 3 -11 -2 -14 -10 -4 -9
-1 -12 7 -9 8 3 15 -4 18 -20 3 -14 1 -26 -3 -26 -5 0 -9 -8 -9 -17 0 -15 -2
-16 -10 -3 -6 9 -5 19 3 29 10 11 9 13 -3 9 -8 -3 -15 -17 -15 -31 -1 -15 -11
-37 -23 -50 -13 -14 -20 -31 -17 -39 4 -9 2 -19 -4 -23 -6 -3 -11 -16 -12 -28
0 -21 -1 -21 -9 -2 -7 17 -9 17 -9 3 -1 -10 -10 -22 -21 -28 -30 -16 -43 -46
-26 -62 26 -27 56 -109 46 -127 -9 -15 -9 -14 -10 2 0 9 -7 17 -15 17 -8 0
-15 -4 -15 -9 0 -15 41 -40 56 -34 8 3 14 -1 14 -10 0 -9 11 -37 25 -63 23
-42 24 -49 10 -64 -21 -23 -19 -46 6 -64 19 -13 21 -20 14 -72 -10 -83 -11
-84 -46 -67 -35 18 -77 10 -116 -20 -15 -12 -40 -22 -55 -23 -32 -2 -37 12 -8
21 11 3 20 11 20 17 0 6 7 16 15 22 22 16 22 129 1 179 -21 47 -53 85 -90 104
-35 18 -74 24 -82 12 -3 -5 -14 -9 -24 -9 -17 0 -17 2 3 50 20 47 24 50 52 48
26 -3 30 1 33 24 2 20 12 30 40 42 20 8 29 15 20 15 -31 1 -68 -22 -74 -46 -4
-14 -14 -23 -26 -23 -17 0 -19 4 -13 28 3 15 13 34 22 44 8 9 13 29 11 45 -2
23 -11 31 -45 43 -36 12 -42 18 -37 35 3 11 17 30 30 43 26 23 17 30 -17 12
-10 -6 -19 -19 -19 -30 0 -10 -4 -21 -9 -25 -6 -3 -8 7 -6 22 2 16 4 32 4 36
1 4 16 17 35 28 31 18 34 23 39 85 6 78 32 112 112 150 58 28 165 32 228 10
29 -11 37 -11 37 -1 0 30 62 49 102 31 14 -6 17 -1 20 35 3 39 7 46 43 66 44
25 55 28 55 14z m921 -220 c-7 -13 -8 -22 -1 -26 5 -3 7 -19 4 -34 -4 -18 2
-46 15 -76 27 -60 26 -78 -1 -90 -12 -6 -24 -17 -26 -25 -5 -13 -3 -13 11 -1
15 12 16 11 11 -16 -5 -23 -2 -32 12 -37 22 -8 28 1 44 70 7 30 16 54 19 54
11 0 42 -118 46 -171 3 -36 1 -48 -8 -42 -18 12 -50 3 -74 -20 -13 -11 -23
-16 -23 -11 1 18 36 51 63 58 21 5 27 12 27 33 0 34 -21 103 -31 103 -5 0 -11
-24 -15 -52 -5 -39 -15 -60 -34 -78 -14 -14 -47 -57 -72 -96 -47 -72 -89 -117
-51 -53 24 40 37 99 22 99 -5 0 -19 -20 -30 -44 -15 -35 -24 -44 -39 -41 -11
2 -20 0 -20 -6 0 -5 7 -9 15 -9 8 0 15 -3 15 -7 -1 -11 -26 -43 -34 -43 -12 0
-6 89 7 101 16 15 10 69 -8 69 -7 0 -15 7 -19 15 -3 8 -13 15 -22 15 -11 0
-14 5 -10 16 3 9 6 31 6 50 0 54 17 40 25 -21 7 -56 25 -86 25 -41 0 13 5 47
12 75 11 49 12 50 30 34 17 -15 21 -15 29 -3 8 11 12 12 16 3 2 -7 11 -13 18
-13 10 0 12 28 10 129 -3 117 -2 131 18 162 20 31 22 32 25 12 2 -12 -2 -31
-7 -42z m-756 -165 c0 -29 5 -50 14 -55 7 -5 11 -15 9 -22 -3 -8 -1 -22 4 -32
8 -15 5 -22 -11 -34 -12 -8 -21 -21 -21 -29 0 -9 35 -84 78 -168 62 -119 76
-155 68 -168 -7 -12 -6 -24 3 -42 13 -23 12 -42 -5 -129 -6 -27 -9 -28 -40
-22 -45 8 -93 -20 -101 -57 -3 -16 -7 -28 -9 -28 -5 0 -23 9 -71 34 -19 10
-33 13 -33 7 0 -6 5 -11 10 -11 18 0 10 -18 -10 -23 -12 -3 -20 -14 -20 -26 0
-26 12 -27 28 -1 8 14 22 20 45 19 l32 -1 -32 -9 c-18 -5 -33 -14 -33 -19 0
-13 13 -13 27 1 7 7 19 8 30 4 15 -6 13 -9 -14 -17 -25 -6 -33 -14 -32 -31 l0
-22 16 23 c8 12 22 22 30 22 11 0 10 -5 -4 -25 -24 -33 -43 -38 -85 -20 -43
18 -50 32 -29 64 15 23 14 23 -9 17 l-25 -7 24 20 c14 13 18 21 10 21 -11 0
-11 2 1 10 12 8 13 10 1 10 -8 0 -22 -7 -31 -15 -15 -13 -18 -7 -38 73 -25 98
-27 122 -11 122 8 0 10 12 6 36 -6 38 33 160 72 225 12 19 21 42 21 52 0 22 9
22 26 0 9 -13 9 -21 1 -31 -8 -10 -8 -19 2 -34 10 -16 10 -23 0 -35 -10 -11
-10 -19 -1 -33 6 -10 8 -21 4 -25 -10 -9 -10 -105 -1 -105 5 0 6 7 3 15 -4 8
-1 15 5 15 6 0 11 -10 11 -22 0 -17 3 -19 12 -10 9 9 10 17 1 30 -6 10 -9 38
-7 62 8 82 0 173 -15 178 -16 5 -13 22 4 22 11 0 13 8 9 33 -9 53 -12 57 -39
57 -14 0 -25 5 -25 10 0 6 -7 10 -15 10 -17 0 -20 16 -5 25 6 3 10 15 10 26 0
19 15 27 22 10 2 -5 18 -12 37 -16 23 -5 31 -4 27 4 -4 6 -18 11 -31 11 -13 0
-27 5 -30 10 -4 6 5 10 20 10 14 0 24 4 20 9 -3 6 -18 6 -37 0 -17 -5 -33 -7
-35 -5 -8 7 62 74 82 79 11 3 34 4 50 3 29 -2 30 -4 30 -50z m-393 -138 c3 -7
2 -24 -2 -38 -5 -19 -13 -25 -33 -25 -15 1 -27 -3 -27 -8 0 -5 14 -7 30 -5 17
3 30 1 30 -4 0 -5 11 -14 25 -20 14 -6 25 -16 24 -22 -1 -6 -1 -30 0 -53 1
-38 4 -43 24 -42 16 1 18 2 5 6 -22 5 -24 23 -4 23 8 0 18 9 21 20 8 24 18 25
38 5 8 -8 16 -13 18 -11 2 2 16 6 32 10 36 9 35 -7 -3 -21 -16 -6 -30 -16 -30
-22 0 -14 17 -14 25 -1 3 6 10 10 15 10 9 0 -25 -92 -46 -123 -7 -11 -10 -35
-7 -58 5 -32 3 -39 -11 -39 -11 0 -16 9 -16 30 0 17 -4 30 -10 30 -5 0 -10
-11 -10 -25 0 -18 -8 -29 -25 -37 -14 -6 -24 -17 -21 -23 2 -6 -4 -63 -15
-126 -17 -106 -17 -149 -1 -149 4 0 8 28 10 63 1 34 9 97 17 141 8 43 15 80
15 82 0 2 7 4 15 4 8 0 15 -4 15 -10 0 -5 6 -10 13 -10 11 0 51 -132 60 -197
2 -11 7 -27 13 -35 6 -7 15 -25 21 -40 10 -22 9 -29 -8 -44 -10 -9 -19 -25
-19 -35 0 -13 -5 -16 -16 -12 -8 3 -29 -4 -46 -17 -30 -22 -32 -22 -45 -4 -7
10 -10 26 -7 36 4 13 -12 36 -55 79 -54 55 -59 64 -49 82 10 20 15 34 39 132
6 22 15 43 22 48 9 6 9 10 1 13 -24 10 8 79 33 70 7 -3 13 -2 13 2 0 5 -12 13
-27 19 -26 10 -27 11 -5 12 22 1 22 2 8 23 -9 12 -16 30 -16 40 0 10 -7 18
-15 18 -16 0 -16 -1 -19 53 -2 20 1 37 5 37 4 0 9 -19 11 -42 3 -42 3 -42 16
-19 9 15 12 38 7 67 -6 44 -25 62 -25 24 0 -11 -4 -20 -10 -20 -5 0 -10 9 -10
20 0 11 -4 20 -9 20 -6 0 -9 -41 -7 -95 2 -52 -1 -95 -6 -95 -4 0 -8 11 -8 24
0 13 -4 26 -9 28 -10 4 5 114 20 141 7 14 5 17 -11 17 -19 0 -27 -24 -20 -70
3 -27 -17 3 -35 53 -10 26 -22 47 -26 47 -14 0 -10 37 5 49 19 16 29 -2 21
-38 -3 -17 -2 -32 4 -36 6 -3 11 1 11 10 0 30 45 95 65 95 7 0 15 -6 17 -12z
m-746 -145 c27 -60 30 -73 12 -55 -14 14 -38 16 -38 3 0 -5 13 -12 28 -16 34
-7 70 -61 53 -78 -9 -9 -13 -6 -17 10 -7 26 -50 57 -59 43 -3 -6 1 -10 10 -10
8 0 20 -11 25 -25 5 -14 15 -26 22 -26 7 -1 19 -2 27 -3 7 0 23 -17 34 -38 19
-32 20 -39 8 -62 -13 -23 -12 -28 2 -44 13 -14 16 -29 11 -66 -7 -47 -18 -65
-29 -46 -8 13 -82 13 -90 0 -3 -5 -12 -10 -20 -10 -11 0 -14 25 -17 115 -2 84
0 115 9 115 6 0 15 -4 18 -10 3 -5 11 -10 17 -10 7 0 6 6 -2 15 -7 8 -19 15
-26 15 -8 0 -14 11 -15 28 0 15 -2 71 -4 124 -3 110 4 115 41 31z m354 45 c0
-22 -33 -98 -42 -98 -5 0 -6 -4 -3 -10 10 -16 -24 -70 -45 -70 -13 0 -22 -9
-26 -27 -4 -16 -12 -35 -20 -43 -14 -17 -29 -69 -26 -87 2 -7 -2 -13 -8 -13
-5 0 -10 16 -10 35 0 30 -3 35 -24 35 -29 0 -43 36 -17 43 11 3 9 5 -6 6 -27
1 -31 20 -5 22 16 1 16 2 0 6 -22 6 -34 43 -18 53 9 6 9 9 -1 13 -9 3 -7 6 6
7 18 1 18 2 4 13 -23 18 -32 47 -14 47 9 0 12 -6 9 -15 -4 -10 0 -15 11 -15
10 0 15 5 12 14 -3 7 0 19 6 25 8 8 6 11 -9 12 -22 1 28 16 101 30 28 5 64 13
80 18 41 13 45 13 45 -1z m1125 -8 c-3 -5 -13 -10 -21 -10 -16 0 -19 -16 -5
-25 5 -3 15 1 23 8 14 14 52 37 62 37 3 0 -11 -35 -30 -77 -20 -43 -43 -98
-51 -123 -17 -49 -33 -73 -33 -50 -1 11 -3 10 -11 -3 -7 -12 -17 -16 -29 -12
-26 8 -60 -12 -60 -35 0 -14 -5 -18 -16 -13 -11 4 -14 12 -9 27 4 11 7 27 7
34 2 14 18 16 18 2 0 -7 7 -7 21 0 11 7 27 9 35 6 17 -7 18 1 1 18 -10 11 -15
11 -24 0 -7 -7 -22 -10 -35 -6 l-23 7 23 3 c12 2 22 8 22 13 0 7 -12 8 -30 4
-33 -7 -38 -1 -15 21 8 9 15 18 15 22 0 8 -49 32 -65 32 -7 0 -17 11 -23 25
-15 32 -15 35 0 35 6 0 8 -3 5 -7 -8 -7 11 -33 25 -33 6 0 8 6 5 14 -3 8 -1
30 4 50 l10 35 97 4 c53 1 101 4 105 5 5 1 5 -2 2 -8z m443 -74 c23 -1 32 -25
10 -27 -9 0 -9 -2 -2 -5 9 -4 9 -14 -1 -42 -35 -104 -35 -103 -14 -97 13 4 19
2 19 -8 0 -9 5 -17 12 -19 19 -7 1 -38 -22 -38 -23 0 -26 10 -7 29 10 10 8 12
-8 9 -11 -2 -21 -12 -24 -23 -2 -11 -8 -23 -14 -27 -14 -8 -25 -158 -16 -208
1 -8 1 -50 1 -94 l-2 -78 -37 5 -38 6 38 -16 c70 -29 39 -45 -33 -17 -23 9
-44 14 -47 10 -4 -3 1 -6 10 -6 9 0 17 -4 17 -10 0 -5 -7 -10 -15 -10 -8 0
-15 -4 -15 -10 0 -23 -18 -7 -24 21 -7 34 8 70 27 65 6 -1 9 -1 5 1 -5 3 -8
12 -8 20 0 10 6 14 20 10 25 -6 26 2 3 19 -16 11 -13 12 20 7 42 -6 49 3 12
17 -24 9 -35 30 -15 30 6 0 9 3 8 8 -3 16 15 62 26 62 8 0 8 2 -1 8 -16 10 -4
65 13 58 8 -3 14 -1 14 4 0 6 -4 10 -10 10 -5 0 -10 5 -10 10 0 6 8 10 18 10
14 0 15 2 2 10 -10 7 -12 12 -4 18 6 4 10 21 9 37 -1 17 2 35 7 41 6 8 0 12
-17 12 -32 0 -44 10 -25 22 13 8 12 10 -2 10 -10 0 -18 5 -18 10 0 6 10 10 22
10 29 0 17 11 -16 13 -15 1 -26 7 -26 12 1 6 9 9 20 7 23 -4 37 17 19 29 -10
6 -6 9 14 9 15 0 27 5 27 11 0 5 -4 7 -10 4 -5 -3 -10 -1 -10 5 0 6 6 13 14
16 8 3 17 17 21 31 4 19 10 23 23 17 9 -4 27 -8 40 -8z m212 -171 c0 -33 -4
-45 -15 -45 -9 0 -15 -9 -15 -24 0 -14 7 -31 15 -40 11 -11 15 -38 15 -105 l0
-89 -30 15 c-28 14 -34 13 -72 -6 -23 -11 -43 -19 -44 -18 -1 1 -5 22 -9 47
l-7 45 21 -19 c23 -21 28 -11 8 15 -7 9 -17 14 -23 12 -7 -2 -13 11 -16 33 -5
39 24 90 44 78 7 -4 8 7 3 35 -6 38 -4 44 28 76 25 25 44 35 66 35 30 0 31 -1
31 -45z m-780 -105 c0 -5 -6 -10 -12 -11 -8 0 -9 -2 -2 -5 11 -5 3 -73 -33
-282 l-16 -94 -36 7 c-55 9 -71 15 -71 26 0 6 14 7 35 3 41 -7 46 2 9 16 -29
11 -24 31 6 23 11 -3 20 0 20 6 0 6 -4 11 -10 11 -5 0 -10 6 -10 14 0 8 8 13
18 11 9 -1 11 0 4 2 -8 3 -11 11 -6 21 3 10 9 27 12 40 3 18 10 22 26 18 19
-5 20 -4 4 8 -24 18 -23 30 2 23 20 -5 29 8 10 15 -6 2 -7 24 -3 56 4 38 10
52 22 53 9 0 11 3 5 5 -16 7 -5 44 12 44 8 0 14 -4 14 -10z m80 0 c0 -5 -9
-10 -19 -10 -11 0 -22 -4 -26 -9 -3 -6 7 -9 21 -8 26 2 28 -2 44 -73 27 -118
44 -174 55 -182 5 -4 -3 -12 -20 -18 -16 -6 -41 -26 -55 -45 -15 -20 -39 -38
-60 -44 l-35 -11 33 5 c17 2 32 0 32 -5 0 -6 -11 -10 -24 -10 -13 0 -31 -3
-40 -6 -28 -11 -29 23 -7 144 11 64 25 150 30 191 6 41 16 78 23 82 18 12 48
11 48 -1z m500 -30 c0 -5 -10 -10 -22 -11 -22 -1 -22 -1 1 -8 24 -6 30 -19 44
-88 6 -32 6 -33 -31 -35 l-37 -1 38 -4 c44 -5 50 -23 7 -23 -16 0 -30 -4 -30
-10 0 -5 13 -7 30 -4 28 6 31 3 50 -41 11 -26 19 -49 18 -50 -2 -2 -19 -10
-38 -19 -33 -15 -21 -15 33 0 35 10 16 -13 -21 -24 -20 -6 -46 -18 -57 -27
-18 -13 -16 -13 17 0 47 19 49 19 41 -1 -3 -9 -15 -20 -27 -24 -20 -8 -20 -9
-1 -10 17 0 17 -2 5 -10 -20 -13 -43 -13 -35 0 3 6 1 10 -5 10 -7 0 -10 -7 -7
-15 8 -19 -13 -31 -24 -14 -9 14 -11 397 -2 412 6 11 53 9 53 -3z m-675 -100
c10 -15 -23 -107 -61 -173 -19 -32 -34 -64 -34 -71 0 -13 54 -34 100 -39 14
-1 31 -6 38 -11 7 -4 33 -5 58 -1 28 4 44 2 44 -4 0 -6 -8 -11 -18 -11 -11 0
-27 -9 -37 -20 -15 -17 -16 -24 -5 -49 7 -17 21 -33 31 -36 23 -7 59 2 59 16
0 5 5 9 12 9 7 0 5 -7 -4 -17 -9 -10 -18 -27 -20 -38 -3 -18 -11 -20 -70 -20
-36 0 -64 -3 -61 -7 10 -18 -15 -6 -37 17 -12 13 -26 23 -30 22 -3 -1 -19 12
-34 28 -22 25 -26 26 -21 9 8 -29 -23 -56 -36 -31 -5 9 -16 14 -24 11 -10 -4
-13 2 -11 22 2 20 11 31 30 37 24 8 37 37 16 37 -5 0 -18 10 -30 22 -19 21
-20 21 -20 2 -1 -18 -1 -18 -11 -1 -5 9 -8 21 -4 26 3 5 -1 11 -7 14 -10 3
-10 9 0 27 15 25 11 38 -6 18 -14 -18 -17 -38 -7 -71 8 -29 39 -52 55 -42 6 3
10 1 10 -4 0 -16 -32 -13 -57 4 -45 32 -35 140 12 140 12 0 26 12 35 30 13 25
20 30 50 28 l34 -1 -24 18 c-14 10 -21 22 -17 27 5 4 12 1 17 -7 9 -15 9 -16
25 36 3 8 0 12 -5 9 -14 -9 -12 9 2 23 9 9 9 12 -1 12 -7 0 -9 5 -6 10 8 13
62 13 70 0z m413 -26 c21 -15 25 -15 41 0 19 17 41 21 41 7 0 -5 -9 -11 -20
-14 -11 -3 -20 -11 -20 -18 0 -10 3 -10 12 -1 15 15 38 16 38 2 0 -5 -6 -10
-14 -10 -8 0 -18 -5 -22 -12 -5 -8 -2 -9 9 -5 23 9 22 5 -14 -70 -41 -86 -66
-97 -120 -48 -22 19 -46 35 -54 35 -9 0 -20 12 -25 26 -13 32 -13 54 0 34 5
-8 10 -12 12 -10 2 3 12 16 23 29 l20 24 -22 -12 c-13 -7 -23 -8 -23 -2 0 5
17 15 38 22 20 7 32 14 25 16 -6 2 -28 -3 -48 -11 -34 -15 -36 -15 -24 0 29
35 109 45 147 18z m-74 -182 c10 -9 24 -29 32 -44 15 -30 38 -39 27 -12 -4 12
-1 15 13 12 13 -2 22 -17 30 -48 10 -40 12 -43 19 -21 6 19 9 21 17 10 7 -11
11 -11 15 -1 7 17 33 42 44 42 15 0 10 -17 -6 -24 -8 -3 -15 -11 -15 -18 0 -9
3 -9 12 0 17 17 33 15 18 -3 -7 -8 -8 -15 -2 -15 5 0 15 7 22 15 9 10 9 15 1
15 -6 0 -11 5 -11 10 0 6 4 10 9 10 18 0 41 -31 41 -55 0 -37 17 -39 48 -4 24
27 31 30 49 21 19 -10 21 -8 27 27 6 37 45 100 46 74 0 -7 -4 -13 -9 -13 -13
0 -23 -62 -11 -74 7 -7 10 -1 10 17 0 30 39 77 64 77 8 0 18 4 21 10 4 6 -7 8
-27 4 l-33 -5 25 15 c14 8 33 15 43 16 15 0 17 -12 17 -124 l0 -124 -42 -20
c-24 -12 -35 -21 -25 -22 10 0 29 7 42 16 24 16 25 16 25 -10 0 -36 -52 -69
-98 -62 -19 3 -30 1 -27 -5 8 -12 62 -11 87 2 11 6 22 8 25 6 3 -3 -9 -13 -26
-21 -36 -19 -92 -21 -110 -3 -11 10 -13 9 -9 -3 6 -19 69 -25 111 -11 l32 11
-25 -20 c-15 -12 -41 -20 -65 -20 -29 0 -36 -3 -25 -10 18 -11 54 -3 97 23 27
16 32 16 27 3 -3 -8 -26 -25 -50 -36 -48 -24 -94 -21 -127 8 -23 20 -36 6 -14
-16 25 -24 137 -24 164 1 21 18 33 22 33 9 0 -21 -61 -42 -125 -42 -63 0 -69
2 -101 34 -19 19 -34 41 -34 51 0 9 -4 14 -9 11 -15 -10 -1 -42 34 -76 45 -44
130 -53 193 -21 49 25 57 10 10 -19 -36 -22 -93 -26 -151 -9 -40 11 -107 70
-107 95 0 8 -11 26 -25 40 -23 23 -32 44 -19 44 3 0 13 -7 22 -16 15 -15 16
-15 23 2 12 30 10 37 -7 30 -12 -4 -14 -1 -9 14 4 11 2 20 -4 20 -5 0 -13 -9
-16 -20 -4 -11 -10 -18 -14 -16 -4 3 -15 -4 -24 -15 -19 -22 -69 -26 -85 -6
-6 7 -14 32 -18 55 -7 45 -18 54 -27 23 -6 -24 -41 -47 -86 -56 -23 -5 -31 -4
-27 4 4 6 3 11 -3 11 -5 0 -11 -5 -13 -11 -8 -23 -63 5 -65 32 l-3 24 10 -22
c9 -23 50 -33 50 -13 0 5 6 7 14 4 8 -3 19 3 26 15 14 27 0 27 -34 0 -15 -12
-30 -18 -34 -14 -4 4 -1 10 6 12 6 3 12 14 12 24 0 11 -4 18 -9 15 -5 -3 -11
1 -15 9 -7 20 -45 19 -53 -1 -5 -13 -9 -12 -26 7 -16 17 -17 23 -6 30 10 6 10
9 2 9 -7 0 -13 4 -13 10 0 5 13 8 30 7 16 -1 30 -5 30 -9 0 -5 5 -8 10 -8 6 0
10 7 10 15 0 27 17 16 23 -14 7 -35 34 -52 62 -40 20 8 20 8 0 8 -53 2 -62 65
-14 105 34 29 59 34 59 11 0 -8 -6 -12 -13 -9 -16 6 -43 -23 -33 -33 4 -4 10
-3 14 3 4 6 20 14 36 18 27 7 28 8 11 26 -25 28 -61 25 -90 -6 -14 -15 -25
-31 -25 -35 0 -5 -4 -9 -10 -9 -12 0 -2 29 19 54 15 17 15 18 -4 12 -16 -5
-21 -1 -22 16 -2 15 1 18 6 10 6 -10 15 -9 42 3 l34 16 -32 -5 c-38 -6 -43 1
-10 13 25 9 62 -2 91 -27z m-585 0 c-26 -8 -52 -52 -30 -52 5 0 12 10 16 23 7
25 11 19 20 -35 3 -21 12 -44 21 -52 12 -13 12 -19 -3 -50 -20 -42 -48 -59
-33 -21 11 29 12 28 -28 14 -22 -7 -29 -15 -25 -27 2 -9 -9 -2 -27 16 -22 24
-30 42 -28 60 2 17 -2 26 -10 24 -17 -3 -15 13 3 32 22 21 18 28 -7 15 -21
-11 -22 -11 -9 5 11 12 23 16 43 12 23 -4 33 0 54 24 17 18 32 26 42 22 13 -5
14 -6 1 -10z m-856 -397 c33 -135 57 -279 57 -341 0 -16 -9 -55 -20 -85 -22
-63 -47 -274 -44 -361 l3 -58 -95 0 -94 0 -1 253 c-1 446 2 781 7 786 2 3 10
-1 16 -7 18 -18 63 -14 89 7 l23 19 13 -37 c6 -20 27 -99 46 -176z m913 184
c15 -26 67 -47 90 -38 16 5 24 5 24 -2 0 -5 21 -19 47 -31 52 -23 120 -21 171
6 18 9 33 11 43 5 21 -13 119 -10 154 5 28 12 32 10 62 -22 31 -32 36 -34 78
-29 25 4 45 3 45 -3 0 -5 9 -12 20 -15 11 -4 20 -15 20 -26 0 -31 29 -68 75
-94 66 -39 138 -43 217 -10 14 6 16 -8 19 -127 4 -175 4 -267 1 -475 l-2 -173
-643 0 -644 0 -15 38 c-34 80 -83 269 -82 312 2 46 19 216 32 302 l7 48 46
-43 c58 -53 88 -67 142 -67 24 0 48 -5 54 -11 8 -8 21 -8 45 -1 18 6 64 16
101 22 75 14 97 29 97 66 0 21 4 24 38 24 20 0 59 7 86 15 27 8 66 15 88 15
44 0 52 17 11 23 -20 3 -16 4 14 6 61 2 61 17 0 27 l-52 8 58 4 c101 5 50 36
-55 33 -53 -1 -47 14 9 25 25 5 48 14 50 19 4 12 -108 7 -122 -6 -18 -17 -24
-9 -18 22 9 46 -16 33 -33 -16 -19 -58 -58 -86 -108 -78 -22 3 -51 12 -65 19
-13 7 -28 11 -31 9 -4 -3 -15 4 -25 15 -10 11 -23 20 -29 20 -15 0 -46 32 -96
96 -44 57 -50 75 -21 67 10 -3 32 2 47 11 35 18 41 19 50 5z"/>
<path d="M950 3876 c0 -3 14 -25 31 -50 32 -48 31 -66 -2 -66 -10 0 -19 -4
-19 -10 0 -14 277 -13 285 1 4 6 -2 13 -13 16 -28 7 -36 70 -10 84 42 22 13
29 -127 29 -80 0 -145 -2 -145 -4z"/>
<path d="M2078 388 c-2 -16 -12 -24 -32 -28 -31 -5 -49 -30 -22 -30 9 0 16 5
16 10 0 6 7 10 15 10 8 0 15 -4 15 -10 0 -5 -7 -10 -15 -10 -21 0 -19 -18 3
-23 9 -2 0 -2 -20 0 -24 3 -38 1 -38 -6 0 -6 11 -11 25 -11 14 0 25 -4 25 -10
0 -5 -9 -10 -19 -10 -11 0 -23 -5 -26 -11 -13 -20 6 -23 35 -6 37 22 41 15 43
-78 1 -54 5 -75 14 -75 13 0 19 54 14 128 -2 20 2 33 11 34 7 0 18 2 23 3 6 2
22 3 38 4 31 1 36 20 7 28 -11 3 -20 9 -20 14 0 5 -12 10 -27 10 -22 2 -19 3
12 9 22 4 32 8 23 9 -10 0 -18 6 -18 11 0 6 -11 10 -25 10 -14 0 -25 5 -25 10
0 6 11 10 25 10 16 0 25 6 25 15 0 11 -11 15 -39 15 -33 0 -40 -4 -43 -22z"/>
</g>
</svg>
