<?xml version="1.0" standalone="no"?>
<!DOCTYPE svg PUBLIC "-//W3C//DTD SVG 20010904//EN"
 "http://www.w3.org/TR/2001/REC-SVG-20010904/DTD/svg10.dtd">
<svg version="1.0" xmlns="http://www.w3.org/2000/svg"
 width="233.000000pt" height="400.000000pt" viewBox="0 0 233.000000 400.000000"
 preserveAspectRatio="xMidYMid meet">
<metadata>
Created by potrace 1.15, written by Peter Selinger 2001-2017
</metadata>
<g transform="translate(0.000000,400.000000) scale(0.100000,-0.100000)"
fill="#000000" stroke="none">
<path d="M1064 3962 l-1022 -2 -5 -93 c-5 -92 -12 -2969 -8 -3507 1 -157 4
-293 7 -302 7 -22 54 -23 1079 -26 446 -1 883 -4 973 -6 l162 -3 3 606 c1 333
1 838 -1 1121 -3 719 -14 2205 -16 2206 -7 7 -306 9 -1172 6z m1084 -20 l72
-2 0 -485 0 -485 -32 -1 c-27 -1 -28 -2 -8 -6 51 -8 55 -17 10 -23 -44 -7 -44
-7 -8 -8 35 -2 36 -3 42 -49 7 -65 5 -87 -8 -95 -8 -6 -8 -8 0 -8 8 0 12 -74
13 -260 l1 -260 -29 0 c-18 0 -34 7 -40 18 -7 11 -10 13 -11 3 0 -14 -31 -12
-74 5 -13 5 -17 4 -12 -4 5 -8 -9 -11 -49 -9 -31 2 -59 -1 -62 -6 -3 -5 -16
-6 -28 -3 -13 3 -27 2 -30 -4 -3 -5 1 -10 9 -10 9 0 16 -5 16 -11 0 -5 5 -7
12 -3 8 5 9 0 4 -17 -13 -43 -20 -263 -8 -255 5 3 10 36 10 74 0 37 6 97 12
134 l12 66 121 -5 c67 -2 128 -6 135 -8 8 -3 12 -34 12 -107 0 -79 -3 -99 -12
-90 -7 7 -23 11 -37 11 -21 -1 -22 -2 -6 -6 11 -3 28 -14 39 -25 17 -18 19
-41 20 -271 1 -139 -1 -264 -5 -279 -4 -16 -5 -28 -1 -28 4 0 6 -119 4 -265
l-3 -265 -37 -2 -37 -1 38 -4 37 -4 0 -190 c0 -144 -3 -189 -12 -190 -10 0
-10 -2 0 -6 8 -3 12 -34 12 -104 l0 -99 -57 1 c-56 2 -56 2 -18 9 l40 7 -37 2
c-34 1 -56 20 -25 22 10 0 10 2 0 6 -21 8 -15 23 10 24 l22 2 -22 4 c-12 2
-20 10 -17 16 2 7 -4 13 -16 14 -11 1 -18 -3 -14 -8 3 -6 -2 -16 -12 -24 -18
-13 -18 -14 -1 -20 21 -9 23 -35 1 -35 -8 0 -12 5 -9 11 4 6 -2 13 -14 16 -12
3 -21 12 -21 19 0 8 -5 14 -11 14 -7 0 -8 -11 -4 -29 4 -21 1 -35 -12 -50 -21
-25 -33 -27 -33 -6 0 8 4 15 9 15 5 0 11 13 13 30 3 17 0 30 -6 30 -6 0 -12
-12 -12 -26 -1 -14 -5 -28 -9 -32 -9 -10 -26 21 -21 40 6 24 -32 34 -52 14
-14 -14 -14 -17 2 -35 10 -11 26 -23 36 -26 19 -6 20 -47 1 -53 -11 -4 -10 -6
0 -13 14 -9 17 -127 4 -177 l-6 -24 -197 7 c-108 3 -200 9 -203 13 -11 12 -57
154 -64 198 -5 30 -2 44 9 54 18 14 21 41 6 56 -7 7 2 38 25 93 20 46 34 89
32 95 -4 12 -36 -56 -64 -135 l-17 -47 -50 2 c-51 1 -54 -2 -40 -38 6 -15 4
-18 -8 -13 -20 7 -57 -18 -57 -41 0 -9 -3 -36 -7 -59 -6 -37 -10 -43 -30 -43
-13 0 -24 -4 -24 -9 0 -5 10 -7 22 -3 17 4 20 2 15 -13 -4 -10 -12 -37 -18
-61 -11 -43 -12 -44 -53 -45 -22 0 -65 -3 -94 -5 -29 -3 -60 -1 -69 4 -11 7
-23 6 -35 -1 -41 -26 -77 32 -102 163 -13 65 -14 85 -4 91 6 4 13 27 14 51 1
29 18 78 53 150 28 59 51 111 51 117 0 5 5 13 12 17 8 5 9 1 4 -12 -6 -15 -5
-17 6 -6 14 14 1 43 -23 50 -11 3 -11 1 1 -7 13 -9 13 -11 -2 -11 -11 0 -15
-7 -13 -25 3 -31 -11 -42 -18 -15 -3 11 -13 20 -22 20 -11 0 -15 5 -12 14 3 8
-3 22 -14 32 -17 15 -24 16 -39 6 -26 -16 -31 -15 -24 3 10 26 44 28 70 4 13
-12 24 -28 24 -36 0 -7 5 -13 11 -13 6 0 9 6 6 14 -3 7 0 19 6 26 9 10 9 14 0
17 -7 3 -13 9 -13 14 0 5 -9 18 -19 28 -20 20 -20 20 -26 -1 -5 -12 -11 -16
-16 -11 -6 6 -3 21 8 41 10 17 15 34 11 37 -8 8 -78 -46 -78 -59 0 -5 8 -2 17
6 46 39 57 33 16 -8 -23 -23 -27 -24 -35 -9 -5 9 -6 24 -2 33 9 20 13 52 14
111 0 24 5 52 11 63 10 18 11 18 38 -1 15 -11 41 -22 57 -25 16 -2 30 -5 31
-5 2 -1 -6 -25 -17 -53 -11 -29 -20 -62 -19 -73 0 -11 3 -14 6 -7 7 17 19 15
40 -6 22 -23 53 -35 53 -22 0 6 7 10 15 10 8 0 15 5 15 11 0 8 4 8 13 1 17
-13 53 2 68 29 l11 22 17 -26 c8 -15 22 -27 31 -26 10 0 11 2 2 6 -6 2 -10 8
-7 13 2 4 -4 15 -15 25 -11 10 -20 24 -20 32 0 7 -5 13 -11 13 -7 0 0 11 15
25 27 25 56 33 56 16 0 -5 -9 -15 -21 -22 -20 -14 -18 -49 3 -49 5 0 7 4 4 9
-3 5 1 12 10 15 12 5 14 1 8 -17 l-6 -22 25 23 c16 15 27 20 32 13 10 -17 23
-13 36 11 9 17 9 24 -5 33 -14 11 -15 14 -1 25 28 23 18 40 -25 40 -33 0 -42
-4 -49 -22 -7 -20 -8 -20 -15 -2 -4 11 -3 20 3 22 6 2 11 8 11 13 0 6 -9 5
-21 -1 -12 -7 -18 -18 -15 -26 3 -8 1 -14 -4 -14 -6 0 -10 7 -10 16 0 11 -5
14 -16 10 -13 -5 -16 0 -12 28 4 33 3 33 -27 25 -16 -5 -31 -9 -33 -9 -2 0 0
-5 3 -10 5 -8 12 -7 23 2 13 11 15 10 10 -15 -4 -19 -1 -30 8 -34 7 -2 10 -11
7 -19 -6 -17 -53 -19 -54 -1 0 9 -2 9 -6 0 -3 -10 -8 -10 -19 1 -19 19 -18 23
8 29 18 5 19 8 9 21 -8 9 -17 13 -22 10 -11 -6 -3 64 12 110 12 39 11 90 -2
103 -7 7 0 12 25 17 20 4 36 11 36 16 0 5 8 11 18 14 11 4 24 17 31 30 11 19
10 28 -7 56 -11 18 -18 40 -15 49 4 9 2 13 -2 8 -10 -8 -55 31 -55 47 0 6 7 3
14 -7 9 -11 20 -15 32 -10 34 12 46 43 17 43 -10 1 -28 9 -39 19 -18 14 -21
26 -19 64 4 50 -14 65 -34 30 -8 -15 -13 -16 -33 -5 -46 26 -57 39 -64 79 -6
40 -6 41 22 37 l29 -4 -27 11 c-16 6 -28 15 -28 21 0 6 8 7 17 3 10 -4 27 -10
38 -12 37 -10 2 14 -40 27 -22 7 -46 17 -53 23 -24 19 -27 -5 -2 -25 17 -14
21 -22 12 -25 -10 -4 -10 -8 0 -21 11 -13 7 -12 -20 2 -19 10 -37 14 -40 10
-4 -4 -2 -8 3 -10 6 -2 25 -13 42 -24 26 -15 33 -27 33 -50 0 -16 -4 -30 -10
-30 -5 0 -10 4 -10 9 0 4 -38 23 -85 41 -50 19 -85 39 -85 47 0 22 -43 33 -57
14 -9 -13 -8 -20 4 -33 9 -10 11 -18 6 -18 -6 0 -13 -9 -16 -20 -4 -15 -1 -19
14 -17 29 5 32 13 20 49 -11 32 -11 33 7 11 15 -19 49 -35 185 -85 15 -6 27
-14 27 -19 0 -5 7 -9 16 -9 8 0 13 -4 9 -10 -3 -5 23 -40 58 -77 79 -85 153
-190 118 -168 -5 3 -12 1 -16 -5 -3 -5 -11 -10 -18 -10 -8 0 -8 3 1 12 17 17
15 33 -3 18 -18 -15 -20 0 -2 19 10 11 9 13 -5 8 -22 -8 -30 3 -15 21 10 13 9
15 -7 9 -13 -5 -17 -3 -13 6 3 8 -5 21 -17 30 -12 10 -40 43 -60 75 -39 58
-75 85 -96 72 -8 -5 -6 -10 7 -15 10 -5 21 -8 24 -7 4 1 13 -6 21 -16 25 -30
128 -199 128 -211 0 -6 -15 -15 -32 -21 l-33 -10 38 3 c26 2 37 -1 37 -11 0
-10 -9 -13 -30 -10 -17 3 -33 1 -36 -4 -3 -4 13 -8 36 -8 27 0 39 -4 34 -11
-4 -6 -20 -8 -40 -5 -32 7 -61 -4 -92 -32 -7 -6 -21 -12 -30 -12 -15 1 -15 2
1 11 26 15 21 32 -8 25 -19 -5 -25 -2 -25 10 0 9 6 14 13 11 8 -3 20 -1 28 4
11 7 9 9 -8 9 -13 0 -23 5 -23 10 0 6 7 10 16 10 8 0 12 5 9 10 -4 6 -10 8
-15 5 -5 -3 -11 -1 -15 5 -3 5 2 10 12 11 12 1 10 3 -7 8 -17 5 -24 13 -22 26
3 12 -1 16 -12 12 -8 -3 -18 -2 -21 3 -4 6 3 10 14 10 12 0 21 5 21 10 0 6 -5
10 -11 10 -5 0 -8 4 -5 9 3 5 -10 12 -29 15 -20 4 -35 13 -35 21 0 8 8 12 23
9 17 -3 16 -1 -5 8 -38 16 -35 29 4 21 22 -4 29 -3 24 5 -4 7 -20 12 -37 12
-16 0 -29 5 -29 11 0 7 12 9 30 7 17 -3 33 -1 36 4 5 7 -25 12 -64 11 -7 -1
-15 16 -18 38 -4 21 -10 39 -15 39 -18 0 18 -134 56 -210 13 -25 32 -54 44
-64 12 -11 21 -31 21 -46 0 -22 -10 -33 -51 -59 -28 -17 -56 -31 -63 -31 -6 0
-17 -5 -24 -12 -7 -7 -12 -8 -12 -2 0 6 18 19 40 29 22 10 46 25 52 33 7 8
-10 3 -39 -12 -52 -26 -103 -34 -103 -17 0 5 9 11 19 14 14 3 19 13 19 35 -1
24 -4 29 -22 25 -20 -4 -20 -4 -4 10 19 15 25 32 8 22 -6 -3 -10 -1 -10 4 0 6
8 12 18 12 16 1 16 2 0 6 -22 5 -24 23 -3 23 8 0 15 5 15 11 0 6 -7 9 -15 5
-20 -7 -19 4 3 20 16 13 16 13 0 14 -23 0 -23 26 0 39 16 10 16 10 0 11 -25 0
-22 15 5 28 12 7 15 11 7 9 -25 -3 -23 17 2 25 l23 6 -22 1 c-28 1 -31 21 -3
21 11 0 20 5 20 11 0 6 -9 8 -20 4 -11 -4 -20 -2 -20 4 0 6 6 11 14 11 8 0 18
5 22 12 5 8 2 9 -10 5 -10 -4 -27 -2 -38 4 -18 9 -19 8 -13 -10 4 -13 2 -21
-6 -21 -9 0 -8 -4 1 -15 10 -12 9 -15 -6 -16 -17 -1 -17 -2 -1 -6 9 -2 17 -11
17 -20 0 -9 -6 -13 -15 -9 -8 3 -15 1 -15 -4 0 -6 5 -10 10 -10 6 0 10 -11 10
-25 0 -19 -6 -25 -22 -26 l-23 -2 23 -4 c13 -3 21 -10 19 -16 -2 -7 -11 -11
-21 -9 -9 2 -16 -2 -16 -8 0 -5 7 -10 15 -10 8 0 15 -4 15 -10 0 -5 -6 -7 -14
-4 -8 3 -17 1 -21 -5 -3 -7 2 -11 14 -11 11 0 23 -5 27 -11 4 -8 -3 -9 -26 -4
-23 5 -30 4 -26 -4 4 -6 16 -11 26 -11 24 0 29 -10 20 -34 -6 -17 -7 -18 -13
-3 -3 9 -14 17 -23 17 -13 0 -14 -3 -4 -15 10 -12 9 -15 -6 -15 -14 -1 -11 -5
11 -15 l30 -15 -32 6 c-43 7 -42 -2 2 -20 19 -8 35 -20 35 -25 0 -15 -11 -13
-34 4 -11 8 -28 15 -38 15 -23 0 -24 34 -2 110 8 30 24 93 34 140 10 47 23 96
28 110 5 14 12 38 16 53 6 25 4 28 -13 22 -11 -3 -22 -1 -26 5 -4 6 6 13 23
16 31 6 47 35 30 52 -6 6 -17 8 -24 5 -19 -7 -18 7 2 35 13 18 19 21 30 11 11
-9 14 -7 14 9 0 11 8 22 18 25 9 2 -1 7 -25 12 -46 8 -51 35 -5 35 14 0 33 7
43 16 16 14 17 13 15 -23 -1 -21 -12 -56 -24 -77 -12 -22 -20 -42 -17 -44 7
-8 25 9 25 24 0 8 4 12 10 9 6 -3 7 1 4 9 -5 12 0 16 17 16 14 0 19 3 13 8
-15 10 -14 44 1 38 7 -2 17 0 23 6 19 19 68 -2 113 -48 44 -45 93 -67 162 -72
10 -1 16 -6 13 -11 -12 -18 7 -41 32 -41 23 0 24 -13 1 -16 -5 -1 -12 -2 -15
-3 -3 0 1 -8 10 -16 9 -9 22 -12 33 -8 15 6 16 4 5 -9 -7 -8 -10 -23 -6 -32 7
-18 24 -22 24 -4 0 6 3 8 6 5 4 -4 1 -13 -6 -22 -15 -18 0 -20 19 -2 11 10 12
8 6 -12 -5 -18 -4 -22 6 -16 9 6 11 3 6 -8 -8 -22 -1 -21 25 3 16 15 18 20 7
20 -8 0 -23 14 -32 30 -13 21 -14 30 -6 30 7 0 10 3 7 6 -4 3 -19 -3 -35 -13
l-28 -18 22 28 21 28 -24 24 c-25 25 -31 45 -13 45 6 0 8 9 4 20 -13 42 13 18
30 -27 10 -27 31 -76 47 -111 23 -49 32 -61 43 -52 9 8 14 6 19 -6 12 -30 6
-36 -19 -20 -30 19 -36 20 -29 3 3 -8 -4 -35 -16 -61 -15 -37 -17 -47 -6 -43
27 11 25 -22 -8 -123 -38 -113 -59 -150 -84 -150 -13 -1 -9 -8 16 -30 18 -17
39 -30 47 -30 8 0 15 -4 15 -9 0 -5 10 -11 23 -14 12 -2 31 -7 42 -11 22 -8
-54 37 -97 56 -29 13 -37 28 -15 28 6 0 27 -9 46 -21 18 -11 35 -18 38 -15 3
2 -14 14 -37 26 -23 12 -40 24 -38 28 25 47 57 124 63 150 7 32 18 41 30 22 3
-6 12 -10 18 -10 7 0 2 8 -11 18 -29 22 -21 58 9 41 15 -7 19 -6 19 5 0 8 -9
17 -19 21 -24 7 -35 37 -27 70 9 34 63 41 122 15 30 -13 51 -17 58 -11 12 10
54 -14 44 -24 -3 -3 -13 1 -21 10 -15 14 -17 14 -27 -4 -13 -25 -13 -41 0 -41
6 0 10 6 10 13 0 8 14 12 40 12 l40 0 0 -41 c0 -42 -6 -82 -42 -264 -11 -58
-22 -123 -23 -145 -2 -22 -6 -50 -10 -63 -5 -14 -3 -22 4 -22 6 0 11 9 11 20
0 11 4 20 9 20 15 0 13 -162 -1 -172 -9 -5 -8 -8 6 -8 12 0 16 -5 12 -16 -5
-12 1 -15 26 -12 42 4 52 34 11 33 -25 0 -28 4 -29 35 -1 26 -1 28 3 8 6 -38
27 -35 38 4 8 27 14 32 35 30 68 -8 127 4 143 29 16 26 24 24 54 -11 25 -30
51 -38 69 -21 5 5 29 12 53 16 34 6 42 4 39 -6 -3 -8 -14 -13 -26 -12 -16 2
-19 -2 -14 -19 5 -19 2 -20 -30 -14 -43 8 -69 -1 -61 -20 3 -8 -1 -14 -11 -14
-9 0 -16 -6 -16 -14 0 -21 -21 -31 -31 -15 -7 12 -14 11 -44 -5 -19 -11 -35
-23 -35 -28 0 -11 17 -10 25 2 10 17 45 11 45 -7 0 -13 -3 -14 -12 -5 -16 16
-31 15 -25 -2 3 -7 0 -19 -6 -25 -9 -9 -8 -14 3 -21 8 -5 11 -12 7 -16 -7 -8
-107 -17 -107 -10 0 3 4 16 10 30 12 32 -9 37 -27 7 -15 -24 -49 -21 -45 3 2
10 -2 24 -9 32 -13 15 -59 19 -59 5 0 -5 9 -7 20 -4 11 3 20 0 20 -6 0 -6 -5
-11 -11 -11 -8 0 -7 -5 2 -16 10 -13 10 -17 -2 -24 -9 -6 -15 -5 -17 3 -8 31
-27 57 -40 57 -12 0 -11 4 4 21 25 27 26 69 3 69 -10 0 -21 4 -24 10 -11 18
-27 11 -20 -9 3 -11 1 -22 -5 -26 -6 -4 -10 7 -10 29 0 46 -12 51 -49 20 -17
-14 -31 -21 -31 -14 0 6 -5 8 -10 5 -6 -4 -17 -1 -25 5 -20 17 -38 2 -31 -26
5 -20 2 -24 -31 -30 -28 -5 -39 -3 -49 11 -12 16 -14 16 -29 1 -12 -12 -13
-20 -5 -35 14 -27 13 -31 -11 -31 -18 0 -19 -2 -9 -15 11 -13 8 -15 -21 -16
-31 -1 -32 -2 -9 -9 57 -16 70 -23 70 -35 0 -17 80 -217 91 -230 13 -13 11
-25 -3 -22 -17 3 -22 -41 -8 -59 16 -18 34 -18 27 0 -4 11 -1 13 11 9 14 -5
15 -3 5 8 -15 16 -17 39 -3 39 6 0 10 -6 10 -14 0 -8 5 -18 11 -21 19 -12 5
29 -18 53 -29 29 -29 39 0 45 17 3 15 5 -8 6 -23 1 -31 6 -32 21 -1 14 5 20
20 21 20 1 20 2 2 6 -45 10 -51 16 -25 23 l25 8 -27 1 c-31 1 -38 17 -10 24
12 3 11 5 -6 6 -13 0 -20 5 -17 11 3 5 1 10 -4 10 -18 0 -12 18 7 23 12 3 10
5 -8 7 -23 1 -23 2 -5 10 16 7 16 9 4 9 -20 1 -31 24 -23 46 9 22 26 18 19 -4
-8 -25 33 -51 46 -30 11 18 69 19 69 1 0 -7 -6 -12 -12 -11 -18 3 -68 -12 -68
-20 0 -3 7 -14 14 -23 15 -21 37 -23 54 -6 9 9 12 5 12 -20 0 -32 29 -59 37
-35 10 28 41 53 59 46 17 -6 17 -5 5 10 -17 22 -10 29 26 30 15 0 22 2 16 4
-18 6 -16 23 1 23 9 0 16 -12 18 -27 3 -23 9 -29 41 -34 35 -6 49 2 27 16 -5
3 -10 18 -10 32 0 20 3 23 14 14 7 -6 21 -9 30 -5 10 4 18 0 22 -10 3 -9 12
-16 20 -16 25 0 14 -14 -31 -42 -53 -32 -58 -54 -13 -60 33 -5 107 9 122 23 6
5 21 9 34 9 16 0 26 7 29 20 9 36 26 16 49 -56 15 -48 19 -73 11 -82 -7 -9 -6
-11 8 -6 13 5 16 4 11 -4 -5 -9 5 -12 36 -10 37 1 38 2 11 5 -36 5 -44 19 -15
26 12 3 11 5 -6 6 -13 0 -20 6 -17 11 3 6 1 10 -4 10 -25 0 -9 20 17 21 l27 2
-30 5 c-29 6 -29 6 10 12 l40 7 -44 2 c-41 1 -43 2 -37 26 4 14 2 25 -3 25 -5
0 -7 8 -4 18 3 14 12 17 38 14 26 -3 36 1 44 17 l12 21 27 -25 c33 -31 36 -31
50 0 14 31 15 38 3 31 -5 -3 -12 1 -15 10 -3 8 -11 12 -16 9 -8 -5 -6 -15 5
-31 17 -27 5 -33 -16 -8 -10 12 -10 20 -1 35 7 10 12 21 12 24 0 9 -49 5 -55
-5 -8 -12 -45 -13 -45 -1 0 4 5 23 11 41 7 18 8 35 3 39 -5 3 -18 17 -29 30
l-20 24 44 -6 c39 -5 47 -2 63 19 27 33 38 30 38 -10 0 -30 4 -35 30 -41 35
-8 36 -12 13 -37 -9 -10 -12 -18 -6 -18 5 0 18 9 28 20 13 14 15 23 7 32 -5 7
-13 36 -17 63 -4 28 -11 68 -17 89 -6 27 -6 41 1 45 7 5 -1 59 -25 167 -19 87
-37 173 -40 189 -3 17 -10 34 -15 39 -15 16 -10 36 9 37 10 0 12 3 5 6 -14 5
-18 33 -5 33 16 0 34 -19 28 -29 -4 -6 -3 -11 3 -11 5 0 11 12 13 28 l4 27 11
-25 c7 -14 12 -20 12 -14 1 7 8 14 16 18 13 5 14 2 4 -15 -6 -11 -8 -23 -6
-26 3 -2 11 5 17 17 6 11 19 20 28 19 28 -4 96 13 104 25 4 6 0 14 -10 18 -15
6 -15 7 2 7 16 1 15 4 -7 21 -30 24 -37 25 -37 4 0 -8 5 -12 10 -9 6 3 10 2
10 -4 0 -22 -20 -20 -26 3 -4 17 -11 23 -21 19 -12 -5 -14 -1 -8 15 7 23 5 25
-17 17 -10 -4 -13 -16 -10 -38 3 -18 1 -28 -4 -24 -13 13 -14 70 -1 86 9 12 9
13 -1 7 -7 -4 -26 -1 -42 8 -26 12 -30 12 -30 0 0 -14 12 -18 39 -14 9 1 12
-4 7 -16 -3 -9 -1 -23 5 -30 8 -10 8 -14 0 -14 -6 0 -11 5 -11 10 0 6 -9 10
-20 10 -11 0 -20 -4 -20 -10 0 -5 6 -10 13 -10 7 0 18 -10 26 -21 11 -19 11
-21 -3 -16 -9 4 -16 2 -16 -4 0 -6 -5 -7 -12 -3 -9 6 -9 9 0 12 21 7 13 25 -8
19 -11 -3 -20 0 -20 6 -4 83 0 180 9 214 9 35 7 52 -13 113 -27 83 -53 122
-84 125 -12 1 -28 9 -35 18 -15 20 -77 35 -77 18 0 -6 9 -11 19 -11 10 0 22
-7 25 -16 3 -8 10 -13 15 -9 6 3 17 -10 27 -30 13 -28 14 -38 4 -50 -10 -12
-10 -18 0 -30 10 -12 6 -22 -20 -55 -17 -22 -34 -40 -37 -40 -3 0 -18 8 -34
17 -30 18 -38 33 -18 33 8 0 8 5 -1 15 -11 13 -8 14 18 9 29 -6 52 9 32 21 -5
3 -10 1 -10 -4 0 -18 -19 -12 -30 9 -8 16 -6 26 11 49 22 30 19 51 -7 51 -9 0
-14 -7 -13 -17 2 -10 -3 -28 -9 -41 -7 -12 -10 -27 -7 -32 3 -6 3 -15 -1 -22
-19 -30 -12 -58 19 -82 l31 -24 -37 -7 c-42 -8 -67 6 -67 36 0 11 -7 19 -15
19 -8 0 -15 -4 -15 -10 0 -5 -5 -10 -10 -10 -6 0 -9 10 -7 23 2 12 -1 7 -7
-12 -6 -20 -22 -41 -38 -50 -15 -9 -28 -22 -28 -29 0 -8 -9 -25 -20 -39 -13
-17 -17 -33 -13 -54 3 -18 1 -29 -6 -29 -6 0 -11 9 -11 21 0 11 -5 17 -10 14
-6 -3 -18 1 -27 10 -15 16 -14 21 18 83 44 88 44 86 29 77 -8 -5 -17 -2 -24 7
-6 8 -21 18 -33 22 -18 6 -22 4 -17 -8 3 -9 1 -16 -5 -16 -6 0 -11 5 -11 10 0
6 -15 10 -34 10 -29 0 -33 3 -29 20 6 22 19 27 25 9 5 -16 48 -2 48 15 0 15
47 10 57 -7 4 -6 0 -8 -10 -4 -10 3 -17 2 -17 -2 0 -16 28 -20 46 -7 20 15 11
36 -17 36 -11 0 -17 5 -14 10 3 6 23 10 43 10 33 0 35 1 20 16 -9 9 -29 17
-44 17 -25 0 -26 1 -11 12 23 16 21 25 -3 25 -24 0 -27 18 -5 27 9 3 22 18 31
34 13 26 13 29 -2 29 -10 0 -14 5 -10 15 3 10 -1 15 -11 15 -14 0 -15 2 -1 18
20 23 30 64 15 59 -7 -2 -14 -12 -16 -23 -1 -10 -9 -26 -17 -35 -8 -9 -12 -24
-8 -33 3 -9 1 -16 -5 -16 -18 0 -13 58 6 69 10 5 15 13 10 17 -11 11 -47 -26
-48 -50 0 -21 0 -21 -16 2 -8 12 -22 22 -29 22 -20 0 -17 17 6 50 30 42 36 85
15 116 -9 14 -14 29 -10 32 3 4 9 2 13 -4 4 -6 43 -10 87 -11 44 0 79 -4 77
-9 -1 -5 -23 -7 -48 -5 -26 1 -44 -1 -41 -6 9 -15 117 -15 117 0 0 10 23 12
103 9 56 -2 104 -6 106 -8 4 -3 -20 -61 -45 -106 -19 -36 -19 -38 20 -38 38 0
45 -14 41 -74 -2 -20 1 -36 6 -36 5 0 9 23 9 51 0 56 18 129 32 129 4 0 8 11
8 25 0 20 -5 25 -25 25 -16 0 -25 6 -25 15 0 8 5 15 10 15 6 0 10 6 10 13 0
11 -28 14 -123 16 -67 1 -131 4 -142 6 -11 2 -55 4 -98 4 -58 1 -78 4 -75 14
3 6 18 15 34 18 16 4 21 7 10 8 -14 1 -16 4 -8 14 6 7 10 23 9 35 -1 19 -7 22
-42 23 -112 2 -108 1 -142 53 -18 26 -33 53 -32 60 0 6 6 3 12 -8 34 -52 69
-97 73 -93 3 2 -16 35 -42 73 -25 37 -47 75 -49 83 -1 9 -10 15 -19 13 -9 -2
-16 -1 -16 1 0 3 -7 22 -15 43 -14 35 -14 37 0 20 8 -11 15 -26 15 -33 0 -7 5
-13 10 -13 15 0 15 -2 -50 132 -62 126 -69 148 -47 149 6 0 1 5 -12 12 -21 10
-27 6 -67 -39 -25 -27 -70 -83 -101 -124 -31 -41 -76 -99 -100 -127 -25 -29
-40 -53 -34 -53 9 0 78 81 168 200 83 108 88 113 103 96 10 -14 7 -23 -24 -60
-19 -24 -43 -43 -53 -42 -10 0 -19 -7 -21 -19 -7 -32 -33 -64 -48 -58 -10 4
-13 -2 -12 -18 1 -14 -15 -47 -38 -79 -30 -43 -44 -54 -61 -52 -29 4 -29 -5
-1 -28 22 -17 22 -19 10 -127 -14 -130 -15 -160 -3 -147 5 5 13 72 18 150 8
108 14 147 29 170 29 45 107 146 134 174 14 14 40 43 58 65 25 31 32 35 32 20
0 -11 13 -45 29 -75 16 -30 44 -84 61 -120 18 -36 42 -84 54 -108 11 -24 36
-61 55 -83 18 -22 31 -42 28 -45 -2 -3 -23 5 -46 17 -56 29 -131 22 -196 -18
-25 -15 -55 -32 -65 -38 -10 -5 -27 -30 -36 -55 -10 -25 -33 -74 -52 -109 -20
-38 -32 -73 -29 -86 2 -16 0 -22 -9 -18 -6 2 -15 0 -18 -5 -3 -6 -14 -8 -24
-6 -14 4 -16 15 -14 64 2 33 0 60 -5 60 -4 0 -9 -38 -10 -85 -1 -47 -7 -93
-13 -102 -10 -16 -11 -15 -7 5 6 26 -1 28 -18 5 -12 -15 -13 -14 -9 12 l4 30
-13 -27 c-10 -22 -16 -25 -32 -17 -16 8 -15 6 4 -10 30 -27 8 -27 -30 0 -29
20 -67 20 -54 -1 3 -6 -3 -10 -15 -10 -16 0 -20 4 -16 16 3 9 6 31 6 50 0 26
3 32 15 28 15 -6 21 7 9 19 -13 12 -43 -14 -53 -46 -13 -37 -3 -77 26 -109 13
-15 13 -16 -6 -11 -12 3 -21 10 -21 15 0 5 -7 2 -16 -6 -24 -25 -30 -19 -28
24 2 36 0 39 -16 30 -22 -12 -38 6 -21 23 15 15 14 47 -2 47 -13 0 110 261
126 268 11 6 8 37 -5 50 -9 9 -8 12 5 12 9 0 17 7 17 15 0 8 9 23 20 33 20 19
20 19 -5 30 -14 7 -32 12 -40 12 -18 0 -19 5 -3 29 9 15 8 22 -6 36 -9 10 -15
25 -12 34 4 11 1 10 -10 -4 -8 -11 -23 -19 -32 -18 -18 3 7 -10 42 -21 17 -6
17 -8 -7 -39 -18 -23 -23 -41 -20 -60 6 -32 -15 -37 -42 -10 -9 9 -20 12 -23
7 -4 -5 -18 -9 -32 -9 -21 0 -25 4 -23 28 2 30 -6 29 -45 -7 l-23 -20 9 24 c5
14 19 29 30 35 28 13 28 17 -4 32 -23 10 -24 10 -19 -8 6 -17 3 -19 -19 -13
-17 4 -35 0 -51 -10 -28 -18 -29 -18 -15 18 7 20 6 26 -5 26 -7 0 -20 -6 -27
-14 -8 -8 -23 -15 -33 -17 -15 -3 -20 -13 -20 -42 -1 -21 4 -45 10 -54 11 -14
9 -19 -12 -30 -33 -17 -36 -17 -30 7 3 11 1 23 -5 26 -17 11 -28 -19 -21 -61
6 -46 23 -71 23 -36 0 17 4 22 16 17 11 -4 15 -2 11 8 -12 30 22 38 172 43
176 6 221 1 221 -27 0 -11 -4 -20 -10 -20 -5 0 -10 -5 -10 -10 0 -20 -110
-235 -126 -247 -9 -6 -23 -9 -31 -6 -13 5 -13 3 -2 -15 10 -16 11 -24 2 -33
-16 -16 -36 -1 -30 22 3 12 -2 23 -14 29 -22 12 -24 7 -8 -22 8 -16 8 -19 -2
-16 -7 2 -13 12 -15 22 -1 10 -10 26 -18 35 -12 13 -45 98 -46 118 0 1 12 4
28 6 24 4 24 4 -7 6 -29 1 -32 3 -21 16 11 13 10 14 -4 9 -9 -3 -16 -1 -16 5
0 6 5 11 10 11 6 0 10 4 10 9 0 5 -10 7 -22 4 -16 -4 -20 -2 -13 5 6 6 26 12
45 15 32 3 32 4 -9 5 -38 2 -42 4 -31 17 11 13 10 14 -5 9 -13 -5 -16 -4 -11
4 4 7 3 12 -2 12 -23 0 -18 -34 20 -126 22 -55 46 -106 53 -114 17 -21 28 -70
15 -70 -5 0 -10 8 -10 17 0 13 -3 14 -12 5 -15 -15 7 -43 27 -35 11 3 13 -2
11 -24 -3 -15 -8 -52 -12 -81 -3 -29 -13 -60 -21 -68 -9 -9 -10 -14 -3 -14 6
0 9 -4 5 -10 -3 -5 -12 -7 -19 -4 -7 3 -19 -2 -26 -11 -10 -12 -10 -15 1 -15
7 0 0 -13 -16 -30 -28 -29 -28 -30 -6 -30 12 0 20 4 17 9 -3 4 4 17 16 27 21
19 21 19 14 -1 -5 -11 -13 -32 -18 -48 -6 -16 -20 -30 -34 -33 -13 -3 -24 -9
-24 -13 0 -4 -13 -12 -30 -18 -24 -9 -30 -9 -30 2 0 8 5 17 10 20 6 3 7 17 4
31 -4 15 -2 24 6 24 7 0 10 -7 6 -16 -5 -14 -4 -15 9 -4 21 17 19 30 -5 30
-13 0 -20 7 -20 20 0 15 9 22 33 27 17 4 35 6 39 5 10 -2 9 17 -1 42 -7 18 -9
17 -28 -8 -29 -36 -37 -33 -28 12 7 40 8 41 24 182 6 52 16 113 21 135 13 53
12 55 -5 55 -8 0 -16 -8 -16 -17 -1 -10 -2 -31 -3 -48 -9 -141 -20 -198 -41
-223 -15 -18 -26 -23 -36 -16 -23 15 -53 10 -66 -11 -11 -18 -12 -18 -13 -2 0
10 -5 15 -10 12 -6 -3 -13 2 -16 12 -3 10 -12 31 -19 47 -15 34 -10 58 16 75
16 9 24 9 34 1 26 -21 85 -48 85 -38 0 5 -14 15 -32 22 -28 12 -32 19 -32 52
-1 32 -5 40 -22 42 -12 2 -28 -4 -37 -12 -13 -14 -15 -12 -18 17 -2 18 -2 201
1 407 l5 375 30 -1 c17 0 37 -2 45 -5 9 -2 15 2 14 13 -1 12 12 22 40 32 22 8
34 15 25 15 -9 1 -36 -6 -59 -14 -50 -18 -50 -18 -50 -5 0 5 21 15 47 22 26 6
43 13 37 15 -5 2 -31 -3 -57 -11 -68 -20 -83 -14 -79 35 4 38 16 52 24 27 4
-11 44 -5 121 18 12 4 17 0 17 -15 0 -12 7 -21 15 -21 10 0 15 10 15 28 0 25
6 30 40 41 58 17 134 51 128 56 -3 3 -27 -4 -53 -16 -66 -29 -104 -39 -110
-29 -3 5 9 12 27 15 18 4 39 11 48 15 8 4 31 15 50 24 20 9 40 26 45 38 6 12
16 24 23 26 10 3 12 -14 11 -72 -1 -42 -5 -76 -10 -76 -5 0 -6 -6 -3 -13 3 -9
-9 -18 -37 -26 -44 -13 -67 -7 -28 7 56 21 55 20 36 21 -10 1 -34 -6 -55 -14
-20 -9 -46 -14 -57 -11 -13 3 -27 -2 -38 -14 -9 -11 -24 -20 -34 -20 -9 0 -13
-3 -10 -6 4 -4 20 -1 37 6 17 7 33 10 37 6 3 -3 -8 -11 -26 -17 -18 -6 -30
-13 -27 -16 2 -3 22 1 43 8 21 7 49 12 62 10 13 -2 27 3 31 9 5 8 11 -4 15
-29 4 -22 11 -41 17 -41 6 0 8 6 5 14 -3 8 -1 17 6 20 7 2 4 5 -5 5 -26 1 -24
47 2 54 19 5 20 0 21 -101 1 -59 1 -158 -1 -219 -1 -62 2 -113 6 -113 5 0 10
91 11 203 1 111 2 212 2 225 1 17 6 22 19 18 9 -2 33 -7 52 -10 33 -6 33 -5
-10 13 l-45 19 -1 81 c-1 70 2 81 15 79 10 -2 18 -17 21 -41 5 -34 10 -40 56
-61 28 -13 65 -27 83 -31 24 -5 31 -12 31 -31 0 -15 6 -24 15 -24 8 0 15 7 15
15 0 19 -1 19 56 -5 26 -12 54 -19 62 -18 7 2 -39 22 -105 46 -197 72 -203 76
-203 117 0 29 -4 36 -25 41 -37 9 -75 -4 -85 -29 l-9 -22 0 22 c-1 32 47 55
99 47 39 -6 40 -8 38 -42 -3 -42 -1 -44 141 -98 51 -19 104 -42 117 -51 29
-18 54 -11 54 16 0 15 5 19 18 15 16 -5 16 -5 0 9 -24 19 -23 30 1 17 17 -9
19 -20 16 -95 -1 -48 -5 -88 -8 -91 -3 -3 -43 10 -88 29 -46 19 -100 37 -119
41 -21 4 -9 -3 30 -18 80 -30 187 -75 180 -77 -3 0 -13 -2 -23 -4 -28 -5 -33
-15 -9 -15 25 0 26 -15 13 -155 -8 -82 -2 -124 10 -70 4 17 7 53 8 81 0 28 4
72 7 98 6 42 10 48 35 53 16 3 29 10 29 15 0 5 -12 7 -28 4 l-27 -7 3 78 c3
43 9 81 15 85 13 8 -39 68 -58 68 -6 0 -18 9 -28 20 -9 11 -24 20 -33 20 -13
0 -12 -4 6 -18 21 -17 20 -59 -2 -46 -6 4 -8 -2 -3 -15 6 -19 4 -20 -17 -12
-13 6 -68 28 -123 50 -98 39 -121 59 -96 84 15 15 61 -11 61 -34 0 -11 11 -20
31 -24 36 -8 50 0 17 10 -23 8 -38 22 -38 39 0 5 7 3 15 -4 8 -7 15 -9 15 -4
0 5 24 -15 53 -44 50 -49 53 -51 65 -32 11 18 10 20 -9 20 -11 0 -18 4 -15 9
3 5 -5 11 -17 15 -13 3 -41 26 -63 52 -71 84 -148 164 -159 164 -6 0 -5 -3 1
-8 11 -7 10 -83 -1 -102 -3 -5 -18 -8 -34 -8 -16 1 -44 -9 -64 -20 -27 -18
-33 -27 -30 -46 4 -18 -1 -27 -18 -36 -19 -11 -21 -10 -15 5 4 13 2 16 -9 11
-8 -3 -22 -3 -30 0 -12 5 -13 9 -4 21 8 9 14 10 19 3 4 -6 14 -8 24 -4 13 5
16 14 12 33 -3 14 -3 21 0 14 3 -7 18 2 39 23 19 19 41 34 49 34 9 0 13 6 10
13 -3 8 2 20 11 27 12 10 15 10 16 -1 2 -19 1 -22 -6 -41 -4 -10 -3 -18 3 -18
17 0 25 58 10 74 -11 12 -22 6 -73 -42 -103 -97 -138 -126 -191 -160 -52 -33
-74 -39 -74 -23 0 19 -40 22 -70 6 l-31 -16 2 418 c1 230 3 420 5 423 2 4
1906 6 2092 2z m-724 -1770 c2 -4 0 -14 -5 -22 -6 -11 -11 -12 -17 -3 -11 18
-45 -11 -39 -34 4 -16 6 -15 12 4 4 13 11 20 16 17 5 -3 3 -13 -3 -23 -12 -20
-4 -56 10 -47 5 3 22 -8 38 -25 16 -16 38 -29 49 -28 52 4 59 -9 21 -42 -22
-19 -23 -22 -9 -61 7 -22 12 -42 10 -45 -5 -4 -46 13 -69 29 -14 10 -21 8 -41
-10 -33 -31 -44 -27 -39 13 4 30 1 35 -16 35 -11 0 -25 7 -32 15 -10 13 -7 17
23 30 34 14 57 40 57 63 0 22 -57 -4 -65 -29 -7 -20 -22 -24 -44 -10 -11 7
-10 17 5 57 11 27 26 58 34 69 31 41 91 68 104 47z m-954 -298 c0 -116 14
-204 32 -204 6 0 7 8 3 18 -4 9 -10 55 -13 101 -4 74 -2 86 14 99 17 13 17 14
2 9 -10 -4 -18 -2 -18 3 0 5 8 14 18 20 16 11 16 11 0 6 -23 -7 -34 12 -12 21
16 6 16 7 -2 14 -18 7 -18 7 0 14 24 10 30 -1 51 -90 17 -72 15 -95 -8 -95 -8
0 -8 3 1 12 16 16 15 28 -3 28 -16 0 -20 -27 -6 -49 6 -9 11 -10 15 -2 11 16
26 13 26 -5 0 -9 -8 -23 -17 -30 -15 -11 -15 -13 -3 -14 11 0 10 -4 -5 -16
-19 -16 -19 -16 5 -9 l25 8 -20 -24 c-11 -13 -13 -18 -5 -11 21 18 35 15 19
-5 -13 -15 -12 -15 6 -5 34 18 61 41 48 42 -6 0 -15 -4 -18 -10 -3 -5 -11 -10
-16 -10 -6 0 -7 5 -4 10 3 6 1 10 -5 10 -6 0 -8 5 -5 10 3 6 1 10 -5 10 -6 0
-8 5 -5 11 5 7 13 5 24 -5 20 -19 41 -22 23 -4 -16 16 -15 28 3 28 8 0 15 7
15 16 0 8 4 13 10 9 6 -3 6 -15 0 -30 -6 -15 -6 -27 0 -30 18 -11 11 -23 -30
-52 -22 -15 -40 -31 -40 -35 0 -5 22 8 48 27 66 47 75 32 11 -16 -62 -46 -65
-49 -51 -49 6 0 24 11 40 25 16 13 32 22 35 18 3 -3 -4 -14 -16 -23 -20 -17
-20 -19 -5 -25 54 -21 -29 -24 -338 -12 -102 4 -122 15 -68 38 24 10 43 13 51
7 7 -5 14 -5 18 2 3 5 43 11 88 12 l82 2 -72 3 c-40 2 -73 5 -73 7 0 1 11 25
24 53 26 53 52 134 61 193 9 57 15 70 33 71 11 1 7 4 -8 9 -24 8 -23 8 8 9
l32 1 0 -116z m850 -64 c11 0 20 -5 20 -11 0 -6 7 -8 15 -5 9 3 15 1 14 -7 -4
-30 2 -38 20 -32 11 3 25 0 31 -7 8 -8 30 -12 61 -10 65 5 63 -12 -3 -26 -45
-9 -46 -10 -10 -6 33 3 42 1 42 -11 0 -8 -7 -15 -15 -15 -9 0 -12 -6 -9 -15 5
-11 -2 -15 -27 -16 -30 -2 -31 -2 -7 -6 l27 -4 -16 -41 c-15 -38 -15 -42 1
-54 14 -10 15 -16 6 -33 -14 -28 -22 -27 -14 3 3 15 1 25 -9 29 -10 4 -13 -1
-9 -20 4 -19 1 -24 -9 -21 -8 3 -15 14 -17 26 -2 13 -11 22 -21 22 -27 0 -82
30 -75 41 3 5 10 7 15 4 5 -4 9 -1 9 4 0 6 -9 11 -20 11 -27 0 -25 18 3 23 16
3 13 5 -10 6 -34 1 -47 20 -15 22 13 0 12 2 -5 9 -37 15 -26 23 20 16 29 -4
38 -3 27 4 -8 5 -24 10 -36 10 -11 0 -29 7 -40 15 -17 13 -14 14 36 9 59 -5
58 1 -2 11 -38 6 -68 27 -68 48 0 6 6 3 13 -7 15 -21 107 -36 107 -17 0 6 -7
11 -16 11 -8 0 -12 5 -9 10 4 6 -10 10 -34 10 -22 0 -43 5 -46 10 -4 7 2 9 19
4 16 -4 26 -2 26 5 0 6 -5 11 -11 11 -5 0 -7 5 -3 11 5 8 10 6 16 -5 5 -9 18
-16 28 -16z m672 -69 c-1 -28 -4 -61 -7 -71 -6 -20 -35 -28 -35 -10 0 6 4 10
10 10 6 0 6 9 1 23 -5 12 -14 21 -20 20 -6 -2 -17 -4 -23 -5 -7 -2 -20 -16
-28 -32 -11 -21 -23 -30 -45 -31 -35 -3 -90 -23 -83 -30 3 -3 24 2 48 10 55
19 57 19 35 -5 -10 -11 -15 -23 -12 -26 3 -4 18 7 32 24 14 17 31 29 38 28 27
-5 57 -18 57 -25 0 -10 -42 -8 -58 3 -16 10 -17 8 -27 -23 -7 -23 -5 -24 27
-18 46 7 67 -6 51 -32 -9 -15 -9 -23 2 -37 23 -31 17 -39 -9 -14 -15 13 -32
20 -40 17 -9 -4 -16 -2 -16 3 0 10 -98 -17 -118 -33 -10 -8 -11 -5 -3 15 5 14
7 28 4 31 -7 8 -27 -13 -36 -37 -5 -12 -14 -17 -27 -13 -30 8 -33 -8 -4 -22
35 -15 43 -14 83 13 36 24 107 44 97 27 -3 -5 1 -12 10 -15 10 -4 13 -2 8 7
-6 9 -5 9 8 0 8 -7 18 -10 21 -6 4 3 7 0 7 -7 0 -9 -11 -11 -41 -7 -29 4 -46
1 -56 -9 -8 -8 -27 -14 -43 -14 -16 0 -32 -4 -35 -10 -3 -5 -18 -10 -33 -10
-20 0 -23 -3 -14 -12 10 -10 17 -10 33 0 25 16 37 8 19 -13 -7 -8 -10 -21 -7
-29 3 -8 -5 -31 -19 -51 -24 -36 -33 -82 -14 -70 6 4 8 11 4 16 -10 16 17 39
46 39 56 0 98 -77 61 -113 -10 -9 -16 -7 -27 8 -8 11 -17 19 -20 18 -18 -9
-30 -30 -26 -49 6 -30 -13 -61 -48 -79 -27 -14 -31 -14 -36 0 -6 15 -3 33 11
68 5 13 3 17 -11 15 -28 -4 -30 15 -5 28 31 16 49 34 33 34 -7 0 -12 -5 -12
-11 0 -6 -8 -9 -18 -7 -11 3 -23 -2 -30 -13 -19 -29 -14 -49 11 -50 16 -1 18
-2 5 -6 -18 -5 -25 -23 -9 -23 4 0 6 -11 3 -25 -11 -62 90 -29 116 37 8 21 18
35 23 33 15 -10 60 15 69 40 10 27 26 33 33 13 2 -7 8 -10 12 -6 10 9 -22 41
-34 33 -12 -7 -25 31 -16 46 4 6 1 9 -6 8 -20 -4 -59 11 -59 22 0 5 6 9 13 9
6 0 4 5 -6 11 -25 15 -11 30 21 22 24 -6 26 -5 13 10 -12 15 -11 17 11 17 13
0 29 -5 36 -12 9 -9 12 -8 12 5 0 11 -8 17 -24 17 -13 0 -27 6 -30 13 -5 10
-7 10 -12 0 -8 -18 -25 -16 -18 1 8 20 36 29 44 15 6 -8 9 -8 14 0 4 6 2 11
-4 11 -6 0 -9 4 -5 9 7 12 66 -4 77 -21 11 -18 10 -68 -2 -68 -5 0 -10 -9 -10
-19 0 -11 -14 -31 -31 -46 -37 -31 -34 -44 4 -15 30 24 37 25 37 4 0 -8 -4
-12 -10 -9 -5 3 -10 -1 -10 -9 0 -9 5 -16 11 -16 7 0 9 -11 6 -29 -3 -16 -3
-32 1 -35 10 -11 12 -76 2 -76 -5 0 -11 13 -15 29 -4 21 -11 28 -21 24 -11 -4
-12 -9 -3 -19 6 -7 8 -18 4 -24 -3 -5 0 -17 8 -25 21 -21 32 -105 15 -116 -10
-7 -10 -11 -1 -17 7 -4 12 -30 11 -59 0 -49 -1 -51 -29 -55 -17 -3 -32 -1 -35
3 -2 5 -11 6 -18 3 -7 -3 -23 11 -37 30 -27 40 -34 43 -43 21 -3 -8 -13 -15
-22 -15 -13 0 -14 -3 -4 -15 10 -13 9 -15 -8 -15 -12 0 -32 -5 -46 -11 -20
-10 -31 -8 -61 11 l-37 23 6 120 c5 84 4 117 -4 112 -6 -4 -8 -20 -4 -40 3
-20 1 -35 -6 -40 -6 -4 -8 -16 -5 -26 4 -11 1 -26 -5 -34 -9 -11 -9 -15 -1
-15 7 0 11 -15 9 -40 -2 -43 -8 -49 -29 -24 -10 13 -10 17 2 26 9 6 10 11 3
14 -7 3 -8 23 -3 57 13 98 31 170 39 158 5 -9 9 -8 14 4 11 28 7 38 -9 25 -12
-10 -15 -10 -15 4 0 9 -4 16 -10 16 -5 0 -10 9 -10 20 0 11 5 20 10 20 6 0 9
-3 9 -7 -4 -22 3 -24 21 -8 11 10 20 25 20 34 1 13 3 13 15 -3 8 -11 18 -16
22 -12 4 4 2 10 -4 14 -12 8 2 129 18 147 5 7 -5 22 -26 39 -22 18 -40 47 -50
77 -9 27 -21 51 -26 54 -12 8 -12 35 1 35 5 0 16 -16 25 -36 9 -21 19 -33 26
-29 8 5 8 10 0 18 -20 20 -12 34 30 52 34 16 44 17 61 6 25 -16 36 -6 20 19
-7 12 -8 21 -2 25 19 12 63 16 69 7 9 -14 122 40 116 56 -2 6 2 12 10 12 8 0
15 -4 15 -10 0 -5 4 -10 9 -10 12 0 20 49 10 56 -5 3 -9 13 -9 22 0 15 1 15
16 0 11 -10 16 -33 16 -67z m-1790 -12 c-2 -24 -8 -46 -14 -48 -6 -2 -6 -6 2
-11 20 -12 -5 -48 -32 -45 -13 1 -16 0 -7 -2 12 -3 16 -13 14 -35 -2 -30 -4
-31 -58 -34 -61 -3 -69 1 -60 35 6 23 28 24 28 0 0 -9 12 -15 30 -16 17 -1 22
1 13 3 -10 3 -18 12 -18 20 0 8 -5 14 -11 14 -8 0 -9 12 -5 33 6 32 5 32 -8 7
-8 -14 -18 -24 -22 -23 -11 4 -11 83 1 83 5 0 3 5 -5 10 -13 8 -12 10 3 10 10
0 22 -11 27 -25 6 -15 15 -23 24 -19 18 7 31 -15 17 -29 -6 -6 -11 -16 -11
-21 1 -26 40 42 40 69 0 35 26 78 43 72 8 -2 11 -21 9 -48z m-132 -204 c-7 -8
-8 -15 -2 -15 5 0 15 7 22 15 15 18 91 17 97 -1 2 -7 -11 -27 -29 -47 l-33
-35 23 -8 c23 -9 23 -9 -14 -46 -20 -21 -32 -38 -27 -38 5 0 24 16 43 35 19
19 42 35 53 35 10 0 15 5 12 11 -4 6 -13 8 -19 6 -7 -3 -19 -2 -26 3 -9 6 -7
15 11 39 22 30 23 30 36 11 10 -15 14 -60 14 -176 0 -86 -2 -159 -5 -162 -3
-3 -6 9 -6 27 l0 32 -57 -1 c-122 -3 -113 -9 -113 66 0 64 1 66 23 60 12 -4
38 -10 57 -13 19 -3 36 -6 38 -8 2 -2 -13 -22 -34 -44 -20 -23 -34 -44 -31
-47 7 -7 76 68 77 84 0 6 10 13 23 13 26 2 18 3 -83 19 l-75 12 2 86 c1 48 2
90 3 95 0 4 7 7 16 7 14 0 14 -3 4 -15z m440 -6 c0 -5 7 -9 16 -9 10 0 14 -6
10 -15 -3 -9 0 -15 9 -15 9 0 12 6 9 15 -4 8 -1 15 5 15 6 0 11 -7 11 -15 0
-9 9 -15 23 -14 16 1 18 2 5 6 -18 5 -25 23 -9 23 24 0 32 -28 19 -69 -12 -37
-28 -55 -28 -31 0 16 -80 12 -86 -4 -3 -7 -4 -33 -2 -57 l4 -44 8 53 c10 59
18 61 20 6 1 -48 26 -59 26 -12 0 18 5 40 11 48 8 11 9 0 5 -42 -5 -49 -3 -61
14 -78 28 -28 25 -59 -10 -102 -26 -31 -28 -37 -15 -48 9 -7 18 -10 22 -6 3 3
1 6 -5 6 -6 0 -9 7 -6 15 10 26 24 17 24 -16 0 -19 -4 -28 -11 -23 -8 5 -8 1
0 -14 15 -27 14 -44 -2 -67 -13 -17 -16 -16 -51 21 l-36 39 -40 -44 -41 -44
-19 21 c-10 11 -22 32 -26 46 -5 23 -3 26 22 27 l29 2 -26 4 c-24 4 -27 8 -26
44 1 21 5 39 9 39 4 0 8 -6 8 -13 0 -7 9 -19 19 -27 11 -7 18 -17 15 -22 -6
-9 10 -11 19 -2 9 9 -45 85 -57 81 -7 -3 -12 14 -14 43 -3 44 -1 48 18 43 11
-3 20 -8 20 -12 0 -11 69 -81 80 -81 6 0 9 4 5 9 -3 5 3 12 12 14 12 3 9 5 -8
6 -15 0 -33 8 -40 17 -11 14 -10 18 6 30 10 8 14 14 9 14 -6 0 -15 -5 -22 -12
-9 -9 -13 -7 -18 5 -3 9 -15 17 -25 17 -26 0 -42 42 -28 77 8 22 12 25 20 13
8 -12 10 -10 6 8 -5 19 -3 21 9 11 8 -7 13 -18 10 -25 -3 -7 0 -16 5 -20 6 -3
8 -17 5 -30 -4 -14 -2 -24 4 -24 5 0 10 24 10 55 0 34 4 55 11 55 6 0 9 -10 6
-22 -2 -13 -1 -34 3 -48 l8 -25 1 28 c1 38 2 40 12 60 9 16 2 17 -81 17 -65 0
-90 3 -90 13 -1 36 -18 -27 -24 -88 -8 -92 -10 -384 -2 -392 3 -4 6 54 7 128
1 74 4 175 8 224 l8 90 3 -105 c2 -72 5 -96 10 -75 l8 30 1 -32 c0 -17 -3 -35
-9 -38 -6 -4 -10 -69 -10 -163 0 -86 -4 -163 -8 -169 -7 -10 -14 -10 -35 0
l-27 12 5 309 c3 170 8 313 11 317 3 5 10 7 15 4 5 -3 6 1 3 9 -8 21 6 20 22
-1 13 -17 13 -17 14 0 0 9 5 17 11 17 6 0 9 -7 5 -15 -4 -12 3 -15 29 -15 26
0 35 4 36 18 1 16 2 16 6 0 5 -22 23 -24 23 -3 0 8 5 15 11 15 6 0 9 -7 5 -15
-4 -12 4 -15 40 -15 42 0 44 1 34 20 -8 15 -21 20 -56 20 -25 0 -43 3 -40 8 6
10 96 2 96 -9z m190 -334 c9 -6 11 -41 8 -142 -5 -114 -8 -136 -24 -147 -17
-13 -17 -14 4 -20 12 -4 20 -11 17 -16 -3 -4 3 -11 12 -15 17 -6 45 18 56 48
6 17 15 6 19 -25 4 -30 34 -68 55 -68 25 0 13 -26 -17 -37 -24 -9 -30 -17 -30
-42 0 -36 -3 -38 -29 -12 -17 17 -24 18 -50 8 -20 -7 -26 -14 -18 -19 7 -4 7
-8 2 -8 -26 0 -33 22 -18 60 14 34 14 42 0 69 -9 17 -11 31 -6 31 5 0 9 5 9
10 0 6 -8 10 -17 8 -12 -2 -17 2 -14 12 2 8 5 83 6 165 2 95 0 137 -6 115 -4
-19 -8 -86 -8 -149 0 -66 -5 -119 -11 -125 -7 -7 -9 14 -5 69 l4 80 -10 -75
c-8 -55 -7 -80 1 -94 9 -14 9 -17 -2 -14 -8 3 -13 23 -14 57 -1 68 -14 79 -15
13 -2 -88 -10 -103 -19 -37 l-7 50 -1 -51 -2 -52 44 5 c42 5 45 3 61 -26 14
-27 14 -34 2 -52 -13 -18 -16 -19 -31 -4 -13 13 -19 14 -38 3 -13 -6 -31 -11
-42 -9 -10 1 -23 -3 -27 -11 -7 -10 -9 -9 -9 5 0 21 -13 22 -30 2 -20 -24 -30
-18 -20 11 18 47 13 56 -22 49 -32 -7 -62 -24 -55 -32 2 -2 17 3 33 12 26 13
29 13 32 -1 2 -8 -3 -25 -12 -38 -14 -22 -13 -24 10 -34 28 -13 30 -24 8 -43
-12 -10 -20 -10 -35 -1 -25 16 -26 15 -32 -9 -9 -34 -41 -20 -47 21 -4 24 -8
31 -14 22 -13 -21 3 -85 20 -78 8 3 14 -1 14 -9 0 -8 5 -15 10 -15 6 0 10 5
10 11 0 7 9 0 21 -15 27 -34 59 -35 59 -1 0 13 -7 28 -17 33 -15 9 -14 11 3
20 21 11 54 -1 41 -15 -5 -4 -12 -1 -17 7 -6 9 -10 10 -10 3 0 -7 7 -16 16
-21 16 -9 16 -11 0 -33 -9 -13 -28 -61 -41 -106 -14 -45 -31 -86 -38 -90 -20
-13 -100 -31 -114 -26 -7 3 -13 11 -13 19 0 8 -6 15 -12 16 -7 0 7 4 32 8 l45
7 -52 1 c-29 1 -53 7 -53 12 0 6 8 10 18 11 11 1 9 3 -7 8 -39 11 -39 32 1 26
31 -5 30 -4 -7 8 l-40 14 40 5 40 5 -43 1 c-36 2 -44 6 -53 28 -5 15 -7 29 -4
32 2 3 -3 11 -13 18 -16 12 -15 13 6 14 15 0 22 -6 22 -19 0 -11 3 -27 7 -36
5 -15 8 -15 24 6 16 21 20 23 40 11 14 -9 25 -10 31 -4 7 7 -1 12 -21 17 -49
11 -39 31 14 27 l45 -4 -11 31 c-6 18 -9 45 -7 61 3 17 1 30 -4 30 -4 0 -8 -5
-8 -12 0 -6 -3 -8 -6 -5 -4 4 -1 14 6 22 10 12 15 13 21 4 6 -10 11 -10 23 0
18 15 36 7 36 -16 0 -13 -2 -13 -17 -2 -14 12 -16 12 -11 -1 7 -21 34 -24 42
-5 3 9 -1 24 -10 32 -13 13 -20 14 -35 5 -15 -10 -20 -8 -30 9 -6 11 -8 23 -5
26 3 4 1 12 -4 18 -7 9 -6 16 5 25 13 11 15 9 13 -11 -2 -14 3 -24 12 -26 11
-3 16 4 15 24 0 21 5 28 18 27 9 -1 17 2 17 7 0 5 -5 9 -11 9 -6 0 -8 17 -5
48 5 38 4 42 -4 17 -5 -16 -11 -42 -14 -56 -5 -21 -11 -26 -35 -26 -27 0 -29
3 -19 20 5 11 7 34 4 51 -4 22 -3 27 4 16 8 -12 10 -11 10 7 0 12 -6 23 -12
26 -10 4 -10 7 0 18 15 16 16 33 0 23 -8 -5 -9 -2 -5 10 4 10 8 48 9 84 2 65
2 66 5 13 4 -49 8 -57 53 -101 56 -54 91 -65 138 -43 49 23 75 67 79 132 1 31
5 70 8 87 5 30 7 31 39 24 19 -4 39 -11 46 -15z m-622 -30 c0 -25 2 -48 5 -52
4 -3 8 16 8 43 1 40 2 44 8 19 3 -16 11 -29 16 -28 6 1 9 -5 9 -13 -1 -8 6
-14 15 -14 14 -1 13 -3 -3 -15 -17 -13 -13 -14 35 -17 l54 -3 -2 -70 c-1 -38
-5 -94 -9 -124 -7 -52 -6 -54 14 -49 14 4 32 -2 47 -14 30 -23 27 -36 -3 -17
-28 17 -56 4 -49 -23 6 -22 -8 -58 -22 -58 -9 0 -5 75 5 92 8 13 -14 28 -43
28 -21 0 -23 5 -23 50 0 29 5 50 11 50 6 0 9 -16 8 -40 -2 -21 0 -42 4 -46 4
-4 7 14 7 39 0 26 5 47 10 47 6 0 10 -21 11 -47 1 -55 5 -48 12 17 l4 45 -73
-3 -74 -4 0 -29 c0 -17 4 -28 9 -25 5 3 7 15 4 26 -6 24 12 27 21 4 9 -24 7
-84 -3 -84 -5 0 -12 10 -15 23 -7 21 -7 21 -16 2 -8 -18 -9 -18 -9 5 1 14 0
51 -1 83 -2 52 1 60 29 86 39 36 39 51 2 51 -17 0 -33 5 -36 10 -3 6 -1 10 4
10 6 0 11 20 11 45 0 25 5 45 10 45 6 0 9 -20 8 -45z m104 -344 c-2 -8 -4 -27
-5 -42 -1 -21 -11 -32 -35 -44 -28 -13 -32 -18 -22 -30 7 -8 19 -15 27 -15 8
0 11 -5 8 -11 -4 -6 -13 -8 -21 -5 -17 7 -19 -20 -1 -27 9 -4 8 -8 -3 -16 -12
-8 -12 -11 4 -17 18 -7 116 -198 116 -227 0 -9 -6 -17 -12 -19 -9 -3 -3 -16
15 -37 15 -18 25 -36 23 -40 -3 -4 -8 -22 -11 -40 -5 -29 -12 -50 -50 -151
l-13 -35 -74 0 -73 0 -5 198 -5 197 30 2 30 1 -27 4 c-17 3 -28 11 -29 21 -7
134 -7 262 0 266 5 3 5 21 1 40 -4 19 -5 37 -3 40 3 3 35 4 72 3 51 -2 65 -5
63 -16z m1239 -64 c-11 -27 -34 -36 -46 -17 -4 6 -1 17 5 25 8 10 9 15 2 15
-20 0 -26 -43 -7 -56 21 -15 55 -2 55 21 0 18 36 20 46 3 4 -6 0 -16 -9 -23
-9 -7 -23 -27 -31 -45 -13 -33 -14 -33 -25 -11 -14 26 -26 21 -39 -19 -13 -35
0 -41 15 -7 9 18 10 15 8 -23 -1 -25 -6 -53 -10 -62 -11 -27 -26 -21 -15 6 6
18 5 28 -6 37 -8 6 -12 19 -10 28 3 9 8 29 12 45 l7 28 -27 -17 c-35 -23 -40
-16 -26 33 11 34 10 43 -6 68 -15 22 -16 27 -4 22 48 -18 58 -18 81 1 24 19
24 19 32 -3 4 -13 3 -35 -2 -49z m-770 -14 c13 -15 11 -16 -16 -10 -28 7 -29
6 -11 -8 19 -15 19 -15 -3 -15 -16 0 -21 -5 -19 -17 2 -11 11 -17 23 -15 19 2
19 2 3 -11 -24 -19 -23 -41 2 -58 11 -8 23 -29 26 -47 l7 -34 -59 6 -59 5 62
-12 c34 -7 64 -15 68 -18 3 -4 16 -36 29 -72 21 -60 22 -67 7 -82 -15 -15 -14
-18 13 -40 l30 -24 -13 -58 c-7 -32 -20 -84 -29 -115 l-15 -58 -84 0 c-59 0
-83 4 -84 13 0 9 -2 9 -6 0 -2 -7 -13 -13 -22 -13 -15 0 -22 17 -36 88 -10 48
-19 96 -20 107 -1 11 -4 27 -8 35 -15 37 -25 90 -16 90 5 0 9 -12 9 -26 0 -16
4 -23 11 -18 7 4 8 20 4 41 -5 26 -3 33 6 27 9 -5 10 -2 6 10 -5 14 -3 17 8
12 8 -3 15 -1 15 3 0 5 -5 11 -11 13 -15 5 10 88 46 153 18 31 24 50 16 53
-19 6 -13 18 17 32 l27 12 -22 11 c-31 14 -29 25 5 21 15 -2 21 -1 15 2 -21 9
-15 26 6 19 11 -3 22 -1 26 5 9 15 31 12 46 -7z m203 -8 c4 -15 0 -37 -9 -55
-18 -35 -19 -56 -4 -99 14 -41 26 -39 25 4 -1 19 -4 35 -8 35 -11 0 -9 43 2
60 8 11 9 8 4 -11 -3 -15 -1 -30 5 -33 6 -4 8 -20 4 -39 -6 -28 -4 -30 9 -19
27 22 27 -7 2 -88 -25 -79 -30 -110 -15 -110 4 0 14 28 21 63 7 34 17 67 22
73 4 6 10 25 12 43 4 35 12 48 23 37 4 -4 1 -11 -7 -16 -12 -8 -12 -10 -1 -10
11 0 11 -3 1 -15 -7 -8 -9 -15 -5 -15 4 0 2 -7 -5 -15 -6 -8 -13 -24 -14 -37
-10 -78 -42 -138 -65 -123 -6 3 -9 0 -6 -7 7 -18 -10 -42 -24 -34 -6 4 -11 16
-11 26 0 10 -9 22 -21 25 -30 10 -36 -3 -11 -21 26 -18 29 -34 7 -34 -9 0 -21
12 -27 28 -20 49 -19 54 12 50 37 -6 29 8 -10 17 -33 7 -51 25 -25 25 12 0 14
4 5 19 -8 16 -6 20 8 24 13 4 11 5 -5 6 -14 1 -23 7 -23 17 0 12 7 15 28 11
l27 -6 -27 11 c-14 6 -29 18 -32 27 -3 9 -8 21 -11 27 -4 7 5 9 25 6 17 -2 30
0 30 6 0 6 8 13 18 15 11 3 7 5 -10 6 -14 0 -29 -5 -32 -11 -6 -17 -36 19 -35
41 1 13 2 12 6 -1 5 -19 18 -24 27 -9 4 5 1 11 -6 13 -9 3 -9 6 1 12 8 5 14 1
18 -13 4 -15 13 -21 32 -21 21 0 30 8 44 42 10 23 17 55 15 70 -6 35 8 37 16
3z m36 -394 c0 -6 -5 -13 -10 -16 -6 -4 -7 -13 -2 -23 5 -9 14 -50 21 -90 7
-39 21 -90 32 -112 10 -21 19 -40 19 -42 0 -3 -233 2 -236 5 -1 1 5 25 14 54
15 48 18 52 41 47 l26 -5 -25 15 -25 15 30 1 c29 1 29 1 6 11 -31 12 -21 22
13 13 20 -5 25 -11 22 -28 -12 -58 -15 -105 -7 -110 5 -3 12 13 15 36 4 23 12
46 19 50 9 6 9 8 0 8 -19 0 -16 20 5 37 9 8 11 12 5 8 -9 -4 -13 4 -13 29 0
27 4 36 18 37 16 1 16 2 0 6 -23 6 -23 17 -1 43 19 21 33 26 33 11z m542 -38
c17 -5 23 -20 50 -128 5 -22 16 -53 24 -68 8 -16 14 -32 14 -35 0 -4 -57 -8
-126 -10 -119 -3 -126 -2 -119 15 4 10 10 28 12 41 3 12 9 25 14 28 5 3 9 14
9 26 0 14 5 18 15 15 8 -4 17 -1 21 5 4 6 3 8 -2 5 -6 -3 -16 -2 -24 4 -11 6
-7 9 15 10 24 1 25 3 8 6 -22 4 -33 23 -13 23 5 0 7 7 4 15 -5 11 1 15 20 15
14 0 26 -4 26 -10 0 -5 -8 -10 -17 -10 -15 0 -15 -2 -4 -9 11 -7 14 -26 12
-68 -4 -90 15 -51 22 45 5 69 4 82 -9 82 -8 0 -12 5 -9 11 4 6 14 7 24 4 9 -4
24 -10 33 -12z m783 -12 c-6 -5 -19 -11 -30 -14 -11 -2 -5 -3 13 -1 l32 3 0
-84 c0 -58 -4 -85 -12 -88 -7 -2 -38 -2 -68 1 -30 2 -51 1 -47 -4 8 -8 21 -10
95 -13 34 -1 38 -7 22 -31 -8 -13 -12 -13 -32 -1 -16 10 -23 10 -26 2 -2 -6
-14 -11 -26 -11 -36 0 -82 104 -54 122 10 6 9 8 -2 8 -10 0 -20 15 -27 40 -10
38 -9 40 9 35 10 -4 17 -2 16 3 -2 6 1 11 7 11 5 1 11 -18 12 -41 2 -23 8 -47
14 -52 9 -8 10 0 5 32 -3 23 -3 54 0 67 6 23 11 25 57 25 31 0 47 -4 42 -9z
m-1815 -12 c0 -6 -7 -9 -15 -5 -19 7 -20 -3 -1 -18 7 -6 23 -40 36 -76 13 -36
26 -69 30 -75 29 -42 24 -44 -100 -44 -66 0 -122 4 -125 9 -4 6 2 10 12 10 15
0 15 2 4 9 -12 7 -12 13 -3 24 7 7 8 17 4 22 -4 4 9 5 28 2 30 -5 32 -4 13 5
-28 14 -30 32 -3 25 11 -3 20 -1 20 4 0 5 -7 9 -15 9 -9 0 -15 9 -15 21 0 17
4 20 23 16 20 -5 20 -5 5 7 -22 16 -23 26 -4 26 31 0 37 -25 25 -95 -7 -40 -8
-70 -2 -76 5 -5 9 -2 10 9 1 9 7 59 14 110 11 86 14 92 36 92 12 0 23 -5 23
-11z"/>
<path d="M1026 3872 c11 -7 44 -76 44 -93 0 -4 -10 -10 -22 -12 -13 -2 29 -4
92 -4 63 -1 108 1 99 4 -10 2 -19 19 -22 39 -7 42 -1 61 21 67 10 3 -37 5
-103 6 -66 0 -115 -3 -109 -7z"/>
<path d="M1675 2416 c-19 -13 -19 -15 -2 -21 27 -11 20 -22 -15 -23 -18 0 -34
-5 -36 -11 -2 -6 -19 -13 -38 -17 -19 -3 -37 -10 -39 -14 -6 -10 42 -7 51 3 3
3 21 3 40 0 22 -4 34 -2 34 6 0 6 14 11 30 11 17 0 30 -3 30 -7 0 -5 34 -8 75
-8 41 0 75 3 75 8 0 4 -10 8 -22 9 -13 1 13 5 57 8 l80 6 -90 2 c-83 2 -115
11 -115 32 0 4 35 6 78 4 74 -3 75 -2 27 7 -98 19 -198 22 -220 5z"/>
</g>
</svg>
