<?xml version="1.0" standalone="no"?>
<!DOCTYPE svg PUBLIC "-//W3C//DTD SVG 20010904//EN"
 "http://www.w3.org/TR/2001/REC-SVG-20010904/DTD/svg10.dtd">
<svg version="1.0" xmlns="http://www.w3.org/2000/svg"
 width="233.000000pt" height="400.000000pt" viewBox="0 0 233.000000 400.000000"
 preserveAspectRatio="xMidYMid meet">
<metadata>
Created by potrace 1.15, written by Peter Selinger 2001-2017
</metadata>
<g transform="translate(0.000000,400.000000) scale(0.100000,-0.100000)"
fill="#000000" stroke="none">
<path d="M1858 3965 c-2 -3 -408 -6 -900 -7 l-896 -2 -5 -40 c-2 -23 -5 -403
-6 -846 -5 -1901 -6 -2745 -3 -2887 l3 -153 172 5 c95 3 583 7 1086 10 503 3
916 7 919 9 6 7 3 2933 -4 3441 -5 324 -10 462 -18 467 -12 8 -340 11 -348 3z
m345 -177 c10 -238 9 -2498 -1 -2498 -5 0 -20 12 -34 28 -38 39 -50 117 -36
229 13 109 4 207 -25 265 -18 35 -34 49 -87 76 -59 31 -71 33 -140 30 -62 -2
-88 -9 -145 -38 -56 -28 -75 -44 -95 -79 -37 -65 -47 -62 -42 14 6 87 -26 310
-48 340 -4 6 -15 34 -25 64 -10 30 -27 70 -38 89 -11 19 -23 51 -27 71 -4 27
-10 36 -24 34 -28 -2 -48 22 -41 50 7 28 -9 44 -49 49 -16 1 -31 9 -34 16 -3
11 -1 11 17 1 25 -16 51 1 34 23 -6 7 -13 30 -17 51 -6 33 -9 37 -22 26 -11
-9 -12 -14 -3 -19 6 -4 8 -13 4 -20 -5 -8 -11 -4 -20 12 -7 15 -8 27 -2 36 6
8 6 12 -2 12 -19 0 -70 61 -101 122 -53 103 -138 178 -199 178 -44 0 -131 -22
-125 -32 3 -4 10 -5 16 -2 7 5 9 0 6 -14 -4 -12 -2 -20 3 -16 5 3 9 11 9 18 0
26 107 36 146 13 29 -17 74 -71 119 -142 21 -33 48 -71 61 -85 22 -24 54 -122
54 -167 0 -33 -29 -18 -37 18 -5 27 -23 41 -23 18 0 -5 -4 -8 -9 -4 -12 7 -41
105 -41 136 0 18 -3 20 -12 11 -15 -15 6 -128 27 -152 8 -9 12 -25 9 -37 -8
-28 31 -85 54 -81 23 4 17 -33 -13 -92 -13 -25 -40 -89 -61 -142 -20 -54 -39
-98 -41 -98 -2 0 -13 4 -23 10 -15 8 -18 6 -16 -15 0 -14 7 -25 13 -25 17 0
28 -49 14 -63 -8 -8 -11 -7 -11 4 -1 30 -37 59 -73 59 -55 0 -67 8 -67 45 0
31 44 115 61 115 13 0 -14 -85 -34 -107 -22 -25 -20 -27 45 -38 44 -7 52 10 9
20 l-28 6 22 86 c13 48 29 91 37 97 8 6 13 17 11 24 -6 16 3 15 34 -5 26 -17
27 -17 19 2 -5 11 -11 30 -14 43 -3 17 -10 22 -23 19 -15 -4 -19 0 -19 19 0
15 5 22 13 18 7 -2 25 5 40 16 21 17 27 30 27 63 1 56 -51 218 -67 212 -8 -2
-13 4 -13 15 0 11 7 20 15 20 8 0 15 -4 15 -10 0 -5 5 -10 10 -10 12 0 13 40
2 58 -11 16 -34 7 -51 -20 -15 -24 -6 -174 11 -184 7 -5 9 14 6 54 -2 34 -3
61 -2 59 1 -1 16 -37 33 -80 35 -88 39 -132 14 -159 -21 -24 -43 -23 -43 2 0
11 -7 23 -15 26 -8 4 -15 15 -15 26 0 10 -6 31 -14 46 -8 15 -17 64 -21 108
-8 84 5 135 43 178 14 15 14 18 2 14 -23 -7 -58 -77 -65 -127 -3 -26 -1 -71 4
-101 8 -51 7 -81 -3 -49 -21 70 -47 204 -43 219 3 11 1 20 -4 20 -8 0 -12 -15
-12 -45 0 -5 3 -28 6 -50 8 -54 -7 -26 -26 48 -10 38 -12 68 -7 87 10 34 4 38
-16 13 -13 -17 -14 -17 -8 2 6 20 5 20 -10 1 -12 -15 -16 -16 -16 -5 -1 8 -7
2 -15 -12 -17 -31 -22 -144 -7 -179 5 -14 16 -44 23 -68 12 -42 25 -59 35 -49
3 3 -1 18 -9 34 -20 40 -28 93 -19 128 8 28 9 26 16 -25 4 -30 11 -61 15 -69
13 -20 23 3 12 31 -4 12 -11 46 -14 73 l-7 50 23 -64 c12 -36 28 -67 35 -69 8
-2 10 3 6 15 -5 15 -4 15 5 3 6 -8 11 -28 11 -44 0 -29 37 -106 52 -106 4 0 8
-6 8 -14 0 -7 7 -19 15 -26 8 -7 15 -22 15 -34 -1 -19 -1 -20 -11 -3 -10 17
-12 16 -31 -8 -11 -14 -24 -23 -28 -20 -5 3 -16 -5 -25 -19 l-16 -24 -42 38
c-24 22 -42 48 -42 62 -1 13 -11 41 -22 63 -12 22 -27 59 -34 83 -7 23 -16 39
-21 34 -9 -9 22 -100 46 -137 9 -13 13 -31 10 -39 -3 -8 9 -31 30 -54 20 -22
36 -45 36 -53 0 -7 -13 2 -30 21 -16 19 -29 30 -30 24 0 -7 -16 -11 -40 -10
-22 1 -40 0 -40 -4 0 -13 36 -35 53 -32 9 2 17 -1 17 -7 0 -30 -72 2 -132 58
-40 37 -49 33 -22 -9 13 -21 11 -20 -11 4 -22 24 -25 35 -21 62 6 31 -7 144
-21 180 -4 11 -2 15 4 11 6 -4 18 -33 27 -66 18 -66 40 -94 29 -39 -3 18 -10
41 -14 50 -6 10 -5 19 1 23 6 3 13 -2 16 -12 20 -62 33 -87 33 -66 1 12 -3 33
-8 46 -8 20 -6 27 5 31 26 10 29 7 43 -41 17 -59 39 -103 50 -103 5 0 -5 35
-23 78 -31 75 -33 77 -67 77 -47 0 -89 29 -89 60 0 18 4 23 18 19 9 -2 7 1 -5
7 -26 13 -32 34 -7 25 8 -3 13 -2 10 3 -3 5 1 14 9 21 8 7 15 17 15 23 0 5 -8
3 -18 -6 -20 -19 -37 -23 -27 -7 3 6 1 10 -5 10 -7 0 -9 -7 -6 -15 4 -10 -2
-19 -15 -23 -19 -7 -19 -9 -5 -21 17 -14 22 -41 8 -41 -5 0 -8 -26 -7 -57 2
-50 1 -55 -11 -38 -18 24 -29 13 -15 -13 16 -30 13 -40 -4 -18 -8 11 -15 14
-15 7 0 -7 13 -29 29 -49 16 -20 31 -48 35 -62 11 -47 43 -85 92 -109 27 -14
57 -24 66 -24 25 2 23 -13 -2 -20 -27 -7 -36 -34 -17 -55 11 -12 13 -22 6 -32
-7 -12 -10 -11 -15 8 -7 23 -19 29 -29 13 -3 -5 -1 -12 5 -16 5 -3 10 -19 10
-36 0 -16 4 -29 10 -29 5 0 7 -7 4 -15 -4 -8 -12 -15 -20 -15 -8 0 -14 -6 -14
-12 0 -9 -3 -8 -10 2 -6 9 -5 17 2 21 7 4 7 13 -1 28 -9 17 -21 21 -59 21 -33
0 -43 -3 -32 -10 8 -5 25 -7 36 -4 27 7 40 -12 23 -32 -9 -12 -10 -17 -1 -23
8 -5 7 -17 -3 -46 -8 -22 -14 -48 -15 -57 0 -10 -4 -18 -9 -18 -5 0 -7 -10 -5
-22 l5 -23 -10 23 c-12 25 -27 28 -50 9 -26 -21 -71 -38 -71 -26 0 5 15 16 33
24 28 13 29 14 8 15 -22 0 -23 3 -17 48 3 26 8 61 11 77 3 17 6 38 6 47 0 12
14 22 40 29 43 13 50 26 17 31 -21 3 -21 4 -4 21 10 9 16 17 14 18 -33 8 -45
4 -70 -23 l-29 -31 4 37 c2 20 0 39 -4 42 -5 3 -9 -2 -9 -10 0 -9 -5 -16 -11
-16 -16 0 -3 46 23 80 21 29 18 50 -8 50 -18 0 -18 21 -1 63 20 48 30 107 17
107 -5 0 -10 -12 -10 -27 0 -15 -10 -52 -22 -81 l-23 -54 25 -20 c14 -12 20
-22 13 -26 -30 -20 -45 -98 -20 -107 6 -3 13 -19 14 -37 1 -17 9 -38 16 -47
12 -14 12 -28 0 -96 -8 -44 -21 -92 -29 -107 -15 -29 -3 -85 16 -73 5 3 10 -3
10 -13 0 -59 78 -194 122 -211 15 -5 14 -11 -10 -48 -15 -23 -33 -42 -39 -43
-17 0 -43 -62 -32 -74 6 -6 13 -6 21 2 18 18 30 14 19 -6 -5 -9 -7 -30 -4 -45
3 -17 1 -27 -7 -27 -7 0 -10 7 -6 16 4 10 1 14 -6 12 -23 -8 -21 -38 1 -38 12
0 21 -4 21 -9 0 -12 -29 -23 -42 -15 -6 4 -8 -2 -6 -12 2 -11 13 -20 26 -22
17 -3 21 0 15 14 -6 16 -5 17 9 4 14 -13 15 -17 3 -26 -11 -8 -12 -19 -6 -42
6 -21 6 -32 -2 -35 -19 -6 15 -35 35 -29 15 3 18 -2 18 -29 l0 -34 -62 3 c-35
2 -87 3 -117 2 -48 0 -57 3 -95 37 -22 20 -55 59 -73 87 -18 27 -45 57 -60 67
-36 24 -82 25 -90 2 -4 -10 -9 -20 -12 -23 -15 -12 -61 -87 -61 -98 0 -14 -36
-52 -48 -52 -9 0 -6 2643 3 2697 l6 31 891 1 c490 1 894 4 897 6 2 3 77 5 166
5 l162 0 6 -162z m-704 -1562 c34 -101 50 -186 57 -298 4 -60 11 -108 15 -108
11 0 12 -61 1 -76 -10 -15 -41 -30 -80 -37 -32 -7 -33 -6 -17 15 11 17 15 49
15 128 0 58 3 123 8 145 7 39 7 38 12 -25 3 -36 3 -105 0 -153 -3 -49 -2 -91
1 -93 12 -7 20 65 20 184 0 140 -26 273 -70 369 -37 79 -39 87 -6 43 13 -18
33 -60 44 -94z m-105 87 c32 -64 48 -178 44 -320 -4 -142 -30 -283 -53 -283
-27 0 -32 21 -19 76 7 30 8 54 3 54 -4 0 -6 7 -2 17 12 32 23 -25 14 -75 -11
-57 -7 -66 9 -18 14 43 21 168 8 160 -4 -3 -8 2 -8 11 0 12 6 15 20 10 17 -5
20 -2 20 24 0 20 -7 34 -20 41 -19 10 -19 12 -5 27 20 19 20 151 0 198 -11 27
-34 79 -43 98 -2 4 1 7 7 7 6 0 17 -12 25 -27z m76 -107 c26 -79 36 -152 22
-168 -5 -7 -13 -74 -16 -148 -7 -145 -17 -185 -47 -193 -21 -6 -21 -7 8 103 8
31 17 123 19 210 5 135 3 164 -15 225 -24 86 -2 63 29 -29z m-492 -192 c19
-21 31 -31 28 -21 -3 9 -1 28 4 42 8 22 12 23 40 14 27 -10 42 -29 22 -29 -4
0 -19 -21 -32 -46 -23 -41 -28 -45 -55 -39 -16 3 -43 19 -60 35 -17 17 -40 30
-50 31 -20 0 -20 1 0 9 17 7 17 9 3 9 -10 1 -18 6 -18 12 0 7 15 10 40 7 22
-2 40 1 40 6 0 5 -24 6 -55 3 -33 -3 -53 -2 -50 4 4 5 12 9 20 9 8 0 16 4 20
9 3 6 -10 5 -30 0 -20 -6 -42 -8 -48 -6 -7 2 5 8 26 12 21 4 43 15 49 25 11
17 38 17 38 -1 0 -4 -7 -6 -16 -2 -14 5 -15 3 -4 -16 16 -30 34 -21 39 20 l5
34 5 -41 c4 -26 18 -55 39 -80z m-149 12 c6 -4 11 -15 11 -24 -1 -15 -2 -15
-15 2 -7 10 -18 15 -24 11 -17 -10 -13 -25 7 -26 16 -1 16 -2 0 -6 -10 -2 -18
-8 -18 -12 0 -11 41 -43 48 -37 3 4 -3 12 -13 20 -17 12 -17 13 6 20 48 16 57
15 74 -4 17 -19 17 -21 2 -38 -10 -10 -17 -25 -16 -33 0 -11 2 -11 6 1 15 36
32 42 60 22 16 -11 39 -18 53 -17 14 1 34 -6 46 -17 17 -15 20 -27 16 -67 -5
-53 -1 -59 63 -95 39 -21 53 -52 31 -68 -14 -9 -36 10 -36 32 0 10 -7 23 -16
31 -13 10 -17 10 -24 -1 -6 -10 -9 -7 -12 11 -5 38 -23 23 -23 -21 -1 -21 -5
-43 -9 -47 -5 -4 -6 0 -3 10 4 11 -1 25 -13 37 -14 14 -16 20 -6 20 14 0 41
59 32 68 -3 2 -8 -7 -12 -22 -7 -28 -34 -36 -34 -10 0 29 -25 8 -28 -24 -2
-18 -7 -32 -11 -32 -4 0 -5 16 -3 35 5 45 -14 46 -22 2 -3 -19 -22 -52 -41
-74 -35 -42 -49 -77 -21 -54 9 8 16 8 20 2 8 -13 -11 -24 -29 -17 -21 7 -20
56 1 56 8 0 13 4 10 9 -3 5 1 11 9 15 20 7 20 66 0 66 -9 0 -15 -9 -15 -24 0
-14 -5 -28 -10 -31 -7 -4 -9 2 -4 19 5 20 2 26 -10 26 -10 0 -17 -10 -18 -27
0 -16 -1 -35 -2 -43 -1 -8 -11 -16 -23 -18 -16 -2 -23 -10 -23 -24 0 -20 -1
-20 -18 -5 -10 10 -21 15 -24 12 -3 -3 -8 4 -11 15 -5 20 -4 20 18 6 12 -8 25
-12 29 -9 9 10 7 35 -2 29 -11 -7 -80 12 -87 24 -3 4 2 16 11 24 14 15 14 16
-1 16 -9 0 -25 10 -34 22 -22 26 -33 7 -19 -32 7 -18 11 -21 17 -11 6 9 11 10
15 2 4 -6 2 -11 -5 -11 -8 0 -7 -5 2 -17 13 -15 12 -15 -9 -2 -46 28 -106 162
-100 221 3 31 28 53 28 26 0 -8 9 -24 19 -35 11 -12 17 -24 14 -27 -4 -3 3 -6
15 -6 11 0 33 -13 49 -28 15 -16 35 -31 43 -34 8 -3 12 -9 8 -13 -4 -4 -18 -1
-32 8 -22 15 -25 15 -30 0 -8 -19 11 -43 33 -43 14 0 14 2 1 10 -12 8 -9 10
12 10 15 0 30 5 33 10 4 7 20 3 43 -10 42 -25 74 -20 89 13 9 20 8 30 -7 55
-10 16 -23 33 -29 36 -6 4 -5 16 5 34 19 37 18 48 -6 48 -11 0 -20 -4 -20 -8
0 -4 5 -8 11 -8 8 0 8 -5 -1 -15 -29 -35 -70 -6 -70 49 0 14 -4 28 -10 31 -5
3 -10 10 -10 15 0 10 50 7 69 -4z m1157 -135 c30 -13 43 -25 38 -32 -5 -8 -3
-9 5 -5 28 18 81 -63 81 -122 0 -16 -7 -43 -16 -61 -9 -18 -14 -35 -11 -38 4
-3 9 6 13 21 19 76 24 -17 6 -127 -6 -37 -6 -75 0 -103 8 -37 7 -49 -6 -63 -9
-10 -16 -22 -16 -27 0 -5 7 -1 14 8 12 16 14 15 35 -12 15 -21 20 -38 16 -57
-5 -25 -4 -25 4 -6 9 19 13 20 35 10 18 -9 26 -20 26 -39 0 -39 -19 -45 -26
-9 -7 35 -19 40 -27 11 -3 -11 -1 -18 4 -14 5 3 6 -2 3 -10 -3 -9 -1 -16 5
-16 6 0 11 -7 11 -15 0 -23 -21 -18 -27 6 -3 11 -9 17 -12 12 -9 -13 -196 6
-223 23 -5 3 -6 10 -3 15 3 5 0 6 -8 3 -20 -7 -93 70 -101 108 -9 47 -7 97 5
120 7 13 8 23 1 27 -11 7 -10 40 2 59 16 27 -6 26 -29 0 -15 -18 -25 -23 -29
-15 -3 7 -2 -1 1 -17 3 -16 2 -27 -3 -24 -5 3 -10 -24 -12 -60 -2 -46 -10 -78
-25 -102 -49 -81 -164 -169 -229 -174 -35 -3 -39 -1 -36 17 2 11 9 22 16 25 7
2 10 -2 6 -12 -4 -11 0 -16 12 -16 11 0 15 4 9 8 -14 10 -19 46 -6 37 7 -3 8
0 5 9 -3 9 -17 16 -29 16 -13 0 -29 2 -37 3 -7 2 -10 2 -7 0 3 -2 0 -23 -8
-47 -13 -39 -12 -48 5 -99 10 -31 21 -55 24 -52 2 3 5 -1 5 -7 0 -8 -15 -13
-38 -14 -22 0 -35 4 -32 10 3 5 2 6 -4 3 -13 -8 -8 -53 8 -75 7 -9 9 -14 5
-10 -15 13 -45 -54 -35 -79 5 -15 4 -32 -5 -50 -37 -75 -47 -106 -37 -116 14
-14 14 -27 0 -27 -5 0 -7 4 -4 10 11 18 -14 10 -27 -8 -7 -11 -23 -24 -35 -30
-18 -10 -22 -9 -26 6 -4 13 -5 12 -6 -5 -1 -15 -9 -23 -31 -28 -16 -3 -32 -15
-35 -25 -5 -14 -45 -37 -45 -25 0 15 15 35 25 35 8 0 17 10 20 21 6 17 9 19
17 8 6 -9 7 -2 2 21 l-7 35 21 -25 c22 -26 30 -13 12 21 -7 13 -7 19 0 19 5 0
10 -8 10 -17 0 -15 2 -16 10 -3 5 8 10 10 10 4 0 -18 24 -23 42 -10 9 7 19 25
22 42 4 16 3 23 0 17 -8 -18 -24 -16 -24 2 0 8 5 15 10 15 6 0 10 5 10 11 0 6
-7 9 -15 5 -8 -3 -15 -1 -15 4 0 6 10 10 21 10 16 0 20 5 16 20 -3 11 -1 18 4
14 5 -3 9 -1 9 5 0 21 -22 22 -27 1 -4 -15 -11 -20 -25 -17 -15 4 -18 1 -13
-14 3 -10 8 -29 11 -41 5 -17 3 -20 -11 -14 -12 4 -16 2 -12 -8 5 -13 2 -13
-18 -4 -29 13 -30 18 -9 44 15 18 15 18 8 -5 -4 -17 -3 -21 6 -16 6 4 9 16 6
28 -7 26 10 57 32 57 14 0 14 2 3 9 -11 7 -12 17 -5 42 11 39 38 54 29 16 -9
-34 13 -45 25 -12 13 33 13 38 -1 29 -8 -5 -9 6 -4 37 6 43 6 43 -10 21 -9
-12 -13 -28 -10 -35 4 -6 0 -4 -8 6 -13 16 -15 13 -27 -30 -13 -43 -14 -45
-24 -24 -6 15 -6 25 1 29 5 4 13 21 17 37 5 20 4 27 -2 20 -6 -5 -12 -19 -14
-30 -3 -16 -5 -15 -10 7 -3 15 -2 26 1 24 3 -2 15 5 25 15 11 11 15 19 9 19
-25 0 -20 39 8 59 l29 22 1 -23 c0 -14 3 -17 5 -8 3 8 15 34 27 58 l22 43 -21
39 c-19 33 -20 41 -8 51 20 16 17 36 -5 49 -17 9 -19 7 -15 -14 3 -17 0 -24
-11 -22 -25 4 -29 15 -15 40 15 29 70 34 70 7 1 -9 7 -1 16 18 8 19 14 42 13
50 0 9 2 26 6 39 7 21 8 21 22 5 8 -10 12 -12 8 -6 -3 7 1 23 9 35 23 32 20
50 -6 46 -17 -2 -24 -11 -26 -30 -2 -16 -7 -28 -12 -28 -5 0 -7 -7 -4 -15 4
-8 1 -15 -5 -15 -6 0 -11 5 -11 10 0 6 -11 10 -25 10 -18 0 -23 4 -19 15 4 8
17 15 30 15 28 0 42 27 42 83 0 39 26 107 41 107 9 0 25 -29 23 -40 0 -3 8 -6
19 -6 10 0 19 6 19 13 0 7 -9 13 -20 13 -38 0 -16 25 30 35 42 9 77 19 85 24
6 3 13 6 17 6 4 0 33 23 65 51 71 62 83 69 92 56 4 -6 12 -4 21 6 13 14 12 15
-4 9 -14 -5 -17 -3 -12 8 8 22 -9 18 -43 -11 -17 -14 -31 -21 -31 -15 0 17 73
61 113 68 20 3 39 9 42 13 10 16 117 10 161 -9z m-1668 -578 c15 -26 34 -53
42 -60 48 -45 88 -74 109 -80 14 -3 36 -12 50 -19 14 -8 37 -14 50 -14 13 0
41 -5 63 -12 31 -9 38 -16 36 -32 -2 -13 -12 -22 -25 -24 -12 -2 -27 -10 -33
-18 -7 -8 -23 -14 -35 -14 -13 0 -25 -4 -27 -10 -2 -6 -9 -6 -18 0 -12 7 -12
12 -2 22 6 6 12 18 12 24 0 30 -97 104 -114 87 -9 -9 4 -23 22 -23 22 0 72
-46 72 -66 0 -8 -7 -17 -15 -20 -22 -9 -18 -35 5 -41 25 -7 26 -31 3 -49 -15
-10 -21 -10 -36 4 -18 16 -20 15 -33 -3 -8 -11 -14 -33 -12 -50 3 -28 5 -30
43 -28 58 4 105 -6 105 -22 0 -17 -48 -75 -62 -75 -5 0 -24 -6 -41 -14 -18 -8
-45 -16 -62 -19 -16 -2 -38 -8 -49 -12 -14 -6 -18 -5 -14 5 2 8 20 18 39 23
30 8 32 10 14 18 -17 6 -14 8 12 8 17 1 35 6 39 12 13 21 -94 4 -127 -20 -21
-16 -34 -19 -42 -12 -7 5 -18 6 -25 2 -15 -9 -62 -3 -62 8 0 4 5 12 12 19 9 9
9 12 1 12 -7 0 -18 -9 -26 -21 -9 -12 -17 -16 -21 -10 -7 10 27 51 42 51 5 0
15 11 22 25 12 23 18 25 74 21 34 -3 66 0 73 6 9 7 17 7 28 -2 13 -11 15 -9
11 11 -3 13 -5 36 -5 52 -1 16 -7 27 -15 27 -17 0 -29 27 -15 36 5 3 7 14 4
25 -4 13 -2 19 8 19 10 0 13 8 9 25 -2 14 1 32 8 40 6 8 9 19 5 26 -6 8 -10 8
-15 -2 -5 -7 -17 -14 -27 -15 -24 -4 -63 -54 -63 -81 0 -13 -4 -23 -9 -23 -13
0 -22 -30 -16 -51 3 -9 19 -22 35 -28 19 -6 30 -17 30 -29 0 -17 -7 -19 -53
-18 -45 0 -60 -4 -86 -27 -18 -15 -42 -27 -53 -27 -11 0 -28 -10 -37 -22 -12
-14 -24 -19 -36 -15 -15 6 -15 10 -4 23 11 14 11 18 -4 29 -23 17 -23 57 0 53
20 -3 43 9 43 22 0 14 -32 21 -46 9 -12 -10 -14 -1 -14 50 0 41 4 61 13 63 6
0 17 2 22 2 6 1 16 5 23 10 19 11 116 -2 138 -19 11 -8 25 -15 32 -15 22 0 12
17 -17 30 -16 6 -32 19 -35 27 -5 13 -9 13 -22 2 -13 -10 -17 -10 -24 0 -5 9
-16 11 -31 6 -29 -10 -35 -8 -31 10 4 22 -18 28 -37 11 -26 -24 -31 -20 -31
24 0 34 4 42 30 55 16 8 39 34 51 58 23 44 67 107 83 119 18 13 67 -23 94 -69z
m1535 -140 c10 -16 8 -16 -68 -13 -33 1 -66 7 -73 12 -9 8 -20 8 -38 -1 -33
-15 -34 -15 -34 13 0 16 15 37 48 64 l47 40 55 -51 c30 -28 59 -57 63 -64z
m352 -27 c-3 -51 -30 -101 -38 -69 -3 14 -6 12 -15 -12 -7 -16 -17 -38 -22
-47 -15 -26 -12 -31 10 -25 21 5 29 -16 10 -28 -5 -3 -10 -15 -10 -26 0 -10
-5 -19 -10 -19 -6 0 -9 12 -8 26 2 15 -3 29 -10 31 -7 3 -12 1 -11 -4 1 -4 1
-21 0 -38 -1 -20 -4 -26 -9 -17 -6 8 -9 1 -9 -20 0 -18 5 -37 11 -41 6 -4 -1
-5 -15 -2 -23 6 -27 3 -33 -21 -5 -18 -3 -30 4 -32 13 -5 -6 -32 -22 -32 -6 0
-6 6 1 14 8 10 9 16 1 21 -15 9 -30 -4 -23 -21 3 -9 1 -19 -4 -23 -5 -3 -15
-15 -22 -26 l-13 -20 8 20 c4 11 8 29 9 40 1 11 7 29 13 41 6 11 8 31 5 44 -4
16 -3 21 5 16 8 -5 10 -2 6 9 -4 9 1 35 11 58 31 76 66 147 76 153 5 3 7 14 4
25 -4 13 -2 19 9 19 9 0 16 5 16 10 0 7 6 7 20 0 17 -9 22 -7 32 15 17 37 25
31 23 -19z m-1375 -7 c0 -17 4 -28 10 -24 6 3 10 15 10 26 0 10 5 19 11 19 7
0 8 -11 4 -31 -10 -45 2 -99 20 -92 12 4 15 -5 15 -46 0 -39 -4 -51 -15 -51
-11 0 -15 11 -15 41 0 24 -4 38 -10 34 -5 -3 -10 -21 -10 -39 0 -35 -12 -79
-37 -134 -8 -19 -12 -36 -9 -39 4 -5 22 28 55 107 8 20 9 13 7 -37 -6 -104 12
-75 44 72 5 22 5 65 1 95 -7 50 -9 53 -18 30 -10 -24 -10 -24 -15 12 l-4 37
30 -18 c29 -19 30 -21 29 -95 -2 -127 -54 -238 -121 -263 -36 -13 -43 -4 -12
15 21 13 65 90 56 99 -2 3 -14 -13 -25 -35 -25 -48 -63 -77 -113 -85 -48 -7
-50 10 -2 19 54 10 68 39 104 214 22 107 24 120 11 120 -4 0 -11 -21 -14 -47
-13 -105 -27 -148 -65 -191 -32 -36 -44 -43 -84 -47 -27 -2 -48 -2 -48 0 0 8
57 34 63 29 7 -8 73 73 93 115 12 23 19 68 22 129 3 69 8 92 18 92 9 0 14 -11
14 -31z m1205 9 c-4 -13 -15 -41 -25 -63 -10 -22 -26 -72 -36 -112 -10 -39
-22 -69 -26 -67 -12 8 -10 -20 3 -33 8 -8 8 -17 0 -31 -12 -22 -86 -40 -116
-28 -9 3 -15 0 -15 -9 0 -8 -4 -15 -10 -15 -12 0 -12 3 -4 24 3 9 15 16 25 16
10 0 19 5 19 10 0 16 -57 11 -75 -6 -9 -10 -14 -25 -12 -36 3 -10 1 -16 -4
-12 -22 13 7 84 30 76 12 -4 12 -3 0 10 -8 9 -20 13 -27 11 -7 -3 -10 -8 -7
-11 2 -3 -4 -11 -15 -19 -11 -8 -20 -21 -20 -29 0 -8 -5 -14 -10 -14 -7 0 -7
6 0 19 15 29 12 44 -7 37 -15 -5 -15 -4 1 9 24 18 40 20 30 3 -4 -7 2 -5 13 5
11 10 27 15 37 11 9 -3 16 -1 16 5 0 6 5 11 10 11 6 0 8 -12 5 -27 -3 -16 -3
-23 0 -17 3 7 15 10 25 7 17 -4 20 0 19 23 l-1 29 -8 -25 c-7 -22 -12 -24 -9
-4 0 4 -4 10 -9 13 -14 8 15 42 51 61 65 33 137 128 137 180 0 11 5 20 11 20
6 0 8 -9 4 -22z m-1038 -149 c-9 -6 -17 -15 -17 -20 0 -6 5 -7 10 -4 16 10 12
-5 -12 -37 -19 -28 -20 -31 -4 -40 13 -7 14 -13 5 -29 -6 -12 -17 -18 -25 -15
-12 4 -12 2 -4 -14 11 -21 9 -77 -4 -99 -4 -7 -5 -15 -1 -19 10 -10 25 21 19
41 -5 16 -3 17 15 5 12 -7 21 -18 21 -25 0 -14 -42 -45 -106 -79 -49 -26 -74
-30 -74 -13 0 6 -6 9 -12 6 -9 -3 -14 7 -16 30 -1 23 3 36 13 40 22 8 29 -2
15 -24 -11 -17 -11 -17 -5 2 5 16 4 18 -7 7 -20 -20 3 -47 37 -45 16 1 33 7
38 12 12 12 -14 53 -30 47 -7 -3 -10 1 -6 10 4 12 11 10 34 -12 l28 -27 -6 36
c-4 24 -2 37 6 37 6 0 11 -10 11 -22 1 -21 1 -22 11 -5 8 14 7 23 -6 37 -15
17 -15 24 16 115 31 93 54 133 68 120 3 -4 -2 -11 -12 -16z m1195 -228 c-11
-7 -10 -9 3 -14 13 -6 15 -20 13 -79 -3 -67 -5 -73 -25 -76 -13 -2 -23 1 -23
7 0 6 -20 11 -46 11 -38 0 -45 3 -42 18 2 11 13 18 33 19 20 1 23 0 8 -4 -13
-2 -23 -9 -23 -15 0 -6 10 -8 23 -4 12 3 30 6 40 6 26 0 20 27 -8 34 -41 10
-105 -11 -105 -34 0 -15 -7 -20 -27 -20 -33 0 -65 -19 -45 -27 29 -11 7 -21
-60 -27 -58 -6 -99 -2 -198 19 -82 17 -139 23 -166 19 -26 -4 -44 -2 -48 5 -4
6 -15 11 -24 11 -15 0 -15 -1 0 -17 13 -12 33 -16 85 -14 41 1 107 -7 163 -19
66 -15 115 -20 159 -17 57 4 72 2 110 -20 2 -2 -2 -9 -9 -18 -10 -12 -10 -18
0 -30 18 -21 32 -19 25 5 -4 14 -1 22 10 26 24 9 26 3 32 -80 l5 -76 -479 -2
c-1161 -3 -1503 -3 -1503 5 0 4 26 7 58 7 31 0 95 3 141 7 76 6 81 7 55 18
-27 11 -23 12 50 18 43 3 108 3 145 0 59 -4 67 -3 78 16 12 19 11 20 -11 11
-13 -5 -81 -10 -151 -11 -102 -2 -135 -7 -162 -21 -25 -14 -59 -20 -121 -21
l-87 -2 -3 62 -3 61 58 7 c32 3 66 10 75 15 10 6 32 9 50 9 21 -1 26 -3 13 -6
-11 -3 -25 -11 -30 -18 -6 -7 -19 -15 -30 -18 -14 -3 -10 -5 11 -6 18 -1 37 6
45 15 11 14 27 16 91 11 44 -3 78 -1 78 4 0 5 -24 9 -52 9 -29 0 -48 4 -41 8
13 8 131 8 139 -1 3 -3 -4 -8 -15 -12 -33 -10 -25 -31 19 -49 36 -14 49 -14
147 1 136 20 204 23 221 10 20 -16 92 -20 123 -7 33 14 64 56 49 65 -6 4 -23
-7 -37 -24 -24 -27 -34 -31 -77 -31 l-50 0 22 22 c14 15 34 22 59 23 44 0 55
21 18 35 -26 10 -129 16 -152 9 -6 -2 -12 0 -13 6 -4 14 50 43 82 44 15 1 30
5 33 11 11 18 25 10 25 -15 0 -18 7 -28 24 -35 13 -5 27 -14 31 -19 3 -6 17
-11 30 -11 12 0 25 -7 29 -15 8 -22 23 -18 30 8 l7 22 9 -22 c9 -21 40 -33 40
-15 0 4 17 26 37 47 36 39 40 40 93 36 30 -2 68 -10 83 -17 15 -8 32 -12 38
-8 16 10 -8 22 -69 35 -52 10 -53 11 -32 26 12 8 24 12 27 9 3 -3 12 -1 20 6
11 9 12 7 7 -7 -5 -13 -3 -16 7 -13 8 2 15 14 17 26 2 12 9 22 15 21 21 -2 63
-17 50 -18 -7 -1 -13 -5 -13 -10 0 -19 139 -41 256 -41 140 0 149 8 13 11
-108 2 -204 15 -228 30 -12 8 -9 9 14 4 17 -4 75 -10 130 -15 92 -8 101 -7
117 11 10 12 29 19 53 19 29 0 36 3 31 15 -3 10 1 15 13 15 14 0 17 -6 13 -25
-2 -14 -11 -25 -18 -25 -8 0 -14 -7 -14 -15 0 -8 5 -15 10 -15 6 0 10 5 10 10
0 6 11 10 25 10 26 0 34 15 13 23 -7 2 -10 8 -6 12 8 8 38 -18 38 -34 0 -27
46 -21 53 7 3 11 5 9 6 -7 1 -19 5 -22 24 -17 12 3 30 6 40 6 9 0 17 7 17 15
0 8 15 22 33 31 33 17 82 63 69 65 -8 2 55 16 78 18 12 0 12 -1 2 -8z m-1720
-31 c21 -6 44 -20 52 -31 11 -17 21 -20 44 -14 31 6 55 -11 33 -24 -6 -4 -9
-15 -5 -24 5 -14 -1 -17 -42 -17 -31 0 -54 -6 -67 -17 -16 -15 -47 -19 -181
-25 -88 -3 -178 -9 -198 -13 -23 -4 -38 -3 -38 3 0 5 21 12 46 16 26 3 53 11
60 17 7 6 63 14 124 18 119 8 158 23 93 36 l-38 8 40 10 c22 5 57 9 78 9 20 0
37 4 37 9 0 11 -40 11 -132 0 -173 -22 -198 -23 -192 -6 5 13 -5 15 -62 15
-88 0 -76 11 18 16 40 2 89 4 108 5 19 1 51 -1 70 -4 19 -3 39 -2 45 2 9 8 37
17 60 20 6 0 27 -4 47 -9z m78 -155 c13 8 50 -3 50 -15 0 -5 -12 -11 -27 -13
-21 -4 -19 -4 7 -3 25 1 38 7 46 24 10 20 13 21 24 7 17 -20 36 -19 50 3 8 13
12 14 17 4 3 -7 17 -18 31 -23 52 -20 -19 -34 -155 -32 -49 0 -63 -3 -63 -14
0 -12 8 -14 33 -10 17 4 66 9 107 13 45 4 89 14 111 26 34 19 70 21 157 8 1 0
2 -5 2 -10 0 -6 -11 -8 -25 -4 -14 3 -31 2 -38 -3 -25 -19 -140 -44 -227 -48
-19 -1 -53 -3 -75 -5 -46 -3 -105 9 -105 20 0 4 8 11 18 15 16 6 16 8 -3 22
-19 15 -18 15 18 10 22 -4 35 -2 32 4 -4 5 -39 10 -78 10 l-72 1 53 8 c29 4
56 11 59 14 3 3 14 1 25 -5 10 -5 23 -7 28 -4z m1660 -150 l0 -75 -65 0 c-48
0 -65 4 -65 14 0 7 -3 34 -6 60 -6 44 -6 46 16 44 13 -2 25 3 28 11 3 10 -2
12 -22 7 -15 -4 -26 -2 -26 4 0 6 29 10 70 10 l70 0 0 -75z m0 -231 l0 -134
-67 -2 c-38 -1 -189 -2 -338 -3 -148 -1 -601 -5 -1005 -9 l-735 -8 0 144 0
143 990 5 c545 3 1027 4 1073 2 l82 -4 0 -134z"/>
<path d="M973 3853 c20 -5 61 -89 51 -104 -3 -5 -13 -9 -22 -9 -10 0 -13 -3
-6 -10 11 -11 284 -1 284 12 0 4 -5 7 -11 6 -11 -3 -14 25 -10 73 0 9 11 21
24 27 17 8 -20 11 -153 10 -96 0 -167 -2 -157 -5z"/>
<path d="M468 3370 c-27 -14 -43 -34 -60 -70 l-23 -50 -50 0 c-123 0 -203
-110 -113 -156 23 -12 36 -13 63 -4 35 12 88 64 107 106 9 19 19 24 50 24 80
0 148 49 148 105 0 28 -6 37 -30 50 -37 19 -47 19 -92 -5z"/>
<path d="M607 3276 c-3 -8 -1 -31 4 -51 10 -35 5 -76 -9 -74 -25 4 -33 -3 -27
-21 7 -22 -10 -28 -19 -7 -3 9 -8 7 -16 -5 -11 -18 -38 -14 -52 6 -9 14 -15 6
-20 -23 -2 -14 3 -26 11 -29 10 -3 12 0 8 12 -4 9 -2 16 3 16 13 0 13 -16 -1
-41 -10 -20 -11 -20 -24 -2 -14 17 -14 17 -15 -4 0 -16 -4 -21 -15 -17 -11 5
-13 2 -9 -11 6 -14 3 -16 -14 -10 -18 5 -22 2 -22 -14 0 -24 -1 -25 -34 -10
-28 13 -47 45 -20 35 9 -3 14 -1 12 5 -2 6 -7 10 -12 9 -5 -1 -13 5 -18 14 -5
9 -13 16 -18 16 -15 0 -12 -47 3 -54 6 -3 1 -3 -12 0 -16 4 -21 3 -17 -5 4 -6
17 -11 29 -12 12 0 42 -13 67 -28 35 -21 45 -33 45 -54 0 -14 6 -32 13 -38 14
-15 16 -29 4 -29 -11 0 -43 56 -35 63 8 9 -17 38 -28 31 -5 -3 -9 0 -9 7 0 7
-3 9 -7 5 -5 -4 1 -14 12 -22 16 -12 17 -16 6 -23 -8 -5 -10 -14 -6 -21 5 -8
4 -11 -2 -7 -15 9 -10 -42 8 -81 10 -22 21 -32 36 -32 13 0 23 -4 23 -10 0 -5
7 -10 15 -10 8 0 15 5 15 10 0 15 36 12 50 -4 9 -11 18 -12 37 -5 36 13 44 3
27 -36 -16 -39 -19 -111 -4 -120 6 -4 10 11 10 38 0 25 7 61 15 81 15 35 15
37 -10 48 -23 10 -23 12 -7 24 14 11 21 9 41 -9 l24 -22 -17 26 c-23 37 -67
54 -96 39 -19 -10 -26 -9 -43 9 l-20 20 24 -5 c15 -4 20 -3 12 3 -9 6 -3 14
20 27 17 10 49 35 70 55 21 20 45 36 54 36 9 0 31 21 49 48 28 40 34 45 42 31
11 -19 4 -54 -9 -54 -5 0 -7 12 -3 28 l6 27 -20 -30 c-13 -21 -16 -33 -8 -38
7 -6 4 -7 -6 -3 -30 9 -31 -13 -1 -26 15 -6 32 -10 37 -9 5 1 6 -10 4 -24 -4
-20 -2 -23 8 -14 9 7 24 7 48 1 28 -8 34 -7 29 4 -3 8 1 14 11 14 26 0 30 27
8 55 -11 14 -23 39 -27 55 -4 18 -11 27 -20 24 -7 -3 -16 -1 -20 5 -3 6 1 11
9 11 9 0 16 5 16 11 0 6 -9 9 -20 6 -11 -3 -23 0 -27 5 -3 7 -1 8 5 4 7 -4 12
-2 12 3 0 6 -5 11 -11 11 -13 0 -39 25 -39 38 0 6 6 13 13 16 9 3 7 8 -5 15
-10 7 -14 19 -11 33 4 19 3 20 -6 8 -6 -8 -11 -23 -11 -33 0 -10 -4 -15 -10
-12 -5 3 -10 1 -10 -5 0 -6 6 -13 14 -16 13 -5 11 -50 -4 -59 -5 -3 -6 4 -3
15 5 18 -16 50 -33 50 -3 0 -4 -13 0 -30 6 -32 -7 -42 -18 -13 -6 15 -8 15
-16 3 -5 -8 -6 -17 -2 -20 16 -12 32 -52 26 -63 -4 -7 -16 -22 -27 -34 -11
-13 -16 -23 -9 -23 6 0 22 15 37 33 17 21 23 25 19 12 -5 -18 -3 -17 15 4 12
13 21 18 21 13 0 -6 -11 -24 -25 -39 -19 -22 -24 -23 -19 -8 6 17 2 15 -23 -8
-37 -34 -51 -17 -20 24 19 27 20 66 1 62 -14 -3 -9 54 9 102 16 42 15 91 -1
107 -6 6 -11 4 -15 -6z"/>
<path d="M745 281 c-20 -4 -26 -9 -17 -14 15 -10 17 -127 1 -127 -5 0 -7 -4
-4 -10 3 -5 19 -10 35 -10 29 0 30 1 23 45 -6 48 10 64 23 23 9 -33 34 -58 56
-58 24 0 23 5 -8 46 -25 32 -26 36 -10 53 17 19 21 37 8 45 -15 9 -78 14 -107
7z"/>
</g>
</svg>
