<?xml version="1.0" standalone="no"?>
<!DOCTYPE svg PUBLIC "-//W3C//DTD SVG 20010904//EN"
 "http://www.w3.org/TR/2001/REC-SVG-20010904/DTD/svg10.dtd">
<svg version="1.0" xmlns="http://www.w3.org/2000/svg"
 width="233.000000pt" height="400.000000pt" viewBox="0 0 233.000000 400.000000"
 preserveAspectRatio="xMidYMid meet">
<metadata>
Created by potrace 1.15, written by Peter Selinger 2001-2017
</metadata>
<g transform="translate(0.000000,400.000000) scale(0.100000,-0.100000)"
fill="#000000" stroke="none">
<path d="M49 3894 c-4 -380 1 -978 9 -983 5 -3 12 -17 16 -31 6 -21 5 -22 -4
-7 -6 9 -14 17 -18 17 -8 0 -12 -602 -12 -1915 0 -495 0 -906 0 -912 0 -10
233 -13 1086 -13 623 0 1093 4 1102 9 16 8 17 142 16 1940 -1 1062 -3 1933 -6
1936 -2 2 -495 8 -1096 11 l-1092 7 -1 -59z m1625 30 l558 -6 -5 -297 c-2
-163 -6 -298 -8 -299 -10 -9 -57 22 -74 49 -22 32 -120 109 -139 109 -6 -1 -1
-9 12 -18 65 -47 95 -80 125 -131 39 -67 79 -161 68 -161 -13 0 -31 24 -31 42
0 25 -61 92 -71 77 -4 -8 -14 2 -28 29 -20 39 -41 62 -41 45 0 -5 7 -18 15
-29 19 -25 18 -29 -2 -50 -12 -12 -14 -19 -6 -21 52 -18 118 -131 128 -218 4
-35 3 -46 -5 -35 -5 8 -10 23 -10 33 0 9 -4 17 -8 17 -5 0 -15 25 -22 55 -7
30 -17 55 -22 55 -4 0 -8 8 -8 18 0 26 -45 66 -68 60 -15 -4 -19 0 -19 24 0
19 3 24 9 16 6 -10 10 -10 17 1 11 17 -4 52 -20 48 -13 -3 -59 81 -59 110 0
12 -4 25 -10 28 -5 3 -10 11 -10 18 0 8 3 8 12 -1 17 -17 29 -15 22 3 -4 8
-12 15 -20 15 -7 0 -30 20 -50 45 -35 41 -119 93 -131 81 -3 -3 12 -12 34 -21
33 -13 73 -57 73 -80 0 -4 -21 12 -46 34 -33 29 -56 41 -78 41 -17 0 -42 3
-56 6 -23 5 -24 4 -7 -9 26 -22 22 -54 -9 -61 -15 -4 -24 -10 -20 -13 3 -3 -2
-12 -12 -19 -15 -12 -14 -13 11 -14 15 0 27 -4 27 -9 0 -5 -9 -7 -20 -4 -21 5
-28 -11 -10 -22 6 -4 8 -11 5 -16 -7 -11 20 -41 29 -32 3 3 12 1 19 -6 8 -6
22 -9 31 -5 23 9 20 -3 -5 -17 -17 -9 -23 -8 -30 2 -7 11 -9 11 -9 1 0 -9 -7
-11 -19 -7 -28 9 -40 -33 -15 -52 24 -18 39 -17 24 2 -7 9 -8 15 -2 15 10 0
22 -23 22 -42 0 -6 -11 -8 -26 -4 -17 5 -25 3 -23 -6 4 -37 -4 -38 -16 -3 -10
30 -13 34 -14 16 -1 -20 -3 -21 -16 -11 -12 10 -15 10 -15 -3 0 -8 10 -22 23
-30 l22 -16 -29 0 c-24 -1 -27 -3 -16 -16 10 -12 9 -15 -5 -15 -11 0 -15 -5
-11 -15 6 -18 1 -19 -25 -5 -11 7 -19 7 -19 1 0 -5 6 -12 13 -15 6 -4 2 -4
-10 -2 -27 5 -31 -12 -5 -21 18 -7 48 -33 37 -33 -3 0 -24 9 -45 19 -45 22
-55 10 -12 -13 l27 -15 -38 6 c-32 5 -36 3 -31 -11 7 -19 -7 -21 -24 -4 -7 7
-12 8 -12 2 0 -6 5 -15 12 -22 7 -7 8 -12 2 -12 -15 0 -84 76 -84 92 0 9 -3 9
-10 -2 -6 -11 4 -28 43 -70 29 -30 57 -57 63 -60 18 -8 81 -61 154 -131 69
-65 91 -95 48 -65 -12 9 -29 16 -38 16 -8 -1 3 -10 26 -21 42 -20 86 -86 65
-98 -6 -4 -7 -12 -1 -21 13 -20 12 -40 0 -40 -5 0 -10 7 -10 15 0 8 -14 22
-31 31 -30 15 -32 15 -24 -2 4 -11 8 -37 10 -59 1 -22 0 -26 -2 -9 -2 18 -19
49 -37 70 l-32 37 -38 -37 c-20 -21 -39 -36 -41 -34 -2 1 0 22 5 46 6 33 5 40
-5 32 -21 -18 -28 36 -9 65 23 35 11 42 -15 9 -16 -21 -20 -36 -16 -58 l6 -31
-20 25 c-11 14 -23 21 -27 17 -4 -4 -3 -7 3 -7 14 0 43 -84 43 -124 -1 -39
-34 -87 -43 -62 -4 9 -13 13 -21 10 -8 -3 -12 -12 -10 -19 3 -7 -5 -19 -18
-26 -21 -11 -22 -11 -9 4 18 23 2 21 -29 -3 -27 -21 -57 -25 -80 -10 -13 8
-12 11 5 24 19 14 18 15 -10 7 -24 -6 -31 -13 -33 -39 -2 -22 -13 -40 -37 -57
-18 -14 -35 -37 -38 -50 -3 -20 -2 -23 9 -14 8 6 14 19 14 29 0 9 11 22 25 28
14 7 30 23 37 37 12 26 23 31 33 15 3 -5 31 -10 61 -10 30 0 54 -4 54 -10 0
-5 -7 -10 -15 -10 -13 0 -15 -92 -13 -757 3 -691 1 -758 -13 -761 -33 -6 -49
26 -49 96 0 37 -5 94 -10 127 -5 33 -12 269 -15 525 -5 533 -13 762 -27 754
-6 -4 -7 -79 -4 -193 4 -102 8 -377 11 -611 3 -234 7 -436 10 -450 3 -14 9
-74 14 -135 7 -82 7 -112 -2 -117 -17 -11 -55 -10 -62 1 -5 10 -25 420 -46
966 -13 332 -22 446 -33 423 -4 -10 -3 -71 3 -135 6 -65 13 -242 16 -393 5
-325 23 -736 34 -803 8 -47 -1 -69 -20 -50 -13 13 -28 289 -34 613 -2 157 -8
377 -11 490 -4 113 -7 213 -8 223 -1 28 -16 19 -16 -10 0 -26 -1 -26 -16 -7
-14 18 -15 18 -8 -6 4 -14 13 -29 20 -33 11 -6 14 -57 14 -257 0 -333 19 -948
30 -982 10 -31 3 -43 -16 -27 -17 14 -54 5 -84 -21 -29 -25 -54 -25 -90 0
l-29 21 0 352 c-1 530 -11 793 -30 771 -4 -5 -4 -88 1 -184 4 -96 7 -339 6
-540 l-3 -365 -38 -3 c-38 -3 -39 -3 -33 25 22 98 37 340 43 666 5 337 5 367
-11 367 -27 0 -18 32 19 66 30 27 43 32 85 32 52 1 98 19 120 49 12 15 12 16
0 6 -24 -22 -46 -15 -98 32 -27 25 -53 45 -56 45 -13 0 58 -80 76 -85 18 -6
26 -25 10 -25 -5 0 -27 16 -50 36 -28 24 -42 31 -42 21 0 -9 15 -27 33 -41 17
-14 27 -26 20 -26 -6 0 -25 11 -41 25 -36 30 -42 31 -42 6 0 -10 -6 -24 -13
-30 -21 -17 -55 24 -40 47 6 9 18 16 27 16 18 -2 21 7 7 22 -5 5 -12 20 -16
34 -7 22 -6 23 9 11 18 -15 22 -1 5 16 -6 6 -9 17 -6 25 3 8 9 3 17 -14 7 -16
17 -28 22 -28 13 0 10 12 -13 49 -12 20 -17 40 -13 50 4 9 6 22 5 30 -2 8 2
10 11 5 10 -6 11 -5 1 7 -9 11 -10 70 -3 248 8 207 8 236 -6 255 -16 21 -16
21 -9 -4 8 -31 6 -304 -5 -425 -4 -49 -8 -73 -9 -52 0 23 -10 50 -23 65 -15
20 -19 22 -13 7 18 -49 16 -58 -6 -25 -18 25 -33 36 -54 38 l-30 2 30 -13 c29
-14 55 -52 55 -82 0 -18 16 -20 23 -2 3 6 6 2 6 -10 1 -14 -5 -23 -14 -23 -8
0 -15 -5 -15 -10 0 -7 7 -7 21 0 11 7 23 9 26 7 2 -3 -5 -10 -16 -17 -12 -6
-21 -15 -21 -21 0 -6 4 -8 9 -5 5 3 3 -11 -4 -31 -8 -24 -10 -47 -4 -67 7 -25
6 -34 -8 -43 -16 -12 -16 -15 0 -48 11 -23 24 -35 37 -35 11 0 20 -4 20 -10 0
-5 -11 -10 -24 -10 -17 0 -31 11 -46 36 -12 19 -24 33 -27 30 -6 -6 15 -47 40
-73 11 -13 18 -23 15 -23 -20 0 -41 16 -55 44 l-16 31 -11 -34 c-10 -27 -14
-30 -23 -19 -32 38 -52 288 -26 314 18 17 55 18 71 2 13 -13 17 -52 4 -44 -10
6 -7 -117 2 -133 4 -6 14 -11 23 -11 12 0 13 3 4 14 -8 9 -10 39 -7 86 4 61 2
74 -14 90 -44 44 -128 8 -116 -50 3 -17 1 -30 -6 -32 -8 -3 -8 -9 0 -23 6 -11
15 -56 21 -100 5 -44 13 -91 17 -105 7 -25 7 -25 -14 -7 -11 11 -38 23 -59 27
-55 13 -83 -8 -83 -60 0 -21 5 -42 10 -45 6 -3 10 -13 10 -22 0 -9 16 -36 37
-61 77 -94 184 -96 183 -3 -1 20 -7 47 -15 61 -20 35 -19 37 14 32 l30 -4 -3
-262 c-3 -250 -9 -326 -26 -326 -14 0 -79 30 -84 39 -5 7 -51 22 -83 25 -6 0
-28 20 -49 44 -20 24 -41 41 -48 39 -10 -3 -46 33 -46 47 0 9 40 -13 73 -40
16 -13 34 -24 40 -24 7 0 -1 11 -18 25 -39 32 -21 31 49 -1 61 -28 90 -27 36
1 -58 30 -108 45 -112 33 -3 -7 -13 -5 -30 6 -21 14 -30 15 -51 5 -25 -11 -25
-12 -11 -53 8 -23 26 -54 40 -70 34 -36 20 -51 -46 -51 -48 0 -49 1 -43 25 3
14 9 27 14 30 4 3 1 28 -7 55 l-14 50 4 -52 c3 -29 1 -53 -4 -53 -4 0 -6 -10
-2 -23 5 -18 3 -20 -9 -10 -12 9 -14 28 -12 75 3 51 2 59 -8 44 -6 -10 -9 -33
-6 -50 5 -30 3 -33 -23 -33 -29 0 -48 21 -30 32 6 4 10 21 9 38 l-1 32 -12
-35 c-12 -34 -13 -34 -24 -13 -15 27 -15 34 -1 31 6 -2 13 2 16 8 9 25 -33 8
-61 -25 -17 -19 -39 -42 -49 -50 -10 -9 -25 -29 -33 -44 -13 -23 -18 -26 -30
-16 -11 9 -18 8 -32 -5 -10 -9 -21 -16 -25 -16 -3 0 -6 156 -5 348 0 191 2
338 5 327 3 -11 11 -25 18 -31 8 -6 15 -34 17 -62 2 -29 7 -53 13 -55 5 -1 16
25 23 58 7 33 19 63 26 67 7 4 19 22 26 40 19 45 90 130 105 124 7 -2 27 5 45
16 21 12 42 17 57 13 18 -4 29 -1 39 12 8 11 13 13 14 6 0 -18 27 -16 34 3 3
9 6 25 6 37 -1 19 -3 18 -16 -8 l-14 -30 5 34 c3 18 5 52 5 74 0 48 11 44 12
-4 1 -19 4 -36 7 -39 14 -11 41 -60 41 -75 0 -8 6 -15 13 -15 16 1 69 114 61
133 -3 8 -1 18 5 22 6 3 11 15 11 26 0 10 5 19 10 19 6 0 10 -32 10 -75 0 -46
4 -75 11 -75 5 0 9 8 7 18 -4 22 36 90 58 99 10 4 31 -1 47 -11 16 -9 32 -14
36 -10 9 9 -30 34 -55 34 -28 0 -74 -20 -74 -32 0 -4 -4 -8 -10 -8 -13 0 -13
43 1 57 8 8 8 17 -1 33 -10 19 -8 26 21 56 34 35 31 48 -4 17 -18 -17 -19 -17
-13 17 2 19 10 71 17 115 6 44 18 91 26 104 8 13 13 35 10 49 -11 58 57 173
109 186 13 4 24 11 24 16 0 11 -25 3 -57 -18 -18 -11 -23 -11 -23 -2 0 9 -7 7
-20 -5 -21 -19 -28 -7 -8 13 19 19 -3 14 -26 -5 -18 -15 -18 -14 2 8 26 30 18
47 -12 22 -20 -17 -20 -17 -7 0 11 14 12 20 2 30 -10 9 -14 8 -22 -5 -6 -10
-16 -18 -23 -18 -8 0 -3 11 13 29 24 27 27 28 45 13 18 -16 18 -16 6 8 -7 14
-27 41 -45 61 -53 59 -78 140 -72 231 5 73 4 77 -21 100 -18 15 -21 17 -12 4
11 -14 15 -46 15 -115 0 -88 2 -100 29 -145 19 -32 25 -51 18 -54 -7 -2 -12
-9 -12 -15 0 -8 3 -8 11 0 9 9 18 4 37 -19 l26 -30 -24 -18 c-26 -20 -62 -16
-53 6 3 8 9 12 13 9 4 -3 10 4 13 14 3 14 0 17 -14 14 -11 -3 -19 -1 -19 5 0
6 -10 12 -22 14 -12 2 -23 10 -25 18 -4 13 -3 13 6 0 12 -17 14 -10 5 14 -3 8
-12 12 -20 9 -12 -4 -14 0 -8 21 4 16 2 26 -5 26 -18 0 -26 -4 -23 -12 3 -10
-6 -10 -46 -2 l-30 6 19 42 c10 22 19 47 19 54 0 15 -21 12 -23 -3 -3 -30 -25
-90 -33 -88 -16 3 -15 20 1 37 9 9 15 22 12 29 -9 25 44 99 60 84 3 -4 0 -14
-7 -23 -12 -13 -11 -17 0 -24 8 -5 11 -12 7 -16 -4 -4 -2 -13 4 -21 9 -10 8
-18 -5 -31 -27 -30 -19 -49 9 -22 14 13 25 29 25 36 0 6 10 19 23 28 12 9 17
14 10 11 -6 -3 -14 -1 -18 5 -3 5 -1 10 6 10 8 0 8 4 1 13 -5 6 -8 33 -6 59 5
57 -5 66 -36 33 -24 -25 -54 -33 -65 -16 -3 5 5 17 17 26 l23 17 -25 -7 c-45
-12 -80 -27 -80 -36 0 -4 -8 -7 -19 -6 -16 1 -17 4 -7 22 6 11 11 21 11 21 0
1 11 5 24 9 16 5 21 4 17 -4 -4 -6 -6 -11 -3 -11 7 0 87 41 87 44 0 5 -74 -11
-117 -25 -18 -6 -33 -16 -33 -22 -1 -7 -18 -25 -38 -40 -99 -74 -131 -102
-122 -105 19 -7 10 -30 -20 -56 -17 -14 -33 -39 -37 -58 -6 -29 -5 -32 10 -20
13 11 15 10 10 -7 -6 -24 0 -26 30 -9 12 6 -1 -11 -28 -39 -28 -27 -52 -49
-54 -47 -2 2 6 18 18 37 24 40 26 47 8 47 -7 0 -23 -19 -35 -42 l-22 -43 2
373 2 374 525 -6 c289 -3 777 -9 1085 -12z m-64 -1229 c17 -9 30 -19 30 -23
-1 -17 -30 -43 -40 -37 -9 6 -9 2 -1 -13 7 -14 8 -23 1 -27 -5 -3 -10 -19 -10
-34 0 -27 -47 -111 -62 -111 -13 0 -9 17 7 30 16 14 20 30 7 30 -5 0 -14 -12
-21 -26 -6 -15 -14 -24 -17 -21 -3 3 2 19 10 36 18 34 19 41 8 41 -4 0 -16
-16 -26 -35 -11 -19 -23 -35 -28 -35 -13 0 -10 10 17 57 14 23 21 43 15 43 -6
0 -19 -13 -28 -30 -16 -28 -32 -39 -32 -22 0 11 24 75 33 90 5 7 14 11 20 9 6
-2 21 18 34 45 24 52 37 57 83 33z m108 -165 c7 -43 -18 -101 -62 -144 -65
-66 -126 -70 -126 -10 0 30 4 30 32 2 16 -16 17 -20 5 -15 -9 3 -17 2 -17 -3
0 -33 90 17 121 68 23 37 35 77 20 68 -6 -4 -11 -15 -11 -25 0 -10 -12 -32
-27 -48 -34 -35 -70 -64 -59 -45 5 8 1 12 -11 13 -17 1 -17 2 0 6 9 2 17 8 17
13 0 5 -7 7 -15 4 -8 -4 -15 -1 -15 5 0 7 7 14 15 17 8 4 15 10 15 15 0 4 -7
6 -15 3 -19 -8 -19 0 0 36 11 21 23 30 40 30 15 0 25 6 25 14 0 35 64 31 68
-4z m-287 -33 c12 -25 26 -35 63 -46 36 -11 45 -18 40 -30 -14 -33 -16 -72 -4
-86 7 -8 29 -15 48 -15 31 0 45 9 100 66 35 36 65 64 66 62 1 -2 10 -15 19
-30 21 -34 47 -37 48 -5 0 12 3 16 6 10 2 -7 11 -13 19 -13 8 0 28 -10 44 -21
20 -15 36 -20 54 -15 21 5 28 1 41 -25 17 -31 41 -35 39 -5 -3 26 5 19 27 -29
12 -25 27 -45 34 -45 7 0 29 -19 49 -42 20 -24 48 -56 63 -71 34 -38 43 -81
41 -212 l-1 -110 -8 107 c-4 59 -10 112 -14 118 -10 15 -27 1 -21 -18 3 -10 1
-35 -4 -57 -6 -32 -8 -34 -9 -12 0 15 -6 27 -12 27 -5 0 -8 -4 -5 -9 5 -8 -32
-131 -39 -131 -2 0 -3 37 -3 81 0 117 -22 129 -59 34 l-11 -30 -1 33 c-1 50
-21 38 -21 -14 0 -27 -4 -43 -10 -39 -5 3 -10 15 -10 26 0 36 -17 19 -25 -23
-4 -24 -9 -36 -12 -28 -10 28 -64 70 -90 70 -15 0 -37 -10 -50 -22 -24 -22
-31 -48 -13 -48 6 0 10 8 10 18 0 9 9 23 20 29 24 16 34 3 32 -41 -1 -17 3
-38 9 -46 7 -11 9 0 7 38 -2 28 0 52 3 52 8 0 49 -85 49 -100 0 -5 -5 -10 -11
-10 -5 0 -7 -4 -4 -10 3 -5 17 -10 30 -10 25 0 35 -17 35 -58 0 -21 -7 -30
-31 -41 -33 -14 -48 -9 -31 12 8 9 8 23 -1 48 -10 29 -15 34 -28 26 -9 -6 -24
-7 -35 -2 -17 7 -15 9 11 15 17 4 22 8 12 9 -11 0 -21 10 -24 21 -7 25 -23 26
-23 3 0 -15 -2 -16 -10 -3 -8 13 -10 12 -10 -4 0 -16 -3 -17 -12 -8 -7 7 -22
12 -35 12 -13 0 -23 6 -23 13 0 8 -11 24 -24 37 -14 12 -28 37 -32 54 -7 34
-22 58 -33 52 -4 -3 -6 -26 -5 -53 2 -26 5 -95 8 -153 4 -79 3 -88 -3 -38 -13
119 -23 88 -16 -52 3 -74 8 -145 11 -157 2 -13 0 -23 -5 -23 -6 0 -16 -11 -23
-24 -20 -39 -23 220 -3 297 18 70 18 67 5 67 -5 0 -10 -9 -10 -20 0 -25 -17
-26 -23 -2 -2 9 -7 -7 -12 -35 -11 -76 -23 -56 -17 30 6 94 -10 107 -32 27
-19 -66 -36 -79 -36 -27 -1 17 -7 43 -15 57 l-14 25 -2 -35 c-1 -47 -12 -83
-25 -87 -7 -2 -15 49 -22 149 -16 207 -25 578 -15 578 4 0 15 -15 24 -33z
m-30 -617 c0 -217 4 -445 10 -505 5 -61 12 -147 16 -192 4 -60 10 -83 19 -83
9 0 12 9 9 28 -9 55 -15 99 -19 162 -5 66 -4 65 16 -27 6 -29 15 -53 21 -53 5
0 6 8 2 17 -21 56 -44 291 -25 263 5 -8 10 -24 10 -36 0 -31 41 -185 57 -218
8 -16 26 -40 39 -53 31 -31 30 -57 -2 -82 -32 -25 -44 -20 -44 19 0 16 -5 32
-11 36 -9 5 -10 -8 -5 -47 6 -49 4 -57 -16 -76 -33 -30 -63 -37 -78 -18 -10
12 -14 153 -16 663 -3 454 -1 640 6 622 7 -15 11 -168 11 -420z m-733 274 c30
-21 19 -34 -23 -27 -41 7 -47 -11 -15 -45 28 -29 34 -28 14 3 -20 31 -2 33 20
3 12 -19 14 -19 9 -4 -5 15 -3 18 11 13 12 -5 19 0 26 18 11 30 16 31 30 6 10
-20 4 -54 -10 -46 -4 2 -4 -13 0 -35 4 -22 5 -40 1 -40 -3 0 0 -4 7 -9 11 -6
10 -11 -3 -25 -18 -17 -9 -22 14 -7 13 9 12 36 -4 74 -4 10 -3 17 4 17 5 0 15
-18 21 -41 14 -51 1 -69 -48 -69 -72 0 -183 153 -152 210 13 25 66 27 98 4z
m167 -779 c-20 -261 -19 -257 -47 -246 -38 14 -43 53 -14 129 14 37 30 87 35
112 12 57 30 282 33 414 2 80 3 69 6 -49 2 -82 -4 -244 -13 -360z m715 431
c-28 -76 -28 -439 1 -470 6 -6 9 -5 9 2 0 7 4 12 8 12 5 0 10 -24 11 -52 2
-60 -6 -55 -36 22 -43 111 -52 147 -48 201 3 30 7 90 9 134 4 83 35 200 49
186 4 -4 3 -20 -3 -35z m-1267 -212 c20 -34 32 -44 48 -42 14 2 27 -6 37 -21
16 -23 16 -24 -8 -16 -14 4 -36 16 -50 27 -24 19 -25 19 -40 1 -25 -30 -83
-61 -118 -61 -17 0 -41 -4 -52 -7 -31 -10 -41 4 -19 26 12 12 27 18 37 14 11
-4 32 12 69 51 29 31 53 60 53 65 0 21 17 6 43 -37z m339 -66 c12 12 62 0 87
-21 9 -7 32 -20 52 -29 32 -15 35 -19 31 -48 l-5 -33 -56 6 c-31 3 -75 15 -98
26 -23 12 -47 21 -53 21 -5 0 -19 9 -30 20 -12 12 -26 17 -36 13 -25 -9 -14
13 26 55 l35 37 18 -29 c13 -20 22 -25 29 -18z m1601 -50 c-2 -90 -19 -248
-34 -315 -5 -23 -9 -79 -10 -125 -1 -70 -2 -78 -11 -53 -6 17 -10 89 -11 160
0 102 6 159 27 264 23 118 32 151 39 151 1 0 1 -37 0 -82z m-133 -28 c-8 -33
-30 -272 -30 -333 0 -18 -4 -26 -11 -21 -6 3 -8 16 -5 27 3 12 0 27 -7 35 -6
8 -12 42 -11 76 0 75 31 271 46 300 11 20 12 19 19 -14 5 -19 4 -51 -1 -70z
m-365 37 c6 -33 4 -43 -11 -54 -14 -10 -15 -17 -7 -35 20 -41 22 -56 13 -87
-6 -20 -5 -32 3 -35 7 -3 -1 -3 -18 0 -32 6 -65 37 -65 60 0 7 11 33 25 58 21
38 23 45 9 50 -11 4 -14 14 -11 27 4 16 3 18 -9 8 -11 -9 -14 -7 -14 10 0 12
6 21 15 21 9 0 18 6 21 14 11 28 42 5 49 -37z m390 -291 c-13 -138 -12 -202 1
-246 4 -13 6 -13 14 0 8 12 13 11 31 -9 22 -23 23 -23 30 -5 4 10 9 57 10 104
l2 85 9 -99 c5 -54 7 -104 4 -112 -3 -8 -16 -11 -35 -8 -22 4 -31 1 -31 -8 0
-8 12 -13 32 -13 30 0 32 -2 34 -40 2 -21 -2 -42 -7 -46 -7 -4 -7 -13 2 -26
13 -22 7 -53 -11 -53 -6 0 -9 8 -6 18 4 13 0 18 -14 19 -11 1 -20 -3 -20 -9 0
-5 -7 -8 -15 -4 -27 10 -16 -19 14 -35 19 -11 33 -13 45 -7 13 7 16 4 16 -22
0 -16 -3 -29 -7 -29 -22 4 -25 -3 -7 -17 18 -14 16 -15 -21 -9 -53 9 -56 12
-49 41 4 14 2 24 -5 24 -6 0 -11 -8 -11 -19 0 -20 -51 -34 -89 -24 -26 7 -26
12 2 43 12 14 29 34 37 44 14 18 13 19 -3 13 -15 -6 -16 -4 -7 13 9 16 8 20
-5 20 -8 0 -14 -6 -13 -12 2 -7 -3 -12 -10 -10 -7 1 -12 -5 -10 -15 2 -14 -7
-19 -47 -24 -27 -4 -59 -10 -70 -15 -18 -7 -18 -6 -6 9 16 20 2 23 -18 5 -11
-11 -13 -10 -8 5 9 23 -5 22 -20 -3 -7 -10 -23 -24 -35 -31 l-23 -12 23 25
c12 13 22 29 22 36 0 15 37 35 50 27 11 -7 14 8 3 19 -11 11 -14 46 -3 46 6 0
10 -7 10 -16 0 -10 6 -14 14 -11 8 3 16 1 18 -4 4 -13 38 -1 38 13 0 6 -6 5
-15 -2 -17 -14 -19 -10 -6 22 6 13 12 40 16 61 4 28 11 37 25 37 11 0 20 -5
20 -11 0 -5 -4 -7 -10 -4 -11 7 -13 -6 -4 -29 11 -29 24 -17 24 22 1 33 2 35
14 19 12 -15 15 -15 26 -2 7 8 16 12 21 9 18 -11 20 26 6 132 -10 74 -12 126
-6 159 5 28 12 86 16 130 l6 80 13 -43 c11 -35 11 -70 -1 -196z m-1795 -25 c0
-17 -38 -74 -76 -113 -17 -18 -12 -38 11 -38 8 0 16 -4 20 -9 3 -6 -15 -7 -45
-4 -33 3 -50 2 -50 -6 0 -6 4 -11 9 -11 5 0 7 -10 4 -22 -3 -13 -2 -20 2 -16
14 13 62 -20 84 -58 17 -29 19 -39 9 -45 -8 -5 -16 -2 -22 9 -19 36 -54 72
-59 59 -4 -12 -57 38 -57 54 0 4 -16 16 -35 25 -19 9 -35 19 -35 23 0 4 29 22
64 41 38 19 82 53 107 81 45 51 69 62 69 30z m333 -98 c39 -10 67 -23 67 -30
0 -7 11 -13 25 -13 31 0 32 8 3 20 -20 8 -18 9 15 9 30 1 37 -3 37 -18 0 -26
11 -32 65 -33 25 0 45 -5 45 -11 0 -5 8 -16 18 -23 16 -12 15 -13 -6 -14 -13
0 -21 4 -18 9 3 5 -1 14 -9 21 -13 11 -14 8 -10 -21 l5 -34 -12 28 c-10 24
-17 28 -41 24 -15 -2 -30 0 -33 4 -3 5 -14 3 -24 -3 -16 -10 -22 -9 -34 7 -14
20 -48 26 -167 27 -36 1 -74 -4 -85 -10 -15 -9 -7 -11 38 -6 40 5 62 3 73 -6
10 -8 19 -9 28 -3 15 12 99 4 91 -8 -3 -6 0 -17 7 -25 8 -10 -1 -7 -24 6 -20
12 -42 20 -49 18 -7 -3 4 -13 25 -22 38 -19 49 -36 22 -36 -8 0 -15 5 -15 10
0 6 -6 10 -12 11 -7 0 -35 11 -63 24 -36 17 -52 20 -57 12 -6 -9 -10 -9 -16 0
-5 7 -13 9 -21 3 -8 -4 -20 -6 -28 -3 -7 3 -13 -2 -13 -11 0 -20 -19 -21 -26
-1 -8 21 -37 19 -80 -5 -20 -12 -41 -19 -48 -17 -6 2 7 12 28 21 22 9 36 19
33 22 -3 3 -20 -1 -39 -9 -18 -8 -46 -18 -63 -21 -28 -6 -29 -5 -11 9 11 8 29
15 41 15 11 0 30 7 43 15 18 13 29 14 63 5 22 -6 44 -9 47 -6 3 3 0 6 -6 6 -7
0 -12 4 -12 9 0 17 154 30 218 17 28 -5 42 -4 42 3 0 6 -15 11 -33 11 -19 0
-37 3 -41 7 -13 14 -85 12 -113 -2 -33 -18 -113 -20 -113 -4 0 7 11 9 30 5 21
-4 40 1 63 14 39 24 63 25 150 3z m926 -43 c-1 -20 -2 -21 -6 -5 -8 31 -23 42
-23 16 0 -37 18 -63 38 -52 20 10 45 3 36 -10 -3 -5 -1 -9 5 -9 5 0 12 6 14
13 4 9 6 9 6 0 1 -18 -18 -26 -34 -13 -12 10 -14 7 -10 -19 2 -17 11 -38 19
-47 9 -8 16 -19 16 -24 0 -22 52 -60 83 -60 18 0 40 -6 49 -13 20 -16 35 -67
19 -67 -6 0 -11 6 -11 14 0 17 -27 46 -41 46 -5 0 -1 -9 10 -21 23 -25 17 -48
-13 -50 -11 -1 -28 -2 -38 -3 -9 -1 -20 -4 -24 -8 -4 -5 -25 -8 -46 -8 -32 0
-38 3 -38 21 0 17 4 19 23 13 29 -10 78 -7 91 6 7 7 4 16 -8 28 -18 16 -19 16
-13 -1 4 -11 3 -16 -4 -12 -6 4 -8 13 -5 20 2 7 -5 21 -16 32 -11 10 -27 32
-34 48 -7 17 -29 52 -48 80 -20 28 -36 62 -36 77 0 16 -5 28 -11 28 -18 0 -3
-71 21 -100 11 -14 32 -49 46 -78 14 -29 35 -58 45 -65 10 -6 19 -15 19 -19 0
-10 -31 2 -53 20 -9 8 -20 12 -24 9 -8 -8 22 -34 56 -48 13 -5 21 -12 18 -15
-3 -3 -14 -1 -25 5 -12 6 -31 11 -44 11 -18 0 -28 10 -43 43 -15 32 -31 48
-67 66 -27 13 -48 30 -48 38 0 8 4 12 8 9 4 -2 6 11 4 30 -3 20 0 34 7 34 5 0
27 17 48 39 57 58 84 59 82 1z m181 -41 c0 -8 11 -9 31 -5 29 5 30 4 18 -11
-13 -15 -11 -16 11 -9 35 10 112 7 127 -6 7 -6 13 -16 13 -22 0 -6 -6 -4 -13
4 -14 18 -87 27 -87 11 0 -6 12 -11 26 -11 31 0 64 -17 64 -32 0 -6 -8 -4 -18
5 -20 18 -57 23 -47 7 3 -5 -2 -11 -12 -11 -17 -1 -17 -2 0 -6 23 -6 22 -19
-3 -19 -16 0 -20 7 -20 33 0 43 -12 42 -33 -3 -18 -37 -37 -38 -37 -1 -1 24 0
24 -40 -32 -14 -21 -55 -28 -75 -13 -6 4 -18 19 -28 34 -17 28 -17 28 15 58
35 31 48 37 48 20 0 -5 -4 -10 -10 -10 -5 0 -10 -5 -10 -11 0 -8 5 -8 15 1 8
7 15 19 15 26 0 8 10 14 25 14 14 0 25 -5 25 -11z m-636 -21 c8 -13 19 -42 26
-66 6 -24 14 -50 17 -59 5 -12 3 -14 -7 -8 -10 6 -12 3 -8 -13 5 -17 2 -22
-13 -22 -10 0 -19 -4 -19 -8 0 -8 26 -10 184 -15 27 -1 51 3 53 9 2 6 -25 10
-75 11 -87 0 -104 6 -95 29 4 10 8 12 13 5 9 -16 94 -20 170 -9 36 5 75 10 87
11 27 2 31 26 6 28 -24 2 -25 2 -48 -7 -17 -7 -18 -6 -7 8 14 17 49 16 84 -3
11 -6 28 -30 38 -54 10 -24 27 -48 37 -54 15 -9 15 -10 2 -11 -21 0 -72 57
-56 63 27 9 -1 14 -56 9 -53 -4 -60 -8 -82 -39 -13 -20 -21 -42 -18 -50 5 -11
-15 -13 -122 -12 -123 2 -129 2 -146 -20 -11 -13 -19 -31 -18 -40 0 -9 6 -3
14 14 15 35 41 42 133 37 53 -3 62 -6 62 -23 0 -21 26 -37 38 -24 4 4 1 10 -5
12 -18 6 -16 23 1 23 8 0 17 -13 21 -30 5 -24 12 -30 33 -31 20 -1 17 -4 -13
-9 -37 -7 -36 -7 20 -8 55 -1 58 0 41 13 -18 14 -15 15 40 15 38 0 54 3 45 9
-8 5 -20 7 -28 4 -7 -3 -13 0 -13 6 0 16 53 13 76 -4 24 -18 53 -19 60 -2 5
15 137 11 142 -4 2 -4 15 -3 30 3 34 14 141 11 159 -4 16 -13 76 -20 150 -18
28 0 54 -4 58 -10 3 -5 18 -10 33 -10 29 0 60 -15 46 -22 -18 -8 -137 4 -123
13 9 6 -6 8 -41 7 -53 -1 -54 -1 -15 -8 45 -7 33 -17 -30 -23 -26 -2 -13 -5
35 -7 41 -2 60 -5 43 -7 -18 -2 -33 -8 -33 -14 0 -13 -34 -11 -48 3 -9 9 -12
9 -12 0 0 -7 -15 -12 -36 -12 -20 0 -33 -4 -29 -10 6 -9 87 -6 128 5 9 3 26 8
37 11 15 4 20 1 20 -14 0 -11 -7 -23 -17 -26 -14 -6 -14 -8 3 -21 18 -14 18
-14 -8 -15 -16 0 -28 -4 -28 -10 0 -5 5 -10 10 -10 17 0 11 -28 -7 -39 -15 -9
-14 -10 10 -11 16 0 26 -4 22 -10 -3 -6 -1 -10 5 -10 6 0 9 -3 7 -7 -5 -8 -30
-8 -192 -3 -72 3 -75 4 -35 10 l45 7 -47 1 c-27 1 -48 -2 -48 -8 0 -6 -42 -9
-107 -9 -74 1 -97 4 -73 9 34 7 34 7 -13 9 -27 0 -46 -3 -43 -7 6 -10 -336
-23 -529 -20 -71 1 -106 3 -77 5 28 2 52 8 52 12 0 4 -105 8 -232 8 -212 -1
-402 12 -427 27 -5 4 -29 3 -53 -1 -38 -7 -28 -9 82 -21 69 -7 208 -16 310
-21 162 -6 134 -7 -231 -9 -229 -1 -418 1 -422 4 -3 3 -3 12 -1 19 5 11 12 11
39 -1 40 -16 55 -18 55 -5 0 5 -15 13 -33 16 -62 14 -63 17 -61 202 l1 167 34
14 c19 8 45 20 59 28 20 9 64 11 180 7 136 -5 155 -3 166 11 8 11 14 13 19 7
3 -6 1 -11 -4 -11 -6 0 -11 -4 -11 -9 0 -9 102 -2 110 8 7 9 220 7 220 -1 0
-5 -28 -9 -62 -10 -179 -6 -298 -18 -298 -31 0 -6 26 -7 73 -2 39 4 122 10
183 15 61 4 117 10 123 14 18 12 12 36 -9 36 -11 0 -20 5 -20 11 0 6 7 8 16 5
9 -3 22 -6 29 -6 8 0 11 -7 8 -20 -3 -11 -1 -20 5 -20 6 0 18 -3 28 -7 12 -4
15 -3 10 6 -6 8 4 10 36 5 48 -8 62 -14 30 -14 -44 0 -20 -15 51 -33 39 -9 82
-14 95 -11 16 5 22 2 22 -9 0 -16 47 -30 56 -16 3 5 -4 9 -15 9 -12 0 -21 7
-21 15 0 12 -13 15 -55 15 l-54 0 6 32 c5 24 3 29 -7 23 -10 -6 -11 -2 -7 17
4 15 0 45 -8 69 -14 38 -14 44 1 61 23 24 50 23 68 -4z m1091 -652 c3 -17 4
-78 3 -136 l-3 -105 -1078 -2 -1077 -3 0 135 0 135 572 3 c315 1 799 3 1075 3
l503 1 5 -31z"/>
<path d="M870 3885 c0 -3 12 -16 26 -29 24 -20 25 -24 13 -44 -8 -12 -22 -22
-32 -22 -10 0 -16 -4 -12 -9 7 -12 314 -10 321 1 3 4 -11 8 -30 8 -40 0 -41 3
-25 49 8 23 17 31 36 31 13 0 22 4 19 9 -6 9 -316 15 -316 6z"/>
<path d="M988 3580 c-18 -9 -32 -20 -30 -24 1 -3 2 -19 2 -36 0 -16 5 -30 10
-30 6 0 10 18 10 40 0 22 4 40 8 40 17 0 21 -13 11 -38 -7 -19 -7 -33 2 -49
14 -25 3 -46 -11 -23 -8 13 -13 13 -31 2 -25 -16 -37 -8 -19 13 7 8 8 15 2 15
-5 0 -15 -6 -21 -14 -10 -11 -7 -17 10 -30 18 -12 20 -18 10 -30 -7 -8 -10
-20 -6 -26 3 -5 -1 -10 -11 -10 -13 0 -15 6 -10 30 5 26 3 30 -17 30 -15 0
-18 -3 -9 -8 7 -5 10 -15 7 -24 -3 -8 1 -21 10 -28 12 -10 13 -16 4 -27 -7 -7
-8 -17 -4 -21 4 -4 10 -1 12 5 4 10 8 9 19 -1 18 -18 18 -32 1 -17 -11 9 -14
4 -12 -25 3 -46 25 -71 25 -29 0 42 17 13 26 -44 6 -39 4 -47 -17 -64 -24 -20
-24 -20 -1 -13 14 5 22 3 22 -4 0 -6 5 -8 10 -5 6 3 10 22 10 41 0 44 21 41
32 -4 5 -18 13 -32 19 -32 6 0 9 6 6 13 -3 6 -8 19 -11 27 -5 11 1 15 19 16
24 2 26 -1 20 -28 l-7 -30 23 23 c25 25 37 13 20 -20 -18 -32 -13 -36 15 -10
19 17 28 20 31 11 4 -10 8 -10 18 -2 12 10 13 5 9 -27 -3 -21 -7 -46 -9 -55
-2 -10 1 -18 6 -18 9 0 15 22 22 79 3 29 0 36 -25 50 -31 17 -48 53 -29 59 9
3 9 8 -1 20 -9 10 -10 16 -2 19 6 2 9 15 6 28 -2 14 0 25 7 25 5 0 8 -7 5 -15
-5 -11 -2 -13 9 -9 13 5 15 -1 11 -33 -4 -25 -3 -34 4 -25 5 8 8 34 6 59 -2
35 0 44 12 39 8 -3 14 1 14 10 0 11 -5 14 -17 10 -16 -6 -16 -6 0 12 9 10 17
24 17 31 0 7 4 10 9 7 5 -3 9 -21 9 -40 0 -19 5 -42 11 -53 9 -14 10 -6 8 41
-4 58 -18 81 -46 71 -9 -4 -12 1 -8 15 3 12 0 20 -7 20 -6 0 -17 9 -24 20 -14
24 -40 26 -48 5 -9 -22 -26 -18 -19 4 9 29 -5 71 -23 71 -12 0 -13 -3 -4 -12
7 -7 12 -25 12 -40 0 -23 -7 -32 -32 -43 l-33 -15 45 3 c51 2 61 -16 20 -36
-27 -13 -39 -52 -21 -70 8 -8 11 -8 11 1 0 7 9 12 19 12 11 0 23 5 27 11 4 7
-2 9 -16 7 -30 -4 -39 22 -11 29 12 3 21 9 21 14 0 5 4 9 9 9 13 0 18 -58 8
-100 -24 -103 -62 -139 -116 -109 -31 17 -94 139 -80 154 6 5 13 5 21 -3 15
-15 48 -16 48 -1 0 6 -7 9 -15 5 -8 -3 -21 1 -29 9 -7 8 -17 11 -21 7 -4 -4
-5 0 -3 8 3 8 11 14 17 12 9 -2 9 3 1 18 -10 19 -9 20 16 14 34 -9 45 9 30 47
-8 22 -8 34 2 49 10 16 9 21 -6 29 -16 10 -15 11 3 12 58 4 116 -11 114 -29
-5 -28 4 -37 36 -39 39 -3 48 15 16 32 -10 6 -31 17 -47 26 -46 26 -108 30
-146 9z"/>
<path d="M1406 2746 c7 -18 -22 -63 -50 -78 -20 -10 -20 -10 -5 8 29 35 33 49
6 25 -15 -13 -29 -33 -33 -43 -5 -16 -12 -18 -53 -12 -62 8 -101 -14 -101 -58
0 -16 -5 -39 -11 -51 -10 -21 -10 -21 5 -3 9 11 16 29 16 41 0 37 28 65 65 65
19 0 37 -4 40 -10 4 -6 -8 -10 -28 -10 -40 0 -67 -25 -67 -63 0 -17 -10 -33
-30 -47 -16 -12 -30 -30 -30 -40 0 -10 -10 -26 -21 -34 -12 -8 -27 -25 -33
-38 -6 -13 -32 -33 -56 -45 -56 -27 -72 -28 -41 -3 13 11 31 20 40 20 22 0 41
19 41 42 0 10 11 24 25 30 21 10 30 21 23 31 -1 1 5 13 12 27 12 22 12 24 -2
12 -9 -7 -19 -24 -22 -37 -3 -13 -15 -26 -25 -30 -11 -3 -21 -15 -23 -27 -3
-21 -8 -25 -66 -52 -33 -15 -33 -15 -52 17 -24 38 -19 45 16 23 14 -10 28 -16
30 -13 6 5 -45 47 -57 47 -14 0 -21 -20 -15 -44 7 -29 97 -126 117 -126 12 0
12 2 -1 10 -12 7 -11 12 5 31 l20 23 -26 -16 c-24 -15 -39 -15 -39 1 0 6 33
21 72 34 9 3 25 19 35 34 10 15 28 36 40 46 13 10 23 26 23 36 0 9 14 25 30
34 24 14 30 25 30 51 0 41 15 56 57 56 38 0 100 36 132 76 21 27 29 74 11 74
-5 0 -7 -6 -4 -14z"/>
<path d="M1328 2363 l-1 -148 -10 143 c-8 112 -13 142 -24 142 -9 0 -12 -7 -9
-17 15 -55 18 -119 23 -471 5 -445 4 -596 -3 -634 -3 -16 -1 -28 5 -28 24 0
29 147 17 528 -7 198 -6 276 2 281 16 10 29 336 13 345 -8 5 -11 -33 -13 -141z"/>
<path d="M1047 1873 c3 -387 22 -825 35 -838 7 -7 8 24 4 95 -4 58 -11 316
-15 575 -5 259 -9 471 -10 473 -13 23 -16 -50 -14 -305z"/>
<path d="M934 2135 c-9 -22 6 -560 15 -560 1 0 4 -125 6 -278 3 -161 10 -287
15 -298 18 -32 28 -21 18 19 -5 20 -11 164 -13 319 -2 156 -6 286 -9 291 -3 5
-8 123 -12 263 -3 140 -8 256 -10 258 -2 2 -7 -4 -10 -14z"/>
<path d="M1334 588 c-5 -7 0 -9 14 -6 31 8 193 -10 209 -24 9 -7 73 -14 166
-18 84 -4 160 -10 170 -14 10 -5 17 -4 17 3 0 6 -7 11 -15 11 -7 0 -18 6 -22
14 -4 7 -23 17 -42 21 -24 5 -31 4 -27 -4 4 -6 11 -9 16 -6 5 3 11 1 15 -5 4
-7 -15 -9 -53 -8 -48 3 -58 6 -54 18 3 8 10 18 16 23 6 4 -31 7 -82 6 -78 -1
-90 -3 -75 -14 25 -18 7 -32 -20 -16 -37 24 -221 38 -233 19z"/>
<path d="M1147 294 c-1 -1 -1 -40 1 -87 3 -82 4 -84 27 -79 21 4 22 7 13 33
-5 16 -8 36 -4 44 8 22 36 6 36 -20 0 -25 46 -69 61 -59 15 9 10 29 -11 42
-24 14 -26 45 -5 62 37 31 6 61 -65 64 -28 1 -51 1 -53 0z"/>
<path d="M1537 293 c-3 -5 -5 -37 -6 -72 0 -35 -3 -73 -7 -84 -5 -16 -3 -19
11 -14 9 4 24 7 33 8 11 0 12 2 5 6 -8 3 -13 23 -13 51 l0 47 33 -57 c20 -37
38 -58 50 -58 23 0 25 9 29 103 l3 77 -27 0 c-16 0 -28 -4 -28 -10 0 -5 5 -10
10 -10 6 0 10 -24 10 -52 l-1 -53 -21 40 c-32 63 -69 98 -81 78z"/>
<path d="M580 219 c3 -39 2 -73 -2 -76 -17 -9 2 -20 27 -15 19 3 23 8 16 15
-6 6 -11 31 -11 56 l0 46 26 -32 c14 -18 30 -33 35 -33 5 0 18 18 29 40 11 22
23 40 25 40 13 0 -1 -116 -15 -127 -13 -10 -10 -12 15 -13 l30 0 0 85 c0 80
-1 85 -21 85 -14 0 -27 -12 -40 -40 -10 -22 -21 -40 -24 -40 -6 0 -25 34 -36
63 -4 10 -17 17 -33 17 l-26 0 5 -71z"/>
</g>
</svg>
