<?xml version="1.0" standalone="no"?>
<!DOCTYPE svg PUBLIC "-//W3C//DTD SVG 20010904//EN"
 "http://www.w3.org/TR/2001/REC-SVG-20010904/DTD/svg10.dtd">
<svg version="1.0" xmlns="http://www.w3.org/2000/svg"
 width="233.000000pt" height="400.000000pt" viewBox="0 0 233.000000 400.000000"
 preserveAspectRatio="xMidYMid meet">
<metadata>
Created by potrace 1.15, written by Peter Selinger 2001-2017
</metadata>
<g transform="translate(0.000000,400.000000) scale(0.100000,-0.100000)"
fill="#000000" stroke="none">
<path d="M1859 3976 c-2 -2 -411 -7 -909 -11 -498 -4 -908 -9 -913 -12 -7 -4
-10 -653 -2 -653 2 0 11 3 19 6 13 5 14 9 5 20 -9 12 -6 13 22 8 19 -4 42 -14
52 -22 25 -22 31 -9 6 14 -12 10 -33 19 -47 19 -14 0 -27 5 -29 10 -1 6 13 10
32 9 39 -1 81 -43 71 -70 -5 -14 -10 -13 -38 4 -25 16 -36 18 -55 9 -12 -5
-23 -14 -23 -19 0 -12 24 -10 38 4 9 10 16 8 30 -7 9 -11 10 -14 3 -7 -21 17
-36 15 -21 -3 7 -9 10 -18 6 -22 -3 -3 -6 -1 -6 6 0 8 -7 10 -21 6 -14 -5 -25
-1 -34 12 -12 15 -14 -79 -13 -635 1 -605 8 -763 24 -552 12 159 16 190 26
190 6 0 8 7 4 15 -3 8 -1 15 4 15 10 0 15 -41 12 -85 -3 -41 10 -155 18 -155
4 0 5 29 3 64 -7 77 0 104 21 86 10 -8 16 -41 19 -108 2 -53 7 -108 11 -122 7
-24 7 -24 -8 -6 -9 11 -16 30 -16 43 0 13 -4 23 -10 23 -15 0 -12 -38 4 -68
16 -29 37 -92 31 -92 -1 0 -12 16 -24 35 -20 34 -22 35 -44 20 -31 -20 -37
-12 -32 49 l5 51 -13 -38 c-7 -21 -16 -35 -20 -31 -4 4 -7 -31 -8 -77 0 -46
-3 -183 -5 -304 -5 -276 -6 -1547 0 -1552 2 -2 345 -6 762 -8 418 -3 913 -7
1101 -10 217 -2 345 0 349 6 3 5 5 791 4 1747 -2 955 -2 1823 -2 1927 1 105
-1 209 -4 233 l-5 42 -188 0 c-103 0 -190 -2 -192 -4z m297 -32 c-3 -9 -6 -22
-6 -30 0 -9 -11 -14 -29 -14 -69 0 -82 -26 -19 -37 l43 -6 -35 -12 -35 -13 30
-7 c50 -12 52 -13 10 -15 -49 -1 -85 -24 -67 -42 9 -9 12 -8 12 4 0 21 30 31
65 22 22 -5 25 -11 21 -30 -3 -12 -2 -25 3 -28 5 -3 12 15 16 40 5 39 9 44 26
39 11 -4 19 -2 19 4 0 6 -10 12 -22 12 -21 1 -21 2 -3 7 l20 5 -20 8 c-17 7
-16 8 8 8 33 1 37 27 5 37 -22 7 -22 7 -3 15 35 13 37 10 31 -43 -3 -29 -5
-81 -6 -115 l0 -63 -192 -2 -193 -2 195 -6 195 -5 3 -25 3 -25 -348 -2 c-360
-1 -1784 -4 -1815 -3 -11 0 -18 8 -18 20 0 19 7 20 103 22 l102 2 -102 3 -103
4 0 129 c0 71 4 131 9 135 5 3 191 6 413 6 222 1 556 5 743 8 187 4 477 8 644
9 273 2 303 0 297 -14z m-913 -386 c83 -46 130 -174 95 -258 -21 -51 -65 -98
-111 -121 -32 -17 -54 -20 -103 -17 -119 7 -194 91 -194 213 0 84 40 147 120
188 65 34 125 32 193 -5z m890 -194 l97 -17 -1 -81 c0 -68 -2 -77 -11 -56 -46
104 -118 155 -218 155 -71 -1 -108 -15 -154 -61 -94 -95 -95 -237 -1 -328 121
-118 313 -71 370 90 13 36 14 21 14 -171 0 -199 -1 -209 -17 -185 -47 71 -132
120 -206 120 -41 0 -124 -40 -160 -76 -82 -82 -88 -231 -13 -313 12 -13 40
-35 62 -50 33 -21 51 -26 110 -26 59 0 77 5 110 26 47 31 76 62 98 104 16 29
16 28 17 -62 l0 -92 -27 2 c-19 1 -30 -5 -38 -20 -11 -21 -11 -21 -24 -2 -18
29 -60 21 -80 -15 -10 -17 -30 -33 -51 -40 -33 -11 -35 -14 -33 -54 2 -41 2
-42 -22 -26 -12 8 -25 24 -28 34 -7 25 -43 26 -58 1 -11 -16 -14 -17 -41 -3
-17 8 -48 14 -70 14 l-41 -1 6 361 c6 311 9 362 22 372 10 7 13 18 9 29 -5 15
-23 17 -154 17 -160 0 -175 -5 -147 -53 9 -17 11 -88 7 -302 l-5 -280 -40 55
c-23 30 -53 80 -68 111 -47 97 -139 146 -244 129 -52 -9 -116 -45 -136 -77 -5
-8 -28 -13 -63 -13 -51 0 -53 1 -42 19 10 16 9 23 -5 39 -21 23 -21 32 0 48
10 7 14 16 10 20 -4 5 -12 2 -17 -6 -10 -16 -14 -7 -10 25 5 50 186 258 290
333 188 136 382 229 547 262 32 6 83 20 113 31 52 18 182 37 225 32 11 -1 64
-10 118 -19z m-45 -33 c75 -39 114 -102 116 -190 1 -56 -3 -74 -27 -114 -39
-66 -96 -101 -167 -101 -180 -2 -277 195 -169 344 54 74 167 102 247 61z
m-1687 -15 c149 -64 175 -274 45 -367 -35 -26 -40 -34 -37 -65 1 -19 -2 -34
-8 -34 -6 0 -8 12 -5 29 l6 28 -74 -1 c-67 -1 -77 2 -120 31 -60 43 -90 102
-90 183 0 43 6 70 21 96 12 19 18 41 15 47 -4 7 -4 9 1 5 4 -4 22 4 39 17 17
13 43 28 56 34 37 15 113 13 151 -3z m204 -202 c0 -39 3 -49 19 -52 25 -5 36
14 37 68 0 25 3 39 6 31 5 -11 7 -11 14 0 7 11 9 11 9 -1 0 -9 -6 -22 -12 -29
-11 -11 -10 -13 2 -9 13 5 16 -10 18 -104 2 -100 1 -109 -15 -106 -10 2 -19
13 -21 25 -5 34 -29 49 -50 31 -30 -27 -52 -19 -52 20 0 29 2 33 15 22 13 -10
15 -9 15 9 0 11 -6 20 -12 19 -9 -2 -14 13 -16 46 -3 41 -1 48 12 43 10 -4 16
-1 16 9 0 8 -4 12 -10 9 -5 -3 -10 -4 -10 -1 0 2 -3 12 -6 20 -5 13 -2 15 17
7 21 -7 24 -15 24 -57z m1100 -229 c-4 -664 -4 -652 -25 -658 -12 -3 -20 -14
-20 -25 0 -12 -5 -24 -11 -27 -6 -4 -15 -17 -20 -29 -9 -21 -10 -21 -5 2 5 28
-10 29 -19 2 -4 -12 -1 -27 5 -35 9 -11 9 -15 1 -15 -6 0 -11 -7 -11 -15 0 -8
4 -15 8 -15 4 0 14 -16 21 -36 8 -23 18 -34 27 -30 7 3 18 -4 24 -14 8 -16 8
-20 -4 -20 -8 0 -27 -7 -43 -16 -28 -17 -29 -16 -61 15 -20 21 -38 30 -49 27
-43 -13 -43 -13 -39 490 2 263 4 480 5 482 1 2 49 2 109 0 l107 -3 0 -80z
m-1263 -83 c59 -41 88 -98 88 -176 0 -136 -121 -237 -248 -207 -97 24 -161
106 -162 209 0 63 18 107 63 150 53 51 85 63 152 59 47 -3 70 -10 107 -35z
m1621 -3 c52 -14 122 -84 136 -134 25 -93 7 -171 -53 -229 -45 -44 -95 -60
-164 -53 -179 19 -248 254 -109 372 60 52 116 65 190 44z m-851 -151 c48 -14
113 -77 129 -125 6 -19 9 -63 7 -98 -4 -72 -32 -118 -101 -163 -34 -23 -51
-27 -108 -27 -59 0 -73 4 -110 30 -27 19 -54 51 -72 85 -24 46 -28 63 -24 106
15 150 138 234 279 192z m-379 -87 c31 -1 37 -4 38 -23 0 -13 3 -17 6 -10 2 6
9 10 14 7 5 -4 6 0 3 8 -4 10 2 15 19 15 24 0 24 -1 11 -46 -8 -25 -15 -64
-15 -86 -1 -39 -2 -40 -9 -11 l-8 30 -1 -27 c-1 -28 -2 -28 -71 -28 -61 0 -71
3 -81 21 -12 23 -7 86 10 131 7 18 16 25 28 23 10 -2 35 -4 56 -4z m29 -223
c3 -24 28 -37 28 -15 0 9 -6 17 -12 20 -7 2 -10 7 -7 11 9 10 69 -5 69 -18 1
-15 60 -78 90 -95 13 -7 52 -16 87 -19 96 -7 166 25 221 104 17 25 27 30 47
26 16 -3 25 -11 25 -22 0 -10 3 -26 6 -35 5 -13 2 -15 -19 -10 -36 9 -95 -12
-102 -36 -4 -11 -10 -18 -13 -14 -8 8 -41 -73 -41 -102 -1 -13 -5 -23 -9 -23
-5 0 -9 -17 -9 -37 0 -21 2 -28 4 -15 4 22 23 32 23 12 0 -5 9 -10 21 -10 11
0 17 -4 14 -10 -3 -5 -1 -10 4 -10 6 0 11 -4 11 -9 0 -4 -25 -11 -56 -15 -31
-4 -69 -15 -84 -26 -16 -11 -30 -20 -33 -20 -3 0 -3 18 0 40 6 42 -9 54 -35
28 -9 -9 -12 -5 -13 18 -1 16 -3 22 -6 12 -2 -10 -11 -18 -19 -18 -11 0 -14
-15 -14 -60 0 -47 3 -60 15 -60 9 0 20 10 25 23 5 12 9 17 9 10 1 -6 4 -18 7
-26 4 -10 -4 -16 -25 -19 -17 -2 -34 -2 -39 1 -4 3 -14 33 -23 66 l-15 60 -96
3 c-112 3 -104 -6 -114 138 -7 96 -22 147 -41 139 -8 -2 -13 4 -13 15 0 18 7
20 64 20 59 0 65 -2 68 -22z m1354 -17 c-3 -5 1 -11 9 -15 20 -7 19 -35 -2
-59 -10 -11 -12 -17 -5 -13 8 5 12 1 12 -11 0 -10 3 -40 6 -68 l6 -50 -30 -1
c-21 -1 -33 5 -41 20 -9 18 -10 16 -6 -14 5 -29 4 -33 -7 -20 -7 8 -24 14 -37
12 -18 -3 -22 0 -18 12 3 8 2 18 -4 22 -6 4 -6 11 2 21 11 13 14 13 26 -3 12
-17 13 -17 13 0 0 16 2 16 16 5 14 -11 15 -10 12 7 -1 10 -7 22 -13 26 -7 5
-6 14 2 27 8 13 9 21 2 23 -18 6 2 38 23 38 16 0 18 3 9 13 -8 10 -7 17 1 25
14 14 32 16 24 3z m-457 -175 c-3 -25 2 -36 16 -36 8 0 19 -10 26 -21 8 -15 8
-19 0 -15 -16 10 -14 -7 4 -30 8 -10 15 -29 15 -42 0 -12 15 -36 33 -52 17
-17 24 -27 15 -24 -17 6 -17 4 -3 -30 9 -20 13 -41 10 -46 -8 -13 -35 -13 -35
-1 0 5 -13 12 -29 16 -16 3 -34 12 -39 18 -21 26 -14 117 9 117 5 0 9 4 9 10
0 5 -16 0 -35 -12 l-36 -21 -24 23 c-30 28 -50 80 -31 80 8 0 16 -9 19 -20 5
-20 37 -29 37 -10 0 6 -7 10 -15 10 -8 0 -15 8 -15 18 0 26 -11 34 -27 21 -19
-16 -18 29 2 51 16 18 96 16 94 -4z m171 -81 c0 -22 4 -25 34 -25 28 0 36 5
44 28 10 26 11 26 17 5 7 -21 45 -36 63 -24 4 3 11 14 15 24 8 20 27 14 27 -9
0 -20 66 -19 74 2 3 9 11 14 17 12 7 -2 10 -74 10 -223 -1 -332 -1 -395 3
-451 l4 -51 -29 11 c-21 7 -27 15 -23 26 31 71 36 102 26 155 -18 87 -73 154
-149 180 -33 11 -37 18 -62 93 -29 88 -46 112 -103 144 -42 24 -46 37 -22 73
9 13 13 28 10 34 -5 8 8 15 37 20 4 0 7 -10 7 -24z m-1158 -100 c9 -80 0 -135
-26 -157 -18 -14 -19 -20 -8 -37 16 -28 15 -31 -9 -31 -17 0 -19 -3 -11 -13 6
-7 8 -24 5 -37 -4 -16 -3 -21 5 -16 7 4 12 16 12 27 0 10 5 19 10 19 6 0 10
-6 10 -12 0 -7 3 -24 7 -37 5 -21 3 -23 -13 -18 -16 6 -17 5 -4 -5 8 -7 24
-31 35 -53 11 -22 26 -46 33 -53 6 -7 12 -28 12 -45 l0 -31 -48 50 c-30 32
-60 53 -80 57 -23 5 -33 13 -38 31 -4 16 -12 25 -23 24 -35 -4 -92 14 -87 28
3 8 1 14 -3 14 -5 0 -11 -6 -14 -12 -8 -23 -36 25 -37 62 l-1 35 -14 -25 c-14
-26 -18 -23 -28 25 -3 11 -5 3 -6 -17 -1 -27 3 -38 13 -38 8 0 23 -16 35 -35
16 -28 17 -35 6 -35 -8 0 -15 4 -15 10 0 8 -40 37 -88 66 -2 1 -5 21 -7 45 -4
34 1 56 22 97 15 30 36 60 46 67 12 8 16 18 12 26 -5 7 -4 10 3 6 5 -4 33 -2
61 5 41 9 51 16 52 32 0 18 2 17 10 -6 7 -18 20 -29 39 -33 16 -3 34 -13 41
-21 6 -8 17 -14 24 -14 7 0 18 -7 25 -15 7 -8 17 -15 23 -15 5 0 3 8 -6 18
-12 13 -17 37 -17 76 0 49 2 57 18 54 13 -2 19 -17 24 -63z m219 53 c1 -7 2
-32 4 -55 4 -65 9 -74 46 -66 l32 6 -25 -34 c-14 -19 -29 -45 -33 -58 l-7 -24
-13 30 c-11 26 -18 31 -47 30 -25 0 -42 8 -69 34 -20 19 -44 40 -53 47 -9 7
-16 26 -16 42 0 15 -3 35 -6 44 -5 14 6 16 90 16 70 0 96 -3 97 -12z m334 -48
c-11 -17 48 -32 113 -28 34 2 62 0 62 -4 0 -4 -18 -8 -40 -8 -22 0 -40 -4 -40
-10 0 -5 5 -10 11 -10 7 0 17 -7 23 -15 9 -13 18 -14 64 -3 28 7 52 16 52 20
0 4 -8 5 -17 2 -15 -5 -16 -4 -3 5 11 7 19 6 29 -4 22 -22 25 -372 4 -400 -11
-14 -17 -16 -20 -7 -3 6 -12 12 -21 12 -14 0 -14 2 -3 9 7 5 10 14 7 20 -4 6
-2 11 3 11 6 0 11 5 11 10 0 6 -8 10 -17 10 -15 0 -14 2 3 14 16 13 17 18 7
35 -7 12 -13 28 -13 36 0 8 6 15 13 15 9 0 8 3 -2 9 -10 6 -10 10 -1 16 9 6 9
9 -1 15 -9 6 -9 12 4 25 15 15 15 18 1 41 -9 13 -20 24 -24 24 -12 0 -22 -47
-26 -120 -2 -36 -6 -88 -8 -117 -3 -29 -1 -55 4 -58 5 -3 6 -15 1 -28 -5 -14
-5 -30 0 -40 8 -13 6 -15 -6 -11 -8 3 -15 9 -15 13 0 3 -27 24 -59 46 -49 33
-58 44 -58 69 0 16 -5 32 -11 34 -7 2 -22 12 -34 22 -19 16 -20 19 -6 20 9 0
20 -4 23 -10 8 -13 25 -13 25 0 0 5 -12 16 -27 24 -16 8 -23 15 -17 16 14 0
11 29 -6 60 -8 14 -13 31 -12 38 2 6 -4 12 -12 12 -8 0 -18 4 -21 10 -3 6 1 7
9 4 21 -8 20 5 -1 29 -18 19 -17 19 4 6 31 -19 41 -3 12 20 l-24 20 25 1 c24
1 24 1 6 15 -11 8 -15 15 -9 15 6 0 13 18 17 40 3 22 11 40 17 40 5 0 7 -5 4
-10z m-1210 -60 c3 -5 12 -7 19 -4 14 5 28 -18 30 -50 1 -11 7 -21 14 -23 8
-3 10 1 5 13 -4 12 -3 15 5 10 7 -4 12 -14 12 -21 0 -9 6 -12 15 -9 8 4 15 1
15 -5 0 -6 -6 -12 -12 -13 -14 -1 -29 -4 -40 -8 -9 -3 -24 -7 -34 -9 -3 0 4
-10 17 -21 21 -17 22 -19 6 -20 -32 0 -12 -24 28 -36 25 -7 34 -13 26 -18 -7
-5 -14 -6 -17 -3 -11 11 -82 -76 -94 -115 -7 -24 -16 -47 -19 -52 -7 -14 -6
-60 2 -73 4 -6 -2 -20 -12 -32 -14 -16 -21 -19 -27 -9 -11 18 -5 91 9 100 9 6
9 8 0 8 -20 0 -15 20 5 20 16 1 16 1 0 11 -19 11 -25 59 -8 59 6 0 10 5 10 11
0 5 -5 7 -10 4 -6 -3 -10 3 -10 14 0 18 3 19 26 11 35 -14 44 -13 44 5 0 8 7
15 15 15 15 0 20 12 9 23 -7 7 -54 -13 -54 -24 0 -4 -9 -5 -20 -2 -11 3 -20
12 -20 20 0 12 3 13 13 5 10 -9 19 -7 35 4 28 20 18 37 -17 29 -23 -5 -27 -2
-27 17 0 28 14 39 42 32 14 -4 23 0 28 11 3 10 2 14 -5 10 -13 -9 -39 13 -39
33 0 18 29 41 53 42 10 0 16 4 12 10 -3 5 -11 7 -18 4 -7 -2 -18 5 -25 16 -7
11 -8 20 -3 20 6 0 12 -4 16 -10z m1043 -105 c-4 -17 -1 -25 9 -25 9 0 13 6
10 13 -3 8 -2 19 3 26 7 12 27 -91 22 -112 -4 -14 50 -161 64 -178 8 -8 14
-19 14 -22 0 -17 93 -123 124 -142 l35 -21 -20 -42 c-12 -23 -35 -53 -51 -67
-17 -14 -28 -28 -25 -32 12 -12 38 8 69 52 17 24 33 43 35 41 8 -8 -32 -68
-60 -90 l-32 -25 -20 20 c-14 15 -16 23 -8 26 45 17 103 97 84 116 -5 5 -11 1
-15 -11 -9 -28 -38 -59 -71 -76 -25 -13 -30 -13 -50 2 -25 19 -23 32 5 32 18
0 80 62 80 80 0 19 -18 9 -43 -23 -15 -20 -41 -38 -65 -45 -48 -14 -75 -15
-67 -2 3 5 11 7 19 4 21 -8 104 33 111 55 3 12 11 21 16 21 5 0 9 5 9 10 0 6
-7 10 -15 10 -8 0 -15 -4 -15 -10 0 -5 -5 -10 -12 -10 -6 0 -3 9 7 20 24 26
11 39 -15 15 -24 -22 -27 -9 -3 17 9 10 12 18 7 18 -14 -1 -44 -26 -44 -38 0
-10 -51 -25 -90 -26 -8 -1 -34 -12 -57 -26 -36 -22 -41 -28 -36 -52 3 -17 1
-28 -6 -28 -6 0 -11 5 -11 10 0 7 -6 7 -20 0 -11 -6 -20 -17 -20 -25 0 -19
-16 -19 -24 0 -3 10 6 20 29 31 19 9 35 23 35 31 0 8 -5 11 -12 7 -8 -5 -9 -2
-5 9 5 14 2 16 -20 11 -18 -5 -24 -4 -19 5 4 6 20 11 36 11 16 0 32 5 35 11
11 17 -3 23 -20 9 -12 -10 -15 -10 -15 4 0 9 7 16 15 16 14 0 36 15 74 50 19
17 96 25 86 10 -3 -6 -19 -10 -35 -10 -31 0 -52 -19 -23 -21 24 -2 24 -2 57 7
20 5 27 4 22 -4 -11 -18 -74 -26 -91 -12 -12 10 -20 9 -42 -6 -17 -11 -23 -19
-15 -22 7 -2 20 2 30 8 9 7 -1 -4 -22 -24 -45 -41 -32 -49 18 -11 18 14 46 25
62 25 38 0 73 19 93 49 15 24 15 24 -7 19 -25 -7 -31 7 -6 16 8 3 12 11 9 16
-5 8 -11 8 -20 0 -9 -8 -15 -8 -20 0 -3 5 1 13 9 16 26 10 18 22 -11 17 -27
-3 -27 -3 -5 7 34 15 18 31 -19 18 -16 -6 -33 -8 -36 -5 -3 4 -23 -3 -44 -14
-35 -18 -39 -18 -39 -3 0 10 3 15 6 11 4 -3 20 1 36 9 16 8 37 13 46 10 9 -3
28 3 42 14 14 11 20 20 13 20 -7 0 -10 7 -7 15 4 8 2 15 -4 15 -5 0 -8 11 -7
25 2 18 -2 25 -13 25 -10 0 -13 3 -6 8 10 7 14 52 4 52 -11 0 -31 -17 -29 -26
5 -27 -2 -53 -13 -49 -14 5 -74 -43 -65 -51 2 -3 20 4 38 15 24 14 39 17 49
11 8 -5 10 -10 5 -10 -15 0 -16 -38 -2 -43 7 -2 3 -3 -7 -1 -11 2 -28 -2 -38
-7 -11 -6 -22 -8 -25 -6 -3 3 9 13 26 22 18 9 29 20 26 25 -3 5 -21 1 -40 -10
-29 -16 -34 -17 -39 -3 -4 8 -13 13 -21 9 -8 -3 -15 -1 -15 4 0 6 7 10 15 10
8 0 15 7 15 16 0 8 4 12 10 9 17 -11 58 24 58 50 0 30 -6 31 -37 4 -21 -17
-22 -22 -10 -30 9 -5 10 -9 2 -9 -40 0 -13 47 44 79 10 5 14 13 10 17 -4 4
-13 2 -19 -4 -14 -14 -28 -16 -28 -3 0 5 9 11 20 14 11 3 24 17 30 31 12 33
24 34 18 1z m922 -107 c88 -46 136 -145 112 -235 -19 -69 -54 -117 -104 -142
-96 -46 -208 -15 -263 74 -26 41 -30 58 -30 114 1 72 17 113 63 157 60 58 146
70 222 32z m-1670 -15 c34 -18 65 -44 84 -71 28 -39 31 -52 31 -116 0 -62 -4
-78 -27 -113 -15 -23 -44 -54 -64 -70 -34 -25 -45 -28 -114 -28 -71 0 -79 2
-117 33 -65 51 -87 94 -87 171 -1 55 4 74 26 113 39 65 107 104 189 107 14 1
49 -11 79 -26z m818 -418 c77 -33 123 -104 124 -190 1 -77 -17 -119 -72 -169
-75 -66 -164 -71 -251 -13 -44 30 -89 116 -89 173 0 150 153 255 288 199z
m386 -112 c15 -8 20 -23 21 -69 1 -66 -14 -94 -50 -94 -30 0 -36 18 -19 65 13
39 11 75 -5 75 -5 0 -11 -30 -15 -67 -5 -49 -4 -68 6 -75 10 -6 10 -10 -2 -18
-10 -6 -16 -6 -19 3 -2 7 -10 16 -17 20 -8 4 -14 15 -14 22 0 8 -5 15 -11 15
-6 0 -8 7 -5 16 5 14 1 16 -33 11 -58 -7 -72 14 -29 42 18 11 43 31 55 44 18
19 32 24 70 23 26 -1 57 -7 67 -13z m-1242 -113 c12 -10 25 -17 30 -14 10 6
58 -33 58 -47 0 -4 -24 -6 -52 -5 -48 1 -53 -1 -56 -21 -2 -16 2 -23 12 -23 9
0 16 7 16 15 0 9 9 15 23 15 20 -1 20 -2 5 -11 -10 -5 -18 -18 -18 -27 0 -12
-7 -17 -23 -17 -34 2 -49 15 -44 37 3 11 3 26 0 34 -7 18 -57 18 -73 -1 -13
-15 -5 -55 12 -55 5 0 8 7 4 15 -10 28 10 15 25 -15 8 -16 33 -63 56 -104 25
-43 40 -81 37 -90 -9 -25 -24 -19 -24 9 0 14 -7 28 -15 31 -10 4 -13 13 -10
25 5 16 3 17 -27 8 -18 -5 -38 -16 -44 -24 -17 -22 -24 -18 -24 14 0 24 3 28
24 24 17 -4 27 1 35 15 6 11 8 22 3 24 -4 2 -22 20 -39 41 -45 51 -45 89 0
105 17 6 43 23 57 36 31 30 27 30 52 6z m1031 -59 c28 -15 36 -30 15 -32 -7
-1 9 -5 35 -9 31 -6 60 -19 83 -39 19 -17 41 -31 49 -31 7 0 23 -12 34 -26 19
-24 26 -24 22 -1 -2 12 36 8 46 -5 28 -36 19 -102 -14 -96 -13 2 -15 -8 -15
-59 0 -34 5 -77 11 -96 11 -31 96 -117 160 -159 29 -20 45 -23 36 -8 -3 6 -1
10 5 10 7 0 10 -7 7 -15 -6 -15 40 -55 65 -55 7 0 37 -34 66 -75 46 -64 57
-74 80 -71 15 2 19 1 10 -1 -25 -6 -22 -23 5 -25 48 -3 63 3 95 39 26 29 32
33 32 17 0 -62 -99 -101 -202 -80 -20 5 -46 5 -58 1 -20 -6 -21 -12 -16 -50 8
-47 4 -51 -66 -65 -45 -9 -218 6 -232 20 -19 19 25 23 87 7 82 -20 104 -8 50
26 -49 31 -106 116 -97 143 12 32 36 54 61 54 12 0 23 5 23 10 0 18 -47 11
-75 -11 -22 -18 -26 -28 -23 -60 3 -33 1 -36 -14 -28 -24 13 -27 20 -29 70 -3
59 -12 81 -67 163 l-47 71 0 88 c0 66 -4 90 -15 97 -11 7 -12 10 -2 10 9 0 11
7 7 19 -4 13 2 25 21 38 18 13 25 26 21 39 -5 18 -5 18 -12 -2 -4 -12 -18 -27
-31 -34 -13 -8 -24 -17 -24 -21 0 -5 -12 4 -26 18 -19 19 -28 23 -37 14 -18
-18 -36 -13 -43 14 -8 34 -29 26 -29 -10 0 -24 -5 -30 -32 -37 -24 -6 -33 -14
-33 -29 0 -27 -43 -22 -48 5 -3 11 0 16 7 11 6 -3 8 -11 5 -17 -4 -7 -2 -8 4
-4 7 4 12 14 12 23 0 8 9 28 21 44 11 16 17 29 12 30 -4 0 8 6 27 13 43 15 57
11 67 -20 6 -17 12 -21 23 -14 12 8 12 12 -5 32 -23 26 -45 64 -45 76 0 17 84
4 153 -23 28 -11 11 18 -21 37 -18 11 -42 15 -70 12 -32 -3 -46 1 -61 17 -17
18 -19 65 -2 57 3 -2 18 -10 34 -17z m257 10 c0 -14 80 -57 129 -71 33 -9 55
-9 89 0 53 13 108 -1 117 -31 7 -20 47 -35 65 -24 6 4 20 -5 31 -19 11 -14 30
-31 42 -37 14 -7 7 4 -18 30 -33 35 -37 43 -25 51 8 5 30 8 48 6 18 -2 35 1
38 5 7 12 34 11 34 -1 0 -5 -7 -10 -15 -10 -8 0 -15 -8 -15 -18 0 -11 -8 -18
-20 -19 -22 -2 -27 12 -7 20 6 3 2 6 -10 6 -29 1 -31 -29 -3 -36 18 -5 25 -22
21 -47 -1 -5 5 -3 14 4 8 7 18 10 22 7 3 -4 12 -2 20 4 11 9 13 -2 13 -64 0
-64 -2 -75 -15 -71 -18 7 -20 55 -3 72 12 12 -5 15 -74 15 -10 0 -18 6 -18 13
0 8 -6 14 -12 14 -7 0 -24 9 -38 20 -34 27 -37 25 -43 -17 -2 -21 -12 -59 -20
-84 -13 -41 -14 -50 -1 -74 11 -22 12 -39 4 -83 -5 -31 -10 -73 -10 -93 0 -26
-6 -42 -20 -52 -11 -8 -17 -17 -13 -20 13 -14 -44 -6 -63 8 -10 8 -14 15 -9
15 6 0 16 -5 23 -12 9 -9 12 -8 12 4 0 8 7 21 15 28 9 7 15 20 14 29 -1 9 1
23 4 31 3 8 8 36 11 62 3 41 0 53 -25 85 -16 20 -36 59 -44 87 -23 77 -25 79
-70 56 -22 -11 -54 -22 -71 -26 -30 -6 -31 -5 -37 37 -7 53 -38 83 -75 74 -21
-5 -33 2 -70 42 l-45 48 43 12 c24 7 48 17 54 23 12 12 26 13 26 1z m-883
-160 c10 -16 9 -22 -3 -32 -12 -10 -12 -14 -2 -21 10 -8 10 -11 1 -15 -18 -7
-16 -24 2 -17 10 4 15 0 15 -11 0 -9 12 -32 27 -51 26 -35 26 -35 5 -41 -27
-7 -29 -23 -3 -23 16 0 21 -9 26 -44 8 -53 4 -62 -32 -69 -35 -6 -53 1 -46 19
3 9 0 12 -8 9 -10 -4 -14 4 -14 24 0 31 19 60 32 47 4 -4 1 -11 -7 -16 -8 -5
-11 -12 -7 -16 4 -4 15 0 24 9 13 13 14 19 4 31 -15 18 -7 36 16 36 13 0 13 3
3 15 -17 20 -32 19 -64 -6 -28 -22 -36 -11 -10 15 14 15 14 16 -4 16 -10 0
-27 -9 -37 -20 -10 -11 -22 -20 -27 -20 -14 0 1 39 23 61 10 10 20 29 20 42 1
12 2 29 3 37 2 25 17 42 33 36 11 -4 13 -2 9 9 -8 21 7 19 21 -4z m476 -231
c116 -69 134 -242 34 -336 -73 -70 -165 -81 -245 -30 -70 45 -102 102 -102
185 0 81 42 150 116 190 51 28 142 24 197 -9z m-690 -117 c-24 -2 -43 -8 -43
-14 0 -5 11 -7 25 -3 14 3 42 -1 64 -9 31 -13 42 -13 62 -3 55 28 129 28 129
0 0 -8 -4 -14 -10 -14 -22 0 -8 -22 22 -35 l33 -13 -43 -17 c-34 -14 -41 -21
-37 -36 4 -11 2 -19 -2 -19 -15 0 -33 23 -33 43 0 15 -5 17 -30 12 -26 -6 -30
-4 -30 14 0 16 -8 23 -29 27 -17 4 -32 12 -35 20 -6 17 -141 20 -151 4 -8 -13
-25 -13 -25 -1 0 6 19 14 43 19 40 9 40 10 10 11 -18 1 -33 6 -33 11 0 6 31 9
78 8 46 -1 60 -3 35 -5z m877 -13 c0 -12 -5 -17 -13 -14 -10 3 -14 -4 -14 -26
0 -31 10 -39 23 -18 5 8 11 2 16 -17 9 -36 6 -40 -21 -25 -29 15 -61 -3 -61
-35 0 -13 5 -27 10 -30 18 -11 10 -27 -11 -22 -18 5 -20 2 -15 -16 3 -12 6
-25 6 -29 0 -13 109 -40 136 -34 21 6 25 4 21 -9 -8 -20 10 -68 23 -60 5 3 7
25 4 48 -5 32 -2 46 10 56 9 7 16 20 16 27 0 8 4 14 9 14 5 0 16 3 25 6 12 5
16 -1 16 -24 0 -17 -6 -32 -12 -34 -8 -3 -12 -20 -11 -44 1 -21 -1 -30 -4 -19
-3 11 -9 25 -14 31 -5 6 -2 21 6 37 13 25 12 26 -6 14 -21 -13 -24 -42 -9 -82
8 -20 7 -27 -5 -31 -21 -9 -18 -22 7 -30 18 -5 19 -8 5 -15 -9 -5 -14 -16 -11
-23 4 -11 -9 -14 -65 -14 l-71 0 0 35 c0 76 -72 142 -132 121 -29 -10 -38 -28
-14 -28 29 0 25 -18 -5 -22 -29 -5 -31 -3 -25 24 3 16 25 49 49 72 45 43 67
99 67 165 0 21 5 31 15 31 8 0 15 9 15 20 0 13 7 20 20 20 13 0 20 -7 20 -20z
m-1072 -88 c3 -26 8 -32 28 -32 13 0 24 -2 24 -5 0 -14 -32 -65 -40 -65 -23 0
-7 -21 20 -26 35 -7 39 -19 10 -27 -24 -6 -17 -37 9 -37 9 0 25 -7 35 -15 11
-8 28 -15 38 -15 20 0 23 -11 7 -27 -7 -7 -8 -17 -1 -29 9 -18 6 -19 -44 -18
-40 1 -60 -3 -75 -17 -12 -11 -28 -19 -35 -19 -16 0 -28 17 -15 22 5 1 13 16
17 32 6 26 5 27 -14 17 -24 -13 -77 2 -67 19 4 6 11 8 16 4 5 -3 21 2 35 10
21 14 25 15 30 2 3 -8 18 -19 34 -24 25 -9 28 -8 33 14 5 27 -7 32 -21 8 -8
-15 -11 -14 -23 3 -20 27 -46 35 -63 18 -19 -20 -23 -19 -29 6 -4 16 -11 20
-26 16 -28 -7 -27 6 2 27 21 16 20 16 -33 10 -30 -3 -57 -7 -60 -8 -3 0 -7 4
-9 9 -2 6 9 16 25 24 16 8 37 18 46 23 10 4 29 8 43 8 18 0 25 5 25 20 0 11 7
37 15 57 26 62 58 69 63 15z m441 -111 c11 -11 26 -21 33 -22 19 -4 58 11 58
22 0 15 56 10 70 -6 18 -22 5 -45 -30 -51 -29 -6 -34 -16 -31 -55 2 -20 -24
-32 -50 -24 -14 5 -17 2 -13 -9 8 -21 -35 -43 -47 -25 -12 19 -11 33 2 46 8 8
3 17 -20 34 -27 20 -29 23 -13 35 15 11 12 14 -22 35 -34 20 -36 24 -20 30 34
13 63 10 83 -10z"/>
<path d="M1116 3475 c-16 -51 -19 -55 -47 -55 -17 0 -28 -4 -24 -10 3 -5 12
-7 19 -4 21 8 27 -10 12 -31 -13 -18 -15 -18 -41 -1 -21 14 -24 20 -14 27 21
13 6 19 -27 10 l-29 -8 47 -29 c46 -28 58 -49 39 -69 -11 -13 -34 -85 -28 -91
2 -2 28 13 58 36 52 39 54 39 79 23 39 -26 81 -46 86 -40 3 2 -5 30 -17 62
-18 48 -19 59 -8 66 8 4 28 19 44 33 l30 26 -56 0 c-61 0 -67 6 -85 83 -9 40
-18 33 -38 -28z"/>
<path d="M1976 3263 c-10 -27 -19 -53 -21 -60 -2 -7 -27 -13 -56 -15 -29 -2
-54 -8 -56 -13 -2 -6 17 -22 42 -37 l45 -28 -20 -52 c-24 -63 -23 -58 -7 -58
6 1 28 14 47 30 19 17 39 30 45 30 5 0 30 -14 55 -30 25 -16 48 -30 53 -30 10
0 3 37 -17 83 -17 42 -22 33 54 96 l25 21 -59 -2 -60 -2 -20 57 c-12 31 -24
57 -27 57 -3 0 -14 -21 -23 -47z"/>
<path d="M301 3241 c-11 -32 -21 -63 -21 -70 0 -7 -21 -11 -57 -11 l-58 -1 43
-38 43 -37 -21 -54 c-11 -29 -19 -55 -16 -57 2 -2 27 10 55 27 l51 32 50 -36
c28 -20 50 -32 50 -27 0 13 -29 136 -36 155 -5 13 1 16 30 16 42 0 47 -12 10
-29 -15 -6 -24 -14 -22 -16 6 -7 88 38 88 48 0 6 -76 12 -102 8 -12 -1 -25 30
-38 92 -7 31 -16 57 -20 57 -4 0 -17 -26 -29 -59z"/>
<path d="M317 2783 c-2 -5 -12 -32 -21 -60 l-18 -53 -59 0 c-32 0 -59 -3 -59
-7 0 -4 19 -24 42 -44 l43 -37 -19 -51 c-10 -29 -16 -54 -13 -57 3 -3 26 8 52
26 l46 31 50 -37 c27 -20 52 -35 54 -32 2 2 -3 31 -11 63 -18 66 -24 54 57
117 l34 27 -65 1 -66 0 -13 60 c-12 55 -23 72 -34 53z"/>
<path d="M1991 2732 c-6 -21 -14 -52 -17 -70 -6 -30 -10 -32 -48 -33 -22 0
-50 -4 -61 -8 -17 -7 -15 -11 23 -35 47 -29 49 -38 26 -95 -9 -22 -14 -45 -12
-50 1 -6 27 8 56 30 l53 40 49 -30 c28 -17 54 -31 60 -31 10 0 7 21 -9 63 -17
44 -14 53 30 85 22 17 36 33 31 36 -5 3 -23 -8 -41 -24 -36 -35 -51 -38 -51
-11 0 14 8 21 28 24 22 3 20 4 -10 6 -37 1 -37 1 -58 71 -11 39 -25 70 -30 70
-5 0 -14 -17 -19 -38z"/>
<path d="M1126 2620 c-3 -8 -14 -37 -24 -65 l-18 -50 -52 1 c-36 0 -52 -4 -52
-13 0 -7 3 -13 8 -13 4 -1 22 -13 39 -29 l33 -27 -25 -64 c-14 -35 -23 -65
-21 -68 5 -4 56 30 92 61 20 17 22 17 45 -2 39 -30 99 -61 99 -51 0 5 -9 33
-20 62 l-20 53 22 19 c13 10 37 29 53 42 l30 24 -66 0 -66 0 -12 43 c-19 63
-38 96 -45 77z"/>
<path d="M1974 1643 c-35 -89 -28 -83 -96 -84 l-63 0 29 -22 c16 -12 38 -29
49 -38 l21 -16 -23 -53 c-12 -28 -20 -54 -18 -57 6 -5 52 22 84 50 21 19 22
19 79 -22 31 -23 61 -41 65 -41 4 0 -3 29 -16 64 -13 35 -20 67 -16 72 3 5 26
22 50 39 24 16 38 31 32 33 -6 2 -28 -10 -48 -27 -45 -37 -53 -38 -53 -7 0 14
-4 27 -9 30 -5 3 -14 28 -21 56 -7 28 -16 53 -21 56 -5 3 -16 -12 -25 -33z"/>
<path d="M280 1614 l-22 -66 -54 4 c-30 1 -54 0 -54 -4 0 -4 20 -21 44 -37
l44 -31 -18 -57 c-10 -32 -16 -60 -14 -62 2 -2 27 10 55 27 27 18 53 32 56 32
3 0 25 -14 50 -30 25 -17 48 -29 50 -26 3 3 -2 27 -11 53 l-17 48 27 20 c74
55 74 54 24 56 -25 1 -51 1 -58 0 -12 -2 -43 59 -56 112 -10 43 -23 32 -46
-39z"/>
<path d="M1116 1185 c-13 -46 -23 -65 -35 -65 -12 0 -13 -2 -3 -9 9 -5 11 -17
6 -34 -8 -33 -11 -33 -49 -2 l-30 25 28 0 c15 0 27 3 27 8 0 4 -20 7 -45 7
-25 0 -45 -2 -45 -5 0 -3 12 -13 28 -23 15 -9 37 -25 50 -35 l22 -17 -19 -58
c-11 -31 -16 -57 -12 -57 5 0 29 16 54 35 25 19 48 35 51 35 2 0 28 -16 58
-35 29 -19 54 -31 56 -26 2 5 -6 32 -17 62 -11 29 -20 53 -18 54 74 49 100 70
86 73 -9 1 -31 -11 -49 -28 -32 -30 -50 -38 -50 -21 0 5 -3 16 -6 24 -3 10 2
17 13 20 15 4 15 5 -3 6 -17 1 -27 14 -45 66 -12 36 -25 65 -28 65 -4 0 -15
-29 -25 -65z"/>
<path d="M1140 580 c0 -5 -9 -33 -20 -62 l-20 -53 -60 1 c-33 0 -60 -3 -60 -7
0 -4 17 -20 38 -35 20 -16 41 -31 45 -35 5 -4 1 -28 -8 -54 -8 -26 -14 -50
-11 -52 2 -3 22 7 43 21 20 14 41 26 45 26 5 0 27 -13 50 -30 39 -29 68 -38
68 -22 0 4 -7 32 -15 62 -11 42 -12 56 -2 61 49 28 87 54 87 60 0 4 -28 7 -62
7 l-62 -1 -20 61 c-11 34 -23 62 -28 62 -4 0 -8 -4 -8 -10z"/>
</g>
</svg>
