<?xml version="1.0" standalone="no"?>
<!DOCTYPE svg PUBLIC "-//W3C//DTD SVG 20010904//EN"
 "http://www.w3.org/TR/2001/REC-SVG-20010904/DTD/svg10.dtd">
<svg version="1.0" xmlns="http://www.w3.org/2000/svg"
 width="233.000000pt" height="400.000000pt" viewBox="0 0 233.000000 400.000000"
 preserveAspectRatio="xMidYMid meet">
<metadata>
Created by potrace 1.15, written by Peter Selinger 2001-2017
</metadata>
<g transform="translate(0.000000,400.000000) scale(0.100000,-0.100000)"
fill="#000000" stroke="none">
<path d="M1096 3953 c-1 -2 -240 -3 -531 -3 l-528 0 7 -1558 c4 -856 8 -1737
9 -1957 l2 -400 455 0 c555 0 1732 14 1738 20 3 3 0 497 -7 1097 -6 601 -14
1476 -18 1943 -3 468 -7 851 -8 853 -3 3 -1115 8 -1119 5z m914 -1098 c0 -21
-6 -24 -57 -30 -32 -4 -112 -22 -178 -40 -83 -23 -124 -30 -132 -23 -21 17
-15 37 15 44 15 3 77 19 137 34 61 16 124 30 140 32 72 8 75 7 75 -17z m-1023
-43 c-18 -18 -34 -20 -139 -21 -45 -1 -78 -5 -78 -11 0 -5 20 -10 45 -10 33 0
45 -4 45 -15 0 -8 -8 -16 -17 -17 -10 0 -24 -2 -32 -2 -8 -1 -16 -7 -19 -15
-3 -9 0 -12 9 -9 8 3 23 2 34 -3 14 -5 6 -8 -28 -8 -46 -1 -47 0 -41 24 8 34
-12 58 -43 50 -19 -4 -23 -2 -23 20 0 23 4 25 48 26 26 0 92 6 147 12 101 12
120 8 92 -21z m881 -49 c-2 -22 -10 -30 -43 -39 -22 -6 -34 -13 -26 -15 11 -4
11 -73 -3 -434 -9 -237 -21 -522 -27 -635 -32 -654 -38 -762 -44 -768 -4 -4
-5 58 -1 138 9 216 15 607 7 515 l-6 -80 -42 -3 -43 -3 0 36 0 35 40 -6 c27
-4 40 -3 40 5 0 6 -16 11 -35 11 -43 0 -42 -15 -15 250 11 107 20 202 21 210
0 10 2 11 6 3 2 -7 13 -13 24 -13 10 0 19 -4 19 -10 0 -5 -7 -10 -15 -10 -8 0
-15 -4 -15 -10 0 -5 7 -10 15 -10 13 0 15 -24 17 -152 l1 -153 7 160 c4 88 13
306 19 485 6 179 13 346 15 373 3 41 -6 64 -16 38 -1 -5 -72 -11 -156 -13
-124 -2 -151 0 -147 10 3 8 5 18 5 23 0 5 4 9 10 9 5 0 7 -6 5 -12 -4 -10 25
-13 125 -13 109 0 130 2 130 15 0 12 2 13 9 1 15 -23 30 -3 24 34 -5 32 -3 34
28 43 60 18 71 15 67 -15z m-422 -150 c-4 -93 -8 -213 -11 -268 -2 -55 -7
-163 -10 -240 -6 -149 -22 -463 -30 -580 -2 -38 -9 -196 -16 -350 -6 -154 -16
-287 -21 -295 -6 -9 -7 28 -3 100 8 168 33 873 45 1255 14 473 19 545 37 545
12 0 14 -24 9 -167z m-51 10 c-3 -82 -10 -299 -15 -483 -6 -184 -13 -380 -15
-435 -3 -55 -9 -230 -15 -390 -12 -353 -19 -460 -30 -449 -5 5 -5 95 0 199 5
105 12 336 15 514 3 179 8 327 9 330 4 6 20 637 21 788 0 63 2 73 18 73 16 0
17 -11 12 -147z m-249 -765 c-4 -497 -10 -906 -15 -911 -4 -4 -5 400 -3 898 3
655 1 905 -7 905 -8 0 -11 -253 -11 -905 0 -580 -3 -905 -10 -905 -6 0 -10
316 -10 879 0 483 -3 893 -6 910 -6 30 -6 31 31 31 l38 0 -7 -902z m-502 552
c3 -146 10 -431 15 -635 16 -594 20 -905 11 -845 -5 30 -14 251 -20 490 -6
239 -13 453 -15 475 -10 110 -27 805 -20 821 16 38 23 -40 29 -306z m31 55 c3
-143 8 -287 10 -320 2 -33 7 -247 10 -475 3 -228 7 -498 10 -599 3 -104 1
-181 -4 -175 -5 5 -12 214 -15 464 -4 250 -11 568 -16 705 -7 202 -14 618 -11
659 1 5 3 7 5 5 3 -2 7 -121 11 -264z m1180 178 c-2 -43 -6 -145 -10 -228 -8
-199 -31 -618 -50 -890 -8 -121 -15 -254 -16 -295 -1 -62 -2 -69 -9 -40 -5 19
-7 46 -4 60 4 26 15 247 39 845 18 452 26 608 32 618 14 24 20 -3 18 -70z
m-1001 -325 c12 -661 16 -1438 7 -1438 -4 0 -11 233 -14 518 -16 1180 -18
1284 -33 1269 -6 -6 -5 -375 0 -447 2 -25 7 -232 10 -460 4 -228 9 -522 11
-652 3 -154 1 -238 -5 -238 -6 0 -10 33 -11 78 -1 179 -10 513 -24 902 -8 228
-18 508 -21 623 l-7 207 40 0 41 0 6 -362z m102 219 c5 -815 5 -1630 0 -1634
-3 -4 -6 90 -6 208 -1 118 -3 257 -5 309 -2 52 -6 349 -10 660 -3 311 -8 573
-11 583 -4 12 0 17 13 17 17 0 18 -12 19 -143z m44 -747 c-1 -563 -4 -890 -10
-890 -6 0 -10 178 -10 478 0 262 -3 663 -7 890 -6 380 -5 412 11 412 15 0 16
-68 16 -890z m-532 819 c-8 -5 14 -9 57 -10 l70 -2 -93 -7 c-50 -4 -95 -10
-99 -13 -3 -4 3 -7 15 -7 20 0 22 -5 22 -67 0 -38 9 -214 20 -393 11 -179 29
-509 40 -735 11 -225 23 -431 26 -457 4 -32 2 -48 -5 -48 -6 0 -11 8 -11 18 0
9 -4 87 -10 172 -5 85 -12 207 -15 270 -3 63 -21 333 -40 599 -20 267 -36 515
-37 553 -3 73 -15 86 -47 50 -9 -9 -34 -29 -56 -43 -22 -14 -70 -51 -106 -83
-36 -31 -69 -56 -73 -56 -3 0 -6 11 -6 24 0 25 67 89 150 141 25 16 56 38 69
49 17 15 25 17 28 8 10 -26 21 0 13 28 -9 32 -4 36 65 42 32 3 47 -18 23 -33z
m5 -269 c4 -80 13 -239 21 -355 8 -115 17 -273 21 -350 3 -77 8 -164 10 -192
3 -29 1 -53 -4 -53 -4 0 -9 30 -10 68 -1 37 -6 135 -11 217 -15 226 -19 294
-30 490 -18 322 -19 360 -11 340 5 -11 11 -85 14 -165z m1553 105 c6 -15 0
-73 -51 -500 -14 -115 -32 -264 -39 -330 -40 -358 -91 -735 -99 -735 -11 0 -8
32 23 300 11 96 36 321 56 500 19 179 46 424 59 545 14 121 25 223 25 228 0
13 20 7 26 -8z m44 -22 c0 -10 -5 -56 -10 -103 -6 -47 -19 -157 -30 -245 -65
-550 -147 -1166 -156 -1174 -8 -7 1 90 21 239 23 174 34 264 65 531 16 140 36
313 45 384 8 72 20 173 25 225 14 131 19 160 30 160 6 0 10 -8 10 -17z m-1804
-82 c-15 -16 -24 -30 -19 -32 10 -4 51 -473 88 -1024 9 -121 18 -254 21 -295
2 -41 7 -90 10 -107 3 -18 1 -33 -4 -33 -5 0 -12 35 -15 78 -10 121 -46 550
-52 612 -7 73 -43 507 -50 595 -3 39 -8 90 -11 115 l-5 45 -82 -1 -82 -2 65 6
c52 6 75 14 110 40 54 40 62 41 26 3z m59 -411 c16 -214 55 -889 55 -949 0
-19 -2 -32 -4 -30 -2 2 -9 90 -15 194 -6 105 -16 240 -22 300 -5 61 -19 229
-29 375 -11 146 -22 288 -25 315 -16 168 -16 187 -3 202 11 14 14 -1 20 -93 4
-60 14 -201 23 -314z m1325 311 c0 -54 -48 -623 -80 -946 -5 -55 -15 -164 -22
-242 -6 -79 -16 -143 -20 -143 -10 0 -10 33 2 160 13 138 60 738 60 769 0 13
-2 22 -4 20 -3 -3 -10 -65 -16 -139 -16 -189 -14 -183 -53 -175 -18 4 -39 13
-48 21 -8 8 -24 14 -34 14 -17 0 -17 10 -11 188 9 220 11 232 40 231 11 0 15
-3 9 -6 -7 -2 -13 -9 -13 -15 0 -6 26 -7 66 -4 l67 5 -7 -54 c-3 -30 -2 -55 2
-55 5 0 14 80 21 178 7 97 15 187 18 200 7 32 23 27 23 -7z m46 -33 c-4 -35
-18 -184 -31 -333 -14 -148 -32 -333 -40 -410 -8 -77 -24 -232 -35 -345 -20
-189 -25 -220 -33 -209 -3 4 5 105 58 719 9 96 24 274 35 395 11 121 20 226
20 233 0 6 7 12 16 12 13 0 15 -10 10 -62z m515 -300 c0 -57 3 -160 5 -230 l4
-128 -27 0 c-16 0 -69 5 -120 12 -85 11 -92 14 -88 33 2 11 11 83 20 160 23
202 15 185 83 185 58 0 106 17 103 35 -1 6 -14 11 -29 12 -15 0 -31 2 -37 3
-18 3 29 19 58 19 l27 1 1 -102z m-886 -110 c-4 -106 -9 -204 -10 -218 -2 -14
-4 -50 -4 -82 l-1 -56 -52 -4 c-91 -6 -98 -3 -98 53 0 47 1 49 28 49 15 0 40
7 56 15 15 8 35 15 42 15 8 0 14 5 14 10 0 13 -1 13 -56 -10 -85 -37 -85 -36
-82 178 l3 187 65 6 65 6 -64 1 c-35 1 -62 5 -58 8 3 4 38 6 77 5 68 -1 98 14
43 22 -25 4 -25 4 6 6 l33 1 -7 -192z m566 142 c21 0 39 -3 39 -7 0 -5 -7 -69
-15 -143 -8 -74 -17 -158 -20 -186 -6 -47 -9 -51 -41 -63 -20 -7 -37 -11 -39
-9 -4 4 13 309 21 378 4 30 9 49 11 43 3 -8 22 -13 44 -13z m-811 -190 c0
-157 -2 -190 -14 -190 -8 0 -21 -3 -30 -6 -14 -5 -16 15 -16 190 l0 196 30 0
30 0 0 -190z m-960 50 c-12 -8 -9 -10 13 -10 15 0 27 -4 27 -10 0 -5 16 -10
35 -10 19 0 35 5 35 10 0 6 6 10 14 10 11 0 16 -22 20 -87 4 -49 9 -100 11
-114 4 -25 1 -27 -53 -37 -31 -6 -78 -13 -104 -16 l-48 -6 0 140 0 140 33 0
c24 0 28 -3 17 -10z m260 -40 c-11 -7 -7 -10 18 -10 20 0 31 4 27 10 -3 6 -2
10 3 10 11 0 22 -82 22 -173 l0 -69 -32 4 c-23 2 -32 -1 -34 -14 -1 -11 5 -18
14 -19 23 -2 24 -2 45 6 14 6 17 1 17 -34 l0 -41 -41 0 c-24 0 -38 -4 -34 -10
3 -5 21 -10 39 -10 33 0 34 -1 40 -52 3 -29 8 -114 11 -188 4 -74 9 -143 11
-152 3 -11 -8 -24 -38 -42 -23 -14 -43 -24 -44 -23 -1 1 -7 92 -13 202 -7 110
-19 289 -27 398 -8 109 -12 202 -9 207 3 6 14 10 23 10 15 0 15 -2 2 -10z
m160 -1 c0 -6 7 -8 16 -5 8 3 12 2 9 -3 -3 -6 9 -11 27 -13 l33 -3 3 -99 c3
-109 0 -116 -55 -116 -31 0 -32 1 -37 53 -12 122 -14 197 -5 197 5 0 9 -5 9
-11z m216 -39 l34 0 0 -95 0 -95 -34 0 c-26 0 -35 5 -40 23 -7 26 -7 197 1
180 2 -7 20 -13 39 -13z m1304 -180 c0 -5 -11 -10 -24 -10 -14 0 -27 -4 -30
-8 -3 -5 35 -9 84 -10 73 -1 90 1 90 13 0 17 2 17 24 9 11 -4 16 -19 16 -44
l0 -39 -122 -3 c-68 -2 -124 -2 -126 -2 -2 1 0 25 4 53 l7 51 38 0 c22 0 39
-4 39 -10z m-1784 -33 c1 -1 4 -18 6 -37 l3 -35 -107 -3 -108 -2 0 28 c0 39
49 64 100 51 8 -2 14 1 13 7 -1 8 11 9 44 3 26 -5 47 -10 49 -12z m1605 -19
c-5 -38 -9 -43 -33 -46 -35 -4 -37 -22 -3 -22 16 0 25 -6 25 -15 0 -8 -5 -15
-12 -15 -8 0 -9 -3 -2 -10 10 -10 -28 -375 -40 -387 -14 -15 -35 8 -31 34 2
15 9 124 16 241 11 196 14 212 31 212 10 0 24 11 30 25 17 38 25 30 19 -17z
m-374 -82 c-1 -6 -8 -16 -16 -22 -11 -8 -11 -13 -2 -18 8 -5 16 3 24 23 25 68
28 32 13 -174 -4 -49 -9 -107 -12 -127 l-6 -38 -60 0 -60 0 6 58 c3 31 8 114
12 184 7 139 6 137 71 130 18 -2 31 -9 30 -16z m213 -40 c0 -34 -3 -130 -7
-213 l-6 -150 -26 13 c-14 8 -38 14 -53 14 -16 0 -28 3 -28 8 0 4 4 43 9 87 5
44 15 130 21 190 l12 110 39 2 39 3 0 -64z m500 -134 l0 -199 -57 -14 c-32 -7
-74 -14 -93 -15 -19 0 -63 -5 -98 -9 l-63 -8 5 34 c3 19 13 86 21 149 8 63 21
148 27 188 l12 72 123 0 123 0 0 -198z m-1935 168 c15 -105 43 -434 38 -442
-2 -5 -60 -8 -128 -8 l-124 0 -3 231 c-2 127 -1 233 1 235 3 3 52 3 110 2 83
-2 105 -6 106 -18z m349 -44 c3 -32 6 -119 6 -191 l0 -133 -34 -4 c-32 -3 -35
-1 -40 27 -3 16 -8 103 -12 192 l-7 161 24 4 c53 10 56 7 63 -56z m287 54 c5
0 9 -91 9 -215 0 -185 -2 -216 -15 -222 -9 -3 -18 -4 -20 -1 -2 2 -6 104 -8
226 -3 189 -1 222 11 217 7 -3 18 -5 23 -5z m389 -96 c0 -55 -3 -142 -6 -192
l-7 -92 -43 0 c-23 0 -54 -4 -68 -10 l-26 -10 0 189 c0 104 3 197 6 206 5 13
19 16 75 13 l69 -2 0 -102z m-570 56 c0 -5 5 -10 11 -10 5 0 7 5 4 10 -3 6 -1
10 4 10 6 0 11 -5 11 -11 0 -5 4 -8 9 -5 13 8 17 -34 20 -213 3 -175 3 -175
-53 -150 l-25 12 0 183 c1 104 5 184 10 184 5 0 9 -4 9 -10z m316 -20 l24 0 0
-185 0 -185 -30 0 -30 0 1 198 c0 108 3 191 6 185 2 -7 16 -13 29 -13z m584
-370 c0 -6 11 -8 23 -6 39 7 48 -5 41 -57 -4 -26 -11 -47 -16 -47 -5 0 -6 -5
-3 -10 4 -6 11 -8 16 -5 5 4 12 -1 15 -9 8 -21 24 -21 24 0 0 8 4 12 10 9 6
-4 4 -18 -6 -37 -9 -17 -14 -39 -11 -49 3 -11 1 -22 -5 -25 -6 -4 -5 -10 3
-16 11 -7 11 -11 2 -14 -9 -4 -9 -13 -2 -30 13 -36 11 -66 -3 -34 l-11 25 -7
-30 c-4 -16 -8 -22 -9 -12 -2 39 -16 14 -16 -30 0 -36 -5 -53 -22 -70 -16 -16
-23 -18 -23 -9 0 8 7 16 15 20 17 6 21 46 5 46 -5 0 -10 -9 -10 -20 0 -29 -17
-25 -47 11 -37 44 -118 81 -175 81 -26 0 -45 4 -42 9 3 5 14 9 24 9 11 0 24 9
30 20 8 15 8 20 -1 20 -8 0 -8 4 1 15 7 9 10 19 6 23 -9 8 -36 -26 -36 -45 0
-7 -4 -13 -10 -13 -5 0 -27 -18 -49 -40 -39 -39 -61 -50 -61 -30 0 6 -4 10
-10 10 -5 0 -10 -7 -10 -15 0 -8 -5 -15 -11 -15 -5 0 -7 5 -4 10 3 6 1 10 -4
10 -6 0 -11 -7 -11 -15 0 -8 -5 -15 -11 -15 -6 0 -9 9 -6 20 7 27 -7 25 -21
-2 l-11 -23 0 23 c-1 21 -21 33 -21 12 0 -5 -9 -10 -19 -10 -11 0 -27 -7 -36
-17 -14 -14 -18 -14 -27 -2 -8 12 -10 12 -15 0 -5 -11 -7 -11 -14 0 -7 11 -9
10 -9 -3 0 -10 -5 -18 -11 -18 -6 0 -9 7 -5 15 3 8 1 15 -4 15 -6 0 -10 -7
-10 -15 0 -8 -4 -15 -10 -15 -5 0 -10 6 -10 14 0 19 -25 27 -39 13 -27 -27 -6
10 53 96 64 92 141 167 170 167 9 0 16 4 16 9 0 5 12 11 28 15 15 3 37 8 50
12 31 9 28 -10 -8 -48 -40 -41 -41 -73 -2 -35 20 19 39 27 65 27 40 0 42 2 52
62 5 35 9 39 57 53 28 8 54 15 56 15 3 0 2 -25 -2 -55 -6 -51 3 -71 19 -45 10
16 67 8 98 -13 16 -11 31 -17 33 -14 7 7 -33 47 -46 47 -11 0 -14 73 -3 83 10
11 43 8 43 -3z m558 4 c31 -9 28 -22 -4 -16 -17 3 -25 1 -21 -5 6 -9 -16 -24
-53 -36 -8 -3 -3 -6 11 -6 15 -1 32 6 39 14 14 17 50 20 50 5 0 -5 -10 -11
-22 -11 l-23 -2 23 -4 c26 -5 30 -22 5 -24 -17 -1 -17 -2 0 -6 12 -3 17 -15
17 -39 0 -28 -4 -35 -17 -33 -27 3 -83 -12 -83 -22 0 -5 7 -9 16 -9 8 0 12 -5
9 -11 -10 -16 -45 20 -45 47 0 12 -12 36 -26 53 -28 34 -58 42 -52 14 2 -10
11 -17 20 -15 22 4 45 -37 28 -48 -7 -4 -10 -12 -6 -18 3 -5 -8 -23 -24 -41
-17 -17 -30 -35 -30 -40 0 -5 -12 -16 -27 -25 l-28 -17 24 21 c33 29 19 37
-19 10 -17 -12 -33 -20 -36 -18 -5 5 70 58 98 70 37 15 33 97 -4 90 -9 -1 -21
5 -28 13 -10 12 -10 15 4 15 9 0 16 7 16 15 0 17 -53 34 -90 28 -17 -2 -21 -1
-11 6 11 7 11 9 0 14 -8 3 5 4 28 2 29 -2 43 1 47 11 3 8 10 14 16 14 6 0 9
-4 5 -10 -3 -5 7 -9 22 -9 15 0 42 -3 60 -6 24 -6 36 -2 52 14 23 23 25 24 59
15z m-760 -343 c9 -6 34 -13 55 -16 l37 -6 -27 -34 c-15 -19 -37 -39 -50 -46
-13 -7 -23 -16 -23 -21 0 -19 23 -5 69 41 41 41 52 47 61 36 9 -11 7 -21 -10
-45 -12 -16 -17 -30 -11 -30 6 0 18 11 27 25 20 31 30 31 45 3 11 -21 11 -22
-4 -9 -15 12 -20 10 -37 -10 -27 -33 -25 -44 5 -25 13 9 27 16 30 16 11 0 4
-37 -11 -56 -14 -18 -15 -18 -4 4 16 33 4 39 -25 12 -13 -13 -31 -20 -39 -17
-10 4 -26 -7 -47 -32 -17 -21 -49 -47 -72 -57 -23 -10 -49 -26 -58 -37 -9 -11
-27 -21 -41 -22 -15 -2 -35 -6 -47 -10 -13 -4 -21 -2 -21 5 0 7 9 14 20 17 12
3 19 11 17 17 -2 6 2 31 9 55 14 48 6 83 -23 100 -17 10 -17 12 2 28 30 27 69
73 62 73 -4 0 -26 -18 -48 -40 -23 -22 -46 -40 -53 -40 -6 0 2 11 17 25 15 14
27 29 27 34 0 11 81 55 115 62 17 4 31 7 33 8 1 0 10 -3 20 -8z m763 -31 c29
0 24 -48 -7 -77 -23 -21 -33 -24 -70 -18 -36 5 -44 3 -44 -9 0 -22 -66 -22
-78 0 -7 13 -19 15 -65 9 -31 -4 -55 -11 -52 -15 3 -4 26 -5 51 -2 37 4 49 1
56 -12 11 -20 75 -22 97 -2 17 14 141 11 141 -4 0 -7 -43 -20 -113 -35 -16 -3
-65 -1 -109 5 -89 12 -128 8 -128 -15 0 -12 4 -13 18 -4 24 15 92 3 92 -15 0
-10 -26 -15 -92 -21 -88 -6 -93 -8 -123 -41 -17 -19 -37 -34 -43 -34 -7 0 -12
-4 -12 -10 0 -19 18 -10 56 26 36 33 43 35 128 42 80 6 92 10 101 29 8 19 17
22 70 22 33 1 78 5 100 10 22 6 40 9 41 8 6 -6 6 -165 -1 -180 -4 -9 -3 -23 3
-30 6 -6 11 -47 11 -90 l1 -78 -48 2 c-26 0 -171 -2 -322 -5 -151 -2 -614 -7
-1028 -10 l-753 -6 3 87 3 88 46 1 c73 2 148 26 177 55 23 22 43 29 125 42 53
8 110 24 126 34 94 60 141 94 141 103 0 5 11 10 25 10 14 0 33 4 43 10 9 5 35
17 57 26 22 10 48 24 57 32 13 11 54 15 177 16 89 0 161 -1 161 -3 0 -2 -22
-25 -49 -51 -31 -30 -71 -56 -106 -69 -71 -27 -77 -26 -105 4 -22 23 -28 24
-112 22 -68 -3 -92 -7 -106 -21 -16 -16 -16 -19 12 -40 23 -20 26 -27 17 -43
-19 -37 13 -52 106 -51 52 1 88 -3 97 -11 10 -9 20 -10 33 -3 12 7 24 7 36 0
10 -5 29 -7 42 -4 13 3 25 1 27 -5 2 -7 17 -6 46 4 36 13 48 13 83 1 22 -8 44
-12 49 -9 5 3 35 7 68 9 54 3 65 7 118 50 50 42 63 47 92 42 36 -5 79 9 99 34
9 10 12 11 13 3 0 -8 13 -13 29 -13 24 0 34 8 55 44 38 66 81 105 107 99 12
-4 25 0 30 8 4 8 12 14 16 15 4 0 15 3 23 7 8 3 33 8 55 10 22 2 54 11 70 21
21 11 43 15 74 11 24 -3 52 -5 62 -5z m-985 -130 c0 -11 -7 -20 -16 -21 -8 -1
-4 -4 10 -8 32 -10 44 -3 29 15 -9 11 -8 14 4 14 8 0 20 -6 26 -14 9 -11 8
-18 -6 -32 -10 -10 -18 -21 -18 -25 0 -4 -3 -11 -7 -15 -5 -4 -8 -2 -8 4 0 7
-4 12 -9 12 -14 0 3 -53 18 -58 8 -3 11 0 7 7 -4 6 -2 11 3 11 14 0 14 -13 -1
-28 -17 -17 -38 -15 -38 3 0 8 -4 15 -10 15 -5 0 -7 -7 -4 -15 4 -8 1 -15 -5
-15 -6 0 -11 8 -12 18 0 11 -2 12 -6 4 -3 -8 -9 -9 -16 -4 -7 5 -20 12 -31 16
-15 5 -17 2 -12 -18 3 -14 2 -27 -3 -30 -10 -7 -26 52 -17 61 3 4 1 12 -5 19
-8 10 -1 19 29 38 22 14 43 30 47 36 4 6 17 15 29 20 11 5 21 9 21 9 1 1 1 -8
1 -19z"/>
<path d="M2083 383 c-7 -2 -13 -10 -13 -16 0 -7 -10 -17 -22 -22 -33 -15 -32
-31 4 -48 28 -14 30 -17 11 -17 -13 0 -23 4 -23 10 0 5 -7 7 -15 4 -23 -9 -7
-24 26 -24 16 0 29 -4 29 -10 0 -5 -9 -10 -19 -10 -25 0 -53 -28 -44 -43 4 -7
12 -3 21 11 27 41 42 27 42 -38 0 -33 4 -60 10 -60 6 0 10 31 10 74 l0 75 53
4 52 3 -52 2 c-29 1 -53 6 -53 11 0 11 68 20 74 9 3 -5 3 -3 2 4 -1 7 -20 16
-42 19 -31 5 -33 6 -11 8 34 1 26 21 -9 21 -13 0 -24 5 -24 11 0 6 9 8 23 4
12 -4 24 -7 27 -7 29 -1 40 4 40 17 0 11 -11 15 -42 14 -24 0 -49 -3 -55 -6z"/>
</g>
</svg>
