<?xml version="1.0" standalone="no"?>
<!DOCTYPE svg PUBLIC "-//W3C//DTD SVG 20010904//EN"
 "http://www.w3.org/TR/2001/REC-SVG-20010904/DTD/svg10.dtd">
<svg version="1.0" xmlns="http://www.w3.org/2000/svg"
 width="233.000000pt" height="400.000000pt" viewBox="0 0 233.000000 400.000000"
 preserveAspectRatio="xMidYMid meet">
<metadata>
Created by potrace 1.15, written by Peter Selinger 2001-2017
</metadata>
<g transform="translate(0.000000,400.000000) scale(0.100000,-0.100000)"
fill="#000000" stroke="none">
<path d="M66 3917 c-3 -23 -8 -806 -11 -1740 -2 -934 -8 -1792 -11 -1906 -4
-121 -3 -210 2 -213 5 -3 502 -8 1104 -9 l1095 -4 5 98 c14 269 -1 3791 -16
3806 -2 3 -490 6 -1084 7 l-1079 3 -5 -42z m1180 -9 c4 -13 2 -24 -5 -26 -6
-2 -11 -11 -11 -20 0 -10 3 -13 8 -7 4 6 16 11 27 13 11 2 16 -1 10 -5 -20
-16 -36 -55 -30 -74 12 -38 44 -11 48 40 1 20 7 30 16 28 8 -1 24 12 36 30 17
24 25 29 34 20 14 -14 14 -44 1 -52 -6 -3 -10 4 -10 17 -1 20 -2 21 -11 5 -5
-9 -7 -22 -4 -27 10 -16 45 -12 45 6 0 11 6 14 23 10 12 -3 16 -3 10 0 -7 3
-13 9 -13 14 0 5 6 10 13 13 6 2 1 2 -11 0 -14 -2 -21 0 -18 6 4 5 -2 14 -11
20 -16 9 -16 10 -1 11 9 0 20 -5 23 -10 4 -6 10 -8 15 -5 4 3 15 3 23 0 22 -9
8 -53 -24 -76 -28 -20 -38 -52 -20 -63 5 -3 12 1 15 10 3 8 2 12 -4 9 -23 -14
-8 15 18 33 l27 20 1 -37 c1 -20 -1 -28 -3 -18 -3 9 -9 15 -14 12 -13 -9 -11
-72 2 -81 7 -4 9 0 5 14 -7 20 14 46 21 26 8 -22 22 -38 29 -31 4 4 -1 16 -12
28 -18 20 -18 21 -1 31 18 9 18 11 1 29 -9 10 -14 19 -9 19 4 0 2 7 -5 15 -7
8 -8 15 -3 15 5 0 16 -11 23 -24 7 -14 19 -27 27 -30 17 -7 4 19 -26 51 -25
27 -26 33 -5 33 9 0 25 -11 36 -25 16 -20 23 -23 39 -15 15 9 17 15 9 30 -13
24 -13 40 1 40 6 0 9 -6 6 -14 -10 -24 5 -26 24 -3 10 12 18 17 19 11 0 -6 -7
-17 -15 -24 -15 -13 -20 -42 -9 -53 4 -3 15 -2 26 4 18 9 19 7 13 -23 -4 -27
0 -40 24 -68 25 -30 32 -33 43 -21 11 12 10 13 -4 8 -27 -9 -32 10 -6 24 15 8
23 9 26 1 2 -6 10 -8 18 -5 20 7 17 -14 -3 -26 -16 -9 -16 -10 -2 -11 9 0 19
7 23 15 3 8 16 15 29 15 20 0 23 -4 19 -35 -5 -38 15 -48 38 -20 7 8 18 15 26
15 7 0 18 16 25 35 15 41 27 45 27 9 0 -30 15 -49 32 -39 9 6 9 10 -3 16 -12
7 -14 16 -6 42 5 17 9 32 9 33 0 1 -14 0 -32 -2 -17 -2 -29 -1 -26 2 11 11 63
12 76 2 9 -8 12 -5 13 8 1 18 2 17 8 -1 4 -11 13 -32 20 -47 11 -22 12 -33 2
-50 -11 -22 -11 -21 -7 7 2 17 -1 37 -8 46 -10 15 -13 14 -23 -7 -6 -13 -7
-24 -2 -24 15 0 10 -27 -6 -34 -8 -3 -15 -17 -15 -31 0 -21 4 -25 19 -20 22 7
40 -14 21 -25 -7 -4 -9 -13 -6 -19 11 -16 26 -3 27 22 0 21 1 21 10 -2 11 -28
4 -35 -51 -51 -23 -7 -43 -23 -57 -45 -19 -31 -20 -38 -9 -60 12 -22 15 -23
20 -9 10 26 19 8 12 -23 -6 -20 -9 -24 -16 -13 -5 8 -12 11 -16 7 -4 -4 -3
-12 4 -19 14 -14 42 6 42 30 0 13 3 12 15 -4 15 -19 15 -18 36 6 19 22 22 23
30 7 14 -24 33 -21 26 3 -3 13 0 20 9 20 18 0 18 -27 0 -45 -12 -12 -16 -12
-26 0 -13 16 -33 10 -27 -8 2 -7 -6 -16 -17 -22 -22 -11 -35 -55 -17 -55 6 0
11 -9 11 -20 0 -11 3 -20 8 -20 4 0 13 -4 20 -8 17 -12 4 -42 -15 -35 -11 4
-14 1 -11 -13 2 -11 12 -19 22 -19 11 0 21 -6 24 -13 2 -6 -2 -12 -9 -12 -19
0 -49 -31 -49 -52 0 -21 4 -22 31 -8 23 13 24 7 2 -27 -17 -26 -17 -26 4 -14
28 14 40 14 25 -1 -6 -6 -8 -18 -3 -27 5 -9 11 -39 15 -68 6 -46 4 -53 -15
-63 -11 -7 -18 -15 -14 -18 4 -4 9 -6 12 -4 3 2 11 -5 19 -15 14 -17 15 -17 9
4 -3 13 -2 31 4 40 9 16 11 16 20 -7 l10 -25 0 24 c1 14 -6 32 -14 42 -14 15
-14 18 2 35 10 9 18 20 19 23 0 3 5 15 9 25 6 13 5 21 -3 24 -17 5 -15 22 3
22 8 0 15 7 15 16 0 10 -6 14 -15 11 -26 -11 -26 11 0 37 14 14 27 26 29 26 2
0 7 -16 10 -35 4 -19 12 -35 18 -35 16 0 1 63 -19 77 -9 7 -19 14 -23 15 -4 2
-10 14 -14 28 l-7 25 20 -25 c11 -14 23 -22 26 -18 4 4 -2 19 -13 33 -15 19
-19 35 -15 55 3 18 -1 37 -11 51 -18 27 -20 39 -6 39 5 0 12 -11 16 -25 3 -14
10 -25 16 -25 10 0 1 38 -14 58 -6 6 -17 12 -24 12 -8 0 -11 6 -7 16 8 23 -17
65 -36 59 -10 -3 -22 4 -29 15 -12 19 -11 20 15 16 15 -2 34 -5 42 -5 7 -1 11
-7 8 -15 -3 -8 1 -17 9 -20 9 -3 13 -10 9 -16 -7 -12 12 -50 25 -50 6 0 10 7
10 15 0 8 -4 15 -10 15 -20 0 -9 18 15 24 27 7 48 57 27 64 -7 2 -12 10 -12
18 0 9 -5 12 -11 8 -8 -4 -7 0 1 15 13 25 32 19 23 -7 -6 -15 -5 -15 10 -3 16
13 17 2 16 -155 0 -93 3 -419 7 -724 9 -638 9 -794 6 -1695 l-2 -660 -55 3
c-30 2 -55 8 -55 14 0 5 15 8 35 5 19 -3 38 -1 41 4 3 5 -14 10 -38 11 l-43 1
43 4 c56 5 54 23 -3 23 -26 0 -45 5 -45 11 0 7 13 9 38 5 27 -5 33 -4 22 3 -8
6 -23 11 -32 11 -10 0 -18 5 -18 11 0 6 6 9 13 6 16 -6 57 10 57 22 0 12 -66
34 -79 27 -5 -4 -12 -19 -16 -35 -3 -17 -14 -31 -26 -34 -23 -6 -26 15 -4 33
26 21 19 43 -11 36 -43 -11 -73 46 -39 74 13 11 16 8 21 -19 8 -38 27 -42 22
-5 -4 35 -31 53 -52 35 -19 -16 -21 -62 -4 -79 9 -9 8 -12 -4 -12 -15 0 -48
25 -48 36 0 3 7 12 16 21 16 17 16 70 -1 65 -5 -2 -9 -11 -7 -19 5 -21 -15
-60 -48 -97 l-25 -30 28 17 c24 16 30 16 48 3 15 -10 17 -15 7 -19 -7 -3 -3
-6 9 -6 27 -1 34 -11 26 -39 -4 -15 -13 -22 -30 -22 -20 0 -24 4 -20 20 3 11
1 20 -3 20 -4 0 -6 9 -3 20 3 11 0 20 -6 20 -6 0 -11 -8 -11 -17 0 -30 -77
-29 -107 2 -14 13 -30 22 -38 19 -16 -6 -29 12 -20 26 5 8 11 7 21 -1 8 -6 17
-10 19 -7 8 8 -68 78 -92 84 -28 8 -28 8 -37 -31 -6 -27 -5 -28 7 -13 18 23
28 12 20 -20 -4 -18 -2 -23 8 -20 8 3 13 13 12 22 0 11 4 15 13 12 8 -3 14 -2
14 3 0 5 -10 11 -22 14 -12 4 -19 9 -16 13 4 3 14 1 24 -4 13 -7 18 -23 19
-55 0 -25 -1 -44 -4 -42 -2 3 -10 0 -18 -7 -21 -17 -37 4 -42 55 -2 20 -19 3
-26 -25 l-8 -33 -7 35 c-8 37 -13 27 -14 -29 -1 -19 -7 -36 -14 -39 -9 -3 -13
3 -11 14 2 11 0 32 -4 47 -5 19 -3 35 5 45 7 10 -2 4 -20 -12 -18 -17 -32 -35
-32 -42 0 -6 -7 -14 -15 -18 -10 -3 -15 1 -15 11 0 9 -8 21 -17 28 -16 12 -15
15 15 43 43 40 61 46 83 26 17 -16 18 -15 7 14 -9 24 -15 29 -25 20 -16 -13
-18 3 -3 32 5 11 15 29 20 40 6 11 10 28 10 38 0 10 9 28 20 40 17 18 19 26
10 42 -6 11 -15 20 -21 20 -6 0 -6 -7 1 -19 14 -27 13 -31 -7 -25 -14 5 -15 4
-4 -4 9 -7 10 -12 2 -16 -6 -4 -12 -2 -12 3 -1 6 -3 16 -4 21 -1 6 -3 17 -4
26 -1 13 -4 14 -16 4 -8 -7 -15 -8 -15 -2 0 5 7 15 15 22 16 13 20 42 8 54 -9
9 -4 378 8 501 5 55 12 131 16 169 5 56 4 68 -7 61 -10 -6 -12 -4 -6 11 20 46
27 103 22 160 -6 67 3 174 14 174 19 0 57 -52 67 -93 20 -74 86 -133 108 -97
11 17 23 11 27 -12 2 -13 10 -23 18 -23 12 0 14 11 12 50 -4 56 -21 85 -117
198 -59 70 -115 170 -115 208 0 10 -19 37 -41 61 -60 62 -169 236 -169 270 0
29 -45 95 -98 143 -58 54 -91 68 -134 59 -14 -3 -29 0 -33 6 -3 5 -11 7 -17 4
-9 -6 -27 12 -28 27 0 13 38 17 50 5 9 -8 10 -4 4 19 -7 28 -6 29 11 15 16
-14 17 -13 12 5 -4 11 -9 58 -11 103 -5 92 -13 107 -78 148 -61 39 -131 28
-155 -23 -7 -15 -13 -34 -13 -42 0 -11 -3 -12 -11 -4 -8 8 -6 18 6 37 25 38
11 43 -15 6 -13 -19 -25 -54 -29 -88 -4 -31 -10 -63 -14 -70 -5 -7 -3 -12 3
-12 7 0 10 -7 6 -15 -3 -9 0 -15 9 -15 9 0 15 -9 15 -21 0 -12 8 -23 20 -26
19 -5 29 -43 12 -43 -5 0 -35 30 -68 66 -32 36 -71 78 -85 93 -15 15 -35 44
-47 66 -11 22 -29 49 -41 59 -12 11 -21 23 -21 29 0 14 -59 129 -76 148 -8 8
-14 28 -14 43 0 16 -16 54 -35 86 -19 32 -35 68 -35 81 0 14 -18 40 -50 70
-49 48 -49 48 -53 121 l-3 73 -2 -78 c-2 -69 -4 -78 -19 -75 -16 3 -18 15 -18
88 0 47 -4 88 -8 91 -9 7 2 59 12 59 13 0 31 -49 24 -67 -5 -14 -3 -16 7 -6
14 13 8 48 -14 78 -15 20 -15 20 -29 1 -11 -15 -13 -43 -9 -128 4 -89 2 -111
-10 -121 -25 -19 -29 -59 -11 -104 8 -24 19 -43 23 -43 4 0 8 -34 9 -77 1 -42
4 -80 7 -85 3 -5 1 -15 -5 -22 -8 -10 -5 -20 12 -40 22 -25 24 -26 39 -9 13
14 16 37 14 106 -1 48 1 87 5 87 9 0 31 -88 25 -99 -12 -19 -14 -66 -3 -79 7
-8 13 -25 14 -36 2 -28 27 -94 41 -108 7 -7 12 -22 12 -34 0 -13 4 -25 9 -29
21 -12 44 -72 46 -120 2 -27 6 -99 10 -160 3 -60 8 -119 10 -130 2 -11 5 -84
6 -162 1 -79 5 -143 9 -143 10 0 20 -82 14 -107 -6 -21 -6 -21 -25 -2 -34 34
-258 22 -290 -17 -8 -10 -6 -20 11 -44 12 -16 37 -64 57 -107 28 -61 33 -80
24 -95 -11 -18 -5 -48 10 -48 10 0 13 -133 3 -143 -4 -3 -18 1 -31 10 -50 33
-216 27 -305 -11 -16 -7 -17 40 -15 763 1 619 4 771 14 775 7 3 13 11 13 17 0
8 -4 8 -15 -1 -12 -10 -15 -10 -15 4 0 9 5 16 10 16 6 0 8 11 4 25 -4 15 -2
25 4 25 6 0 14 17 18 38 3 20 13 48 21 60 8 13 12 26 10 29 -9 8 -45 -20 -41
-32 3 -6 0 -29 -4 -50 -9 -37 -9 -34 -10 30 l0 70 32 2 c46 3 61 -4 46 -22 -6
-8 -9 -23 -5 -35 7 -21 -10 -28 -19 -7 -3 6 -5 3 -3 -8 1 -14 10 -20 27 -20
14 0 25 -6 26 -12 1 -7 2 -17 3 -22 0 -5 8 -11 16 -14 11 -5 12 -1 5 19 -13
34 -13 37 6 30 15 -6 15 -4 1 17 -10 16 -12 29 -6 38 8 12 10 12 18 0 6 -10
10 -10 16 -1 12 19 -10 33 -33 21 -26 -14 -32 -14 -32 0 0 5 4 8 9 4 5 -3 13
0 17 6 10 18 -12 25 -64 23 -35 -3 -42 -1 -25 6 12 5 26 17 33 27 10 16 11 16
7 -4 -3 -15 -1 -20 9 -16 16 6 19 49 4 58 -6 3 -10 1 -10 -4 0 -6 -5 -11 -11
-11 -5 0 -7 4 -4 10 3 5 -9 16 -27 24 -25 11 -28 15 -12 15 11 1 25 -4 31 -10
8 -8 13 -8 17 0 7 11 -39 36 -61 32 -16 -2 -11 145 5 161 8 8 12 9 12 1 0 -6
16 -21 36 -34 34 -21 35 -23 18 -36 -25 -18 -33 -16 -27 7 3 12 0 20 -6 20 -7
0 -10 -4 -6 -9 3 -5 1 -12 -5 -16 -19 -12 -11 -33 11 -28 14 4 20 1 18 -8 -1
-8 3 -25 9 -39 10 -24 11 -23 11 14 1 22 4 36 8 32 10 -10 11 -47 2 -79 -6
-20 -5 -27 4 -24 7 2 11 12 9 21 -3 14 18 46 30 46 2 0 4 -25 3 -55 0 -39 -4
-54 -12 -51 -16 6 -27 -10 -13 -19 6 -4 21 -8 35 -11 30 -5 49 25 40 66 -3 16
-2 31 4 35 15 8 14 48 -1 63 -7 7 -22 12 -35 12 -13 0 -23 5 -23 11 0 6 6 9
14 6 8 -3 20 1 28 10 11 14 10 15 -10 9 -18 -6 -22 -4 -22 13 0 11 9 22 20 26
24 8 27 25 4 25 -8 0 -12 5 -9 11 4 6 13 8 20 6 6 -3 19 3 28 13 10 12 23 16
37 13 12 -3 28 1 38 10 10 9 26 14 37 12 11 -2 23 -4 28 -4 4 -1 7 -12 7 -25
0 -14 4 -28 10 -31 14 -8 60 24 60 43 0 8 11 25 25 38 31 29 31 20 0 -31 -39
-63 -47 -87 -35 -99 5 -5 10 -20 10 -33 0 -13 4 -23 9 -23 4 0 6 11 3 25 -5
29 24 69 45 61 7 -3 19 5 28 17 11 16 18 18 26 10 21 -21 2 -43 -36 -43 -30 0
-35 -3 -34 -22 1 -17 2 -19 6 -5 6 24 22 21 32 -5 6 -15 4 -33 -6 -51 -8 -16
-12 -31 -9 -34 10 -10 37 60 32 82 -4 17 -1 24 14 28 13 3 20 14 20 30 0 18 7
27 25 31 30 8 32 21 5 38 -23 15 -27 43 -7 51 20 7 41 -9 34 -26 -8 -22 22
-60 44 -54 11 3 19 1 19 -4 0 -9 -6 -11 -40 -13 -21 -2 -18 -102 3 -124 14
-14 15 -13 10 8 -5 20 -4 21 16 10 13 -6 20 -17 18 -24 -3 -8 4 -11 24 -8 16
2 27 8 24 12 -3 4 4 10 16 13 16 4 18 3 8 -9 -18 -22 14 -18 35 5 20 22 14 61
-18 104 -18 24 -19 29 -6 38 13 9 12 10 -2 6 -9 -3 -23 0 -31 6 -20 15 -34 67
-18 67 6 0 11 8 11 17 0 12 3 14 11 6 8 -8 7 -17 -2 -32 -20 -32 2 -49 35 -28
24 16 44 8 31 -12 -8 -13 28 -32 43 -22 12 7 5 51 -8 51 -5 0 -6 -9 -3 -20 3
-12 0 -20 -7 -20 -9 0 -11 10 -6 31 5 25 3 30 -9 25 -8 -3 -17 -1 -20 3 -3 5
3 12 12 16 10 3 19 1 21 -4 6 -17 22 -13 22 5 0 14 -7 15 -39 10 -23 -3 -42
-2 -46 4 -4 7 63 10 194 10 197 0 200 0 207 -22z m-783 -417 c28 -31 38 -52
57 -121 7 -25 15 -54 19 -65 5 -12 0 -41 -11 -73 -10 -30 -16 -62 -13 -73 4
-11 2 -19 -4 -19 -10 0 -16 25 -13 60 0 8 -5 46 -13 84 -8 38 -12 72 -9 77 2
5 -7 11 -21 15 -16 4 -25 13 -25 26 0 17 2 18 15 8 9 -7 19 -10 22 -6 4 4 2
10 -4 14 -7 4 -18 25 -25 47 -12 37 -16 40 -50 40 -20 0 -39 3 -43 7 -3 3 16
6 42 6 41 1 54 -4 76 -27z m229 -484 c26 -37 27 -42 22 -140 -5 -115 -10 -147
-23 -147 -10 0 -34 61 -26 68 2 3 9 -8 15 -23 14 -37 17 -30 12 33 -4 52 -22
74 -22 27 0 -14 -5 -25 -10 -25 -17 0 -30 48 -30 112 0 61 -11 73 -18 20 -5
-40 -12 -40 -11 -1 2 39 16 103 18 78 1 -18 31 -48 31 -31 0 6 3 17 6 26 4 11
1 16 -10 16 -17 0 -21 25 -9 56 6 16 8 15 17 -7 6 -13 23 -41 38 -62z m278
-30 c0 -5 36 -7 80 -6 50 3 79 0 78 -6 -1 -5 -9 -8 -18 -7 -12 3 -13 1 -2 -9
19 -20 14 -27 -20 -31 -31 -3 -33 -6 -36 -43 -2 -22 -9 -43 -15 -47 -16 -10
-1 -22 18 -15 9 4 15 19 15 42 0 29 4 35 21 35 11 0 17 5 14 10 -3 6 1 10 9
10 31 0 7 -91 -36 -137 -27 -29 -45 -29 -75 -1 -13 12 -23 16 -23 10 0 -16 62
-53 78 -47 6 3 19 8 27 11 11 4 15 0 15 -16 0 -20 4 -22 30 -16 28 5 41 -6 21
-19 -5 -3 -12 -18 -16 -34 -6 -27 -9 -29 -74 -35 -37 -4 -74 -4 -83 -1 -18 7
-52 90 -43 105 3 5 12 10 20 10 20 0 23 49 7 93 -8 21 -12 53 -9 71 4 25 0 39
-13 54 -10 11 -17 22 -15 24 8 8 45 3 45 -5z m250 -267 c27 -14 29 -40 33
-345 5 -342 4 -349 -39 -375 -29 -18 -43 -20 -107 -14 -66 6 -77 4 -94 -13
-25 -25 -46 -15 -67 30 -12 26 -16 93 -18 342 l-3 310 22 -22 c26 -27 32 -27
135 -11 72 11 77 14 92 45 9 19 16 40 16 48 0 18 5 18 30 5z m-586 -829 l1
-221 -51 0 -51 0 -6 72 c-5 58 -3 76 10 90 11 12 14 27 9 51 -4 22 1 53 14 91
23 68 62 148 68 142 2 -3 5 -104 6 -225z m-64 199 c0 -5 -18 -13 -41 -16 -22
-4 -36 -11 -32 -15 5 -5 23 -5 41 0 19 6 32 6 32 0 0 -5 -11 -11 -25 -15 -14
-3 -25 -10 -25 -14 0 -5 9 -6 19 -3 19 5 19 4 2 -55 -10 -33 -22 -65 -26 -71
-4 -7 -1 -18 5 -26 6 -8 9 -19 5 -25 -11 -17 -22 -11 -21 11 1 12 -5 24 -11
26 -16 6 -18 -43 -3 -52 6 -3 10 -13 10 -22 0 -13 -3 -13 -15 -3 -13 11 -15
-7 -16 -154 -2 -184 -1 -176 -12 -193 -10 -17 -19 -16 -42 1 -16 12 -17 16 -6
29 21 26 37 115 40 222 1 55 7 107 12 117 13 24 11 50 -3 45 -7 -2 -12 -11
-12 -20 1 -9 -3 -14 -8 -11 -5 3 -7 18 -3 33 4 19 -5 50 -30 103 -19 42 -35
81 -35 87 0 7 27 11 68 12 54 1 111 9 130 18 1 0 2 -3 2 -9z m547 -235 c-8
-17 -13 -20 -15 -10 -2 8 -8 15 -13 15 -16 0 -6 -153 9 -158 11 -3 13 8 10 52
-3 55 -3 55 14 33 17 -22 18 -21 18 32 0 81 10 55 16 -40 7 -113 27 -132 22
-21 -3 79 -2 82 20 82 19 0 22 -5 22 -45 0 -33 4 -45 15 -45 11 0 15 -11 15
-41 l0 -42 -91 5 c-74 5 -93 3 -106 -11 -12 -12 -17 -13 -21 -3 -2 6 -10 12
-17 12 -15 0 -26 115 -13 140 5 10 8 10 8 3 0 -7 5 -13 11 -13 7 0 10 14 7 35
-4 39 1 43 59 44 40 1 41 1 30 -24z m-883 -161 c-10 -7 -27 -20 -36 -30 -9 -9
-22 -13 -28 -9 -9 6 -9 9 0 15 6 4 -4 7 -22 8 -33 0 -33 0 -10 -15 28 -19 28
-27 0 -53 -12 -11 -19 -22 -16 -25 3 -4 19 8 36 26 17 18 35 29 41 25 6 -4 8
-12 5 -18 -5 -7 0 -9 14 -6 12 4 44 -2 71 -12 56 -22 67 -18 45 16 -9 13 -13
28 -9 33 3 7 0 8 -9 5 -10 -4 -16 -1 -16 9 0 9 -9 19 -20 22 -32 10 -23 25 14
25 80 0 133 -49 107 -98 -24 -45 -184 -73 -273 -49 -60 16 -76 67 -33 107 27
25 108 50 139 42 19 -5 19 -5 0 -18z m766 -56 c-24 -10 -250 -12 -317 -3 -18
2 -33 0 -33 -5 0 -6 36 -10 79 -10 44 0 82 -4 86 -9 3 -6 -9 -7 -30 -4 -23 4
-35 2 -35 -6 0 -7 22 -11 61 -11 44 0 59 -3 56 -12 -2 -7 -9 -12 -14 -11 -5 1
-50 5 -99 8 -202 13 -214 15 -214 36 0 18 5 19 50 13 37 -5 50 -3 50 6 0 7 -6
10 -12 7 -7 -2 -33 -1 -58 3 -26 4 62 8 205 8 183 1 243 -2 225 -10z m-390
-80 c0 -9 3 -9 9 1 8 12 12 12 25 2 9 -8 16 -9 16 -4 0 5 24 7 53 5 28 -3 71
-4 95 -4 53 0 54 -14 2 -36 -35 -15 -40 -21 -40 -49 0 -25 4 -31 15 -27 9 4
15 0 15 -10 0 -9 5 -16 11 -16 5 0 8 4 5 9 -3 5 1 11 9 15 10 4 15 -1 15 -14
0 -14 -7 -20 -22 -20 -12 0 -19 -3 -15 -6 3 -4 18 -3 33 0 24 6 26 11 21 41
-3 20 -1 38 6 43 16 13 77 21 77 10 0 -4 4 -8 10 -8 5 0 6 7 3 17 -4 10 -2 14
4 10 6 -4 14 -1 16 5 3 7 6 -7 8 -32 2 -38 3 -40 6 -12 2 17 8 32 14 32 5 0 9
8 9 17 0 27 18 2 23 -32 3 -26 4 -25 6 9 0 22 4 36 9 32 7 -7 8 -11 11 -37 0
-5 6 -7 12 -3 6 3 9 14 6 24 -3 13 0 16 14 13 17 -5 17 -8 -7 -37 -89 -106
-87 -105 -153 -103 -34 1 -61 -2 -61 -7 0 -4 -7 -5 -17 -2 -9 4 -62 7 -118 7
l-102 0 5 26 c4 23 3 24 -17 14 -14 -8 -27 -9 -40 -2 -16 9 -17 7 -13 -14 4
-21 1 -25 -21 -25 -14 0 -29 5 -33 11 -4 8 -9 8 -17 0 -6 -6 -39 -11 -74 -11
l-63 0 0 29 c0 17 -5 33 -11 37 -6 3 -9 15 -6 25 3 11 1 16 -4 13 -6 -3 -9
-13 -8 -22 4 -42 -2 -82 -12 -82 -6 0 -9 9 -6 20 3 11 1 20 -4 20 -5 0 -9 -7
-9 -15 0 -8 -4 -15 -10 -15 -5 0 -10 24 -10 54 0 45 3 56 19 61 10 3 23 5 27
4 5 -1 22 3 37 9 36 15 37 15 37 -1 0 -8 -9 -22 -20 -32 -24 -21 -26 -41 -5
-49 8 -3 12 -12 9 -20 -3 -8 -1 -17 5 -21 7 -4 11 3 11 16 0 18 3 20 12 11 7
-7 22 -12 35 -12 13 0 23 -4 23 -10 0 -5 16 -1 35 10 19 11 37 20 40 20 3 0
18 6 34 15 l29 15 -28 30 c-15 16 -30 39 -33 50 -4 17 0 20 29 20 20 0 34 -5
34 -12z m-379 -46 l37 -2 -2 -59 -1 -58 -88 3 c-49 1 -91 5 -94 8 -3 3 0 12 7
21 8 10 9 15 1 15 -6 0 -11 7 -11 15 0 8 7 15 15 15 9 0 15 9 15 24 0 22 4 24
43 22 23 -1 58 -3 78 -4z m997 -133 c47 9 75 3 69 -14 -3 -7 -1 -17 5 -23 14
-14 1 -32 -22 -32 -13 0 -17 5 -13 19 3 12 -2 20 -16 24 -22 5 -34 -13 -25
-40 4 -11 3 -14 -3 -7 -5 8 -74 14 -203 18 -307 9 -373 10 -397 2 -19 -6 -21
-4 -14 20 l7 27 109 -2 c61 -1 120 -5 133 -8 12 -3 22 -1 22 3 0 5 63 9 140 8
120 0 140 2 140 15 0 14 2 14 16 0 11 -12 25 -14 52 -10z m-653 -20 c7 -7 4
-8 -9 -3 -15 6 -18 4 -14 -7 5 -13 -28 -15 -238 -17 -231 -2 -244 -1 -244 16
0 10 2 21 4 23 10 9 491 -2 501 -12z m-325 -69 c0 -13 -4 -19 -11 -14 -7 4 -9
0 -5 -14 4 -11 2 -23 -4 -27 -20 -12 -10 -26 10 -15 11 6 20 16 19 23 -9 70
21 90 32 21 l6 -39 2 38 1 37 50 -2 c28 -1 50 -6 50 -11 0 -4 -4 -6 -9 -3 -5
3 -11 -7 -13 -22 -3 -15 -9 -36 -13 -47 -8 -18 -7 -18 8 -6 9 7 17 10 17 5 0
-5 5 -2 10 6 9 13 11 13 20 0 7 -11 9 -6 6 20 -3 19 -7 43 -11 52 -6 14 -1 16
27 12 50 -7 57 -11 53 -31 -2 -10 -4 -20 -4 -23 -1 -3 -6 2 -11 10 -8 12 -10
11 -10 -7 0 -16 6 -21 21 -20 17 1 20 7 17 37 -2 27 1 36 15 38 13 3 17 -3 16
-25 l-1 -28 -8 25 c-6 20 -8 14 -8 -25 0 -39 2 -45 8 -25 8 24 8 24 9 -7 l1
-32 -97 -1 c-146 -2 -177 0 -185 13 -6 9 -8 9 -8 0 0 -8 -30 -13 -90 -15 l-91
-3 2 45 c3 53 8 70 21 70 5 0 6 -4 3 -10 -3 -5 1 -10 9 -10 9 0 16 4 16 9 0
11 17 15 83 19 42 2 47 0 47 -18z m340 -22 c0 -16 -5 -38 -10 -48 -8 -16 -8
-18 5 -14 8 4 15 10 15 14 0 5 9 12 20 15 14 4 20 15 20 36 0 37 -20 39 -21 2
l-1 -28 -7 25 c-4 14 -4 28 1 31 10 7 96 4 104 -3 2 -3 5 -26 6 -51 0 -42 2
-45 19 -34 11 7 19 20 19 30 0 10 4 16 9 13 10 -7 24 22 16 34 -3 5 0 12 6 16
8 4 10 -8 8 -42 -4 -45 -2 -49 19 -50 12 -1 22 5 22 12 0 20 -17 26 -24 8 -4
-9 -9 -14 -13 -11 -3 4 0 13 7 22 7 8 10 21 7 29 -8 21 13 36 50 36 32 0 43
-12 23 -25 -5 -3 -10 -2 -10 4 0 5 -8 8 -17 6 -10 -2 -21 -4 -25 -4 -13 -2 -8
-25 9 -46 15 -19 15 -19 9 8 -5 20 -3 27 8 27 8 0 16 -6 19 -12 2 -8 10 -1 17
15 7 15 17 27 22 27 18 0 6 -23 -34 -66 -52 -54 -97 -64 -110 -24 -7 25 -8 25
-4 -2 3 -28 -7 -37 -19 -18 -4 7 -12 7 -18 2 -7 -5 -31 -10 -54 -11 -34 -2
-43 1 -43 14 0 9 -5 13 -10 10 -6 -4 -8 -11 -5 -16 4 -5 -12 -9 -34 -9 l-41 0
0 59 c0 54 2 59 20 54 14 -4 20 -14 20 -35z m460 -75 c24 -12 24 -13 3 -13
-12 0 -30 -11 -41 -24 -10 -13 -26 -24 -36 -23 -11 1 -26 -14 -43 -43 -14 -25
-18 -36 -9 -26 9 11 16 14 16 8 0 -7 5 -12 11 -12 5 0 7 5 4 10 -8 13 3 50 15
50 16 0 21 -39 9 -62 -12 -22 -11 -23 8 -5 23 20 35 13 27 -17 -3 -12 0 -33 6
-46 9 -22 10 -20 5 13 -7 43 -1 46 26 15 21 -26 25 -64 7 -70 -8 -3 -5 -16 10
-40 13 -20 18 -38 13 -40 -5 -1 -3 -12 4 -22 11 -15 15 -16 18 -5 2 8 9 28 14
45 8 25 7 36 -8 55 l-19 24 6 -35 c6 -33 5 -34 -11 -19 -14 14 -15 21 -5 39 6
12 9 28 6 36 -3 8 1 14 9 14 8 0 15 -9 15 -20 0 -31 36 -61 64 -54 18 4 28 0
40 -18 22 -31 -1 -39 -25 -9 l-17 21 -21 -34 c-26 -41 -26 -42 -1 -49 17 -4
18 -2 9 15 -14 26 4 49 23 30 15 -15 55 -16 63 -2 4 6 1 17 -5 25 -10 12 -9
15 8 15 12 0 26 -9 32 -21 10 -17 8 -21 -8 -26 -11 -3 -23 -14 -26 -26 -3 -12
-8 -18 -12 -14 -4 4 -13 -2 -21 -13 -8 -12 -20 -17 -30 -13 -13 5 -15 3 -8
-13 4 -10 15 -40 24 -66 18 -53 29 -67 39 -52 4 6 16 16 27 23 19 11 19 11 1
9 -25 -4 -33 19 -9 25 11 3 7 5 -11 6 -16 0 -35 9 -42 19 -18 23 -17 33 2 25
11 -4 15 -1 12 13 -2 14 3 19 23 20 15 1 41 11 58 24 31 21 32 23 14 42 -13
15 -14 19 -3 16 8 -2 20 -9 26 -17 8 -10 15 -11 31 -3 15 8 23 8 33 -1 10 -10
10 -8 1 11 -11 20 -61 41 -83 34 -5 -1 -8 4 -8 10 -1 8 -6 6 -14 -5 -11 -14
-16 -15 -22 -6 -4 7 -3 14 4 17 6 2 3 13 -10 27 -16 19 -25 22 -39 14 -16 -8
-19 -6 -19 18 0 26 1 26 15 7 14 -19 14 -19 15 1 0 17 2 17 10 5 9 -13 11 -13
19 0 6 8 13 12 16 8 10 -10 45 30 45 51 0 25 16 36 24 16 3 -8 13 -15 22 -15
11 0 15 -6 11 -20 -3 -12 0 -20 8 -20 7 0 18 -7 25 -15 17 -21 23 -19 37 10 8
19 8 23 0 18 -7 -4 -5 1 3 11 24 30 61 39 79 20 15 -15 14 -16 -9 -11 -22 5
-23 5 -7 -7 16 -12 16 -16 2 -42 -8 -16 -15 -45 -15 -64 1 -31 2 -33 14 -17 7
9 17 17 21 17 5 0 -2 -11 -15 -25 -22 -23 -23 -28 -11 -48 8 -12 10 -19 6 -14
-13 12 -34 -63 -28 -96 4 -21 3 -28 -5 -23 -7 4 -13 22 -13 39 -1 18 -3 24 -6
15 -4 -15 -43 -27 -43 -14 0 2 -3 13 -7 23 -6 15 -5 16 9 5 12 -9 18 -10 23
-2 4 6 5 12 4 13 -2 1 -14 8 -26 15 -13 7 -23 8 -23 3 0 -5 -6 -16 -12 -23 -7
-7 -20 -22 -28 -33 -15 -19 -15 -19 13 -2 32 21 52 13 23 -8 -17 -13 -16 -14
15 -9 30 5 36 2 47 -22 6 -16 12 -34 12 -41 0 -7 5 -13 10 -13 6 0 10 -5 10
-10 0 -12 -48 -3 -67 13 -10 7 -13 4 -13 -12 0 -31 18 -61 35 -61 14 0 55 -34
55 -45 0 -3 -9 -5 -20 -5 -23 0 -26 -10 -8 -28 15 -15 9 -21 -31 -24 -33 -2
-34 -7 -16 -50 5 -13 2 -18 -10 -18 -9 0 -14 4 -11 9 3 5 1 23 -6 41 -9 29 -9
35 7 46 14 10 22 11 32 3 10 -9 13 -8 13 4 0 9 -9 21 -20 27 -15 8 -20 8 -20
-2 0 -17 -38 -41 -51 -32 -6 4 -3 14 8 27 l18 22 -22 -19 c-13 -10 -20 -23
-17 -27 3 -5 -2 -9 -10 -9 -8 0 -13 6 -10 13 5 13 -40 17 -52 4 -11 -11 -24 3
-24 25 0 12 -7 30 -17 40 -15 17 -15 18 5 18 12 0 22 5 22 11 0 6 -7 9 -15 5
-25 -9 -65 11 -65 34 0 26 -23 26 -59 -1 -16 -12 -34 -19 -39 -15 -18 11 -23
-11 -6 -25 14 -11 18 -10 30 6 8 10 14 13 14 7 0 -21 18 -13 22 10 5 32 28 35
28 4 0 -15 6 -26 13 -26 36 0 66 -81 52 -138 -6 -24 -22 -24 -82 0 -28 11 -35
10 -49 -4 -9 -9 -17 -33 -18 -55 -2 -27 -7 -39 -19 -41 -21 -4 -23 31 -2 51 8
8 11 17 8 21 -4 3 4 17 16 30 14 14 20 30 16 37 -6 9 -1 10 20 5 20 -5 30 -2
40 10 19 26 37 9 23 -22 -9 -18 -9 -27 0 -36 9 -9 12 -6 12 14 0 15 5 30 11
33 7 5 3 14 -10 26 -12 11 -21 27 -21 37 -1 16 -1 16 -11 -1 -5 -9 -7 -22 -4
-27 3 -6 3 -10 -2 -11 -54 -4 -76 -9 -88 -19 -12 -10 -15 -9 -15 8 0 12 -9 26
-20 32 -24 13 -26 30 -5 30 8 0 15 -4 15 -10 0 -5 6 -10 14 -10 8 0 16 -5 18
-12 3 -8 16 -5 42 11 44 28 41 40 -5 17 -39 -20 -39 -20 -39 -1 0 8 -7 15 -16
15 -8 0 -12 5 -9 10 10 16 -7 12 -27 -7 -30 -27 -21 -9 14 27 17 19 39 34 47
35 9 0 17 5 17 10 1 6 -2 9 -7 7 -12 -3 -11 9 1 28 8 12 10 12 16 -3 3 -9 10
-17 16 -17 5 0 1 14 -9 30 -9 17 -20 30 -24 30 -13 0 -48 70 -43 85 4 8 -1 17
-10 21 -18 7 -21 36 -5 65 6 11 8 25 5 32 -2 7 -8 2 -11 -10 -4 -13 -11 -23
-16 -23 -5 0 -6 -7 -3 -15 4 -8 0 -23 -7 -33 -7 -9 -9 -14 -4 -9 4 4 19 -11
31 -33 28 -50 38 -80 26 -80 -6 0 -13 11 -16 25 -8 30 -66 93 -66 71 0 -8 10
-22 22 -30 18 -13 23 -27 25 -73 3 -72 -4 -110 -20 -110 -7 0 -20 -4 -30 -8
-13 -6 -16 -4 -11 9 4 9 9 14 12 12 3 -3 11 -1 19 5 15 13 17 58 3 79 -9 13
-12 12 -26 -5 -9 -12 -13 -31 -10 -47 3 -16 0 -28 -7 -30 -16 -6 -79 16 -71
25 4 3 10 24 14 47 6 33 5 40 -9 40 -10 0 -17 9 -17 25 -2 19 1 23 10 15 7 -5
16 -7 19 -3 4 3 10 -8 13 -25 4 -18 9 -32 13 -32 28 2 62 72 41 85 -5 3 -10
-3 -10 -14 0 -26 -10 -51 -21 -51 -12 0 -11 37 1 61 7 13 7 19 0 19 -5 0 -10
-4 -10 -10 0 -5 -7 -10 -15 -10 -13 0 -14 4 -4 23 7 12 17 26 23 30 7 5 -1 18
-22 36 -42 36 -38 71 6 64 l27 -4 -30 18 c-16 9 -34 16 -40 14 -5 -1 -4 3 3
10 6 7 12 23 12 35 0 13 25 53 58 92 49 60 58 67 62 48 3 -11 17 -26 30 -33z
m-876 -68 c23 -17 14 -20 -14 -5 -12 6 -21 7 -25 1 -3 -6 11 -13 32 -16 64
-11 69 -13 36 -15 -18 -1 -37 -4 -43 -5 -5 -1 -17 -3 -25 -4 -8 0 -15 -4 -15
-8 0 -5 101 -7 225 -5 197 2 225 1 225 -13 0 -8 9 -24 19 -34 10 -10 23 -34
27 -52 8 -32 13 -179 6 -179 -2 0 -12 5 -23 11 -19 10 -19 12 -4 35 15 23 14
27 -2 54 -9 17 -20 30 -24 30 -13 0 -19 -49 -9 -76 6 -15 8 -29 5 -32 -3 -3
-5 0 -5 7 0 7 -4 9 -10 6 -6 -3 -7 1 -4 9 3 9 1 16 -4 16 -18 0 -24 -20 -11
-36 10 -12 7 -15 -17 -14 -16 0 -50 0 -76 0 -26 1 -50 -4 -54 -11 -4 -8 -3 -9
4 -5 15 9 16 -18 2 -45 -15 -27 -33 -24 -28 6 3 13 1 22 -3 19 -14 -9 -10 -54
4 -54 8 0 22 9 32 20 14 16 20 17 27 8 5 -9 8 -6 8 9 0 12 5 25 12 29 8 5 9 2
4 -11 -5 -15 -4 -16 9 -5 12 10 15 10 15 -4 0 -9 5 -16 11 -16 5 0 8 4 4 9 -3
5 -1 12 5 16 5 3 10 0 11 -7 0 -7 4 -4 8 6 11 28 48 31 57 4 6 -21 7 -21 20
-4 17 23 37 10 31 -20 -4 -24 18 -35 25 -13 2 7 9 5 17 -5 12 -14 12 -16 -3
-10 -15 6 -15 3 -5 -19 7 -15 15 -24 19 -22 4 2 5 -7 2 -20 -2 -14 -8 -22 -13
-19 -5 3 -7 9 -4 14 8 12 -6 41 -16 34 -5 -3 -7 -10 -4 -15 12 -18 -10 -8 -39
19 -17 15 -24 19 -16 8 8 -10 15 -24 16 -30 5 -53 5 -52 13 -33 6 17 8 17 20
3 11 -13 11 -16 0 -16 -10 0 -10 -3 -1 -12 7 -7 12 -23 12 -37 l0 -26 13 25
c7 14 9 27 5 28 -11 5 -10 22 1 22 12 0 24 -32 14 -39 -4 -3 -9 -17 -10 -31
-1 -14 -5 -47 -9 -74 -6 -39 -4 -48 7 -44 8 3 13 16 11 31 -2 20 1 25 12 21 9
-3 17 3 21 17 7 20 8 20 17 5 5 -9 8 -33 6 -54 l-3 -37 -18 30 -17 30 2 -30
c2 -22 -2 -30 -17 -33 -11 -2 -24 -9 -30 -14 -7 -8 -4 -9 9 -4 16 6 17 4 6 -9
-9 -11 -15 -13 -20 -5 -5 8 -9 6 -14 -6 -3 -9 -9 -14 -13 -11 -3 4 -1 12 4 19
17 21 22 70 9 90 -9 16 -8 22 7 32 18 14 23 36 8 36 -5 0 -11 14 -14 30 -9 42
-27 37 -27 -7 0 -39 -10 -40 -14 -1 -3 32 -15 50 -28 42 -7 -5 -9 2 -4 19 15
59 -113 96 -148 42 -9 -13 -16 -31 -16 -39 0 -23 -41 -87 -53 -83 -18 6 -20
27 -2 27 13 0 16 6 11 25 -5 19 -2 25 10 25 10 0 14 7 12 23 -2 14 -9 21 -21
20 -12 0 -16 4 -13 13 3 8 2 23 -2 34 -7 19 -9 19 -30 4 -15 -11 -22 -25 -22
-50 0 -19 5 -34 10 -34 6 0 10 5 10 10 0 6 14 10 30 10 17 0 30 -4 30 -10 0
-10 -14 -14 -38 -11 -7 1 -15 -5 -18 -13 -7 -18 -31 -11 -63 21 -29 28 -41 22
-41 -23 0 -21 -8 -42 -21 -55 -12 -12 -19 -29 -16 -40 3 -10 1 -21 -3 -24 -10
-6 -17 17 -19 58 -1 23 2 27 18 22 15 -4 18 0 17 25 -1 34 -5 36 -30 17 -14
-10 -18 -26 -18 -60 1 -35 -2 -47 -13 -47 -8 0 -15 -5 -15 -10 0 -6 6 -9 13
-8 7 2 13 -10 15 -29 4 -40 -10 -43 -25 -5 l-11 27 3 -32 c1 -19 -4 -38 -12
-45 -12 -10 -13 -7 -8 15 4 14 3 32 -1 39 -14 21 -12 59 3 54 10 -4 11 -1 4
12 -4 9 -5 26 0 37 8 19 8 19 15 -3 9 -30 22 -28 16 3 -2 14 -8 25 -13 25 -5
0 -9 8 -9 18 0 14 2 15 10 2 5 -8 12 -11 16 -8 4 4 0 18 -8 30 -20 31 -31 78
-18 78 5 0 10 -7 10 -15 0 -8 9 -19 19 -25 22 -11 35 1 36 35 0 11 8 21 18 23
20 4 23 -27 6 -60 -9 -16 -8 -19 3 -16 7 3 16 23 19 46 5 38 3 42 -16 42 -11
0 -26 -5 -33 -12 -18 -18 -16 26 4 93 21 70 30 79 38 34 6 -28 3 -42 -9 -55
-9 -10 -14 -24 -10 -29 8 -15 48 -14 63 1 9 9 12 8 12 -5 0 -19 35 -23 46 -5
5 8 2 9 -9 5 -10 -3 -17 -3 -18 1 0 4 -2 21 -4 39 -4 27 -2 30 16 26 14 -4 19
-12 16 -23 -3 -14 1 -17 19 -16 25 1 31 10 14 21 -19 12 -10 25 14 19 34 -8
56 19 56 71 0 50 -14 65 -30 34 l-12 -21 -14 21 c-9 12 -20 21 -25 21 -6 0 -2
-11 9 -25 23 -29 19 -59 -11 -80 -14 -10 -26 -11 -38 -5 -29 16 -35 12 -31
-23 3 -27 -1 -35 -22 -47 -31 -16 -42 -9 -27 18 6 12 11 29 11 39 0 32 -20 92
-37 108 -14 15 -14 17 3 31 16 14 17 15 2 10 -24 -7 -31 9 -13 27 21 22 19 27
-10 27 -17 0 -29 -8 -36 -24 -10 -21 -14 -23 -30 -13 -22 14 -26 57 -5 57 14
0 30 34 26 59 -1 7 3 10 9 7 5 -4 12 -2 16 4 8 13 16 12 39 -5z m1948 -798
l108 1 0 -128 0 -129 -1082 2 -1083 2 0 133 0 134 975 -9 c536 -4 1023 -7
1082 -6z"/>
<path d="M864 3251 c-41 -25 -47 -35 -39 -70 9 -42 67 -64 121 -48 21 7 51 20
65 30 26 17 28 17 64 -8 59 -40 156 -32 180 15 19 37 9 66 -28 84 -40 18 -118
6 -161 -25 -27 -20 -29 -20 -38 -4 -12 21 -68 45 -105 45 -15 0 -42 -9 -59
-19z"/>
<path d="M1835 923 c-11 -3 -23 -10 -27 -17 -6 -8 -11 -7 -18 4 -8 13 -13 13
-37 0 -30 -17 -57 -78 -42 -96 5 -6 3 -18 -6 -30 -14 -18 -15 -16 -11 18 5 39
-12 108 -25 108 -16 0 -22 -70 -7 -88 8 -9 15 -28 16 -42 1 -13 9 -30 18 -37
14 -10 15 -15 5 -27 -7 -8 -11 -23 -8 -33 4 -14 5 -13 6 5 1 28 49 51 63 30 7
-12 12 -4 9 17 -1 6 12 -6 29 -25 16 -19 36 -43 45 -52 10 -12 11 -19 4 -24
-6 -4 -15 -1 -19 6 -5 8 -9 3 -12 -13 -4 -18 -1 -24 9 -20 7 3 13 0 13 -6 0
-6 5 -11 11 -11 5 0 8 4 5 9 -10 15 5 43 20 37 16 -6 28 27 19 54 -6 20 -35
28 -35 10 0 -5 5 -10 10 -10 6 0 10 -9 10 -20 0 -11 -3 -20 -6 -20 -16 0 -29
29 -29 63 0 20 -3 37 -8 37 -4 0 -6 4 -3 9 4 5 1 11 -6 13 -13 5 -4 38 11 38
5 0 12 -8 14 -17 3 -11 5 -7 6 10 0 15 8 30 16 33 20 8 8 96 -13 93 -4 -1 -16
-4 -27 -6z"/>
<path d="M2025 911 c4 -14 0 -23 -15 -31 -20 -11 -30 3 -10 15 6 3 10 11 10
18 0 6 -7 1 -16 -11 -8 -12 -12 -27 -9 -32 11 -18 -5 -32 -21 -19 -12 10 -13
9 -8 -5 4 -9 1 -37 -6 -63 -12 -40 -11 -46 3 -55 10 -5 17 -14 17 -21 1 -7 12
-25 26 -42 l25 -30 -6 30 c-5 23 -4 27 4 15 8 -11 9 -6 4 20 -6 33 -18 49 -35
50 -5 0 -8 -5 -8 -11 0 -5 5 -7 10 -4 6 4 10 -5 10 -19 0 -36 -12 -32 -31 9
-12 26 -13 35 -4 35 7 0 13 6 12 13 -1 40 4 67 14 67 8 0 9 -11 5 -32 -4 -24
-3 -29 4 -18 8 13 10 12 10 -3 0 -11 9 -32 21 -48 17 -24 18 -34 11 -63 -8
-28 -7 -34 4 -29 8 3 15 19 15 37 2 27 2 28 6 6 7 -35 23 -51 43 -45 10 3 25
-1 33 -10 25 -24 35 -18 39 28 3 30 0 45 -11 54 -9 6 -14 13 -11 15 3 2 14 8
25 14 35 19 30 41 -10 46 -20 2 -39 0 -41 -4 -10 -16 -22 2 -20 31 1 22 -2 27
-13 23 -11 -4 -13 0 -8 17 4 16 2 20 -6 12 -17 -13 -47 11 -47 38 0 11 -5 21
-11 21 -6 0 -8 -8 -4 -19z"/>
<path d="M728 205 c4 -57 2 -65 -14 -65 -9 0 -14 -3 -10 -7 11 -11 65 -12 72
-2 3 5 -2 9 -10 9 -12 0 -16 11 -16 45 0 25 2 45 3 45 2 0 19 -22 38 -50 19
-27 37 -50 40 -50 10 0 26 23 37 55 10 30 10 30 11 -12 1 -39 3 -43 27 -43 22
0 24 2 14 15 -7 9 -11 36 -8 70 3 51 1 55 -18 55 -17 0 -24 -9 -33 -44 -6 -25
-15 -47 -19 -50 -5 -3 -22 17 -38 44 -22 39 -35 50 -54 50 -26 0 -26 -1 -22
-65z"/>
</g>
</svg>
