<?xml version="1.0" standalone="no"?>
<!DOCTYPE svg PUBLIC "-//W3C//DTD SVG 20010904//EN"
 "http://www.w3.org/TR/2001/REC-SVG-20010904/DTD/svg10.dtd">
<svg version="1.0" xmlns="http://www.w3.org/2000/svg"
 width="233.000000pt" height="400.000000pt" viewBox="0 0 233.000000 400.000000"
 preserveAspectRatio="xMidYMid meet">
<metadata>
Created by potrace 1.15, written by Peter Selinger 2001-2017
</metadata>
<g transform="translate(0.000000,400.000000) scale(0.100000,-0.100000)"
fill="#000000" stroke="none">
<path d="M108 3952 l-58 -3 0 -1939 c0 -1067 3 -1947 6 -1955 5 -13 103 -15
818 -13 l811 3 -801 2 -802 3 -6 23 c-3 12 -6 62 -6 110 0 67 3 88 13 85 7 -3
13 -28 15 -66 2 -42 7 -62 16 -62 9 0 11 14 8 55 -4 45 -1 56 13 61 10 4 21 1
25 -7 7 -11 10 -10 16 4 10 28 -10 40 -60 36 l-46 -4 0 95 0 96 178 -1 c145 0
182 3 197 15 17 14 18 13 11 -5 -5 -11 -10 -28 -13 -37 -3 -10 -13 -20 -22
-23 -9 -3 -23 -22 -31 -42 l-16 -38 -149 2 c-106 1 -135 -1 -100 -7 28 -4 391
-8 809 -9 417 -1 762 -3 766 -6 4 -2 123 -5 263 -5 168 -1 259 -5 263 -12 9
-14 -15 -28 -48 -28 -17 0 -31 -8 -38 -19 -14 -27 -14 -27 26 -50 28 -17 35
-26 31 -42 -5 -17 -2 -20 15 -16 18 5 19 2 16 -54 -2 -36 1 -58 7 -56 6 2 10
87 10 228 0 123 -2 999 -4 1947 l-3 1722 -22 5 c-23 5 -2016 12 -2108 7z m952
-42 c24 -24 27 -80 5 -80 -8 0 -15 -4 -15 -10 0 -5 17 -10 39 -10 21 0 59 -3
85 -6 47 -7 66 8 26 21 -15 5 -20 15 -20 45 0 33 3 37 20 33 11 -3 20 0 20 5
0 7 -31 13 -77 15 -43 1 17 4 134 5 l212 2 -24 -36 c-14 -20 -25 -51 -25 -68
0 -32 24 -70 50 -78 72 -24 -574 -32 -677 -9 -35 7 -63 16 -63 20 1 12 50 42
50 30 0 -19 70 -3 96 22 25 24 25 53 -2 97 l-14 22 80 0 c67 0 83 -3 100 -20z
m1150 -6 c15 -38 13 -517 -2 -532 -7 -7 -8 -12 -2 -12 16 0 15 -59 -2 -68 -18
-10 -76 -102 -65 -102 5 0 22 20 38 45 15 25 31 45 35 45 10 0 -25 -74 -44
-93 -20 -20 -48 -22 -48 -4 0 24 45 105 70 126 14 11 20 20 14 21 -16 0 -61
-51 -74 -84 -6 -16 -13 -26 -16 -23 -13 13 7 54 44 93 l39 40 -36 62 c-20 34
-41 62 -46 62 -6 0 -19 -25 -30 -56 -20 -60 -20 -60 -45 10 -8 22 -13 26 -24
17 -7 -6 -16 -25 -20 -42 -3 -17 -9 -28 -13 -25 -9 5 -38 60 -47 90 -6 17 -9
18 -20 5 -7 -8 -23 -39 -36 -69 -12 -30 -24 -57 -26 -59 -1 -2 -23 13 -47 33
-24 20 -48 36 -54 36 -5 0 -15 24 -22 53 -17 75 -93 226 -137 271 -35 36 -91
76 -106 76 -20 0 -4 -18 30 -35 41 -21 24 -33 -22 -16 -52 20 -51 78 2 134
l26 27 338 0 338 0 10 -26z m-800 -198 c0 -8 3 -21 6 -29 3 -10 -3 -20 -17
-27 -21 -12 -22 -11 -16 20 5 23 3 30 -6 27 -6 -2 -12 -21 -13 -41 0 -26 -6
-41 -18 -48 -15 -9 -17 -7 -11 11 8 25 -2 27 -26 5 -10 -9 -15 -22 -12 -30 3
-8 0 -14 -6 -14 -6 0 -11 5 -11 10 0 16 -27 12 -34 -5 -3 -8 -1 -15 4 -15 6 0
10 -4 10 -9 0 -5 -11 -4 -25 2 -25 12 -36 41 -11 31 7 -3 16 2 19 10 5 12 0
16 -18 16 -14 0 -25 5 -25 10 0 6 7 10 15 10 8 0 15 5 15 10 0 6 -9 10 -20 10
-11 0 -20 7 -20 15 0 18 -12 19 -28 3 -10 -10 -15 -10 -21 1 -7 10 -12 8 -26
-10 -12 -17 -16 -19 -11 -6 3 10 6 25 6 33 0 10 27 14 128 17 70 1 137 4 150
5 13 1 22 -3 22 -12z m-332 -8 c7 -7 12 -19 12 -28 -1 -12 -3 -12 -15 3 -15
21 -46 19 -53 -3 -4 -12 -2 -13 9 -2 7 6 17 12 21 12 14 0 8 -47 -7 -60 -11
-9 -13 -16 -6 -23 13 -13 44 11 37 30 -6 16 3 17 24 2 11 -8 12 -12 3 -16 -7
-2 -13 -12 -13 -21 1 -14 4 -13 19 6 26 30 41 28 41 -8 0 -18 5 -29 12 -27 20
4 21 -31 1 -41 -10 -5 -32 -7 -49 -5 -24 4 -31 9 -27 22 6 24 -24 48 -40 32
-9 -10 -8 -15 6 -26 18 -13 17 -14 -12 -30 -28 -14 -33 -14 -56 1 -23 15 -25
15 -31 0 -4 -10 3 -24 17 -36 21 -17 21 -19 4 -13 -11 3 -24 9 -30 13 -24 18
-90 21 -110 6 -19 -14 -16 -15 38 -12 44 3 57 1 57 -10 0 -8 7 -17 16 -21 15
-5 15 -7 0 -15 -11 -6 -21 -4 -32 6 -18 18 -44 21 -44 5 0 -6 -6 -9 -13 -6 -8
3 -20 1 -28 -4 -9 -6 2 -9 34 -9 26 0 47 -4 47 -9 0 -5 9 -13 20 -16 11 -3 20
-11 20 -16 0 -6 -9 -7 -21 -4 -15 5 -19 4 -14 -5 6 -9 2 -9 -15 0 -25 13 -75
-2 -84 -26 -3 -8 -10 -14 -16 -14 -6 0 -9 29 -8 73 1 39 -1 82 -6 95 -6 19 -4
22 16 22 18 0 20 2 9 9 -12 8 -12 12 -2 25 14 17 7 36 -15 36 -19 0 -18 16 1
24 8 3 15 1 15 -4 0 -16 22 -11 36 7 7 10 16 15 20 10 4 -4 -3 -18 -16 -32
-13 -14 -20 -31 -17 -39 8 -20 21 -20 37 -1 7 8 9 15 6 15 -4 0 -4 5 -1 10 4
6 13 4 23 -6 15 -15 16 -15 23 2 3 11 4 25 2 32 -6 15 23 16 32 2 4 -6 16 -8
27 -4 13 4 18 2 14 -4 -3 -5 3 -21 15 -33 l20 -24 -6 43 c-4 25 -3 42 3 42 5
0 13 7 16 16 5 14 4 15 -9 4 -8 -7 -22 -10 -30 -6 -9 3 -15 0 -15 -9 0 -8 -5
-15 -11 -15 -7 0 -9 9 -6 23 4 12 2 29 -3 37 -8 13 -11 12 -23 -5 -8 -10 -13
-26 -10 -35 4 -13 4 -13 -6 0 -9 12 -14 13 -31 2 -14 -8 -20 -9 -20 -1 0 6 9
13 19 16 11 3 22 16 25 29 6 22 11 24 74 24 40 0 73 -5 80 -12z m438 -114 c-6
-22 -4 -23 20 -14 36 14 38 13 22 -12 -8 -13 -17 -32 -20 -43 -5 -20 -1 -21
56 -17 51 3 65 0 89 -18 15 -12 27 -26 27 -31 0 -6 -7 -3 -16 6 -29 29 -124
-5 -124 -45 0 -17 4 -19 27 -14 22 6 25 4 20 -10 -6 -15 -3 -17 22 -11 31 7
71 -8 71 -26 0 -6 -4 -8 -8 -5 -17 11 -80 -14 -78 -31 0 -9 -5 -18 -13 -21
-10 -3 -12 1 -8 14 4 11 -3 6 -15 -11 -26 -33 -42 -136 -21 -128 7 3 12 8 11
11 -2 19 3 25 12 12 5 -8 12 -11 16 -7 4 3 2 13 -4 20 -7 8 -9 17 -5 20 3 4
-1 7 -10 7 -19 0 -21 8 -7 30 9 13 11 13 20 0 5 -8 10 -24 10 -35 0 -18 6 -21
52 -20 l52 0 -3 -45 c-1 -25 -4 -47 -6 -49 -2 -1 -14 4 -27 13 -31 22 -65 20
-78 -3 -13 -25 -13 -82 0 -115 8 -22 16 -26 50 -26 33 0 40 3 40 20 0 11 3 20
8 20 12 0 5 -104 -7 -108 -6 -2 -11 1 -11 7 0 5 -8 9 -17 9 -10 0 -25 2 -34 6
-13 6 -15 1 -12 -26 2 -22 1 -27 -5 -15 -7 16 -9 16 -30 2 -31 -22 -28 -32 14
-39 53 -11 110 -66 111 -110 1 -20 -3 -36 -9 -36 -5 0 -7 -10 -3 -22 5 -20 4
-21 -5 -5 -27 43 -116 55 -128 17 -3 -9 1 -11 12 -7 18 7 56 -8 68 -27 4 -6 8
-21 8 -33 0 -13 5 -23 10 -23 6 0 10 -4 10 -9 0 -5 -8 -7 -19 -4 -10 2 -18 12
-17 21 0 10 -5 16 -11 15 -7 -2 -13 2 -13 7 0 6 -7 10 -15 10 -18 0 -20 16 -2
23 7 4 6 6 -4 6 -17 1 -43 -22 -35 -30 3 -2 -13 -5 -36 -5 -25 -1 -35 2 -27 7
11 6 9 13 -9 30 -24 21 -57 23 -106 3 -16 -6 -17 -5 -7 14 13 24 69 58 89 54
20 -5 13 26 -9 39 -23 12 -89 4 -89 -11 0 -6 10 -6 23 -2 24 9 57 5 57 -6 0
-4 -19 -16 -42 -26 -42 -18 -42 -18 -60 4 -10 12 -18 29 -18 38 0 13 3 12 15
-4 12 -16 14 -16 15 -3 0 9 10 24 23 33 12 9 30 22 39 29 10 6 19 22 21 34 2
12 6 26 10 29 13 14 7 23 -10 17 -15 -6 -16 -4 -6 8 10 12 10 19 0 32 -11 15
-16 14 -59 -8 -53 -27 -55 -26 -30 25 14 28 24 36 51 38 29 3 40 -2 63 -29 31
-35 34 -45 16 -52 -8 -4 -7 -6 4 -6 9 -1 24 -4 34 -8 12 -4 15 -3 10 6 -4 6
-2 19 5 27 9 11 9 20 0 40 -24 54 -7 140 26 127 11 -4 14 -3 9 6 -5 7 -19 16
-32 21 -21 9 -24 16 -24 65 0 47 -4 60 -26 81 -21 22 -32 25 -70 22 -51 -4
-55 4 -16 29 15 10 29 21 32 25 3 4 12 3 20 -2 22 -14 34 -12 21 4 -7 8 -24
17 -38 21 -21 5 -24 8 -12 16 11 7 11 9 -4 9 -10 0 -15 5 -12 10 10 15 22 12
45 -12 11 -12 23 -18 27 -14 13 13 -37 46 -69 46 -26 0 -30 -3 -25 -21 4 -15
2 -19 -8 -15 -8 3 -16 -3 -18 -12 -3 -12 -5 -11 -6 6 0 12 4 22 9 22 6 0 10 8
10 19 0 20 58 53 88 50 60 -6 67 9 21 52 -18 17 -25 29 -17 29 8 0 19 -5 26
-12 9 -9 13 -5 18 20 4 17 11 29 16 26 5 -4 7 -17 4 -30z m-316 -9 c8 -24 8
-40 1 -54 -10 -18 -6 -22 31 -39 62 -28 89 -62 96 -118 7 -63 -18 -109 -67
-126 -20 -7 -40 -13 -46 -13 -5 0 -17 -5 -24 -10 -13 -7 -40 -9 -82 -6 -5 1
-7 6 -4 11 10 16 -33 12 -72 -7 -20 -9 -38 -25 -41 -35 -2 -10 -11 -18 -20
-18 -13 0 -13 2 0 18 20 23 30 52 17 52 -5 0 -18 -13 -27 -30 -10 -17 -25 -30
-36 -30 -19 0 -19 1 2 20 25 23 26 28 12 50 -8 13 -11 12 -24 -5 -9 -11 -14
-25 -12 -31 2 -6 0 -17 -5 -25 -7 -11 -9 -10 -9 4 0 13 -6 17 -22 15 -16 -2
-24 3 -26 17 -4 17 -2 18 12 6 13 -11 19 -11 31 -1 20 17 19 36 -5 60 -28 28
-25 44 10 57 28 10 42 2 20 -12 -12 -7 -14 -45 -2 -45 4 0 13 5 20 12 9 9 12
8 12 -5 0 -15 12 -22 24 -14 3 1 16 -9 29 -22 14 -12 30 -20 35 -17 5 3 40 10
77 15 75 11 99 27 116 79 10 29 8 45 -7 93 -23 72 -41 80 -89 42 -72 -57 -106
-153 -68 -195 15 -17 15 -18 -15 -18 -36 0 -67 33 -76 84 -5 26 0 48 19 89 37
78 54 91 112 84 63 -7 96 9 90 42 -2 15 -8 34 -12 44 -4 10 -3 17 3 17 6 0 16
-16 22 -35z m-509 -65 c27 0 29 -3 29 -40 0 -21 6 -59 14 -82 8 -24 17 -60 20
-80 4 -24 12 -38 21 -38 8 0 15 -7 15 -15 0 -9 -6 -12 -15 -9 -8 4 -15 10 -15
15 0 4 -7 6 -15 3 -8 -4 -15 -1 -15 5 0 6 5 11 10 11 6 0 10 5 10 11 0 5 -5 7
-11 3 -7 -4 -10 1 -7 12 5 26 -38 58 -76 58 -17 0 -46 -7 -63 -16 -42 -21 -42
-13 0 27 18 18 31 38 29 46 -2 9 1 8 7 -3 7 -10 19 -14 31 -11 26 7 26 20 0
28 -11 3 -20 11 -20 16 0 13 -42 1 -52 -15 -4 -6 -10 -8 -13 -4 -9 9 32 48 50
48 8 0 15 -4 15 -10 0 -5 12 -10 28 -10 26 1 26 1 8 15 -11 8 -28 15 -38 15
-10 0 -18 4 -18 8 0 15 13 23 28 17 7 -3 27 -5 43 -5z m1154 -186 c45 -47 88
-111 82 -127 -2 -6 -14 7 -27 29 -13 21 -33 49 -46 61 -13 13 -27 31 -33 40
-5 10 -12 15 -16 11 -4 -3 16 -37 44 -73 38 -50 49 -70 41 -80 -8 -9 -3 -14
21 -19 17 -3 42 -6 55 -6 12 0 29 -7 38 -15 8 -8 27 -15 43 -14 25 0 26 1 8 9
-19 8 -19 9 2 9 28 1 53 -9 53 -21 0 -6 -7 -7 -16 -4 -9 4 -13 2 -8 -5 3 -6
17 -9 30 -6 22 4 24 1 24 -34 0 -24 -5 -39 -12 -40 -10 0 -10 -2 0 -6 18 -7
15 -33 -5 -34 -17 -1 -17 -2 0 -6 11 -3 17 -14 17 -34 0 -25 -4 -29 -27 -30
l-28 -2 28 -4 c40 -6 35 -31 -5 -26 -25 3 -30 2 -18 -6 8 -6 23 -11 33 -11 9
0 17 -5 17 -11 0 -8 -12 -10 -35 -6 -19 3 -35 2 -35 -4 0 -5 16 -9 35 -9 47 0
49 -29 3 -32 l-33 -1 33 -4 c20 -3 32 -10 32 -20 0 -11 -7 -14 -25 -11 -14 3
-25 1 -25 -3 0 -5 10 -9 23 -10 21 0 21 -1 -3 -11 l-25 -11 25 -7 25 -7 -25
-11 -25 -11 28 0 c38 -1 34 -21 -5 -22 l-33 -2 35 -6 c24 -4 31 -9 22 -14 -7
-5 -20 -6 -28 -3 -9 3 -12 1 -9 -4 3 -6 15 -10 26 -10 10 0 19 -5 19 -11 0 -6
-7 -9 -15 -5 -8 3 -15 1 -15 -4 0 -6 7 -10 15 -10 24 0 17 -20 -7 -21 l-23 -2
23 -4 c26 -5 30 -23 5 -23 -13 0 -15 -2 -5 -8 14 -10 23 -61 15 -92 -4 -15
-11 -19 -24 -15 -11 4 -19 2 -19 -4 0 -6 11 -13 25 -17 14 -3 25 -13 25 -21 0
-9 -6 -13 -15 -10 -8 4 -17 2 -20 -3 -4 -6 3 -10 14 -10 12 0 21 -4 21 -10 0
-5 -9 -10 -20 -10 -11 0 -20 -4 -20 -10 0 -5 8 -10 18 -10 16 0 18 -11 19
-100 2 -97 1 -100 -20 -101 -21 -1 -20 -1 3 -9 17 -5 19 -8 8 -9 -10 -1 -18
-5 -18 -11 0 -5 5 -9 11 -7 6 1 14 -4 17 -12 3 -10 0 -12 -12 -8 -9 4 -16 2
-16 -3 0 -6 7 -10 15 -10 23 0 20 -60 -2 -61 -17 -1 -17 -2 0 -6 9 -2 17 -11
17 -19 0 -8 0 -17 1 -21 0 -5 -10 -11 -23 -15 -22 -6 -21 -6 5 -7 15 -1 27 -5
27 -11 0 -5 -12 -11 -27 -11 l-28 -1 25 -7 c16 -4 26 -14 27 -28 2 -19 -2 -23
-25 -24 l-27 -1 30 -8 30 -8 -30 -2 c-25 -2 -26 -3 -7 -7 12 -2 22 -9 22 -14
0 -5 -10 -9 -22 -10 -14 0 -17 -2 -8 -6 43 -14 44 -16 15 -23 l-30 -8 28 -1
c15 0 27 -5 27 -11 0 -5 -12 -10 -27 -11 -16 0 -21 -3 -13 -6 43 -14 44 -16
15 -23 -24 -6 -25 -8 -7 -9 12 0 22 -5 22 -11 0 -5 -10 -11 -22 -11 -19 -1
-17 -3 7 -9 24 -6 26 -8 8 -9 -13 0 -23 -5 -23 -11 0 -5 10 -11 23 -11 l22 -2
-22 -4 c-13 -2 -23 -8 -23 -13 0 -4 9 -6 20 -3 28 7 25 -13 -2 -22 l-23 -8 23
-4 c12 -2 22 -9 22 -14 0 -5 -10 -10 -22 -10 -21 -1 -21 -2 -3 -6 28 -7 43
-23 22 -23 -9 0 -17 -4 -17 -10 0 -5 7 -10 16 -10 8 0 13 -4 10 -9 -3 -4 -18
-6 -33 -4 -22 4 -25 2 -13 -6 8 -6 23 -11 33 -11 10 0 16 -4 13 -9 -3 -5 -15
-7 -26 -4 -11 3 -20 1 -20 -5 0 -6 12 -12 28 -14 l27 -4 -25 -11 c-24 -11 -24
-12 -2 -12 12 -1 22 -6 22 -11 0 -6 -11 -8 -25 -4 -15 4 -25 2 -25 -5 0 -6 11
-11 25 -11 34 0 32 -20 -2 -21 l-28 -2 28 -4 c15 -2 27 -7 28 -11 0 -4 2 -24
4 -44 4 -35 2 -38 -23 -39 l-27 -2 27 -4 c29 -5 25 19 46 -278 12 -190 5 -208
-97 -225 l-46 -8 43 -1 c63 -2 42 -21 -24 -21 -36 0 -54 -4 -54 -12 0 -15 -80
-17 -119 -4 -18 6 -22 5 -19 -5 4 -11 35 -15 130 -17 124 -3 126 -2 157 25 17
15 31 35 31 45 0 9 4 20 10 23 13 8 13 145 0 272 -18 185 -18 223 -1 224 13 1
12 2 -1 6 -15 4 -18 17 -19 81 0 42 -2 88 -4 102 -2 14 -6 132 -11 263 l-7
237 32 0 31 0 0 -167 c1 -93 2 -430 4 -749 l3 -582 -36 -6 c-20 -3 -48 -6 -63
-6 -16 0 -28 -4 -28 -10 0 -5 12 -8 28 -5 15 2 44 6 65 9 l37 5 0 -75 c0 -85
-8 -91 -58 -43 -19 19 -38 29 -47 25 -10 -3 -18 1 -22 12 -3 9 -13 25 -21 34
-8 10 -12 23 -9 30 3 9 -6 14 -24 15 -34 3 -74 29 -87 59 -7 14 -23 23 -47 27
-24 4 -50 19 -76 45 -55 56 -52 70 14 66 44 -3 46 -2 17 4 -20 5 -41 11 -47
15 -16 10 1 53 19 49 10 -3 11 -1 1 9 -8 8 -13 39 -13 77 0 42 -9 89 -26 140
-24 71 -26 85 -20 192 3 63 11 282 17 485 5 204 12 386 14 405 2 19 8 207 14
417 7 211 16 415 21 455 5 40 10 102 10 138 0 36 4 79 9 97 11 37 -1 64 -54
125 -24 29 -32 45 -25 53 7 8 2 19 -15 35 -14 13 -25 28 -25 33 0 11 32 -16
95 -79z m-84 -9 c6 -27 24 -67 40 -87 27 -35 29 -42 29 -130 0 -51 -5 -149
-10 -218 -5 -69 -12 -271 -16 -448 -5 -221 -11 -325 -18 -327 -6 -2 -22 -6
-37 -9 l-25 -5 -1 482 c-2 521 5 826 18 805 5 -7 13 -35 20 -63z m-1211 -364
c3 -267 3 -634 1 -773 l-1 -88 -39 0 c-22 0 -41 5 -44 13 -2 6 -5 167 -6 357
0 190 -4 427 -7 527 l-7 183 26 20 c14 11 34 42 44 68 l18 47 6 -54 c4 -29 8
-164 9 -300z m930 280 c0 -17 -4 -33 -10 -36 -15 -9 -12 -25 6 -25 8 0 13 -4
10 -9 -3 -5 4 -12 17 -16 21 -6 20 -7 -8 -14 -76 -19 -147 -82 -175 -157 -11
-30 -20 -66 -20 -79 0 -37 -33 -48 -150 -51 -167 -3 -165 -4 -189 75 -11 37
-31 82 -43 101 -29 42 -92 86 -135 95 -38 7 -43 22 -10 28 18 3 16 5 -7 6 -16
0 -37 8 -47 17 -18 16 -78 22 -98 9 -24 -14 -42 -66 -35 -101 13 -69 101 -93
171 -47 20 13 24 22 19 45 -6 32 -6 32 27 17 18 -8 24 -19 23 -38 0 -14 -4
-28 -7 -31 -3 -3 -9 -15 -13 -27 -8 -26 11 -33 20 -8 8 21 27 19 41 -4 11 -18
10 -19 -14 -18 -40 3 -40 -21 1 -29 24 -4 36 -12 36 -23 0 -12 -2 -13 -9 -3
-4 7 -12 12 -17 11 -21 -4 -76 15 -81 29 -4 8 -1 23 6 33 15 25 0 24 -34 -3
-27 -21 -83 -26 -126 -13 -28 9 -57 69 -62 130 -5 57 -5 59 36 101 51 51 92
62 139 38 41 -20 79 -65 68 -79 -5 -6 4 -10 25 -11 19 0 33 3 32 7 -1 4 3 7 8
7 6 0 9 -5 7 -11 -3 -10 16 -27 31 -27 4 0 7 8 8 18 0 10 6 5 15 -15 20 -47
34 -50 34 -7 0 28 3 35 11 27 9 -9 9 -20 0 -44 -6 -19 -7 -36 -2 -43 5 -6 12
-30 16 -54 14 -88 100 -145 183 -123 62 17 112 83 112 149 0 26 28 63 79 104
22 19 28 52 11 63 -12 8 -13 25 -2 25 5 0 14 -12 21 -26 12 -26 41 -30 49 -6
2 7 -2 10 -12 6 -9 -3 -16 -1 -16 6 0 6 5 8 10 5 6 -3 10 4 11 17 1 23 1 23 9
-2 8 -24 8 -23 9 8 1 40 21 43 21 3z m-1368 -265 c-1 -116 -6 -326 -12 -466
-5 -140 -10 -288 -10 -327 0 -42 -4 -73 -10 -73 -7 0 -10 196 -10 568 l1 567
21 -29 c21 -28 22 -38 20 -240z m2085 -894 c-16 -2 -31 -1 -33 1 -3 2 -5 247
-5 544 l-1 540 26 26 c14 14 27 32 28 39 2 7 5 -248 8 -567 l5 -580 -28 -3z
m-984 1063 c80 -56 73 -186 -12 -230 -113 -58 -233 64 -175 178 37 70 126 95
187 52z m-443 -215 c0 -16 5 -30 10 -30 6 0 10 5 10 10 0 6 10 10 23 9 l22 0
-22 -9 c-12 -5 -26 -18 -32 -28 -9 -18 -6 -20 32 -25 23 -2 51 -8 62 -12 19
-6 19 -6 2 8 -12 10 -14 17 -8 22 6 3 11 2 11 -3 0 -5 11 -14 25 -20 14 -6 25
-20 25 -29 -1 -17 -1 -17 -14 0 -16 20 -30 23 -23 4 4 -11 -3 -12 -36 -6 -55
11 -57 11 -57 -1 0 -5 17 -14 38 -20 40 -11 79 -36 70 -45 -3 -3 -17 -1 -32 5
-35 13 -76 13 -76 0 0 -5 13 -10 30 -10 30 0 100 -51 100 -73 0 -6 -10 -1 -23
11 -26 25 -78 29 -96 9 -6 -8 -8 -16 -6 -19 9 -8 -17 -58 -26 -52 -5 3 -9 0
-9 -5 0 -6 5 -11 11 -11 12 0 3 -59 -12 -74 -4 -5 -4 -17 2 -27 15 -29 6 -81
-18 -107 -17 -18 -23 -21 -23 -10 0 9 7 18 15 22 8 3 15 13 15 22 0 13 -3 14
-15 4 -13 -11 -15 -6 -15 34 0 29 4 45 10 41 6 -3 10 -1 10 4 0 6 -4 11 -10
11 -19 0 -10 37 13 48 l22 11 -22 0 c-13 1 -23 6 -23 12 0 5 5 7 10 4 6 -3 10
-2 10 3 0 8 -22 22 -36 22 -2 0 -4 -8 -4 -17 -1 -16 -2 -16 -12 1 -8 15 -8 21
0 24 25 8 11 31 -24 38 -30 5 -40 2 -65 -22 -24 -23 -29 -25 -29 -10 0 29 58
76 93 76 l31 0 -22 16 c-15 10 -33 14 -50 10 -48 -12 -57 -11 -57 3 0 8 15 21
33 28 19 8 31 9 27 3 -3 -5 3 -10 14 -10 11 0 23 4 26 10 9 15 -38 22 -69 10
-36 -13 -42 -7 -30 28 11 32 63 54 112 46 27 -4 32 -2 32 15 0 11 -12 29 -27
40 -27 20 -27 20 -5 21 12 0 22 -4 22 -10 0 -5 9 -10 20 -10 13 0 20 7 20 20
0 11 5 20 10 20 6 0 10 -13 10 -30z m263 -133 c-8 -22 -19 -63 -24 -91 -5 -27
-16 -57 -24 -66 -8 -9 -15 -24 -15 -33 0 -9 -5 -19 -11 -23 -8 -4 -9 0 -4 15
10 31 -1 25 -19 -11 -19 -37 -20 -41 -5 -32 16 10 2 -46 -17 -67 -8 -8 -14
-24 -14 -35 0 -25 -27 -64 -44 -64 -16 0 -52 -39 -60 -66 -6 -18 -46 -65 -46
-53 0 2 9 28 19 57 28 76 88 172 107 172 14 0 52 98 74 190 39 164 36 157 68
152 l29 -4 -14 -41z m149 38 c18 -6 17 -7 -3 -24 -18 -15 -20 -23 -14 -60 7
-40 20 -49 20 -13 0 9 6 16 14 14 7 -1 19 2 26 8 39 33 17 -96 -24 -143 -33
-36 -64 -33 -109 11 -40 39 -67 142 -37 142 7 0 17 -4 20 -10 11 -18 23 -11
30 17 4 19 2 31 -10 39 -11 8 -12 13 -4 16 22 7 71 9 91 3z m-5 -258 c27 1 33
-3 38 -28 6 -27 25 -42 25 -19 0 6 5 10 10 10 6 0 10 -11 10 -25 0 -60 -145
-78 -182 -21 -8 12 0 55 13 72 5 6 5 14 1 19 -4 4 7 4 23 -1 17 -4 44 -7 62
-7z m-536 -37 c5 0 9 -6 9 -13 0 -9 10 -12 30 -9 28 4 30 2 30 -28 0 -23 -9
-40 -35 -64 -51 -49 -45 -126 11 -126 28 0 42 -24 25 -44 -13 -15 -61 -19 -61
-4 0 5 -4 6 -10 3 -5 -3 -10 0 -10 8 0 7 -13 23 -30 35 -27 20 -30 28 -30 77
0 49 4 59 36 95 20 22 31 40 26 40 -6 0 -16 10 -23 22 -10 18 -9 20 6 15 9 -4
21 -7 26 -7z m323 -46 c-19 -45 -78 -320 -90 -415 -9 -73 -8 -300 2 -404 6
-60 31 -156 58 -217 14 -30 -54 -23 -97 10 -46 35 -65 76 -78 168 -13 84 -33
103 -23 22 14 -120 43 -177 110 -219 27 -16 43 -20 72 -14 54 9 103 8 127 -5
11 -6 35 -32 53 -57 33 -48 44 -44 17 6 -18 37 -69 79 -103 87 -55 13 -70 44
-22 44 17 0 30 -4 30 -10 0 -5 8 -10 18 -10 31 0 119 -47 152 -82 18 -18 41
-53 52 -78 34 -79 92 -190 100 -190 9 0 7 4 -62 145 -30 61 -65 121 -79 135
-32 32 -117 80 -141 80 -10 0 -20 7 -24 15 -3 10 -20 15 -48 16 -39 1 -40 2
-13 8 25 5 27 8 12 14 -11 4 -23 5 -27 2 -5 -3 -11 -1 -15 5 -8 13 58 13 71 0
12 -12 116 -39 131 -33 6 3 9 12 6 20 -4 11 -2 14 8 11 8 -3 26 1 41 8 15 8
35 13 45 12 10 -2 37 1 61 6 32 6 51 4 76 -8 42 -20 59 -46 75 -113 7 -29 17
-53 23 -53 5 0 7 8 4 18 -14 48 -18 97 -7 86 14 -13 36 -123 57 -293 31 -253
50 -314 122 -389 6 -7 12 -22 12 -33 0 -11 4 -28 9 -38 6 -10 6 -23 1 -31 -14
-22 -62 0 -79 35 -11 22 -47 223 -51 278 0 4 -4 7 -9 7 -5 0 -5 -16 -1 -38 5
-20 13 -77 19 -125 15 -113 36 -166 72 -181 25 -11 26 -13 12 -31 -11 -14 -17
-16 -20 -7 -3 6 -17 12 -33 12 -46 0 -64 40 -80 179 -5 42 -16 130 -24 196 -8
67 -23 152 -34 190 -11 39 -25 88 -31 110 -15 57 -66 131 -103 150 -17 8 -34
12 -37 9 -3 -4 -1 -9 6 -11 49 -18 105 -102 128 -193 38 -149 44 -181 55 -260
33 -256 40 -309 46 -326 12 -33 46 -64 71 -64 14 0 23 -6 23 -15 0 -17 -30
-35 -59 -35 -17 0 -21 6 -21 30 0 17 -3 30 -7 30 -5 0 -21 21 -37 47 -17 25
-32 41 -34 35 -2 -7 6 -24 17 -38 22 -27 20 -47 -1 -26 -20 20 -32 13 -14 -7
15 -16 15 -22 4 -40 -11 -18 -11 -23 2 -31 8 -5 18 -6 23 -3 5 3 4 9 -3 13 -9
6 -9 12 2 29 17 27 33 21 33 -13 1 -15 7 -31 15 -36 17 -10 16 -12 -29 -34
-32 -15 -36 -15 -52 0 -13 11 -17 25 -13 40 4 14 2 24 -5 24 -13 0 -25 -44
-17 -65 4 -10 -1 -15 -15 -15 -11 0 -17 -4 -14 -10 3 -5 2 -10 -3 -10 -14 0
-20 -59 -8 -74 15 -17 64 -37 68 -27 2 4 18 4 37 -1 30 -8 32 -11 19 -24 -13
-13 -22 -13 -64 -3 -78 20 -97 36 -91 78 3 20 9 47 13 60 7 22 5 23 -27 17
-32 -7 -33 -6 -15 9 11 8 23 15 26 15 4 0 12 11 20 24 10 20 10 30 -1 55 -17
37 -33 42 -19 5 17 -43 11 -61 -25 -84 -37 -23 -73 -23 -66 1 9 30 8 89 -1 89
-6 0 -8 -14 -4 -34 6 -33 -12 -64 -31 -53 -5 3 -28 44 -52 91 -25 47 -48 83
-52 80 -4 -2 8 -32 28 -65 20 -33 33 -62 29 -66 -3 -3 -7 -4 -9 -2 -1 2 -12
18 -23 34 -40 57 -161 299 -188 375 -15 41 -36 86 -47 100 -25 30 -24 29 40
-125 27 -66 72 -162 99 -213 27 -50 46 -92 41 -92 -4 0 -21 27 -36 60 -30 64
-53 78 -53 32 0 -30 27 -119 41 -138 5 -6 9 -28 9 -50 0 -75 2 -94 12 -88 5 3
6 27 3 52 -5 42 -5 45 8 29 8 -9 12 -28 10 -41 -3 -13 0 -32 6 -43 11 -17 11
-17 10 2 -3 42 1 46 23 26 l21 -21 -26 -24 c-31 -29 -33 -39 -11 -57 15 -12
16 -11 10 8 -5 15 -1 28 13 42 20 20 20 20 75 -12 30 -18 55 -34 56 -37 0 -10
-93 -9 -111 1 -12 6 -19 6 -19 0 0 -17 36 -22 115 -16 67 5 77 3 71 -10 -4
-12 0 -14 18 -9 13 3 32 1 43 -4 10 -5 43 -13 74 -16 44 -5 60 -3 72 9 9 8 24
15 33 15 16 0 16 -1 -2 -15 -18 -13 -16 -14 26 -15 25 0 50 -4 57 -8 7 -4
-206 -8 -473 -8 -461 -1 -484 0 -469 17 13 13 23 15 48 9 20 -6 54 -4 92 4 59
13 59 13 25 19 -19 4 -50 8 -69 9 -33 3 -41 11 -57 53 -7 19 -8 19 -12 -4 -5
-31 17 -52 65 -61 l38 -8 -47 -1 c-27 0 -48 4 -48 9 0 17 -25 11 -43 -10 -16
-19 -67 -28 -67 -12 0 4 14 13 30 19 33 12 40 42 15 63 -11 9 -19 8 -39 -7
-26 -18 -33 -33 -17 -33 5 0 14 7 21 15 17 21 30 19 30 -5 0 -11 -8 -23 -17
-26 -10 -3 -31 -12 -47 -19 -27 -12 -66 -10 -66 4 0 4 -6 16 -14 27 -14 19
-15 19 -38 -2 -25 -23 -68 -40 -68 -27 0 15 19 38 32 38 7 0 16 15 22 33 7 26
16 34 50 43 55 14 82 42 90 90 3 22 15 47 26 56 27 24 27 91 0 126 -19 25 -20
35 -15 254 3 125 8 243 11 261 5 31 6 32 57 34 l52 2 -52 3 c-29 2 -53 8 -53
12 0 20 51 53 84 54 46 1 51 -5 37 -45 -8 -23 -10 -76 -5 -173 4 -95 3 -164
-6 -213 -11 -66 -9 -94 5 -80 3 3 8 36 12 74 3 38 10 76 15 84 16 26 0 -147
-17 -179 -8 -17 -15 -50 -15 -75 0 -28 -8 -58 -20 -78 -11 -18 -20 -43 -20
-56 0 -13 -11 -34 -25 -48 -14 -14 -25 -32 -25 -40 0 -9 -25 -41 -55 -72 -54
-56 -64 -75 -45 -87 6 -3 10 3 10 14 0 11 11 28 25 37 14 9 25 22 25 30 0 13
37 44 53 44 5 0 6 -9 2 -20 -5 -15 -3 -18 9 -14 20 8 21 43 1 50 -22 9 -19 19
15 57 17 19 30 45 30 57 0 12 9 33 20 47 13 17 20 41 20 72 0 25 7 66 16 91
17 47 26 300 12 300 -5 0 -9 -8 -9 -17 -3 -37 -17 45 -18 103 -1 70 14 124 35
124 20 0 77 30 70 37 -3 3 -21 -2 -40 -11 -37 -17 -73 -11 -108 21 -50 45 -58
397 -13 583 7 30 16 80 20 111 4 40 16 72 41 110 20 30 44 71 55 91 10 21 29
43 42 49 34 18 57 46 63 78 4 16 12 32 20 35 8 3 14 14 14 25 0 16 18 34 28
26 1 -1 -5 -19 -14 -41z m66 -8 c0 -23 41 -66 77 -81 20 -9 38 -13 41 -10 3 2
-8 9 -24 15 -30 12 -74 48 -74 61 0 4 17 -2 37 -12 50 -26 99 -24 151 6 23 13
42 20 42 16 0 -17 -44 -62 -74 -76 -24 -11 -25 -13 -6 -9 14 3 35 12 48 20 36
23 25 -1 -15 -34 -21 -17 -35 -33 -32 -37 12 -11 81 58 101 100 l18 40 -4 -39
c-6 -48 -47 -111 -89 -136 -43 -26 -47 -25 -47 11 0 27 -3 30 -27 27 -26 -3
-28 -7 -31 -50 l-3 -47 -51 3 -51 2 -14 48 c-18 61 -11 96 7 38 15 -48 31 -64
66 -68 33 -4 30 6 -10 36 -18 14 -31 30 -29 37 3 7 0 13 -6 13 -10 0 -36 78
-28 87 3 2 14 -16 26 -40 21 -43 66 -95 76 -86 2 3 -12 27 -31 55 -35 48 -44
65 -59 113 -5 16 -4 21 4 17 6 -4 11 -13 11 -20z m392 -36 c16 0 33 -26 30
-46 -1 -6 13 -17 30 -25 18 -8 35 -23 36 -34 2 -11 15 -32 30 -47 28 -30 61
-159 62 -238 0 -25 8 -73 17 -105 14 -50 17 -119 19 -408 3 -343 3 -347 -17
-337 -11 6 -23 8 -28 5 -5 -3 -11 1 -14 7 -2 7 -7 10 -11 7 -4 -3 14 -37 39
-75 25 -38 43 -75 40 -82 -10 -28 16 -207 36 -241 12 -20 17 -41 13 -53 -5
-16 -8 -18 -15 -7 -5 8 -9 23 -9 35 0 11 -11 31 -25 44 -13 12 -30 39 -36 59
-7 20 -16 38 -20 41 -10 7 -43 200 -63 370 -14 118 -29 184 -46 203 -4 5 -5
36 -3 70 10 117 -50 579 -94 731 -3 12 -1 16 6 12 19 -12 12 36 -14 92 -31 66
-31 71 -2 44 13 -12 30 -22 39 -22z m-1113 -19 c10 -7 12 -21 8 -52 -4 -34 -1
-51 15 -77 26 -42 21 -118 -10 -143 -21 -17 -115 -34 -132 -24 -5 3 -6 63 -3
136 5 101 3 133 -7 139 -7 4 -9 13 -6 19 8 13 115 15 135 2z m1034 -183 c-10
-43 -23 -78 -29 -78 -7 0 -15 -12 -18 -26 -4 -14 -25 -45 -48 -70 -22 -24 -39
-46 -37 -48 8 -9 61 46 84 87 34 58 31 34 -6 -54 -40 -97 -95 -153 -145 -147
-19 2 -34 0 -34 -4 0 -15 83 -12 88 3 2 5 9 9 16 9 36 0 89 89 126 210 37 123
41 131 35 76 -5 -51 -37 -169 -59 -221 -7 -16 -19 -45 -26 -63 -7 -17 -28 -46
-48 -63 -35 -31 -41 -32 -101 -13 -17 5 -22 4 -17 -4 14 -23 69 -30 96 -13 54
34 74 59 112 136 33 69 38 75 32 40 -9 -54 -59 -163 -87 -186 -18 -15 -19 -18
-6 -19 32 0 60 36 84 108 14 41 25 84 26 95 0 12 7 40 15 62 l14 40 -6 -55
c-6 -71 -32 -197 -44 -221 -17 -30 -62 -61 -74 -49 -5 5 -26 9 -46 9 -19 -1
-27 -3 -17 -6 15 -4 16 -6 2 -26 -8 -12 -15 -33 -15 -48 0 -23 -3 -26 -27 -21
-16 2 -25 1 -21 -3 3 -4 32 -8 63 -10 55 -4 56 -3 62 26 4 23 11 29 31 29 14
0 33 -8 42 -17 15 -16 15 -21 0 -62 -15 -37 -23 -46 -60 -58 -55 -19 -62 -10
-13 16 60 32 29 24 -37 -9 -63 -32 -85 -28 -25 4 19 11 41 26 48 34 6 9 -10 3
-36 -12 -60 -35 -72 -29 -16 8 51 34 45 46 -8 13 -46 -29 -57 -42 -70 -82 -11
-32 -34 -36 -78 -16 -11 5 -48 22 -82 36 -34 15 -68 35 -76 44 -14 16 -30 121
-18 121 3 0 21 -4 39 -9 17 -5 32 -6 32 -2 0 4 -17 12 -37 17 -25 6 -39 16
-41 28 -3 13 0 17 11 13 8 -3 25 5 37 18 13 14 27 22 31 19 15 -9 10 -24 -7
-24 -26 0 -10 -23 21 -32 30 -8 55 4 55 27 0 8 6 15 13 18 6 2 -25 12 -70 22
l-83 18 1 36 c1 31 2 32 8 12 4 -14 13 -27 20 -29 10 -3 12 0 7 14 -15 38 -24
109 -16 123 5 9 10 -3 15 -36 6 -45 40 -121 50 -112 2 3 -6 31 -17 64 -15 44
-22 91 -24 175 -4 125 5 116 26 -25 16 -104 44 -179 86 -225 27 -30 31 -39 19
-44 -19 -7 -19 -40 0 -56 19 -16 65 1 65 24 0 9 7 12 20 9 11 -3 20 -10 20
-15 0 -5 -9 -12 -20 -15 -11 -3 -20 -9 -20 -13 0 -12 63 -21 74 -10 7 7 4 10
-7 10 -19 0 -23 15 -7 25 19 12 10 23 -22 29 -106 21 -169 123 -199 322 -19
133 -25 230 -8 149 4 -22 12 -65 18 -95 12 -70 42 -139 73 -167 26 -25 140
-44 151 -26 3 5 -15 9 -41 9 -101 1 -141 50 -173 217 -11 56 -22 112 -25 124
-4 13 -2 23 4 23 5 0 12 -19 16 -42 12 -72 41 -128 68 -128 13 0 33 -7 45 -15
18 -13 22 -24 20 -63 -2 -46 -1 -47 30 -50 36 -4 49 19 38 69 -9 40 9 59 55
59 41 0 56 22 38 54 -5 9 -5 16 0 16 5 0 14 12 21 26 18 40 22 24 7 -32 -16
-60 -29 -87 -69 -138 -17 -21 -25 -37 -17 -34 22 7 109 140 108 163 -1 11 5
47 13 80 11 50 14 55 17 30 2 -16 -5 -64 -15 -107z m-48 70 c-9 -18 -29 -43
-43 -55 l-27 -23 23 0 c17 0 23 -5 20 -17 -2 -14 -15 -19 -51 -21 l-47 -3 0
-65 c0 -35 -3 -64 -7 -64 -22 1 -32 21 -35 70 l-3 55 -42 3 c-35 3 -43 7 -43
23 0 15 7 19 38 19 43 0 64 11 62 31 -6 38 1 69 14 69 11 0 16 -14 18 -47 2
-34 7 -48 18 -49 9 0 10 1 3 3 -24 8 -13 21 41 51 29 17 56 38 60 48 4 9 9 14
12 11 3 -3 -2 -20 -11 -39z m-747 -350 c1 -29 -1 -86 -4 -125 -5 -64 -8 -73
-25 -73 -12 0 -17 -4 -14 -11 4 -6 13 -8 21 -5 9 4 14 -3 16 -19 0 -14 1 -31
2 -37 1 -7 -7 -12 -16 -12 -26 2 -22 -12 5 -20 21 -7 21 -7 2 -16 -17 -7 -18
-9 -4 -14 11 -5 16 -22 18 -56 2 -48 1 -50 -26 -51 l-28 -1 25 -7 c24 -7 25
-11 26 -82 0 -42 4 -81 8 -87 5 -8 -4 -12 -28 -12 -20 0 -36 -4 -36 -10 0 -5
16 -10 35 -10 19 0 35 -4 35 -10 0 -5 -12 -10 -26 -10 -14 0 -23 -4 -20 -9 3
-5 15 -7 26 -4 11 3 20 0 20 -6 0 -6 -5 -11 -11 -11 -8 0 -8 -4 1 -14 12 -15
10 -101 -3 -123 -4 -6 -1 -14 5 -16 7 -3 -2 -6 -19 -6 -41 -1 -44 -21 -3 -21
17 0 30 -4 30 -10 0 -5 -7 -10 -15 -10 -8 0 -15 -4 -15 -10 0 -5 6 -10 13 -10
18 0 14 -170 -5 -181 -10 -7 -9 -9 4 -9 11 0 16 -7 15 -20 -1 -21 -9 -23 -43
-14 -19 5 -21 12 -20 95 1 86 2 89 24 89 14 0 20 4 17 10 -4 6 -15 8 -24 5
-16 -5 -19 4 -24 77 -4 46 -7 138 -7 206 l0 122 31 0 c18 0 28 4 24 10 -3 6
-17 7 -29 4 -19 -4 -24 -1 -28 20 -5 22 -2 26 21 27 l26 1 -25 7 -25 7 -5 257
-5 257 41 0 40 0 2 -52z m1242 -50 c0 -97 -15 -496 -26 -705 -6 -121 -6 -122
-24 -100 -15 18 -16 23 -4 25 8 2 12 8 8 13 -3 5 -10 7 -15 4 -5 -4 -9 41 -9
110 0 89 -3 116 -12 112 -7 -2 -12 -13 -10 -23 2 -19 2 -19 -9 0 -10 16 -8 22
7 33 10 7 28 13 41 13 13 0 23 5 23 11 0 6 -9 8 -20 4 -11 -4 -20 -2 -20 4 0
6 8 12 18 12 16 1 16 2 0 6 -23 6 -26 73 -3 73 8 0 15 4 15 10 0 5 -8 7 -17 4
-10 -3 -7 2 7 10 l25 15 -23 1 c-22 0 -23 4 -21 60 2 51 5 60 21 60 10 0 18 5
18 10 0 6 -9 10 -20 10 -16 0 -20 7 -20 33 -1 17 -1 61 -2 97 0 36 0 93 1 128
l1 62 35 0 35 0 0 -92z m-349 -165 c22 6 29 -29 29 -139 0 -78 -10 -106 -24
-69 -3 8 -16 20 -30 26 -21 10 -23 17 -21 62 3 59 -5 87 -36 118 l-22 22 27
-5 c14 -3 26 -1 26 3 0 8 -15 13 -32 10 -13 -2 -9 11 9 31 15 17 17 16 37 -23
14 -28 25 -39 37 -36z m264 -633 c49 -64 93 -163 102 -231 15 -125 -41 -271
-143 -371 l-68 -67 37 -16 c42 -17 87 -20 87 -4 0 15 -21 53 -34 61 -18 12 7
28 32 22 12 -4 22 -13 22 -22 0 -13 2 -14 13 -3 10 10 7 16 -12 32 -22 18 -23
21 -9 35 11 11 23 14 39 8 13 -4 29 -7 36 -6 6 1 21 -11 33 -28 15 -21 30 -30
48 -30 l27 0 -25 13 c-14 7 -39 28 -57 45 -17 18 -39 32 -48 32 -18 0 -17 31
1 37 12 4 23 -6 56 -46 11 -13 29 -21 47 -21 39 0 61 -9 61 -25 0 -7 7 -16 16
-19 9 -4 14 -13 10 -21 -3 -9 0 -15 9 -15 8 0 15 -7 15 -15 0 -18 12 -19 27
-4 13 13 45 -18 54 -54 4 -16 12 -22 32 -22 27 0 66 -29 54 -41 -3 -4 -19 -2
-34 4 -15 6 -50 14 -76 18 -37 5 -47 10 -42 21 5 16 -11 43 -26 43 -5 0 -6 -7
-3 -15 4 -10 0 -15 -15 -15 -16 0 -21 6 -21 25 0 26 -41 55 -79 55 -10 0 -38
16 -61 35 -43 36 -60 43 -60 25 0 -5 4 -10 8 -10 4 0 25 -16 45 -35 27 -26 46
-35 70 -35 21 0 41 -8 52 -20 18 -19 17 -20 -1 -20 -11 0 -26 6 -33 12 -11 10
-14 10 -18 1 -7 -19 -18 -16 -53 17 -18 16 -36 27 -41 24 -16 -9 -10 -23 13
-26 27 -4 38 -30 12 -28 -29 3 -44 1 -43 -7 4 -23 -2 -33 -13 -26 -7 4 -33 9
-58 10 -42 2 -44 1 -25 -13 15 -11 47 -14 142 -13 75 1 120 6 117 11 -4 6 -27
7 -53 4 -43 -6 -45 -5 -27 9 11 8 26 15 34 15 26 0 97 -24 110 -37 7 -7 24
-13 38 -13 13 0 24 -3 24 -7 0 -5 -57 -7 -127 -6 -71 2 -156 3 -191 3 -37 0
-61 4 -57 9 3 6 -15 13 -40 16 -25 4 -45 12 -45 19 0 6 -26 17 -57 25 -32 7
-69 20 -82 28 -18 11 -26 13 -29 5 -6 -19 -32 -14 -33 6 -4 58 15 89 30 49 14
-37 25 -34 17 5 -6 30 -6 31 13 14 11 -10 22 -27 25 -39 3 -12 18 -30 35 -40
32 -19 81 -23 81 -7 0 6 -13 10 -29 10 -30 0 -81 39 -81 64 0 8 12 19 28 25
47 20 73 38 119 82 52 51 87 114 108 196 33 125 11 197 -102 339 -18 23 -33
44 -33 48 0 18 65 -35 105 -84z m-625 -454 c19 -24 50 -54 69 -67 19 -13 39
-29 45 -35 19 -19 54 -34 78 -34 35 -1 58 -23 58 -59 0 -25 -4 -31 -21 -31
-39 0 -133 55 -186 108 -56 57 -123 178 -123 221 1 23 3 21 23 -17 12 -23 38
-62 57 -86z"/>
<path d="M1893 2408 c-10 -18 9 -25 51 -21 42 5 44 4 50 -23 9 -44 -10 -195
-25 -205 -21 -13 -34 -5 -37 24 -2 19 -9 27 -23 27 -15 0 -19 -7 -19 -34 0
-41 20 -59 62 -58 59 2 72 28 78 155 5 109 6 112 28 109 14 -2 22 2 22 12 0
12 -18 15 -91 18 -50 2 -93 0 -96 -4z"/>
<path d="M1130 1295 c0 -2 15 -33 34 -67 19 -35 46 -94 61 -133 30 -82 46 -98
82 -84 24 9 37 6 39 -9 8 -70 19 -105 39 -118 16 -10 25 -29 30 -61 9 -62 14
-73 31 -66 35 13 9 95 -44 137 -25 19 -25 33 -6 110 9 39 -9 47 -63 29 -24 -8
-50 -13 -57 -10 -8 3 -22 30 -31 59 -23 69 -96 218 -107 218 -4 0 -8 -2 -8 -5z"/>
</g>
</svg>
