<?xml version="1.0" standalone="no"?>
<!DOCTYPE svg PUBLIC "-//W3C//DTD SVG 20010904//EN"
 "http://www.w3.org/TR/2001/REC-SVG-20010904/DTD/svg10.dtd">
<svg version="1.0" xmlns="http://www.w3.org/2000/svg"
 width="233.000000pt" height="400.000000pt" viewBox="0 0 233.000000 400.000000"
 preserveAspectRatio="xMidYMid meet">
<metadata>
Created by potrace 1.15, written by Peter Selinger 2001-2017
</metadata>
<g transform="translate(0.000000,400.000000) scale(0.100000,-0.100000)"
fill="#000000" stroke="none">
<path d="M36 3303 c-3 -362 -6 -1105 -6 -1651 0 -546 -2 -1120 -5 -1274 -3
-155 -3 -295 1 -311 l6 -30 447 7 c245 4 743 7 1106 8 l660 2 0 625 c-1 761
-8 2484 -13 2933 l-3 327 -32 6 c-61 10 -1417 14 -1417 5 0 -6 4 -10 10 -10 5
0 12 -11 16 -25 3 -14 9 -23 13 -22 3 2 16 -7 28 -20 12 -13 19 -23 15 -23 -4
0 4 -6 18 -13 34 -17 38 -76 11 -147 -18 -47 -19 -55 -6 -74 8 -11 15 -35 15
-54 0 -33 23 -80 47 -95 7 -4 13 -14 13 -21 0 -7 11 -23 24 -35 20 -19 28 -21
46 -11 12 6 23 10 26 8 3 -4 11 -40 13 -60 1 -5 5 -8 9 -8 17 0 -1 60 -24 86
-16 17 -23 32 -19 45 4 13 2 19 -9 19 -9 0 -16 3 -17 8 -4 41 -12 68 -22 74
-18 11 -5 17 18 8 12 -5 27 -28 39 -59 10 -28 24 -51 32 -51 8 0 14 5 14 10 0
6 6 10 14 10 7 0 16 9 19 20 3 11 1 20 -4 20 -5 0 -9 9 -9 20 0 11 -4 20 -10
20 -19 0 -50 40 -50 65 0 14 -8 29 -20 35 -11 6 -20 16 -20 23 0 7 -9 18 -19
24 -47 30 -51 149 -6 201 22 26 27 27 138 30 116 4 257 -12 257 -29 0 -5 6 -9
14 -9 8 0 18 -10 21 -22 4 -13 19 -36 34 -51 21 -23 26 -38 26 -77 l0 -50 37
5 c32 4 40 1 54 -20 32 -49 -2 -132 -49 -121 -10 3 -32 -8 -50 -23 -55 -47
-166 -131 -173 -131 -3 0 -3 8 1 18 26 63 45 156 35 166 -15 15 -31 -6 -98
-125 -49 -87 -122 -189 -92 -131 6 13 13 51 15 85 2 34 6 70 10 79 8 20 -12
61 -25 53 -6 -4 -5 -13 1 -23 8 -13 7 -27 -4 -54 -10 -23 -12 -39 -5 -46 12
-12 -5 -78 -21 -75 -15 4 -14 -12 5 -48 16 -31 13 -59 -6 -59 -5 0 -10 8 -10
18 0 11 -8 26 -17 34 -22 19 -53 20 -46 1 7 -17 -21 -17 -35 0 -5 6 -12 21
-14 32 -2 11 -10 19 -17 17 -7 -1 -10 2 -6 8 4 6 -9 29 -29 50 -20 22 -36 34
-36 28 0 -18 11 -31 40 -51 l24 -17 -31 0 c-18 0 -34 -4 -38 -10 -14 -23 -75
22 -75 57 0 20 4 23 20 18 16 -5 20 -2 19 17 0 13 -4 32 -8 43 -5 12 -3 36 5
58 21 60 8 43 -37 -45 -45 -91 -56 -108 -72 -108 -6 0 -1 10 11 23 28 30 92
169 92 201 0 14 -4 27 -10 31 -11 7 -2 35 12 35 6 0 8 -7 5 -15 -4 -8 -2 -17
2 -20 10 -6 41 78 41 111 0 12 -7 27 -15 34 -13 11 -15 8 -16 -21 -1 -24 -3
-27 -6 -11 -2 12 -10 22 -17 22 -34 0 -130 -121 -171 -216 -23 -52 -55 -155
-55 -175 0 -19 23 -31 45 -23 21 8 108 143 135 209 12 31 24 54 26 52 13 -13
-89 -208 -119 -228 -11 -8 1 -32 12 -25 13 8 75 -18 100 -42 18 -19 29 -22 49
-17 15 4 45 8 67 9 40 1 40 1 37 -32 -4 -35 19 -72 44 -72 22 0 28 -23 9 -37
-27 -19 -55 -16 -83 10 -20 17 -24 18 -19 5 5 -14 1 -18 -19 -18 -25 0 -26 1
-11 24 19 28 13 36 -22 36 -21 0 -23 2 -11 11 11 8 9 9 -10 3 -13 -4 -30 -13
-38 -20 -17 -18 -75 -19 -69 -1 2 6 9 12 15 12 5 0 14 3 18 8 4 4 0 7 -8 7
-23 0 -68 57 -68 86 0 24 -14 32 -25 14 -3 -5 -17 -10 -31 -10 -13 0 -24 -4
-24 -9 0 -13 27 -21 45 -15 8 4 15 2 15 -4 0 -17 -29 -22 -58 -10 -15 6 -37
10 -49 9 -13 -1 -23 3 -23 10 0 9 -3 9 -14 0 -11 -9 -15 -9 -19 1 -4 10 -6 10
-6 1 -1 -18 -28 -16 -35 2 -6 15 21 35 48 35 25 0 19 20 -10 30 -14 6 -28 19
-31 30 -3 11 -9 20 -14 20 -5 0 -9 7 -9 15 0 9 -6 18 -14 21 -8 3 -12 13 -9
25 4 14 0 19 -13 19 -14 0 -15 3 -6 12 16 16 15 28 -3 28 -13 0 -13 3 -3 20
11 17 10 22 -2 31 -11 8 -12 12 -2 16 6 2 12 11 12 18 0 7 -6 16 -12 18 -9 4
-9 8 -3 14 13 11 17 53 5 53 -6 0 -10 5 -10 11 0 6 9 8 20 4 15 -5 18 -3 14 9
-4 11 -1 16 10 16 9 0 16 7 16 16 0 8 4 12 10 9 6 -3 10 1 10 9 0 9 7 16 15
16 8 0 15 5 15 10 0 6 9 10 20 10 11 0 20 5 20 10 0 6 9 10 20 10 11 0 20 4
20 9 0 4 11 6 25 3 16 -3 25 0 25 8 0 9 4 9 13 2 6 -5 31 -9 54 -7 29 2 44 -2
47 -12 12 -30 24 -2 14 32 l-11 34 -357 1 -357 0 -7 -657z m2103 431 c1 -114
4 -211 7 -216 8 -13 -4 -58 -17 -58 -16 0 -123 88 -220 182 -83 80 -122 108
-136 95 -4 -5 34 -162 89 -370 17 -62 9 -60 -114 19 -37 24 -70 44 -73 44 -4
0 -37 18 -74 40 -65 39 -120 55 -93 28 30 -30 -3 -88 -50 -88 -33 0 -31 23 3
51 19 15 31 30 28 34 -4 3 -17 -6 -30 -20 -13 -14 -46 -41 -72 -61 -27 -19
-46 -38 -42 -42 7 -8 14 -8 93 -11 82 -2 66 -23 -33 -45 -47 -10 -99 -19 -115
-20 -32 -1 -39 -20 -20 -56 13 -24 -16 -52 -31 -29 -5 8 -9 9 -9 3 0 -5 5 -15
11 -21 12 -12 4 -33 -11 -33 -5 0 -7 8 -3 18 6 15 3 15 -18 -3 l-24 -20 18 21
c14 17 17 31 11 59 -5 30 -2 40 17 61 12 13 17 24 11 24 -7 0 -22 -16 -34 -35
-26 -39 -39 -45 -31 -15 3 12 -1 22 -10 26 -17 6 -9 32 27 89 64 100 84 133
96 163 15 39 36 56 26 21 -35 -121 -42 -161 -30 -166 7 -2 56 30 111 73 54 42
103 78 109 81 12 5 83 -27 194 -87 72 -39 100 -48 100 -32 0 4 -12 50 -26 102
-46 172 -75 292 -70 297 10 10 138 -76 261 -177 84 -68 111 -84 120 -70 6 10
3 102 -11 278 l-6 72 35 0 35 0 1 -206z m-554 -499 l-23 -20 23 -17 c31 -23
51 -23 82 2 24 19 49 19 38 -1 -4 -5 5 -4 20 3 19 8 28 9 37 0 8 -8 7 -13 -5
-18 -9 -3 -17 -12 -17 -20 0 -10 -12 -14 -38 -14 -36 0 -62 -14 -62 -32 0 -4
9 -8 20 -8 24 0 26 -15 4 -24 -13 -5 -14 -9 -4 -21 13 -16 9 -18 -29 -15 -14
1 -21 -2 -17 -9 4 -6 14 -11 22 -11 8 0 14 -5 14 -11 0 -6 -14 -9 -32 -7 -29
3 -33 7 -33 30 1 29 -31 50 -44 29 -4 -5 -17 -8 -29 -4 -17 4 -21 10 -16 22 3
9 7 21 7 28 0 6 6 9 14 6 7 -3 13 0 13 7 0 8 -9 10 -27 6 -26 -6 -26 -5 -8 6
11 7 21 21 22 32 0 10 -2 14 -6 10 -3 -5 -17 -22 -31 -38 -14 -16 -20 -27 -15
-23 6 3 17 2 25 -4 12 -7 10 -9 -7 -9 -13 0 -23 -5 -23 -11 0 -5 -4 -7 -10 -4
-5 3 -10 24 -10 46 0 36 3 40 22 37 17 -2 23 4 30 30 6 24 13 32 24 28 8 -3
14 1 14 9 0 8 11 22 25 31 13 9 28 26 32 37 6 19 8 16 14 -18 7 -35 5 -43 -16
-60z m-163 -59 c-3 -85 2 -100 40 -107 16 -4 16 -6 -1 -28 -15 -20 -20 -22
-38 -10 -15 9 -21 23 -21 57 -1 25 -7 49 -13 53 -7 4 -8 12 -3 20 6 11 5 12
-8 2 -8 -7 -17 -10 -21 -7 -3 3 -3 -5 0 -18 4 -18 3 -20 -6 -8 -6 8 -8 32 -4
54 5 30 3 38 -8 34 -24 -8 -9 -118 17 -118 8 0 14 -6 14 -13 0 -7 9 -30 20
-52 11 -22 20 -49 20 -60 0 -12 3 -25 8 -29 4 -4 8 -17 8 -29 6 -85 15 -314
19 -484 l5 -203 -25 12 c-16 7 -25 19 -25 34 0 13 -11 48 -25 78 -14 30 -25
61 -25 68 0 8 -5 19 -11 25 -8 8 -13 70 -16 170 -2 87 -8 259 -13 382 -8 206
-7 226 8 238 27 21 47 11 53 -27 l6 -35 12 29 c6 16 9 43 5 60 -6 30 -5 30 12
13 16 -15 18 -31 16 -101z m-1167 44 c8 -25 40 -26 49 -3 5 12 9 14 14 6 4 -6
20 -13 37 -15 24 -2 30 -9 36 -35 4 -20 2 -39 -6 -50 -7 -9 -11 -23 -8 -30 3
-7 0 -13 -6 -13 -6 0 -11 -4 -11 -10 0 -5 7 -10 15 -10 8 0 15 -4 15 -10 0
-15 31 -12 49 4 23 19 76 27 90 13 6 -6 11 -21 11 -33 0 -12 8 -24 18 -28 70
-25 72 -25 72 -2 0 50 52 85 79 52 16 -19 18 -139 2 -144 -6 -2 -11 -10 -11
-18 0 -19 36 -18 44 1 3 8 12 15 21 15 9 0 18 -7 21 -15 4 -8 12 -15 19 -15
22 0 25 -26 18 -155 -5 -95 -9 -125 -20 -125 -7 0 -23 -10 -36 -22 -22 -23
-22 -23 -25 -3 -2 12 -12 27 -24 34 -18 11 -23 10 -42 -14 -16 -20 -28 -26
-43 -21 -18 6 -21 1 -26 -50 -4 -41 -2 -65 9 -86 13 -25 13 -32 -4 -67 -11
-21 -18 -53 -16 -72 l3 -34 -10 35 c-5 19 -14 52 -18 73 -5 21 -18 48 -30 61
-26 28 -26 38 -2 53 10 7 27 35 36 63 12 35 21 50 31 46 15 -6 29 10 15 18 -5
3 -20 -4 -35 -15 -42 -33 -90 -3 -86 54 3 38 0 47 -15 47 -9 0 -20 -11 -25
-25 -5 -14 -13 -25 -17 -26 -5 0 -24 -2 -43 -4 -47 -4 -70 17 -70 67 0 42 -12
48 -47 23 -15 -10 -21 -26 -21 -55 -1 -72 -15 -90 -75 -95 -11 -1 -23 -8 -27
-15 -7 -12 -13 -12 -37 0 -15 8 -31 16 -35 18 -5 2 -8 -4 -8 -13 0 -9 -6 -15
-12 -13 -10 4 -14 47 -16 162 -2 157 -2 157 19 151 18 -6 20 -4 15 13 -5 13
-1 22 10 26 19 7 44 -10 44 -31 0 -10 6 -13 16 -9 9 4 22 2 29 -4 10 -8 18 -4
34 16 25 31 24 57 -1 62 -10 2 -38 23 -63 47 -35 35 -45 51 -45 77 0 65 19
107 62 138 48 35 74 38 83 10z m625 12 c0 -4 -5 -13 -11 -19 -19 -19 -2 -30
61 -36 43 -5 69 -3 88 7 15 7 46 16 69 19 38 4 42 3 53 -23 22 -54 100 -57
120 -5 12 31 20 32 20 3 0 -13 2 -59 5 -103 4 -44 9 -198 13 -343 6 -207 4
-262 -5 -262 -15 0 -17 -16 -3 -25 22 -14 9 -57 -26 -91 -32 -29 -36 -38 -30
-66 8 -40 43 -78 71 -78 11 0 26 -5 32 -11 11 -11 51 3 65 24 4 7 12 6 22 -2
22 -18 20 -40 -2 -34 -10 2 -29 -4 -42 -15 -42 -34 -32 -182 14 -214 7 -5 3
-8 -7 -8 -13 0 -5 -11 27 -37 24 -21 43 -44 41 -51 -3 -7 0 -25 6 -40 6 -15
17 -121 25 -237 12 -186 20 -270 40 -395 3 -19 10 -39 15 -44 17 -18 9 -26
-18 -20 -16 4 -33 14 -39 22 -6 8 -28 17 -49 21 -33 5 -43 13 -62 49 -1 2 -15
1 -31 -3 -24 -5 -34 -16 -51 -56 -25 -58 -44 -62 -88 -20 -23 22 -29 35 -26
55 5 23 2 26 -25 26 -21 0 -32 -6 -35 -17 -5 -23 -27 27 -34 80 -10 70 -48 29
-57 -62 -7 -75 -20 -95 -55 -88 -21 4 -32 -3 -59 -34 -38 -44 -52 -43 -52 4 0
18 -7 45 -15 61 -8 15 -15 42 -15 58 0 36 -24 34 -28 -3 -6 -54 -14 -70 -38
-79 -14 -6 -28 -19 -31 -30 -4 -16 -7 -17 -19 -5 -19 18 -18 31 4 47 10 7 27
29 38 49 22 38 28 98 39 394 3 83 10 224 16 315 5 91 9 212 10 270 0 58 5 141
10 185 6 44 12 219 13 390 5 508 4 485 21 485 8 0 15 -4 15 -8z m1041 -457
c26 -17 39 -35 48 -66 19 -68 35 -100 46 -94 5 3 18 8 28 11 9 4 17 13 17 20
0 8 7 17 15 20 8 4 15 15 15 25 0 47 52 68 81 33 6 -8 20 -14 30 -14 18 0 19
-16 19 -444 0 -392 -2 -445 -16 -457 -13 -10 -17 -10 -25 2 -5 8 -9 17 -9 22
0 11 -30 8 -30 -3 0 -5 -15 -10 -34 -10 -25 0 -39 7 -50 22 -21 29 -21 87 -1
94 26 10 5 24 -36 24 -22 0 -46 6 -53 13 -38 38 -48 106 -20 146 14 19 23 22
51 18 53 -9 96 2 88 22 -5 11 10 31 50 66 47 42 57 57 62 93 5 35 3 42 -11 42
-12 0 -17 -7 -16 -22 6 -67 -27 -108 -86 -108 -31 0 -44 8 -84 49 -30 31 -51
46 -59 41 -10 -6 -10 -11 -1 -27 11 -16 9 -27 -12 -64 -15 -27 -32 -44 -44
-45 -39 -2 -44 -4 -44 -20 0 -11 -5 -14 -17 -9 -49 20 -54 19 -47 -9 7 -31
-11 -36 -21 -6 -11 36 -50 53 -103 47 l-47 -6 -19 45 c-23 56 -44 55 -63 -3
-12 -35 -17 -40 -28 -30 -14 15 -34 207 -24 228 4 8 12 27 18 43 8 20 15 25
24 18 25 -20 80 19 58 41 -6 6 -11 21 -11 33 0 26 32 63 38 45 5 -14 32 -15
32 -1 0 22 37 8 63 -25 16 -20 32 -33 38 -30 12 8 12 65 -1 65 -5 0 -14 9 -20
21 -9 17 -8 23 6 33 9 7 14 18 10 24 -3 6 0 14 7 19 8 4 20 19 27 33 13 25 40
49 70 62 20 8 47 0 91 -27z m-1528 -382 c24 -75 37 -98 59 -104 12 -3 30 -1
39 4 9 6 25 7 35 3 15 -6 16 -9 5 -16 -9 -5 -15 -29 -17 -62 -1 -29 -3 -55 -3
-57 -1 -2 -17 12 -36 32 -26 26 -45 37 -72 39 -28 2 -37 7 -34 18 3 8 3 48 2
88 -2 67 9 96 22 55z m259 -1 c-20 -6 -14 -21 7 -15 24 6 35 -11 21 -36 -7
-13 -7 -22 0 -26 17 -11 89 -122 83 -129 -3 -3 -15 -3 -27 0 -12 3 -30 -2 -41
-11 -20 -16 -19 -16 5 -10 21 5 22 4 7 -5 -9 -6 -21 -9 -26 -6 -5 3 -17 -6
-26 -20 -17 -26 -17 -27 6 -22 13 3 33 9 43 13 13 6 17 5 13 -2 -8 -13 -77
-46 -94 -46 -8 0 -13 -13 -13 -31 0 -45 -11 -80 -20 -66 -4 7 -3 30 2 52 5 22
6 43 3 46 -3 3 -5 -2 -5 -11 0 -10 -5 -17 -11 -17 -5 0 -9 3 -7 8 23 46 33 62
42 62 6 0 5 -5 -2 -12 -7 -7 -12 -17 -12 -23 1 -18 40 36 40 56 0 10 8 22 17
28 10 5 15 13 11 17 -4 4 -19 -4 -33 -18 -14 -14 -37 -25 -51 -25 -17 0 -22 2
-13 8 9 5 6 11 -14 20 -23 10 -27 19 -27 51 0 36 2 38 30 38 21 0 38 -9 57
-30 35 -40 50 -38 25 3 -30 49 -35 83 -14 93 9 4 21 8 26 8 13 1 20 26 7 26
-5 0 -13 -4 -16 -10 -13 -21 -25 -9 -19 18 9 38 14 43 27 35 8 -5 8 -8 -1 -11z
m118 -268 c0 -29 -34 -119 -63 -169 -17 -29 -33 -74 -37 -108 -5 -33 -11 -61
-14 -64 -3 -4 -21 5 -64 33 -2 1 2 21 9 45 9 30 10 44 2 46 -7 3 -6 16 3 44 8
22 16 55 17 72 1 18 7 32 12 32 6 1 20 6 33 13 12 7 28 10 34 6 7 -4 8 -3 4 4
-4 7 3 17 18 24 14 6 26 17 26 25 0 7 5 13 10 13 6 0 10 -7 10 -16z m660 -24
c5 0 12 5 15 10 12 19 50 11 60 -12 6 -13 28 -32 50 -43 30 -15 35 -20 21 -23
-10 -2 -32 6 -48 18 -16 12 -32 19 -35 16 -11 -10 17 -33 56 -46 25 -8 38 -17
34 -26 -3 -8 6 -16 24 -20 15 -4 40 -13 54 -20 36 -18 109 -34 109 -24 0 5
-13 11 -29 15 -16 3 -32 13 -35 21 -3 8 -18 14 -33 14 -15 1 -39 7 -53 15
l-25 14 36 1 c24 0 51 -10 80 -30 24 -16 46 -25 47 -20 6 16 22 1 22 -20 0
-10 14 -28 30 -40 40 -28 38 -43 -2 -23 -62 31 -68 33 -92 33 -14 0 -28 5 -31
10 -3 6 -19 10 -34 10 -35 0 -93 23 -111 44 -7 9 -17 16 -22 16 -6 0 -26 14
-45 30 -35 31 -53 38 -53 20 0 -14 71 -80 98 -91 24 -9 30 -29 9 -29 -7 0 -29
11 -50 25 -20 14 -42 23 -49 19 -7 -5 -9 1 -4 19 5 20 2 27 -13 32 -29 9 -36
58 -14 91 14 22 19 25 21 11 2 -9 7 -17 12 -17z m357 -232 c30 -8 83 -67 83
-91 0 -5 18 -29 39 -54 22 -24 43 -58 46 -74 4 -16 16 -35 27 -43 11 -8 17
-19 14 -24 -3 -6 -3 -17 0 -25 4 -13 11 -13 36 -5 21 8 27 13 19 21 -9 9 -17
8 -32 -2 -18 -10 -20 -10 -17 1 5 16 57 23 70 10 5 -5 0 -19 -13 -36 -17 -22
-19 -33 -12 -63 5 -20 14 -38 20 -40 9 -3 9 5 1 31 -14 44 -4 74 18 55 13 -11
14 -9 8 16 -5 20 -4 26 5 21 6 -4 11 -14 11 -23 0 -8 7 -28 17 -43 15 -27 15
-32 -10 -109 -33 -99 -33 -102 -1 -140 24 -29 21 -44 -4 -19 -15 15 -15 3 0
-25 10 -20 10 -21 -6 -7 -31 25 -47 21 -41 -8 6 -26 5 -26 -8 3 -10 21 -11 36
-4 50 10 19 9 19 -10 3 -31 -28 -34 -21 -12 22 28 54 37 151 15 169 -9 7 -16
24 -16 36 0 29 -50 81 -61 63 -13 -21 -21 -1 -9 22 15 27 5 57 -13 42 -10 -8
-12 -2 -9 26 3 31 -2 43 -32 76 -20 21 -45 52 -55 70 -24 38 -66 78 -106 100
-16 10 -21 14 -10 11 11 -4 35 -11 52 -17z m-180 -17 c55 -8 87 -26 79 -47 -3
-7 8 -14 30 -18 22 -5 40 -16 51 -34 9 -15 25 -40 36 -56 22 -32 40 -106 26
-106 -5 0 -9 -7 -9 -16 0 -14 -3 -14 -15 -4 -13 11 -15 8 -16 -16 -2 -26 -2
-27 -6 -5 -3 14 -12 35 -21 49 -13 19 -13 25 -2 32 11 7 11 14 0 42 -7 18 -20
41 -28 50 -8 9 -11 22 -7 27 3 6 -1 11 -10 11 -9 0 -42 12 -73 27 -38 18 -57
23 -60 14 -2 -6 -17 5 -33 25 -34 43 -35 49 -11 39 9 -4 40 -10 69 -14z m148
-293 c4 -18 9 -40 11 -49 2 -8 10 -29 19 -45 8 -16 15 -36 14 -44 0 -8 -4 -5
-9 8 -8 20 -13 21 -31 12 -16 -9 -24 -8 -38 4 -20 18 -66 21 -76 6 -4 -6 7 -8
27 -4 23 4 29 3 19 -4 -17 -12 1 -24 24 -16 15 6 16 1 10 -42 -4 -27 -12 -54
-17 -61 -9 -11 -9 -106 0 -130 2 -7 13 -13 23 -13 10 0 19 -2 19 -4 0 -2 3
-13 7 -23 6 -16 5 -16 -10 -4 -19 15 -22 8 -6 -20 6 -11 8 -25 6 -32 -3 -7
-10 -1 -16 13 -11 24 -11 23 -6 -8 3 -20 1 -31 -5 -27 -6 3 -10 15 -10 25 0
31 -18 33 -23 3 -4 -26 -4 -26 -6 5 -1 32 -15 43 -24 20 -2 -7 -7 -10 -11 -6
-4 3 -2 15 5 26 10 16 9 30 -4 73 -24 77 -32 164 -17 174 9 5 10 2 5 -14 -5
-17 -2 -21 14 -21 11 0 24 -8 30 -17 13 -23 26 -9 35 36 l6 35 -25 -24 c-14
-13 -28 -20 -32 -16 -4 4 0 12 10 17 26 15 11 30 -24 24 -26 -5 -29 -2 -29 20
0 15 9 31 25 41 14 9 25 23 25 31 0 8 14 28 30 45 17 16 30 34 30 39 0 22 18
-2 25 -33z m155 13 c0 -11 -5 -23 -10 -26 -6 -3 -7 -17 -4 -31 5 -17 2 -24 -9
-24 -8 0 -17 5 -19 10 -2 6 -11 1 -21 -11 -18 -20 -18 -21 2 -14 28 9 27 -13
-1 -24 -15 -5 -18 -10 -9 -15 7 -5 20 -1 30 8 16 15 19 15 31 1 16 -19 31 -20
24 -1 -3 8 -1 17 5 20 5 4 9 -2 9 -11 -1 -10 2 -28 6 -40 5 -14 3 -23 -3 -23
-6 0 -11 5 -11 12 0 6 -6 4 -13 -7 -8 -10 -19 -15 -25 -11 -7 4 -12 1 -12 -10
0 -12 6 -15 25 -12 34 7 32 -8 -2 -20 -25 -9 -26 -10 -5 -11 12 -1 22 -6 22
-13 0 -13 14 -2 16 13 1 5 2 12 3 16 0 3 9 -4 20 -16 11 -13 25 -19 35 -15 9
3 16 2 16 -3 0 -15 -48 -33 -67 -26 -11 5 -14 3 -8 -6 5 -10 2 -11 -13 -7 -19
6 -27 -10 -34 -73 -2 -17 -24 11 -43 53 -12 28 -13 28 -19 8 -4 -12 -12 -22
-18 -22 -6 0 -6 6 2 15 16 19 6 19 -25 -1 -19 -13 -28 -13 -46 -3 l-23 12 22
8 c12 5 30 21 39 37 11 17 24 27 33 24 12 -3 11 0 -2 14 -17 17 -18 17 -36 -2
-11 -11 -22 -26 -25 -34 -3 -9 -6 -3 -6 12 -1 17 7 33 21 42 12 9 18 16 12 16
-5 0 -16 -6 -23 -12 -11 -11 -13 -10 -7 5 3 10 6 25 6 33 0 8 5 14 11 14 6 0
8 -7 5 -16 -4 -12 -2 -15 9 -10 8 3 15 0 15 -7 1 -7 8 3 16 22 8 19 12 41 9
48 -2 8 -1 21 5 31 5 9 11 29 14 44 4 16 18 33 34 41 37 20 42 20 42 -2z
m-1594 -193 c4 -6 -2 -19 -14 -29 -12 -9 -22 -22 -22 -27 0 -6 -14 -25 -31
-42 -24 -23 -34 -28 -40 -18 -4 7 -10 10 -12 8 -29 -37 -47 -74 -47 -97 0 -22
-2 -25 -10 -13 -8 13 -10 13 -10 -2 0 -9 -5 -20 -10 -23 -7 -4 -9 3 -5 22 5
25 4 26 -7 10 -7 -10 -19 -26 -26 -35 -12 -15 -13 -14 -7 8 14 57 14 90 -2 90
-13 0 -13 3 -3 15 9 11 17 12 32 4 11 -6 21 -9 21 -7 1 2 11 14 22 27 18 22
18 24 2 18 -15 -6 -16 -4 -8 11 5 9 18 17 28 17 10 0 24 12 31 27 17 37 102
63 118 36z m1155 -253 c14 -14 33 -18 106 -24 20 -2 40 -53 34 -86 -5 -24 -13
-32 -46 -41 -22 -6 -39 -16 -38 -20 1 -5 -34 -9 -78 -9 -43 0 -79 3 -79 7 0 5
13 8 29 8 35 0 61 9 61 21 0 17 -95 36 -162 31 -77 -5 -121 5 -78 18 14 5 44
8 68 9 73 2 107 27 105 79 -1 8 6 10 17 7 10 -3 21 -1 25 5 8 14 15 13 36 -5z
m-683 -243 c1 -130 4 -289 5 -352 l2 -115 -46 -22 c-54 -27 -73 -29 -65 -8 3
8 8 45 12 81 4 41 10 61 15 52 11 -17 11 -12 9 97 -2 116 13 102 20 -17 4 -65
9 -93 19 -96 11 -4 12 15 5 114 -17 224 -9 504 14 504 4 0 8 -107 10 -238z
m56 126 c5 -10 12 -18 16 -18 4 0 10 -35 14 -77 3 -43 9 -95 12 -116 6 -33 4
-39 -15 -44 -18 -4 -21 -11 -17 -37 5 -28 8 -75 21 -278 l5 -68 -28 0 -27 0 3
155 c1 85 -1 215 -6 288 -10 146 -3 355 8 262 4 -27 10 -58 14 -67z m148 81
c-32 -30 -35 -49 -6 -49 11 0 13 -9 9 -37 -11 -88 -14 -319 -6 -463 8 -140 4
-186 -15 -167 -8 8 -34 237 -34 305 0 39 -4 52 -12 49 -15 -4 -16 -121 -3
-264 5 -61 5 -93 -2 -93 -6 0 -13 42 -17 93 -3 50 -9 132 -12 180 -6 78 -5 89
11 101 18 13 18 20 6 124 -11 97 -11 114 3 141 20 37 20 45 1 37 -8 -3 -15 -2
-15 2 0 14 54 60 75 65 45 11 49 6 17 -24z m61 -341 c-2 -205 -3 -375 -3 -378
0 -3 -6 4 -12 14 -13 24 -32 362 -21 396 4 14 8 70 9 125 1 55 3 111 5 125 2
15 -1 25 -8 26 -7 1 -16 2 -20 3 -5 1 46 61 51 61 1 0 0 -168 -1 -372z m-513
238 c16 -30 30 -44 40 -41 9 2 24 -10 38 -32 26 -41 20 -60 -8 -23 -19 25 -19
25 -34 5 -15 -20 -23 -115 -9 -115 4 0 24 18 45 41 26 28 38 50 38 70 0 17 9
39 20 51 l20 22 0 -22 c0 -12 -4 -22 -8 -22 -4 0 -13 -28 -19 -62 -21 -118
-35 -173 -45 -183 -6 -7 -9 0 -8 20 4 60 1 75 -15 69 -8 -4 -22 -30 -31 -60
-8 -30 -20 -54 -26 -54 -14 0 -3 191 12 220 6 12 10 26 8 32 -8 23 -38 -62
-38 -105 0 -52 -7 -77 -22 -77 -23 0 -37 -37 -38 -97 0 -55 -3 -65 -27 -88
-15 -14 -33 -25 -38 -25 -17 0 -35 22 -35 42 0 23 -48 37 -61 17 -5 -8 -9 -23
-9 -34 -1 -36 -24 -55 -67 -55 -53 0 -75 18 -79 66 -3 45 16 81 46 86 30 5 29
23 -2 26 -20 2 -32 -5 -53 -32 -24 -31 -26 -42 -21 -81 7 -42 6 -45 -18 -51
-49 -12 -56 -1 -56 81 0 41 4 75 9 75 5 0 9 14 9 32 -2 56 63 88 104 51 10 -9
20 -14 22 -12 15 15 1 79 -18 79 -14 0 -56 82 -56 111 0 30 25 72 61 102 28
23 39 26 73 21 26 -4 53 -18 73 -37 27 -26 35 -28 48 -17 9 7 14 19 11 26 -6
16 23 41 54 46 45 7 83 -16 110 -66z m743 -3 c19 -11 3 -19 -30 -15 l-38 5 27
-28 28 -27 2 -212 c3 -195 4 -211 21 -214 18 -4 18 7 15 192 -2 154 0 196 10
196 17 0 11 -422 -7 -428 -6 -2 -11 -18 -11 -36 0 -32 -1 -33 -45 -33 -33 0
-46 5 -50 17 -3 10 -5 138 -3 286 1 201 -1 275 -11 292 -12 23 -12 23 36 16
26 -3 51 -8 56 -11z m332 -48 c-30 -25 -30 -26 -31 -127 0 -57 3 -110 8 -120
11 -23 38 -209 38 -263 0 -61 -25 -59 -59 6 -17 35 -12 463 6 494 7 11 13 16
13 12 0 -5 10 -1 22 7 35 25 36 18 3 -9z m-212 -218 c-2 -116 -7 -216 -13
-226 -12 -24 -2 -83 14 -78 7 2 13 43 16 103 5 98 5 98 12 39 4 -33 6 -78 4
-100 -2 -22 -4 -48 -5 -57 -1 -13 -10 -18 -34 -18 l-34 0 -1 266 c-1 146 1
270 4 276 3 5 13 8 22 6 15 -3 17 -25 15 -211z m79 176 c1 -21 3 -72 5 -113 2
-41 2 -120 1 -175 -2 -55 -3 -128 -3 -163 0 -48 -3 -62 -15 -62 -13 0 -15 30
-17 203 -1 111 -2 219 -2 240 -1 23 -5 36 -11 32 -6 -4 -10 10 -10 34 0 37 2
41 25 41 22 0 25 -5 27 -37z m198 -100 c30 -15 38 -35 39 -90 1 -35 5 -43 19
-43 19 0 37 -17 60 -57 14 -26 15 -33 4 -33 -5 0 -16 18 -26 40 -10 22 -22 40
-27 40 -5 0 -2 -11 6 -24 9 -13 14 -30 13 -37 -2 -7 7 -18 20 -24 12 -5 22
-18 22 -28 0 -14 5 -17 19 -12 22 7 32 -14 27 -55 -5 -37 -5 -37 -19 -11 -14
27 -43 49 -53 39 -3 -4 8 -30 25 -58 41 -66 39 -73 -4 -19 -22 27 -35 55 -35
74 -1 39 -31 100 -50 100 -17 0 -41 35 -33 48 3 5 9 3 14 -4 4 -7 10 -11 13
-8 9 8 -12 131 -24 143 -9 8 -10 0 -5 -34 9 -56 0 -49 -25 21 -12 31 -19 75
-18 104 l1 50 6 -55 c5 -45 10 -57 31 -67z m-982 -48 c-2 -27 -8 -40 -18 -40
-13 0 -14 -22 -11 -146 3 -130 1 -149 -15 -168 -41 -47 -50 -12 -24 89 5 19
11 49 13 65 2 17 8 38 12 48 10 23 -11 22 -24 -2 -6 -10 -12 -33 -14 -52 -2
-19 -9 -52 -15 -74 -6 -22 -14 -52 -17 -67 -5 -24 -10 -28 -40 -28 -34 0 -34
1 -23 28 15 34 26 47 41 47 8 0 12 17 12 48 0 26 -3 47 -7 47 -4 0 -8 -5 -8
-12 0 -9 -3 -9 -12 0 -10 10 -10 15 1 22 8 4 15 27 17 52 1 23 7 54 12 68 l11
25 0 -26 c1 -14 7 -34 15 -45 14 -18 15 -18 26 11 7 17 21 68 33 114 17 72 22
81 29 61 5 -14 8 -42 6 -65z m-186 -70 c2 -19 0 -35 -4 -35 -5 0 -6 -10 -4
-22 17 -83 16 -108 -4 -125 -11 -10 -20 -23 -20 -29 0 -26 -34 -75 -61 -90
-26 -13 -30 -13 -35 1 -4 9 2 25 14 38 11 12 23 41 27 64 4 28 13 44 25 48 15
5 20 20 25 83 3 42 8 83 10 90 8 24 23 11 27 -23z m1706 -452 l-3 -148 -1080
-7 c-830 -5 -1081 -4 -1087 5 -14 21 -10 257 5 262 15 4 508 13 1262 21 314 4
572 8 574 10 2 2 78 4 168 4 l164 0 -3 -147z"/>
<path d="M1061 3158 c-5 -13 -27 -40 -50 -60 l-41 -37 0 -78 c0 -112 9 -155
29 -148 9 3 47 6 84 7 l67 2 0 37 c0 31 4 38 25 43 25 6 85 83 85 110 0 21
-19 20 -41 0 -23 -21 -53 -11 -44 15 3 10 3 26 -1 35 -7 18 -39 22 -49 6 -10
-15 -28 -12 -22 4 8 19 -11 86 -24 86 -5 0 -13 -10 -18 -22z"/>
<path d="M1180 2829 c0 -17 -4 -38 -9 -48 -7 -12 -5 -26 5 -46 13 -26 13 -29
-6 -42 -11 -8 -20 -23 -20 -34 0 -10 -4 -19 -9 -19 -5 0 -11 -11 -13 -25 -3
-14 -1 -25 3 -25 5 0 9 7 9 15 0 8 5 15 10 15 15 0 12 -31 -4 -44 -12 -9 -13
-25 -6 -87 5 -43 7 -91 5 -109 -4 -28 -2 -31 18 -28 17 2 22 10 23 33 2 47 5
52 14 28 5 -13 14 -23 19 -23 6 0 8 7 5 15 -4 8 -2 15 4 15 17 0 23 -31 8 -46
-8 -8 -18 -14 -22 -14 -4 0 -20 -14 -35 -31 -30 -34 -30 -41 13 -101 12 -17
15 -28 8 -28 -7 0 -14 9 -17 20 -6 21 -18 26 -28 11 -3 -5 -1 -12 5 -16 17
-10 11 -33 -10 -40 -24 -8 -27 -47 -4 -69 15 -15 50 -21 103 -18 36 2 51 -15
44 -49 -4 -19 0 -36 9 -47 26 -30 31 -63 40 -272 20 -498 19 -495 41 -487 7 2
11 21 10 48 l-2 44 15 -33 c18 -41 37 -34 22 8 -5 17 -7 41 -4 54 3 13 3 52
-1 86 -5 48 -10 64 -24 67 -25 7 -28 31 -31 253 -2 191 -3 195 -26 218 -20 19
-23 30 -19 57 5 29 2 37 -21 54 -30 21 -62 29 -77 19 -6 -3 -23 -4 -38 -1 -23
5 -28 10 -25 32 3 24 8 27 71 35 49 6 72 5 80 -3 9 -9 8 -14 -3 -21 -11 -7
-12 -13 -2 -34 17 -37 29 -32 34 15 4 47 -2 54 -67 71 -37 10 -55 22 -77 52
-32 45 -35 58 -10 54 11 -2 18 4 20 19 2 13 14 25 33 32 32 11 37 32 14 51
-20 17 -19 37 4 49 13 8 17 18 13 38 -3 15 -8 30 -11 33 -13 11 -29 48 -24 54
10 10 35 7 28 -4 -3 -5 -1 -10 4 -10 6 0 11 12 11 26 0 16 -4 23 -11 18 -9 -5
-10 3 -5 29 5 29 2 44 -19 76 -14 23 -25 47 -25 55 0 8 -4 18 -10 21 -5 3 -10
0 -10 -8 0 -27 21 -75 36 -81 35 -13 2 -126 -37 -126 -8 0 -4 9 8 23 18 18 20
29 14 62 -4 22 -13 50 -19 62 -7 12 -11 46 -8 78 2 30 0 55 -5 55 -5 0 -9 -14
-9 -31z"/>
<path d="M891 2755 c-25 -61 -22 -106 10 -128 10 -8 16 -16 13 -20 -10 -9 -34
4 -34 19 0 8 -4 14 -10 14 -17 0 -11 -38 10 -57 16 -16 20 -35 22 -118 l3
-100 49 -6 c71 -8 90 13 82 90 -3 31 -5 82 -6 115 0 57 0 58 -25 52 -21 -5
-27 -2 -35 19 -6 15 -6 33 -1 43 5 9 14 29 21 44 7 15 17 25 22 22 15 -9 8
-34 -15 -58 -13 -13 -21 -28 -19 -34 5 -16 22 -15 22 0 0 6 7 20 16 29 21 23
21 66 2 86 -13 13 -18 10 -38 -24 l-24 -38 -14 53 c-8 28 -18 52 -22 52 -3 0
-17 -25 -29 -55z"/>
<path d="M1835 298 c-2 -7 -5 -46 -7 -86 -3 -68 -2 -72 19 -72 19 0 21 4 16
35 -4 26 -2 35 8 35 8 0 29 -16 48 -35 20 -22 42 -35 57 -35 14 0 22 4 19 10
-3 6 -12 10 -19 10 -7 0 -23 11 -36 25 -23 25 -23 26 -7 54 23 39 21 57 -5 65
-39 10 -88 7 -93 -6z"/>
<path d="M1365 290 c-3 -5 0 -10 7 -10 14 -1 68 -113 68 -141 0 -12 7 -14 30
-11 28 4 30 6 15 21 -20 23 -19 44 4 82 l19 32 21 -41 c25 -49 26 -56 5 -76
-14 -15 -12 -16 17 -16 24 0 30 3 22 11 -8 8 -4 28 14 72 14 34 29 64 34 65
19 7 8 22 -17 22 -14 0 -23 -4 -19 -10 7 -11 -4 -60 -14 -60 -3 0 -16 16 -29
36 -13 19 -28 34 -35 31 -7 -2 -21 -21 -31 -43 l-19 -39 -12 30 c-7 16 -11 35
-8 42 6 16 -62 19 -72 3z"/>
<path d="M600 280 c-14 -4 -19 -8 -12 -9 6 -1 12 -13 12 -27 0 -23 -3 -25 -42
-22 -38 3 -43 6 -43 27 0 17 -7 25 -23 28 -22 3 -23 1 -20 -80 3 -81 3 -82 29
-83 25 -1 26 1 21 43 l-5 43 36 0 c40 0 63 -26 52 -60 -5 -15 -2 -20 14 -20
19 0 20 6 18 85 -1 47 -4 85 -7 84 -3 -1 -16 -5 -30 -9z"/>
<path d="M1212 270 c-33 -31 -31 -102 3 -124 59 -39 135 -1 135 67 0 69 -86
105 -138 57z"/>
<path d="M983 3868 c-4 -8 4 -11 18 -10 4 1 15 -8 25 -19 21 -23 12 -47 -24
-64 -41 -19 -22 -25 81 -27 56 0 135 -2 175 -4 39 -1 72 2 72 7 0 5 -7 9 -15
9 -11 0 -15 12 -15 45 0 33 4 45 15 45 8 0 15 4 15 10 0 11 -340 19 -347 8z"/>
<path d="M514 3766 c-31 -14 -44 -33 -44 -64 0 -27 61 -119 87 -131 22 -10 23
-9 13 9 -6 11 -16 20 -22 20 -7 0 -3 7 8 16 13 11 15 17 7 20 -13 6 -83 71
-83 77 0 6 90 0 97 -7 15 -15 31 -5 25 17 -5 21 -4 21 14 6 26 -23 41 -14 36
21 -4 29 -6 30 -56 30 -28 -1 -65 -7 -82 -14z"/>
</g>
</svg>
