<?xml version="1.0" standalone="no"?>
<!DOCTYPE svg PUBLIC "-//W3C//DTD SVG 20010904//EN"
 "http://www.w3.org/TR/2001/REC-SVG-20010904/DTD/svg10.dtd">
<svg version="1.0" xmlns="http://www.w3.org/2000/svg"
 width="233.000000pt" height="400.000000pt" viewBox="0 0 233.000000 400.000000"
 preserveAspectRatio="xMidYMid meet">
<metadata>
Created by potrace 1.15, written by Peter Selinger 2001-2017
</metadata>
<g transform="translate(0.000000,400.000000) scale(0.100000,-0.100000)"
fill="#000000" stroke="none">
<path d="M1390 3960 c-278 -4 -695 -11 -927 -15 l-423 -8 -1 -91 c0 -50 -2
-158 -4 -241 -1 -82 2 -418 7 -745 6 -327 11 -1096 12 -1709 l1 -1114 695 0
c382 -1 876 1 1098 2 l402 3 0 22 c3 106 -2 2115 -6 2511 -3 281 -5 709 -5
953 l0 442 -172 -2 c-95 -1 -399 -5 -677 -8z m824 -64 c3 -28 4 -51 3 -52 -9
-10 -127 -10 -130 -1 -6 19 -37 -2 -54 -38 l-17 -35 -75 -1 c-42 -1 -89 -2
-106 -4 -42 -2 -65 15 -65 47 0 16 -5 28 -13 28 -22 0 -57 -31 -57 -51 0 -10
-5 -19 -10 -19 -6 0 -10 8 -8 17 5 32 -31 27 -50 -7 l-17 -31 -189 5 c-103 3
-193 10 -200 15 -13 11 -134 5 -169 -8 -12 -5 -71 -7 -132 -5 -60 2 -181 5
-268 8 -98 2 -163 8 -170 15 -6 6 -32 11 -59 11 -29 0 -50 5 -55 14 -4 7 -18
18 -29 24 -25 13 -41 0 -53 -44 -9 -36 -24 -40 -36 -12 -6 15 -20 24 -38 26
-22 3 -32 12 -43 38 -15 35 -54 49 -54 19 0 -8 -7 -15 -15 -15 -8 0 -15 5 -15
11 0 6 -7 9 -15 5 -11 -4 -15 2 -15 28 l0 33 357 7 c197 4 488 8 647 11 159 2
290 6 292 7 1 2 194 3 427 3 l425 0 6 -49z m-2028 -148 c-1 -13 4 -22 12 -20
6 1 12 -4 12 -12 0 -24 32 -28 52 -6 23 25 47 26 64 3 12 -17 14 -17 28 2 15
20 15 20 16 -3 0 -12 6 -25 14 -28 22 -8 56 27 56 58 0 16 3 28 8 28 4 0 6
-18 4 -40 -3 -32 -1 -40 12 -40 9 0 16 4 16 10 0 5 7 7 15 4 10 -4 15 0 15 12
0 18 12 19 171 22 169 3 171 2 200 -22 16 -14 36 -23 43 -20 8 3 17 1 21 -5
10 -17 25 -13 25 7 1 15 2 15 13 2 16 -19 47 -22 47 -4 0 10 13 14 44 14 24 0
53 3 63 7 15 6 16 4 6 -9 -15 -17 -8 -28 19 -28 10 0 18 -5 18 -10 0 -6 -6
-10 -12 -9 -7 1 -35 1 -62 0 -44 -1 -48 -3 -44 -24 3 -17 -1 -22 -18 -23 -20
-2 -21 0 -9 13 24 23 18 36 -14 30 -19 -4 -31 -2 -34 6 -3 9 -7 9 -18 0 -21
-17 -94 -19 -113 -4 -8 7 -19 10 -25 7 -5 -3 -12 0 -14 6 -4 9 -12 5 -25 -11
-19 -23 -20 -23 -30 -5 -9 15 -13 16 -23 7 -7 -7 -17 -9 -23 -4 -6 5 -21 12
-33 15 -20 6 -23 4 -24 -21 l-2 -28 -4 28 c-4 28 -27 37 -36 15 -3 -7 -6 -2
-7 12 -1 23 -2 24 -14 7 -11 -14 -15 -15 -19 -4 -7 20 -58 9 -64 -13 -4 -14
-20 -19 -71 -23 -37 -3 -77 -9 -89 -12 -19 -6 -21 -4 -16 15 4 16 2 21 -8 18
-7 -2 -16 -15 -20 -29 -7 -25 -11 -20 -13 16 -1 26 -46 35 -46 9 0 -16 -1 -16
-19 0 -16 15 -19 15 -31 1 -11 -13 -15 -13 -21 -3 -7 10 -9 10 -9 1 0 -7 -10
-13 -23 -13 -13 0 -27 -4 -33 -10 -13 -13 -54 -1 -54 16 0 16 16 19 25 4 11
-18 25 -10 25 15 0 14 5 25 10 25 7 0 7 6 0 19 -14 27 -13 41 5 41 9 0 18 -12
22 -30 7 -38 23 -39 23 -2 0 24 7 42 15 42 1 0 1 -10 1 -22z m2024 -44 c0 -53
-18 -66 -76 -55 -52 10 -84 1 -84 -24 0 -8 -4 -15 -10 -15 -5 0 -10 7 -10 16
0 12 -5 14 -17 8 -28 -12 -176 -21 -196 -12 -9 5 -45 6 -78 2 -46 -5 -59 -10
-55 -21 3 -8 1 -11 -4 -8 -6 3 -10 13 -10 21 0 10 -8 14 -22 13 -13 -2 -28 0
-35 4 -6 4 -18 0 -26 -8 -13 -12 -28 -13 -102 -3 -106 13 -93 33 16 24 l69 -5
0 27 c1 24 2 25 11 9 10 -18 11 -18 25 0 8 11 13 13 14 6 0 -7 7 -13 15 -13
10 0 12 6 8 18 -6 15 -5 15 11 3 13 -11 19 -12 25 -3 4 7 15 10 24 6 9 -3 23
1 32 10 13 12 21 13 36 6 10 -6 19 -14 19 -18 0 -5 16 -8 35 -8 22 0 35 5 35
13 0 8 14 14 38 15 20 1 53 3 72 4 19 1 58 3 85 5 46 4 50 2 53 -18 4 -24 21
-32 23 -10 0 10 2 10 6 0 7 -18 21 -16 26 5 3 11 5 9 6 -8 1 -20 3 -22 11 -10
5 8 10 25 10 38 0 12 5 22 10 22 6 0 10 -16 10 -36z m-1716 -119 c-4 -18 -1
-27 10 -31 9 -3 16 -12 16 -20 0 -7 10 -25 23 -40 l23 -27 27 27 c19 19 27 37
27 61 l0 35 53 1 c96 2 119 -3 171 -33 58 -34 86 -61 86 -81 0 -8 7 -28 16
-46 9 -18 13 -35 10 -38 -3 -4 -23 0 -45 7 -51 17 -66 7 -44 -28 10 -15 24
-33 31 -41 8 -8 11 -24 7 -38 -8 -33 2 -60 24 -66 17 -4 18 -14 15 -108 l-3
-104 -33 -5 c-42 -6 -47 -31 -10 -47 47 -21 63 -125 46 -303 l-6 -65 -109 3
c-140 5 -188 -2 -222 -34 -47 -44 -46 -66 12 -176 29 -54 68 -124 87 -155 20
-34 34 -70 34 -90 0 -22 10 -43 30 -66 17 -19 30 -41 30 -48 0 -8 16 -32 36
-54 34 -38 35 -43 30 -95 -3 -30 -5 -68 -6 -85 0 -25 -9 -36 -52 -65 -29 -19
-61 -45 -71 -57 -10 -13 -25 -23 -32 -23 -23 0 -151 -65 -203 -104 -27 -20
-54 -36 -59 -36 -5 0 -15 -12 -22 -26 -15 -33 13 -118 44 -132 56 -26 188 -75
222 -83 21 -5 72 -12 113 -15 41 -3 86 -7 100 -9 14 -2 28 -4 32 -4 4 -1 14
-9 24 -18 13 -13 19 -14 22 -5 6 18 33 15 48 -5 19 -25 17 -54 -6 -108 -23
-54 -25 -64 -8 -47 19 19 33 14 15 -6 -19 -20 -23 -72 -7 -72 6 0 8 -10 4 -24
-3 -13 -1 -27 5 -30 7 -5 11 2 12 16 1 17 3 14 11 -12 l10 -35 23 28 c13 15
26 27 27 27 2 0 4 -30 4 -68 1 -38 -1 -49 -3 -24 -2 23 -8 42 -13 42 -15 0 -6
-103 9 -120 13 -13 12 -15 -2 -18 -9 -2 -17 -8 -17 -13 0 -5 -5 -9 -11 -9 -8
0 -8 4 -1 13 6 7 9 22 7 33 -2 10 -7 36 -10 57 -9 54 -26 35 -18 -20 5 -40 4
-46 -10 -40 -9 3 -19 2 -22 -3 -9 -15 -25 -12 -25 5 0 8 -7 15 -15 15 -8 0
-15 6 -15 13 0 6 -14 -3 -30 -21 -17 -18 -30 -40 -30 -50 0 -14 4 -12 20 8 11
14 20 29 20 34 0 5 3 7 6 4 8 -8 -23 -65 -38 -71 -9 -4 -8 -6 2 -6 9 -1 21 4
27 10 21 21 26 -145 8 -308 l-8 -73 -176 -1 c-97 -1 -234 -3 -306 -4 -72 -2
-188 0 -260 3 l-130 7 -2 985 c-1 542 -4 1103 -7 1247 -4 222 -3 262 9 267 17
6 20 52 5 61 -5 3 -10 11 -10 16 0 5 11 2 25 -7 13 -8 29 -13 35 -9 15 9 12
51 -5 65 -20 17 -19 38 3 36 27 -2 28 48 2 67 -16 11 -19 21 -14 42 l7 27 21
-39 c13 -22 30 -39 43 -41 20 -3 21 1 20 46 -2 50 -27 94 -51 90 -15 -2 -46
13 -46 22 0 4 9 10 21 13 12 3 18 10 14 16 -3 6 -1 11 4 11 6 0 11 -11 11 -25
0 -32 41 -55 64 -36 13 11 13 17 -2 46 -9 19 -26 35 -37 37 -17 3 -15 6 11 19
30 15 32 15 54 -8 25 -27 40 -30 40 -8 0 8 4 15 9 15 15 0 18 33 5 65 -11 26
-10 33 7 53 10 13 23 21 28 17 15 -9 61 5 61 19 0 7 -9 22 -20 34 -23 24 -78
30 -98 10 -9 -9 -12 -9 -12 0 0 7 4 12 10 12 5 0 7 8 4 18 -4 13 -3 14 4 4 7
-11 14 -8 30 13 13 17 34 28 59 32 21 3 47 12 58 19 11 8 30 14 42 14 20 0 22
-4 17 -25z m1034 10 c2 -2 -2 -12 -9 -23 -18 -29 -4 -56 26 -48 14 4 25 2 25
-4 0 -5 11 -12 25 -16 15 -4 25 -13 25 -24 0 -24 17 -35 34 -21 10 8 17 7 26
-4 20 -24 28 -18 35 27 7 37 4 44 -16 61 l-24 20 26 -6 c31 -8 53 12 42 38 -6
16 -2 18 42 12 26 -4 61 -7 76 -7 22 0 27 -4 22 -16 -3 -9 0 -20 7 -24 8 -5
14 -17 15 -27 7 -73 35 -109 50 -63 8 25 17 25 33 0 10 -17 10 -25 -3 -43 -19
-27 -20 -93 -1 -104 8 -4 20 -32 28 -62 14 -60 38 -81 38 -34 0 16 6 38 14 48
12 16 13 10 10 -48 -3 -39 0 -68 6 -72 6 -4 8 -21 4 -39 -5 -28 -1 -37 21 -54
14 -12 33 -18 41 -15 8 3 14 0 14 -6 0 -6 -13 -11 -29 -11 -37 0 -45 -22 -27
-75 16 -46 30 -54 56 -30 14 12 17 25 13 46 -3 17 -1 29 5 29 6 0 14 21 17 48
15 109 20 103 25 -28 4 -117 15 -2320 13 -2579 l-1 -95 -507 -4 -506 -4 1 68
c3 139 0 204 -10 204 -5 0 -10 -18 -10 -41 0 -32 -3 -40 -15 -35 -12 4 -15 -5
-15 -51 0 -45 -2 -53 -13 -44 -11 8 -17 5 -27 -14 -20 -38 -40 -32 -40 13 0
43 -26 77 -49 63 -17 -11 -20 -79 -4 -93 16 -13 17 -42 1 -32 -6 4 -17 -1 -24
-10 -16 -23 -27 -5 -24 42 1 20 2 47 2 60 0 12 6 22 14 22 8 0 11 6 8 15 -4 8
-2 15 3 15 16 0 64 46 57 53 -4 4 -16 7 -26 7 -11 0 -26 6 -34 14 -18 19 -18
27 1 20 9 -4 15 0 15 10 0 9 -7 16 -15 16 -8 0 -15 5 -15 10 0 6 4 10 9 10 5
0 14 14 20 30 13 39 22 39 15 0 -7 -33 5 -39 29 -15 13 13 16 11 21 -10 9 -36
26 -31 27 8 1 19 3 24 6 12 2 -11 6 -30 9 -42 6 -32 22 -28 31 8 l8 30 24 -20
c13 -12 28 -21 33 -21 4 0 8 -34 8 -75 0 -119 19 -88 23 37 2 75 6 105 11 90
8 -21 9 -21 27 13 18 33 18 38 4 65 -9 17 -20 30 -26 30 -7 0 -5 -10 5 -25 18
-27 21 -45 7 -45 -14 0 -40 97 -34 123 7 27 -1 21 -21 -18 -14 -27 -16 -28
-16 -7 0 12 8 30 18 40 28 30 43 60 32 67 -6 3 -10 -1 -10 -9 0 -9 -6 -16 -14
-16 -8 0 -17 -8 -21 -17 -7 -16 -9 -15 -16 7 -5 17 -6 10 -3 -21 6 -45 -12
-102 -34 -111 -5 -1 -13 -14 -17 -28 -7 -22 -6 -23 9 -8 9 9 16 21 16 26 0 20
25 7 26 -15 1 -12 -2 -21 -7 -18 -10 6 -39 -46 -39 -70 0 -9 -5 -13 -11 -9 -6
3 -8 17 -5 29 3 13 2 35 -4 49 -6 16 -6 27 0 31 16 10 12 38 -5 31 -19 -7 -19
1 0 20 8 9 15 24 15 34 0 10 5 22 12 26 7 5 9 2 6 -7 -16 -41 -18 -58 -8 -64
6 -4 10 5 10 22 0 21 3 24 10 13 8 -12 10 -12 16 4 4 10 3 21 -2 25 -5 3 -15
17 -22 29 -11 20 -11 27 2 41 22 25 20 28 -16 26 -18 -2 -46 4 -61 12 -33 17
-61 72 -45 90 5 7 7 16 4 21 -3 6 0 30 8 55 16 53 10 148 -9 141 -6 -3 -18 2
-25 10 -7 9 -16 13 -21 10 -5 -3 -9 2 -9 10 0 10 14 18 38 22 20 3 52 13 71
22 31 14 35 14 45 -1 7 -8 30 -17 51 -19 28 -2 41 -8 43 -20 4 -20 -24 -25
-30 -6 -7 21 -30 -3 -24 -25 10 -40 -4 -67 -35 -67 -16 0 -29 -4 -29 -10 0 -5
10 -10 23 -10 34 0 70 -29 64 -51 -3 -11 -2 -19 3 -19 8 0 21 -52 26 -108 2
-19 -4 -44 -13 -58 -9 -14 -13 -27 -10 -30 6 -7 47 78 47 98 0 26 11 48 21 42
5 -3 9 -22 10 -42 0 -32 1 -34 9 -14 11 26 -2 67 -23 75 -21 8 -57 88 -57 125
0 25 4 32 19 32 10 0 33 3 51 7 24 4 31 3 26 -5 -5 -8 0 -12 13 -12 12 0 21 4
21 9 0 5 17 15 38 21 20 7 44 19 52 26 9 7 46 23 82 34 79 24 129 46 183 81
60 39 68 53 60 96 -9 52 -28 79 -70 99 -19 9 -35 22 -35 29 0 23 -25 34 -101
46 -41 6 -97 22 -126 35 -28 13 -60 24 -70 24 -31 1 -55 27 -63 70 -4 22 -3
43 1 46 5 3 9 18 9 35 0 20 12 42 40 71 25 27 38 49 34 58 -28 66 -44 126 -44
159 0 23 -7 46 -16 55 -12 12 -17 45 -21 130 l-6 113 28 5 c19 4 32 0 43 -13
29 -34 75 -22 99 24 8 17 40 53 69 80 61 55 84 109 65 145 l-12 22 -57 -31
c-31 -17 -68 -43 -82 -58 -31 -32 -72 -51 -110 -51 -35 0 -32 -22 -37 300 -2
107 -5 220 -6 250 -3 88 11 192 31 235 45 92 64 182 44 211 -4 7 -16 14 -27
17 -11 3 23 3 75 0 52 -3 96 -7 98 -8z m-162 -96 c-3 -20 -13 -49 -21 -65 -8
-16 -15 -34 -15 -41 0 -6 -5 -15 -11 -19 -14 -8 -2 54 14 74 7 9 7 16 -1 24
-8 8 -16 1 -31 -23 -12 -19 -21 -39 -21 -46 0 -6 -12 -20 -27 -31 -25 -19 -26
-21 -9 -28 11 -4 21 -2 26 6 4 7 13 9 19 6 21 -13 11 -23 -25 -24 -20 -1 -39
-4 -42 -7 -7 -7 -31 27 -32 45 0 8 9 21 21 28 11 7 18 19 15 27 -3 9 0 12 8 9
10 -4 20 13 33 53 16 48 26 61 54 74 33 16 34 16 42 -5 5 -11 6 -37 3 -57z
m-202 -87 c2 -34 8 -67 12 -73 10 -17 6 -171 -6 -203 -5 -15 -10 -40 -10 -56
0 -16 -4 -39 -10 -52 -5 -13 -14 -79 -20 -148 -5 -69 -18 -162 -27 -207 l-17
-83 -33 0 c-33 0 -33 0 -33 49 0 30 5 51 12 53 9 3 11 33 10 102 -2 66 1 96 8
91 5 -3 10 -2 10 4 0 6 6 8 14 5 10 -4 15 13 20 72 6 70 5 79 -13 98 -11 11
-24 16 -28 12 -4 -4 -9 -41 -11 -83 -4 -66 -6 -72 -17 -51 -7 14 -8 28 -3 35
5 6 11 63 13 125 5 155 4 146 16 125 14 -24 31 -11 23 17 -4 16 0 25 11 30 9
3 20 4 23 2 4 -2 7 9 8 25 1 16 9 38 19 49 11 13 15 27 11 44 -5 22 2 91 10
84 1 -2 5 -31 8 -66z m24 -1072 c41 -19 42 -20 25 -40 -21 -24 -21 -24 -19 -3
0 12 -7 19 -21 21 -34 5 -29 -23 7 -45 17 -9 30 -21 30 -26 0 -5 -15 1 -34 12
-40 25 -47 26 -40 6 3 -8 21 -20 40 -27 19 -6 34 -16 34 -21 0 -5 -8 -6 -17
-2 -38 14 -73 17 -73 6 0 -6 9 -11 20 -11 24 0 70 -21 70 -32 0 -4 -16 -1 -36
7 -42 17 -44 18 -44 7 0 -5 15 -16 33 -25 28 -16 29 -17 6 -12 -25 4 -26 3
-25 -42 1 -30 6 -48 15 -51 10 -3 12 0 8 12 -7 18 8 22 19 4 4 -6 2 -14 -4
-16 -18 -6 -14 -20 8 -32 26 -14 45 -3 29 16 -9 11 -8 33 7 98 10 47 21 83 25
80 9 -5 -1 -85 -11 -99 -15 -20 -21 -73 -9 -80 14 -9 29 13 22 32 -3 8 2 22
12 33 10 11 15 26 12 34 -3 8 -2 29 3 46 8 28 6 35 -18 55 -15 13 -24 27 -19
31 4 4 21 -7 38 -26 17 -18 26 -36 21 -39 -15 -10 -22 -53 -11 -73 8 -15 13
-17 25 -7 11 9 14 8 14 -4 0 -9 -4 -19 -10 -22 -5 -3 -10 -13 -10 -22 0 -8 -9
-28 -21 -44 -28 -40 -13 -60 17 -23 l24 29 20 -24 c11 -13 18 -26 15 -29 -3
-3 -12 3 -21 14 -15 18 -15 18 -11 -4 5 -19 3 -21 -9 -11 -11 9 -14 8 -14 -3
0 -8 5 -19 12 -26 7 -7 8 -12 2 -12 -5 0 -15 5 -22 12 -9 9 -12 8 -12 -5 0 -9
5 -17 10 -17 6 0 10 -4 10 -10 0 -5 -7 -10 -15 -10 -8 0 -15 6 -15 13 0 43
-112 97 -201 97 -53 0 -143 -23 -163 -41 -13 -12 -26 -11 -26 0 0 5 20 15 45
22 49 15 59 29 20 29 -30 0 -32 13 -4 41 12 12 19 31 18 47 -1 15 -1 41 0 57
l1 30 13 -25 c16 -30 4 -99 -19 -117 -11 -8 -12 -13 -4 -18 29 -18 60 59 60
148 0 85 11 64 13 -25 1 -50 6 -73 15 -74 6 -1 21 -2 32 -3 14 -1 20 -8 20
-26 0 -14 6 -25 14 -25 9 0 13 13 13 40 0 42 -5 48 -25 28 -9 -9 -12 -8 -12 5
0 9 -4 17 -10 17 -5 0 -10 -7 -10 -16 0 -8 -4 -13 -8 -10 -12 7 -2 69 12 79 8
5 8 9 0 15 -19 12 -24 82 -9 118 12 29 19 34 47 34 18 0 52 -9 76 -20z m-48
-381 c0 -5 -6 -9 -14 -9 -25 0 -28 -18 -15 -90 16 -93 33 -91 25 3 -6 69 -5
71 8 37 8 -19 15 -62 15 -95 1 -33 6 -67 11 -75 12 -18 13 -11 10 64 -1 35 2
56 8 53 9 -6 24 -108 38 -250 3 -37 11 -70 17 -74 13 -8 1 158 -18 252 -8 38
-13 70 -12 72 2 1 11 -3 20 -10 11 -8 21 -47 32 -122 9 -61 22 -114 29 -120 7
-6 16 -43 20 -90 8 -94 15 -125 29 -125 9 0 5 85 -9 170 -5 24 -3 32 4 25 6
-5 15 -42 21 -82 16 -105 43 -155 53 -100 2 13 -1 29 -9 35 -17 17 -17 29 2
36 8 3 15 1 15 -4 0 -6 -6 -10 -12 -10 -10 0 -9 -3 1 -9 14 -9 43 13 54 40 4
10 6 9 6 -3 1 -10 6 -18 12 -18 7 0 9 10 5 26 -5 17 -3 23 4 19 5 -3 10 -12
10 -20 0 -11 7 -11 37 -3 21 6 56 8 79 5 l42 -4 -9 31 c-11 38 -11 36 0 36 5
0 11 -10 15 -22 4 -18 8 -20 18 -10 10 10 10 17 0 33 -18 28 -9 34 25 17 28
-13 46 -58 23 -58 -7 0 -9 -8 -5 -20 5 -15 3 -18 -9 -14 -13 5 -15 2 -9 -12 6
-17 5 -18 -12 -4 -17 13 -18 13 -13 -1 5 -13 2 -16 -14 -11 -13 3 -19 1 -15
-5 4 -6 -6 -9 -23 -8 -32 2 -37 -4 -18 -23 6 -6 8 -15 4 -19 -4 -4 -12 0 -17
10 -11 19 -18 21 -38 8 -13 -8 -13 -12 -1 -28 14 -17 13 -17 -7 1 -21 18 -23
18 -52 -3 -16 -12 -36 -21 -44 -21 -11 0 -14 -7 -10 -22 5 -23 5 -23 -10 -3
-16 20 -16 20 -17 -5 -1 -24 -1 -24 -15 -6 -15 19 -15 19 -16 -5 -1 -17 -3
-19 -6 -6 -5 17 -23 24 -23 8 0 -5 -9 -7 -19 -4 -13 3 -20 -1 -23 -14 -2 -10
-8 3 -12 30 -7 46 -12 51 -48 48 -11 -2 -18 5 -18 15 0 14 -2 15 -17 3 -14
-12 -16 -12 -11 1 3 9 0 24 -8 35 -8 10 -14 15 -14 9 0 -5 -5 -2 -11 6 -8 11
-12 12 -16 3 -2 -7 -11 -13 -18 -13 -7 0 -16 -6 -18 -12 -3 -7 -6 -3 -6 9 -1
12 -9 27 -20 32 -15 8 -17 19 -13 61 3 29 0 55 -7 63 -6 9 -13 82 -16 188 l-5
175 27 10 c30 11 53 8 53 -7z m-137 -110 c-1 -63 -9 -148 -17 -189 -17 -81
-21 -200 -7 -200 4 0 11 39 15 88 3 48 13 114 21 147 8 33 15 98 16 145 1 48
6 -5 11 -120 4 -113 10 -226 11 -252 4 -43 2 -48 -22 -58 -15 -6 -32 -20 -39
-31 -12 -19 -12 -19 10 -7 13 7 26 11 31 10 4 -1 7 6 7 15 0 14 2 15 9 4 5 -7
14 -10 20 -7 6 4 11 1 11 -7 0 -10 -18 -19 -50 -27 -33 -8 -50 -17 -50 -27 0
-13 -3 -13 -15 -3 -18 15 -19 14 -33 -25 -8 -24 -11 -26 -11 -8 -1 18 -6 21
-30 17 -16 -3 -32 0 -36 6 -10 17 -25 12 -35 -12 -8 -22 -9 -21 -10 7 0 21 -3
26 -9 16 -7 -11 -10 -10 -14 5 -3 13 -5 11 -6 -8 0 -16 -6 -28 -12 -28 -7 0
-9 10 -7 25 3 14 1 25 -3 25 -5 0 -10 -12 -10 -27 -2 -24 -2 -25 -6 -5 -5 26
-20 29 -26 5 -3 -10 -5 -5 -6 12 -1 23 -3 27 -11 15 -6 -10 -10 -11 -10 -2 0
6 -4 12 -10 12 -5 0 -10 -12 -10 -26 0 -14 -4 -23 -9 -20 -5 3 -7 16 -4 29 4
21 4 21 -12 -3 -13 -21 -15 -22 -10 -4 3 13 1 21 -7 21 -7 0 -21 4 -30 8 -11
4 -18 3 -18 -5 0 -6 5 -8 10 -5 6 3 10 2 10 -4 0 -5 -4 -13 -10 -16 -5 -3 -10
-2 -10 4 0 5 -9 13 -21 16 -15 5 -18 10 -10 18 20 20 11 30 -10 11 -21 -19
-22 -19 -16 1 10 30 -6 50 -23 30 -17 -20 -30 -3 -30 38 0 37 48 91 67 76 10
-9 13 -8 13 5 0 19 20 22 21 4 0 -7 4 -4 9 7 5 11 9 14 9 8 1 -7 6 -13 12 -13
6 0 8 9 4 23 -6 21 -6 21 9 3 16 -19 16 -19 16 5 0 19 2 21 10 9 8 -12 10 -12
11 5 0 11 3 14 6 8 6 -17 23 -17 23 0 0 8 11 19 25 25 24 11 25 10 24 -21 -1
-17 -3 -24 -6 -14 -2 9 -9 17 -14 17 -13 0 -28 -41 -21 -59 3 -8 -1 -19 -9
-25 -9 -6 -18 -19 -22 -28 -7 -21 -63 -25 -69 -6 -4 12 -28 3 -28 -12 0 -5 9
-12 20 -15 11 -4 18 -11 15 -16 -8 -12 47 -12 79 1 14 5 26 16 26 24 0 7 11
16 25 18 18 4 26 0 32 -16 4 -12 6 -27 4 -35 -1 -7 2 -10 8 -6 6 3 11 1 11 -4
0 -6 5 -11 11 -11 6 0 8 9 4 20 -4 11 -2 20 4 20 6 0 11 -14 11 -31 0 -17 4
-28 10 -24 6 3 10 -2 10 -11 0 -10 3 -14 8 -10 4 4 7 13 7 19 0 7 9 11 20 9
19 -2 20 4 22 110 1 77 9 149 26 228 14 63 24 118 21 121 -2 4 2 9 9 12 10 4
12 -5 6 -42 -9 -60 -26 -146 -39 -196 -5 -22 -10 -83 -10 -136 0 -87 2 -97 19
-102 28 -7 32 2 15 28 -14 21 -14 26 1 49 9 14 14 30 11 35 -4 5 3 85 14 178
11 92 20 194 20 226 0 43 3 58 13 54 9 -3 12 -34 10 -118z m1175 -1529 l53 0
-3 -127 -3 -128 -25 -2 c-14 -1 -497 -4 -1075 -5 l-1050 -3 -1 132 -1 132 480
1 c264 0 481 1 483 2 1 2 247 2 546 1 298 -2 567 -3 596 -3z"/>
<path d="M1125 3923 c-139 -3 -169 -8 -146 -23 8 -4 20 -6 28 -3 8 3 22 -2 33
-12 25 -22 11 -52 -25 -57 -54 -7 -27 -22 35 -20 153 5 280 15 280 23 0 5 -16
9 -35 9 -33 0 -35 2 -35 33 0 32 2 33 30 29 17 -2 30 0 30 6 0 12 -26 23 -48
20 -9 -1 -75 -4 -147 -5z"/>
<path d="M1960 550 c0 -15 51 -32 77 -25 13 3 23 1 23 -3 0 -5 -18 -12 -41
-15 -71 -9 -66 -32 7 -32 29 0 44 -4 44 -12 0 -8 -13 -13 -34 -13 -54 0 -96
-11 -96 -26 0 -16 27 -19 32 -3 2 6 24 11 48 12 45 2 45 2 44 -30 -2 -23 3
-33 13 -33 10 0 14 9 11 32 l-3 32 47 -3 c116 -7 114 42 -2 60 l-45 7 52 -1
c29 0 56 2 59 6 4 4 -13 8 -37 8 -41 1 -42 2 -14 9 30 8 30 8 -7 9 -21 0 -38
6 -38 12 0 7 11 9 30 6 17 -4 30 -2 30 3 0 6 -42 10 -100 10 -62 0 -100 -4
-100 -10z"/>
<path d="M1958 204 c4 -64 2 -74 -13 -74 -11 0 -27 23 -48 70 -25 56 -35 70
-53 70 -18 0 -22 -7 -28 -52 -4 -29 -10 -63 -13 -75 -4 -17 -1 -23 11 -23 12
0 16 10 16 36 0 33 2 35 28 32 21 -2 29 -10 36 -35 10 -33 28 -41 76 -35 23 3
25 7 22 50 l-4 47 30 -46 c54 -83 68 -78 74 29 3 63 1 72 -14 72 -14 0 -16 -7
-13 -45 3 -25 1 -45 -3 -45 -4 0 -19 22 -33 48 -19 35 -33 47 -50 48 -24 2
-24 0 -21 -72z"/>
<path d="M784 253 c-1 -10 -5 -46 -9 -80 -6 -54 -5 -63 8 -63 11 0 15 8 14 28
-2 22 2 28 25 30 22 3 27 -2 33 -27 6 -30 8 -31 61 -31 30 0 54 5 54 10 0 6
-9 10 -20 10 -17 0 -20 6 -19 48 0 40 2 44 12 28 50 -78 78 -108 90 -96 3 3 7
40 9 83 3 66 1 77 -13 77 -13 0 -15 -9 -11 -49 2 -26 0 -51 -5 -54 -5 -3 -20
19 -33 48 -22 47 -29 54 -54 55 l-29 0 5 -70 c4 -52 2 -70 -7 -70 -8 0 -20 29
-30 70 -17 68 -18 70 -49 70 -23 0 -32 -5 -32 -17z"/>
<path d="M1352 195 l0 -75 28 0 c92 0 143 76 87 128 -17 16 -36 22 -69 22
l-46 0 0 -75z"/>
<path d="M1585 260 c7 -11 -20 -107 -35 -125 -12 -15 0 -28 16 -17 5 4 17 30
25 57 l16 50 20 -45 c19 -42 49 -78 57 -69 2 2 13 31 24 64 l20 60 1 -57 c1
-56 2 -58 27 -58 20 0 24 3 17 13 -6 6 -10 40 -9 75 1 60 0 62 -25 62 -22 0
-27 -6 -38 -50 -7 -27 -16 -50 -20 -50 -4 0 -17 23 -28 50 -18 42 -25 50 -48
50 -14 0 -23 -4 -20 -10z"/>
</g>
</svg>
