<?xml version="1.0" standalone="no"?>
<!DOCTYPE svg PUBLIC "-//W3C//DTD SVG 20010904//EN"
 "http://www.w3.org/TR/2001/REC-SVG-20010904/DTD/svg10.dtd">
<svg version="1.0" xmlns="http://www.w3.org/2000/svg"
 width="233.000000pt" height="400.000000pt" viewBox="0 0 233.000000 400.000000"
 preserveAspectRatio="xMidYMid meet">
<metadata>
Created by potrace 1.15, written by Peter Selinger 2001-2017
</metadata>
<g transform="translate(0.000000,400.000000) scale(0.100000,-0.100000)"
fill="#000000" stroke="none">
<path d="M59 3905 c-4 -33 -7 -449 -8 -925 -1 -476 -5 -950 -8 -1055 -3 -104
-5 -572 -5 -1038 l0 -848 648 3 c357 2 852 2 1101 2 l452 -2 1 447 c0 245 1
840 1 1321 2 906 -2 1546 -8 1450 -3 -42 -9 -59 -26 -73 l-22 -18 23 6 c21 6
22 4 22 -68 0 -73 -20 -141 -35 -118 -11 18 -23 12 -18 -8 3 -11 -4 -27 -19
-40 -32 -31 -63 -20 -120 39 -52 54 -78 98 -78 129 0 25 -46 127 -71 160 -11
13 -19 33 -19 43 0 11 -13 37 -30 58 -16 21 -30 44 -30 52 0 21 -49 64 -92 82
-21 8 -38 22 -38 30 0 9 -12 23 -26 33 -24 15 -25 17 -8 24 15 6 15 8 3 8 -25
1 -49 35 -49 68 0 33 27 56 128 107 42 21 52 23 52 11 0 -8 5 -15 10 -15 6 0
10 9 10 20 0 23 -28 27 -61 9 -19 -10 -20 -8 -17 28 3 33 8 41 43 58 34 17 62
20 182 21 116 1 140 -1 136 -12 -3 -8 -1 -14 5 -14 12 0 24 28 14 34 -4 2 -69
4 -145 5 -120 1 -144 -2 -188 -20 -56 -24 -69 -42 -69 -92 0 -29 -5 -37 -30
-47 -48 -20 -90 -64 -90 -94 0 -16 11 -38 26 -53 19 -19 21 -24 7 -18 -10 4
-33 12 -52 17 -39 11 -87 44 -95 65 -3 8 1 28 10 45 20 38 14 44 -15 17 -16
-15 -21 -29 -18 -46 4 -19 1 -23 -12 -17 -68 29 -101 36 -150 31 -39 -4 -60
-2 -77 10 -13 8 -29 13 -36 11 -7 -3 -21 6 -33 20 l-20 24 -26 -26 c-27 -27
-62 -33 -132 -20 -26 4 -44 2 -62 -10 -14 -9 -25 -14 -25 -10 0 3 -11 -1 -25
-10 -30 -20 -35 -20 -35 -2 0 22 -33 53 -63 60 -19 5 -26 3 -22 -4 3 -5 14
-10 24 -10 10 0 24 -7 32 -16 11 -13 9 -14 -17 -9 l-29 6 33 -17 c17 -9 32
-20 32 -25 0 -12 -40 -36 -72 -44 -15 -4 -32 -13 -39 -21 -6 -7 -27 -17 -47
-20 -27 -5 -54 -25 -106 -79 -98 -99 -149 -161 -164 -197 -8 -18 -27 -51 -43
-74 -16 -23 -29 -47 -29 -52 0 -6 -14 -40 -30 -77 -17 -37 -30 -73 -30 -80 0
-8 -7 -21 -16 -29 -8 -9 -13 -20 -10 -24 7 -12 -32 -48 -66 -61 -18 -7 -36 -6
-57 2 -26 9 -31 17 -31 43 0 32 1 32 40 27 33 -5 46 -1 75 21 32 25 35 32 35
77 0 27 -4 49 -9 49 -5 0 -8 -22 -8 -49 2 -59 -7 -71 -64 -81 -73 -13 -73 -13
-66 129 4 69 7 174 7 232 l0 106 28 -4 c32 -5 71 -22 94 -41 9 -8 22 -11 27
-7 17 10 13 25 -4 19 -27 -11 -16 10 20 39 41 32 42 40 15 74 -22 29 -26 73
-8 91 9 9 9 12 1 12 -18 0 -42 -40 -36 -59 3 -9 13 -24 21 -33 10 -12 11 -18
4 -18 -25 0 -52 -40 -46 -65 5 -21 3 -25 -15 -25 -18 0 -21 6 -21 41 0 26 -7
50 -20 66 -11 14 -20 36 -20 49 0 24 -19 35 -21 12 0 -7 -4 -4 -9 7 -12 29 -1
93 27 150 28 59 75 94 142 105 l46 8 -43 1 c-74 2 -143 -46 -168 -119 -7 -18
-10 3 -14 80 -5 99 -5 102 -11 45z m1062 -476 c6 -31 7 -32 14 -11 5 16 12 21
24 16 55 -23 87 -26 131 -11 32 11 50 12 64 5 10 -6 34 -8 52 -5 19 3 34 2 34
-3 0 -4 14 -13 30 -19 17 -5 50 -26 74 -46 24 -19 48 -35 54 -35 16 0 62 -59
62 -80 0 -21 40 -100 51 -100 13 0 37 -62 44 -112 3 -26 16 -62 28 -80 33 -50
63 -153 72 -248 15 -164 22 -217 28 -227 8 -12 20 -333 18 -478 -1 -86 -16
-296 -26 -360 -2 -16 -7 -57 -11 -90 -3 -33 -10 -65 -15 -70 -4 -6 -11 -35
-14 -65 -7 -53 -21 -93 -71 -191 -13 -26 -24 -54 -24 -63 0 -27 -67 -116 -111
-148 -23 -16 -44 -38 -46 -49 -3 -10 -14 -19 -24 -19 -11 0 -34 -16 -52 -35
-17 -19 -40 -35 -49 -35 -10 0 -37 -4 -60 -9 -222 -49 -367 -45 -452 15 -23
16 -92 19 -101 4 -12 -19 -64 11 -156 89 -44 38 -65 35 -29 -4 23 -25 19 -31
-20 -25 -10 1 -9 -3 5 -13 15 -11 22 -12 27 -4 6 9 8 9 8 -1 0 -7 -7 -15 -15
-18 -20 -8 1 -28 39 -38 16 -4 30 -16 33 -26 3 -11 9 -20 14 -20 5 0 9 -4 9
-10 0 -19 -76 31 -148 99 l-26 24 22 8 c15 6 22 17 23 36 2 48 -1 57 -31 85
-33 30 -60 78 -60 106 0 10 -13 39 -29 65 -17 25 -33 63 -37 84 -3 21 -17 61
-29 88 -26 55 -31 86 -39 225 -4 53 -10 110 -15 127 -5 18 -7 49 -4 71 3 22 0
49 -7 62 -9 16 -9 25 -1 33 14 14 14 92 1 117 -17 32 -10 581 8 623 7 16 12
43 12 62 0 19 5 46 10 61 6 14 15 58 20 97 6 40 15 76 20 81 6 6 10 20 10 32
0 28 25 87 43 103 8 6 18 24 22 38 3 15 20 42 36 60 16 19 29 38 29 43 0 5 13
16 29 26 15 9 36 30 45 45 10 16 24 29 32 29 8 0 27 12 42 27 50 51 89 64 192
67 52 2 103 6 113 10 12 6 17 4 17 -8 0 -22 28 -76 39 -76 15 0 20 25 11 61
l-7 34 -11 -25 c-12 -27 -17 -5 -6 25 10 25 28 12 35 -26z m921 -474 c37 -37
52 -45 82 -45 35 0 76 27 76 51 0 5 4 8 9 4 5 -3 12 3 14 12 3 10 5 -257 5
-593 l-1 -612 -36 -11 c-46 -13 -71 -54 -71 -114 0 -34 -4 -46 -18 -49 -19 -5
-20 14 -7 212 4 52 9 181 11 285 3 105 6 206 6 225 2 43 -12 181 -18 192 -3 4
-7 42 -10 84 -3 42 -16 120 -30 173 -15 53 -30 115 -35 139 -5 23 -13 51 -19
61 -23 45 -12 41 42 -14z m-1855 -53 c-20 -20 -37 -27 -67 -27 -22 0 -40 -3
-40 -7 0 -14 70 -8 95 8 l25 16 -5 -33 c-3 -19 -8 -56 -11 -84 -3 -27 -12 -68
-19 -90 -8 -22 -17 -76 -21 -120 -8 -96 -8 -557 0 -670 3 -44 5 -108 5 -142 0
-34 5 -72 13 -85 7 -13 11 -46 9 -74 -2 -40 4 -65 28 -117 17 -37 32 -85 33
-107 1 -26 7 -44 17 -50 11 -6 1 -7 -29 -5 l-45 5 42 -11 c38 -9 44 -14 53
-48 6 -21 17 -44 25 -51 8 -7 15 -23 15 -35 0 -12 8 -33 19 -46 10 -13 26 -39
35 -56 14 -28 14 -33 2 -33 -9 0 -26 12 -40 26 -18 20 -37 28 -74 32 -30 2
-52 0 -56 -7 -10 -16 -26 -14 -26 4 0 23 39 38 84 32 35 -5 39 -4 23 7 -9 7
-17 20 -17 28 0 19 -17 33 -50 43 -21 5 -20 3 8 -14 36 -23 43 -51 12 -51 -34
0 -66 -21 -77 -51 -11 -27 -10 -29 4 -17 14 11 15 10 8 -12 -7 -25 -7 -25 19
4 24 25 33 28 67 23 24 -3 53 -17 75 -37 20 -17 42 -29 50 -26 13 5 64 -47 64
-65 0 -11 -45 -30 -80 -33 -14 -2 -33 -6 -42 -10 -10 -5 -40 -6 -68 -4 -42 2
-50 0 -50 -14 0 -10 5 -18 10 -18 6 0 10 5 10 11 0 8 5 7 15 -1 9 -7 18 -10
22 -7 3 4 12 2 20 -4 8 -7 13 -8 13 -1 0 6 21 9 50 9 28 -1 50 2 50 6 0 5 5 5
10 2 6 -3 10 -15 10 -27 0 -13 5 -18 14 -15 8 3 13 -1 12 -11 -1 -18 1 -18 50
-8 25 6 38 1 70 -24 21 -18 45 -42 53 -54 18 -30 98 -79 117 -72 24 9 29 -23
5 -40 -11 -8 -21 -20 -21 -26 0 -7 9 -2 20 10 22 23 46 28 69 13 10 -7 10 -10
1 -16 -7 -4 -15 -3 -19 4 -10 15 -51 -15 -51 -37 0 -13 3 -12 16 6 8 12 20 22
27 22 8 0 8 -3 -1 -12 -7 -7 -12 -21 -11 -32 0 -15 2 -16 6 -6 3 8 16 24 30
36 21 18 29 20 64 10 21 -5 39 -16 39 -23 0 -7 6 -13 14 -13 19 0 30 -35 17
-57 -30 -57 -109 -88 -157 -63 -31 17 -38 9 -23 -24 11 -23 10 -30 -8 -48 -17
-16 -34 -21 -86 -21 -71 -1 -97 12 -97 47 0 20 1 19 13 -4 12 -23 18 -25 68
-22 63 3 84 23 84 81 l0 36 63 1 c59 0 95 15 78 31 -4 4 -10 2 -14 -5 -5 -6
-26 -11 -47 -11 -83 2 -86 1 -103 -42 -14 -37 -18 -40 -45 -35 -25 5 -28 4
-17 -9 16 -20 29 -19 53 2 18 17 19 17 16 -1 -9 -44 -81 -46 -99 -3 -8 21 -9
21 -9 1 -1 -11 4 -25 11 -32 9 -9 9 -12 0 -12 -15 0 -35 37 -27 50 3 6 -1 10
-9 10 -30 0 -16 19 19 26 42 7 92 55 100 96 10 43 -2 92 -28 116 -26 24 -77
40 -77 23 0 -6 10 -11 23 -11 13 0 33 -10 45 -23 66 -71 11 -192 -88 -192 -35
0 -37 -1 -27 -22 15 -34 2 -53 -35 -53 -22 0 -37 -7 -46 -20 -7 -11 -19 -20
-28 -20 -10 0 -12 5 -7 13 4 6 8 21 10 32 2 18 1 18 -9 -2 -12 -25 -37 -30
-56 -11 -15 15 -16 38 -1 38 16 0 36 24 31 38 -2 6 1 12 7 12 6 0 10 12 10 28
0 15 5 63 10 107 5 44 10 83 10 87 1 3 16 5 34 4 35 -3 87 11 87 24 0 4 10 6
23 3 19 -4 20 -3 5 7 -13 8 -24 7 -45 -3 -38 -20 -89 -10 -113 21 l-20 25 0
-26 c0 -20 -6 -27 -30 -32 -42 -9 -48 -41 -24 -127 10 -33 25 -19 19 16 -5 26
-2 39 13 54 11 11 22 26 24 33 3 8 9 11 13 7 4 -4 -1 -20 -11 -35 -10 -15 -18
-30 -17 -33 11 -56 11 -98 -2 -114 -19 -25 -30 -14 -14 13 18 28 5 37 -28 20
-20 -11 -27 -11 -30 -1 -3 6 -13 12 -24 12 -27 0 -25 -36 3 -44 15 -3 19 -9
13 -15 -12 -11 -95 -20 -95 -10 0 4 -14 12 -31 19 -19 8 -28 18 -25 27 8 19
-20 48 -28 30 -4 -6 -4 4 -1 23 4 33 4 34 -10 16 -17 -23 -19 -9 -5 31 l10 28
-21 -25 c-20 -24 -20 -24 -9 -2 10 20 9 26 -6 36 -16 12 -16 14 1 39 11 17 13
27 6 27 -6 0 -14 -7 -17 -15 -4 -8 -12 -15 -20 -15 -24 0 -15 19 16 35 17 9
30 20 30 26 0 16 -29 22 -45 9 -13 -11 -14 -10 -8 6 9 26 24 35 48 27 11 -4
30 -6 42 -5 16 1 24 -5 29 -23 6 -25 33 -35 35 -12 0 6 4 2 9 -10 5 -13 14
-23 19 -23 6 0 8 7 5 15 -4 8 -1 15 5 15 6 0 11 -5 11 -11 0 -6 9 -9 20 -6 11
3 20 1 20 -4 0 -5 12 -7 27 -4 44 7 89 79 62 96 -10 6 -15 1 -17 -19 -2 -15
-7 -30 -11 -34 -4 -5 -5 8 -3 27 3 27 1 35 -12 35 -12 0 -15 -7 -11 -27 3 -16
2 -21 -1 -13 -10 22 -26 30 -43 20 -9 -4 -36 -6 -59 -4 -34 2 -43 0 -38 -11 3
-9 0 -12 -10 -8 -7 3 -14 10 -14 15 0 6 -6 8 -14 5 -9 -4 -13 3 -12 24 1 32 6
35 24 17 9 -9 12 -8 12 5 0 16 -10 21 -36 18 -17 -2 -23 46 -12 83 8 26 7 38
-7 59 -24 37 -37 34 -18 -4 12 -24 13 -35 3 -59 -9 -22 -9 -38 -2 -60 8 -22 8
-30 -1 -30 -8 0 -8 -3 2 -9 10 -7 8 -12 -10 -25 -13 -9 -29 -16 -36 -16 -21 0
-16 84 8 133 16 33 20 52 14 73 -8 28 -9 28 -15 -13 -3 -24 -9 -45 -11 -48 -5
-4 1 1917 5 1922 1 2 16 -2 33 -9 25 -9 36 -8 69 8 49 25 55 21 21 -14z m2043
-1151 c0 -6 -14 -18 -30 -28 -33 -19 -40 -37 -37 -95 2 -30 4 -35 15 -25 10
10 10 20 1 47 -11 31 -10 35 17 58 19 17 29 21 32 12 3 -7 -3 -17 -12 -22 -11
-6 -16 -23 -16 -50 0 -32 -7 -49 -27 -72 l-28 -29 33 22 c32 22 37 34 33 83
-1 14 2 29 7 32 9 5 9 -32 4 -201 -2 -46 -5 -53 -22 -53 -25 0 -27 20 -2 20
16 1 16 1 0 14 -20 15 -24 36 -7 36 5 0 7 -4 4 -10 -3 -5 -1 -10 4 -10 6 0 11
7 11 15 0 8 -7 15 -16 15 -10 0 -14 6 -11 15 4 8 2 17 -3 20 -6 4 -11 1 -11
-4 -1 -6 -3 -15 -4 -21 -1 -5 -3 -19 -4 -30 -1 -15 -8 -20 -31 -20 -16 0 -30
-4 -30 -10 0 -10 13 -14 43 -11 9 1 17 -3 17 -8 0 -6 -11 -11 -25 -11 -18 0
-25 -5 -25 -19 0 -11 5 -23 10 -26 6 -3 10 3 10 15 0 15 5 20 18 18 14 -3 17
-16 20 -81 2 -45 7 -77 13 -77 7 0 10 28 7 78 -3 72 -2 77 18 80 21 3 22 0 22
-97 0 -87 -2 -101 -16 -101 -13 0 -14 -2 -4 -9 11 -6 10 -10 -3 -15 -10 -3
-23 -2 -29 3 -11 9 -105 6 -133 -4 -23 -8 -13 10 15 27 15 10 21 18 13 18 -19
0 -51 -29 -51 -47 0 -7 -2 -13 -4 -13 -2 0 -11 -3 -20 -6 -19 -7 -22 23 -5 59
17 37 81 63 112 46 10 -6 18 -5 22 1 3 5 -4 14 -17 19 -38 14 -50 36 -54 98
-2 32 -6 72 -9 88 -5 22 -4 26 4 15 9 -13 10 -13 14 0 20 70 23 75 54 84 31 9
32 12 26 51 -6 49 16 101 50 115 29 12 37 12 37 1z m-1801 -348 c26 -52 36
-87 23 -79 -7 4 -10 -4 -7 -25 6 -49 24 -89 67 -146 40 -55 48 -74 23 -53 -31
25 -14 -7 29 -56 42 -48 59 -101 29 -90 -19 8 -26 -13 -12 -32 11 -13 8 -12
-9 2 -23 20 -31 9 -10 -12 9 -9 9 -12 0 -12 -7 0 -12 4 -12 9 0 4 -11 19 -24
32 -13 13 -27 35 -31 49 -7 24 -6 24 27 -7 34 -33 61 -46 38 -18 -6 8 -9 18
-6 23 7 12 -19 78 -34 87 -6 4 -22 25 -36 47 -21 32 -23 42 -12 49 10 7 8 13
-11 31 -19 18 -22 19 -18 6 10 -28 -1 -21 -18 12 -21 41 -20 81 2 73 16 -6 16
-5 0 17 -9 14 -17 36 -17 50 0 14 -4 31 -9 39 -8 13 -5 41 5 41 2 0 12 -17 23
-37z m1711 -243 c-34 -28 -34 -30 -13 -36 22 -6 22 -6 -5 -29 -33 -29 -25 -41
14 -20 34 17 64 20 64 4 0 -5 -4 -8 -9 -5 -14 9 -61 -12 -68 -30 -3 -8 0 -21
7 -27 10 -9 11 -9 6 1 -8 14 20 17 28 3 9 -13 -19 -32 -38 -25 -23 9 -63 -3
-70 -21 -3 -9 -2 -13 4 -10 5 3 21 -13 35 -35 24 -38 28 -40 60 -34 27 5 35 2
44 -14 15 -28 14 -42 -4 -42 -8 0 -15 -4 -15 -10 0 -5 4 -10 8 -10 4 0 8 -24
7 -52 0 -44 -3 -53 -16 -50 -11 1 -21 -8 -27 -27 -6 -16 -20 -34 -31 -41 -12
-6 -21 -15 -21 -21 0 -6 4 -7 10 -4 17 10 4 -50 -16 -78 -10 -15 -25 -24 -32
-22 -8 3 -25 5 -38 5 -26 0 -32 26 -14 60 7 13 7 21 0 25 -6 3 -13 -1 -16 -9
-9 -24 -24 -9 -24 24 0 33 -28 54 -56 43 -11 -4 -15 -3 -10 5 3 6 1 14 -5 17
-7 5 -9 -3 -7 -21 2 -16 9 -30 16 -30 6 -1 15 -3 20 -4 4 -1 11 -2 15 -1 5 1
7 -7 5 -18 -2 -10 5 -28 16 -40 20 -22 15 -84 -6 -63 -6 6 -17 8 -25 5 -21 -8
-63 17 -63 39 0 10 -4 18 -10 18 -5 0 -10 7 -10 15 0 8 -4 15 -10 15 -17 0
-11 -26 15 -64 20 -29 23 -41 15 -57 -6 -10 -15 -19 -20 -19 -6 0 -10 -9 -10
-20 0 -15 -7 -20 -25 -20 -14 0 -25 -4 -25 -10 0 -5 12 -10 27 -10 14 0 34 -7
44 -16 14 -12 22 -13 38 -4 12 6 21 9 21 6 0 -2 3 -11 6 -20 6 -14 -25 -16
-302 -16 -249 1 -314 3 -334 15 -33 19 -45 18 -65 -1 -20 -20 -26 -15 -18 14
6 24 40 30 74 11 23 -12 82 -2 73 12 -3 5 -13 5 -25 -2 -13 -7 -25 -7 -32 -1
-7 5 -26 13 -43 16 -36 8 -64 -12 -64 -45 0 -28 -35 -24 -59 7 -12 15 -21 34
-20 43 0 10 4 7 12 -9 l11 -25 3 27 c3 18 14 30 34 38 36 15 32 25 -5 11 -32
-13 -35 2 -3 17 12 6 16 11 9 11 -43 3 -93 -70 -73 -107 6 -12 11 -23 11 -26
0 -3 -84 -6 -187 -6 -180 0 -186 1 -170 18 10 10 17 29 17 41 0 17 4 22 16 17
8 -3 35 -1 60 5 60 15 107 69 102 115 l-4 32 43 -5 c25 -3 49 0 57 6 10 8 16
7 26 -4 9 -10 28 -15 59 -14 25 1 71 1 102 -1 37 -2 66 3 85 13 16 9 46 18 66
22 21 3 40 11 44 17 5 7 0 9 -14 6 -13 -4 -20 -2 -16 3 3 5 20 7 39 3 19 -3
35 -1 39 5 11 18 36 13 36 -7 0 -10 5 -23 12 -30 9 -9 9 -15 0 -24 -7 -7 -12
-8 -12 -2 0 17 -51 37 -64 24 -5 -5 -19 -10 -30 -10 -25 0 -86 -54 -86 -76 0
-18 -47 -37 -69 -28 -40 16 -71 22 -71 13 0 -5 8 -9 18 -9 11 0 18 -7 18 -20
0 -14 -7 -20 -21 -20 -36 0 -59 -23 -51 -53 3 -15 11 -27 16 -27 6 0 8 11 4
26 -8 30 7 44 49 44 25 0 27 2 17 20 -8 16 -8 20 4 20 9 0 20 -9 26 -21 11
-20 25 -18 25 4 0 7 9 13 19 15 14 3 17 0 13 -12 -7 -17 -5 -19 15 -11 9 4 13
17 10 39 -3 27 2 37 28 59 17 15 38 27 45 27 7 0 20 2 27 5 8 3 27 -6 44 -20
l29 -25 18 23 17 22 -10 -28 c-13 -38 -13 -42 5 -27 10 8 15 9 15 2 0 -6 -9
-16 -20 -22 -16 -9 -22 -8 -26 5 -9 21 -47 19 -78 -6 -25 -20 -36 -59 -16 -59
5 0 7 6 4 14 -6 15 40 56 64 56 12 0 12 -4 -4 -21 -18 -20 -18 -20 11 -14 64
14 76 25 69 64 -4 20 -15 46 -26 58 -25 26 -20 57 9 61 14 2 20 8 16 18 -3 8
0 14 7 14 6 0 8 -5 4 -12 -5 -8 -2 -9 10 -5 10 4 22 5 26 2 11 -7 2 -35 -11
-35 -4 0 -6 6 -3 14 4 12 -1 11 -30 -2 -29 -13 -33 -18 -25 -34 6 -11 17 -22
25 -25 8 -3 14 -19 14 -37 0 -41 21 -80 45 -84 10 -2 27 -14 36 -26 l18 -21 1
21 c0 13 8 24 20 27 16 4 19 13 17 56 -1 28 -6 51 -10 51 -5 0 -22 -10 -39
-21 -23 -17 -28 -27 -24 -45 4 -13 2 -24 -3 -24 -15 0 -29 24 -36 63 -6 33 -4
42 18 65 14 15 33 46 43 70 12 32 19 40 26 30 7 -9 8 -7 5 9 -3 12 1 27 8 33
11 9 12 7 8 -11 -4 -15 0 -26 12 -35 30 -22 35 -17 35 31 0 32 -5 47 -15 51
-14 6 -13 8 2 21 13 10 15 16 6 19 -22 9 -14 22 17 29 16 4 33 12 37 19 5 7
16 16 26 19 16 6 18 3 12 -21 -6 -29 17 -63 32 -48 4 4 2 10 -4 14 -18 11 -4
81 18 93 18 9 18 11 3 35 -24 36 -5 53 31 30 31 -20 49 -11 21 10 -23 16 -17
18 18 4 31 -11 34 -1 9 36 -15 23 -15 28 0 60 9 19 21 34 27 34 6 0 4 -9 -4
-22 -10 -16 -11 -30 -5 -46 10 -27 33 -19 26 8 -3 10 4 31 14 47 10 15 19 23
19 16 0 -6 -4 -15 -10 -18 -14 -9 -12 -22 4 -28 8 -3 22 4 33 16 l18 22 -24
-20 -24 -20 14 23 c8 12 17 22 21 22 4 0 5 7 2 15 -5 12 3 15 37 15 l43 0 -34
-30z m-270 -50 c8 -5 24 -18 34 -29 23 -26 5 -28 -38 -6 -15 8 -39 15 -52 15
-13 0 -24 5 -24 10 0 6 -7 10 -15 10 -9 0 -15 -9 -15 -22 0 -19 2 -20 11 -8 8
11 12 12 16 3 2 -7 16 -13 29 -13 28 0 30 -7 10 -29 -18 -20 -8 -40 24 -46 31
-6 33 -10 18 -34 -9 -15 -23 -21 -51 -21 -30 0 -39 -5 -47 -22 -5 -13 -20 -34
-34 -47 -18 -16 -26 -33 -26 -56 0 -19 -4 -37 -10 -40 -10 -6 -14 7 -11 34 2
11 0 11 -12 0 -9 -9 -12 -18 -6 -25 5 -6 6 -14 2 -17 -3 -4 -1 -7 6 -7 7 0 9
-5 5 -11 -4 -8 -9 -7 -14 2 -7 10 -11 10 -24 0 -9 -8 -16 -21 -16 -30 0 -13
-2 -13 -9 -2 -14 22 18 89 50 103 16 7 29 20 29 28 0 8 9 30 20 48 26 42 25
45 -5 38 -14 -4 -25 -2 -25 3 0 13 22 29 53 36 35 9 34 22 -3 30 -25 5 -30 12
-30 34 0 16 12 41 28 59 25 29 31 31 72 26 25 -3 52 -10 60 -14z m308 -767
l42 -5 0 -142 0 -141 -1080 -1 -1080 -1 0 147 0 146 1038 1 c570 0 1056 -2
1080 -4z"/>
<path d="M1052 3109 c-23 -12 -42 -24 -42 -28 0 -4 -13 -21 -30 -39 -22 -24
-28 -40 -25 -62 5 -45 16 -73 33 -93 16 -18 15 -18 -13 -12 -32 8 -55 30 -55
53 0 23 -34 8 -41 -18 l-7 -25 -7 23 c-4 12 -11 22 -16 22 -5 0 -9 9 -9 20 0
11 -7 20 -15 20 -8 0 -20 -9 -27 -20 -7 -11 -21 -20 -30 -20 -10 0 -18 -5 -18
-11 0 -6 -9 -8 -21 -4 -15 5 -19 4 -15 -4 5 -7 -1 -11 -14 -11 -12 0 -31 -5
-42 -11 -17 -9 -28 -8 -54 6 -31 17 -35 17 -59 1 -14 -10 -29 -24 -32 -32 -3
-8 -11 -14 -18 -14 -19 0 -44 -33 -51 -68 -7 -35 -6 -36 51 -22 52 13 135 23
135 16 0 -2 -4 -16 -10 -31 -12 -31 11 -85 35 -85 8 0 15 -8 15 -17 0 -37 80
-53 165 -33 22 5 40 8 42 7 1 -2 -8 -41 -21 -87 -24 -91 -57 -153 -114 -213
-20 -20 -50 -65 -67 -100 -25 -48 -37 -63 -56 -65 -47 -5 -50 5 -34 117 9 56
13 106 10 111 -3 5 -1 11 5 15 21 13 4 95 -19 95 -13 0 -36 -62 -33 -86 2 -11
-6 -74 -18 -139 -14 -84 -26 -125 -40 -140 -21 -23 -27 -75 -9 -75 8 0 9 -21
4 -72 -4 -40 -7 -81 -7 -90 0 -10 -3 -20 -9 -23 -12 -8 -12 -37 1 -71 l10 -27
26 29 c13 16 23 37 20 46 -2 9 4 61 13 115 l17 98 47 -1 c26 0 47 3 47 8 0 4
-5 8 -12 8 -6 0 -3 7 8 15 18 13 16 15 -26 17 -25 1 -57 2 -72 1 -25 -1 -26 1
-22 41 9 95 39 236 49 233 13 -5 8 -63 -14 -171 l-17 -84 37 3 c56 5 73 18
109 87 19 35 53 83 76 108 52 57 74 100 113 225 17 55 43 115 57 133 25 32
146 97 172 93 6 -1 12 5 12 14 0 8 9 24 21 36 27 27 18 34 -19 15 -30 -16 -31
-16 -61 23 -32 40 -39 61 -21 61 6 0 10 5 10 11 0 7 -9 9 -21 6 -17 -4 -19 -3
-10 6 14 14 14 30 0 21 -6 -3 -15 -1 -19 7 -10 15 44 99 63 99 7 0 4 -5 -5
-11 -10 -5 -18 -14 -18 -18 0 -14 31 -22 44 -13 21 17 55 21 49 7 -3 -10 2
-12 16 -8 12 3 21 1 21 -6 0 -6 -5 -11 -11 -11 -16 0 -2 -47 20 -71 11 -12 18
-37 20 -66 2 -54 37 -109 76 -119 13 -3 27 -15 30 -26 5 -14 10 -16 20 -8 17
14 26 -19 18 -66 -4 -26 -1 -42 14 -62 29 -39 35 -65 23 -96 -14 -38 -52 -53
-83 -33 -24 16 -25 15 -23 -14 0 -16 6 -29 13 -29 7 0 13 -5 13 -11 0 -5 -4
-7 -10 -4 -5 3 -10 2 -10 -4 0 -5 6 -12 13 -14 6 -3 3 -6 -8 -6 -13 -1 -16 -4
-8 -12 14 -14 -32 -99 -53 -99 -8 0 -14 -5 -14 -11 0 -6 -31 -48 -68 -93 -38
-44 -76 -94 -85 -111 -9 -16 -16 -23 -17 -15 0 9 7 26 16 38 9 13 13 26 9 30
-3 3 -10 0 -15 -8 -6 -8 -10 -10 -10 -5 0 6 7 21 16 33 10 15 11 22 3 22 -8 0
-8 4 1 15 15 18 -1 20 -19 3 -11 -11 -11 -9 -2 10 6 12 16 22 21 22 6 0 10 4
10 10 0 5 -7 7 -15 4 -21 -9 -19 2 7 26 12 11 16 20 10 20 -18 0 -15 21 6 37
16 14 16 14 0 9 -10 -3 -18 -1 -18 4 0 6 5 10 10 10 6 0 10 9 10 20 0 11 -6
20 -12 20 -9 0 -8 4 2 10 13 9 13 12 -3 24 -16 12 -14 15 22 29 40 16 54 30
58 56 1 8 -8 3 -20 -12 -29 -36 -89 -47 -117 -22 -22 20 -26 55 -10 86 8 15 7
19 -4 19 -15 0 -39 -56 -30 -71 6 -10 -15 -53 -23 -45 -3 3 0 14 8 23 13 16
12 17 -4 4 -9 -7 -17 -19 -16 -25 3 -25 -2 -37 -13 -30 -6 4 -8 3 -5 -4 9 -13
-28 -101 -56 -130 -11 -12 -28 -20 -36 -17 -18 5 -45 -30 -36 -45 4 -6 -1 -10
-10 -10 -10 0 -13 -5 -9 -12 5 -8 2 -9 -9 -5 -10 3 -17 2 -17 -4 0 -6 -18 -31
-40 -57 -72 -81 -35 -55 77 55 84 83 119 126 152 186 23 42 45 77 50 77 4 0
16 -9 27 -21 30 -33 32 -143 3 -231 -21 -65 -21 -76 -10 -127 7 -31 14 -90 16
-131 4 -107 13 -145 43 -174 l27 -25 1 52 c1 63 21 130 37 120 8 -5 8 -8 0
-10 -7 -3 -9 -11 -6 -19 3 -8 1 -14 -4 -14 -14 0 -16 -127 -2 -135 8 -6 9 4 4
34 -5 32 -2 51 14 84 21 42 85 117 131 153 14 10 -3 -11 -38 -48 -59 -63 -101
-133 -102 -169 0 -9 16 -47 35 -85 30 -61 32 -70 18 -78 -9 -5 -42 -32 -73
-61 -43 -39 -67 -54 -99 -59 l-42 -6 6 -93 c7 -87 23 -137 45 -137 6 0 10 19
11 43 1 78 46 133 134 164 17 6 38 14 48 18 15 6 17 1 17 -39 0 -25 9 -70 21
-101 12 -31 19 -58 17 -59 -22 -17 -116 -46 -146 -46 -22 0 -45 -6 -51 -14 -7
-8 -29 -17 -50 -21 -20 -3 -50 -15 -66 -25 -25 -16 -26 -20 -12 -26 36 -13 17
-29 -31 -26 -67 5 -122 -19 -122 -52 0 -15 6 -26 13 -26 8 0 20 -12 28 -27 18
-35 28 -43 57 -43 13 0 32 -10 43 -22 16 -19 18 -20 12 -4 -6 18 -5 18 21 1
25 -16 33 -17 78 -5 48 12 52 11 67 -9 14 -18 21 -20 61 -12 25 5 34 9 21 10
-19 1 -21 4 -12 15 10 12 5 18 -25 32 -20 9 -43 17 -51 17 -8 0 -12 6 -9 14 9
23 -56 36 -109 22 -19 -6 -40 -7 -46 -3 -21 13 15 24 76 24 62 0 105 18 105
44 0 9 22 15 73 19 39 3 74 3 76 1 2 -2 13 -32 25 -66 25 -71 46 -88 114 -88
51 0 53 10 17 80 -13 27 -28 73 -31 103 l-6 54 48 24 c42 21 144 115 178 165
24 35 56 135 56 175 0 22 -8 56 -19 77 -10 20 -21 54 -25 75 -8 42 -47 92
-101 128 -42 28 -83 101 -115 207 -20 64 -21 79 -11 139 6 38 12 82 14 98 2
29 3 29 41 -28 64 -95 146 -155 237 -172 l35 -7 17 -101 c10 -56 17 -118 17
-138 0 -35 23 -69 48 -69 22 0 22 46 -2 160 -20 97 -21 117 -10 126 8 6 14 18
14 27 0 8 5 17 11 19 16 5 1 34 -26 48 -26 14 -47 72 -60 165 -3 28 -8 59 -9
70 -2 11 -11 35 -21 54 l-17 34 -19 -24 c-11 -14 -17 -32 -14 -44 16 -57 55
-215 55 -220 0 -3 -17 -5 -37 -3 -37 3 -40 7 -103 113 -72 121 -109 217 -117
304 -3 31 -12 66 -19 78 -8 12 -14 28 -14 35 0 7 -18 39 -41 71 -39 54 -61 69
-74 47 -3 -5 -12 -7 -20 -4 -12 5 -12 9 2 30 8 13 12 24 8 24 -4 0 -2 6 4 13
18 23 4 138 -21 164 -23 25 -44 30 -50 12 -3 -9 -10 -9 -26 0 -28 15 -29 35
-1 26 16 -5 19 -4 14 5 -5 8 -21 10 -45 7 -20 -2 -43 -1 -52 4 -9 5 -30 1 -56
-12z m-412 -254 c9 -5 15 -4 18 3 2 8 8 7 19 -3 19 -20 33 -19 33 3 0 14 2 15
10 2 5 -8 10 -11 10 -7 0 4 6 2 14 -5 9 -9 11 -19 5 -30 -15 -28 -10 -48 15
-58 13 -5 26 -14 28 -21 5 -16 99 14 130 43 20 17 21 19 3 13 -11 -3 -16 -2
-11 2 4 4 17 9 29 9 12 1 43 6 69 11 32 7 50 7 57 0 14 -14 14 -30 1 -22 -5 3
-10 -2 -11 -12 0 -13 -3 -12 -10 7 -8 20 -12 22 -19 10 -7 -10 -10 -11 -10 -2
0 19 -20 14 -21 -5 0 -11 -3 -13 -6 -5 -8 20 -25 14 -18 -7 3 -11 1 -22 -5
-26 -5 -3 -10 1 -10 9 0 32 -20 15 -21 -16 0 -33 0 -33 -11 -8 l-11 25 -7 -30
c-4 -16 -8 -22 -9 -12 0 9 -6 17 -12 17 -5 0 -8 -3 -6 -7 3 -5 1 -17 -4 -28
-6 -17 -8 -17 -8 -2 -1 28 -21 19 -22 -10 l-1 -28 -8 25 c-7 25 -9 24 -23 -20
-3 -9 -6 -4 -7 10 l-1 25 -15 -25 c-8 -14 -13 -17 -10 -8 3 10 1 20 -4 23 -6
4 -11 -2 -11 -12 -1 -17 -2 -17 -6 0 -5 18 -5 18 -19 0 -12 -17 -13 -17 -14 0
0 17 -15 24 -23 10 -2 -5 -2 -3 -1 4 5 22 -19 27 -33 7 -13 -17 -14 -17 -7 10
5 21 4 27 -5 22 -13 -9 -14 -5 -2 28 9 23 8 25 -32 32 -37 6 -39 8 -17 14 24
6 42 40 21 40 -6 0 -11 -6 -11 -12 0 -9 -4 -8 -11 2 -8 11 -12 12 -16 3 -2 -7
-9 -13 -14 -13 -6 0 -6 7 0 18 10 19 36 22 61 7z m825 -397 c9 -28 35 -83 57
-122 23 -39 47 -82 54 -97 19 -36 55 -65 83 -67 13 0 25 -3 28 -6 10 -10 -9
-26 -30 -26 -18 0 -19 -2 -7 -10 8 -5 25 -7 37 -3 14 3 23 1 23 -6 0 -37 -136
18 -193 78 -64 67 -109 143 -102 171 4 14 12 51 18 83 6 31 12 57 13 57 1 0 9
-23 19 -52z m-152 -210 c-4 -7 -6 -21 -4 -32 1 -11 -2 -16 -8 -12 -7 5 -11 -2
-11 -15 0 -12 -8 -31 -17 -42 -14 -15 -15 -21 -5 -24 10 -4 10 -8 1 -19 -9
-11 -9 -14 0 -14 7 0 9 -5 6 -10 -4 -6 -11 -7 -17 -4 -7 5 -9 1 -5 -9 4 -11 1
-17 -9 -17 -9 0 -12 -5 -8 -12 5 -8 2 -9 -9 -5 -20 7 -22 -4 -5 -21 17 -17 2
-28 -17 -12 -18 15 -20 -1 -3 -18 7 -7 8 -12 2 -12 -6 0 -15 5 -22 12 -7 7
-12 8 -12 2 0 -5 4 -14 9 -19 6 -6 4 -17 -4 -29 -13 -17 -17 -17 -32 -5 -15
12 -16 12 -10 -5 6 -15 5 -17 -7 -7 -21 18 -54 -30 -62 -90 -4 -27 -10 -46
-15 -43 -16 9 -9 68 11 102 11 18 20 37 20 43 0 5 32 57 70 114 39 57 70 107
70 110 0 3 16 19 35 36 19 17 37 39 40 50 4 10 11 19 16 19 6 0 7 -6 2 -12z
m67 -169 c0 -12 21 -69 46 -127 54 -125 70 -176 77 -254 5 -51 3 -60 -16 -73
-32 -22 -118 -48 -127 -39 -4 5 -11 30 -14 56 -6 41 -5 47 9 42 13 -6 13 0 -4
32 -18 34 -39 123 -58 240 -4 23 2 38 21 61 14 17 30 42 35 57 12 31 31 34 31
5z m-92 -194 c11 -44 23 -109 26 -145 3 -36 11 -85 16 -110 6 -25 17 -151 25
-280 7 -130 18 -247 24 -260 5 -14 17 -43 25 -65 14 -34 14 -37 1 -21 -15 19
-15 19 -16 -5 l0 -24 -9 23 c-11 26 -22 30 -14 5 5 -15 3 -15 -10 1 -15 18
-16 18 -16 2 0 -14 -2 -15 -12 -4 -18 18 -59 138 -47 138 5 0 9 -4 9 -10 0 -5
3 -10 8 -10 4 0 5 37 1 83 -5 61 -13 96 -33 136 -21 41 -29 72 -32 134 -4 70
-2 78 11 67 31 -26 15 19 -31 87 -84 122 -92 165 -43 234 32 45 91 111 95 106
1 -1 11 -38 22 -82z m-70 -325 l3 -45 -83 -40 c-77 -38 -85 -45 -111 -95 -19
-36 -26 -62 -22 -80 5 -24 5 -24 -10 -5 -11 13 -14 31 -10 52 3 17 0 52 -6 78
-6 25 -9 48 -6 51 3 3 23 8 44 11 31 4 54 18 102 65 75 70 95 72 99 8z m227
-10 c18 -34 11 -127 -11 -172 -14 -27 -51 -54 -60 -45 -3 3 -6 56 -7 118 -2
112 -2 113 23 120 39 11 39 11 55 -21z"/>
<path d="M1150 280 c0 -5 5 -10 10 -12 11 -3 -9 -58 -22 -58 -3 0 -15 16 -27
35 -17 30 -26 35 -56 35 -22 0 -34 -4 -30 -10 3 -5 13 -10 21 -10 8 0 14 -4
14 -9 0 -5 16 -32 35 -60 20 -28 33 -56 30 -61 -4 -6 9 -10 29 -10 40 0 43 6
20 38 -13 18 -13 29 -4 57 6 19 15 35 20 35 5 0 20 -19 34 -42 19 -32 22 -46
15 -61 -6 -10 -9 -21 -6 -23 8 -8 37 8 35 20 -5 26 35 118 56 126 19 8 17 9
-10 9 -27 1 -33 -4 -39 -26 -6 -27 -7 -27 -20 -9 -8 10 -12 23 -9 27 3 5 -3 9
-13 10 -10 0 -33 2 -50 3 -18 2 -33 0 -33 -4z"/>
<path d="M1384 271 c-42 -26 -47 -36 -39 -77 8 -43 56 -78 95 -68 83 19 96
126 19 153 -41 14 -38 14 -75 -8z"/>
<path d="M1580 280 c-25 -4 -39 -8 -32 -8 10 -2 13 -19 10 -72 -3 -69 -3 -70
22 -70 24 0 26 3 22 35 -5 45 10 45 48 1 27 -30 70 -54 70 -38 0 3 -14 21 -32
39 -30 31 -31 33 -14 52 12 13 15 27 10 45 -7 28 -16 30 -104 16z"/>
<path d="M1895 200 l0 -80 50 6 c89 10 124 76 70 129 -19 20 -34 25 -72 25
l-48 0 0 -80z"/>
<path d="M440 3954 c0 -3 16 -12 35 -20 28 -11 40 -12 57 -3 72 39 204 -100
143 -151 -8 -7 -15 -17 -15 -23 0 -6 9 -2 21 10 33 33 28 87 -12 129 -18 19
-39 34 -45 34 -7 0 -16 5 -20 12 -5 8 72 10 317 5 178 -4 429 -7 558 -7 206 0
232 -2 221 -15 -7 -9 -29 -15 -54 -15 -22 0 -55 -9 -72 -19 -34 -21 -67 -81
-58 -105 3 -9 1 -23 -6 -31 -9 -11 -9 -15 -1 -15 20 0 38 23 34 44 -12 61 54
121 120 111 21 -3 37 -1 37 5 0 5 14 17 31 26 25 12 78 17 260 21 l229 6 0
-32 0 -32 -26 20 c-15 12 -32 21 -38 21 -6 0 -2 -6 9 -12 24 -14 54 -49 54
-63 0 -5 -3 -4 -6 3 -2 6 -9 12 -15 12 -6 0 -4 -8 5 -18 12 -13 18 -41 19 -93
l3 -74 -39 -3 c-52 -4 -92 13 -148 65 -50 46 -63 51 -71 29 -4 -9 0 -12 13 -9
12 3 29 -8 51 -32 39 -43 87 -67 134 -69 44 -1 48 -18 5 -18 -3 -1 -24 2 -48
6 -29 4 -41 3 -37 -4 3 -5 24 -10 46 -10 33 0 40 -3 37 -17 -5 -26 -34 -27
-65 -4 -14 12 -29 19 -32 15 -3 -3 6 -16 22 -28 32 -26 35 -40 6 -31 -16 5
-19 4 -14 -5 7 -12 61 -8 102 7 36 13 -5 -23 -47 -42 -37 -17 -53 -35 -30 -35
6 0 10 4 10 9 0 5 13 14 30 19 16 6 40 22 53 36 l23 25 2 -65 2 -65 -36 -15
c-26 -11 -54 -13 -109 -8 -65 6 -77 4 -103 -15 -40 -28 -58 -82 -42 -121 17
-41 73 -75 100 -60 11 6 20 15 20 21 0 6 -6 6 -17 1 -43 -23 -100 34 -88 87
10 47 48 64 150 71 50 4 98 10 108 14 13 6 16 5 11 -7 -8 -22 -57 -37 -118
-37 -34 0 -46 -3 -37 -9 17 -11 99 -5 136 9 29 11 33 -1 9 -24 -11 -11 -34
-16 -78 -16 -81 0 -98 -15 -51 -47 36 -24 43 -49 25 -83 -9 -16 -8 -18 5 -14
37 15 26 100 -15 111 -35 9 -21 25 18 21 20 -3 52 -1 70 3 24 5 32 4 32 -7 0
-8 5 -14 10 -14 7 0 10 74 10 208 -1 115 0 213 1 218 1 5 1 55 0 110 l-1 101
-900 2 c-495 0 -900 -2 -900 -5z"/>
<path d="M973 3913 c15 -2 34 -15 43 -28 14 -22 14 -26 -3 -49 -10 -14 -29
-26 -43 -28 -14 -1 20 -4 75 -7 100 -6 260 -1 218 7 -20 3 -23 9 -23 52 0 42
3 49 23 53 12 2 -54 4 -148 4 -93 0 -158 -2 -142 -4z"/>
<path d="M389 3835 c10 -16 10 -26 0 -50 -7 -16 -12 -33 -11 -37 1 -4 -10 -14
-26 -22 -38 -19 -64 -51 -60 -72 5 -27 27 -28 39 -2 17 38 99 86 99 59 0 -6
-7 -11 -15 -11 -8 0 -15 -4 -15 -9 0 -5 7 -11 15 -15 8 -3 15 -1 15 4 0 23 22
7 36 -25 18 -44 18 -45 -7 -45 -11 0 -18 -4 -15 -8 3 -5 7 -29 10 -55 5 -37 3
-48 -12 -57 -15 -10 -15 -10 3 -8 17 3 20 11 20 54 0 29 6 58 14 68 13 15 12
23 -1 64 -24 70 -29 100 -18 107 14 9 12 20 -8 45 l-18 22 -1 -23 c-3 -33 -23
-49 -23 -17 0 14 -7 32 -17 39 -15 13 -15 12 -4 -6z"/>
<path d="M1785 3691 c-44 -9 -86 -20 -93 -25 -7 -4 -16 -5 -19 -2 -11 10 -42
-25 -36 -40 4 -12 9 -11 20 6 10 15 18 18 27 11 7 -6 38 -13 70 -16 71 -7 89
-16 141 -72 22 -23 48 -43 57 -43 8 0 29 -7 44 -15 16 -8 38 -15 49 -14 14 0
12 3 -10 11 -36 13 -55 27 -55 40 0 6 7 4 17 -3 17 -15 93 -21 93 -7 0 4 -6 9
-12 9 -7 1 1 5 17 9 22 6 25 8 9 9 -21 1 -104 75 -104 92 0 10 -54 39 -72 38
-7 0 1 -7 17 -14 17 -7 39 -28 49 -47 l19 -33 -21 19 c-35 30 -25 4 13 -38 19
-21 35 -40 35 -43 0 -15 -67 39 -91 73 -27 40 -59 63 -59 44 0 -6 4 -10 9 -10
13 0 51 -63 44 -73 -3 -6 -11 -1 -17 10 -27 46 -61 83 -78 83 -15 0 -11 -7 17
-31 19 -17 35 -36 35 -42 0 -6 -7 -1 -16 11 -21 31 -50 44 -114 52 l-55 6 72
13 c74 13 118 33 92 43 -8 2 -50 -2 -94 -11z"/>
</g>
</svg>
