<?xml version="1.0" standalone="no"?>
<!DOCTYPE svg PUBLIC "-//W3C//DTD SVG 20010904//EN"
 "http://www.w3.org/TR/2001/REC-SVG-20010904/DTD/svg10.dtd">
<svg version="1.0" xmlns="http://www.w3.org/2000/svg"
 width="233.000000pt" height="400.000000pt" viewBox="0 0 233.000000 400.000000"
 preserveAspectRatio="xMidYMid meet">
<metadata>
Created by potrace 1.15, written by Peter Selinger 2001-2017
</metadata>
<g transform="translate(0.000000,400.000000) scale(0.100000,-0.100000)"
fill="#000000" stroke="none">
<path d="M70 3950 c-13 -8 -14 -253 -15 -1945 0 -1065 2 -1941 5 -1945 3 -5
147 -11 320 -15 181 -5 311 -4 307 1 -5 5 -144 11 -310 14 l-302 5 -2 132 -2
133 757 2 c416 0 881 2 1032 3 151 1 293 0 315 -2 37 -4 40 -7 39 -31 -1 -26
-3 -27 -67 -30 -53 -2 -67 -6 -67 -19 0 -12 3 -13 15 -3 26 21 36 1 34 -68 -1
-37 1 -68 4 -69 28 -11 33 -1 29 66 -3 54 -1 69 11 74 27 10 37 -18 39 -111 2
-90 10 -113 24 -70 3 12 3 289 -1 615 -4 326 -8 1152 -10 1835 -2 684 -4 1285
-4 1336 l-1 92 -167 -1 c-93 -1 -160 -3 -150 -6 15 -4 17 -18 17 -118 0 -122
-4 -145 -26 -145 -11 0 -14 21 -14 96 0 115 -19 121 -22 6 -2 -68 -3 -64 -8
38 l-6 115 -2 -90 c-1 -55 -7 -96 -14 -103 -9 -9 -9 -12 0 -12 7 0 12 -11 12
-25 0 -16 -6 -25 -15 -25 -13 0 -15 19 -13 128 l3 127 35 6 c19 4 -120 6 -310
5 -190 0 -261 -2 -158 -3 l188 -3 6 -25 c11 -46 0 -225 -15 -234 -11 -7 -12
-18 -3 -52 5 -24 11 -78 11 -119 3 -129 18 -185 72 -256 l47 -63 -31 -3 c-22
-2 -33 -9 -35 -22 -4 -18 -3 -18 12 -3 13 12 29 15 71 11 51 -5 55 -4 55 15 0
17 -6 21 -30 21 -19 0 -38 9 -55 27 -31 34 -32 43 -2 36 12 -3 19 -3 16 1 -4
4 -19 8 -35 10 -50 5 -36 22 16 20 28 -2 50 2 50 7 0 6 -12 8 -27 5 -16 -3
-41 -2 -58 3 l-30 9 40 3 c34 2 36 3 10 6 -51 7 -63 15 -35 23 24 8 24 8 3 9
-13 1 -23 6 -23 12 0 6 7 9 15 6 8 -4 17 -1 21 5 5 7 -2 9 -20 6 -23 -5 -27
-3 -23 13 3 11 1 19 -5 19 -5 0 -7 3 -5 8 6 9 -9 179 -18 208 -6 20 -4 20 167
18 95 -2 242 -3 326 -3 l152 -1 -1 -32 c0 -18 -3 -27 -6 -20 -7 17 -21 15 -26
-5 -4 -17 -5 -17 -6 0 0 9 -5 17 -10 17 -5 0 -12 -8 -14 -17 -4 -15 -5 -16 -6
-2 -1 17 -41 34 -41 18 0 -5 5 -9 10 -9 6 0 10 -4 10 -10 0 -18 -28 -11 -32 8
-6 21 -38 26 -38 5 0 -20 -20 -16 -21 5 0 9 -5 4 -11 -13 -6 -16 -15 -35 -19
-41 -5 -6 -6 -14 -3 -17 4 -4 15 4 26 18 12 16 26 22 41 20 30 -6 59 -43 52
-66 -4 -11 -2 -19 5 -19 6 0 9 4 6 9 -3 5 4 12 17 16 19 6 19 8 5 12 -20 5
-24 28 -6 39 6 4 19 -3 30 -16 22 -27 22 -34 4 -52 -8 -8 -11 -27 -9 -48 4
-34 4 -34 -9 -11 -15 28 -45 43 -35 19 3 -10 -3 -19 -19 -27 -23 -10 -35 1
-14 14 14 9 12 67 -4 88 -15 19 -51 23 -62 6 -3 -6 -1 -16 5 -22 20 -20 12
-31 -9 -12 -24 21 -25 17 -6 -20 14 -26 13 -29 -10 -48 -14 -10 -22 -22 -19
-25 3 -4 10 0 15 8 8 12 10 11 10 -6 0 -12 -7 -24 -15 -28 -19 -7 -36 24 -28
53 4 14 1 26 -8 32 -9 5 -10 9 -2 9 16 0 28 59 14 73 -6 6 -11 17 -11 25 0 12
3 12 15 2 12 -10 16 -9 21 4 3 8 4 21 1 28 -4 8 -6 6 -6 -4 -1 -10 -5 -18 -10
-18 -5 0 -12 8 -14 18 -4 16 -5 16 -6 0 -1 -21 -17 -24 -24 -5 -2 6 -3 4 -2
-5 4 -25 -12 -22 -27 5 l-12 22 -7 -25 -6 -25 -10 24 c-10 24 -10 24 -15 3 -4
-12 -2 -22 3 -22 5 0 9 -4 9 -10 0 -23 -20 -7 -29 23 -5 17 -10 24 -10 15 -1
-22 -21 -24 -21 -3 0 8 -5 15 -11 15 -6 0 -9 -7 -6 -15 4 -8 2 -17 -3 -20 -6
-4 -10 1 -10 9 0 22 -20 20 -20 -1 -1 -16 -2 -16 -15 1 -11 14 -15 16 -15 5 0
-12 -2 -12 -10 1 -8 12 -12 13 -19 2 -6 -11 -10 -10 -16 5 -7 17 -8 17 -15 -2
-7 -17 -9 -17 -9 -2 -1 9 -5 17 -10 17 -5 0 -12 -8 -14 -17 -4 -17 -5 -17 -6
0 0 9 -5 17 -11 17 -5 0 -10 -8 -11 -17 -1 -12 -4 -10 -9 7 l-8 25 -1 -27 c-1
-27 0 -27 71 -30 l73 -3 7 -50 c11 -82 29 -128 67 -169 73 -79 190 -102 273
-53 61 36 94 75 109 127 10 36 14 40 17 21 13 -79 -48 -157 -150 -192 -38 -13
-46 -18 -27 -18 34 -1 124 45 148 75 24 31 30 30 26 -3 -2 -16 -4 -48 -4 -72
l-1 -44 -57 6 c-37 4 -51 3 -38 -3 11 -5 37 -9 58 -9 32 -1 37 -4 37 -23 0
-18 -2 -20 -9 -9 -11 16 -111 28 -138 15 -26 -11 -93 -14 -93 -3 0 5 -15 9
-32 8 -28 0 -30 -2 -13 -9 l20 -9 -20 -1 c-11 -1 -28 -2 -37 -1 -10 1 -18 -2
-18 -8 0 -5 12 -11 27 -13 14 -2 28 -9 31 -16 3 -10 -11 -13 -64 -10 -54 2
-69 0 -69 -11 0 -8 6 -16 13 -19 7 -2 10 2 6 11 -5 13 5 15 58 14 59 -2 63 -1
62 21 -1 21 3 22 75 22 95 0 192 -16 203 -32 4 -7 8 -26 8 -42 0 -28 -1 -29
-15 -10 -14 19 -14 19 -15 0 0 -18 -1 -18 -12 -4 -19 23 -58 30 -59 10 0 -14
-1 -15 -7 -2 -4 8 -14 15 -22 15 -8 0 -18 -7 -22 -15 -5 -12 -7 -11 -7 4 -1
20 -1 20 -16 0 -14 -18 -14 -18 -15 0 0 16 -2 17 -17 5 -14 -12 -15 -12 -9 0
7 10 3 11 -15 6 -13 -5 -49 -8 -79 -8 -49 0 -51 0 -16 -6 22 -3 41 -12 44 -19
4 -12 -10 -12 -115 4 -18 3 -33 4 -33 2 0 -2 -6 -40 -14 -85 -14 -88 -6 -112
12 -40 l11 42 -3 -42 c-2 -24 -2 -43 1 -43 10 0 31 27 36 46 4 15 5 14 6 -6 1
-19 4 -21 10 -10 10 18 2 90 -10 90 -5 0 -9 5 -9 10 0 6 8 10 19 10 16 0 18
-8 16 -90 -1 -50 -5 -93 -9 -97 -3 -3 -6 8 -6 25 0 21 -5 32 -14 32 -9 0 -12
-7 -9 -21 5 -17 2 -19 -20 -14 -14 4 -35 2 -46 -5 -19 -10 -21 -8 -21 22 0 18
5 64 10 102 7 47 7 73 0 80 -7 7 -10 -1 -10 -25 0 -61 -21 -153 -39 -174 -29
-33 -32 -54 -20 -135 7 -43 9 -86 5 -95 -6 -17 -9 -16 -31 5 l-25 23 0 203 c0
202 0 203 23 207 19 4 18 4 -5 6 -19 1 -28 7 -28 17 0 11 5 14 18 9 13 -5 14
-3 5 6 -13 13 -33 4 -33 -17 0 -47 -87 39 -96 96 -4 21 -15 52 -25 69 -21 35
-99 80 -99 57 0 -7 10 -17 23 -21 l22 -8 -23 -4 c-34 -7 -16 -23 26 -24 33 -1
34 -2 12 -9 -14 -4 -35 -5 -47 -3 -14 3 -23 0 -23 -7 0 -9 14 -11 50 -8 28 3
50 1 50 -3 0 -8 -37 -13 -92 -12 -27 0 -22 -14 10 -29 26 -13 27 -17 32 -105
3 -50 9 -95 13 -100 5 -4 43 -8 85 -8 l77 0 1 -135 0 -135 -5 120 -6 120 -85
5 -85 5 -2 35 c-8 111 -16 160 -25 160 -6 0 -7 -15 -4 -37 3 -21 7 -63 8 -93
3 -49 1 -55 -18 -58 -18 -3 -23 5 -33 45 -7 26 -14 55 -17 64 -2 9 2 23 9 31
31 30 47 78 26 78 -5 0 -8 -4 -4 -9 3 -5 1 -12 -5 -16 -5 -3 -10 3 -10 14 0
12 -4 21 -8 21 -4 0 -8 -9 -8 -20 0 -11 4 -20 8 -20 4 0 8 -7 8 -15 0 -9 -6
-12 -15 -8 -10 3 -15 1 -13 -7 6 -27 -37 -18 -74 16 -33 29 -45 34 -86 33 -51
-1 -48 -4 12 -14 39 -7 86 -46 86 -73 0 -12 -3 -12 -15 -2 -13 10 -19 9 -37
-6 -21 -19 -21 -19 -15 4 3 15 1 22 -6 19 -13 -4 -19 -62 -10 -87 4 -11 8 -8
12 10 5 19 14 25 40 26 l34 2 -6 -54 c-6 -55 -33 -106 -67 -124 -24 -13 -73
12 -105 54 -30 39 -46 125 -24 127 57 4 65 2 77 -16 11 -18 12 -15 7 20 -7 41
-19 55 -45 54 -11 -1 -10 -3 3 -6 24 -6 21 -23 -4 -23 -11 0 -29 -5 -40 -10
-15 -9 -19 -7 -19 6 0 9 9 18 21 21 15 4 17 8 8 14 -10 6 -10 11 2 25 13 16
12 16 -7 6 -39 -20 -47 -38 -35 -73 14 -42 13 -126 -2 -163 -11 -25 -14 -26
-25 -13 -9 11 -10 22 -2 42 13 35 23 148 12 141 -5 -3 -14 10 -20 28 -10 26
-10 40 1 65 12 29 15 30 27 16 12 -15 12 -18 -3 -26 -9 -6 -17 -15 -17 -22 0
-6 10 -1 22 11 21 21 21 24 7 49 -14 25 -15 63 -3 63 21 0 44 -24 39 -39 -8
-27 18 -45 45 -31 18 10 21 17 15 46 -3 21 -2 34 5 34 5 0 10 7 10 15 0 8 5
15 10 15 6 0 10 -6 10 -14 0 -8 7 -17 16 -20 15 -6 15 -8 -1 -27 -16 -17 -17
-21 -4 -34 8 -7 28 -16 44 -19 l30 -6 -27 11 c-31 12 -31 12 -19 56 7 26 7 31
-5 26 -8 -3 -14 1 -14 9 0 20 -20 37 -37 31 -7 -3 -21 -19 -29 -36 -13 -24
-14 -31 -2 -38 9 -6 10 -13 3 -25 -13 -21 -30 -19 -31 4 -3 46 -4 48 -36 47
-26 0 -33 -5 -41 -30 -6 -16 -15 -33 -21 -37 -6 -4 -7 -8 -3 -8 4 0 3 -9 -3
-21 -9 -16 -14 -18 -26 -8 -11 9 -14 7 -14 -10 0 -11 -4 -21 -10 -21 -5 0 -10
8 -10 17 0 9 -3 13 -7 9 -4 -4 -10 -55 -13 -114 l-5 -107 -90 0 -90 0 -7 -40
c-4 -22 -7 -66 -7 -97 -1 -89 -21 -82 -23 9 0 43 -2 94 -2 113 l-1 35 95 3
c52 2 98 6 102 10 4 4 8 48 9 97 1 57 7 97 15 110 23 32 17 45 -21 45 -34 0
-47 -13 -22 -23 7 -3 5 -6 -5 -6 -12 -1 -18 6 -18 19 0 20 26 26 83 22 9 -1
17 3 17 9 0 7 -17 10 -45 7 -25 -2 -45 0 -45 4 0 5 18 8 41 8 26 0 38 4 33 11
-3 6 -17 8 -30 5 -13 -4 -24 -2 -24 3 0 5 11 11 24 13 18 2 22 7 16 23 -7 19
-9 18 -42 -15 -26 -26 -39 -50 -47 -88 -15 -73 -24 -86 -79 -124 -26 -17 -52
-39 -59 -47 -9 -11 -12 -64 -13 -168 0 -83 -4 -154 -9 -157 -5 -3 -28 21 -52
53 -24 33 -48 59 -54 58 -6 -1 -11 30 -13 76 -2 66 1 85 19 115 12 20 29 57
39 82 10 25 31 60 47 77 16 17 37 50 47 74 10 24 26 60 34 79 14 31 35 219 26
229 -2 2 -4 -3 -4 -12 0 -13 -10 -17 -47 -19 l-48 -1 40 -6 c29 -4 40 -11 42
-24 1 -15 -4 -17 -22 -13 -13 3 -27 2 -30 -4 -4 -6 6 -10 23 -10 25 0 30 -4
30 -26 0 -26 -1 -26 -54 -21 -33 3 -52 2 -49 -4 4 -5 26 -9 51 -9 24 0 44 -4
44 -8 0 -4 -29 -6 -65 -4 -40 3 -65 0 -65 -6 0 -5 6 -10 13 -9 68 2 107 -4
107 -19 0 -23 -21 -58 -29 -47 -8 13 -93 24 -85 12 3 -5 17 -10 32 -10 24 -1
23 -3 -8 -9 -34 -7 -34 -7 13 -9 26 0 47 -6 47 -11 0 -6 -15 -8 -37 -4 -21 3
-56 1 -78 -4 -22 -6 -32 -10 -22 -11 9 -1 17 -6 17 -12 0 -6 -9 -8 -20 -4 -11
4 -20 2 -20 -4 0 -6 5 -11 10 -11 20 0 9 -16 -21 -29 -18 -8 -34 -22 -36 -32
-3 -11 -14 -19 -24 -19 -10 0 -20 -4 -23 -9 -3 -5 -15 -7 -27 -4 -16 4 -17 8
-7 14 9 6 5 9 -13 9 -14 0 -28 -2 -31 -5 -3 -3 -54 -7 -114 -8 -121 -3 -175 4
-109 14 l40 6 -40 3 c-39 2 -39 3 -10 10 l30 8 -27 1 c-23 1 -28 6 -28 26 0
22 3 24 33 19 24 -4 28 -3 17 5 -8 6 -24 11 -35 11 -17 0 -17 2 -5 10 13 8 12
10 -2 10 -18 0 -23 11 -11 23 3 4 16 -1 27 -12 43 -39 140 -81 187 -81 82 0
147 26 204 84 44 44 56 64 80 139 18 54 34 87 42 87 8 0 11 5 8 10 -14 23 -43
-12 -59 -72 -43 -154 -126 -228 -259 -230 -88 -1 -190 51 -223 114 -16 31 -21
233 -5 223 5 -3 10 -31 10 -63 0 -33 7 -71 17 -92 21 -41 98 -118 132 -131 30
-12 102 -12 102 0 0 5 9 7 20 4 16 -4 19 -2 14 11 -3 9 -2 16 4 16 6 0 12 -6
14 -12 3 -9 17 -4 46 14 33 22 50 45 82 112 22 47 40 96 40 110 0 14 4 27 8
30 4 2 42 6 84 7 l76 3 6 35 c3 22 1 41 -8 51 -20 24 -21 244 0 264 14 15 4
16 -103 14 l-118 -2 100 -6 c65 -3 94 -8 83 -14 -16 -7 -18 -25 -20 -135 -1
-93 -3 -112 -8 -71 -4 39 -8 50 -14 38 -4 -10 -6 -24 -3 -30 2 -7 0 -22 -4
-33 -6 -15 -8 -8 -8 25 1 62 -2 71 -11 30 -5 -22 -7 5 -5 70 4 112 -3 92 -24
-70 l-10 -75 5 76 c4 50 2 79 -5 84 -8 4 -11 -19 -11 -74 0 -89 -19 -115 -21
-28 -1 28 -3 45 -4 37 -2 -8 -7 -33 -12 -55 -6 -32 -9 -15 -13 85 -5 120 -5
123 -17 80 l-12 -45 2 48 c1 26 -1 47 -5 47 -5 0 -9 -28 -9 -62 -1 -35 -5 -90
-9 -123 -7 -55 -8 -54 -4 20 2 44 4 101 4 128 0 37 3 47 17 47 22 0 8 13 -17
15 -19 2 -20 -5 -20 -137 0 -95 -3 -138 -11 -138 -8 0 -10 33 -7 110 2 60 1
115 -4 122 -4 7 -8 -20 -9 -62 0 -41 -4 -97 -9 -125 l-7 -50 -2 49 c-1 56 -17
53 -24 -4 -2 -19 -2 6 1 56 5 93 -3 184 -16 184 -4 0 -7 -64 -6 -142 1 -79 -1
-113 -3 -75 -2 37 -8 67 -13 67 -6 0 -11 -30 -12 -67 l-1 -68 -7 65 -7 65 -1
-62 c-1 -38 -6 -63 -13 -63 -7 0 -10 41 -7 129 2 71 1 127 -2 124 -3 -2 -10
-62 -16 -131 l-11 -127 -3 125 c-2 84 -5 112 -10 85 -6 -38 -7 -39 -14 -14
-12 43 -4 72 21 74 48 3 34 15 -15 14 l-52 -2 0 -119 c0 -98 3 -118 15 -118 8
0 15 -9 15 -20 0 -15 -7 -20 -25 -20 l-25 0 4 140 c1 77 0 138 -3 134 -8 -7
-8 -9 -9 -151 -1 -68 -6 -123 -10 -123 -5 0 -6 63 -4 140 3 99 1 140 -7 140
-6 0 -10 -8 -9 -17 4 -54 -3 -263 -9 -263 -5 0 -7 63 -5 140 2 93 -1 140 -8
140 -6 0 -10 -49 -10 -141 0 -91 -4 -138 -10 -134 -6 4 -7 23 -4 46 4 26 2 49
-7 65 -11 22 -11 27 1 34 10 7 11 10 3 10 -16 0 -17 27 -2 32 6 2 9 22 7 45
-2 34 -6 41 -18 33z m1708 -77 c2 -43 -1 -63 -9 -63 -7 0 -9 11 -5 34 4 19 3
37 -2 40 -5 3 -9 -27 -10 -67 0 -50 2 -65 8 -47 6 20 8 14 9 -29 2 -92 13 -48
21 81 l7 123 1 -110 c1 -60 -1 -120 -4 -132 -8 -27 -43 -31 -45 -5 -1 16 -2
16 -6 0 -2 -10 -9 -18 -14 -18 -6 0 -8 4 -4 9 3 5 1 12 -4 15 -5 4 -12 -2 -14
-11 -3 -10 -6 2 -7 27 -2 41 -2 43 -10 17 -5 -16 -6 -35 -3 -43 3 -8 0 -14 -7
-14 -10 0 -12 21 -8 85 3 47 2 88 -3 91 -5 3 -9 -35 -9 -85 0 -59 -4 -91 -11
-91 -7 0 -10 32 -9 93 2 119 -2 133 -10 32 l-6 -80 -2 93 c-1 51 -6 91 -10 88
-4 -2 -9 -53 -11 -113 -1 -59 -4 -110 -7 -112 -2 -2 -4 55 -4 128 l0 132 93
-3 92 -3 3 -62z m340 58 c23 -1 32 -6 33 -18 1 -17 2 -17 6 0 2 9 9 17 14 17
6 0 8 -51 7 -127 -3 -120 -4 -128 -23 -128 -19 0 -20 8 -25 115 l-6 115 -4
-113 c-3 -65 -9 -112 -15 -111 -5 0 -9 11 -8 25 1 13 -2 24 -8 24 -5 0 -9 -11
-9 -25 0 -14 -4 -25 -10 -25 -5 0 -10 7 -10 15 0 21 -18 19 -23 -2 -3 -11 -5
-7 -6 10 -1 34 -21 36 -21 2 0 -14 -5 -25 -11 -25 -6 0 -8 7 -5 16 3 9 6 64 6
124 0 105 1 109 23 112 12 2 31 3 42 2 11 -1 35 -3 53 -3z m-1515 -269 l117
-2 0 -30 c0 -21 -5 -30 -16 -30 -8 0 -12 5 -9 10 3 6 1 10 -4 10 -6 0 -11 -6
-11 -12 0 -9 -4 -8 -10 2 -9 13 -11 13 -20 0 -9 -13 -10 -13 -10 0 0 13 -1 13
-10 0 -9 -13 -11 -13 -20 0 -8 12 -10 12 -10 -5 -1 -19 -1 -19 -14 -2 -15 19
-27 23 -23 6 1 -6 -4 -14 -10 -16 -7 -3 -13 2 -13 11 0 22 -20 20 -20 -1 -1
-17 -2 -17 -14 0 -14 18 -15 18 -25 0 -9 -16 -10 -16 -11 5 0 13 -4 20 -10 17
-6 -4 -8 -11 -5 -16 4 -5 1 -9 -4 -9 -6 0 -11 7 -11 15 0 8 -4 15 -10 15 -5 0
-10 -10 -10 -22 0 -21 0 -21 -16 -2 -13 16 -15 16 -10 2 3 -10 1 -18 -4 -18
-6 0 -10 7 -10 15 0 21 -20 19 -20 -2 -1 -16 -2 -16 -15 1 -11 14 -15 16 -15
5 0 -12 -2 -12 -10 1 -9 13 -11 13 -19 0 -11 -17 -5 -30 14 -30 11 0 13 -8 8
-30 -4 -22 0 -36 13 -51 16 -18 16 -21 2 -35 -11 -11 -14 -27 -11 -53 4 -26 0
-41 -11 -50 -13 -11 -16 -11 -17 0 0 8 -2 23 -5 34 -2 11 -5 31 -6 45 -2 14
-10 28 -18 32 -10 4 -7 7 10 7 20 1 22 3 10 11 -12 8 -12 10 -1 10 8 0 11 3 8
6 -3 4 -2 15 4 25 7 14 5 25 -6 42 -8 14 -13 32 -9 41 3 9 1 16 -5 16 -6 0
-11 -9 -11 -20 0 -25 -16 -26 -29 -2 -10 16 -10 16 -11 0 0 -10 -4 -18 -10
-18 -5 0 -10 7 -10 15 0 8 -4 15 -10 15 -5 0 -10 -7 -10 -16 0 -8 -5 -12 -10
-9 -6 4 -8 11 -5 16 4 5 1 9 -4 9 -6 0 -11 -8 -11 -17 -1 -16 -2 -16 -15 1 -8
11 -15 14 -15 8 0 -7 -4 -12 -10 -12 -5 0 -10 7 -10 15 0 9 -7 15 -17 13 -10
-2 -19 4 -21 14 -3 15 8 18 95 20 120 4 279 4 436 0z m-146 -87 c8 -9 23 -13
33 -10 13 4 24 -2 35 -19 14 -21 14 -28 4 -48 -7 -13 -12 -27 -11 -32 2 -5 -4
-6 -13 -2 -13 4 -15 1 -10 -14 6 -20 -9 -28 -20 -10 -14 23 -24 7 -23 -34 2
-36 -2 -49 -21 -66 -14 -11 -26 -18 -28 -16 -8 7 17 56 29 56 6 0 3 6 -8 14
-16 13 -17 18 -6 35 29 49 -2 140 -43 125 -19 -8 -19 -18 -1 -47 15 -23 6 -67
-13 -67 -7 0 -6 10 1 26 11 24 10 29 -10 42 -29 19 -28 38 3 58 23 15 27 15
51 -1 19 -12 29 -14 37 -6 8 8 6 11 -7 11 -9 0 -14 5 -11 10 8 14 14 13 32 -5z
m1491 -7 c17 -17 15 -38 -4 -59 -11 -12 -14 -24 -8 -36 4 -10 9 -29 10 -42 3
-25 31 -61 47 -61 15 0 36 33 37 57 0 12 5 25 10 28 18 11 11 -43 -10 -77 -11
-18 -20 -41 -20 -51 0 -25 -34 -18 -39 8 -2 11 -14 33 -27 48 -32 38 -40 88
-20 128 21 43 7 60 -32 38 -28 -16 -27 -10 -21 -126 1 -12 12 -34 25 -48 31
-33 30 -36 -5 -24 -30 11 -66 53 -57 67 3 4 1 14 -4 22 -7 11 -11 11 -24 1
-13 -11 -16 -11 -17 0 -1 8 0 18 1 24 1 5 -4 27 -11 48 -11 32 -10 40 2 48 34
21 68 -1 48 -32 -8 -12 -10 -12 -18 1 -6 8 -13 11 -17 7 -4 -4 -1 -15 8 -23
14 -14 19 -12 56 25 41 42 68 51 90 29z m-1385 -425 c-3 -32 -13 -69 -22 -83
-10 -14 -25 -40 -35 -57 -12 -24 -24 -33 -41 -33 -13 0 -27 -5 -31 -11 -4 -8
0 -9 15 -4 22 7 30 -9 9 -19 -7 -4 -3 -4 9 -2 26 4 21 -20 -5 -28 -10 -3 -5
-4 11 -2 23 3 27 -1 27 -20 0 -16 -6 -24 -17 -25 -17 -1 -17 -2 -1 -6 19 -5
34 -46 49 -138 20 -116 22 -155 10 -155 -7 0 -9 -5 -6 -11 10 -15 34 21 35 50
l0 24 20 -26 c24 -31 25 -50 3 -72 -13 -13 -13 -19 -3 -25 15 -9 1 -61 -18
-68 -9 -3 -10 3 -2 25 9 26 9 27 -5 9 -11 -14 -15 -16 -15 -5 -1 8 -7 3 -15
-11 -10 -18 -14 -20 -15 -8 0 9 -4 19 -9 22 -5 4 -7 -3 -4 -14 6 -22 -12 -27
-37 -10 -13 9 -13 11 0 20 12 8 10 10 -10 8 -17 -2 -24 2 -22 11 1 7 -3 19 -9
27 -6 8 -13 40 -15 71 -2 36 0 52 6 43 5 -8 13 -11 17 -6 4 4 -1 14 -11 22
-20 14 -20 14 0 14 18 1 18 1 2 11 -23 13 -23 38 0 56 16 13 15 14 -8 9 l-25
-5 22 18 c21 18 22 19 3 24 -20 5 -24 46 -5 59 6 5 6 8 -3 8 -8 0 -11 9 -8 25
3 13 0 27 -5 31 -5 3 -6 10 -3 16 4 6 0 14 -7 19 -11 8 -10 13 9 28 23 20 29
41 12 41 -5 0 -10 5 -10 10 0 6 6 9 12 8 7 -2 14 8 15 22 10 85 13 90 41 88
15 -1 34 2 42 7 8 4 1 -7 -17 -26 -32 -34 -54 -89 -35 -89 5 0 12 14 16 31 3
16 19 41 36 55 16 14 30 32 30 39 0 17 18 65 24 65 3 0 2 -26 -1 -57z m-146
-8 c17 -6 -3 -62 -22 -62 -8 0 -15 4 -15 9 0 5 -8 8 -17 6 -10 -1 -24 1 -30 5
-9 6 -13 1 -14 -15 -1 -15 -3 -17 -6 -7 -6 24 -43 32 -44 11 0 -14 -2 -13 -9
3 -8 19 -9 19 -16 -5 l-8 -25 -6 25 -6 25 -6 -27 c-4 -24 -2 -28 18 -28 20 0
24 -5 24 -30 0 -16 5 -30 10 -30 6 0 10 -7 10 -15 0 -8 4 -15 9 -15 6 0 12 21
14 48 2 26 4 -43 6 -153 1 -116 6 -192 10 -180 5 11 7 83 6 160 -2 77 1 158 5
180 6 29 8 8 9 -77 1 -83 5 -118 14 -121 10 -3 10 -9 0 -26 -15 -24 -17 -75
-4 -66 6 3 6 -7 0 -27 -12 -45 -11 -340 2 -332 6 3 7 19 4 36 -5 21 -4 28 4
24 8 -5 11 -82 11 -246 0 -162 4 -241 11 -246 8 -4 10 48 7 184 -2 123 0 188
7 181 5 -5 8 -34 7 -64 -1 -32 2 -55 8 -55 5 0 10 12 10 27 0 14 3 24 6 20 4
-3 7 -39 7 -79 0 -40 2 -63 4 -50 3 12 9 22 14 22 6 0 7 -14 3 -35 -6 -36 10
-51 19 -17 3 9 5 -72 6 -180 1 -147 4 -197 13 -195 19 4 22 -36 3 -49 -15 -11
-16 -27 -11 -136 9 -205 10 -209 16 -53 l6 150 0 -190 c1 -104 -2 -172 -6
-150 -6 39 -7 39 -14 13 l-8 -27 -29 21 c-19 15 -48 23 -86 26 -54 3 -61 1
-93 -29 -54 -49 -70 -79 -70 -130 0 -25 -5 -50 -12 -57 -9 -9 -9 -12 3 -12 9
0 22 -11 29 -25 7 -14 19 -25 27 -25 7 0 13 -3 13 -7 0 -11 -80 -43 -105 -43
-11 0 -35 -9 -52 -20 l-33 -20 0 35 c0 19 5 35 11 35 11 0 8 61 -6 141 -4 23
-3 39 4 43 14 9 15 236 1 236 -6 0 -9 23 -8 53 l1 52 7 -45 7 -45 1 52 c1 28
-2 55 -8 58 -13 8 -13 55 0 55 6 0 10 11 10 25 0 14 -4 25 -10 25 -5 0 -10 9
-10 21 0 11 5 17 10 14 15 -10 13 188 -2 204 -10 11 -10 14 0 18 13 5 17 99 4
107 -4 2 -7 127 -6 278 2 431 5 546 14 513 6 -25 8 -20 9 28 1 37 -3 56 -9 52
-5 -3 -10 1 -10 9 0 9 5 16 10 16 6 0 9 26 8 63 l-1 62 -7 -55 c-4 -30 -7 -43
-8 -29 -1 15 -5 41 -8 58 -6 27 -4 31 15 31 17 0 21 -6 21 -34 0 -51 18 -54
22 -4 3 40 5 43 36 46 26 3 32 7 32 28 0 30 -20 32 -21 2 -1 -21 -1 -22 -7 -3
-10 30 -54 26 -70 -5 -12 -23 -13 -23 -8 -3 2 13 0 25 -4 28 -5 3 -11 -7 -13
-22 -3 -20 -4 -16 -6 14 0 24 4 45 12 50 30 19 271 18 334 -2z m908 -151 c34
-196 44 -261 50 -314 11 -99 14 -119 26 -159 10 -35 9 -42 -11 -71 -12 -17
-26 -28 -31 -23 -17 17 -55 449 -41 466 7 8 6 29 -4 67 -13 52 -20 139 -9 128
3 -2 12 -45 20 -94z m-344 -16 c-15 -43 -14 -78 4 -84 12 -5 14 -20 9 -78 -13
-157 -35 -380 -38 -384 -2 -2 -16 13 -31 32 -30 40 -30 45 -2 241 8 61 20 146
26 190 5 44 16 105 23 135 l13 55 3 -38 c2 -22 -1 -53 -7 -69z m990 30 c1 -66
4 -64 14 16 l7 49 81 -6 c45 -3 94 -10 110 -16 26 -10 27 -12 25 -88 l-1 -78
-7 60 c-5 48 -8 56 -15 40 -9 -18 -10 -16 -16 15 -6 34 -6 34 -8 -10 -1 -33
-4 -41 -11 -30 -5 8 -10 26 -10 40 0 18 -3 21 -12 12 -9 -9 -9 -18 1 -38 8
-19 14 -130 18 -361 3 -183 8 -331 10 -329 2 2 4 131 3 286 0 177 3 279 9 275
6 -3 12 17 14 47 2 34 4 20 5 -39 1 -54 6 -93 12 -93 6 0 10 -25 10 -55 0 -34
-4 -55 -11 -55 -9 0 -10 -69 -4 -262 4 -145 7 -281 5 -303 -4 -59 0 -786 4
-885 3 -52 1 -77 -4 -65 -5 11 -9 70 -10 130 -1 61 -6 121 -11 135 -6 16 -7
-10 -4 -75 3 -55 5 -126 5 -157 0 -45 3 -58 15 -58 12 0 15 -16 15 -85 0 -50
-4 -85 -10 -85 -5 0 -10 3 -10 8 0 4 -13 13 -30 20 -31 14 -36 27 -20 52 8 13
10 12 10 -3 0 -10 5 -15 10 -12 6 3 10 -3 10 -14 0 -38 18 -22 22 20 4 41 -7
64 -15 32 -3 -10 -5 5 -6 32 -1 28 -6 57 -11 65 -9 13 -10 13 -10 0 -1 -25
-20 10 -20 36 0 12 -11 29 -24 37 -13 9 -31 23 -40 32 -20 21 -130 33 -140 16
-4 -6 -16 -11 -27 -11 -11 0 -24 -10 -30 -22 -5 -13 -16 -34 -24 -48 -33 -56
-8 -171 43 -205 34 -21 40 -35 18 -35 -7 0 -16 -9 -19 -20 -7 -27 -48 -26 -74
3 -17 17 -22 37 -23 92 -3 88 -2 98 10 90 6 -4 10 6 10 22 0 15 3 46 7 67 4
28 3 37 -5 32 -7 -4 -13 -28 -14 -54 -2 -26 -5 185 -8 468 -3 283 -2 529 1
545 4 17 7 -76 8 -205 1 -133 6 -242 11 -250 6 -10 10 64 10 218 0 148 4 232
10 232 6 0 11 10 11 23 l2 22 4 -22 c5 -24 23 -32 23 -10 0 6 -6 29 -13 49
-12 34 -14 35 -25 17 -7 -10 -12 -26 -12 -34 0 -9 -4 -14 -9 -11 -6 4 -5 21 0
44 17 64 19 68 28 53 5 -7 10 17 13 60 6 77 2 103 -13 93 -5 -3 -4 7 1 21 6
15 10 53 10 86 0 33 4 59 10 59 6 0 10 44 10 111 0 71 4 108 10 104 6 -3 10 4
10 17 0 18 -2 20 -10 8 -7 -11 -10 0 -10 38 0 32 4 51 10 47 13 -8 24 40 14
62 -6 14 -9 11 -14 -17 -7 -34 -7 -34 -9 12 -1 45 0 47 22 39 17 -7 21 -15 19
-39 -4 -38 4 -53 23 -45 10 3 15 19 15 47 0 30 -3 37 -10 26 -11 -17 -13 -10
-4 14 3 9 12 16 20 16 10 0 14 -16 15 -62z m-546 -48 c16 -7 12 -9 -20 -11
-33 -2 -35 -3 -12 -6 16 -3 36 -1 45 2 14 6 105 9 130 5 4 -1 -2 -5 -13 -10
-17 -7 -17 -9 -2 -9 9 -1 17 -8 17 -17 0 -12 -7 -15 -30 -12 -16 3 -30 1 -30
-3 0 -4 15 -9 32 -11 27 -2 33 -7 33 -28 0 -23 -5 -25 -53 -30 -30 -3 -56 -2
-58 2 -3 4 -17 9 -32 9 -24 2 -24 2 -4 6 36 7 25 18 -18 18 -21 1 -41 3 -43 5
-2 3 -7 26 -10 53 -7 46 -6 47 21 46 15 0 36 -4 47 -9z m-495 -37 c0 -9 -9
-11 -30 -6 -19 3 -30 1 -30 -6 0 -6 15 -12 33 -13 27 -1 26 -2 -13 -8 l-45 -7
38 -1 c20 -1 37 -7 37 -13 0 -7 -11 -9 -30 -5 -17 3 -30 1 -30 -4 0 -6 6 -10
13 -11 6 0 -3 -7 -21 -15 -18 -8 -35 -21 -38 -28 -5 -14 41 -98 58 -104 4 -2
6 -8 3 -13 -4 -5 1 -6 9 -3 13 5 16 -1 16 -30 0 -49 -19 -46 -53 8 -15 24 -35
50 -45 58 -15 12 -15 11 1 -14 24 -38 16 -35 -32 13 -30 30 -35 40 -20 36 17
-5 18 -3 7 10 -10 13 -9 18 10 33 30 25 28 30 -10 29 -30 -1 -31 -2 -8 -8 14
-4 20 -10 14 -13 -6 -4 -20 -4 -32 -1 -19 5 -22 12 -22 62 0 32 2 60 5 62 2 3
52 5 110 5 79 0 105 -3 105 -13z m887 -100 c3 -8 -7 -11 -34 -8 l-38 5 33 -12
c17 -6 32 -17 32 -24 0 -17 -52 -128 -62 -132 -15 -7 -8 -24 7 -19 8 4 17 2
20 -3 6 -10 -33 -25 -42 -16 -9 8 13 100 33 143 19 39 17 44 -14 36 -17 -4
-22 -13 -22 -37 0 -17 -4 -58 -9 -91 -5 -33 -12 -80 -15 -105 -4 -25 -11 -70
-16 -100 -5 -30 -14 -98 -20 -150 -20 -178 -52 -375 -61 -385 -10 -11 -3 95
12 165 5 25 18 113 29 195 26 198 49 357 54 371 3 6 -1 17 -7 23 -9 9 -9 14 0
19 6 4 15 32 18 62 4 32 14 60 24 68 19 15 73 12 78 -5z m-243 -85 c4 -20 2
-34 -4 -36 -17 -6 -134 -102 -138 -113 -2 -5 -10 -9 -18 -9 -10 0 -14 12 -14
39 0 35 6 44 63 95 73 65 101 71 111 24z m-423 -8 c10 0 19 -7 19 -15 0 -8 -4
-15 -10 -15 -5 0 -10 -7 -10 -15 0 -9 -6 -12 -17 -8 -12 4 -11 0 5 -11 26 -20
42 -14 35 14 -4 15 0 20 13 21 11 0 14 3 7 6 -23 9 -14 21 20 26 41 6 57 -7
57 -49 0 -27 -4 -32 -20 -31 -11 1 -20 7 -20 14 0 6 -5 15 -12 19 -8 5 -9 0
-6 -14 4 -12 2 -25 -3 -28 -5 -3 -9 0 -9 6 0 6 -5 8 -11 5 -6 -5 -4 -12 8 -21
17 -12 16 -13 -10 -14 -16 0 -26 4 -23 9 3 5 -10 11 -29 13 -19 2 -35 0 -35
-4 0 -4 11 -8 25 -8 34 0 31 -13 -6 -27 -20 -8 -39 -9 -55 -3 -21 8 -23 12
-12 29 7 11 16 17 20 15 4 -3 8 0 8 5 0 15 -17 14 -26 -1 -5 -8 -12 -2 -20 17
l-13 30 -1 -27 c0 -14 6 -28 13 -31 6 -2 9 -7 6 -11 -13 -14 -39 7 -39 33 0
64 7 70 68 64 45 -4 54 -2 42 7 -13 10 -12 11 3 6 10 -3 27 -6 38 -6z m649
-128 c0 -14 -7 -18 -30 -16 -17 1 -33 -2 -36 -7 -3 -5 4 -9 15 -9 23 0 28 -16
9 -23 -7 -2 -9 -8 -5 -13 5 -5 15 -1 23 10 7 11 17 17 20 13 4 -4 1 -13 -6
-22 -10 -12 -10 -15 1 -16 10 0 11 -2 2 -6 -20 -7 -15 -23 5 -17 14 5 14 3 -2
-10 -19 -15 -19 -16 -2 -16 15 0 16 -3 6 -15 -10 -12 -10 -15 2 -15 10 0 14
-9 13 -27 -3 -42 -4 -43 -22 -43 -15 0 -14 -2 3 -15 10 -8 14 -15 8 -15 -6 0
-9 -13 -6 -30 6 -43 -34 -122 -61 -118 -29 4 -34 28 -6 28 28 0 23 5 -13 14
-22 5 -26 3 -22 -9 4 -8 1 -15 -5 -15 -6 0 -11 11 -11 24 0 23 3 24 38 20 l37
-4 -32 10 c-18 6 -33 15 -33 21 0 6 7 6 19 -1 25 -13 51 -13 51 1 0 6 -8 8
-18 5 -10 -4 -26 0 -36 7 -16 12 -17 20 -5 115 9 73 16 102 26 102 10 0 11 4
2 18 -19 31 -4 66 33 78 18 6 34 12 36 13 1 0 2 -7 2 -17z m-1090 -107 c-9
-11 -7 -12 9 -8 18 4 21 1 21 -23 0 -16 13 -67 29 -114 16 -47 32 -101 36
-120 11 -60 12 -64 19 -85 4 -11 19 -44 33 -73 30 -63 25 -87 -15 -77 -37 9
-45 19 -46 56 -1 18 -7 34 -15 37 -9 3 -11 0 -6 -8 5 -7 9 -27 10 -44 1 -17 0
-25 -2 -18 -3 6 -8 10 -12 8 -4 -3 -7 4 -7 15 0 10 4 19 9 19 4 0 5 6 0 13
-11 18 -12 37 -2 37 5 0 0 9 -11 20 -22 22 -26 40 -10 40 6 0 9 -5 8 -11 -2
-6 3 -14 10 -16 8 -3 10 2 6 14 -4 13 -3 15 4 4 5 -7 12 -9 15 -5 8 13 -1 105
-12 129 -18 38 -51 149 -51 173 0 13 -4 21 -10 17 -6 -4 -18 -4 -26 -1 -14 5
-13 8 0 28 9 12 17 34 18 48 1 19 2 17 5 -8 3 -18 -1 -39 -7 -47z m296 -1 c-5
-14 -4 -15 8 -5 17 14 31 -2 20 -21 -6 -10 -4 -10 8 0 14 11 18 10 27 -5 8
-13 10 -14 11 -3 0 13 2 13 14 0 17 -18 33 -220 18 -220 -6 0 -9 -8 -7 -17 1
-10 0 -12 -2 -5 -3 6 -8 12 -12 12 -8 0 -5 176 4 190 3 5 1 11 -4 14 -5 4 -12
2 -15 -3 -10 -16 -40 -5 -52 18 -7 14 -14 19 -19 12 -10 -17 5 -52 18 -45 7 4
1 -5 -12 -19 -20 -22 -22 -27 -8 -27 9 0 17 5 17 10 0 15 30 12 31 -2 1 -7 5
-2 10 12 7 20 8 17 4 -14 -2 -22 -9 -42 -14 -45 -17 -11 -20 -79 -4 -85 8 -3
11 -2 8 3 -3 5 -1 12 5 16 6 4 10 -5 10 -20 l0 -26 -27 19 c-43 31 -79 73
-103 119 -17 34 -25 41 -38 34 -14 -8 -17 -4 -16 20 3 65 3 65 23 35 11 -17
18 -33 15 -37 -2 -4 0 -10 6 -14 5 -3 10 -1 10 5 0 6 4 9 9 5 5 -3 13 0 16 6
4 5 13 8 21 5 10 -4 11 0 2 19 -12 26 -3 75 13 75 6 0 8 -7 5 -16z m144 -88
c0 -14 5 -28 10 -31 6 -4 10 7 10 24 0 19 5 31 14 31 16 0 26 -95 35 -344 4
-122 9 -171 19 -174 6 -2 12 -17 12 -33 0 -45 30 -26 31 20 l1 36 9 -30 c8
-26 6 -33 -17 -52 -34 -30 -41 -29 -36 7 3 18 0 30 -7 30 -16 0 -13 -78 5
-130 19 -51 19 -80 7 -312 -6 -133 -5 -171 5 -187 27 -39 -18 -90 -53 -61 -23
19 -18 32 6 19 17 -9 23 -8 30 2 12 19 11 25 -7 40 -14 11 -18 10 -30 -6 -8
-10 -17 -15 -21 -11 -4 4 -7 80 -5 169 1 89 -3 218 -8 287 -6 69 -12 226 -15
350 -2 124 -7 260 -11 303 -5 55 -4 77 5 77 6 0 11 -11 11 -24z m-285 -156 c3
-5 1 -10 -4 -10 -6 0 -11 -5 -11 -11 0 -5 5 -7 10 -4 6 3 10 0 10 -8 0 -8 9
-22 20 -32 13 -12 18 -26 15 -39 -3 -12 -2 -15 1 -8 9 19 27 14 20 -5 -4 -10
-4 -14 0 -10 13 13 54 -35 53 -62 0 -14 -3 -20 -6 -13 -4 10 -9 8 -19 -7 -13
-17 -12 -25 0 -53 12 -27 15 -29 15 -11 1 12 -3 24 -9 28 -5 3 -7 12 -3 21 5
13 7 12 18 -2 6 -9 17 -14 22 -11 11 7 63 -32 63 -46 0 -5 -4 -5 -10 -2 -5 3
-10 2 -10 -4 0 -16 18 -23 22 -9 3 9 9 8 22 -5 23 -23 34 -22 13 1 -19 21 -22
32 -7 32 6 0 10 -5 10 -11 0 -6 7 -17 15 -25 13 -13 22 -94 11 -94 -9 0 -94
41 -117 57 -34 23 -109 122 -109 144 0 9 -6 22 -13 28 -11 9 -33 65 -37 93 -1
4 -5 22 -10 39 -10 32 -6 49 10 49 5 0 12 -4 15 -10z m-175 -160 c0 -5 -4 -10
-10 -10 -5 0 -10 -5 -10 -11 0 -5 5 -7 12 -3 8 5 9 0 5 -15 -5 -22 -5 -22 21
-5 27 17 27 17 9 -3 -10 -11 -15 -27 -11 -37 7 -19 15 -20 34 -3 8 6 7 3 -3
-9 -17 -20 -14 -54 4 -54 4 0 6 -6 3 -14 -4 -9 6 -18 30 -27 37 -13 53 -39 40
-61 -17 -27 -10 -49 18 -64 16 -8 33 -12 38 -9 6 3 10 1 10 -4 0 -6 7 -11 15
-11 8 0 15 5 15 10 0 19 -32 60 -46 60 -10 0 -13 10 -9 40 3 25 1 40 -5 40 -6
0 -8 5 -4 12 5 8 0 9 -15 5 -18 -4 -20 -3 -10 9 18 22 2 30 -21 9 -20 -18 -20
-18 -9 14 9 27 9 35 -2 42 -10 6 -10 9 -2 9 13 0 53 -39 53 -52 0 -4 5 -8 11
-8 8 0 8 4 0 14 -9 10 -6 17 13 30 25 16 25 15 69 -42 35 -45 59 -64 116 -91
75 -37 88 -51 46 -51 -17 0 -25 -6 -26 -17 0 -11 -3 -13 -6 -5 -8 19 -23 14
-23 -9 0 -11 5 -17 10 -14 5 3 10 1 10 -5 0 -6 -6 -13 -14 -16 -15 -6 -11 -34
5 -34 4 0 6 6 3 14 -6 16 24 36 44 29 6 -3 12 2 12 11 0 21 16 21 24 0 8 -20
8 -99 0 -107 -4 -3 -17 1 -29 9 -17 11 -25 12 -30 3 -7 -11 18 -33 39 -34 5 0
10 -27 9 -60 0 -56 1 -56 4 -10 2 28 8 54 12 58 4 4 6 -62 3 -146 -5 -181 2
-261 28 -287 39 -39 118 12 105 69 -4 17 -10 31 -13 31 -9 0 4 345 13 360 6 9
9 9 16 -1 6 -11 11 -11 21 -1 9 9 9 12 -2 12 -11 0 -11 4 2 17 14 13 22 14 41
6 20 -9 27 -8 39 7 14 16 14 19 -1 35 -15 16 -15 17 7 5 29 -14 44 -3 19 14
-9 7 -17 17 -17 21 0 5 9 0 20 -10 22 -20 27 -7 10 26 -9 16 -14 17 -33 8 -22
-12 -22 -12 -3 9 23 26 56 14 57 -21 0 -21 1 -21 9 -2 14 33 11 45 -15 57 -14
6 -25 19 -25 28 0 22 39 72 50 65 5 -3 11 -1 15 4 3 6 17 3 35 -7 18 -10 24
-19 17 -24 -8 -5 -8 -10 1 -20 9 -11 5 -18 -18 -31 -21 -13 -33 -31 -40 -60
-6 -23 -16 -56 -21 -73 -5 -17 -9 -39 -9 -50 0 -11 -6 -28 -14 -39 -12 -18
-55 -214 -57 -260 l0 -20 -8 20 c-5 11 -4 31 1 45 5 13 6 36 3 50 -4 20 -3 22
6 10 8 -11 9 -5 5 28 -4 23 -2 42 3 42 5 0 11 14 13 30 3 17 1 30 -4 30 -4 0
-8 14 -8 30 0 17 -5 30 -10 30 -6 0 -8 -11 -5 -25 3 -14 7 -37 10 -51 3 -14 2
-31 -3 -37 -5 -7 -12 -24 -16 -39 -6 -25 -8 -27 -27 -15 -17 10 -22 9 -33 -6
-20 -27 0 -107 28 -108 15 -1 12 -3 -8 -8 -47 -10 -46 -33 0 -29 33 2 39 0 40
-17 0 -32 -49 -126 -63 -121 -7 3 -12 2 -10 -2 3 -12 -32 -56 -39 -49 -4 4 1
17 12 29 l19 23 -24 -20 c-13 -11 -33 -19 -45 -17 -17 2 -18 1 -6 -8 12 -9 10
-10 -10 -5 -14 4 -34 17 -46 30 -12 12 -30 25 -40 29 -23 7 -94 111 -94 137 0
11 -7 19 -15 19 -8 0 -15 -9 -15 -20 0 -24 32 -91 55 -114 12 -12 14 -20 5
-33 -7 -13 -10 -14 -8 -3 2 8 -9 31 -25 51 -15 20 -27 40 -27 46 0 14 -47 4
-61 -13 -16 -20 -46 -17 -53 4 -3 9 -4 -7 -2 -36 2 -32 0 -48 -5 -40 -7 10 -9
9 -9 -4 0 -26 -17 -22 -24 5 -9 34 -7 67 4 67 6 0 10 9 10 20 0 11 -5 20 -11
20 -6 0 -9 -7 -5 -15 7 -19 2 -19 -17 -1 -9 9 -19 11 -28 5 -11 -7 -11 -9 4
-9 13 0 17 -9 17 -38 0 -21 5 -43 12 -50 9 -9 9 -12 0 -12 -7 0 -12 5 -12 10
0 6 -6 10 -13 10 -9 0 -12 11 -9 35 3 21 0 35 -7 35 -6 0 -11 11 -11 25 0 31
-18 33 -30 3 -8 -19 -9 -15 -8 20 2 41 11 55 21 30 3 -7 4 14 3 47 -1 42 -5
59 -14 57 -6 -1 -12 4 -12 12 0 9 7 12 18 9 15 -4 19 2 19 29 0 18 0 44 1 58
1 14 1 43 0 64 -1 35 -2 37 -15 21 -11 -16 -13 -16 -13 -3 0 17 24 41 32 33 2
-3 3 9 0 25 -6 40 -17 45 -42 20 -32 -32 -23 -6 10 29 35 36 40 38 33 13 -5
-21 57 -82 82 -82 11 0 15 -12 15 -40 0 -32 -4 -40 -18 -40 -11 0 -24 10 -30
23 l-11 22 0 -22 c-1 -13 -5 -23 -9 -23 -5 0 -8 15 -7 34 0 19 -2 33 -6 31 -3
-3 -6 -21 -6 -42 l0 -38 54 -1 c42 0 53 2 49 13 -3 8 -1 11 4 8 6 -3 10 -2 10
4 0 5 -4 13 -10 16 -5 3 -10 15 -10 26 0 11 5 17 10 14 6 -4 8 -10 6 -14 -3
-3 3 -7 12 -7 9 -1 26 -4 37 -8 11 -5 15 -4 9 1 -6 4 -13 15 -17 24 -3 9 -31
29 -61 43 -60 28 -90 63 -80 90 5 13 1 15 -25 10 -27 -6 -31 -4 -31 16 0 18 3
20 13 11 10 -8 19 -7 33 3 16 13 17 17 5 28 -12 11 -13 10 -8 -4 4 -10 2 -18
-3 -18 -5 0 -11 9 -15 19 -4 13 -12 17 -25 14 -26 -7 -123 57 -175 115 -51 57
-69 89 -22 40 19 -20 48 -43 66 -52 17 -9 29 -21 26 -26 -3 -6 1 -7 9 -4 9 3
17 -2 20 -14 6 -19 56 -60 56 -47 0 4 -12 27 -27 52 -21 37 -24 47 -12 54 11
7 11 9 1 9 -7 0 -12 8 -10 18 1 9 -1 23 -6 30 -4 7 -5 19 -2 27 6 17 26 20 26
5z m-83 -166 c15 -11 36 -23 45 -27 16 -5 15 -10 -8 -52 -20 -35 -28 -68 -35
-148 -10 -111 -7 -135 23 -246 17 -65 19 -92 13 -233 l-6 -159 25 -20 c15 -12
26 -30 25 -42 0 -12 -3 -16 -6 -9 -7 18 -103 16 -117 -3 -8 -10 -15 -12 -26
-5 -10 6 -11 10 -2 10 6 0 12 5 12 11 0 5 -4 8 -9 5 -5 -3 -9 137 -10 317 0
177 -4 408 -7 512 l-6 190 30 -40 c17 -22 43 -49 59 -61z m1166 -421 c-2 -285
-5 -524 -8 -530 -5 -14 -42 -17 -69 -7 -11 4 -16 19 -16 50 0 38 4 45 30 59
45 23 54 48 44 124 -4 36 -8 156 -9 266 -1 200 -14 302 -46 353 -10 16 -5 32
25 95 20 41 36 83 36 91 0 9 4 16 8 16 4 0 6 -233 5 -517z m-166 377 c-5 -22
-3 -30 8 -30 8 0 15 -5 15 -10 0 -7 -7 -7 -20 0 -36 19 -55 -13 -25 -43 8 -8
11 -18 7 -22 -4 -4 2 -3 14 3 18 10 23 8 33 -15 7 -15 8 -29 3 -32 -5 -3 -7
-21 -5 -38 7 -42 33 -44 33 -3 0 19 5 30 14 30 15 0 11 -46 -5 -56 -5 -3 -9
-16 -9 -30 0 -13 -4 -24 -10 -24 -5 0 -7 8 -4 18 5 13 4 14 -4 3 -5 -7 -15
-10 -21 -7 -6 4 -11 0 -11 -8 0 -9 -5 -16 -11 -16 -6 0 -10 -15 -8 -32 3 -52
0 -65 -16 -72 -10 -4 -19 2 -25 17 -8 20 -9 20 -10 2 0 -16 -2 -17 -10 -5 -5
9 -5 19 1 27 12 14 2 73 -11 73 -5 0 -11 -15 -13 -32 -3 -25 -4 -23 -3 8 1 29
-3 41 -13 40 -8 -1 -16 5 -19 13 -3 8 0 11 7 7 18 -12 34 4 20 20 -9 11 -9 14
1 14 6 0 10 6 7 13 -2 6 -10 11 -16 10 -6 -2 -11 2 -11 8 0 6 9 9 20 6 15 -4
20 0 20 13 0 13 -5 17 -20 13 -16 -4 -19 -2 -14 11 3 9 10 14 14 11 5 -3 11
-1 15 5 3 5 11 10 16 10 6 0 7 -4 4 -10 -10 -16 11 -12 25 5 11 13 10 14 -4 9
-9 -3 -16 -1 -16 5 0 6 5 11 12 11 6 0 9 2 6 5 -3 3 -18 1 -34 -5 l-29 -10 30
27 c17 16 40 39 50 52 l20 24 -25 -7 c-24 -7 -24 -6 -6 8 29 24 39 19 33 -14z
m-1182 -610 c34 -21 49 -45 39 -61 -3 -5 0 -9 5 -9 6 0 11 -4 11 -10 0 -5 -6
-10 -12 -10 -7 0 -23 -16 -36 -36 -12 -19 -27 -32 -32 -29 -6 3 -10 2 -10 -3
0 -13 -49 -22 -56 -10 -3 5 -12 7 -19 4 -7 -2 -15 4 -18 15 -4 14 -10 17 -24
12 -15 -6 -16 -5 -5 9 9 11 10 18 2 23 -18 11 -11 51 18 88 23 31 33 36 66 37
22 0 53 -9 71 -20z m1616 -42 c22 -14 49 -77 49 -112 0 -10 -51 -56 -63 -57
-66 -6 -80 -3 -109 22 -25 20 -32 34 -32 63 0 27 -4 35 -14 31 -20 -7 25 46
51 61 30 17 87 14 118 -8z m-1876 -296 c-18 -4 -20 -19 -2 -25 9 -3 9 -7 -2
-20 -12 -16 -9 -21 12 -18 4 0 7 -6 7 -14 0 -8 -5 -15 -11 -15 -6 0 -9 -6 -6
-12 2 -7 9 -12 15 -11 6 1 29 -35 51 -81 27 -55 47 -85 61 -89 11 -3 22 -1 25
4 3 4 12 6 20 2 8 -3 15 -1 15 5 0 6 -6 12 -12 15 -10 3 -8 10 5 23 11 12 17
14 17 6 0 -7 5 -10 11 -6 8 5 8 9 -1 14 -10 6 -8 15 8 37 17 24 18 32 8 53 -7
14 -10 40 -6 60 5 35 6 35 18 12 10 -17 10 -27 3 -36 -12 -14 -5 -46 10 -46 5
0 9 3 9 8 0 16 61 71 74 66 8 -3 17 -1 21 5 3 6 -1 11 -11 11 -14 0 -14 3 -4
15 9 11 16 13 23 6 7 -7 15 -7 24 1 19 15 50 -15 50 -48 0 -20 -4 -25 -18 -21
-14 4 -19 1 -17 -11 2 -11 -5 -18 -20 -20 -16 -3 -22 -8 -18 -19 5 -11 2 -13
-9 -9 -11 4 -15 0 -13 -11 2 -10 -3 -18 -11 -18 -8 0 -15 -7 -17 -16 -2 -20
-39 -59 -55 -59 -6 0 -9 -6 -6 -12 7 -20 -22 -68 -41 -68 -11 0 -13 -3 -5 -8
8 -5 9 -13 3 -22 -6 -8 -10 -25 -10 -37 0 -14 -6 -23 -15 -23 -8 0 -15 -4 -15
-10 0 -5 5 -10 10 -10 16 0 12 -22 -7 -36 -17 -13 -17 -13 -1 -14 14 0 18 -8
16 -40 -1 -22 -5 -40 -10 -40 -4 0 -8 6 -9 13 0 9 -2 9 -6 0 -8 -22 -93 -14
-93 9 0 5 5 6 10 3 6 -3 10 1 10 9 0 9 -4 16 -10 16 -16 0 -12 22 7 36 11 8
13 13 6 14 -17 0 -17 27 -1 34 9 3 8 8 -4 16 -10 6 -18 16 -18 21 0 6 5 7 10
4 6 -3 10 -2 10 3 0 6 -7 13 -16 16 -9 3 -14 12 -11 20 4 9 -3 16 -15 20 -19
4 -20 7 -7 22 12 16 12 17 -3 12 -22 -9 -31 2 -16 19 9 11 7 15 -10 19 -23 7
-39 37 -23 42 17 6 13 22 -5 22 -11 0 -14 6 -9 20 4 13 1 22 -9 26 -19 7 -21
30 -3 37 7 3 5 6 -5 6 -21 1 -23 12 -6 29 9 9 8 12 -5 12 -20 0 -22 11 -5 28
9 9 9 12 -1 12 -17 0 -4 41 20 62 19 16 21 16 40 0 16 -14 17 -18 4 -20z
m1776 -71 c42 -28 110 -101 136 -145 7 -12 13 -32 13 -46 0 -19 3 -22 9 -11 7
10 13 12 23 5 30 -24 55 -14 68 27 8 22 17 42 21 45 4 2 7 -81 7 -186 l-1
-190 -42 0 c-42 0 -43 0 -55 47 -8 33 -8 49 -1 51 6 2 11 8 11 13 0 5 -3 8 -7
7 -12 -4 -143 139 -143 156 0 10 -83 125 -114 158 -14 15 -33 31 -43 36 -15 9
-15 12 -3 27 14 17 45 33 66 34 6 1 30 -12 55 -28z m-731 -65 c6 -8 26 -17 43
-19 18 -2 -22 -5 -88 -6 -110 -2 -118 -3 -95 -16 14 -8 33 -14 43 -15 9 0 17
-4 17 -10 0 -13 147 -13 155 0 9 14 56 1 78 -21 9 -10 17 -29 17 -42 0 -20 -5
-23 -35 -24 -19 -1 -35 3 -35 8 0 4 8 5 17 2 14 -5 13 -1 -5 25 -29 40 -38 46
-46 26 -4 -9 -13 -14 -22 -10 -9 3 -12 2 -9 -5 4 -6 -1 -19 -10 -29 -23 -25
-125 -17 -125 11 0 5 19 9 43 10 46 0 97 16 65 20 -23 2 -72 6 -99 8 -12 1
-17 5 -13 13 4 6 3 8 -3 5 -7 -5 -8 -20 -3 -44 5 -21 8 -38 7 -39 -1 -2 -21
15 -44 37 l-42 39 29 0 c17 0 30 5 30 10 0 6 -14 10 -31 10 -19 0 -28 4 -23
11 3 6 1 15 -6 19 -7 4 18 11 58 15 39 4 76 4 81 0 6 -3 14 1 17 9 8 20 18 20
34 2z m-574 -211 l22 -25 16 25 c9 14 21 23 27 20 5 -4 3 -13 -6 -21 -23 -24
-19 -47 6 -39 16 5 20 3 17 -6 -3 -8 -13 -13 -22 -13 -9 1 -16 -2 -16 -7 0 -5
8 -9 17 -9 9 0 14 -3 10 -6 -8 -9 21 -64 33 -64 19 0 10 -15 -16 -27 -25 -12
-26 -11 -20 13 4 15 2 32 -5 40 -22 26 -32 15 -27 -30 5 -38 3 -43 -8 -31 -8
7 -14 18 -14 24 0 6 -5 11 -11 11 -6 0 -9 -6 -6 -14 3 -8 -1 -17 -9 -20 -24
-9 -16 -26 16 -32 56 -12 31 -21 -60 -22 -79 -1 -91 1 -100 18 -13 24 -13 50
0 50 6 0 10 -11 10 -24 0 -25 21 -48 27 -30 2 6 19 8 38 6 39 -5 47 11 15 28
-30 16 -25 33 9 25 24 -5 33 -1 55 25 37 45 35 82 -9 116 -19 14 -35 30 -35
35 0 17 25 9 46 -16z"/>
<path d="M105 2803 c-10 -131 -8 -315 3 -322 12 -9 10 -55 -2 -63 -16 -11 -14
-410 2 -416 7 -2 12 -18 12 -35 0 -16 2 -28 5 -25 10 9 17 219 9 246 -7 21
-10 5 -14 -63 -5 -75 -6 -64 -7 70 -1 97 2 152 7 140 5 -12 9 102 9 278 1 301
-10 385 -24 190z"/>
<path d="M131 1775 c-2 -55 -5 -92 -8 -82 -2 9 -8 17 -11 17 -8 0 -5 -200 3
-208 8 -8 6 -120 -2 -124 -11 -4 2 -314 13 -358 6 -19 12 -30 14 -25 9 20 -1
286 -11 280 -12 -8 -12 11 1 35 7 12 9 121 7 292 -1 150 -4 228 -6 173z"/>
<path d="M1895 1835 c7 -447 13 -576 27 -552 5 10 13 15 18 12 4 -3 10 11 12
31 2 19 0 37 -4 40 -4 3 -8 -3 -8 -13 0 -13 -2 -15 -9 -5 -4 7 -9 97 -10 200
-1 204 -20 654 -28 662 -2 2 -1 -167 2 -375z"/>
<path d="M1830 1673 c0 -332 3 -473 11 -463 7 10 8 131 3 369 -4 236 -3 352 4
348 5 -4 12 7 16 24 9 45 8 49 -9 49 -10 0 -15 10 -15 30 0 19 5 29 13 28 7
-2 13 10 15 32 2 26 -2 38 -18 48 l-20 12 0 -477z"/>
<path d="M1275 245 c-32 -31 -32 -66 1 -104 33 -40 66 -40 106 -1 25 26 29 36
24 63 -13 65 -85 89 -131 42z"/>
</g>
</svg>
