<?xml version="1.0" standalone="no"?>
<!DOCTYPE svg PUBLIC "-//W3C//DTD SVG 20010904//EN"
 "http://www.w3.org/TR/2001/REC-SVG-20010904/DTD/svg10.dtd">
<svg version="1.0" xmlns="http://www.w3.org/2000/svg"
 width="233.000000pt" height="400.000000pt" viewBox="0 0 233.000000 400.000000"
 preserveAspectRatio="xMidYMid meet">
<metadata>
Created by potrace 1.15, written by Peter Selinger 2001-2017
</metadata>
<g transform="translate(0.000000,400.000000) scale(0.100000,-0.100000)"
fill="#000000" stroke="none">
<path d="M51 2972 c2 -543 2 -1420 0 -1950 -2 -529 -2 -964 0 -967 3 -2 497
-5 1099 -6 l1093 -1 -2 1948 c-1 1072 -3 1949 -4 1950 -1 1 -494 4 -1096 7
l-1093 6 3 -987z m894 964 c314 -3 576 -5 583 -6 16 0 15 -20 -2 -34 -7 -6
-37 -56 -65 -111 -59 -113 -62 -117 -78 -107 -13 8 -21 77 -10 88 10 11 -2 24
-24 24 -16 0 -19 7 -19 55 0 49 2 55 21 55 11 0 17 4 14 10 -3 5 -61 8 -143 5
-75 -2 -167 -4 -204 -4 -38 -1 -68 -5 -68 -10 0 -4 11 -6 24 -4 18 4 29 -2 41
-21 16 -24 16 -27 -1 -56 -12 -19 -26 -30 -41 -30 -28 0 -28 1 -3 -78 34 -107
27 -108 -63 -6 -37 41 -67 68 -67 60 0 -9 14 -49 30 -91 48 -120 44 -121 -69
-20 -46 41 -86 75 -90 75 -3 0 34 -38 82 -83 70 -66 85 -85 75 -95 -19 -19
-25 -16 -69 43 -23 31 -44 53 -46 51 -3 -3 16 -30 41 -62 54 -66 50 -89 -10
-60 -48 22 -54 14 -9 -13 31 -18 34 -23 25 -41 -6 -11 -15 -20 -21 -20 -12 0
-131 111 -126 117 2 2 20 -4 40 -12 21 -8 37 -13 37 -10 0 3 -16 13 -36 21
-27 11 -39 12 -48 4 -8 -8 7 -28 59 -75 45 -42 66 -67 59 -72 -6 -5 -15 -23
-19 -40 -3 -18 -8 -33 -11 -33 -12 0 -158 77 -212 112 -34 22 -65 38 -69 35
-3 -4 9 -14 27 -24 18 -10 46 -27 64 -38 17 -11 63 -35 101 -54 39 -18 73 -38
77 -44 10 -16 -2 -38 -26 -47 -17 -7 -18 -9 -3 -9 16 -1 26 -31 10 -31 -25 0
-83 22 -78 30 7 12 -55 24 -66 13 -6 -6 20 -19 66 -33 44 -14 75 -29 75 -37 0
-7 -7 -13 -15 -13 -8 0 -15 -5 -15 -11 0 -6 7 -9 15 -5 12 4 15 -5 15 -48 l0
-53 -47 -21 c-27 -12 -41 -21 -33 -21 8 0 26 6 40 14 34 20 50 18 50 -4 0 -13
-10 -20 -31 -25 -46 -9 -91 -7 -85 3 4 5 -3 7 -14 4 -11 -3 -17 -10 -13 -15 3
-7 34 -9 79 -5 94 7 98 -9 14 -47 -33 -15 -60 -29 -60 -31 0 -6 41 10 89 35
l41 20 6 -25 c4 -14 5 -27 3 -29 -2 -1 -58 -18 -123 -36 -66 -19 -115 -35
-110 -37 5 -1 61 13 124 31 l115 34 18 -21 c18 -21 18 -22 0 -37 -10 -9 -27
-27 -38 -40 l-20 -25 25 20 c14 11 31 28 38 38 13 18 14 18 28 0 11 -15 11
-20 -4 -32 -15 -12 -15 -12 5 -7 42 13 34 -16 -22 -82 l-58 -67 63 63 c58 58
64 62 79 47 14 -14 12 -19 -29 -56 l-45 -41 46 36 c25 20 51 36 56 36 20 0 23
-31 7 -56 -9 -13 -14 -27 -11 -30 3 -3 13 8 22 25 8 17 20 31 25 31 22 0 17
-21 -16 -66 l-35 -49 45 50 c62 69 68 45 22 -92 -20 -58 -34 -108 -32 -110 4
-4 61 148 72 192 8 33 17 37 39 21 18 -13 16 -18 -33 -104 -49 -86 -85 -162
-77 -162 2 0 34 55 71 123 37 67 68 124 70 126 6 6 59 -17 58 -25 -1 -5 -5
-38 -8 -73 -9 -82 9 -79 45 8 14 34 30 63 35 64 11 2 21 -89 23 -200 1 -45 5
-84 10 -87 5 -3 7 43 4 107 -3 61 -6 128 -7 147 -1 29 3 35 19 35 23 0 25 -27
11 -205 -4 -58 -5 -103 -2 -100 3 3 10 57 16 120 13 145 20 190 30 190 4 0 20
-34 35 -76 33 -90 48 -83 38 19 -9 105 13 90 87 -60 72 -146 67 -140 80 -127
6 6 -6 60 -31 144 -37 127 -39 136 -22 148 15 11 20 10 33 -7 8 -10 28 -35 43
-55 16 -20 32 -34 38 -31 5 4 9 0 10 -7 0 -7 3 -8 5 -2 2 5 -9 41 -26 78 -48
104 -29 103 95 -5 59 -52 113 -97 120 -102 31 -17 21 13 -19 59 -23 27 -66 80
-95 117 -43 56 -50 71 -40 83 8 10 22 13 43 9 27 -5 29 -4 11 6 -11 7 -21 13
-23 15 -2 1 2 12 8 24 12 22 12 22 51 -16 21 -20 36 -41 33 -46 -3 -4 -3 -8 0
-8 2 0 13 -3 23 -6 10 -4 -7 19 -37 49 -38 40 -51 60 -44 67 8 8 19 7 39 0 15
-6 30 -9 32 -6 2 2 -10 8 -26 14 -36 13 -35 10 -16 71 8 25 17 58 20 74 7 33
13 33 81 1 30 -14 60 -24 66 -22 6 2 -21 17 -61 34 -40 16 -72 32 -72 37 1 4
1 23 1 42 0 32 2 35 33 37 l32 1 -32 4 c-22 3 -34 10 -35 21 -2 32 -4 37 -11
50 -5 6 -5 17 -2 22 8 12 85 13 85 1 0 -4 11 -6 25 -3 51 9 23 21 -45 19 -94
-3 -90 13 18 67 45 23 88 48 95 56 6 7 -34 -11 -90 -41 -56 -29 -105 -51 -107
-48 -3 3 -7 16 -8 28 -3 20 4 26 45 39 26 8 45 17 43 20 -3 2 -27 -3 -53 -12
-45 -15 -49 -15 -60 1 -19 25 -18 27 38 76 28 25 50 50 48 56 -2 6 -33 -5 -71
-24 -37 -19 -70 -31 -73 -26 -3 5 38 62 90 127 95 117 105 134 83 134 -6 0 -8
-3 -5 -7 4 -3 -10 -27 -31 -52 -20 -25 -46 -57 -57 -71 -11 -13 -38 -44 -60
-68 -37 -40 -41 -42 -60 -28 -20 15 -19 16 16 48 19 18 61 53 92 77 31 24 57
48 57 53 0 9 -24 -9 -133 -99 -83 -70 -95 -60 -56 44 17 42 28 80 27 85 -2 5
-28 -20 -58 -56 -88 -108 -97 -86 -38 95 41 124 46 133 73 141 44 12 625 6
626 -7 1 -5 3 -224 4 -485 2 -261 6 -625 10 -809 5 -212 4 -331 -2 -328 -6 4
-13 84 -16 178 -3 94 -10 176 -15 181 -6 6 -55 10 -110 10 -87 0 -104 -3 -136
-24 l-36 -23 0 -175 c0 -96 -3 -197 -5 -225 -2 -27 -7 -89 -11 -137 -5 -77 -8
-88 -24 -88 -11 0 -25 9 -32 19 -13 19 -16 18 -68 -15 -29 -18 -70 -37 -89
-40 -20 -4 -38 -10 -41 -14 -3 -3 -26 -16 -51 -28 -44 -21 -48 -22 -85 -6 -33
14 -46 15 -85 5 -36 -9 -57 -10 -89 -1 -51 14 -68 -1 -45 -36 12 -19 12 -23 0
-28 -23 -8 -18 -28 5 -21 13 4 29 -1 46 -14 26 -21 54 -19 54 5 0 17 -61 64
-83 64 -10 0 -17 5 -17 10 0 13 36 13 60 0 14 -7 30 -6 58 5 34 14 42 14 82 0
25 -9 54 -25 67 -37 l22 -20 38 23 c21 13 45 24 53 25 8 1 25 4 38 8 13 5 22
3 22 -4 0 -15 -101 -110 -118 -110 -7 0 -15 -6 -18 -14 -7 -19 14 -58 27 -50
6 4 4 13 -7 25 -21 23 -13 26 73 31 54 4 61 2 60 -13 -1 -10 -4 -16 -7 -14 -4
2 -17 -9 -29 -25 -12 -17 -25 -29 -29 -29 -19 3 -22 -2 -8 -16 18 -18 55 -6
99 34 25 23 27 23 27 5 0 -11 -6 -26 -12 -33 -9 -9 -9 -12 -1 -7 7 4 13 -3 16
-16 2 -13 5 -3 6 22 2 38 18 101 20 77 2 -17 41 15 41 34 0 11 -4 18 -10 14
-5 -3 -6 -13 -3 -22 5 -13 2 -15 -15 -11 -12 4 -22 3 -22 -2 0 -4 -11 -7 -25
-7 -14 0 -25 5 -25 13 0 17 37 37 52 28 6 -4 8 -3 5 3 -14 22 17 27 228 35 47
2 78 9 95 21 19 13 21 17 7 17 -9 0 -17 -4 -17 -9 0 -12 -123 -22 -131 -9 -3
5 -7 161 -8 346 -1 186 -3 361 -5 390 l-2 52 92 0 c64 0 93 -4 97 -12 2 -7 5
-78 6 -157 1 -79 7 -203 12 -275 6 -72 12 -186 15 -253 l4 -123 -47 0 c-72 0
-48 -12 40 -19 13 -1 8 -61 -5 -61 -9 0 -10 -2 -2 -8 13 -8 14 -209 1 -229 -4
-6 -2 -13 4 -15 11 -4 15 -291 4 -309 -4 -5 -1 -9 6 -9 7 0 5 -9 -6 -26 -9
-15 -12 -23 -6 -20 7 5 10 -15 10 -59 -1 -36 -5 -63 -10 -59 -5 3 -9 0 -9 -5
0 -6 5 -11 10 -11 16 0 11 -59 -9 -125 -13 -43 -20 -55 -26 -43 -4 10 1 40 10
68 9 27 15 56 12 63 -2 6 -7 -3 -11 -20 -13 -59 -26 -47 -21 19 5 62 5 63 -9
28 l-14 -35 -1 42 c-1 23 -6 45 -12 49 -8 4 -9 0 -4 -15 13 -43 13 -219 -1
-246 -7 -14 -9 -25 -3 -25 5 0 9 -9 9 -21 0 -11 4 -18 9 -15 10 6 81 -21 81
-31 0 -3 -21 -3 -48 0 -59 7 -173 -3 -166 -14 3 -5 25 -9 49 -9 52 0 146 -18
159 -31 6 -5 -24 -6 -70 -3 -43 3 -92 1 -109 -5 -23 -8 -14 -9 45 -5 41 3 89
1 105 -4 27 -8 30 -13 30 -48 l0 -39 -52 -3 c-33 -2 -53 1 -53 8 0 6 10 8 26
4 19 -5 25 -4 20 5 -4 6 -16 11 -27 11 -10 0 -19 7 -19 15 0 8 8 15 18 15 14
0 15 -2 2 -10 -12 -8 -11 -10 7 -10 32 0 38 18 9 31 -31 14 -59 5 -54 -18 2
-12 -6 -21 -26 -28 -37 -13 -46 -35 -14 -35 20 -1 21 -2 6 -11 -26 -14 -22
-29 7 -29 14 0 25 -4 25 -10 0 -5 -7 -10 -15 -10 -9 0 -15 -9 -15 -22 0 -21 0
-21 15 -2 14 18 14 18 16 -8 2 -41 3 -46 12 -54 4 -4 7 14 7 40 0 40 3 47 16
42 9 -3 33 -6 55 -6 21 0 39 -5 39 -11 0 -6 -10 -8 -22 -5 l-23 6 23 -11 c16
-9 22 -21 22 -47 l0 -35 -422 7 c-349 6 -426 10 -439 22 -21 19 -89 31 -89 15
0 -6 15 -11 34 -11 19 0 38 -4 41 -10 10 -16 -63 -12 -89 6 -17 10 -41 14 -78
11 l-53 -3 57 -2 c31 -1 60 -6 63 -12 4 -6 -35 -10 -109 -10 -71 0 -116 4
-116 10 0 6 9 10 21 10 31 0 93 31 79 40 -8 5 -4 9 9 13 23 6 39 -8 19 -16 -7
-2 -10 -7 -6 -11 3 -4 16 -2 28 4 13 7 34 10 49 7 14 -3 42 -2 61 3 32 7 31 8
-22 9 l-56 1 11 25 c12 25 12 25 26 5 7 -11 17 -20 22 -20 13 0 3 68 -12 86
-17 20 -34 17 -18 -3 7 -10 1 -7 -13 6 -21 18 -25 28 -18 42 8 13 6 19 -8 22
-13 4 -11 5 6 6 13 1 22 -5 22 -14 0 -8 8 -15 18 -15 10 0 25 -17 39 -44 16
-35 18 -43 6 -39 -13 5 -13 3 -2 -15 23 -37 41 6 25 57 -8 23 -7 23 40 17 27
-4 60 -10 74 -12 18 -4 21 -3 10 4 -8 5 -40 12 -70 16 -39 5 -60 13 -72 29
-15 19 -19 20 -29 7 -9 -13 -10 -13 -6 1 3 10 -5 26 -20 40 l-25 24 7 -24 c5
-16 4 -21 -4 -17 -6 4 -21 2 -33 -4 -22 -11 -22 -11 1 8 27 22 21 43 -12 41
-17 -1 -18 -2 -4 -6 24 -6 21 -18 -8 -31 -36 -17 -45 -15 -45 9 0 15 5 19 15
15 9 -3 15 0 15 8 0 8 13 19 29 25 24 10 33 9 58 -6 16 -10 28 -24 26 -30 -3
-8 4 -13 16 -13 12 0 21 -6 21 -14 0 -26 19 -27 26 -2 4 17 1 31 -9 41 -20 20
-28 19 -21 -2 4 -14 3 -15 -4 -5 -5 8 -27 24 -48 37 -21 14 -32 25 -24 25 10
1 9 4 -5 10 -29 13 -29 13 -70 -20 -46 -37 -56 -33 -17 6 16 16 31 36 34 44 4
12 8 12 19 4 8 -7 37 -14 64 -17 46 -5 47 -5 17 5 -38 13 -43 27 -6 20 14 -2
32 -16 41 -29 14 -21 14 -26 2 -34 -8 -5 -11 -9 -7 -9 3 0 13 -3 22 -6 19 -7
22 26 6 57 -7 13 -7 19 0 19 5 0 10 -4 10 -10 0 -5 9 -10 20 -10 13 0 18 -5
14 -15 -4 -8 -1 -15 5 -15 6 0 11 5 11 11 0 9 4 8 14 0 7 -6 28 -9 47 -5 23 4
30 3 20 -4 -21 -15 1 -22 85 -28 67 -4 76 -3 65 10 -9 10 -26 13 -58 10 -34
-3 -51 0 -64 12 -24 22 -24 30 1 51 28 24 25 29 -12 29 -25 0 -33 4 -32 16 1
9 -4 19 -11 22 -20 7 -5 -36 19 -55 20 -16 20 -17 -12 -33 -41 -21 -79 -7 -62
24 6 11 18 24 28 29 9 6 11 11 5 11 -7 0 -13 7 -13 15 0 24 -20 17 -21 -7 0
-22 -1 -22 -11 2 -9 21 -12 22 -15 7 -3 -9 -8 -15 -13 -12 -4 3 -4 20 0 37 5
18 11 44 15 58 l6 25 -15 -25 c-8 -14 -15 -35 -16 -47 0 -13 -4 -23 -10 -23
-5 0 -6 -7 -3 -17 4 -11 3 -14 -5 -9 -6 4 -9 21 -7 39 l5 32 -15 -30 c-13 -24
-15 -25 -11 -7 3 17 1 22 -10 18 -10 -4 -14 3 -15 27 0 28 -2 29 -10 12 -7
-16 -8 -12 -6 17 2 21 0 35 -5 30 -11 -11 -12 -60 -4 -109 8 -46 -5 -57 -33
-30 -11 10 -13 9 -8 -6 4 -9 3 -17 -2 -17 -16 0 -20 13 -10 33 6 11 13 41 14
66 3 34 2 38 -3 16 -7 -30 -32 -41 -39 -17 -3 6 0 12 6 12 7 0 9 10 5 27 -6
21 -4 25 8 21 11 -5 13 1 9 26 -3 18 -6 24 -9 13 -9 -41 -30 0 -23 46 0 4 -8
7 -18 7 -31 0 -44 -62 -16 -77 11 -7 13 -16 6 -38 -5 -17 -13 -43 -18 -60 -7
-22 -14 -29 -28 -27 -16 3 -17 1 -6 -12 9 -10 19 -13 30 -7 9 5 22 6 28 4 14
-5 18 12 6 20 -5 2 -2 2 6 0 7 -2 20 2 28 9 13 10 15 9 11 -7 -2 -11 -10 -19
-16 -17 -7 1 -15 -5 -18 -13 -3 -8 -10 -12 -15 -9 -5 2 -17 0 -28 -6 -16 -8
-24 -6 -41 12 -11 12 -20 25 -20 30 0 4 -7 8 -15 8 -20 0 -19 15 3 47 22 35
25 140 3 118 -11 -10 -11 -20 -2 -45 7 -22 7 -38 0 -51 -11 -22 -25 -25 -32
-6 -3 6 -6 1 -7 -13 -2 -23 -3 -22 -11 8 -5 17 -14 32 -21 32 -7 0 -6 -5 2
-15 10 -12 10 -18 -1 -32 -9 -11 -10 -14 -2 -9 9 5 11 2 7 -9 -11 -27 -29 -10
-29 26 0 24 10 45 33 72 17 20 32 47 32 60 0 25 -35 87 -49 87 -5 0 -16 17
-24 37 -12 29 -16 33 -16 16 -1 -12 13 -38 29 -56 36 -41 37 -47 9 -47 -11 0
-17 -4 -14 -10 4 -6 -4 -9 -17 -7 -15 1 -26 -5 -32 -20 -6 -12 -20 -26 -33
-32 -34 -16 -52 -52 -55 -111 -2 -59 21 -104 49 -93 9 3 11 0 8 -10 -7 -17 15
-41 56 -62 37 -20 39 -38 2 -24 -14 5 -33 7 -40 5 -8 -3 -11 -1 -8 4 3 6 1 10
-4 10 -6 0 -11 7 -11 15 0 8 -4 15 -9 15 -4 0 -7 -11 -6 -25 2 -14 -4 -33 -13
-43 -10 -10 -13 -12 -9 -5 14 20 -5 42 -28 32 -19 -7 -19 -8 3 -8 13 -1 20 -5
17 -11 -4 -6 -12 -10 -18 -8 -27 4 -123 -16 -142 -29 l-20 -15 20 7 c33 13
116 26 128 22 7 -3 3 -8 -8 -12 -67 -24 -76 -29 -73 -44 2 -9 13 -17 26 -19
12 -2 22 -7 22 -12 0 -5 2 -15 6 -23 4 -10 -6 -16 -40 -20 -79 -11 -186 -38
-186 -48 0 -5 11 -4 26 1 14 6 37 10 52 10 22 0 24 -2 12 -10 -12 -8 -9 -10
10 -6 66 12 110 15 110 8 0 -5 -23 -12 -51 -15 -60 -7 -112 -35 -118 -63 -4
-24 -30 -49 -59 -56 -18 -5 -22 -2 -23 15 0 21 -1 21 -10 -2 -6 -15 -14 -21
-25 -17 -9 3 -19 6 -23 6 -19 0 5 53 36 81 42 37 39 47 -5 16 -19 -13 -37 -37
-44 -60 l-11 -37 -106 1 c-87 0 -102 2 -86 12 11 7 47 37 80 68 96 88 134 105
310 134 22 4 43 9 47 12 13 7 -12 43 -30 43 -16 -1 -16 -1 1 -11 27 -16 20
-28 -20 -34 -152 -23 -178 -30 -232 -66 -31 -20 -74 -55 -96 -78 -21 -22 -44
-41 -50 -41 -7 0 -20 -9 -30 -20 -13 -14 -31 -20 -62 -20 -37 0 -43 3 -43 20
0 12 7 34 15 50 9 17 11 30 6 30 -5 0 -12 -6 -14 -12 -7 -16 -10 99 -11 429
l-1 262 30 15 30 16 -31 -5 -30 -6 1 93 c1 51 3 150 3 221 l2 127 33 0 c17 0
59 14 91 30 32 17 71 30 85 31 26 0 26 0 3 10 -17 6 -33 4 -62 -11 -38 -20
-102 -26 -134 -14 -20 8 -23 138 -4 151 24 15 70 11 89 -8 11 -11 28 -19 40
-19 12 0 19 -5 17 -12 -3 -8 -19 -12 -44 -10 l-39 3 28 -26 c15 -14 36 -25 45
-25 12 1 8 6 -11 16 -33 18 -35 29 -5 21 12 -4 28 -1 35 5 7 6 24 8 38 6 13
-3 22 -1 19 4 -3 5 9 7 28 5 18 -2 25 -2 15 0 -16 4 -14 8 13 28 32 24 52 23
100 -2 14 -7 32 -13 40 -13 9 0 33 -9 54 -19 21 -11 62 -23 91 -26 45 -6 54
-11 59 -30 5 -21 9 -23 38 -14 40 11 38 11 38 0 0 -5 -17 -14 -37 -20 -25 -7
-29 -9 -10 -7 15 2 30 -1 33 -5 3 -5 -9 -9 -26 -9 -22 0 -33 6 -39 22 -5 14
-10 17 -15 10 -5 -9 -18 -6 -46 8 -22 11 -50 20 -62 20 -13 0 -38 9 -57 21
-45 27 -84 42 -76 29 3 -6 12 -10 18 -10 16 -1 82 -58 75 -65 -2 -3 -24 2 -48
10 -46 16 -68 19 -56 8 4 -4 28 -13 54 -19 37 -10 50 -9 65 1 11 8 27 11 36 8
31 -11 121 -55 121 -60 0 -3 -19 -3 -42 1 -105 16 -104 16 -85 5 11 -6 52 -12
93 -13 50 -1 74 -5 74 -13 0 -17 -119 -133 -136 -133 -8 0 -14 -6 -14 -14 0
-23 37 1 102 66 52 52 98 127 98 160 0 8 5 19 11 25 7 7 9 20 5 30 -6 15 -11
13 -38 -17 -20 -23 -32 -30 -35 -22 -4 10 -8 10 -19 1 -8 -6 -14 -8 -14 -3 0
14 13 30 35 42 17 10 18 11 3 12 -35 0 -13 71 29 94 17 9 22 15 12 16 -28 0
-69 -46 -69 -79 0 -16 -5 -33 -11 -37 -20 -12 -109 -5 -142 12 -77 39 -161
154 -113 154 8 0 17 4 20 9 4 5 -2 7 -13 4 -10 -3 -22 0 -25 5 -13 22 -36 222
-37 327 -2 205 -11 280 -38 309 -33 35 -39 25 -8 -16 24 -32 25 -40 31 -243 8
-281 33 -426 84 -487 23 -27 24 -31 7 -24 -41 17 -86 27 -94 22 -11 -7 -16 14
-37 145 -11 70 -17 193 -20 377 -2 151 -7 278 -10 284 -9 14 -191 3 -210 -13
-12 -10 -14 -33 -11 -119 3 -59 1 -124 -2 -146 -4 -21 -8 328 -9 777 l-1 816
152 -3 c84 -2 408 -6 722 -8z m405 -267 c165 -37 315 -174 372 -337 33 -97 31
-250 -4 -342 l-25 -65 -8 70 c-18 166 -82 301 -200 420 -118 119 -247 181
-402 192 -46 3 -83 9 -83 14 0 7 81 41 125 52 37 9 179 7 225 -4z m-185 -86
c216 -48 415 -236 479 -453 9 -30 19 -98 22 -150 l6 -95 -50 -55 c-28 -30 -51
-50 -52 -43 0 6 4 14 9 17 15 9 34 94 27 121 -8 30 -41 46 -71 35 -12 -5 -38
-25 -58 -45 -20 -20 -44 -35 -53 -33 -10 2 -27 21 -39 43 -13 21 -27 41 -33
43 -18 6 38 -87 59 -99 24 -12 53 1 96 47 38 40 69 44 84 10 17 -37 -15 -121
-65 -172 -77 -76 -266 -114 -409 -80 -283 66 -458 355 -376 622 12 38 25 74
29 79 4 6 10 22 13 36 9 37 55 79 86 79 56 -1 126 -62 171 -150 10 -20 29 -41
42 -49 20 -10 29 -30 46 -104 12 -51 22 -104 22 -119 0 -31 28 -45 59 -29 30
16 41 13 51 -13 5 -13 22 -31 39 -39 30 -15 31 -15 25 8 -4 17 1 27 17 39 22
15 22 16 3 16 -11 0 -29 -9 -41 -19 -20 -19 -20 -19 -37 20 -10 21 -21 39 -26
39 -5 0 -17 -12 -28 -27 -17 -23 -22 -25 -36 -14 -9 7 -16 26 -16 42 0 15 -9
67 -20 115 -11 48 -19 89 -17 91 7 6 57 -19 57 -29 0 -21 29 -4 45 27 25 44
14 55 -15 15 -22 -31 -22 -31 -41 -11 -23 25 -24 44 -3 65 8 9 11 16 5 16 -10
0 -46 -49 -54 -73 -7 -21 -56 22 -97 84 -45 71 -97 109 -148 109 -12 0 -22 4
-22 8 0 12 50 57 88 80 39 23 109 22 227 -5z m818 -1100 c4 -91 7 -269 7 -394
0 -223 0 -228 -21 -234 -13 -4 -25 -2 -29 5 -6 9 -13 9 -28 1 -15 -8 -21 -8
-25 2 -3 9 -10 9 -28 -2 -83 -51 -199 -88 -199 -65 0 4 23 30 50 56 28 27 48
53 44 59 -4 7 -23 8 -51 4 -42 -6 -44 -6 -34 14 6 11 27 25 47 30 20 5 51 21
69 36 l34 26 21 -21 c11 -11 25 -20 30 -20 6 0 10 -20 10 -45 0 -25 5 -45 10
-45 6 0 10 26 10 58 0 31 4 95 10 142 5 47 11 185 14 308 4 203 6 225 23 237
10 8 21 15 24 15 3 0 9 -75 12 -167z m-1690 110 c4 -21 7 -135 7 -253 1 -158
7 -252 21 -355 27 -189 27 -177 -1 -192 -35 -19 -118 -8 -147 19 -18 16 -31
20 -63 15 -39 -5 -40 -5 -40 27 0 17 7 115 15 216 9 102 15 262 13 357 -1 94
1 175 6 180 4 4 44 11 89 14 45 3 85 6 88 7 4 1 9 -15 12 -35z m557 -2044 c0
-10 -7 -19 -15 -19 -18 0 -20 -30 -2 -30 7 0 4 -7 -7 -15 -17 -13 -18 -15 -3
-15 9 0 17 -4 17 -10 0 -23 18 -8 23 20 5 22 13 31 34 36 53 11 59 14 44 23
-10 7 -8 10 8 16 13 4 25 4 28 1 4 -3 1 -6 -6 -6 -7 0 -9 -5 -6 -10 4 -6 -7
-16 -24 -23 -17 -7 -29 -16 -25 -19 3 -4 -3 -4 -14 -2 -16 5 -21 -3 -34 -48
-8 -29 -14 -54 -13 -55 4 -6 65 22 65 30 0 4 -5 5 -11 1 -8 -4 -9 1 -4 17 8
26 28 44 33 30 1 -5 23 -7 47 -5 57 4 58 -9 3 -22 -53 -11 -61 -36 -21 -58 26
-14 20 -15 -100 -16 -83 0 -126 4 -122 10 3 6 16 10 28 10 25 0 54 16 46 25
-8 7 -70 -14 -90 -31 -11 -10 -44 -14 -104 -14 -87 0 -88 0 -71 19 10 11 15
24 11 30 -10 17 54 49 112 57 35 4 53 11 53 20 0 8 6 14 14 14 8 0 18 5 22 11
4 7 0 9 -12 6 -37 -11 -139 -18 -124 -9 8 5 38 12 65 15 28 3 57 8 67 12 13 5
16 0 15 -28 -1 -33 -3 -35 -57 -50 -37 -11 -65 -26 -84 -47 -38 -44 -23 -52
17 -9 24 26 47 39 90 49 42 10 56 17 53 27 -3 8 -1 11 4 8 6 -3 10 3 10 14 0
31 19 73 30 66 5 -3 10 -15 10 -26z m1365 -210 c2 -3 6 -65 9 -140 l5 -135
-1077 1 -1077 0 -3 144 -3 144 1071 -5 c588 -3 1072 -7 1075 -9z"/>
<path d="M927 2026 c-7 -8 -21 -34 -31 -59 -13 -36 -23 -46 -46 -51 -18 -3
-30 -12 -30 -21 0 -8 -5 -15 -11 -15 -5 0 -7 -4 -4 -10 9 -14 25 -12 25 3 0 6
14 20 30 29 19 11 38 35 51 65 25 59 23 57 48 43 21 -11 30 -50 11 -50 -5 0
-7 -7 -3 -16 6 -15 8 -15 21 2 14 18 14 18 7 -6 -19 -67 -18 -89 9 -121 27
-31 34 -59 16 -59 -6 0 -7 -7 -2 -17 5 -10 15 -31 23 -48 12 -24 22 -31 49
-33 38 -2 150 -34 150 -42 -1 -19 -23 -33 -49 -32 -17 0 -29 -4 -26 -9 4 -5 1
-9 -4 -9 -6 0 -11 3 -11 8 0 13 -53 32 -92 32 -21 0 -48 5 -61 12 -58 30 -61
31 -65 19 -2 -6 -8 -9 -13 -5 -5 3 -9 1 -9 -3 0 -5 16 -9 35 -10 20 -1 42 -7
50 -13 8 -7 35 -12 59 -12 30 1 52 -5 70 -19 23 -18 29 -19 68 -7 49 14 99 38
81 38 -7 0 -13 7 -13 15 0 8 -3 16 -7 16 -5 1 -20 3 -35 4 -15 2 -36 9 -47 14
-11 6 -37 11 -58 11 -44 0 -63 14 -63 47 0 18 6 23 24 23 14 0 28 5 31 11 4 6
13 8 21 5 7 -3 16 0 20 6 5 7 -2 9 -22 4 -85 -21 -84 -21 -84 13 0 27 4 32 30
37 16 4 35 13 41 20 15 18 60 18 84 0 17 -12 18 -16 5 -32 -14 -19 -14 -19 7
-1 53 45 -36 89 -96 48 -55 -37 -77 -41 -96 -19 -14 17 -16 32 -10 83 5 53 3
67 -12 85 -28 34 -49 42 -66 26z"/>
<path d="M1155 1907 c24 -21 43 -31 46 -24 4 5 14 -4 23 -21 16 -30 15 -34 -5
-73 -14 -29 -23 -38 -29 -29 -4 7 -13 9 -20 5 -9 -6 -8 -10 4 -17 16 -9 16
-11 -1 -30 -17 -19 -17 -20 2 -34 10 -8 33 -13 49 -13 l31 2 -34 6 c-31 5 -57
31 -32 31 6 0 11 7 11 15 0 8 5 15 10 15 6 0 10 8 10 17 0 48 69 61 120 22
l25 -19 -63 0 c-47 0 -64 -4 -69 -16 -3 -8 0 -21 7 -27 9 -9 11 -8 8 8 -3 18
3 20 68 23 80 3 90 -3 95 -60 3 -28 -2 -42 -16 -53 -19 -15 -19 -15 -1 -13 10
2 21 -3 23 -9 3 -9 -5 -13 -24 -13 -24 0 -29 4 -31 27 -1 15 -7 32 -13 38 -8
7 -9 4 -4 -13 4 -13 2 -29 -5 -37 -16 -20 -34 -19 -26 0 6 16 -26 55 -45 55
-6 0 -2 -8 9 -17 12 -10 23 -31 24 -46 3 -26 -2 -30 -46 -48 -28 -10 -57 -25
-65 -34 -14 -13 -12 -15 19 -16 28 0 31 -2 15 -8 -11 -5 -30 -4 -43 2 -18 8
-25 7 -37 -9 -20 -26 -20 -51 0 -31 8 8 37 18 65 22 27 4 50 11 50 16 0 15 32
10 52 -8 19 -17 128 -32 128 -17 0 5 -22 9 -49 9 -34 0 -55 6 -70 19 -15 14
-35 19 -67 19 -91 -2 -27 16 79 22 l107 6 0 -27 c0 -15 3 -24 7 -20 9 9 4 91
-7 121 -5 12 -11 43 -15 66 -3 24 -14 50 -23 57 -83 63 -112 81 -112 72 0 -24
-23 -6 -55 45 -19 30 -45 60 -56 66 -15 8 -19 8 -15 0 9 -14 0 -14 -27 0 -12
6 -4 -4 18 -24z"/>
<path d="M418 1611 c4 -10 1 -12 -9 -6 -8 5 -6 -1 4 -12 18 -20 18 -22 -2 -61
-11 -22 -21 -53 -23 -69 -2 -35 18 -97 37 -113 10 -8 11 -18 4 -36 -5 -14 -9
-36 -9 -49 0 -13 -12 -33 -29 -47 -22 -19 -31 -38 -39 -87 -13 -74 -8 -91 27
-90 25 2 25 2 2 6 -22 5 -23 7 -16 71 6 57 11 70 35 89 17 14 30 36 34 60 9
55 19 67 44 54 11 -6 30 -11 41 -11 12 0 18 -5 16 -12 -3 -8 4 -14 20 -14 49
-3 20 32 -36 42 -56 11 -88 33 -104 70 -19 46 -19 72 1 109 28 51 35 87 21
104 -6 9 -1 7 11 -4 18 -14 22 -25 17 -45 -8 -27 -18 -123 -17 -155 1 -29 30
-45 76 -40 22 2 48 -1 58 -6 14 -7 16 -6 12 5 -4 10 -23 16 -57 18 l-52 3 33
20 c63 38 68 44 22 29 -25 -8 -50 -22 -57 -30 -10 -14 -12 -13 -17 3 -3 10 -1
36 4 58 14 59 12 118 -5 142 -17 24 -56 28 -47 4z"/>
<path d="M2091 984 c-13 -21 -26 -32 -33 -28 -7 4 -8 3 -4 -4 4 -6 0 -25 -9
-41 -27 -54 -14 -152 14 -104 8 15 10 11 11 -20 l0 -38 -27 19 c-39 27 -61 33
-67 19 -4 -7 -4 0 -2 16 2 18 -1 27 -10 27 -8 0 -14 6 -14 13 0 6 -5 4 -11 -6
-8 -13 -7 -22 1 -32 14 -17 5 -65 -13 -66 -6 0 -3 -4 8 -9 18 -7 18 -9 -9 -19
-16 -6 -27 -14 -24 -17 3 -2 18 1 34 7 16 7 51 11 78 10 40 -3 48 0 43 12 -6
17 29 31 39 16 3 -5 10 -9 16 -9 7 0 7 4 0 13 -5 6 -13 27 -17 44 -5 27 -4 32
8 27 13 -5 15 10 14 100 -1 58 -3 106 -4 106 0 0 -10 -16 -22 -36z"/>
<path d="M267 966 c-30 -28 -51 -66 -66 -122 -6 -23 -18 -44 -26 -48 -9 -3
-12 -12 -9 -23 5 -17 5 -17 -9 0 -15 18 -16 18 -20 -5 -3 -13 -5 -5 -4 18 2
27 -2 41 -10 41 -7 0 -11 -3 -8 -5 3 -3 0 -11 -6 -19 -9 -9 -8 -13 0 -13 6 0
11 -9 11 -20 0 -11 -4 -20 -10 -20 -5 0 -10 5 -10 10 0 18 -18 11 -23 -9 -4
-18 0 -20 53 -18 37 1 64 -4 74 -13 20 -16 17 -52 -4 -57 -13 -4 -13 -3 0 6 8
5 11 13 7 17 -3 4 -13 2 -20 -4 -8 -7 -17 -9 -20 -5 -4 3 -7 1 -7 -5 0 -7 -13
-12 -30 -12 -16 0 -30 -4 -30 -10 0 -6 23 -7 62 -3 45 4 59 3 54 -5 -4 -7 -22
-12 -39 -12 -18 0 -39 -5 -47 -11 -11 -7 1 -8 40 -5 30 3 56 10 58 16 2 5 9
10 16 10 14 0 14 69 1 90 -3 6 3 10 16 10 17 0 20 -3 12 -11 -9 -9 -3 -18 23
-35 19 -13 39 -24 44 -24 5 0 11 -10 13 -22 l4 -23 8 22 c4 13 13 19 21 16 8
-3 11 -9 8 -14 -3 -5 2 -9 10 -9 15 0 21 16 18 53 -1 10 5 17 17 17 10 0 23 6
29 13 13 17 3 73 -16 89 -12 10 -14 10 -8 1 9 -16 -6 -17 -22 -1 -17 17 -15
28 6 22 15 -5 15 -4 -1 6 -11 7 -30 9 -45 5 -24 -6 -25 -8 -9 -16 13 -8 17
-21 15 -50 -2 -21 -7 -39 -12 -39 -4 0 -6 14 -4 30 5 33 -6 39 -21 13 -6 -10
-11 -13 -12 -8 0 6 -3 23 -5 38 -3 15 0 43 5 62 13 49 -3 44 -28 -8 -22 -45
-28 -93 -11 -82 6 3 10 2 10 -4 0 -24 -19 -18 -33 12 -14 28 -14 40 -2 92 7
33 17 70 20 83 9 28 4 28 -28 -2z"/>
<path d="M507 865 c-9 -20 -17 -55 -17 -78 0 -56 -9 -87 -26 -87 -8 0 -11 -6
-8 -15 4 -8 1 -15 -5 -15 -6 0 -8 -7 -5 -15 13 -32 63 -4 64 35 0 13 -1 13
-10 0 -8 -13 -10 -13 -10 1 0 9 6 22 14 28 11 9 15 5 20 -22 6 -32 8 -34 43
-28 20 3 35 9 34 14 0 4 -1 12 -1 17 0 6 -4 10 -10 10 -5 0 -10 -7 -10 -15 0
-8 -7 -15 -15 -15 -8 0 -15 3 -15 8 0 12 38 41 44 35 3 -4 5 9 5 28 -1 23 -3
27 -6 12 -2 -13 -9 -23 -15 -23 -6 0 -16 -8 -23 -17 -11 -15 -12 -14 -10 8 1
13 3 43 4 66 1 33 4 41 16 37 8 -4 15 -1 15 6 0 6 -4 9 -9 6 -5 -4 -11 0 -14
6 -2 7 -11 -3 -19 -22 -13 -32 -15 -33 -20 -12 -3 12 -3 20 2 17 4 -3 10 5 14
18 15 57 -2 64 -27 12z"/>
<path d="M1253 273 c-31 -6 -73 -48 -73 -74 0 -29 56 -79 89 -79 34 0 87 33
96 60 11 33 -13 77 -47 89 -17 6 -34 10 -37 10 -3 -1 -16 -4 -28 -6z"/>
</g>
</svg>
