<?xml version="1.0" standalone="no"?>
<!DOCTYPE svg PUBLIC "-//W3C//DTD SVG 20010904//EN"
 "http://www.w3.org/TR/2001/REC-SVG-20010904/DTD/svg10.dtd">
<svg version="1.0" xmlns="http://www.w3.org/2000/svg"
 width="233.000000pt" height="400.000000pt" viewBox="0 0 233.000000 400.000000"
 preserveAspectRatio="xMidYMid meet">
<metadata>
Created by potrace 1.15, written by Peter Selinger 2001-2017
</metadata>
<g transform="translate(0.000000,400.000000) scale(0.100000,-0.100000)"
fill="#000000" stroke="none">
<path d="M1470 3953 c-14 -1 -335 -4 -713 -5 -598 -3 -689 -5 -697 -18 -6 -9
-9 -738 -7 -1955 l2 -1940 337 2 c186 1 679 5 1097 9 l759 7 -3 726 c-2 399
-4 1278 -4 1954 l-1 1227 -373 -2 c-204 -1 -383 -3 -397 -5z m749 -632 l0
-618 -23 -11 c-18 -8 -25 -6 -35 10 -9 15 -9 23 0 34 9 11 8 14 -4 14 -21 0
-25 -18 -15 -64 5 -21 7 -41 4 -43 -3 -3 -8 11 -11 31 -4 20 -11 33 -17 30 -5
-3 -15 -1 -22 5 -10 8 -17 7 -26 -4 -10 -13 -10 -19 4 -33 9 -10 16 -24 16
-31 0 -6 7 -14 15 -17 21 -8 19 -23 -7 -44 -23 -18 -23 -18 -3 -40 l20 -22
-28 13 c-28 13 -34 24 -17 34 14 9 8 56 -7 51 -6 -3 -14 3 -16 12 -3 12 -5 11
-6 -5 -2 -33 -21 -28 -21 5 -1 25 -2 26 -14 9 -12 -15 -14 -16 -20 -2 -3 8 0
15 6 15 6 0 8 3 5 6 -3 4 -2 16 4 26 8 15 8 23 -1 32 -8 8 0 14 32 23 24 6 34
11 22 12 -24 1 -48 43 -32 59 6 6 1 8 -16 5 -27 -6 -46 -23 -25 -23 12 0 38
-29 39 -44 0 -5 -13 -6 -30 -2 -32 6 -39 -4 -15 -24 29 -24 9 -62 -26 -53 -14
4 -18 11 -13 22 14 35 16 51 5 51 -6 0 -11 -6 -11 -13 0 -20 -37 -50 -53 -44
-17 6 -28 -1 -44 -30 -17 -30 -16 -40 2 -40 8 0 14 5 13 11 -2 17 13 46 24 46
6 0 8 -7 5 -14 -4 -10 -1 -13 7 -10 7 3 16 -3 20 -12 8 -21 -2 -33 -13 -16 -6
10 -12 6 -25 -12 -14 -23 -14 -26 -1 -26 8 0 15 -4 15 -10 0 -5 -6 -10 -14
-10 -8 0 -21 -2 -28 -5 -9 -4 -20 5 -28 20 -7 14 -15 23 -18 21 -2 -3 6 -19
18 -36 18 -26 21 -36 12 -55 -12 -26 -7 -35 19 -35 12 0 21 10 25 26 4 14 10
22 15 17 5 -5 4 -23 -3 -41 -14 -35 -7 -48 19 -37 17 8 17 8 1 12 -14 4 -16 8
-8 23 6 11 16 17 24 14 10 -4 12 2 8 21 -8 42 17 49 42 12 12 -18 30 -33 40
-35 16 -3 16 -2 -3 17 -25 25 -29 50 -6 31 12 -10 19 -10 27 -2 14 14 32 16
24 3 -3 -5 1 -14 9 -21 20 -17 19 -31 -2 -23 -11 4 -14 3 -9 -5 9 -14 16 -15
35 -3 13 8 13 12 1 28 -14 17 -14 17 6 1 28 -24 34 -23 34 11 0 39 18 88 36
95 18 7 18 -8 0 -26 -7 -8 -17 -29 -21 -46 -5 -25 -3 -32 9 -32 9 0 21 9 28
20 19 30 28 24 28 -20 0 -22 -4 -40 -10 -40 -9 0 -14 14 -11 33 0 4 -3 7 -9 7
-14 0 -31 -37 -24 -54 7 -19 16 -20 33 -3 10 10 11 8 5 -8 -7 -20 -7 -20 14
-1 l22 19 0 -112 c0 -106 -1 -111 -19 -102 -10 6 -21 17 -25 26 -3 8 -13 15
-22 15 -31 0 -54 31 -54 73 0 38 1 39 30 34 23 -5 28 -3 23 9 -4 10 -13 14
-27 10 -11 -3 -26 -6 -33 -6 -8 0 -11 -16 -8 -52 3 -54 21 -78 56 -78 10 0 20
-9 24 -19 3 -11 16 -21 28 -23 20 -3 22 -9 25 -77 l3 -74 -37 33 c-29 25 -43
31 -65 26 -21 -4 -29 -1 -34 13 -3 11 -13 25 -22 33 -15 12 -15 11 -4 -10 8
-16 10 -42 5 -79 -6 -52 -8 -55 -22 -37 -14 18 -14 18 -9 -4 7 -29 -11 -29
-24 1 -7 18 -8 15 -4 -15 7 -47 -9 -50 -30 -5 l-15 32 6 -42 c5 -35 2 -42 -13
-46 -13 -3 -13 -3 2 -1 11 1 31 6 44 10 19 6 22 4 16 -7 -5 -7 -10 -23 -11
-35 -2 -17 3 -21 21 -22 14 0 25 8 28 19 3 13 11 16 27 12 20 -5 21 -4 9 15
-12 20 -15 20 -31 5 -20 -17 -24 -16 -29 7 -4 19 57 80 79 79 11 0 12 -3 5 -6
-10 -3 -10 -8 1 -19 21 -20 27 -17 20 10 -4 18 -1 25 11 28 15 3 14 6 -5 31
-32 41 -3 34 42 -10 42 -41 49 -77 21 -100 -17 -14 -17 -14 0 -9 20 6 20 6 7
-29 -6 -15 -15 -23 -21 -19 -6 3 -15 0 -20 -7 -5 -9 -7 -6 -5 12 1 13 6 31 10
38 12 19 0 24 -23 10 -14 -10 -17 -17 -10 -26 14 -16 1 -36 -19 -28 -16 6 -32
-10 -32 -32 0 -7 7 -13 15 -13 8 0 15 -4 15 -10 0 -17 -28 -11 -43 10 -15 22
-27 17 -27 -11 0 -17 -32 -32 -62 -29 -12 1 -16 -4 -12 -14 5 -12 2 -15 -10
-10 -13 5 -16 -1 -15 -32 0 -31 2 -35 9 -19 7 17 9 14 9 -13 1 -23 -3 -31 -11
-26 -8 5 -9 -4 -5 -32 4 -21 7 -67 7 -101 0 -51 3 -61 15 -57 13 5 15 -7 15
-79 0 -47 5 -89 10 -92 6 -4 10 15 10 49 0 58 5 66 42 67 66 1 113 -14 138
-44 23 -29 25 -39 25 -139 0 -59 3 -108 8 -108 4 0 7 -4 7 -10 0 -5 -8 -6 -17
-3 -15 6 -16 4 -6 -8 8 -10 12 -52 12 -120 l0 -105 -31 -12 c-22 -8 -29 -16
-24 -27 5 -13 1 -15 -17 -9 -43 13 -51 26 -27 46 27 22 13 24 -18 2 -12 -8
-22 -21 -22 -29 0 -7 -6 -15 -12 -18 -8 -2 -9 -8 -4 -13 5 -5 11 -4 13 4 3 6
9 12 15 12 6 0 8 -7 4 -15 -6 -17 9 -21 19 -5 4 7 13 6 27 -1 17 -9 18 -13 7
-20 -12 -7 -11 -9 1 -9 24 0 43 17 35 30 -5 8 -1 11 11 8 14 -2 19 -12 19 -33
0 -33 -20 -42 -91 -44 -53 -1 -64 10 -22 25 l33 12 -36 1 c-44 1 -65 32 -56
86 3 21 2 33 -4 30 -5 -4 -9 11 -9 33 0 26 5 42 15 46 21 8 19 29 -3 22 -15
-5 -18 0 -18 36 -1 24 -2 85 -4 137 -2 71 1 95 11 102 8 5 10 9 4 9 -34 0 -37
-16 -31 -166 11 -268 16 -310 42 -364 23 -49 61 -77 88 -66 6 2 -4 9 -21 16
-37 13 -45 33 -10 25 12 -3 43 1 70 9 26 8 47 10 47 6 0 -5 -6 -11 -12 -13
-10 -4 -10 -8 1 -15 11 -8 6 -12 -22 -17 -20 -4 -37 -11 -37 -17 0 -5 15 -6
35 -2 28 5 35 3 35 -9 0 -23 -53 -31 -111 -17 -43 11 -53 10 -66 -2 -13 -14
-11 -18 16 -37 32 -23 41 -51 17 -51 -8 0 -16 -6 -19 -13 -3 -9 6 -14 26 -15
38 -3 49 -12 15 -12 -18 0 -27 -7 -31 -21 -4 -15 -3 -19 4 -12 6 6 20 8 31 5
16 -4 14 -7 -16 -17 -63 -22 -130 11 -69 33 24 9 25 11 6 11 -21 1 -53 -22
-53 -38 0 -15 25 -31 47 -31 13 0 23 -6 23 -14 0 -11 -10 -13 -42 -9 -60 8
-93 25 -93 48 0 19 11 26 105 69 14 7 26 22 28 34 3 17 -5 26 -35 39 -21 10
-39 21 -41 24 -5 10 -117 -26 -115 -37 3 -19 -32 -44 -69 -51 -22 -3 -45 -12
-53 -19 -7 -8 -18 -14 -23 -14 -6 0 -12 -7 -16 -15 -3 -8 -14 -15 -25 -15 -11
0 -26 -8 -33 -18 -7 -10 -33 -25 -58 -33 -39 -12 -45 -18 -46 -41 -1 -16 3
-28 7 -28 5 0 9 8 9 18 0 25 19 42 47 42 13 0 35 12 48 26 13 14 28 23 34 20
5 -4 13 -2 16 4 5 8 11 7 21 -1 20 -17 17 -31 -5 -24 -14 4 -23 0 -31 -15 -6
-11 -17 -20 -24 -20 -7 0 -21 -9 -31 -20 -17 -18 -17 -21 -1 -45 20 -30 54
-33 84 -6 29 24 28 36 0 17 -31 -22 -51 -20 -67 5 -11 18 -11 23 1 30 19 12
32 11 64 -6 17 -9 32 -11 39 -5 17 14 55 0 55 -21 0 -21 -26 -26 -33 -6 -4 9
-7 9 -18 -1 -12 -11 -12 -14 1 -22 35 -22 67 -4 72 40 2 17 -3 25 -17 28 -37
7 -44 20 -32 53 10 26 9 32 -6 40 -27 15 -20 26 20 34 24 4 49 19 70 41 40 43
84 52 137 30 51 -21 45 -45 -18 -66 -48 -16 -86 -49 -86 -75 0 -25 30 -43 82
-50 76 -10 111 -30 131 -73 13 -29 14 -39 4 -49 -9 -9 -111 -14 -377 -18 -201
-3 -375 -8 -387 -11 -35 -7 -27 10 15 34 20 12 31 22 24 22 -21 0 -69 -28 -76
-45 -5 -14 -44 -15 -338 -13 -183 1 -323 4 -310 6 13 2 26 10 29 18 3 8 13 12
22 9 18 -5 109 25 146 49 13 9 25 26 27 38 2 15 13 26 33 32 17 5 46 16 65 25
19 8 46 16 59 17 14 2 36 8 50 13 30 12 53 10 74 -7 9 -8 18 -9 21 -3 3 5 0
12 -6 15 -7 3 -1 3 15 -1 15 -3 33 0 41 6 17 14 9 51 -10 51 -17 0 -18 22 -1
39 10 10 7 16 -12 31 -29 21 -55 15 -48 -11 3 -12 0 -19 -9 -19 -22 0 -65 -47
-59 -63 7 -16 -34 -37 -70 -37 -13 0 -39 -6 -57 -14 -52 -23 -224 -76 -252
-78 -15 -1 -26 -6 -26 -10 0 -13 44 -9 90 7 56 20 58 19 30 -10 -13 -14 -31
-25 -41 -25 -9 0 -22 -7 -29 -15 -7 -9 -20 -13 -27 -11 -8 3 -26 0 -41 -8 -31
-15 -185 -13 -265 4 -52 11 -93 13 -85 5 8 -9 169 -35 223 -36 47 -2 46 -2
-20 -10 -138 -15 -279 -20 -299 -11 -12 6 -41 15 -66 22 -25 7 -51 17 -57 22
-17 14 -18 122 -1 112 8 -5 9 -2 2 12 -5 10 -10 110 -12 220 l-3 202 28 30
c17 18 60 44 108 63 70 27 94 32 189 35 59 1 111 5 114 8 3 3 14 6 24 6 16 0
18 -10 18 -110 0 -67 4 -110 10 -110 15 0 20 393 6 463 -3 15 -2 26 3 23 5 -3
12 -23 16 -43 8 -44 8 -431 -1 -444 -3 -5 -2 -14 2 -21 16 -25 23 32 23 199 1
145 3 172 15 167 11 -4 16 4 19 28 3 22 4 16 6 -22 0 -30 4 -72 7 -93 5 -24 3
-37 -5 -37 -6 0 -11 18 -11 45 0 25 -3 45 -7 45 -5 0 -9 -74 -10 -165 -2 -103
1 -165 7 -165 6 0 10 41 10 99 0 55 4 102 9 105 5 3 9 0 8 -7 -3 -85 5 -217
13 -217 7 0 8 49 5 143 l-5 142 77 2 c42 2 82 8 87 14 8 7 -14 8 -76 3 l-88
-7 0 56 0 56 164 0 c94 1 167 -3 171 -8 3 -6 -8 -26 -25 -45 -22 -25 -48 -40
-88 -51 -62 -18 -82 -30 -82 -51 0 -10 26 -13 118 -11 64 1 129 -2 145 -7 17
-5 27 -4 27 2 0 6 -10 13 -22 16 -13 2 15 3 62 1 93 -3 168 -22 245 -60 75
-37 95 -96 54 -161 -21 -35 -32 -44 -23 -20 3 8 1 21 -5 28 -6 7 -22 28 -37
46 -14 17 -30 30 -34 27 -5 -3 -11 3 -14 12 -6 17 -76 73 -91 73 -3 0 17 -22
45 -50 28 -27 55 -50 61 -50 5 0 20 -17 33 -38 35 -55 28 -98 -20 -140 -39
-33 -39 -33 -45 -10 l-5 23 -12 -22 c-7 -13 -10 -23 -6 -23 4 0 -1 -10 -12
-22 -10 -12 -13 -18 -6 -14 7 4 20 2 29 -6 14 -11 16 -11 10 4 -4 12 0 19 15
24 12 3 36 22 55 40 19 19 51 41 71 50 44 17 68 49 52 69 -11 14 1 58 19 70 6
3 11 32 11 64 0 53 -3 60 -45 106 -25 28 -45 46 -45 40 0 -5 -5 -2 -11 8 -6
10 -22 17 -41 17 -34 0 -108 38 -108 55 0 14 43 56 61 59 62 11 78 39 33 56
-30 12 -44 6 -44 -20 0 -10 -4 -22 -10 -25 -6 -4 -7 5 -4 23 l6 30 -102 -5
-103 -5 5 26 c3 14 2 26 -2 26 -5 0 -6 26 -3 58 6 62 -9 151 -32 196 -8 15
-15 30 -15 33 0 3 25 3 55 1 30 -1 55 0 55 5 0 4 -20 7 -44 7 -53 0 -94 14
-112 38 -27 35 -13 -3 19 -52 43 -65 57 -133 56 -272 0 -62 3 -123 5 -135 15
-62 15 -85 1 -106 -14 -20 -14 -23 0 -23 8 0 15 8 15 17 0 22 17 5 22 -22 3
-17 -4 -20 -57 -22 -33 -2 -73 -8 -90 -13 -28 -9 -165 -13 -165 -4 0 9 71 33
83 28 8 -3 34 14 60 36 54 48 57 62 27 166 -71 253 -91 319 -116 380 -23 58
-25 72 -16 98 15 39 9 43 -12 10 -11 -15 -15 -35 -12 -49 5 -19 -9 -37 -84
-109 -67 -63 -92 -94 -97 -118 -3 -18 -12 -41 -20 -50 -8 -9 -12 -22 -8 -27 3
-6 1 -11 -6 -11 -8 0 -8 -4 1 -15 7 -8 9 -15 4 -15 -4 0 -3 -5 4 -12 7 -7 12
-21 12 -32 0 -15 3 -17 11 -9 7 7 8 19 4 30 -13 31 -12 77 2 98 7 11 13 29 13
40 0 24 92 119 104 108 4 -5 6 -3 4 3 -5 15 62 88 72 78 9 -9 77 -228 87 -278
5 -24 3 -27 -13 -22 -11 3 -26 1 -34 -5 -11 -8 -6 -9 22 -7 32 3 38 1 43 -21
4 -15 1 -27 -7 -32 -10 -7 -9 -9 5 -9 9 0 17 -5 17 -10 0 -6 -25 -11 -57 -11
-73 0 -166 -7 -220 -15 -35 -5 -42 -3 -46 13 -3 10 -6 3 -7 -17 -2 -34 -3 -33
-15 16 -17 69 -22 77 -56 72 -39 -6 -32 15 7 23 26 6 26 7 5 8 -14 0 -35 -9
-48 -21 -13 -12 -23 -17 -23 -12 0 15 14 30 38 43 23 12 32 61 11 61 -6 0 -8
7 -4 18 5 13 4 14 -6 5 -7 -7 -12 -25 -11 -41 0 -17 -7 -33 -18 -40 -16 -10
-18 -9 -14 3 4 9 0 15 -10 15 -9 0 -16 5 -16 10 0 6 -9 10 -21 10 -16 0 -19
-4 -14 -20 4 -11 2 -20 -4 -20 -6 0 -11 4 -11 9 0 5 -14 23 -30 39 -22 23 -30
40 -30 67 0 22 4 34 10 30 6 -3 10 1 10 10 0 9 -5 13 -10 10 -6 -3 -10 -4 -10
-1 0 3 19 19 42 36 45 33 109 40 141 16 26 -20 22 -39 -8 -32 -23 6 -25 4 -21
-19 4 -19 -2 -30 -24 -46 -31 -23 -30 -39 3 -74 19 -20 19 -20 13 1 -4 13 1
30 14 47 31 40 23 46 -10 7 -19 -22 -30 -29 -30 -19 0 8 11 26 25 39 13 12 23
27 22 32 -1 5 16 17 38 26 61 26 62 27 111 125 26 51 56 106 69 122 36 49 82
146 110 236 34 108 56 151 74 144 18 -7 41 13 41 36 0 15 8 19 40 19 55 0 51
17 -5 22 -43 3 -45 2 -45 -22 0 -33 -16 -49 -42 -42 -14 3 -18 11 -15 24 5 18
4 18 -11 5 -9 -7 -25 -17 -34 -20 -10 -4 -18 -11 -18 -17 0 -6 5 -8 13 -3 13
8 47 15 47 9 0 -2 -11 -23 -24 -47 -13 -24 -38 -87 -56 -139 -45 -134 -51
-141 -120 -129 -32 5 -68 5 -87 0 -18 -5 -42 -7 -53 -4 -12 3 -20 0 -20 -7 0
-9 12 -11 48 -5 54 8 52 8 115 -1 26 -4 47 -9 47 -13 0 -3 -8 -18 -18 -33 -16
-24 -19 -25 -42 -12 -29 15 -106 19 -115 5 -3 -6 12 -10 33 -9 35 0 102 -10
102 -16 0 -10 -93 -186 -103 -194 -9 -8 -27 -4 -65 15 -52 25 -53 25 -97 9
-24 -10 -59 -31 -76 -47 -29 -27 -31 -34 -26 -75 5 -52 49 -107 104 -130 26
-11 33 -20 33 -42 1 -30 21 -62 39 -62 11 0 15 -13 6 -22 -3 -3 -26 -1 -53 4
-26 5 -68 10 -94 11 -26 2 -50 5 -53 9 -3 3 -22 1 -41 -5 -26 -8 -40 -8 -53 0
-14 9 -22 8 -35 -5 -12 -12 -21 -14 -34 -6 -10 6 -34 7 -57 3 -48 -8 -55 -5
-55 24 0 12 -2 139 -6 282 -5 212 -3 263 8 272 7 6 38 18 68 27 30 9 62 20 69
25 9 6 23 6 35 -1 20 -10 20 -9 4 8 -16 17 -16 19 -1 36 16 18 17 18 37 0 29
-27 84 -44 89 -29 2 8 23 3 61 -15 32 -14 67 -23 77 -21 24 7 17 16 -14 20
-12 2 -43 12 -69 23 -29 13 -57 18 -73 14 -18 -4 -33 1 -56 20 -17 14 -34 26
-39 26 -5 0 -24 -15 -42 -34 -29 -30 -68 -50 -141 -73 -16 -5 -17 45 -17 1011
l1 1016 502 3 c276 1 759 3 1074 5 l572 2 0 -619z m-1 -1416 c-1 -19 -5 -35
-10 -35 -4 0 -8 -5 -8 -11 0 -5 4 -8 9 -5 5 3 9 -17 9 -44 0 -28 -4 -50 -9
-50 -5 0 -9 6 -10 13 0 6 -5 1 -10 -12 -6 -17 -6 -27 1 -31 7 -4 7 -14 1 -31
-5 -13 -10 -18 -10 -11 -1 6 -5 12 -10 12 -7 0 -8 -33 -2 -72 1 -4 8 -5 16 -2
8 4 15 1 15 -5 0 -6 -10 -11 -22 -11 -20 0 -23 6 -26 44 -1 25 2 47 8 51 15
10 12 35 -5 35 -8 0 -15 8 -15 18 0 14 2 15 10 2 7 -12 11 -10 18 10 12 31 -1
48 -23 30 -10 -8 -15 -9 -15 -1 0 6 -5 11 -11 11 -6 0 -9 -6 -6 -14 3 -8 -2
-16 -14 -19 -12 -3 -19 0 -19 9 0 8 5 14 10 14 6 0 10 11 10 25 0 14 -4 25 -9
25 -8 0 -22 -30 -25 -55 -2 -17 -17 -35 -27 -35 -6 0 -8 4 -4 9 3 5 1 12 -5
16 -5 3 -10 2 -10 -4 0 -5 -3 -16 -6 -25 -4 -11 -1 -16 10 -16 9 0 16 -4 16
-10 0 -5 -4 -10 -9 -10 -5 0 -16 -7 -24 -15 -26 -25 -26 34 -1 92 22 50 23 50
85 62 49 10 69 20 93 46 17 18 32 33 33 34 1 0 2 -15 1 -34z m-1655 -758 l-6
-57 -51 -2 c-28 -1 -83 -2 -122 -3 -85 -2 -232 -52 -277 -94 l-29 -26 4 35 c3
32 6 35 38 37 43 4 90 22 90 35 0 6 -8 7 -17 3 -23 -9 -84 -24 -100 -25 -7 0
-13 9 -13 20 0 18 8 19 101 19 56 0 104 3 107 6 5 5 -100 8 -171 5 -20 -1 -37
3 -37 7 0 6 97 8 225 6 153 -2 225 0 225 7 0 7 -39 10 -112 9 -62 -1 -164 -1
-225 0 -110 1 -113 2 -113 24 l0 22 210 -2 c129 -1 212 2 215 8 4 6 -58 8
-177 6 -190 -4 -248 0 -248 14 0 5 13 9 29 9 16 0 31 5 33 10 2 8 20 7 56 -1
51 -10 96 -9 170 7 17 3 32 3 32 -2 0 -5 29 -7 65 -6 36 2 65 8 65 13 0 5 9 2
20 -8 16 -16 18 -27 13 -76z m1658 -937 c-1 -74 -3 -135 -4 -136 -1 -1 -242
-5 -536 -9 -294 -4 -580 -8 -635 -10 -128 -4 -337 -6 -688 -5 l-278 0 0 134
c0 119 2 134 18 138 9 3 222 6 472 8 250 1 581 6 735 9 154 4 423 7 599 7
l318 -1 -1 -135z"/>
<path d="M1085 3900 c-105 -5 -128 -9 -83 -14 16 -1 33 -49 25 -70 -4 -9 -18
-16 -32 -16 -14 0 -25 -4 -25 -10 0 -9 139 -16 206 -11 17 2 22 -5 27 -36 14
-85 51 -247 54 -237 2 6 -8 64 -22 130 -14 65 -25 125 -25 132 0 9 25 12 90
12 50 0 90 4 90 9 0 5 -10 11 -22 13 -19 2 -24 10 -26 46 -3 37 -1 42 17 42
12 0 21 4 21 10 0 9 -81 9 -295 0z"/>
<path d="M1218 2545 c-26 -14 -62 -25 -80 -26 -30 -1 -31 -2 -8 -8 23 -6 23
-7 -15 -25 -22 -11 -52 -28 -67 -39 -19 -14 -34 -18 -55 -13 -21 5 -24 4 -13
-4 25 -17 61 -11 92 15 16 14 42 28 56 32 15 3 42 19 59 34 68 59 157 60 343
7 58 -17 112 -32 120 -34 87 -20 127 -37 156 -65 19 -18 34 -29 34 -24 0 14
-73 75 -98 81 -20 5 -22 11 -18 38 l6 31 -13 -30 c-17 -44 -46 -36 -49 13 l-1
37 -4 -33 c-4 -29 -7 -31 -31 -25 -15 3 -28 9 -30 13 -2 5 -12 6 -22 3 -12 -3
-20 0 -20 6 0 7 -4 10 -8 7 -4 -3 -41 4 -82 15 -106 27 -193 25 -252 -6z"/>
<path d="M1485 2364 c15 -16 39 -45 53 -64 14 -19 49 -60 77 -90 95 -101 174
-206 190 -249 19 -53 19 -144 0 -191 -7 -19 -25 -64 -38 -100 -14 -36 -36 -94
-50 -130 -36 -94 -50 -141 -43 -147 3 -3 15 16 26 42 27 62 65 98 96 91 12 -3
26 -2 29 4 3 5 17 10 29 10 13 0 35 9 50 21 l26 20 0 -63 0 -63 -57 -35 c-32
-19 -74 -52 -96 -73 -56 -55 -201 -131 -235 -122 -37 9 -42 20 -42 97 0 37 -5
99 -12 137 -24 138 21 323 101 413 17 20 31 39 31 44 0 12 -47 -35 -72 -72
-13 -19 -29 -34 -35 -34 -7 0 -12 -8 -11 -17 1 -10 -2 -33 -7 -50 -7 -32 -9
-33 -64 -33 -31 0 -96 -9 -146 -19 -108 -23 -72 -28 44 -6 45 9 96 13 114 10
l33 -7 -7 -51 c-4 -29 -8 -73 -8 -99 -1 -31 -5 -48 -13 -48 -7 0 -5 -5 5 -11
26 -15 21 -32 -8 -25 -14 4 -25 2 -25 -4 0 -10 13 -14 36 -11 18 2 28 -70 12
-81 -10 -8 -10 -11 0 -15 13 -5 17 -54 5 -52 -18 3 -33 -2 -33 -9 0 -5 10 -8
22 -8 15 1 24 -6 26 -19 10 -56 101 -62 177 -12 115 77 141 91 158 88 11 -1
17 4 17 18 0 11 5 23 10 26 6 3 10 1 10 -4 0 -6 5 -11 11 -11 6 0 8 8 5 18 -4
12 3 23 23 35 l29 17 5 -33 c10 -72 6 -271 -6 -279 -9 -6 -9 -10 1 -17 11 -6
13 -30 8 -107 -3 -55 -8 -117 -11 -139 l-6 -40 17 40 c15 35 17 80 16 355 -1
173 -6 379 -12 458 -5 89 -6 152 0 168 11 28 3 32 -15 7 -11 -15 -15 -12 -34
24 -11 23 -18 49 -15 57 7 18 24 22 24 6 0 -5 6 -10 13 -10 8 0 22 -9 31 -19
10 -10 26 -21 36 -24 15 -4 18 0 16 19 -3 28 -16 45 -16 21 0 -9 -4 -17 -9
-17 -6 0 -9 9 -8 20 1 11 5 20 9 20 4 0 8 5 8 10 0 18 -18 11 -25 -10 -5 -16
-9 -18 -26 -7 -10 6 -19 20 -19 31 0 16 -3 15 -25 -8 -20 -22 -25 -36 -23 -72
2 -24 8 -44 14 -44 19 0 43 -34 41 -58 -1 -17 -7 -22 -27 -20 -21 3 -25 -1
-23 -22 1 -14 -2 -37 -7 -52 -7 -21 -5 -26 5 -22 7 3 20 -4 28 -16 8 -12 18
-17 21 -12 3 5 -1 15 -9 22 -19 16 -19 30 0 30 18 0 32 -47 18 -61 -11 -11
-43 -2 -43 12 0 5 -10 9 -22 9 -17 0 -19 -3 -10 -12 16 -16 15 -28 -3 -28 -22
0 -18 -17 5 -23 23 -6 27 -27 5 -27 -8 0 -15 5 -15 10 0 6 -11 10 -25 10 -14
0 -25 5 -25 10 0 6 6 10 14 10 17 0 31 33 17 38 -6 2 -11 8 -11 14 0 6 6 8 14
5 10 -4 15 5 18 31 6 49 0 66 -18 51 -11 -9 -12 -15 -2 -26 10 -12 9 -17 -3
-27 -8 -6 -28 -38 -43 -71 -47 -102 -49 -105 -53 -101 -2 2 8 32 23 67 74 176
85 212 85 290 0 90 -20 130 -134 262 -185 218 -196 231 -184 239 8 5 7 8 -5 8
-9 0 -24 3 -33 6 -10 4 -6 -4 10 -22z"/>
<path d="M1024 2068 c-46 -71 -91 -149 -93 -160 -1 -5 -1 -9 -2 -10 0 -2 -2
-12 -4 -22 -2 -10 -9 -23 -17 -27 -7 -4 -9 -11 -6 -14 4 -4 42 7 85 23 43 17
96 35 118 41 33 9 162 21 238 22 19 0 22 10 8 25 -5 5 -11 22 -13 39 -2 22
-13 37 -41 55 -35 22 -38 27 -32 57 3 18 2 33 -3 33 -5 0 -12 -16 -15 -36 -8
-51 -32 -74 -77 -74 -43 0 -64 19 -77 69 -5 19 -13 36 -19 38 -5 2 -28 -25
-50 -59z m95 -42 c26 -24 86 -23 112 0 17 15 20 15 50 -2 30 -18 55 -66 44
-84 -2 -4 -48 -10 -102 -13 -54 -3 -122 -13 -151 -22 -58 -17 -112 -12 -112
10 0 16 50 105 87 154 l26 33 12 -28 c7 -16 22 -38 34 -48z"/>
<path d="M211 1556 c-8 -10 -7 -17 4 -26 14 -11 13 -14 -2 -27 -13 -10 -15
-16 -5 -19 21 -9 13 -24 -10 -20 -28 4 -58 -20 -58 -46 0 -24 48 -44 71 -29 9
5 26 7 38 4 23 -6 28 6 9 25 -8 8 -9 12 -1 12 6 0 14 -6 16 -12 4 -10 8 -9 17
2 9 12 10 10 5 -10 -6 -24 -5 -24 9 -6 20 25 3 50 -28 40 -18 -6 -19 -5 -8 9
11 13 10 17 -5 26 -16 9 -16 10 5 11 27 0 29 26 2 35 -11 3 -20 12 -20 20 0
19 -27 26 -39 11z"/>
<path d="M1637 303 c-23 -4 -26 -7 -17 -18 12 -15 9 -122 -4 -143 -5 -8 2 -12
25 -12 24 0 29 3 22 13 -6 6 -11 27 -11 45 -1 27 3 32 23 32 17 0 29 -9 40
-30 15 -30 61 -67 71 -58 3 3 -9 19 -26 36 -33 34 -38 53 -15 72 16 14 20 46
7 54 -14 9 -85 14 -115 9z"/>
</g>
</svg>
