<?xml version="1.0" standalone="no"?>
<!DOCTYPE svg PUBLIC "-//W3C//DTD SVG 20010904//EN"
 "http://www.w3.org/TR/2001/REC-SVG-20010904/DTD/svg10.dtd">
<svg version="1.0" xmlns="http://www.w3.org/2000/svg"
 width="233.000000pt" height="400.000000pt" viewBox="0 0 233.000000 400.000000"
 preserveAspectRatio="xMidYMid meet">
<metadata>
Created by potrace 1.15, written by Peter Selinger 2001-2017
</metadata>
<g transform="translate(0.000000,400.000000) scale(0.100000,-0.100000)"
fill="#000000" stroke="none">
<path d="M1577 3973 c-1 -1 -346 -5 -767 -8 -421 -4 -767 -10 -770 -12 -9 -8
-10 -243 -12 -2088 l-1 -1830 1094 0 c602 0 1102 4 1113 9 18 8 18 22 12 360
-3 193 -7 925 -8 1626 -2 1279 -8 1924 -18 1934 -5 4 -639 14 -643 9z m233
-32 c0 -7 -27 -9 -77 -6 l-78 4 64 -12 c38 -7 66 -18 69 -26 4 -11 -7 -13 -59
-7 -108 11 -403 36 -428 36 -58 0 -7 -10 99 -20 349 -33 390 -39 390 -54 0 -8
-58 -16 -186 -25 -212 -15 -352 -33 -194 -25 359 18 380 18 380 1 0 -10 -8
-17 -17 -17 -9 0 -42 -9 -72 -19 -47 -17 -290 -89 -411 -123 -19 -5 -39 -14
-45 -20 -7 -7 -4 -8 10 -4 11 3 101 28 200 56 99 28 213 62 254 76 59 21 75
23 82 12 10 -17 7 -19 -75 -53 -93 -38 -387 -186 -356 -179 14 3 114 48 222
100 108 52 203 94 211 94 8 0 17 -6 20 -14 4 -9 -23 -29 -78 -60 -80 -44 -108
-66 -86 -66 5 0 12 4 16 10 3 5 40 27 82 49 57 30 79 37 85 28 12 -19 11 -20
-37 -57 -25 -19 -52 -41 -60 -47 -7 -7 -20 -13 -28 -13 -30 0 -54 -62 -32 -80
8 -6 17 -30 21 -53 11 -58 11 -70 0 -84 -5 -8 -5 -13 2 -13 5 0 10 -12 10 -26
0 -16 -5 -23 -13 -20 -11 4 -13 -7 -6 -32 1 -1 13 5 27 14 22 15 25 22 19 51
-7 40 2 43 16 6 14 -35 13 -103 0 -116 -8 -8 -11 -7 -11 1 0 7 -9 12 -20 12
-11 0 -20 5 -20 11 0 6 -9 8 -22 3 -19 -6 -21 -4 -11 7 7 8 8 20 4 28 -6 9
-10 7 -14 -8 -4 -18 -9 -20 -30 -12 -14 5 -28 7 -31 4 -3 -4 -6 -1 -6 6 0 9
-4 9 -14 -1 -20 -18 -10 -28 27 -28 l32 0 -23 -18 c-12 -10 -29 -30 -37 -45
-14 -26 -13 -28 12 -38 41 -15 127 17 121 47 -2 7 0 13 5 13 30 3 34 -1 29
-24 -2 -15 0 -25 7 -25 7 0 9 -5 5 -11 -5 -8 -9 -8 -14 1 -5 8 -13 9 -26 2
-11 -5 -42 -15 -71 -22 -61 -14 -91 -1 -100 43 -6 28 -18 36 -26 15 -7 -21 13
-53 41 -71 24 -14 33 -14 82 -1 30 8 72 14 93 14 87 0 121 43 115 147 -4 77
-23 112 -74 136 -30 15 -32 14 -42 -6 -10 -20 -11 -20 -11 -3 -1 27 28 46 56
35 13 -5 23 -6 23 -4 0 12 -6 20 -12 18 -5 -2 -7 3 -5 9 1 7 -8 14 -20 16 -22
3 -33 22 -13 22 14 0 12 20 -4 51 -13 26 -12 28 45 68 64 46 74 48 83 25 4
-11 -12 -39 -48 -83 -30 -36 -52 -68 -49 -71 5 -5 14 5 85 91 27 32 39 41 48
33 8 -8 1 -35 -30 -105 -23 -52 -44 -100 -47 -106 -3 -7 0 -13 6 -13 6 0 11 4
11 9 0 5 20 52 45 106 37 78 48 95 59 86 14 -12 -4 -99 -69 -335 -13 -50 -23
-92 -20 -94 6 -6 30 57 45 118 34 144 73 286 81 294 19 21 21 -34 5 -182 -9
-87 -16 -170 -15 -187 2 -50 25 89 39 233 7 72 14 132 16 132 1 0 9 -3 17 -6
13 -5 14 -36 10 -212 -3 -140 -1 -204 6 -197 5 6 12 92 14 203 3 120 9 198 16
205 6 6 13 9 15 6 5 -5 30 -299 30 -367 1 -28 5 -52 10 -52 5 0 5 68 0 158
-11 211 -11 265 2 269 7 2 15 -59 23 -177 8 -99 17 -180 21 -180 5 0 6 8 3 19
-3 10 0 21 5 25 6 3 10 -233 11 -639 0 -354 -3 -646 -8 -649 -9 -6 -43 28 -60
62 -7 13 -20 22 -29 20 -16 -3 -19 -13 -36 -123 -10 -69 -31 -83 -49 -35 -6
17 -15 30 -19 30 -10 0 -38 -42 -38 -59 0 -15 -38 -61 -51 -61 -4 0 -13 16
-19 35 -6 19 -18 35 -25 35 -12 0 -33 -47 -39 -88 -2 -10 -12 -17 -26 -17 -14
0 -27 -11 -38 -30 -15 -30 -15 -30 -25 -7 -13 29 -28 24 -46 -16 -9 -20 -20
-31 -28 -27 -7 3 -19 8 -27 11 -14 5 -25 -20 -40 -88 -3 -14 -22 -47 -41 -72
-25 -33 -30 -46 -19 -46 8 0 23 13 32 30 9 16 25 30 35 30 9 0 17 -2 17 -5 0
-17 -33 -80 -48 -91 -9 -7 -12 -14 -6 -14 6 0 18 8 26 18 18 20 105 202 114
237 8 31 16 32 29 3 6 -13 19 -24 31 -26 27 -4 70 58 79 115 8 52 18 60 33 28
7 -14 20 -25 31 -25 23 0 71 54 71 81 0 10 5 19 10 19 6 0 10 -4 10 -8 0 -5 6
-16 13 -26 30 -41 68 14 81 118 l8 58 30 -41 c17 -23 38 -41 49 -41 17 0 19
-8 19 -92 l0 -93 -55 -24 c-56 -24 -125 -80 -125 -102 0 -7 -7 -20 -15 -29
-12 -13 -13 -26 -7 -56 5 -21 14 -38 20 -36 15 3 16 -187 2 -220 -21 -44 -123
-94 -105 -50 4 9 10 25 12 35 3 9 11 17 18 17 23 0 28 34 7 50 -10 9 -24 26
-31 38 -13 25 -66 55 -84 49 -7 -2 -25 2 -40 10 -31 15 -39 12 -43 -15 -2 -9
-8 -18 -13 -20 -17 -6 -13 -30 7 -44 10 -7 21 -23 24 -35 5 -17 0 -24 -24 -34
-17 -7 -27 -17 -24 -25 3 -7 1 -16 -4 -19 -6 -4 -10 -15 -10 -26 0 -26 -57
-52 -83 -37 -32 17 -32 38 2 70 41 38 39 60 -9 93 -22 15 -40 31 -40 36 0 4
-22 34 -50 65 -44 50 -55 67 -48 77 1 1 -4 12 -11 25 -8 15 -21 22 -41 22 -17
0 -30 4 -30 9 0 19 -81 98 -118 115 -31 14 -42 26 -51 56 -6 20 -11 39 -11 42
0 3 18 11 40 18 22 7 39 18 37 23 -4 13 -88 38 -104 32 -7 -2 -13 0 -13 5 0 5
-20 23 -44 40 -46 31 -62 37 -51 20 3 -6 2 -10 -4 -10 -5 0 -13 5 -16 10 -3 6
-1 10 6 10 8 0 6 7 -5 19 -10 11 -25 17 -34 14 -9 -4 -13 -2 -9 4 4 6 -9 27
-27 47 -19 19 -40 52 -46 71 -6 19 -15 33 -19 30 -16 -9 -42 20 -35 39 6 16 9
15 20 -10 22 -52 15 -8 -11 60 -28 75 -28 76 -16 76 5 0 12 -16 16 -36 3 -20
13 -43 21 -51 8 -8 14 -24 14 -37 0 -37 50 -125 88 -154 19 -15 49 -40 65 -57
30 -29 30 -29 38 -7 5 12 13 22 18 22 6 0 8 -6 5 -13 -6 -16 42 -41 51 -27 4
6 17 3 32 -7 20 -13 28 -14 31 -5 2 7 8 10 13 6 10 -6 7 25 -4 43 -4 7 -15 9
-24 6 -11 -4 -14 -3 -9 5 4 7 21 12 37 12 25 0 33 -6 42 -30 8 -21 18 -30 35
-30 20 0 21 -3 12 -20 -12 -23 -35 -27 -26 -5 8 21 -4 19 -31 -7 -19 -18 -26
-20 -32 -9 -5 7 -13 11 -19 7 -5 -3 -15 0 -21 8 -6 7 -22 11 -35 9 -13 -3 -34
0 -46 7 -12 6 -24 9 -27 7 -14 -15 151 -68 214 -69 15 0 40 6 55 14 31 17 75
68 59 68 -6 0 -11 7 -11 15 0 8 -5 15 -11 15 -5 0 -7 -5 -4 -10 10 -16 -3 -11
-29 11 -13 12 -27 32 -30 45 -4 16 -14 24 -27 24 -28 0 -119 33 -119 43 0 4 8
4 18 -1 9 -5 30 -12 47 -16 l30 -8 -28 22 c-15 12 -46 50 -68 83 -23 34 -63
83 -90 108 l-48 46 4 59 c4 54 3 57 -11 39 -13 -17 -16 -18 -24 -5 -5 8 -10
19 -10 23 0 5 -4 6 -9 3 -5 -3 -11 3 -14 14 -6 24 -8 24 33 3 19 -9 35 -12 37
-7 14 40 142 202 160 203 17 1 34 -74 21 -95 -4 -5 4 -23 17 -40 14 -16 36
-51 49 -79 13 -27 37 -63 53 -80 16 -16 50 -58 76 -91 29 -38 66 -71 95 -86
47 -26 174 -54 192 -43 6 3 38 1 72 -6 45 -9 63 -9 66 -1 2 6 10 8 18 5 8 -3
14 1 14 11 0 12 6 15 24 10 26 -6 82 20 90 43 7 18 -32 36 -65 29 -16 -3 -29
-1 -29 4 0 6 -10 10 -22 10 -16 0 -19 -3 -10 -8 7 -5 10 -16 6 -25 -8 -22 23
-23 46 -2 10 9 24 13 33 9 14 -5 14 -8 2 -20 -7 -8 -18 -14 -23 -14 -6 0 -12
-5 -14 -11 -2 -7 -12 -7 -33 1 -25 10 -31 8 -45 -10 -13 -18 -22 -20 -58 -14
-43 7 -67 25 -67 53 0 12 -8 15 -35 13 -19 -1 -39 -7 -44 -12 -4 -4 -15 -6
-22 -3 -16 6 -19 39 -4 48 19 12 10 23 -25 35 -48 16 -66 8 -26 -12 18 -8 29
-18 23 -22 -14 -8 -57 16 -57 32 0 8 8 19 18 26 9 7 17 16 17 20 0 13 -41 46
-57 46 -15 0 -15 1 1 19 9 10 14 25 11 33 -4 9 4 19 20 28 14 7 25 18 24 24
-5 41 3 55 41 70 52 21 60 20 60 -3 0 -11 5 -23 11 -26 6 -4 7 -19 4 -36 -8
-35 2 -69 19 -69 8 0 19 -6 25 -14 9 -11 8 -15 -5 -20 -10 -4 -22 -2 -28 4
-14 14 -56 13 -56 -2 0 -24 34 -48 67 -48 18 0 33 -4 33 -9 0 -16 -27 -31 -44
-25 -10 4 -16 1 -16 -9 0 -10 16 -19 47 -25 26 -6 50 -9 52 -6 2 2 -1 4 -8 4
-7 0 -9 5 -6 10 3 6 15 10 26 10 10 0 19 4 19 9 0 4 -11 7 -25 6 -19 -3 -25 1
-25 16 0 10 -4 19 -10 19 -13 0 -13 33 1 47 7 7 1 18 -22 37 -28 24 -31 30
-20 52 8 17 8 31 1 44 -5 10 -10 32 -10 49 0 28 2 30 25 21 36 -14 52 -3 59
39 3 21 14 49 24 61 17 21 23 22 78 14 32 -4 70 -7 84 -6 29 3 63 39 56 58 -3
7 -1 16 4 19 6 4 10 10 10 15 0 6 -15 1 -32 -10 -18 -11 -40 -20 -48 -20 -8 1
-3 8 12 16 24 12 38 34 24 34 -2 0 -12 3 -22 7 -13 5 -15 3 -9 -7 5 -8 3 -11
-6 -8 -8 3 -13 14 -11 24 10 77 22 114 37 114 6 0 20 9 29 19 21 23 13 63 -10
54 -7 -3 -14 0 -14 6 0 6 -4 11 -10 11 -5 0 -10 -7 -10 -15 0 -8 5 -15 10 -15
15 0 12 -26 -5 -40 -21 -17 -30 -6 -30 39 0 30 -3 37 -15 33 -40 -14 -45 -36
-14 -73 17 -19 30 -79 18 -79 -18 0 -35 18 -32 31 4 20 -11 20 -52 1 -31 -14
-33 -16 -12 -19 12 -3 22 -11 22 -18 0 -22 22 -29 32 -11 8 14 13 15 24 5 11
-9 12 -15 3 -25 -9 -11 -8 -14 0 -14 7 0 9 -4 6 -10 -3 -5 -15 -10 -25 -10
-11 0 -26 -12 -35 -29 -8 -16 -20 -31 -27 -34 -7 -3 -8 -6 -3 -6 6 -1 23 10
39 24 20 17 33 22 40 15 6 -6 15 -5 24 3 13 10 14 9 4 -10 -8 -14 -9 -24 -2
-28 6 -4 5 -11 -3 -19 -8 -10 -29 -12 -67 -9 -49 5 -58 2 -83 -21 -29 -27 -47
-33 -47 -17 0 27 122 141 151 141 5 0 9 4 9 10 0 12 -27 2 -62 -22 -42 -29
-171 -68 -185 -56 -8 6 -34 8 -67 4 -36 -5 -63 -3 -78 5 -12 7 -36 14 -53 16
-16 2 -31 8 -33 13 -6 17 -32 11 -33 -7 -1 -16 -2 -16 -6 0 -3 11 -11 16 -19
13 -17 -6 -18 6 -3 21 8 8 20 7 45 -3 19 -8 35 -10 39 -5 3 5 -5 13 -17 17
-13 4 -43 24 -68 44 -79 65 -153 111 -172 107 -10 -3 -16 -1 -12 4 9 15 -5 10
-24 -8 -9 -10 -29 -26 -42 -35 -14 -9 -20 -17 -13 -17 6 -1 19 6 28 15 9 9 19
13 23 9 4 -4 1 -10 -6 -12 -7 -3 -18 -11 -26 -18 -7 -8 -17 -10 -22 -5 -12 11
-102 -11 -108 -27 -3 -7 -1 -13 4 -13 6 0 10 5 10 10 0 6 4 10 9 10 13 0 10
-48 -4 -60 -15 -12 -75 -7 -119 10 -22 8 -26 14 -18 22 17 17 15 28 -3 22 -8
-4 -15 -2 -15 4 0 23 71 24 78 2 3 -7 9 -7 18 1 20 16 18 -5 -2 -25 -14 -15
-14 -16 1 -16 8 0 20 12 25 26 13 32 12 37 0 29 -6 -3 -10 -1 -10 6 0 8 -5 7
-16 -2 -15 -12 -16 -11 -10 11 7 24 6 24 -8 6 -9 -11 -16 -14 -16 -7 0 7 -5 9
-12 5 -7 -4 -8 -3 -4 5 4 6 12 9 17 6 5 -4 9 -2 9 3 0 14 -30 23 -51 17 -13
-5 -19 -1 -19 10 0 11 5 15 15 11 8 -3 15 0 16 7 0 7 16 25 35 40 32 27 34 28
34 8 0 -12 5 -21 10 -21 7 0 9 16 6 41 -5 37 9 89 23 89 4 0 17 -7 29 -16 13
-9 22 -11 22 -4 0 6 -15 18 -32 26 -69 33 -78 39 -75 54 2 10 12 14 30 12 29
-3 34 7 15 26 -9 9 -9 12 0 12 6 0 9 6 6 14 -3 8 7 18 25 26 18 7 31 20 31 30
0 24 36 32 52 11 28 -34 48 -80 42 -95 -3 -9 1 -27 10 -40 23 -36 56 -96 56
-103 0 -3 -7 0 -15 7 -11 9 -15 9 -15 1 0 -6 7 -14 15 -17 8 -4 15 -10 15 -16
0 -5 -4 -7 -9 -3 -5 3 -12 -4 -16 -15 -3 -11 -11 -20 -17 -20 -5 0 -8 7 -4 15
3 9 -4 25 -15 36 -15 15 -19 28 -15 45 4 14 11 22 17 18 8 -4 9 1 4 17 -11 35
-25 47 -25 21 0 -12 -5 -22 -11 -22 -6 0 -9 -9 -6 -20 3 -11 2 -20 -1 -20 -14
0 -8 -109 5 -114 7 -3 13 -11 13 -18 0 -15 -71 -58 -94 -58 -9 0 -16 -4 -16
-9 0 -20 71 12 117 52 23 20 23 20 3 34 -11 8 -20 21 -20 29 0 19 10 18 25 -3
13 -18 73 -23 83 -6 4 5 16 13 27 17 19 7 19 8 -5 21 -23 13 -23 14 -4 15 11
0 25 -5 32 -12 9 -9 12 -9 12 1 0 7 8 20 17 29 16 16 15 17 -5 20 -22 3 -33
42 -12 42 5 0 8 23 7 51 l-2 51 81 52 c45 28 90 56 100 62 15 10 17 14 7 25
-7 7 -13 20 -13 29 0 8 7 2 16 -15 12 -23 13 -35 5 -53 -8 -17 -8 -21 0 -16 7
4 10 1 7 -7 -3 -8 -14 -15 -26 -17 -12 -2 -22 -7 -22 -12 0 -5 -3 -16 -7 -26
-4 -12 -3 -15 5 -10 16 10 15 -9 -3 -44 -11 -21 -12 -28 -3 -24 20 8 46 47 50
75 1 13 9 30 16 37 12 13 15 31 13 62 -1 15 12 -10 23 -43 4 -13 12 -16 33
-11 51 12 65 33 58 84 -4 25 -13 52 -21 61 -8 8 -14 23 -14 33 0 9 -5 14 -10
11 -6 -4 -8 -15 -5 -24 8 -25 -20 -48 -29 -24 -6 14 -9 15 -16 4 -4 -8 -6 -20
-3 -28 3 -7 0 -13 -6 -13 -6 0 -11 5 -11 11 0 18 20 49 33 49 7 0 12 15 11 40
0 21 3 37 8 34 14 -9 9 23 -6 35 -10 8 -21 7 -45 -5 -17 -8 -31 -19 -31 -23 0
-4 -15 -23 -34 -42 -37 -40 -59 -47 -162 -53 -74 -4 -116 -20 -148 -55 -13
-14 -31 -21 -58 -21 -33 0 -41 -5 -58 -32 -11 -18 -20 -43 -20 -55 0 -14 -6
-23 -15 -23 -9 0 -20 -12 -26 -27 -5 -15 -19 -33 -29 -40 -26 -18 -25 -27 6
-56 19 -18 24 -30 19 -46 -8 -26 -102 -91 -132 -91 -30 0 -73 -17 -73 -29 0
-6 7 -7 17 -4 11 4 14 3 9 -6 -4 -6 -13 -10 -20 -9 -6 2 -28 -14 -49 -34 -21
-21 -52 -45 -70 -54 -17 -10 -75 -45 -127 -79 -211 -138 -331 -215 -348 -224
-13 -7 -29 -7 -49 1 -26 10 -34 8 -61 -12 -18 -13 -32 -29 -32 -34 0 -6 -10
-22 -21 -36 l-20 -25 5 45 c3 25 7 333 8 685 1 352 4 661 6 687 l4 48 351 2
c1200 9 1397 9 1397 -1z m390 -135 c0 -79 3 -158 6 -175 6 -29 4 -32 -37 -50
-88 -40 -211 -12 -282 62 -63 68 -87 182 -56 274 l11 33 179 0 179 0 0 -144z
m-1680 -1185 c0 -38 16 -48 41 -25 18 17 20 17 34 -2 8 -10 15 -24 15 -31 0
-19 -17 -25 -24 -8 -3 8 -10 15 -17 15 -6 0 -9 -6 -6 -12 15 -42 17 -58 8 -58
-6 0 -11 9 -11 19 0 11 -5 23 -12 27 -8 5 -9 -2 -5 -24 8 -39 -5 -42 -20 -4
-11 26 -11 26 -12 3 -1 -20 -3 -21 -16 -11 -12 10 -15 9 -16 -6 0 -11 -3 -14
-6 -6 -2 6 -11 12 -19 12 -10 0 -13 -7 -8 -25 4 -15 2 -25 -5 -25 -6 0 -11 -4
-11 -10 0 -5 7 -7 16 -3 10 4 15 1 14 -8 -7 -45 1 -90 17 -96 9 -4 19 -1 21 5
7 23 30 11 36 -19 5 -26 10 -31 30 -27 22 4 23 2 19 -32 -3 -24 0 -41 9 -51 8
-8 17 -22 21 -33 5 -12 14 -17 26 -13 12 3 18 0 15 -7 -2 -6 4 -21 15 -33 21
-22 29 -52 19 -69 -7 -11 -48 -185 -48 -204 0 -12 86 -52 135 -64 48 -12 63
-33 70 -95 4 -31 17 -83 31 -116 34 -83 47 -148 48 -230 1 -46 6 -79 17 -95 9
-14 21 -40 27 -59 14 -40 16 -145 3 -137 -5 3 -11 -7 -14 -23 -8 -38 -56 -55
-155 -55 -62 0 -70 -2 -56 -13 10 -7 29 -13 43 -14 23 0 24 -1 6 -8 -65 -26
-128 -41 -169 -41 -39 0 -48 4 -55 23 -5 12 -18 23 -30 24 -27 2 -37 -15 -14
-24 10 -4 23 -14 30 -22 10 -13 8 -19 -10 -33 -12 -9 -19 -19 -16 -22 7 -7 59
16 59 27 0 15 18 6 23 -12 4 -16 -8 -22 -86 -45 -64 -18 -94 -23 -102 -15 -16
17 22 39 56 32 25 -5 29 -2 29 16 0 18 -6 21 -37 21 -47 0 -83 9 -83 21 0 5 5
9 11 9 21 0 55 51 42 64 -10 10 -52 -25 -46 -40 3 -8 1 -14 -5 -14 -6 0 -18
-3 -26 -6 -12 -4 -20 4 -31 30 -8 19 -15 39 -15 44 0 9 64 42 83 42 7 0 26 11
42 25 l30 25 -37 -5 c-21 -2 -47 -9 -58 -15 -11 -6 -20 -7 -20 -2 0 19 45 48
93 58 60 14 98 4 122 -32 12 -19 20 -23 29 -15 9 8 18 7 31 -3 16 -12 11 -14
-48 -20 -62 -7 -88 -18 -70 -29 5 -3 34 0 66 6 57 10 58 10 92 -23 19 -19 38
-31 41 -27 11 11 -19 65 -33 60 -9 -4 -11 0 -7 10 7 19 -51 58 -72 50 -8 -3
-14 -1 -14 4 0 15 -57 43 -87 43 -78 0 -172 -55 -173 -101 0 -9 -7 -22 -15
-29 -8 -7 -15 -21 -15 -31 0 -25 39 -89 55 -89 19 0 29 -20 27 -51 -2 -19 5
-31 23 -43 14 -9 23 -21 20 -26 -3 -5 -1 -11 5 -15 15 -9 12 -19 -9 -44 -18
-20 -19 -50 -2 -52 80 -10 104 -18 118 -39 12 -17 18 -19 29 -9 16 13 19 -2 3
-18 -17 -17 39 -76 66 -69 17 4 24 1 27 -12 4 -16 16 -19 68 -19 48 0 65 -4
72 -17 5 -10 21 -21 34 -26 17 -7 24 -17 24 -35 0 -24 -3 -25 -59 -25 -33 0
-62 4 -66 9 -3 6 -27 13 -53 17 -26 3 -57 13 -70 21 -13 8 -32 11 -42 8 -16
-5 -20 -2 -20 17 0 24 -16 48 -33 48 -4 0 -13 -13 -18 -30 -9 -23 -17 -30 -37
-30 -15 0 -47 -11 -72 -23 -39 -19 -49 -20 -70 -10 -14 7 -33 10 -42 7 -11 -3
-23 4 -33 20 -26 40 -45 40 -76 2 -16 -19 -41 -36 -56 -38 -16 -3 -35 -7 -43
-9 -13 -3 -15 38 -18 320 l-2 324 45 -6 c43 -6 46 -5 109 51 89 80 115 113
106 137 -6 16 -8 14 -13 -12 -8 -40 -161 -178 -186 -167 -9 4 -26 7 -38 7
l-23 -1 -2 664 c-1 365 -2 672 -2 681 -1 11 19 31 49 50 l49 33 27 -26 c25
-24 43 -31 79 -33 8 -1 21 -14 28 -31 12 -26 15 -28 29 -15 21 21 39 19 22 -2
-12 -16 -11 -17 3 -3 14 12 15 23 7 65 -5 29 -17 57 -29 67 -22 18 -26 28 -10
28 5 0 23 -19 40 -42 16 -22 30 -36 30 -29 0 18 -21 54 -39 68 -13 10 -12 11
11 7 21 -3 26 -1 22 10 -4 11 6 18 36 26 25 7 55 25 73 45 39 42 47 43 47 6z
m135 -143 c6 -18 18 -34 27 -36 13 -3 16 1 12 12 -3 9 -1 16 5 16 13 0 14 -20
2 -39 -6 -10 -1 -21 18 -37 21 -19 23 -23 8 -24 -25 0 -32 -28 -12 -50 15 -16
15 -26 4 -97 -12 -72 -29 -120 -29 -80 0 9 -4 17 -9 17 -6 0 -6 12 -1 32 9 28
5 69 -7 91 -9 15 -33 -16 -28 -34 8 -24 -3 -59 -17 -59 -6 0 -8 12 -4 31 5 25
3 30 -9 25 -20 -7 -20 32 0 54 16 18 9 60 -10 60 -20 0 -46 -30 -39 -43 5 -9
4 -9 -5 -1 -10 9 -10 17 -1 34 9 16 9 25 1 33 -6 6 -11 19 -11 29 0 24 -19 23
-28 -1 -4 -11 -11 -20 -17 -20 -5 0 -12 -10 -15 -23 -4 -14 -9 -18 -13 -12
-10 17 13 75 26 68 7 -3 4 1 -6 9 -16 13 -16 15 -1 21 9 3 19 4 24 1 4 -3 10
2 14 10 3 8 14 15 25 15 11 0 23 5 27 11 3 6 15 9 25 6 11 -3 19 -1 19 4 0 22
17 6 25 -23z m309 -709 c21 -11 51 -21 67 -21 26 -1 28 -4 21 -27 -11 -39 -7
-90 11 -151 9 -30 17 -81 17 -112 0 -52 -3 -60 -35 -93 -20 -19 -45 -35 -55
-35 -11 0 -20 2 -20 4 0 21 -55 215 -71 252 -12 27 -25 72 -29 99 -5 28 -11
57 -15 66 -5 12 1 20 22 27 40 15 44 14 87 -9z m270 -5 c10 -27 7 -44 -10 -44
-8 0 -12 -4 -9 -10 3 -5 13 -10 22 -10 9 0 36 -9 60 -21 83 -40 143 -185 101
-242 -12 -15 -18 -12 -65 26 -28 23 -88 70 -133 105 -60 46 -86 74 -99 105
-26 59 -15 81 40 85 24 2 51 8 59 13 21 12 27 11 34 -7z m986 -72 c0 -41 -5
-52 -33 -78 -40 -38 -106 -72 -129 -66 -19 4 -26 62 -8 62 6 0 10 6 10 14 0
20 49 65 100 92 25 12 48 23 53 24 4 0 7 -22 7 -48z m-1134 -29 c7 -31 24 -49
96 -104 135 -103 180 -146 176 -166 -2 -13 11 -25 54 -46 61 -30 115 -87 83
-87 -29 0 -6 -17 38 -28 23 -6 58 -25 77 -42 38 -34 58 -37 99 -15 28 14 29
14 24 -6 -5 -19 -4 -20 15 -10 18 9 21 19 18 51 -3 30 0 40 10 40 8 0 14 7 14
16 0 9 6 22 14 28 20 15 9 64 -15 71 -10 4 -19 10 -19 15 0 6 11 5 26 0 37
-15 40 -12 16 10 -27 25 -29 45 -4 35 9 -4 28 -8 42 -9 29 -3 76 -31 83 -50 3
-7 1 -19 -3 -26 -5 -8 -6 -26 -3 -41 3 -15 -2 -40 -11 -58 -13 -24 -14 -36 -6
-51 16 -31 25 -146 11 -154 -6 -4 -11 -11 -11 -16 0 -13 60 20 61 33 0 7 4 3
9 -8 5 -11 9 -14 9 -7 1 6 6 12 12 12 8 0 9 -11 5 -32 -5 -29 -4 -31 8 -15 15
19 31 8 37 -27 2 -11 9 -21 16 -23 17 -6 8 33 -11 53 -9 8 -16 18 -16 22 0 4
-21 29 -45 55 -48 51 -55 71 -29 81 28 11 36 6 20 -10 -25 -24 -19 -34 19 -34
35 0 46 -15 25 -36 -7 -7 -4 -16 10 -29 21 -19 29 -8 8 13 -7 7 -8 12 -3 12 6
0 20 -19 32 -41 16 -30 20 -46 13 -59 -11 -20 -4 -31 16 -23 19 7 18 -14 -2
-25 -14 -8 -14 -13 -4 -32 6 -12 9 -31 6 -43 -3 -11 0 -30 6 -41 6 -11 13 -54
16 -94 4 -79 -10 -112 -50 -112 -25 0 -23 12 8 35 22 16 25 24 19 54 -4 20
-15 45 -25 56 -24 27 -45 71 -60 125 -7 25 -15 39 -17 32 -4 -9 -14 -6 -38 12
-18 14 -35 22 -39 19 -3 -4 -6 -1 -6 6 0 7 -4 10 -9 6 -5 -3 -12 -1 -16 5 -3
5 -15 10 -27 10 -14 0 -18 5 -14 15 3 8 1 15 -3 15 -5 0 -11 -6 -14 -12 -3 -8
-9 -1 -16 15 -11 29 -38 36 -47 13 -4 -10 -26 -13 -94 -11 -63 2 -94 -1 -107
-11 -26 -19 -55 -18 -51 2 4 22 98 56 166 59 29 1 56 5 59 9 4 3 1 6 -6 6 -8
0 -6 8 5 25 9 14 14 28 11 31 -10 11 -42 -14 -42 -33 0 -12 -9 -19 -27 -21
-16 -2 -28 2 -28 8 0 6 -7 19 -15 28 -54 60 -93 93 -115 99 -14 3 -31 10 -37
16 -7 5 -13 6 -13 1 0 -5 -5 -1 -11 9 -5 9 -7 23 -3 30 4 6 -1 4 -11 -5 -15
-14 -16 -20 -5 -32 7 -9 18 -16 26 -16 36 0 23 -50 -26 -99 -22 -21 -38 -30
-50 -26 -19 6 -120 -40 -120 -55 0 -10 -34 -21 -87 -29 -37 -6 -43 -5 -43 12
0 10 -7 32 -16 48 -12 25 -14 53 -10 147 9 177 8 204 -15 228 -13 14 -19 35
-19 70 -1 27 -7 67 -15 89 -16 44 -20 105 -7 105 5 0 13 -17 18 -37z m506
-293 c37 -38 68 -73 68 -78 0 -6 -15 -21 -34 -36 -42 -32 -95 -28 -96 8 0 11
-1 31 -1 44 0 12 -5 22 -10 22 -6 0 -9 24 -8 55 1 30 5 55 7 55 3 0 36 -31 74
-70z m551 -130 c-4 -13 3 -27 18 -40 29 -24 54 -26 45 -4 -3 8 -2 12 4 9 6 -3
10 -15 10 -27 0 -16 -4 -19 -24 -14 -14 3 -28 1 -31 -4 -4 -6 -16 -8 -26 -5
-22 7 -49 -10 -49 -31 0 -22 17 -16 23 7 3 12 10 18 16 14 6 -3 9 -10 6 -15
-6 -10 15 -8 33 3 7 5 21 5 32 2 16 -5 20 -15 20 -46 0 -46 -14 -51 -29 -9
-10 30 -43 42 -56 20 -3 -6 1 -7 9 -4 9 3 16 2 16 -4 0 -5 -7 -13 -16 -16 -13
-5 -12 -11 11 -37 31 -38 28 -45 -10 -25 -16 8 -32 13 -37 10 -8 -5 -11 4 -10
46 1 17 -1 19 -4 7 -3 -9 -10 -15 -15 -11 -5 3 -7 10 -4 15 4 5 1 9 -4 9 -6 0
-11 7 -11 15 0 8 4 15 9 15 5 0 11 8 15 18 3 9 9 23 12 31 4 9 -5 6 -24 -7
-16 -12 -40 -22 -51 -22 l-22 0 21 22 c38 41 20 62 -30 33 -14 -8 -32 -14 -40
-14 -32 0 65 41 107 45 25 2 55 11 66 19 27 19 26 19 20 -5z m-1043 0 c0 -5
-6 -10 -12 -10 -10 0 -10 -2 -1 -8 7 -5 14 -46 18 -102 3 -52 7 -106 8 -119 1
-13 -4 -26 -12 -29 -8 -3 -11 0 -7 7 4 6 2 11 -3 11 -6 0 -11 -5 -11 -12 0 -9
-3 -9 -11 -1 -14 14 -39 6 -39 -13 0 -8 -6 -11 -17 -7 -12 5 -14 3 -8 -7 6
-10 4 -12 -8 -7 -12 4 -17 1 -17 -10 0 -9 -3 -14 -6 -10 -3 3 -14 -3 -24 -13
-17 -17 -89 -44 -97 -36 -2 2 12 20 32 42 25 27 33 44 29 58 -4 17 -3 18 5 6
9 -12 13 -13 20 -2 4 8 12 12 17 10 5 -1 17 13 27 32 14 27 17 53 15 112 -2
42 0 74 4 71 5 -2 8 1 8 6 0 6 -9 11 -20 11 -11 0 -20 4 -20 8 0 4 14 8 32 7
28 0 34 -5 42 -32 11 -39 36 -46 28 -8 -2 13 -2 31 2 40 6 17 26 21 26 5z
m244 -341 c15 -12 25 -28 22 -35 -6 -16 23 -34 53 -34 21 0 27 -11 14 -23 -3
-4 -12 -2 -19 3 -6 6 -16 10 -20 9 -25 -4 -44 2 -38 12 8 13 -13 29 -38 29
-10 0 -32 -13 -50 -28 -45 -39 -77 -46 -108 -22 l-25 20 35 1 35 1 -32 9 c-44
13 -51 29 -14 29 17 0 31 5 31 11 0 6 11 9 23 7 13 -1 32 5 41 15 23 23 58 22
90 -4z m522 8 c59 -2 61 -15 7 -39 -34 -16 -36 -16 -52 3 -12 15 -30 21 -66
22 -28 1 -55 5 -60 9 -6 4 -17 3 -25 -2 -22 -13 5 -38 35 -32 31 6 97 -6 91
-17 -3 -4 -85 -6 -183 -4 -98 2 -186 4 -195 4 -10 0 -18 4 -18 10 0 5 7 9 15
9 9 0 30 8 48 17 57 31 103 33 403 20z m98 -102 c44 -67 49 -115 11 -115 -14
0 -25 -4 -25 -8 0 -8 -29 -19 -99 -38 -17 -4 -22 -2 -19 7 3 8 14 15 26 17 44
7 21 22 -32 22 -30 0 -57 4 -60 9 -4 5 -24 12 -46 16 -37 6 -55 21 -27 22 6 1
54 6 106 13 101 13 141 24 141 39 0 17 -29 20 -82 5 -29 -7 -59 -14 -65 -14
-19 0 -15 27 5 34 9 3 37 14 62 25 25 11 50 20 56 20 6 1 28 -24 48 -54z
m-847 11 c15 -15 31 -26 35 -26 13 0 9 -50 -4 -54 -49 -16 -67 -16 -62 -1 7
19 2 19 -40 1 -27 -11 -42 -12 -77 -3 -24 7 -46 14 -49 18 -3 3 -27 9 -55 13
-67 10 -64 10 -110 2 l-40 -7 29 16 c15 8 33 15 40 15 27 0 86 22 81 30 -10
16 63 27 157 24 57 -3 72 -7 95 -28z m-474 9 c9 -4 24 -5 32 -1 8 3 15 1 15
-4 0 -6 -9 -10 -19 -10 -11 0 -23 -5 -26 -11 -4 -5 -19 -15 -33 -21 -15 -6
-22 -12 -15 -15 6 -2 26 3 43 12 18 9 34 14 37 11 12 -12 -123 -66 -163 -66
-25 0 -47 -6 -54 -15 -21 -25 -32 -17 -13 11 13 20 14 30 5 44 -10 17 -5 21
56 39 37 12 73 25 81 30 15 9 25 9 54 -4z m32 -74 c-10 -18 11 -19 74 -6 39 8
72 10 85 5 12 -5 38 -11 59 -15 51 -8 46 -21 -14 -36 -50 -13 -89 -46 -89 -75
0 -26 -95 -61 -117 -43 -7 6 -24 9 -38 7 l-24 -5 19 26 c10 15 41 38 69 51 44
20 66 40 45 40 -14 0 -121 -32 -142 -42 -24 -13 -38 -5 -44 24 -2 13 13 26 57
47 70 34 68 34 60 22z m905 -81 c0 -13 97 -13 105 -1 6 11 34 9 78 -3 30 -9
35 -23 12 -32 -8 -4 -15 -10 -15 -14 0 -13 51 -22 64 -11 24 20 116 34 144 22
17 -8 28 -9 36 -1 15 15 46 13 40 -3 -9 -24 24 -42 55 -30 25 9 27 8 26 -11
-1 -18 -9 -21 -54 -24 -29 -2 -59 2 -66 8 -11 9 -23 9 -50 0 -20 -7 -51 -12
-68 -12 -43 0 -147 40 -147 57 0 7 -10 15 -23 19 -30 7 -140 21 -149 18 -5 -1
-8 5 -8 13 0 8 5 15 10 15 6 0 10 -4 10 -10z m-1352 -239 c16 -22 31 -31 59
-33 20 -2 38 -9 41 -17 3 -9 -2 -11 -17 -6 -15 5 -21 2 -21 -9 0 -19 18 -20
57 -4 43 17 84 18 133 1 31 -10 65 -13 110 -9 36 3 101 2 145 -3 61 -6 4 -9
-235 -10 -173 -2 -345 -3 -383 -4 -57 -2 -67 0 -67 15 0 12 16 22 55 33 41 12
59 24 72 46 10 16 20 29 23 29 4 0 16 -13 28 -29z m1925 -108 l67 -5 0 -133 0
-133 -532 1 c-293 1 -751 0 -1018 -2 -267 -2 -516 -3 -555 -2 l-70 1 0 129 0
130 30 5 c17 3 266 5 554 5 288 0 525 1 527 3 5 6 918 6 997 1z"/>
<path d="M1244 254 c-90 -46 -62 -144 41 -144 48 0 95 30 95 61 0 36 -29 78
-58 85 -15 3 -32 7 -38 9 -6 2 -24 -3 -40 -11z"/>
<path d="M1443 250 c-27 -16 -33 -26 -33 -53 0 -49 23 -75 75 -83 107 -16 157
62 88 138 -22 24 -89 23 -130 -2z"/>
</g>
</svg>
