<?xml version="1.0" standalone="no"?>
<!DOCTYPE svg PUBLIC "-//W3C//DTD SVG 20010904//EN"
 "http://www.w3.org/TR/2001/REC-SVG-20010904/DTD/svg10.dtd">
<svg version="1.0" xmlns="http://www.w3.org/2000/svg"
 width="233.000000pt" height="400.000000pt" viewBox="0 0 233.000000 400.000000"
 preserveAspectRatio="xMidYMid meet">
<metadata>
Created by potrace 1.15, written by Peter Selinger 2001-2017
</metadata>
<g transform="translate(0.000000,400.000000) scale(0.100000,-0.100000)"
fill="#000000" stroke="none">
<path d="M901 3952 l-853 -2 4 -1945 c2 -1070 7 -1948 11 -1951 8 -8 2137 -7
2145 1 3 3 -475 5 -1061 5 l-1067 0 -5 23 c-3 12 -5 72 -3 132 l3 110 1075 0
1075 0 3 -137 c1 -76 7 -138 12 -138 5 0 9 769 9 1953 l1 1952 -248 0 c-136 0
-631 -1 -1101 -3z m1326 -752 c2 -695 1 -734 -15 -714 -9 11 -29 28 -44 37
-16 10 -28 23 -28 31 0 7 -9 21 -20 31 -12 10 -19 24 -16 31 2 6 -8 17 -22 24
-52 24 -56 27 -60 38 -2 7 6 12 18 12 19 0 21 4 16 26 -4 14 -18 36 -31 50
-22 22 -26 23 -57 9 -36 -15 -105 -71 -97 -79 2 -3 24 11 48 30 47 36 72 45
50 17 -26 -33 -96 -103 -103 -103 -3 0 -6 144 -6 320 0 262 2 320 14 320 15 0
66 44 66 58 0 5 16 42 36 83 33 68 36 79 31 141 -8 114 -63 168 -152 148 -20
-5 -44 -15 -54 -24 -10 -9 -21 -16 -25 -16 -4 0 -15 -9 -24 -20 -10 -10 -29
-22 -44 -26 -24 -5 -28 -3 -29 17 -2 23 -2 23 -6 2 -3 -17 -12 -22 -51 -25
-72 -5 -102 1 -103 20 -1 15 -2 15 -6 0 -4 -16 -18 -18 -109 -17 -69 1 -104 5
-104 13 0 8 -2 8 -8 0 -9 -13 -89 -16 -451 -14 -203 1 -211 3 -225 47 -10 31
-67 63 -112 63 -38 0 -124 -37 -124 -53 0 -5 -12 -24 -26 -43 -26 -34 -27 -35
-14 -112 6 -42 18 -84 25 -92 7 -8 16 -30 20 -49 4 -19 16 -48 26 -64 10 -17
15 -35 12 -40 -3 -6 -1 -7 5 -4 5 4 16 5 24 2 10 -4 13 -52 14 -233 0 -125 -2
-220 -4 -210 -3 13 -9 15 -35 7 -18 -5 -33 -9 -34 -9 -2 0 0 20 3 43 6 38 3
47 -21 71 -69 69 -184 -17 -126 -95 23 -31 18 -35 -23 -19 -26 9 -26 9 -26
-36 l0 -45 28 14 c41 20 62 11 63 -26 0 -18 4 -85 7 -150 4 -64 4 -117 0 -117
-4 0 -17 18 -28 40 -11 22 -24 41 -28 41 -65 10 -77 8 -104 -18 -15 -15 -28
-32 -28 -38 0 -7 -9 -20 -20 -30 -20 -18 -20 -17 -20 722 0 407 2 742 4 744 2
2 487 4 1078 4 l1073 0 2 -735z m-1695 500 c34 -10 39 -16 52 -61 25 -82 9
-119 -51 -123 -29 -2 -29 2 3 26 34 27 30 73 -9 102 -26 19 -30 19 -55 6 -20
-12 -27 -24 -30 -53 -2 -33 2 -40 27 -54 26 -15 28 -21 24 -53 -3 -19 -12 -45
-19 -57 -16 -26 -18 -43 -4 -43 12 0 51 75 48 92 -2 8 6 12 24 10 40 -5 78 36
78 83 0 20 4 34 8 31 13 -8 1085 -11 1109 -3 18 7 21 5 16 -11 -6 -24 21 -78
47 -94 16 -10 18 -20 13 -50 -4 -25 -1 -43 8 -54 11 -14 15 -97 19 -413 3
-218 3 -412 0 -431 -7 -46 -26 -48 -40 -6 -6 19 -23 52 -38 73 -50 70 -55 87
-48 152 4 39 3 61 -3 61 -5 0 -12 -24 -14 -52 -2 -29 -4 35 -6 142 -2 193 -8
490 -10 500 -1 3 -103 5 -229 5 -224 0 -228 0 -277 25 -37 19 -51 32 -53 50
-2 18 0 21 6 11 12 -16 33 -6 26 13 -7 18 -80 17 -96 -1 -9 -11 -7 -15 10 -20
36 -9 25 -22 -43 -54 -64 -30 -65 -31 -217 -27 l-153 3 -3 -258 -2 -259 29 24
c20 15 30 32 30 52 1 23 -2 26 -12 17 -32 -26 -36 22 -7 74 25 44 25 48 0 40
-15 -5 -20 -2 -20 13 0 11 6 22 14 25 10 4 12 26 10 94 -2 48 -6 98 -9 110 -3
12 -1 25 5 28 5 3 10 1 10 -4 0 -6 5 -11 10 -11 6 0 10 9 10 20 0 11 5 20 10
20 6 0 10 -9 10 -20 0 -11 5 -20 10 -20 6 0 10 9 10 21 0 11 4 18 10 14 5 -3
7 -12 3 -20 -3 -9 1 -15 11 -15 10 0 17 9 17 23 l2 22 4 -22 c5 -26 23 -31 23
-8 0 8 5 15 10 15 6 0 10 -7 10 -15 0 -21 20 -19 21 3 1 15 2 15 6 0 7 -25 31
-30 53 -8 10 10 41 28 67 40 26 11 56 25 65 30 24 14 24 14 26 -29 2 -31 -2
-42 -17 -50 -28 -15 -37 4 -17 34 12 19 13 23 2 19 -7 -3 -19 -15 -25 -27
l-12 -22 5 23 c6 31 -2 28 -42 -19 -20 -23 -40 -38 -48 -35 -8 3 -14 2 -14 -3
0 -5 8 -11 19 -14 14 -3 20 -16 23 -48 4 -36 1 -47 -16 -61 -12 -10 -24 -18
-27 -18 -11 0 -27 95 -22 129 4 26 3 32 -7 26 -9 -6 -11 -26 -5 -79 9 -86 8
-131 -4 -171 -16 -54 -21 -107 -9 -103 6 2 13 22 15 43 6 69 31 139 54 153 27
17 29 15 20 -33 -4 -22 -7 -61 -6 -87 2 -34 -1 -45 -11 -41 -9 3 -11 24 -9 76
3 55 2 68 -7 53 -6 -10 -10 -38 -10 -62 1 -24 -3 -46 -8 -49 -14 -9 -12 -26 3
-24 26 3 37 -2 37 -17 0 -11 -5 -14 -16 -10 -24 9 -44 -12 -45 -48 -1 -18 -3
-23 -6 -13 -3 11 -11 16 -19 13 -9 -4 -14 2 -14 15 0 11 -4 17 -10 14 -5 -3
-10 -15 -10 -26 0 -13 -7 -19 -24 -19 -14 0 -32 -7 -40 -16 -9 -8 -24 -14 -33
-13 -31 5 -62 -11 -83 -42 -12 -16 -27 -29 -35 -29 -25 0 -110 -160 -102 -191
3 -10 1 -33 -3 -51 -7 -30 -8 -29 -11 22 -1 30 -3 66 -5 80 -1 14 -3 170 -4
348 -1 285 -3 322 -17 322 -12 0 -14 -7 -10 -35 3 -19 2 -35 -2 -35 -11 0 -41
45 -41 61 0 7 -11 36 -25 64 -13 29 -27 77 -31 107 -5 47 -3 59 22 100 24 41
69 76 99 77 6 1 27 -4 47 -9z m1419 -40 c33 -38 47 -147 25 -189 -8 -14 -23
-48 -35 -76 -12 -27 -30 -61 -41 -75 -16 -21 -20 -22 -35 -10 -11 9 -14 22
-10 37 3 13 -1 36 -9 52 -15 28 -10 81 7 80 18 0 66 36 76 57 5 12 6 35 2 51
-6 22 -14 29 -38 31 -18 2 -37 -3 -47 -13 -20 -21 -21 -69 -1 -85 17 -14 20
-30 5 -30 -22 0 -70 63 -70 92 0 101 109 151 171 78z m-441 -275 c8 19 8 19
16 1 7 -18 8 -18 21 0 12 16 13 16 13 1 0 -23 20 -22 21 1 1 15 2 16 6 0 2 -9
10 -15 16 -12 9 3 13 -12 15 -48 1 -29 7 -54 12 -56 6 -2 10 -36 10 -74 0 -80
8 -84 19 -11 5 32 8 -26 10 -169 1 -141 -2 -218 -9 -218 -5 0 -10 4 -10 9 0
13 -67 81 -80 81 -6 0 -36 12 -65 26 -30 14 -59 22 -65 19 -34 -21 -79 38 -78
101 0 27 -10 58 -30 95 l-31 54 15 60 c17 70 13 95 -20 129 l-25 24 27 -1 c15
-1 31 -6 35 -12 6 -6 10 -5 14 4 5 11 7 11 14 0 6 -9 12 -10 17 -4 4 6 14 10
22 10 8 0 18 -4 23 -10 4 -6 10 -5 16 3 6 11 10 10 16 -5 6 -16 8 -15 17 7
l10 25 10 -25 c10 -24 10 -24 18 -5z m-332 -157 c65 -12 67 -24 5 -27 -26 -1
-49 -3 -51 -6 -2 -2 1 -27 8 -55 14 -60 5 -79 -30 -60 -12 6 -24 9 -27 7 -2
-3 5 -10 16 -17 23 -12 29 -35 7 -27 -14 6 -36 -10 -36 -26 0 -5 7 -6 16 -3
10 4 22 -1 31 -11 10 -13 16 -15 19 -5 3 6 14 12 25 12 10 0 19 7 19 15 0 8 4
15 8 15 13 0 32 -48 32 -81 0 -22 6 -32 19 -36 15 -4 19 -18 25 -95 3 -50 5
-112 5 -137 -2 -40 -3 -37 -10 24 -5 39 -13 93 -18 120 -9 48 -10 46 -7 -27 2
-43 0 -78 -3 -78 -4 0 -6 -48 -5 -107 1 -60 0 -96 -3 -80 -8 50 -25 29 -21
-28 2 -34 -1 -54 -7 -51 -5 2 -9 9 -7 15 1 6 -5 28 -13 47 -17 42 -20 84 -5
84 6 0 10 15 10 33 0 23 -3 28 -9 17 -6 -8 -7 -18 -5 -22 3 -4 0 -8 -6 -8 -8
0 -11 -24 -8 -75 2 -54 0 -75 -9 -75 -7 0 -17 -8 -23 -17 -8 -15 -9 -13 -4 8
7 31 -10 46 -31 29 -9 -7 -15 -8 -15 -2 0 5 7 15 15 22 8 7 15 22 15 34 -1 21
-1 21 -17 1 -9 -11 -14 -14 -11 -5 3 8 2 24 -3 35 -7 18 -8 18 -8 -4 -1 -31
-16 -17 -25 23 -6 26 -5 28 8 17 14 -12 16 -9 16 22 0 20 -5 39 -10 42 -6 4
-7 11 -4 17 11 17 4 151 -8 165 -7 9 -7 13 2 13 9 0 11 9 7 30 -5 23 -2 32 13
40 30 16 45 13 29 -7 -8 -9 -9 -14 -3 -10 19 11 24 -32 6 -50 -16 -16 -17 -14
-23 18 -6 34 -6 34 -8 -9 -1 -41 0 -42 22 -30 12 7 26 11 31 10 5 -2 6 16 3
38 -5 37 -4 39 9 23 13 -17 13 -17 14 4 0 16 -8 25 -25 29 -14 3 -25 9 -25 13
0 4 -9 7 -20 8 -11 1 -20 -4 -20 -12 0 -7 -7 -15 -15 -19 -11 -4 -15 1 -15 19
0 16 6 25 15 25 8 0 15 6 15 14 0 7 7 19 15 26 8 7 15 18 15 24 0 6 -13 -2
-27 -19 l-26 -30 6 27 c6 21 4 26 -9 24 -23 -4 -40 -36 -24 -46 9 -5 10 -17 5
-36 -8 -27 -9 -27 -12 -6 -3 12 -9 22 -14 22 -15 0 -10 36 6 50 17 14 21 35 4
24 -6 -4 -9 1 -8 12 2 11 0 25 -4 31 -10 15 9 53 26 52 9 0 8 -2 -1 -6 -10 -4
-10 -8 -1 -19 15 -19 38 -18 46 2 4 11 13 13 34 9 26 -6 29 -4 29 17 0 22 -4
24 -56 25 -83 2 -90 18 -13 31 64 11 78 11 137 0z m-731 -445 c-3 -2 -15 0
-26 6 -11 7 -33 8 -47 5 l-27 -7 7 -81 c3 -45 9 -154 13 -243 6 -158 13 -193
28 -136 6 27 21 43 38 43 5 0 1 -10 -7 -22 -9 -12 -17 -43 -17 -68 -1 -25 -4
-35 -6 -22 -9 46 -23 20 -23 -43 0 -37 4 -65 10 -65 18 0 11 -30 -7 -31 -10 0
-33 -2 -50 -5 -27 -3 -33 0 -33 15 0 11 9 21 23 25 22 5 23 7 16 88 -4 46 -10
142 -13 213 -3 72 -9 177 -12 234 l-7 103 -43 -5 c-31 -3 -44 -1 -44 8 0 8 36
15 113 21 105 8 112 8 115 -9 2 -10 1 -21 -1 -24z m-7 -12 c15 -4 25 -15 26
-26 0 -11 1 -67 3 -125 l1 -105 20 25 c11 14 20 21 20 15 0 -5 -9 -21 -20 -35
-21 -27 -26 -60 -10 -60 6 0 10 -7 10 -16 0 -14 -8 -15 -47 -9 -51 7 -52 -3
-2 -20 33 -11 37 -32 5 -27 -10 1 -25 -3 -32 -9 -10 -8 -15 -8 -18 2 -4 12
-26 338 -26 384 0 16 27 18 70 6z m1520 -146 c-11 -14 -14 -13 -25 1 -9 14
-16 14 -33 5 -12 -6 -22 -17 -22 -23 0 -7 5 -7 14 1 12 10 19 8 33 -6 14 -14
18 -30 15 -66 -2 -26 -8 -47 -13 -47 -5 0 -9 6 -9 13 0 7 -9 18 -20 25 -11 7
-20 8 -20 4 0 -5 9 -17 20 -27 11 -10 20 -27 20 -38 0 -19 -1 -20 -20 -2 -27
24 -26 1 1 -26 24 -24 89 -201 89 -244 0 -16 5 -37 10 -45 7 -11 10 -2 10 32
0 31 -13 81 -40 149 -22 56 -38 104 -36 107 3 2 15 -5 27 -17 13 -12 28 -21
33 -21 6 0 -4 14 -21 30 -27 25 -32 34 -27 60 8 37 18 38 41 3 13 -19 17 -44
16 -90 -1 -38 5 -81 14 -106 22 -61 32 -109 43 -226 9 -98 14 -120 25 -110 4
4 0 47 -20 219 -3 25 8 -7 23 -70 32 -131 35 -138 79 -174 46 -39 63 -79 63
-153 0 -70 -12 -79 -39 -31 -13 23 -13 30 4 67 10 23 15 44 12 48 -12 11 -47
-84 -42 -113 2 -16 12 -155 21 -309 15 -260 15 -290 0 -412 -9 -73 -16 -157
-16 -188 0 -30 -4 -55 -10 -55 -5 0 -9 166 -8 438 0 271 -3 446 -10 462 -8 22
-18 -449 -16 -812 0 -49 -3 -88 -6 -88 -7 0 -21 772 -15 833 2 20 -1 37 -6 37
-4 0 -10 -64 -12 -142 l-3 -143 -2 151 -2 151 30 34 c32 36 50 85 50 135 0 37
-59 100 -85 90 -9 -3 -28 3 -44 15 l-29 21 25 54 c25 56 24 74 -6 74 -13 0
-25 23 -49 99 -20 65 -44 116 -67 146 -30 40 -35 55 -36 103 -1 31 -2 84 -4
118 -2 57 -1 62 24 77 15 8 35 25 46 37 l20 22 9 -31 c6 -21 5 -35 -4 -46z
m93 -80 c17 -22 21 -45 22 -124 4 -168 12 -205 59 -264 23 -29 48 -66 55 -84
7 -17 19 -34 27 -37 10 -4 14 -24 14 -73 l-1 -68 -47 51 c-43 46 -50 61 -69
140 -12 49 -27 118 -33 154 -7 36 -18 79 -25 95 -7 17 -18 56 -24 88 -8 37
-22 67 -42 88 -44 47 -38 71 14 65 19 -2 38 -13 50 -31z m91 -107 c22 -17 42
-33 44 -33 1 -1 -7 -23 -19 -50 -17 -38 -20 -62 -17 -119 l3 -72 -23 28 c-15
18 -27 49 -33 90 -10 72 -12 188 -3 188 3 0 25 -14 48 -32z m-1339 -246 c2
-17 0 -30 -3 -29 -4 1 -8 -1 -9 -5 -2 -5 1 -8 6 -8 25 -1 17 -33 -15 -63 -19
-17 -65 -60 -101 -94 -47 -45 -73 -63 -93 -63 -15 0 -36 -10 -50 -25 -18 -19
-34 -25 -67 -25 -24 0 -43 4 -43 9 0 5 18 8 40 7 22 0 45 5 52 13 11 10 -1 12
-67 7 l-80 -5 48 21 c26 11 47 24 47 29 0 5 13 15 30 24 16 8 41 27 55 42 14
16 25 22 25 15 0 -6 -5 -12 -11 -12 -5 0 -7 -4 -4 -10 10 -16 55 -12 55 6 0 8
4 13 9 10 5 -3 11 1 15 9 3 8 17 15 31 15 15 0 24 4 21 8 -3 5 -19 7 -36 4
-25 -3 -29 -1 -24 12 7 19 7 19 48 2 20 -8 39 -10 47 -5 11 6 8 9 -8 9 -15 0
-21 5 -17 14 4 12 12 13 32 5 26 -10 26 -10 7 10 -21 25 -4 29 20 5 22 -22 32
-9 11 15 -15 16 -15 19 -1 31 8 7 15 24 15 38 0 34 10 23 15 -16z m1114 -2
c18 -7 42 -27 52 -44 25 -40 24 -58 -1 -27 l-20 23 -46 -27 c-25 -15 -48 -34
-51 -43 -4 -9 -12 -21 -20 -25 -7 -4 -13 -19 -13 -32 0 -14 -4 -25 -10 -25
-14 0 -50 38 -50 52 0 7 7 2 16 -10 8 -12 20 -22 26 -22 6 0 4 8 -5 18 -10 10
-17 26 -17 35 0 20 -16 23 -23 5 -2 -7 -4 1 -4 17 0 17 2 24 4 18 7 -21 23
-15 23 8 0 11 -4 18 -9 15 -5 -4 -7 3 -4 14 6 23 19 26 27 8 2 -7 4 -2 3 12
-2 20 4 27 31 35 18 5 32 16 32 25 1 13 2 13 13 0 7 -9 27 -22 46 -30z m-1742
-47 c-4 -43 -2 -107 3 -142 6 -35 9 -65 8 -67 -2 -1 -14 5 -27 15 -18 14 -25
31 -29 72 -3 30 -9 57 -14 60 -6 4 -6 14 1 27 6 11 11 36 10 54 -1 30 -3 29
-19 -22 -11 -30 -19 -71 -20 -90 -1 -34 -2 -34 -11 -10 -12 29 -7 68 14 125
14 38 27 47 81 54 5 0 6 -33 3 -76z m963 -182 c19 -12 26 -20 15 -17 -11 3
-24 2 -30 -2 -14 -10 -19 -46 -6 -37 6 3 11 2 11 -3 0 -5 18 -15 40 -22 22 -7
40 -17 40 -21 0 -5 7 -6 15 -3 8 4 15 1 15 -5 0 -8 5 -9 19 -1 26 13 31 13 31
-5 0 -8 5 -15 10 -15 6 0 10 8 10 18 0 13 2 14 9 3 5 -7 6 -21 4 -31 -6 -23
-32 -15 -43 14 -7 17 -9 17 -9 4 -1 -11 -6 -15 -16 -12 -21 8 -19 -12 3 -34
17 -17 20 -18 31 -3 6 9 9 11 6 4 -3 -6 -1 -23 5 -37 6 -17 6 -26 0 -26 -6 0
-10 9 -10 21 0 11 -4 18 -9 15 -4 -3 -16 3 -26 14 -19 21 -44 16 -46 -9 -1 -9
-4 -6 -9 9 -7 21 -8 22 -9 5 -1 -12 -5 -25 -10 -30 -5 -6 -12 -19 -15 -30 -3
-13 -4 -12 -2 5 2 14 7 33 11 43 12 29 -12 19 -31 -12 -10 -17 -21 -28 -26
-25 -4 3 1 15 12 26 15 16 17 25 9 32 -8 8 -13 7 -16 -2 -3 -7 -10 -18 -16
-25 -21 -22 -20 -48 3 -54 12 -3 19 -11 16 -19 -3 -9 1 -11 12 -7 22 8 13 -1
-17 -17 -22 -11 -23 -11 -18 9 6 23 -17 31 -26 9 -3 -7 -3 3 0 22 6 32 5 34
-10 21 -15 -12 -17 -11 -17 8 0 14 -4 20 -12 15 -7 -4 -8 -3 -4 5 6 8 12 9 20
2 20 -17 26 -1 8 18 -16 16 -19 17 -36 2 -18 -15 -19 -14 -14 26 5 35 2 44
-19 62 -13 12 -28 19 -33 16 -4 -3 -6 5 -3 17 4 22 3 21 -21 -4 -25 -28 -64
-36 -100 -22 -20 8 -21 24 -1 24 8 0 15 -4 15 -10 0 -5 7 -10 15 -10 8 0 15 6
15 13 0 8 4 7 10 -3 9 -13 12 -12 25 4 17 22 11 36 -16 36 -10 0 -19 4 -19 9
0 5 19 3 42 -4 28 -8 54 -26 80 -56 21 -24 33 -45 28 -47 -6 -2 -10 -13 -10
-25 1 -21 2 -21 25 5 18 22 29 26 45 20 20 -7 20 -9 6 -21 -14 -11 -16 -11
-16 4 0 15 -2 15 -16 5 -13 -12 -13 -15 4 -33 21 -20 42 -16 42 8 0 7 7 15 15
19 8 3 15 1 15 -3 0 -5 11 -8 24 -7 34 2 41 40 10 56 -12 7 -27 9 -33 6 -6 -4
-11 0 -11 8 0 10 -6 13 -15 10 -8 -4 -15 -1 -15 6 0 6 -4 8 -10 5 -17 -11 -11
7 8 21 15 13 14 13 -10 4 -22 -7 -26 -6 -21 5 3 8 13 15 23 15 11 0 22 5 25
10 4 6 1 9 -7 8 -7 -2 -14 8 -16 22 -1 14 1 20 5 15 4 -6 24 -21 43 -34z m702
-71 c15 -11 35 -20 45 -20 15 0 15 3 -5 18 -23 18 -22 18 42 20 43 2 66 -1 66
-8 0 -7 -14 -10 -34 -9 -19 2 -38 0 -42 -4 -4 -4 15 -7 42 -7 28 0 55 5 62 12
7 7 12 8 12 3 0 -4 9 0 20 10 20 18 21 18 48 -2 22 -16 28 -29 30 -69 3 -54
-8 -74 -60 -106 -23 -15 -27 -16 -32 -2 -10 27 -7 34 19 34 42 0 66 58 42 98
-20 30 -77 3 -77 -37 0 -14 -5 -19 -15 -15 -9 4 -15 0 -15 -10 0 -9 -4 -16
-10 -16 -5 0 -10 -7 -10 -15 0 -8 -5 -15 -12 -15 -6 0 -9 -3 -6 -6 4 -3 16 -1
27 6 27 14 27 0 1 -23 -16 -14 -20 -26 -17 -62 4 -48 17 -75 17 -36 0 12 4 19
10 16 6 -4 8 -10 6 -14 -3 -4 -8 -23 -11 -41 -7 -38 -22 -70 -34 -70 -11 0
-56 40 -57 51 -1 5 -2 16 -3 25 -1 13 -4 14 -16 4 -12 -10 -15 -10 -15 3 0 8
6 18 13 20 7 3 5 6 -5 6 -11 1 -18 9 -18 20 0 10 -11 30 -25 45 -30 33 -30 32
-4 39 15 4 19 2 15 -9 -9 -24 12 -54 39 -54 18 0 23 -4 19 -15 -4 -8 -1 -15 6
-15 13 0 10 45 -6 84 -5 14 -4 17 4 12 8 -5 12 2 12 19 0 14 -4 24 -9 21 -5
-3 -12 4 -16 17 l-7 22 -7 -25 c-8 -24 -8 -23 -16 13 -4 20 -11 37 -16 37 -5
0 -9 7 -9 16 0 10 -6 14 -15 11 -8 -4 -17 -2 -20 3 -8 13 -35 1 -35 -16 0 -8
-5 -14 -11 -14 -15 0 -3 -48 21 -81 23 -33 14 -47 -10 -16 -20 27 -40 82 -40
113 0 13 10 33 22 44 26 24 57 21 100 -10z m-1487 -3 c34 -20 52 -23 115 -20
59 3 76 8 87 23 16 23 60 26 87 7 23 -17 33 -96 16 -126 -10 -21 -65 -61 -82
-61 -17 0 -6 18 18 28 14 7 32 28 40 47 17 42 18 59 2 49 -8 -5 -9 -2 -5 10 5
13 3 17 -7 13 -8 -3 -16 -1 -18 4 -6 17 -32 0 -45 -28 -7 -15 -13 -42 -13 -60
0 -18 -9 -50 -21 -72 -19 -37 -19 -41 -4 -71 15 -30 15 -32 -2 -36 -14 -4 -18
-16 -20 -55 -1 -27 2 -49 7 -49 14 0 47 72 43 92 -2 9 1 19 6 23 8 4 11 -34
11 -121 0 -70 2 -125 4 -123 6 5 14 92 15 149 l1 45 45 0 c57 0 59 -13 3 -18
l-43 -4 48 -1 c47 -2 47 -2 47 -37 0 -35 0 -35 -45 -35 l-45 0 0 -222 c-1
-353 -10 -592 -23 -601 -7 -4 -21 -5 -32 -2 -11 2 -66 5 -122 5 l-103 0 0 514
c0 289 4 517 9 520 5 3 11 -9 14 -27 2 -17 1 -33 -4 -35 -5 -2 -9 -8 -9 -14 0
-6 7 -8 15 -4 10 3 15 -1 15 -12 0 -19 29 -61 69 -99 27 -26 30 -27 51 -12 13
9 13 11 1 16 -28 11 -71 61 -71 81 0 15 -5 20 -15 16 -18 -7 -20 7 -3 24 17
17 28 15 28 -7 0 -27 10 -51 22 -51 6 0 7 9 3 23 -3 12 -7 43 -7 69 -1 37 -5
49 -20 54 -10 3 -18 10 -18 15 0 5 -7 9 -15 9 -8 0 -15 7 -15 15 0 20 24 19
45 -1 22 -22 28 -12 12 19 -8 15 -17 24 -20 20 -4 -3 -7 4 -7 16 0 17 -4 21
-15 17 -8 -3 -15 0 -15 7 0 14 -27 40 -51 49 -10 4 -19 -4 -29 -25 -18 -42 -1
-73 58 -104 2 -1 -1 -10 -7 -20 -10 -17 -10 -17 -11 0 0 10 -4 16 -9 13 -10
-6 -60 51 -62 71 -1 7 -1 22 -1 33 0 35 2 40 22 60 25 25 26 25 75 -3z m-266
-277 c1 -72 7 -136 16 -170 20 -70 33 -246 17 -236 -6 3 -12 -2 -15 -11 -3
-14 -5 -12 -9 7 -20 88 -26 183 -26 400 0 172 3 227 8 185 5 -33 9 -112 9
-175z m1303 89 c18 -10 20 -9 15 4 -4 12 -2 14 10 10 10 -4 14 -2 10 4 -4 6 0
14 9 17 17 7 13 -2 -22 -49 -12 -16 -34 -55 -47 -85 -16 -34 -26 -47 -26 -34
-1 11 -6 25 -13 32 -9 9 -8 12 6 12 9 0 14 -4 11 -10 -3 -5 -1 -10 5 -10 7 0
10 6 7 14 -3 8 -9 31 -13 50 -9 49 -23 54 -37 16 -11 -30 -15 -32 -49 -27 -21
3 -40 2 -42 -1 -2 -4 -6 -27 -7 -52 -3 -37 -1 -45 13 -45 9 0 20 -4 24 -8 4
-4 16 -7 26 -7 19 0 24 -15 8 -25 -5 -3 -10 -1 -10 5 0 6 -5 8 -12 3 -27 -16
-45 -12 -55 15 -8 20 -11 22 -11 7 2 -45 -3 -62 -17 -62 -9 0 -15 9 -15 21 0
18 2 19 11 6 9 -12 10 -11 6 6 -2 12 2 32 9 45 21 37 18 92 -6 107 -11 7 -20
18 -20 25 0 6 7 3 15 -7 8 -11 15 -14 15 -8 0 7 4 12 10 12 5 0 7 -7 4 -15 -4
-8 -1 -15 5 -15 6 0 11 7 11 15 0 8 5 15 10 15 6 0 10 -7 10 -15 0 -24 20 -17
21 8 1 21 1 21 8 -3 l7 -25 13 25 c8 14 25 35 40 47 21 17 27 19 34 7 4 -7 17
-19 29 -25z m-1159 -51 c5 -40 9 -146 8 -235 -1 -109 1 -163 8 -163 7 0 12 34
13 88 1 82 2 79 8 -38 3 -69 3 -132 -1 -140 -4 -8 -2 -81 3 -162 l10 -147 -31
-32 c-18 -17 -33 -30 -35 -28 -2 2 -6 83 -10 179 -7 170 -6 174 11 150 15 -21
18 -44 16 -147 -1 -68 2 -123 6 -123 11 0 19 170 12 224 -3 23 -4 61 -1 86 4
30 0 53 -10 70 -11 17 -15 55 -16 135 -1 74 -6 122 -16 145 -19 44 -33 144
-19 135 6 -3 13 -29 17 -57 5 -37 9 -46 16 -34 5 10 5 31 -1 53 -12 41 -15
130 -5 120 3 -3 11 -39 17 -79z m1993 -320 c1 -427 -2 -498 -22 -498 -19 0
-18 88 1 114 8 11 11 22 6 25 -4 4 -4 39 2 81 7 53 6 147 -3 320 -20 384 -20
353 -1 336 15 -14 17 -54 17 -378z m-176 257 c-13 -137 -12 -248 0 -240 6 4
10 -37 10 -115 0 -67 -4 -119 -8 -116 -5 3 -7 18 -4 34 2 16 -1 33 -8 37 -8 5
-11 -10 -9 -52 1 -32 -2 -91 -6 -132 -6 -55 -5 -72 4 -67 6 4 11 25 11 47 0
21 3 39 8 39 6 0 5 -372 -1 -376 -11 -8 -207 -11 -207 -4 0 6 9 10 20 10 13 0
20 7 20 20 0 25 -20 27 -21 3 -1 -17 -2 -17 -6 0 -7 26 -23 21 -23 -8 0 -14
-4 -25 -10 -25 -6 0 -10 49 -10 126 0 81 -4 123 -10 119 -5 -3 -11 -43 -11
-88 -1 -45 -4 -73 -6 -62 -9 32 8 365 18 359 5 -3 9 21 9 53 0 41 -3 54 -10
43 -7 -10 -10 6 -9 55 0 42 3 62 8 51 7 -19 8 -19 15 0 4 11 3 20 -3 22 -13 4
-15 52 -2 52 5 0 7 18 4 39 -7 54 7 232 17 226 5 -3 7 -11 5 -18 -2 -7 -6 -45
-10 -86 -4 -51 -3 -71 4 -66 6 3 11 31 11 61 0 30 3 54 8 54 4 0 20 -16 35
-35 30 -38 73 -47 99 -22 19 19 44 75 58 125 6 24 13 42 15 40 2 -2 0 -48 -5
-103z m-1896 78 c16 -54 36 -175 30 -185 -7 -11 -7 -108 1 -298 l4 -115 -14
100 c-20 137 -25 154 -19 60 16 -229 19 -435 7 -435 -13 0 -17 105 -18 540 0
102 -4 222 -9 268 -6 57 -5 82 2 82 6 0 13 -8 16 -17z m1552 -8 c20 -31 31
-105 15 -105 -6 0 -8 6 -5 14 7 18 -30 43 -76 52 -24 5 -31 4 -26 -4 4 -7 18
-12 32 -12 25 0 29 -14 17 -59 -6 -22 -7 -23 -13 -6 -6 18 -7 17 -12 -3 -4
-12 -2 -20 3 -16 11 6 11 2 3 -20 -3 -9 -12 -16 -19 -16 -7 0 -16 -7 -19 -16
-5 -12 -2 -15 10 -10 8 3 20 6 25 6 5 0 9 6 9 13 0 19 48 114 49 97 1 -8 -8
-33 -20 -54 -11 -21 -18 -43 -16 -49 2 -7 11 5 20 26 19 43 30 49 21 10 -8
-38 -37 -103 -46 -103 -5 0 -8 -6 -8 -13 0 -19 -37 -50 -49 -42 -6 3 -11 1
-11 -4 0 -6 -13 -11 -30 -11 -16 0 -30 -4 -30 -10 0 -5 6 -10 14 -10 8 0 16
-6 19 -12 3 -10 7 -10 20 1 18 14 22 5 8 -18 -6 -10 -13 -11 -29 -2 -29 15
-37 14 -22 -4 7 -8 19 -15 27 -15 8 0 11 -5 7 -11 -4 -8 -9 -8 -17 0 -6 6 -17
11 -25 11 -12 0 -12 -3 -2 -15 11 -13 10 -15 -6 -9 -18 5 -18 5 0 -10 16 -12
22 -13 28 -3 14 22 8 -6 -17 -86 -30 -93 -30 -97 -7 -98 13 0 13 -2 -4 -9 -12
-5 -27 -24 -34 -44 -12 -36 -25 -46 -32 -24 -3 7 -7 6 -11 -5 -4 -12 -1 -17
11 -17 23 0 42 -19 42 -41 0 -10 3 -19 8 -21 4 -2 15 -18 25 -35 14 -25 15
-33 5 -34 -7 0 -3 -4 10 -9 37 -15 25 -25 -30 -26 -58 -1 -72 -4 -105 -22 -16
-9 -23 -9 -23 -2 0 17 21 35 65 53 22 9 32 16 22 16 -10 1 -36 -8 -59 -20 -33
-17 -42 -18 -49 -7 -5 8 -4 15 4 17 7 2 16 10 20 17 4 8 26 17 48 20 22 4 42
11 45 15 8 14 -33 11 -71 -5 -47 -20 -45 -2 3 23 20 11 30 20 22 21 -8 0 -30
-9 -47 -20 -38 -23 -42 -14 -12 24 15 19 16 24 5 20 -20 -8 -20 3 -1 36 8 14
14 40 15 58 0 18 4 31 9 27 6 -3 17 21 26 52 10 32 34 111 54 177 l37 119 -23
34 c-13 19 -23 41 -23 51 0 11 7 6 23 -16 19 -27 26 -31 52 -26 17 4 30 7 30
8 1 0 11 24 24 52 22 50 22 74 -1 74 -5 0 -7 -8 -4 -17 4 -10 4 -14 0 -10 -4
4 -15 -7 -25 -23 -11 -17 -23 -30 -29 -30 -6 0 -8 -11 -4 -26 5 -19 4 -25 -5
-20 -17 11 -43 66 -31 66 5 0 10 -5 10 -11 0 -5 5 -7 10 -4 15 9 12 25 -5 25
-38 0 10 71 83 125 56 41 76 43 98 10z m383 -622 l-2 -268 54 4 c63 4 72 8 65
27 -3 8 0 14 7 14 7 0 12 -17 13 -45 l1 -44 -71 -3 c-39 -2 -71 -7 -71 -12 0
-5 34 -9 75 -8 65 2 73 0 58 -11 -21 -16 -24 -29 -5 -22 9 4 11 -9 9 -50 -4
-50 -5 -54 -23 -45 -10 6 -19 17 -19 25 0 8 -5 15 -11 15 -5 0 -7 5 -4 10 3 6
1 10 -5 10 -7 0 -9 -8 -5 -20 6 -18 2 -17 -40 7 l-46 25 2 279 c2 268 7 379
16 379 2 0 3 -120 2 -267z m-713 85 c-4 -45 -12 -102 -18 -127 -8 -33 -8 -48
1 -62 13 -21 1 -25 -17 -7 -10 10 -12 5 -10 -26 1 -21 8 -40 15 -43 15 -6 18
-33 4 -33 -6 0 -13 5 -16 10 -3 6 -11 10 -17 10 -6 0 -2 -10 9 -22 11 -13 31
-45 44 -71 26 -53 57 -80 117 -101 21 -8 57 -23 80 -35 61 -31 75 -28 67 12
-4 17 -12 35 -17 38 -11 7 -38 106 -31 113 9 9 63 -34 124 -97 l57 -58 148 1
149 1 78 -41 c42 -23 77 -43 77 -46 0 -2 -102 -2 -227 0 -126 2 -373 5 -550 5
-212 1 -323 4 -323 11 0 6 10 27 23 48 32 52 61 151 61 210 0 31 0 32 45 32
l46 0 27 88 c15 48 30 110 33 137 14 117 17 135 22 135 3 0 3 -37 -1 -82z
m-390 -348 c1 -60 6 -76 35 -122 18 -29 36 -55 39 -58 3 -3 14 -15 24 -27 l19
-23 -493 0 c-279 0 -490 4 -485 9 6 4 48 22 93 40 80 30 90 31 237 31 l153 0
21 43 c39 80 155 141 321 170 14 2 27 5 30 6 3 0 6 -30 6 -69z m-688 -42 c-3
-85 -5 -93 -23 -93 -11 0 -29 -9 -39 -19 -13 -13 -21 -16 -24 -8 -5 16 -22 15
-22 0 0 -7 -25 -23 -56 -35 -45 -17 -56 -19 -60 -8 -11 27 1 50 24 48 12 -2
22 2 22 7 0 6 -9 10 -19 10 -15 0 -19 7 -18 35 1 23 6 35 15 35 10 0 12 -7 8
-26 -5 -19 -3 -25 6 -22 7 3 15 15 18 28 3 13 12 26 19 28 10 3 12 0 8 -12 -4
-9 -1 -16 5 -16 6 0 17 -8 24 -17 7 -10 14 -13 14 -7 0 6 -7 17 -15 24 -23 19
-8 30 45 30 27 0 52 5 55 11 10 14 -1 23 -17 13 -7 -5 -52 -9 -100 -10 -74 -2
-88 0 -88 13 0 12 3 13 13 4 16 -13 28 -5 20 15 -4 11 5 14 40 14 69 0 105 10
110 31 3 10 12 19 21 19 15 0 16 -12 14 -92z m-155 -241 c27 17 37 11 37 -23
0 -54 19 -39 23 19 3 43 5 48 12 28 8 -23 9 -23 22 -6 12 17 13 15 13 -18 0
-20 5 -37 10 -37 6 0 10 17 10 38 0 27 3 33 10 22 5 -8 10 -41 10 -72 0 -90
20 -82 22 9 1 47 3 61 5 36 5 -54 23 -56 23 -3 0 22 5 40 10 40 13 0 13 -140
0 -160 -7 -11 -10 -7 -10 18 0 17 -4 32 -9 32 -6 0 -11 -15 -13 -32 l-3 -33
-75 1 c-41 1 -97 2 -123 3 l-48 1 3 68 c3 61 5 67 26 70 14 2 23 11 23 25 2
17 3 15 6 -6 3 -18 8 -25 16 -20z m383 -5 c1 -20 2 -56 3 -79 0 -24 5 -43 11
-43 6 0 7 31 3 80 -5 72 -4 80 12 80 10 0 24 -8 31 -17 13 -17 13 -17 14 0 0
9 5 17 10 17 6 0 10 -29 10 -67 0 -38 5 -75 10 -83 7 -10 10 11 10 68 0 48 4
82 10 82 6 0 10 -26 10 -57 0 -62 8 -103 20 -103 3 0 5 36 2 80 -3 55 -1 80 7
80 7 0 11 -30 11 -90 l0 -90 -100 0 c-93 0 -100 1 -100 20 0 11 -5 20 -11 20
-6 0 -9 -9 -6 -20 5 -18 0 -20 -53 -20 l-57 0 4 88 c3 48 7 89 9 91 2 2 4 -32
4 -77 0 -109 19 -108 22 1 l2 82 3 -82 c2 -46 8 -83 13 -83 6 0 10 37 10 83 1
76 2 80 15 57 l14 -25 1 25 c0 20 2 22 10 10 9 -13 12 -13 21 3 14 25 22 15
25 -31z m537 3 l4 -30 2 33 c1 41 21 42 21 1 0 -26 3 -29 14 -20 11 9 15 9 19
-1 3 -7 6 1 6 19 1 45 17 50 25 8 8 -41 27 -47 24 -7 -2 15 2 29 7 32 6 3 11
-11 13 -30 2 -19 8 -39 14 -45 7 -7 9 3 4 33 -4 26 -2 42 4 42 5 0 10 -9 10
-19 0 -11 5 -23 10 -26 6 -4 10 5 10 19 0 14 5 26 10 26 6 0 10 -18 10 -40 0
-22 5 -40 10 -40 6 0 10 18 10 40 0 22 4 40 9 40 11 0 21 -51 21 -112 0 -33 4
-47 11 -42 7 4 10 34 7 83 -2 56 0 76 10 75 6 -1 73 -2 147 -2 l135 -2 0 -66
c0 -41 4 -63 10 -59 6 3 10 33 10 66 l0 59 95 0 95 0 0 -30 c0 -16 5 -30 10
-30 6 0 10 14 10 32 0 39 7 34 15 -12 9 -52 27 -63 23 -15 -2 22 2 41 7 43 6
1 11 -18 13 -43 4 -55 22 -60 22 -6 0 40 23 73 34 49 5 -10 7 -10 12 0 8 18
51 15 58 -5 6 -14 8 -14 21 3 14 19 14 19 15 0 0 -18 1 -18 19 -2 11 10 21 13
25 7 9 -14 -32 -40 -54 -34 -10 3 -20 0 -24 -5 -3 -5 12 -12 35 -16 23 -4 37
-11 34 -17 -4 -5 -21 -7 -41 -3 -22 4 -34 2 -34 -5 0 -6 17 -11 40 -11 27 0
40 -4 39 -12 -6 -51 15 -66 25 -18 5 27 10 30 41 30 36 0 42 -9 29 -55 -4 -18
-14 -20 -90 -21 -75 -1 -84 1 -84 17 0 10 -5 21 -12 25 -8 5 -9 0 -6 -14 4
-12 2 -25 -3 -28 -5 -3 -9 11 -9 30 0 44 -18 48 -22 5 -2 -26 -8 -32 -30 -35
-25 -2 -28 1 -28 27 0 24 -4 29 -22 29 -21 -1 -21 -2 -5 -11 21 -12 23 -44 2
-36 -8 4 -17 2 -20 -4 -13 -20 -23 3 -14 33 5 21 5 36 -1 42 -6 6 -11 7 -11 3
-1 -4 -3 -11 -4 -17 -1 -5 -3 -21 -4 -35 -1 -21 -6 -25 -30 -25 -30 0 -41 18
-41 69 0 13 -3 21 -7 18 -3 -4 -6 -25 -5 -46 1 -22 -3 -43 -8 -46 -6 -4 -10
12 -10 39 0 26 -5 46 -11 46 -6 0 -9 -17 -7 -42 2 -41 2 -42 -27 -41 -17 0
-50 1 -73 2 l-44 1 2 48 c3 60 2 72 -8 72 -4 0 -7 -27 -7 -61 0 -33 -3 -63 -7
-65 -5 -3 -8 20 -8 50 0 31 -4 56 -10 56 -5 0 -10 -22 -10 -50 0 -27 -4 -50
-10 -50 -5 0 -10 23 -10 50 0 28 -4 50 -10 50 -6 0 -8 -20 -4 -49 5 -47 4 -48
-20 -48 -22 0 -26 4 -26 28 0 16 -5 29 -10 29 -6 0 -8 -13 -5 -30 3 -17 1 -30
-5 -30 -5 0 -10 11 -10 25 0 14 -4 25 -10 25 -5 0 -10 -11 -10 -25 0 -24 -3
-25 -55 -25 -53 0 -55 1 -56 28 l-1 27 -11 -27 c-6 -16 -17 -28 -24 -29 -46
-3 -71 -2 -81 5 -7 4 -18 4 -24 -1 -20 -12 -31 -11 -50 5 -16 13 -18 13 -18 0
0 -12 -15 -16 -71 -17 -67 -2 -70 -1 -64 18 3 12 2 29 -4 38 -8 15 -10 11 -11
-19 l0 -38 -110 0 -110 0 0 90 c0 53 4 90 10 90 6 0 10 -11 10 -24 0 -14 5
-28 10 -31 6 -4 10 7 10 24 0 21 5 31 15 31 12 0 15 -16 15 -80 0 -47 4 -80
10 -80 6 0 10 33 10 80 0 47 4 80 10 80 6 0 10 -33 10 -80 0 -44 4 -80 8 -80
5 0 9 8 9 18 -1 83 5 142 13 142 5 0 9 -8 8 -17 -4 -57 3 -143 13 -143 8 0 9
24 4 80 -4 51 -3 80 3 80 14 0 22 -36 22 -104 0 -78 15 -63 17 17 0 34 2 68 2
75 1 8 17 12 46 12 38 0 45 -3 45 -19 0 -11 5 -23 10 -26 6 -4 10 7 10 26 0
40 16 28 23 -16z"/>
<path d="M1250 3896 c0 -11 -27 -13 -142 -12 -104 0 -143 -3 -146 -12 -2 -7 6
-12 23 -12 25 0 26 -2 23 -47 -3 -51 -27 -73 -29 -26 -1 26 -2 26 -9 -7 -5
-19 -7 -37 -5 -40 2 -3 54 -5 117 -5 105 1 113 -1 120 -20 6 -20 6 -19 7 2 1
16 6 20 21 16 13 -4 20 0 20 9 0 10 -10 15 -30 14 -16 0 -30 3 -30 7 0 41 0
42 10 27 8 -12 10 -9 10 12 0 40 10 58 31 58 14 0 19 7 19 25 0 14 -2 25 -5
25 -3 0 -5 -6 -5 -14z"/>
<path d="M1723 250 c-27 -11 -36 -40 -28 -89 6 -36 9 -39 44 -44 81 -10 131
23 117 78 -14 56 -71 80 -133 55z"/>
</g>
</svg>
