<?xml version="1.0" standalone="no"?>
<!DOCTYPE svg PUBLIC "-//W3C//DTD SVG 20010904//EN"
 "http://www.w3.org/TR/2001/REC-SVG-20010904/DTD/svg10.dtd">
<svg version="1.0" xmlns="http://www.w3.org/2000/svg"
 width="233.000000pt" height="400.000000pt" viewBox="0 0 233.000000 400.000000"
 preserveAspectRatio="xMidYMid meet">
<metadata>
Created by potrace 1.15, written by Peter Selinger 2001-2017
</metadata>
<g transform="translate(0.000000,400.000000) scale(0.100000,-0.100000)"
fill="#000000" stroke="none">
<path d="M583 3963 l-543 -3 -1 -293 c-1 -160 -3 -472 -5 -692 -2 -220 -4
-969 -4 -1664 -1 -1040 1 -1265 12 -1272 19 -13 478 -11 478 1 0 6 -87 10
-240 10 l-240 0 0 145 0 145 398 2 c218 2 313 4 210 5 l-188 3 -25 50 c-14 27
-25 65 -25 84 0 19 -16 84 -35 145 -31 99 -34 120 -30 197 5 105 11 137 38
189 54 109 126 159 217 152 27 -2 50 0 50 4 0 5 -10 9 -22 9 -13 0 -30 5 -38
11 -11 7 -2 9 35 6 28 -3 58 -1 68 4 12 7 17 6 17 -4 0 -10 11 -12 48 -7 86
11 89 3 32 -80 -22 -33 -44 -70 -49 -82 -5 -13 -18 -44 -29 -68 -12 -25 -35
-82 -52 -128 -26 -69 -34 -81 -46 -71 -10 9 -14 9 -14 0 0 -6 7 -14 15 -17 8
-4 15 -12 15 -20 0 -8 5 -14 11 -14 5 0 8 4 4 10 -3 5 5 35 18 67 14 32 30 76
37 98 7 22 21 56 31 75 9 19 25 53 35 74 10 21 35 62 56 90 21 28 38 60 38 72
0 12 5 24 11 26 7 2 6 21 -6 58 -27 91 -37 123 -52 158 l-14 33 -50 -43 c-77
-67 -122 -93 -198 -117 -39 -12 -74 -28 -78 -35 -5 -6 -23 -22 -40 -35 -18
-12 -33 -31 -33 -42 0 -24 -15 -25 -25 -1 -7 16 -8 15 -15 -3 -8 -19 -9 -19
-9 3 -1 17 4 23 17 20 26 -6 42 21 29 49 -11 25 -22 29 -32 13 -3 -5 -14 -10
-23 -10 -15 1 -16 1 -1 10 13 8 15 18 8 52 -4 24 -8 60 -9 81 0 20 -4 37 -10
37 -6 0 -10 -30 -10 -70 0 -38 -4 -70 -9 -70 -10 0 -21 59 -21 118 0 24 -5 42
-11 42 -8 0 -10 -26 -7 -80 2 -51 -1 -80 -7 -80 -7 0 -10 32 -8 89 2 53 -1 92
-7 96 -6 4 -11 -19 -12 -62 l-2 -68 -3 58 c-6 81 -23 71 -23 -14 0 -62 2 -70
15 -59 9 8 15 8 15 2 0 -22 -13 -42 -26 -42 -10 0 -14 15 -14 59 0 70 -17 91
-23 29 -2 -26 -4 -13 -5 35 -2 55 1 77 11 78 6 0 84 1 172 3 176 3 189 -1 178
-56 -4 -21 -2 -28 9 -28 11 0 14 7 10 25 -2 15 0 25 7 25 6 0 11 -8 11 -17 0
-12 3 -14 11 -6 15 15 7 48 -13 48 -9 0 -20 4 -24 8 -4 4 2 7 13 7 11 0 34 3
51 6 28 6 30 4 25 -16 -4 -16 -3 -21 5 -16 15 9 16 43 2 51 -5 3 -10 17 -10
31 0 14 -3 23 -7 21 -5 -3 -14 2 -22 11 -13 14 -11 15 18 9 19 -4 49 -7 67 -7
28 0 34 -4 34 -22 0 -17 -3 -19 -12 -10 -7 7 -22 12 -35 12 -18 0 -23 -6 -23
-25 0 -29 24 -34 39 -8 5 10 13 15 17 11 11 -12 -105 -131 -157 -160 -47 -27
-48 -27 -54 -7 -8 25 3 39 15 19 11 -17 13 -9 10 35 -2 41 -20 57 -21 19 0
-25 -2 -27 -10 -9 -6 14 -8 2 -6 -42 2 -55 -1 -64 -19 -74 -12 -6 -32 -8 -45
-5 -23 7 -23 7 -5 -8 27 -22 49 -20 72 5 10 12 39 33 64 47 48 27 170 140 170
157 0 24 51 65 81 65 32 0 133 42 144 59 4 7 15 5 31 -6 23 -15 29 -15 77 0
39 12 63 14 97 7 49 -10 203 -2 235 12 14 6 10 7 -15 3 l-35 -5 43 22 c23 12
42 28 42 36 0 9 6 12 16 8 9 -3 17 -6 19 -6 2 0 -2 -12 -10 -27 -8 -15 -12
-30 -9 -34 6 -10 -27 -28 -101 -54 -33 -12 -79 -33 -102 -48 -24 -15 -53 -27
-65 -27 -37 0 -50 -15 -52 -56 -1 -22 -9 -52 -18 -69 -9 -16 -21 -50 -28 -75
-6 -25 -16 -59 -21 -76 -5 -17 -9 -41 -9 -54 0 -23 -36 -90 -49 -90 -4 0 -12
5 -19 12 -7 7 -12 8 -12 2 0 -6 5 -15 11 -21 8 -8 8 -19 -2 -42 -8 -17 -16
-31 -20 -31 -3 0 -6 -24 -7 -53 -1 -30 -6 -66 -12 -81 -12 -32 -13 -66 -2 -66
9 0 32 102 32 146 0 16 10 49 22 74 17 36 22 41 26 25 2 -11 15 -39 29 -62 13
-23 21 -48 17 -54 -9 -16 17 -30 33 -17 17 14 16 39 -3 66 -18 26 -10 84 10
80 15 -3 66 53 66 72 0 7 8 18 17 25 26 19 22 80 -11 157 -23 54 -27 74 -21
105 l8 38 8 -57 c9 -66 35 -122 51 -112 7 5 9 -2 4 -22 -6 -27 -5 -28 9 -10 8
11 15 24 15 28 0 5 8 8 18 6 12 -2 20 7 27 30 7 24 14 31 26 27 16 -6 69 39
69 57 0 5 7 8 15 8 8 0 15 5 15 10 0 16 17 12 24 -6 4 -12 2 -15 -9 -11 -8 4
-17 2 -20 -3 -4 -6 -1 -10 4 -10 6 0 11 -4 11 -10 0 -5 -9 -10 -20 -10 -11 0
-20 -7 -20 -15 0 -21 4 -19 45 16 40 35 44 60 15 89 -24 24 -25 44 -6 102 8
24 17 58 21 75 6 32 25 46 25 19 0 -7 9 -35 21 -61 16 -36 19 -57 14 -95 -4
-30 -3 -50 4 -55 6 -3 11 -1 11 4 0 22 16 10 43 -33 27 -42 27 -46 12 -69 -17
-27 -12 -50 17 -83 14 -16 17 -27 10 -45 -10 -26 -6 -49 9 -49 5 0 9 8 9 19 0
17 27 49 33 40 22 -31 36 -59 28 -59 -20 0 -49 -104 -56 -208 -2 -26 -9 -76
-14 -112 -13 -80 -14 -150 -2 -150 32 0 4 -106 -37 -137 -22 -18 -103 -16
-129 2 -20 14 -47 100 -37 116 2 4 0 19 -6 34 -8 20 -15 25 -30 20 -24 -8 -25
3 -4 33 15 21 14 28 -7 88 -16 46 -30 68 -48 77 -36 18 -62 102 -62 204 -1 46
-5 83 -10 83 -5 0 -9 -38 -9 -85 0 -68 5 -98 26 -149 14 -35 32 -67 39 -70 30
-11 48 -69 50 -161 3 -119 26 -189 67 -206 29 -12 30 -14 26 -66 -4 -40 -1
-53 9 -53 16 0 16 1 2 -41 -7 -19 -23 -47 -38 -62 l-26 -29 -187 3 c-103 2
-190 0 -194 -4 -7 -7 181 -9 849 -7 l367 1 0 -142 c0 -123 -2 -144 -18 -155
-16 -12 -15 -13 6 -14 19 0 22 5 22 43 0 23 1 123 2 222 1 99 0 964 -1 1921
l-3 1741 -53 7 c-29 3 -64 2 -77 -3 -18 -8 -10 -10 40 -10 l62 -1 0 -59 0 -59
-50 -26 c-51 -27 -76 -33 -65 -17 12 21 -15 20 -29 -1 -9 -12 -42 -37 -73 -55
-64 -36 -65 -45 -3 -13 l40 20 -6 -32 c-11 -66 -14 -73 -36 -84 -13 -6 -95
-47 -182 -92 -87 -45 -163 -82 -167 -82 -9 0 -49 72 -49 87 0 5 29 21 65 37
36 16 64 30 62 32 -2 2 -33 -9 -68 -25 l-64 -30 -18 21 c-15 18 -16 23 -3 42
11 17 23 20 55 18 22 -1 56 4 76 12 34 14 41 27 47 86 3 24 6 25 55 22 92 -6
161 51 142 117 -3 9 8 17 30 23 34 9 111 56 111 67 0 3 -11 7 -24 7 -16 1 -23
-3 -20 -11 7 -17 -34 -45 -66 -45 -39 0 -48 -12 -52 -60 -3 -38 -8 -48 -37
-67 -29 -19 -42 -22 -83 -17 -57 8 -81 -6 -72 -42 4 -17 -1 -30 -21 -50 -24
-24 -32 -26 -76 -21 -44 5 -50 3 -69 -20 l-20 -26 -25 23 c-14 13 -25 31 -25
40 0 28 43 60 81 60 46 0 73 21 87 68 14 45 41 61 93 55 30 -4 40 0 58 22 11
15 21 34 21 41 0 23 37 34 116 34 43 0 75 2 73 5 -8 7 -827 12 -1436 8z m794
-17 c3 -3 1 -6 -6 -6 -13 0 -12 -26 4 -62 5 -12 -2 -21 -27 -34 -40 -22 -68
-19 -89 9 -25 31 0 67 47 67 18 0 36 5 39 10 4 7 -69 10 -210 10 -165 0 -216
-3 -213 -12 3 -7 17 -12 33 -13 39 0 54 -27 34 -63 -8 -15 -23 -26 -32 -26 -9
1 -17 -2 -17 -7 0 -5 42 -10 93 -10 81 -1 86 -2 42 -9 -27 -4 -68 -12 -89 -18
-22 -7 -41 -10 -42 -9 -8 8 -84 158 -84 166 0 7 80 12 223 13 257 3 285 3 294
-6z m193 7 c0 -5 -19 -42 -43 -83 -23 -41 -53 -96 -67 -122 l-24 -47 -37 21
-36 20 46 78 c25 43 54 92 63 109 15 27 23 31 58 31 22 0 40 -3 40 -7z m-1384
-43 c36 -23 63 -36 60 -31 -4 6 -24 20 -46 32 -22 13 -40 25 -40 28 0 3 52 5
114 5 124 -2 133 -5 151 -59 10 -29 24 -37 87 -50 24 -4 26 -8 21 -44 -4 -25
0 -51 11 -71 l15 -32 -27 18 c-15 10 -52 32 -83 50 -31 17 -84 50 -118 74 -35
23 -64 40 -67 38 -5 -6 83 -66 211 -144 148 -90 215 -135 215 -143 0 -4 -11
-22 -24 -39 l-23 -32 -97 67 c-53 38 -132 93 -176 123 -45 30 -115 81 -158
113 -42 32 -94 67 -114 79 -22 13 -38 29 -38 40 0 31 53 22 126 -22z m365 16
c10 -13 34 -27 53 -30 41 -8 60 -28 51 -55 -9 -29 12 -61 39 -61 37 0 86 -20
96 -40 17 -31 11 -49 -22 -79 -33 -29 -33 -29 -38 -8 -5 19 -14 23 -74 27 -57
4 -71 9 -88 30 -17 21 -19 34 -14 77 l6 52 -42 11 c-24 6 -49 13 -56 15 -15 5
-43 66 -36 77 3 5 28 8 56 8 41 0 54 -4 69 -24z m112 14 l62 0 46 -95 c25 -52
44 -95 42 -95 -2 0 -13 9 -25 20 -14 13 -36 20 -59 20 -45 0 -61 17 -53 57 5
25 1 34 -17 47 -13 9 -32 16 -42 16 -27 0 -59 19 -51 31 3 6 13 8 21 5 8 -3
42 -6 76 -6z m219 -87 l48 -93 -41 -21 c-23 -11 -42 -19 -44 -17 -7 9 -95 211
-95 219 0 6 19 9 42 7 l42 -3 48 -92z m921 57 c-15 -37 -19 -40 -55 -40 -59 0
-94 -23 -110 -72 -14 -41 -16 -43 -73 -54 -45 -9 -65 -19 -82 -41 -53 -66 -10
45 69 180 l40 67 113 0 113 0 -15 -40z m-1533 -155 c145 -106 234 -168 323
-227 26 -17 47 -34 47 -37 0 -3 -23 -6 -50 -7 -45 -1 -51 1 -56 23 -8 31 -55
63 -93 63 -18 0 -50 -9 -72 -20 -39 -20 -59 -20 -59 2 0 5 -9 23 -21 39 -23
33 -65 39 -113 14 -37 -19 -38 -19 -80 8 l-35 22 -1 133 0 134 32 -20 c18 -12
98 -68 178 -127z m963 10 c88 -18 158 -54 233 -121 111 -97 163 -206 171 -359
17 -305 -221 -564 -517 -565 -284 0 -517 241 -512 529 4 205 111 380 288 467
126 63 214 75 337 49z m986 -94 c1 -38 -3 -52 -16 -60 -17 -10 -17 -10 0 -11
13 0 17 -8 17 -35 0 -20 -5 -34 -11 -32 -14 3 -24 -16 -38 -70 -10 -37 -16
-44 -49 -53 -61 -17 -76 -13 -96 24 -25 46 -19 82 14 78 23 -2 23 -2 6 11 -15
11 -17 21 -11 64 l6 50 82 40 c45 22 85 41 88 41 3 1 7 -20 8 -47z m-2056 -86
c16 10 41 15 68 13 39 -3 44 -6 53 -35 11 -41 36 -49 80 -28 20 10 52 17 73
17 38 0 48 -8 94 -74 14 -20 19 -21 43 -10 46 21 55 8 35 -51 -10 -29 -18 -60
-19 -69 0 -9 -5 -20 -11 -23 -5 -4 -97 -9 -202 -12 -106 -3 -194 -7 -196 -9
-2 -2 86 -4 197 -4 l202 0 0 -43 0 -44 -262 3 -263 2 195 -8 c107 -4 210 -8
228 -9 l32 -1 -42 -42 c-24 -24 -48 -51 -53 -62 -10 -18 -12 -18 -52 3 -23 11
-50 21 -60 21 -30 0 -82 -38 -89 -65 -7 -28 -20 -32 -43 -11 -18 15 -82 38
-88 32 -2 -2 11 -9 29 -15 17 -6 42 -21 55 -32 28 -27 52 -19 60 21 3 17 14
35 24 40 26 14 80 12 109 -5 40 -23 58 -18 84 24 53 84 127 103 144 37 8 -28
6 -32 -16 -38 -14 -4 -45 -30 -69 -58 -50 -57 -82 -64 -137 -31 -61 37 -75 36
-91 -2 -30 -73 -76 -88 -113 -37 -13 17 -30 30 -39 30 -23 0 -53 -29 -53 -52
0 -10 -5 -18 -10 -18 -7 0 -10 88 -9 268 2 147 4 270 6 274 2 4 16 0 31 -9 26
-15 31 -14 75 5 57 26 74 21 83 -24 3 -18 13 -39 21 -46 22 -18 79 -15 102 6
17 15 23 16 36 6 8 -7 15 -18 15 -24 0 -7 11 -23 25 -36 24 -23 26 -23 82 -9
32 7 50 15 40 17 -9 2 -34 -2 -54 -9 -34 -11 -38 -10 -55 11 -10 12 -18 28
-18 36 0 7 -11 21 -24 29 -22 15 -26 14 -60 -6 -52 -30 -80 -20 -98 33 -10 35
-18 44 -40 46 -15 2 -40 -4 -57 -12 -39 -21 -53 -20 -79 3 -17 14 -22 30 -22
70 l0 51 39 -26 c37 -24 41 -25 64 -9z m1817 -4 c-12 -18 -31 -31 -47 -33 -25
-3 -40 -19 -78 -83 -10 -17 -13 -17 -42 -1 -45 23 -54 20 -16 -5 41 -26 69
-18 91 28 17 36 46 62 57 52 3 -3 -2 -19 -10 -36 -8 -17 -19 -52 -24 -78 -10
-52 -21 -64 -66 -66 -49 -3 -68 1 -85 16 -19 17 -56 20 -65 5 -3 -5 -15 -10
-26 -10 -13 0 -19 7 -19 23 1 16 12 27 43 42 23 11 41 26 39 33 -1 8 2 11 7 8
5 -4 11 -2 13 3 4 11 219 129 236 130 9 1 7 -8 -8 -28z m33 -8 c4 -3 -1 -12
-11 -19 -10 -8 -12 -13 -4 -14 21 0 13 -20 -8 -20 -19 0 -21 -5 -24 -52 -1 -9
-4 -19 -7 -22 -3 -4 -4 -18 -1 -32 4 -20 9 -23 26 -18 17 5 19 4 9 -7 -7 -7
-13 -20 -13 -28 1 -13 4 -12 15 3 15 19 15 19 15 -2 0 -12 -4 -22 -9 -22 -14
0 -43 -49 -35 -61 4 -6 18 3 35 23 35 41 38 29 4 -16 -35 -46 -31 -66 5 -27
17 17 35 31 40 31 21 0 8 -26 -25 -50 -19 -14 -35 -30 -35 -35 0 -16 -40 -48
-40 -32 0 7 6 19 13 26 10 11 8 13 -10 8 -24 -5 -30 2 -13 19 14 14 0 54 -19
54 -14 1 -14 2 2 11 9 5 17 14 17 19 0 6 -8 10 -17 10 -15 0 -13 4 7 20 22 17
22 20 6 20 -16 0 -18 6 -12 48 7 48 61 172 75 172 4 0 11 -3 14 -7z m207 -278
c0 -145 -4 -224 -10 -220 -6 3 -10 15 -10 26 0 11 -7 34 -16 50 -8 17 -13 37
-10 45 3 8 -1 14 -9 14 -14 0 -65 70 -65 89 0 5 12 12 28 14 20 3 18 4 -7 2
-24 -1 -37 5 -46 19 -18 28 -22 40 -13 44 4 1 27 9 50 18 57 20 75 39 83 85
16 92 25 24 25 -186z m-460 60 c30 -17 84 -19 111 -5 17 10 19 7 19 -24 0 -19
-9 -55 -20 -81 -11 -26 -23 -64 -26 -86 -5 -32 -11 -39 -29 -39 -14 0 -26 9
-33 25 -16 34 -34 40 -71 21 -16 -9 -34 -16 -39 -16 -6 0 -9 44 -8 100 1 87 3
100 18 100 9 0 20 5 23 10 8 14 25 12 55 -5z m320 -115 c0 -12 -9 -24 -23 -29
-32 -12 -51 -37 -36 -47 6 -4 16 0 21 10 5 9 16 16 23 16 8 0 15 5 15 10 0 6
5 10 11 10 6 0 -1 -14 -16 -32 -34 -40 -15 -51 19 -11 14 15 26 22 26 15 0 -7
-7 -15 -15 -18 -25 -10 -17 -25 10 -18 29 7 31 2 9 -21 -22 -21 -12 -30 18
-14 l23 12 -24 -27 c-28 -30 -21 -48 9 -21 11 10 20 13 20 7 0 -5 -21 -29 -47
-51 -59 -53 -51 -62 13 -15 l49 36 -55 -50 c-64 -59 -63 -78 1 -27 24 19 50
35 58 35 8 0 11 6 7 16 -3 8 -2 12 4 9 22 -14 11 -25 -94 -97 -22 -15 4 -19
26 -4 22 15 24 14 24 -5 0 -14 -13 -27 -38 -40 -21 -11 -38 -24 -38 -30 0 -6
3 -9 8 -7 4 2 26 12 50 23 32 15 42 25 38 38 -2 9 1 17 6 17 7 0 6 5 -1 13
-11 14 -6 27 11 27 10 0 10 -35 2 -79 -4 -20 -17 -38 -35 -48 -16 -10 -29 -22
-29 -29 0 -6 -9 -23 -20 -37 -26 -33 -25 -49 1 -18 11 13 22 22 25 19 8 -9
-47 -69 -57 -62 -5 3 -8 1 -7 -5 3 -12 -70 -91 -84 -91 -6 0 -8 7 -4 15 9 25
-11 17 -46 -17 -17 -17 -34 -26 -36 -20 -2 6 -11 8 -20 5 -15 -6 -14 -3 2 15
23 26 38 29 29 5 -4 -12 5 -8 28 12 19 17 36 31 38 33 2 1 1 5 -2 9 -4 3 -17
-2 -29 -13 l-23 -19 23 26 c26 30 28 44 5 35 -15 -6 -15 -4 2 14 11 12 13 20
6 20 -7 0 -23 -12 -36 -27 -13 -16 -25 -22 -25 -15 0 6 5 12 10 12 6 0 10 6
10 14 0 8 7 17 16 20 8 3 12 11 9 16 -5 8 -12 7 -22 -2 -24 -20 -34 -57 -22
-79 8 -17 7 -23 -8 -35 -22 -17 -41 -18 -25 -2 17 17 15 33 -3 18 -10 -8 -13
-24 -10 -49 l4 -36 -35 40 c-19 22 -41 54 -50 71 -19 38 -21 103 -4 133 l12
23 15 -21 c12 -18 13 -24 1 -38 -11 -14 -8 -14 15 1 32 22 32 21 9 46 -16 18
-19 37 -13 100 3 22 4 21 13 -10 5 -19 15 -38 21 -42 16 -10 67 41 67 65 0 20
-1 19 -47 -42 -2 -2 -6 -2 -9 2 -4 3 5 20 20 37 14 17 26 39 26 48 0 17 -4 14
-38 -32 -12 -16 -22 -23 -22 -17 0 7 9 24 20 39 25 33 44 95 28 90 -6 -2 -16
-19 -22 -38 -6 -18 -16 -35 -23 -37 -7 -3 -3 12 8 34 10 20 19 48 19 60 0 13
7 40 15 60 17 41 12 56 -10 27 -19 -25 -19 -12 1 34 l16 37 19 -45 c10 -25 21
-53 25 -62 9 -25 18 -22 35 9 8 15 27 39 43 53 15 14 35 33 45 42 21 21 21 21
21 -2z m-312 -105 c8 -17 20 -25 38 -25 24 0 26 -3 20 -31 -3 -17 -6 -44 -6
-59 0 -22 -6 -29 -26 -34 -40 -10 -60 1 -77 45 -14 35 -19 39 -40 34 -55 -14
-46 52 10 77 53 23 68 22 81 -7z m-1168 -39 c0 -2 3 -11 6 -20 4 -10 1 -16 -7
-16 -18 0 -83 -39 -76 -46 2 -3 20 4 38 15 46 28 53 27 72 -13 12 -26 13 -37
4 -44 -9 -8 -199 -94 -332 -151 -71 -31 -235 -111 -235 -115 0 -3 35 11 78 30
42 20 122 56 177 79 55 24 152 66 215 94 102 46 116 49 129 36 23 -23 4 -46
-55 -68 -27 -11 -60 -24 -74 -31 -26 -12 -55 -61 -64 -106 -7 -33 -54 -60
-103 -60 -32 0 -55 -9 -91 -36 -9 -6 -30 -94 -22 -89 5 3 14 24 20 45 13 47
49 70 109 70 47 0 101 39 101 73 0 31 36 86 62 96 13 5 41 14 64 20 22 6 49
20 59 31 18 20 18 20 47 -12 32 -36 36 -73 11 -100 -12 -14 -31 -18 -79 -18
-56 0 -65 -3 -83 -26 -12 -15 -21 -41 -21 -60 0 -23 -7 -38 -26 -53 -38 -30
-62 -35 -105 -21 -34 12 -41 11 -58 -5 -14 -12 -18 -25 -15 -45 8 -35 -17 -74
-57 -90 -24 -10 -38 -10 -68 0 -46 15 -63 7 -56 -23 9 -33 -17 -59 -66 -68
l-44 -8 43 2 c38 2 42 0 42 -20 0 -16 -6 -23 -20 -23 -13 0 -24 -10 -30 -25
-5 -14 -14 -25 -20 -25 -5 0 -9 -11 -8 -25 2 -17 8 -25 21 -25 16 0 17 2 7 15
-16 19 -10 27 10 15 12 -7 12 -13 4 -27 -24 -39 -67 -23 -58 21 2 12 4 169 4
349 1 265 4 329 14 333 8 3 16 19 20 35 9 46 34 48 70 6 17 -20 40 -37 51 -37
24 0 71 41 80 69 9 31 34 33 73 6 20 -14 46 -25 57 -26 11 0 -7 -13 -42 -29
-73 -34 -86 -49 -16 -19 70 30 143 73 143 84 1 27 100 107 100 81z m1098 -64
c4 -29 57 -72 81 -65 17 4 18 1 11 -39 -5 -23 -6 -46 -4 -49 2 -4 -8 -25 -22
-47 l-26 -40 -51 30 c-63 37 -137 87 -137 93 0 3 7 13 15 22 8 10 21 26 28 37
13 18 16 17 68 -16 76 -48 79 -50 79 -44 0 3 -26 22 -57 43 -32 21 -62 41 -66
44 -4 3 -4 17 1 30 8 19 16 24 43 23 27 -1 35 -5 37 -22z m-55 -197 l95 -59 4
-51 c2 -28 2 -73 -1 -100 -6 -47 -7 -50 -39 -51 -26 -1 -35 4 -45 25 -8 17
-20 25 -32 24 -58 -7 -91 34 -79 95 7 34 -14 52 -59 52 -14 0 -30 7 -37 15
-11 13 -9 20 9 39 18 19 30 22 74 21 28 -2 55 -3 59 -4 16 -2 38 -63 38 -104
0 -46 11 -62 45 -69 13 -2 22 -14 25 -32 3 -16 10 -31 17 -33 8 -3 9 6 3 30
-10 48 -18 57 -44 57 -21 0 -24 6 -29 61 -7 80 -32 109 -94 109 -41 0 -42 1
-31 20 7 11 16 19 19 18 4 -2 49 -30 102 -63z m-853 -28 c0 -7 -4 -17 -9 -22
-5 -6 -42 -73 -82 -150 -40 -77 -96 -180 -126 -229 -29 -49 -53 -93 -53 -97 0
-5 -7 -6 -15 -3 -10 4 -15 0 -15 -14 0 -16 -7 -21 -32 -24 -24 -2 -36 -10 -46
-31 -11 -23 -16 -26 -28 -16 -8 6 -14 17 -14 25 0 7 -9 19 -19 26 -11 8 -19
23 -18 33 1 14 -5 21 -20 23 -15 2 -23 10 -23 23 0 16 -7 19 -39 19 -22 0 -43
-5 -46 -10 -4 -6 -16 -8 -28 -4 -31 9 -31 11 -13 29 9 9 16 30 16 46 0 29 0
29 30 14 38 -20 58 -19 97 5 36 22 67 73 59 98 -3 9 -1 24 4 32 8 12 14 12 45
1 70 -25 155 32 155 104 0 43 20 55 95 55 46 0 60 4 80 25 14 13 25 31 25 40
0 8 5 15 10 15 6 0 10 -6 10 -13z m66 -38 c19 -11 34 -24 34 -29 0 -4 -15 -31
-32 -58 -18 -28 -82 -132 -143 -231 -98 -161 -135 -207 -135 -169 0 9 -3 9
-12 0 -12 -12 -38 1 -38 20 0 5 26 52 59 106 32 53 75 131 96 172 55 110 116
210 127 210 6 0 26 -9 44 -21z m593 2 c14 -10 37 -21 51 -22 25 -4 26 -5 29
-87 1 -28 57 -65 87 -57 16 3 23 -1 27 -15 4 -17 0 -20 -28 -20 -18 0 -52 -7
-76 -15 -51 -18 -45 -25 -99 113 -48 121 -46 142 9 103z m-40 -63 c13 -35 34
-88 46 -119 l22 -56 -35 -13 c-42 -15 -49 -9 -89 80 -46 101 -54 122 -49 127
5 5 68 40 76 42 3 0 16 -27 29 -61z m-481 -17 c2 -34 -3 -45 -38 -83 -57 -61
-61 -108 -18 -171 11 -16 9 -21 -12 -38 -15 -13 -33 -19 -49 -16 -20 4 -34 -3
-63 -34 -21 -22 -38 -49 -38 -59 0 -11 -5 -20 -10 -20 -7 0 -8 -13 -5 -33 6
-31 4 -35 -24 -47 -43 -18 -46 -27 -6 -22 35 4 36 3 50 -64 8 -42 -14 -50 -68
-23 -42 20 -39 15 23 -31 25 -19 25 -19 3 -20 -12 0 -28 9 -36 20 -16 22 -57
23 -57 0 0 -8 9 -26 20 -40 33 -43 17 -57 -21 -19 -11 11 -23 18 -26 16 -9
-10 18 -47 34 -47 11 0 13 -3 5 -13 -6 -7 -15 -35 -21 -62 l-10 -50 4 58 c3
49 0 62 -18 80 -13 13 -22 17 -25 9 -5 -17 -32 -15 -32 2 0 35 11 45 46 39 35
-6 41 1 24 27 -8 13 -10 12 -10 -2 0 -10 -5 -18 -11 -18 -6 0 -8 7 -5 15 3 10
1 15 -7 13 -19 -4 -56 24 -50 39 3 7 0 13 -6 13 -22 0 -11 39 20 69 17 17 34
31 39 31 22 0 61 -21 55 -30 -8 -12 5 -13 23 -1 11 7 11 9 -2 14 -13 5 -14 11
-5 31 11 23 42 40 53 28 12 -12 5 -29 -16 -39 -13 -6 -18 -12 -11 -16 6 -4 20
1 32 11 26 21 19 62 -11 62 -27 0 -23 8 69 154 41 67 87 140 102 163 75 122
95 152 101 148 3 -2 7 -22 8 -44z m108 -3 c11 -37 -8 -90 -49 -129 -23 -21
-45 -39 -49 -39 -13 0 -8 -44 7 -64 25 -33 18 -66 -20 -100 -35 -33 -44 -59
-24 -72 6 -3 15 0 20 7 12 19 11 32 -1 24 -25 -16 -6 13 25 38 39 31 46 69 20
103 -23 30 -18 50 23 85 47 40 61 65 63 109 1 25 4 18 9 -25 12 -92 12 -323 0
-330 -6 -3 -13 1 -16 9 -7 18 -34 22 -34 6 0 -5 5 -10 10 -10 6 0 10 -7 10
-15 0 -11 7 -14 25 -9 19 5 25 2 25 -10 0 -9 8 -16 20 -16 11 0 20 -5 20 -12
0 -9 3 -9 11 -1 15 15 3 33 -22 33 -23 0 -21 -17 -24 210 -2 102 -4 192 -6
200 -3 11 7 16 44 18 l47 3 0 -133 c0 -194 -24 -368 -50 -368 -4 0 -15 9 -25
20 -18 20 -72 29 -60 10 3 -5 12 -7 20 -3 9 3 15 -1 15 -9 0 -7 10 -18 22 -23
28 -12 35 -43 13 -51 -21 -9 -33 5 -15 16 13 8 12 10 -2 10 -10 0 -18 4 -18 9
0 16 -66 51 -96 51 -16 0 -44 -9 -61 -20 l-33 -20 0 23 c0 30 -15 51 -30 42
-8 -5 -9 -10 -1 -18 6 -6 11 -18 11 -26 0 -11 -6 -9 -20 9 -12 15 -20 20 -20
11 0 -8 7 -23 17 -33 9 -10 13 -21 10 -24 -9 -10 -37 16 -37 34 0 8 -3 12 -7
8 -5 -4 -8 -16 -8 -27 0 -10 -4 -18 -10 -16 -10 2 -10 89 -1 114 3 6 14 9 24
6 14 -3 18 -11 14 -25 -3 -14 -1 -19 6 -14 7 4 12 17 12 30 0 12 5 27 11 33 6
6 8 17 3 24 -5 9 -9 8 -15 -7 -6 -16 -8 -16 -8 -2 -1 10 15 32 34 49 40 37 43
51 15 81 -34 37 -26 80 25 138 37 41 45 58 45 89 l0 38 40 -10 c23 -6 42 -19
46 -29z m259 2 c21 -40 19 -92 -6 -134 -16 -28 -18 -39 -9 -55 6 -12 17 -21
25 -21 21 0 30 -40 12 -57 -13 -14 -16 -13 -26 6 -7 11 -20 21 -30 21 -23 0
-52 70 -43 108 8 38 3 115 -8 126 -16 16 -12 24 13 29 48 9 57 6 72 -23z m735
-75 c0 -8 -7 -15 -16 -15 -14 0 -16 -8 -11 -42 5 -42 5 -42 -5 -10 -11 32 -38
45 -38 18 0 -9 -7 -12 -20 -9 -16 4 -20 0 -21 -18 l-2 -24 -4 23 c-6 31 -26
23 -34 -14 -5 -23 -7 -24 -8 -6 -2 36 -31 27 -32 -10 l-1 -33 -7 30 c-3 17
-11 28 -16 26 -6 -2 -21 -8 -35 -13 -13 -5 -33 -7 -43 -4 -10 2 -21 -2 -23 -9
-3 -7 -14 -12 -23 -10 -16 3 -18 -3 -14 -53 2 -32 6 -62 7 -67 2 -6 -16 -21
-40 -32 -34 -17 -44 -19 -44 -8 0 8 15 18 33 23 35 9 44 36 32 99 -9 47 -35
44 -36 -4 -1 -33 -3 -30 -11 20 -11 60 -27 71 -39 26 -7 -23 -7 -23 -8 4 -2
60 -19 13 -31 -85 -14 -116 -14 -113 2 -113 7 0 16 20 20 44 10 60 20 66 15 8
-3 -36 -10 -52 -31 -68 -15 -12 -29 -19 -32 -16 -3 3 -1 37 5 76 13 86 14 161
2 161 -12 0 -17 -17 -32 -112 -6 -42 -9 -91 -7 -109 5 -30 -1 -39 -69 -105
-71 -69 -75 -71 -103 -61 -16 6 -37 25 -46 43 -12 22 -27 34 -47 38 -41 8 -47
-1 -17 -24 19 -15 21 -20 8 -20 -9 0 -24 7 -32 16 -15 14 -16 13 -16 -10 0
-18 4 -24 14 -20 8 3 19 -3 25 -15 16 -28 14 -33 -8 -21 -28 14 -39 13 -50 -8
-9 -16 -6 -18 18 -14 23 3 33 -2 52 -29 l24 -34 -39 23 c-30 18 -41 20 -52 11
-18 -15 -18 -30 0 -23 7 3 30 -6 51 -20 46 -31 81 -34 90 -6 7 23 -1 40 -20
40 -7 0 -15 6 -18 14 -5 12 -2 12 20 1 15 -8 30 -12 35 -9 14 9 9 24 -9 31
-22 7 -63 43 -63 55 0 4 18 -5 41 -21 22 -17 46 -32 52 -34 9 -3 9 -7 -1 -19
-6 -8 -18 -32 -25 -53 -16 -46 -36 -51 -91 -24 -46 22 -66 24 -66 6 0 -11 97
-47 129 -47 8 0 11 -6 7 -16 -3 -9 -6 -20 -6 -25 0 -5 -13 -9 -30 -9 -16 0
-30 5 -30 10 0 6 9 10 21 10 56 0 -13 35 -98 50 -2 0 -3 -6 -3 -14 0 -8 15
-17 35 -20 19 -4 35 -12 35 -18 0 -6 -10 -8 -24 -4 -14 3 -28 2 -31 -4 -9 -14
41 -31 103 -35 48 -2 52 -1 46 17 -7 23 33 161 45 153 5 -3 7 3 5 12 -6 23 69
109 144 166 52 40 184 119 197 118 6 -1 10 1 88 30 64 23 146 93 148 125 1 14
3 13 8 -6 10 -32 45 -30 82 6 15 15 32 23 38 20 6 -4 11 -1 11 7 0 8 17 35 37
60 l37 46 13 -31 c7 -17 11 -34 8 -37 -3 -3 -8 5 -12 17 -7 30 -27 28 -21 -2
4 -19 1 -22 -14 -18 -10 2 -18 1 -18 -2 0 -10 24 -50 35 -58 5 -4 6 -11 1 -15
-5 -4 -11 -2 -13 4 -3 7 -13 23 -23 35 l-19 23 9 -35 c12 -43 12 -49 0 -30
-15 24 -24 2 -10 -25 7 -14 10 -28 7 -32 -4 -3 -7 -1 -7 6 0 13 -24 41 -36 41
-3 0 -2 -6 3 -12 6 -7 13 -26 17 -43 5 -25 4 -28 -6 -14 -7 9 -21 16 -31 16
-16 0 -16 -2 -2 -23 17 -27 19 -34 7 -34 -5 0 -13 9 -18 20 -6 12 -14 17 -21
12 -10 -6 -9 -14 2 -36 17 -33 18 -36 7 -36 -4 0 -13 14 -19 31 -14 37 -37 29
-29 -10 5 -25 5 -25 -6 -3 -6 12 -16 21 -22 19 -17 -6 -7 -50 15 -66 18 -13
16 -16 -37 -57 -31 -25 -59 -42 -62 -39 -3 3 1 11 10 18 14 10 14 16 2 45 -13
29 -34 44 -34 24 0 -4 -12 -8 -27 -7 -39 1 -67 -27 -58 -57 l7 -23 -17 23 -17
23 -19 -25 c-16 -21 -18 -29 -9 -47 8 -14 15 -18 22 -11 7 7 6 17 -1 31 -7 12
-8 21 -2 21 15 0 23 -51 10 -66 -9 -11 -8 -14 2 -15 35 -3 84 4 87 11 2 4 28
21 59 37 36 18 90 61 147 119 108 107 114 114 146 179 14 28 26 52 27 54 6 11
33 -24 33 -43 -1 -20 -1 -20 -14 3 -9 15 -16 20 -20 12 -4 -6 1 -23 12 -39 13
-18 17 -33 11 -47 l-8 -20 -1 20 c0 11 -7 28 -14 38 -23 30 -26 -3 -4 -42 10
-18 17 -38 15 -45 -3 -6 -12 6 -21 27 -9 21 -21 35 -26 32 -15 -9 -12 -19 15
-60 14 -20 24 -42 22 -49 -2 -6 -15 11 -29 38 -14 28 -28 44 -32 38 -4 -6 5
-34 19 -63 15 -28 24 -53 22 -55 -2 -3 -10 9 -17 26 -7 16 -16 30 -21 30 -14
0 -11 -16 12 -57 19 -35 0 -20 -21 17 -5 8 -11 12 -15 9 -3 -4 4 -25 16 -48
12 -23 19 -44 16 -47 -3 -3 -13 8 -22 25 -8 17 -20 31 -25 31 -13 0 -12 -10 5
-40 8 -14 14 -32 14 -40 0 -8 -7 2 -16 22 -15 38 -39 44 -28 7 5 -15 3 -17
-11 -12 -14 5 -16 3 -9 -13 16 -37 11 -68 -10 -72 -18 -2 -18 -1 -3 8 26 16
11 49 -22 48 -21 -1 -27 -5 -23 -17 4 -11 0 -9 -10 4 -16 20 -16 20 -17 -2 0
-32 10 -53 26 -53 8 0 14 -4 14 -10 0 -15 33 -12 58 6 13 9 26 13 30 9 4 -3
-1 -11 -10 -16 -10 -6 -15 -16 -12 -27 5 -14 4 -14 -4 -3 -16 23 -42 -10 -44
-56 l-1 -38 -4 38 c-6 51 -23 37 -23 -19 0 -28 -4 -43 -10 -39 -5 3 -10 22
-10 41 0 46 -20 44 -21 -3 l-2 -38 -7 40 c-6 38 -9 37 -23 -5 -4 -10 -6 -7 -6
7 -1 28 -21 41 -21 13 0 -12 -4 -18 -10 -15 -14 9 -52 -14 -44 -27 5 -7 -10
-8 -47 -3 -83 13 -113 9 -158 -19 -49 -31 -65 -58 -57 -100 5 -27 1 -38 -28
-69 -18 -20 -36 -37 -40 -37 -3 0 -15 18 -26 40 -24 47 -26 112 -4 135 13 12
14 19 4 30 -13 16 -40 20 -40 7 0 -4 6 -14 13 -22 10 -12 9 -12 -4 -2 -14 11
-17 8 -23 -20 -4 -21 -2 -34 6 -40 10 -6 10 -8 1 -8 -7 0 -13 -7 -13 -15 0 -8
6 -15 13 -15 8 0 7 -3 -3 -10 -38 -24 -40 65 -2 139 28 57 103 126 148 137 13
3 24 10 24 15 0 5 7 6 15 3 19 -8 20 19 1 35 -7 6 -20 9 -27 6 -8 -3 -30 -6
-49 -8 -28 -2 -35 -7 -33 -22 1 -20 1 -20 -12 -1 -13 17 -15 17 -20 3 -4 -8
-2 -26 5 -39 l11 -23 -17 23 c-19 25 -34 29 -34 7 0 -8 -5 -15 -10 -15 -17 0
4 31 54 80 25 24 46 38 46 30 0 -7 2 -11 5 -8 3 3 2 15 -3 27 l-8 22 -25 -23
c-95 -86 -179 -265 -163 -347 14 -73 14 -73 41 -66 23 5 25 4 14 -9 -12 -15
-8 -20 12 -17 4 0 7 -5 7 -12 0 -23 -95 -67 -144 -67 -39 0 -45 3 -50 25 -4
14 -15 34 -26 45 -30 30 -53 125 -54 225 -1 104 4 139 31 216 26 71 50 101
186 227 15 14 27 31 27 38 0 17 17 26 130 63 97 33 129 38 310 45 104 4 177
23 210 52 18 18 20 17 20 -1z m-1816 -334 c3 -5 14 -7 24 -4 10 2 24 -2 31
-10 9 -12 8 -18 -5 -31 -9 -10 -14 -20 -10 -23 3 -4 12 2 20 12 10 14 15 15
21 5 9 -14 -11 -30 -37 -30 -20 0 -24 -35 -8 -60 8 -11 9 -8 4 12 -4 21 -1 27
16 33 31 10 35 0 14 -36 -25 -42 -41 -47 -55 -15 -7 14 -16 26 -21 26 -5 0 -2
-10 6 -22 22 -31 20 -48 -5 -48 -39 0 -61 19 -54 48 5 21 4 24 -8 14 -18 -15
-27 -5 -26 27 1 17 3 20 6 9 2 -10 9 -18 13 -18 6 0 5 11 0 26 -13 33 -13 34
4 28 9 -3 12 -12 9 -22 -4 -10 2 -7 16 7 18 18 20 25 10 37 -9 11 -9 17 1 29
14 17 26 19 34 6z m796 -77 c0 -3 -5 -14 -10 -25 -8 -13 -7 -19 1 -19 6 0 13
9 16 19 5 19 33 19 33 -1 0 -5 -4 -6 -10 -3 -5 3 -10 1 -10 -5 0 -6 -7 -19
-16 -27 -13 -14 -17 -14 -24 -2 -5 7 -12 10 -16 7 -3 -4 1 -14 10 -23 16 -17
17 -16 61 23 13 12 15 8 15 -22 0 -27 4 -34 14 -30 8 3 12 12 9 20 -4 10 0 12
11 8 10 -4 15 -13 12 -21 -3 -8 -6 -19 -6 -24 0 -12 -52 -7 -63 6 -5 6 -6 0
-2 -11 4 -17 -1 -24 -24 -34 -42 -17 -69 -6 -63 25 2 15 0 25 -7 25 -6 0 -11
-9 -11 -20 0 -11 -4 -20 -10 -20 -10 0 -14 14 -11 39 2 7 -2 10 -8 6 -15 -9
-13 6 4 28 9 13 20 17 34 12 12 -3 21 -2 21 3 0 17 -42 21 -57 6 -8 -8 -19
-14 -25 -14 -6 0 -8 -12 -3 -32 3 -18 7 -45 7 -60 1 -25 18 -42 18 -18 0 6 9
10 20 10 11 0 20 -7 20 -15 0 -8 5 -15 10 -15 6 0 10 5 10 10 0 6 11 10 24 10
13 0 35 9 49 20 14 11 34 20 44 20 16 0 18 -6 15 -40 -4 -44 -24 -53 -42 -20
-6 11 -15 20 -21 20 -6 0 -6 -6 0 -18 5 -10 6 -24 2 -30 -5 -9 -12 -5 -21 13
-7 14 -17 25 -22 25 -13 0 -10 -9 17 -44 26 -34 30 -46 17 -46 -4 0 -16 14
-26 31 -11 18 -24 28 -32 25 -7 -3 -16 -1 -19 4 -11 18 -21 10 -20 -17 0 -21
6 -29 23 -31 16 -2 22 2 22 14 0 14 3 15 12 6 14 -14 -6 -42 -32 -42 -9 0 -19
-3 -23 -6 -11 -11 5 -34 24 -34 10 0 19 -5 19 -11 0 -5 4 -8 9 -5 5 3 14 -1
21 -9 10 -12 9 -15 -6 -15 -19 -1 -19 -1 0 -11 14 -9 20 -8 27 2 4 7 5 17 3
21 -3 4 0 8 6 8 6 0 10 -6 8 -14 -2 -8 1 -16 6 -18 17 -5 14 95 -3 115 -13 16
-13 18 5 23 26 7 39 6 40 -3 0 -5 4 -37 8 -73 7 -61 14 -81 58 -158 l18 -31
-54 0 c-30 0 -64 -5 -76 -11 -24 -13 -50 -7 -50 11 0 6 6 9 13 6 19 -7 37 6
42 31 2 12 11 29 19 38 27 27 19 37 -24 30 -36 -6 -44 -3 -65 20 -28 30 -33
15 -10 -26 22 -39 18 -64 -17 -96 -49 -46 -121 -44 -139 3 -11 30 -14 28 -23
-9 -5 -23 -3 -26 10 -21 14 5 14 3 4 -14 -21 -33 -49 -46 -66 -32 -9 8 -39 11
-75 10 -32 -1 -59 2 -59 6 0 16 24 33 46 33 24 0 39 35 28 64 -4 11 -2 15 8
11 8 -3 27 -1 42 5 24 9 27 8 22 -6 -3 -8 -6 -24 -6 -35 0 -10 -4 -19 -10 -19
-5 0 -7 8 -3 18 4 12 3 14 -5 7 -14 -13 -4 -57 12 -52 6 2 12 18 14 35 2 18 8
32 13 32 5 0 7 -14 4 -31 -3 -17 -2 -28 4 -25 16 11 19 58 4 88 -8 16 -13 40
-10 54 3 16 0 24 -9 24 -8 0 -14 -4 -14 -9 0 -5 -8 -12 -17 -14 -15 -4 -15 -6
5 -12 12 -4 22 -14 22 -22 0 -8 -4 -11 -10 -8 -5 3 -10 1 -10 -4 0 -6 -5 -11
-10 -11 -6 0 -9 3 -9 8 6 37 -37 47 -44 10 -3 -17 -5 -14 -6 10 -1 22 3 32 14
32 8 0 15 4 15 9 0 5 8 8 18 7 25 -2 21 28 -5 32 -13 2 -23 7 -23 12 0 13 34
6 50 -10 17 -18 60 -24 60 -9 0 5 7 9 16 9 10 0 14 6 11 15 -4 8 -2 17 3 20 6
4 6 14 -1 26 -8 16 -7 25 7 40 33 36 63 13 57 -45 -3 -28 0 -37 9 -34 8 3 13
23 13 55 0 37 -3 49 -13 46 -12 -5 -55 33 -65 59 -3 8 -6 6 -6 -6 -1 -10 7
-25 17 -32 15 -12 15 -13 1 -14 -19 0 -52 34 -42 43 3 4 -4 18 -17 32 -13 14
-19 25 -13 25 6 0 14 -6 16 -12 4 -9 6 -8 6 3 1 8 -4 20 -11 27 -10 10 -7 17
10 34 20 20 25 21 44 9 16 -10 23 -10 26 -2 2 6 11 11 20 10 11 0 12 -2 5 -6
-7 -2 -13 -9 -13 -14 0 -5 9 -4 19 3 10 6 17 17 14 25 -3 7 5 17 18 22 26 11
89 14 89 5z m-910 -35 c0 -11 9 -34 20 -49 16 -23 18 -33 10 -55 -8 -22 -7
-33 6 -52 14 -22 17 -23 32 -10 15 13 20 14 36 1 20 -14 20 -14 0 -29 -18 -15
-17 -16 13 -10 25 5 34 2 47 -17 23 -32 20 -83 -5 -107 -18 -17 -20 -26 -14
-66 5 -34 3 -45 -5 -40 -6 4 -9 14 -6 22 4 9 1 13 -6 10 -7 -2 -12 -14 -10
-25 4 -29 -33 -30 -48 -2 -8 14 -17 19 -30 15 -15 -5 -24 3 -39 32 -10 21 -29
44 -40 51 -21 12 -28 40 -13 57 5 6 5 57 1 115 -4 59 -3 109 2 115 5 5 9 -2 9
-18 0 -15 4 -27 9 -27 5 0 11 -14 15 -31 3 -18 10 -28 16 -24 8 5 8 11 0 20
-8 10 -8 19 -1 34 15 27 14 36 -3 22 -17 -15 -28 -1 -15 19 14 23 11 29 -11
23 -23 -6 -27 10 -7 32 18 21 37 18 37 -6z m2120 -193 c0 -49 -2 -54 -20 -49
-11 3 -20 9 -20 13 0 4 -6 10 -13 13 -9 3 -13 -5 -13 -29 0 -28 5 -36 23 -40
13 -4 23 -14 23 -24 0 -10 6 -20 13 -23 6 -2 8 -8 4 -13 -4 -5 -12 -2 -17 6
-5 8 -13 11 -17 6 -4 -4 0 -13 9 -20 19 -14 38 -73 19 -62 -6 4 -11 14 -11 22
0 8 -5 12 -11 9 -6 -4 -8 -14 -5 -22 4 -9 2 -21 -4 -28 -8 -9 -8 -15 0 -20 13
-8 13 -25 1 -25 -5 0 -13 9 -16 21 -4 11 -10 18 -13 15 -9 -10 -10 -46 0 -52
4 -3 8 -13 8 -22 -1 -15 -3 -14 -16 3 -8 11 -12 25 -10 32 3 7 -2 13 -10 13
-12 0 -15 -6 -10 -25 5 -18 2 -25 -9 -25 -8 0 -15 -7 -15 -15 0 -8 -4 -15 -10
-15 -14 0 -13 27 2 32 8 3 8 9 0 24 -10 18 -12 17 -22 -13 -7 -18 -16 -33 -20
-33 -12 0 -20 28 -14 45 4 8 1 15 -4 15 -6 0 -12 -6 -14 -14 -2 -8 -11 1 -21
21 -12 24 -14 34 -5 31 15 -5 43 20 34 30 -4 3 -11 0 -15 -7 -6 -9 -11 -10
-15 -2 -4 6 -18 8 -32 5 -18 -5 -24 -2 -24 10 0 19 -20 22 -21 4 0 -7 -5 -2
-10 12 -8 19 -6 27 7 37 16 12 17 13 1 13 -9 0 -17 4 -17 9 0 5 -3 18 -6 28
-4 11 -3 14 3 7 4 -6 18 -16 29 -22 14 -7 22 -21 22 -37 0 -33 4 -37 43 -38
26 -2 32 2 35 21 2 12 -1 22 -6 22 -6 0 -10 -6 -10 -14 0 -9 -10 -13 -25 -12
-16 0 -25 7 -25 18 0 29 11 47 26 41 19 -7 18 -23 -1 -23 -8 0 -15 -4 -15 -10
0 -18 25 -11 38 11 11 18 11 23 -3 33 -15 11 -13 14 17 30 30 16 40 17 71 7
39 -13 58 -32 39 -39 -7 -2 -12 -8 -12 -14 0 -6 6 -6 15 2 12 10 15 7 21 -14
16 -65 -51 -150 -92 -115 -9 7 -19 7 -31 0 -17 -9 -17 -10 0 -17 31 -11 88 4
113 31 44 47 26 142 -31 169 -18 9 -38 16 -44 16 -6 0 -11 6 -11 14 0 10 8 13
22 11 12 -3 25 1 29 7 5 7 11 9 15 5 4 -3 1 -14 -7 -23 -12 -15 -12 -17 0 -13
15 5 25 21 35 52 3 9 15 17 26 17 13 0 20 7 20 20 0 11 7 20 15 20 11 0 15
-13 15 -54z m-1857 -23 c-14 -5 -18 -43 -5 -43 4 0 12 10 17 22 6 12 22 29 36
37 23 13 28 12 47 -7 49 -49 49 -66 -3 -74 -13 -2 -21 -12 -23 -30 -2 -15 -14
-34 -28 -42 -13 -9 -24 -25 -24 -36 0 -11 -2 -20 -4 -20 -2 0 -12 -3 -22 -7
-13 -5 -16 -3 -11 10 3 9 2 19 -2 22 -5 2 -12 -6 -15 -20 -4 -16 -11 -22 -21
-19 -8 4 -22 0 -31 -7 -13 -11 -14 -9 -8 17 4 16 7 37 6 47 -1 17 9 22 22 10
13 -13 36 -11 36 3 0 8 -6 11 -15 8 -36 -14 -31 103 7 143 20 22 23 22 37 7
12 -12 13 -18 4 -21z m1496 -75 c-1 -24 3 -56 10 -71 15 -39 14 -42 -14 -61
-28 -18 -33 -36 -10 -36 11 0 14 -7 9 -25 -10 -40 19 -31 32 10 10 32 10 35
-7 30 -11 -4 -19 -2 -19 4 0 16 35 22 63 12 46 -18 83 -101 38 -86 -13 4 -23
-2 -35 -20 -24 -37 -60 -57 -89 -50 -23 6 -25 10 -16 33 20 52 -10 94 -41 57
-10 -12 -15 -12 -36 2 -13 8 -24 20 -24 27 0 6 4 4 10 -4 13 -20 19 -10 13 22
-3 14 -13 28 -24 31 -25 7 -24 32 3 51 17 12 19 18 9 29 -28 34 66 47 107 14
10 -8 11 -2 6 31 -5 30 -3 42 5 42 8 0 12 -15 10 -42z m-1277 -80 c46 -35 78
-70 78 -84 0 -8 -15 -20 -34 -28 -19 -8 -40 -25 -47 -37 -6 -13 -26 -37 -43
-54 -17 -16 -36 -39 -43 -50 -12 -19 -13 -19 -38 10 -14 17 -31 37 -39 45 -17
19 -29 80 -16 80 6 0 9 3 8 8 -1 4 4 19 10 34 6 15 9 35 6 43 -4 8 -2 15 4 15
5 0 23 3 39 6 21 4 35 1 47 -11 15 -16 15 -19 -9 -47 -30 -35 -32 -64 -6 -71
15 -3 21 2 27 27 11 46 12 49 13 74 1 25 18 30 23 7 2 -10 8 -12 17 -6 12 8
12 12 -2 25 -8 9 -20 16 -26 16 -6 0 -11 5 -11 10 0 15 9 12 42 -12z m-472
-92 c0 -35 19 -53 37 -35 6 6 19 6 36 0 36 -14 37 -62 2 -95 -14 -13 -25 -32
-25 -43 0 -11 -7 -26 -15 -33 -8 -7 -15 -21 -15 -31 0 -16 -4 -17 -26 -9 -21
9 -29 7 -40 -7 -12 -16 -13 -16 -14 -1 0 9 -3 23 -6 32 -4 11 -1 16 10 16 20
0 20 7 2 25 -9 9 -13 37 -12 87 2 62 6 77 27 100 32 36 39 35 39 -6z m2010
-103 c0 -6 -6 -14 -12 -17 -10 -5 -10 -7 0 -12 6 -3 12 -20 11 -37 -1 -30 -1
-31 -8 -7 l-7 25 -6 -27 c-6 -34 -1 -40 25 -27 27 15 37 -3 37 -73 0 -56 -1
-58 -26 -58 -26 0 -26 1 -21 50 6 58 -9 68 -18 13 -11 -66 -13 -69 -14 -20 -1
46 -15 64 -24 30 -4 -14 -5 -12 -6 5 -2 39 -21 24 -21 -17 0 -21 -6 -44 -13
-50 -11 -8 -18 -1 -36 32 -21 38 -21 40 -2 17 11 -14 21 -28 21 -32 0 -5 4 -8
8 -8 5 0 10 20 10 45 1 25 -2 45 -8 45 -5 0 -11 -8 -11 -17 -1 -17 -2 -17 -6
0 -2 9 -11 18 -19 18 -27 3 -32 4 -40 12 -6 6 96 12 132 8 15 -2 28 79 14 93
-7 7 -10 -4 -11 -34 l-1 -45 -8 38 c-9 46 -13 51 -38 38 -10 -6 -31 -8 -45 -6
-20 4 -26 1 -30 -17 -3 -17 -5 -15 -6 9 -1 31 1 32 42 35 86 6 137 3 137 -9z
m-208 -110 c30 -36 71 -121 99 -207 39 -120 43 -288 10 -411 -23 -83 -72 -201
-103 -247 -10 -14 -18 -29 -18 -32 0 -4 -9 -17 -21 -29 -11 -12 -29 -38 -39
-57 -10 -19 -27 -46 -39 -59 -12 -13 -21 -31 -21 -39 0 -10 -4 -12 -12 -5 -7
6 -30 13 -50 17 -21 4 -38 11 -38 15 0 5 18 4 40 -1 45 -12 47 -11 52 16 2 15
-5 21 -32 28 -19 5 -39 14 -44 19 -18 17 1 19 39 3 23 -9 41 -12 47 -6 6 6 -6
15 -31 26 -23 9 -41 21 -41 27 0 6 3 9 8 7 65 -34 83 -38 97 -24 22 21 18 33
-12 45 -16 5 -36 17 -46 25 -18 14 -18 16 -1 45 10 17 22 31 27 31 4 0 25 -11
45 -25 38 -26 62 -32 62 -15 0 6 -4 10 -10 10 -14 0 -89 53 -90 63 0 13 42 -3
76 -28 32 -24 44 -23 61 9 10 18 5 23 -38 43 -27 13 -49 30 -49 38 0 19 -4 19
54 -10 46 -23 66 -25 66 -6 0 5 -15 12 -34 15 -18 4 -42 16 -52 28 -19 21 -19
21 4 9 26 -14 31 3 5 18 -12 7 -13 10 -5 11 8 0 27 -10 44 -21 21 -15 33 -18
40 -11 8 8 0 16 -26 28 -20 10 -36 21 -36 26 0 5 14 1 31 -7 17 -9 34 -14 37
-10 10 10 -29 35 -55 35 -13 0 -23 5 -23 11 0 11 20 8 74 -8 12 -3 17 -1 14 8
-3 8 -14 15 -26 17 -12 2 -22 7 -22 11 0 4 14 5 31 3 22 -3 30 -1 25 7 -4 6
-17 11 -29 11 -12 0 -29 5 -37 11 -11 8 -4 9 28 5 54 -8 56 10 1 19 -49 8 -40
25 15 28 23 1 36 7 36 16 0 10 -10 12 -40 8 -22 -3 -40 -1 -40 3 0 12 65 24
79 15 6 -3 11 1 11 9 0 12 -11 16 -47 16 -55 0 -54 7 2 13 21 2 41 10 43 17 3
9 -5 11 -31 8 -20 -2 -33 0 -31 4 3 4 21 8 40 8 19 0 34 5 34 10 0 11 -11 13
-52 10 -16 -1 -28 3 -28 9 0 6 18 11 40 11 22 0 40 5 40 10 0 6 -18 10 -40 10
-22 0 -40 5 -40 10 0 6 13 10 29 10 27 0 30 3 29 31 -1 29 -3 30 -35 24 -20
-3 -33 -2 -33 5 0 5 6 10 13 10 17 0 54 27 46 34 -3 3 -20 2 -37 -3 -18 -6
-34 -6 -37 -1 -3 5 10 12 30 16 48 9 45 27 -5 22 -44 -4 -55 13 -21 32 29 15
35 12 20 -7 -12 -17 -12 -17 6 -1 15 14 16 20 6 32 -11 14 -15 14 -37 -1 -14
-9 -27 -13 -31 -10 -3 4 6 12 21 18 14 7 26 16 26 21 0 10 -3 10 -34 -2 -17
-6 -26 -6 -26 0 0 6 6 10 14 10 8 0 17 7 20 16 9 24 8 26 -13 14 -31 -16 -35
-12 -10 8 13 12 18 21 12 25 -6 4 -22 -3 -37 -14 -14 -11 -26 -16 -26 -10 0
12 40 41 56 41 6 0 18 -8 26 -17z m-189 -136 c-5 -75 -3 -99 11 -124 22 -44
20 -59 -14 -128 -16 -33 -30 -70 -30 -81 0 -12 -7 -41 -16 -65 -9 -24 -22 -66
-29 -94 -13 -50 -13 -50 -14 -13 -1 20 6 63 14 95 8 31 15 73 15 93 0 45 28
154 40 158 15 5 11 44 -5 66 -8 11 -15 34 -15 51 0 17 7 40 15 51 8 10 15 31
15 45 0 23 7 39 16 39 2 0 1 -42 -3 -93z m-1653 -8 l0 -61 80 7 80 7 0 -42 c0
-23 5 -51 11 -62 6 -11 7 -18 2 -15 -4 3 -9 -33 -9 -79 -1 -46 2 -84 7 -84 5
0 9 25 9 55 0 34 4 55 11 55 7 0 9 -11 6 -29 -7 -32 1 -71 14 -71 5 0 6 7 3
15 -4 9 -3 39 0 68 l7 53 89 0 c56 -1 89 -5 86 -11 -2 -5 -13 -9 -25 -7 -18 2
-21 -2 -16 -17 3 -11 1 -22 -5 -26 -6 -3 -10 3 -10 14 0 25 -20 28 -21 4 -1
-17 -2 -17 -6 0 -2 9 -9 17 -15 17 -7 0 -9 -23 -6 -65 3 -36 2 -68 -3 -70 -4
-3 -9 24 -11 60 -2 36 -7 65 -12 64 -5 0 -12 5 -17 12 -4 8 -10 11 -12 9 -3
-3 -8 -62 -11 -132 -6 -96 -5 -128 4 -128 8 0 10 11 7 33 -3 17 -2 41 2 52 8
20 17 -63 24 -222 2 -57 0 -70 -10 -61 -8 7 -13 37 -13 84 0 59 -3 74 -15 74
-14 0 -22 53 -17 128 0 14 -4 22 -11 19 -7 -3 -11 -8 -10 -13 3 -15 5 -125 4
-211 -1 -82 -1 -83 -26 -83 -25 0 -25 1 -25 80 0 94 -16 109 -19 18 -2 -84
-11 -88 -11 -4 0 42 -4 65 -10 61 -6 -3 -10 -28 -10 -55 0 -33 -5 -50 -15 -54
-8 -3 -15 -16 -15 -28 0 -17 -3 -19 -9 -9 -10 15 -3 51 10 51 5 0 9 18 9 39 0
22 4 42 8 45 5 3 7 23 5 46 -2 28 0 39 8 34 6 -3 9 -15 6 -25 -3 -10 -1 -21 3
-24 5 -3 11 16 15 42 3 27 7 58 9 71 2 15 -2 22 -14 22 -18 0 -44 46 -31 55 5
2 12 -5 17 -18 6 -16 9 -7 11 38 2 33 11 67 19 76 8 8 11 19 7 22 -3 4 -1 7 5
7 15 0 16 86 2 95 -6 4 -10 -12 -10 -42 0 -51 -12 -83 -24 -64 -4 6 -5 20 -1
30 8 27 -11 35 -20 8 -8 -21 -8 -21 -12 6 -6 39 -23 33 -23 -8 0 -19 -4 -35
-10 -35 -5 0 -10 18 -10 40 0 22 -4 40 -10 40 -5 0 -10 -22 -10 -50 0 -42 3
-50 19 -50 22 0 31 -26 31 -94 0 -62 -13 -52 -21 17 l-6 52 -2 -68 c-1 -85
-21 -82 -21 4 0 37 -4 59 -11 59 -8 0 -10 -18 -5 -61 3 -34 6 -93 6 -130 0
-87 19 -92 22 -6 l2 62 3 -62 c5 -83 23 -81 23 2 0 36 4 65 10 65 5 0 9 -33 9
-75 0 -67 -3 -75 -19 -75 -17 0 -20 -9 -23 -77 l-3 -78 -2 85 c-3 95 -22 96
-22 1 0 -100 -11 -44 -16 80 -7 201 -5 290 5 303 6 7 9 23 6 37 -11 66 -15
219 -5 219 6 0 10 -26 10 -61z m1836 -96 c26 -160 -10 -338 -99 -486 -24 -38
-32 -45 -43 -36 -21 17 -17 31 6 24 11 -4 20 -2 20 4 0 6 -4 11 -10 11 -5 0
-10 5 -10 11 0 6 7 9 15 6 8 -4 17 -2 20 3 4 6 1 10 -4 10 -6 0 -11 7 -11 16
0 11 5 14 16 10 12 -5 14 -1 8 16 -5 17 -3 20 10 15 10 -4 16 -1 16 8 0 8 -6
15 -12 15 -8 1 -6 6 5 14 18 14 7 33 -11 22 -11 -7 -176 -338 -197 -396 -9
-25 -19 -57 -22 -72 -3 -16 -10 -28 -15 -28 -6 0 -7 7 -4 15 3 9 -1 18 -9 21
-8 4 -15 10 -15 15 0 4 6 6 14 3 8 -3 19 3 25 15 16 28 14 41 -6 42 -17 1 -17
2 0 6 19 5 22 18 7 28 -18 11 -39 -20 -52 -77 -6 -32 -16 -58 -21 -58 -4 0 -6
8 -3 18 4 10 8 36 10 58 5 57 14 71 47 78 19 3 29 12 29 23 0 15 2 15 9 4 5
-8 7 -21 4 -30 -3 -10 0 -9 8 3 7 11 14 33 15 49 2 17 10 42 18 56 53 102 81
149 87 145 4 -2 6 2 5 9 -3 26 39 147 51 147 7 0 13 5 13 11 0 5 -4 7 -10 4
-6 -4 -10 5 -10 21 0 24 3 26 30 21 16 -4 32 -2 35 2 6 10 -18 21 -46 21 -12
0 -16 5 -13 15 5 11 11 12 24 5 24 -13 40 -13 40 0 0 6 -6 10 -14 10 -8 0 -17
4 -20 8 -3 5 9 6 26 4 19 -3 28 -1 25 5 -4 6 -25 13 -47 17 -22 3 -40 11 -40
17 0 6 13 7 34 3 33 -6 35 -5 33 22 -2 27 -5 29 -49 29 -54 1 -53 1 -62 35
l-7 25 18 -22 c13 -15 34 -23 72 -27 l54 -6 -5 45 c-7 60 8 58 18 -2z m211
-397 c-4 -10 7 -14 46 -15 52 -1 83 -15 56 -26 -18 -7 -20 -116 -2 -122 9 -3
9 -12 2 -29 -12 -33 -12 -81 1 -89 6 -3 10 -19 10 -36 0 -16 -4 -29 -10 -29
-5 0 -10 10 -10 22 0 21 0 21 -14 2 -8 -10 -10 -20 -5 -22 5 -2 9 -15 9 -28 0
-28 16 -32 23 -6 3 9 5 -9 6 -40 1 -37 -3 -58 -10 -58 -8 0 -10 12 -6 35 l6
35 -75 0 -74 0 0 30 c0 21 5 30 18 31 16 1 16 2 0 6 -21 5 -23 14 -5 32 10 11
9 12 -1 6 -10 -5 -13 -1 -10 16 2 17 11 26 33 30 l30 7 -32 1 c-28 1 -33 5
-33 26 0 21 5 25 28 25 21 0 24 -2 12 -10 -17 -11 -10 -13 14 -4 28 11 17 24
-20 24 -19 0 -33 4 -30 9 4 5 17 8 31 6 24 -2 25 0 27 59 l2 61 3 -52 c5 -73
23 -67 23 7 0 64 -1 66 -31 49 -17 -8 -20 -19 -18 -54 2 -25 0 -47 -4 -51 -4
-4 -7 21 -7 55 0 40 -4 60 -10 56 -6 -4 -10 -24 -8 -46 1 -21 -1 -42 -5 -45
-4 -4 -7 14 -7 39 0 26 -4 47 -10 47 -6 0 -7 -23 -3 -60 5 -48 3 -60 -8 -60
-11 0 -13 16 -11 75 l4 75 29 0 c17 0 32 6 35 15 4 8 8 15 11 15 3 0 3 -6 0
-14z m-145 -261 c-3 -69 -1 -95 8 -95 8 0 11 15 10 43 -2 23 -2 60 -1 82 1 38
3 40 36 42 26 2 33 0 29 -11 -3 -8 -12 -12 -20 -9 -9 3 -14 -1 -14 -12 0 -11
5 -15 14 -12 21 8 27 -91 6 -104 -13 -7 -12 -8 2 -9 11 0 15 -5 12 -15 -5 -12
-10 -13 -20 -4 -11 9 -14 8 -14 -5 0 -9 8 -16 21 -16 11 0 17 -5 14 -10 -4 -6
-11 -8 -16 -5 -5 4 -9 -18 -9 -51 0 -81 -17 -51 -19 34 -1 15 -5 21 -12 16 -7
-4 -9 -24 -6 -56 6 -43 4 -48 -9 -37 -10 8 -13 23 -9 50 3 21 1 40 -5 44 -6 4
-11 -6 -11 -24 -1 -17 -3 -35 -4 -41 -1 -5 -3 -17 -4 -25 -1 -12 -15 -15 -65
-15 -55 0 -67 3 -80 21 -8 12 -12 29 -8 38 6 14 7 14 10 -2 2 -9 7 -15 12 -12
4 3 6 14 3 24 -3 11 0 28 6 38 9 14 11 7 9 -36 -2 -37 1 -56 10 -58 8 -3 12 8
12 36 0 23 5 41 10 41 6 0 10 7 10 15 0 8 5 15 11 15 6 0 9 -19 8 -50 -2 -27
0 -53 4 -56 4 -4 7 11 7 34 0 62 7 72 54 73 l41 2 -40 6 c-22 4 -57 5 -77 4
-41 -4 -45 2 -24 30 14 18 14 18 19 0 3 -10 5 -2 6 17 l2 35 14 -30 13 -30 1
53 c1 29 5 51 10 48 4 -3 6 -28 3 -56 -3 -33 -1 -50 7 -50 7 0 11 26 11 76 0
61 11 114 23 114 1 0 0 -43 -1 -95z m-1582 -97 c0 -20 -9 -44 -24 -60 -26 -31
-99 -67 -135 -68 -23 0 -110 36 -121 50 -3 4 -19 15 -36 24 -23 14 -31 26 -31
47 0 16 4 29 9 29 4 0 8 -7 8 -14 0 -15 104 -106 121 -106 4 0 6 6 3 14 -4 10
8 15 46 18 44 5 56 11 91 47 43 47 46 46 25 -2 -16 -39 -47 -61 -107 -76 l-44
-11 45 6 c63 7 105 36 127 89 10 25 19 45 21 45 1 0 2 -15 2 -32z"/>
<path d="M1396 2411 c-10 -38 -15 -80 -11 -93 5 -18 4 -20 -4 -8 -7 9 -8 38
-5 73 5 39 3 57 -5 57 -6 0 -11 -3 -12 -7 0 -5 -2 -15 -4 -23 -23 -97 -23
-114 -2 -157 11 -23 29 -46 40 -49 24 -8 49 24 39 51 -4 11 -6 66 -5 123 1 56
-1 102 -6 102 -4 0 -15 -31 -25 -69z"/>
<path d="M1440 1251 c0 -6 5 -13 10 -16 13 -8 13 -35 -1 -35 -6 0 -19 10 -29
23 -15 18 -22 20 -37 11 -26 -16 -25 -53 3 -71 21 -13 25 -13 38 0 8 8 12 17
9 21 -4 3 -1 6 5 6 15 0 15 -6 1 -33 -18 -34 -32 -38 -56 -15 -26 24 -32 9 -7
-16 24 -25 53 -19 72 14 9 16 20 30 23 30 6 0 23 -53 34 -104 6 -27 5 -28 -11
-15 -16 13 -16 9 -12 -49 2 -34 2 -62 -2 -62 -3 0 -6 -9 -6 -20 0 -13 5 -19
13 -16 19 8 16 -5 -4 -20 -10 -7 -14 -16 -10 -21 17 -16 36 29 32 72 -4 33 -1
44 12 49 30 12 1 184 -43 252 -16 24 -34 32 -34 15z"/>
<path d="M573 43 c-6 -4 353 -9 798 -11 445 -2 809 1 809 5 0 10 -1591 17
-1607 6z"/>
</g>
</svg>
