<?xml version="1.0" standalone="no"?>
<!DOCTYPE svg PUBLIC "-//W3C//DTD SVG 20010904//EN"
 "http://www.w3.org/TR/2001/REC-SVG-20010904/DTD/svg10.dtd">
<svg version="1.0" xmlns="http://www.w3.org/2000/svg"
 width="233.000000pt" height="400.000000pt" viewBox="0 0 233.000000 400.000000"
 preserveAspectRatio="xMidYMid meet">
<metadata>
Created by potrace 1.15, written by Peter Selinger 2001-2017
</metadata>
<g transform="translate(0.000000,400.000000) scale(0.100000,-0.100000)"
fill="#000000" stroke="none">
<path d="M60 3952 c-7 -3 -10 -651 -10 -1933 1 -1061 -1 -1933 -3 -1937 -3 -4
-2 -15 2 -25 7 -19 197 -20 1811 -14 l375 2 3 179 c2 137 -1 181 -10 188 -10
6 -10 8 1 8 11 0 12 77 7 467 -8 627 -10 1357 -5 2293 l4 775 -1082 0 c-596 0
-1088 -2 -1093 -3z m1195 -51 c3 -6 -2 -11 -13 -11 -11 0 -25 -13 -35 -35 -23
-49 -22 -55 13 -55 17 0 30 -3 30 -7 0 -5 -59 -9 -130 -11 -72 -1 -130 0 -130
3 0 3 11 18 24 32 29 30 25 47 -14 65 -16 7 -27 15 -25 18 7 11 273 12 280 1z
m-981 -47 c9 -3 16 -13 16 -21 0 -13 -3 -13 -16 -2 -23 19 -34 -4 -34 -69 0
-93 60 -180 154 -222 32 -15 42 -16 63 -5 14 8 31 11 38 8 16 -6 28 -33 15
-33 -6 0 -10 5 -10 10 0 20 -30 9 -35 -13 -8 -29 10 -108 35 -157 23 -46 24
-50 8 -50 -6 0 -26 -12 -45 -26 -41 -31 -54 -24 -76 39 -13 39 -12 45 10 86
20 39 23 41 23 18 0 -14 -4 -29 -10 -32 -12 -8 -13 -45 -2 -45 5 0 13 10 18
21 9 20 11 18 22 -20 7 -22 17 -41 21 -41 20 0 18 30 -4 76 -14 27 -25 66 -25
87 0 33 -3 37 -25 37 -14 0 -25 5 -25 10 0 6 -10 10 -23 10 -12 0 -37 12 -55
28 -32 28 -102 153 -102 184 0 23 -18 32 -35 18 -7 -6 -33 -10 -57 -8 -34 2
-44 7 -46 23 -2 17 4 20 47 22 56 2 87 15 114 50 21 26 19 25 41 17z m1850
-29 c8 -8 26 -15 40 -15 14 0 27 -4 30 -8 2 -4 8 -193 12 -420 l7 -412 -28
-40 c-16 -23 -30 -58 -33 -85 -2 -25 -6 -44 -8 -42 -4 4 -44 144 -64 222 -7
28 -26 89 -42 137 -22 68 -27 98 -23 135 6 52 -23 164 -44 171 -13 4 -8 -30
11 -81 6 -15 8 -30 6 -33 -6 -6 -36 72 -40 106 -2 16 -12 28 -30 34 -37 13
-47 1 -20 -24 12 -12 22 -30 22 -41 0 -11 7 -33 15 -49 8 -15 24 -63 36 -107
11 -43 33 -112 48 -153 16 -41 43 -135 62 -209 25 -97 39 -135 50 -138 16 -5
24 -28 35 -104 5 -31 2 -39 -21 -58 -42 -32 -54 -25 -16 9 28 26 32 36 27 60
-9 47 -32 75 -89 106 -46 26 -62 29 -138 29 -78 0 -89 -3 -128 -29 -23 -16
-43 -27 -44 -25 -2 2 -14 22 -27 44 -13 22 -44 64 -68 94 -41 51 -77 111 -70
115 2 1 28 13 58 26 68 30 108 58 115 81 3 9 21 37 40 61 36 45 42 58 25 58
-5 0 -10 -6 -10 -13 0 -7 -13 -23 -30 -35 -16 -13 -30 -31 -30 -41 0 -38 -142
-128 -185 -117 -37 9 -31 21 28 50 28 14 78 47 110 73 99 81 170 241 149 338
-5 27 -14 41 -26 43 -14 3 -17 0 -13 -12 4 -9 2 -16 -4 -16 -17 0 -5 45 12 48
9 2 24 -4 32 -13 14 -14 21 -13 74 6 69 26 120 76 157 153 29 60 32 86 14 104
-17 17 -28 15 -28 -5 -1 -17 -1 -17 -11 0 -20 34 24 53 55 22z m-1107 -67 c38
-24 77 -48 88 -54 15 -9 34 -2 104 38 47 26 90 48 94 48 5 0 5 -9 2 -20 -4
-11 -2 -20 4 -20 6 0 8 -7 5 -15 -4 -8 -1 -15 5 -15 6 0 11 9 11 20 0 11 2 20
4 20 2 0 11 3 20 6 11 4 16 0 16 -12 0 -17 2 -16 18 4 19 25 34 21 25 -6 -4
-16 -3 -16 9 -1 7 9 24 20 37 24 20 6 23 4 18 -9 -7 -17 8 -22 18 -6 3 6 15
10 27 10 16 0 18 -3 9 -14 -7 -9 -8 -17 -3 -20 6 -3 12 1 16 9 7 18 46 20 46
2 0 -7 -5 -18 -12 -25 -7 -7 -9 -12 -4 -12 4 0 15 7 23 16 15 14 18 13 42 -11
18 -19 22 -29 14 -32 -21 -8 -15 -20 8 -19 35 1 31 -18 -6 -35 -28 -13 -35
-14 -39 -2 -3 7 -3 20 0 28 4 8 1 15 -5 15 -6 0 -11 -4 -11 -10 0 -5 -5 -10
-11 -10 -6 0 -9 9 -6 20 5 21 -7 28 -18 10 -11 -18 -25 -10 -25 15 0 14 -5 25
-11 25 -7 0 -9 -10 -5 -25 7 -27 6 -28 -18 -19 -9 3 -16 17 -16 31 0 13 -4 22
-9 19 -5 -3 -7 -15 -4 -26 5 -17 0 -20 -31 -20 -37 0 -95 -23 -108 -43 -4 -7
-12 -7 -22 2 -8 7 -21 11 -28 8 -8 -4 -5 -8 10 -12 25 -8 27 -16 11 -32 -8 -8
-4 -16 15 -28 38 -25 32 -35 -24 -35 -29 0 -50 -5 -50 -11 0 -6 8 -8 19 -4 25
8 35 -9 16 -28 -15 -16 -49 -13 -73 6 -7 5 -16 7 -20 3 -4 -4 2 -14 13 -23 11
-8 19 -18 18 -23 -5 -17 39 -32 73 -26 18 4 40 16 48 27 15 22 78 59 100 59 7
0 25 9 40 21 15 12 26 16 26 9 0 -9 4 -9 15 0 11 9 19 10 26 3 7 -7 1 -16 -20
-27 -17 -9 -45 -23 -62 -32 -16 -9 -28 -18 -26 -21 3 -2 19 3 37 12 18 9 34
15 36 12 2 -2 -14 -12 -35 -23 -22 -11 -35 -22 -28 -26 6 -3 -6 -13 -27 -22
-21 -9 -42 -13 -48 -10 -15 9 -38 -17 -38 -43 0 -18 -4 -24 -15 -20 -11 5 -13
0 -9 -22 3 -16 1 -38 -5 -50 -9 -16 -9 -21 0 -21 7 0 5 -8 -5 -19 -10 -11 -15
-24 -12 -29 3 -6 -10 -24 -29 -41 -20 -17 -30 -31 -23 -31 22 1 82 61 69 69
-9 6 -8 11 4 21 13 11 14 10 9 -5 -5 -13 -4 -16 4 -11 20 12 13 -10 -8 -29
-11 -10 -20 -24 -20 -31 0 -7 -9 -16 -21 -19 -16 -5 -18 -10 -8 -21 9 -11 9
-14 0 -14 -7 0 -9 -5 -6 -10 8 -13 -4 -50 -16 -50 -6 0 -17 7 -26 15 -8 9 -28
19 -44 22 -34 7 -49 23 -21 23 28 0 34 11 15 32 -15 17 -15 18 10 18 15 0 27
5 27 11 0 6 -6 9 -12 6 -7 -2 -21 0 -30 5 -14 7 -18 5 -18 -10 0 -25 -23 -44
-44 -36 -9 3 -23 3 -32 0 -13 -5 -14 -9 -4 -21 6 -7 18 -11 26 -8 8 3 14 0 14
-6 0 -6 -13 -14 -29 -17 -36 -8 -66 -38 -57 -59 5 -13 10 -14 28 -4 13 7 29
20 36 31 32 44 111 6 118 -58 2 -16 7 -53 10 -81 4 -36 2 -53 -5 -53 -6 0 -11
6 -11 13 -1 6 -7 -2 -14 -18 -7 -17 -21 -37 -32 -45 -18 -15 -18 -14 -1 13 12
19 16 38 12 57 -3 16 -2 31 4 35 6 3 8 17 5 30 -3 12 -1 26 5 29 31 19 -6 76
-49 76 -19 0 -30 -7 -38 -26 -7 -14 -16 -23 -21 -20 -5 3 -12 -1 -15 -10 -3
-8 -10 -12 -16 -9 -5 3 -10 1 -10 -4 0 -6 -4 -11 -10 -11 -20 0 -11 73 12 97
12 13 18 26 14 30 -4 5 -14 -1 -22 -12 -14 -19 -15 -18 -8 10 4 17 3 27 -1 23
-4 -4 -13 -2 -21 5 -33 29 -44 37 -53 37 -5 0 -13 5 -17 11 -13 22 44 0 70
-26 26 -26 46 -32 46 -15 0 5 -9 14 -20 20 -11 6 -20 17 -20 26 0 8 -6 14 -12
12 -21 -4 -68 12 -68 22 0 13 17 13 25 0 3 -5 15 -10 26 -10 10 0 19 5 19 10
0 6 -10 10 -23 10 -13 0 -31 6 -42 13 -16 13 -15 14 16 10 48 -6 83 -24 67
-35 -17 -10 8 -29 29 -21 9 3 11 0 8 -10 -6 -14 22 -33 33 -22 3 3 0 5 -8 5
-10 0 -10 3 0 15 7 8 9 15 5 15 -4 0 -2 7 5 15 11 13 8 14 -16 11 -16 -2 -22
-1 -14 1 9 2 22 13 29 25 12 19 11 24 -9 40 -12 10 -32 18 -45 18 -12 0 -28 7
-35 15 -14 17 -50 20 -50 5 0 -6 3 -9 8 -8 4 1 23 -8 42 -20 19 -12 31 -22 26
-22 -5 0 -3 -7 4 -15 14 -17 34 -9 26 11 -3 8 -1 14 3 14 15 0 20 -27 8 -39
-21 -21 -47 -11 -72 28 -23 37 -26 39 -56 31 -20 -6 -38 -6 -48 1 -13 8 -12 9
5 4 14 -4 24 0 27 9 10 26 -38 130 -80 174 -11 11 -13 11 -13 0 0 -8 5 -19 11
-25 7 -7 14 -31 16 -54 2 -23 11 -52 20 -65 9 -14 11 -24 5 -24 -6 0 -13 4
-16 9 -3 5 -15 7 -26 4 -16 -4 -19 -2 -14 11 3 9 10 16 14 16 5 0 6 9 3 20 -3
11 -10 20 -15 20 -5 0 -6 5 -2 11 3 6 0 16 -7 21 -11 8 -10 9 4 4 9 -3 17 -1
17 4 0 6 -7 10 -16 10 -11 0 -15 6 -11 20 3 10 -1 24 -9 31 -8 6 -12 14 -9 18
2 4 -5 7 -17 7 -12 -1 -23 6 -26 14 -4 13 -3 13 11 2 9 -8 20 -11 25 -8 10 6
137 -56 163 -80 14 -13 22 -13 64 3 27 10 50 24 53 31 3 10 -3 9 -21 -3 -29
-19 -68 -17 -75 4 -3 10 0 11 14 3 22 -13 74 11 74 33 0 11 -5 10 -21 -6 -24
-24 -45 -20 -42 7 2 17 -4 19 -43 16 -48 -4 -57 8 -23 31 23 17 64 87 50 87
-5 0 -14 -7 -21 -15 -14 -17 -20 -18 -39 -6 -12 8 -12 13 3 35 9 14 12 26 7
26 -6 0 -14 -7 -19 -16 -12 -22 -35 -8 -29 17 3 11 1 19 -4 19 -5 0 -9 -7 -9
-15 0 -11 -11 -15 -38 -15 -34 0 -40 4 -52 35 -8 19 -19 35 -24 35 -6 0 -4 5
5 10 17 10 59 2 59 -11 0 -5 5 -9 11 -9 6 0 8 9 4 20 -10 31 27 25 47 -7 l17
-28 1 28 c0 25 2 27 20 17 12 -6 21 -22 21 -38 2 -25 2 -25 6 -4 3 15 10 22
19 18 12 -5 12 -1 -1 24 -9 17 -13 30 -11 30 3 0 36 -19 73 -42z m-831 -60
c14 -46 83 -154 112 -175 17 -12 43 -25 58 -27 44 -8 49 -21 29 -66 -17 -39
-35 -53 -35 -28 0 14 -40 58 -52 58 -4 0 -8 -12 -8 -27 l0 -27 -22 23 c-20 22
-22 22 -34 7 -10 -15 -8 -29 12 -84 28 -77 27 -72 15 -72 -5 0 -12 12 -15 26
-7 27 -48 74 -66 74 -5 0 -10 -11 -10 -24 0 -14 -4 -27 -9 -31 -19 -11 94
-223 132 -248 27 -18 44 -84 50 -205 4 -61 2 -75 -12 -79 -42 -14 -105 -48
-132 -70 -59 -50 -92 -160 -46 -157 9 1 17 -4 17 -12 0 -20 -38 -17 -49 4 -5
9 -9 38 -9 62 1 25 -8 65 -19 90 -18 43 -19 71 -21 528 l-2 482 54 0 c48 0 56
-3 62 -22z m166 -347 c10 -25 18 -54 18 -63 0 -10 5 -18 10 -18 20 0 9 -16
-21 -29 -16 -7 -28 -15 -25 -18 3 -3 -2 -12 -10 -20 -11 -12 -18 -12 -28 -4
-11 9 -16 9 -22 0 -4 -7 -3 -14 4 -17 6 -2 8 -10 5 -18 -3 -10 0 -12 10 -8 10
3 20 -3 27 -16 8 -16 15 -19 23 -11 7 7 7 15 -2 25 -14 17 -7 36 13 36 8 0 16
-13 19 -30 9 -43 31 -39 24 4 -4 24 -1 39 9 47 8 6 14 8 14 4 0 -4 20 9 45 29
25 21 45 33 45 28 0 -5 -7 -15 -15 -22 -8 -7 -22 -37 -31 -66 -9 -32 -21 -54
-29 -54 -9 0 -12 -6 -9 -15 3 -8 1 -28 -4 -45 -7 -20 -8 -30 -1 -30 6 0 7 -5
4 -11 -4 -6 2 -13 14 -16 18 -5 19 -8 9 -21 -11 -13 -10 -15 3 -10 12 5 16 2
12 -11 -2 -10 3 -23 11 -30 9 -8 16 -18 16 -25 0 -6 14 -38 31 -72 16 -34 31
-76 31 -93 1 -16 4 -28 8 -26 12 7 21 -25 14 -48 -4 -14 -3 -17 7 -12 9 6 11
2 7 -13 -4 -12 -2 -22 4 -22 5 0 6 -4 3 -10 -3 -5 0 -22 8 -36 9 -18 16 -23
21 -15 4 7 3 18 -3 25 -9 10 -9 20 0 39 9 21 8 40 -5 92 -12 50 -14 70 -6 81
7 7 9 22 5 34 -3 11 -2 20 3 20 5 0 12 18 16 40 3 22 11 40 16 40 6 0 10 8 10
18 1 22 23 52 40 52 7 0 10 7 6 16 -3 8 -2 12 4 9 6 -3 10 -2 10 4 0 6 7 8 15
5 10 -4 15 0 15 12 0 16 2 17 10 4 8 -13 10 -12 11 5 1 17 2 17 6 3 2 -10 8
-18 13 -18 5 0 7 6 4 14 -4 11 0 13 15 9 14 -3 21 -1 21 8 0 11 2 11 10 -1 6
-10 10 -11 10 -2 0 6 7 12 15 12 8 0 15 -6 16 -12 0 -10 2 -10 6 0 5 14 33 17
33 3 0 -5 9 -11 21 -14 18 -5 20 -10 14 -50 -7 -44 0 -70 27 -99 7 -8 18 -23
24 -33 6 -11 23 -21 38 -23 29 -4 30 -6 16 -33 -14 -26 2 -24 18 2 11 18 11
24 -2 38 -30 33 -16 41 14 9 17 -17 30 -38 30 -46 0 -13 3 -13 12 -4 10 10 8
19 -5 41 -13 22 -15 35 -8 53 10 23 10 23 10 1 1 -12 6 -34 13 -48 8 -19 8
-31 0 -50 -13 -28 -42 -34 -42 -8 0 14 -3 13 -16 -5 -19 -27 -13 -49 26 -92
16 -18 31 -38 33 -44 8 -23 39 16 32 42 -4 15 -2 21 5 17 6 -4 10 9 10 35 0
33 5 46 25 62 28 22 33 61 13 114 -9 27 -9 38 2 59 20 37 40 32 40 -10 0 -19
-5 -35 -11 -35 -7 0 -9 10 -5 25 7 29 -10 34 -19 5 -6 -18 9 -60 22 -60 3 0
12 8 19 18 8 10 13 12 14 5 0 -7 -9 -22 -20 -33 -16 -16 -19 -28 -15 -54 6
-29 3 -36 -25 -56 -27 -19 -31 -28 -26 -51 3 -16 1 -29 -6 -31 -6 -2 -8 -10
-4 -16 13 -21 26 -2 26 39 0 29 5 41 18 46 41 14 62 45 62 92 1 77 24 155 46
159 10 2 25 11 32 20 11 14 12 14 12 -4 0 -16 2 -17 10 -4 7 11 10 11 10 2 0
-7 5 -10 10 -7 5 3 10 0 10 -7 0 -9 3 -9 10 2 5 8 10 11 10 6 0 -5 7 -3 15 4
12 10 15 10 15 0 0 -8 3 -11 6 -7 15 14 111 -87 120 -127 3 -16 26 -48 49 -70
24 -23 54 -61 67 -86 13 -25 36 -63 51 -85 15 -22 27 -43 27 -48 0 -4 8 -20
19 -35 41 -60 55 -88 53 -101 -2 -7 1 -10 7 -6 6 3 14 -2 17 -12 3 -10 14 -36
24 -58 17 -34 39 -88 45 -105 5 -15 15 -80 19 -117 2 -23 7 -47 11 -52 3 -6 0
-11 -7 -11 -10 0 -10 -2 1 -9 7 -5 11 -13 8 -18 -3 -5 -2 -15 3 -23 5 -9 4
-20 -3 -29 -10 -12 -9 -13 3 -6 13 8 13 7 1 -8 -12 -15 -11 -17 5 -17 16 0 17
-2 4 -10 -9 -6 -11 -10 -3 -10 7 0 10 -7 7 -15 -4 -10 -2 -14 7 -10 18 6 91
-35 97 -55 3 -10 -4 -7 -20 8 -25 23 -41 21 -31 -4 3 -8 9 -11 14 -8 5 3 8
-24 6 -61 l-2 -66 -21 23 c-25 28 -58 48 -80 48 -32 0 -59 -50 -34 -65 6 -4 7
-11 4 -17 -4 -6 -15 7 -24 27 -13 28 -15 47 -9 69 4 17 6 60 5 96 -5 85 -4 82
-18 74 -8 -5 -9 -2 -5 9 4 10 2 17 -5 17 -6 0 -5 6 3 17 12 15 12 16 -5 10
-13 -5 -17 -3 -13 7 4 10 1 13 -9 9 -10 -4 -12 0 -8 13 4 11 4 16 0 12 -13
-11 -33 15 -28 34 2 10 -1 18 -7 18 -6 0 -11 7 -11 15 0 8 -5 14 -11 13 -10
-3 -63 81 -66 105 -1 4 -6 31 -12 60 -6 28 -12 63 -14 77 -1 14 -8 24 -15 22
-10 -2 -12 4 -7 20 6 23 6 23 -11 3 -16 -20 -16 -20 -9 4 5 17 4 21 -5 16 -9
-5 -10 -1 -6 16 7 24 7 24 -10 4 -16 -20 -16 -20 -9 4 5 17 4 21 -5 16 -9 -5
-10 -2 -5 14 10 31 -11 26 -24 -6 -10 -25 -10 -24 -5 12 6 41 -8 41 -20 0 -3
-11 -3 -2 -1 19 4 39 -8 40 -19 1 -3 -11 -3 -2 -1 20 l4 40 -15 -30 -15 -30 6
38 c4 26 3 37 -4 32 -6 -3 -11 -17 -11 -31 0 -14 -4 -23 -10 -19 -5 3 -7 11
-5 18 2 7 6 26 9 42 6 29 6 29 -10 10 -15 -19 -16 -19 -9 13 6 28 4 32 -14 32
-26 0 -26 6 0 50 27 43 41 90 28 90 -5 0 -12 -8 -16 -17 -4 -10 -19 -33 -35
-51 -18 -21 -28 -45 -29 -67 -1 -19 -2 -40 -3 -47 -2 -19 -57 -29 -143 -24
-64 3 -83 1 -83 -9 0 -17 28 -27 46 -17 7 4 49 3 93 -2 80 -9 80 -10 77 -37
-2 -16 2 -31 8 -34 8 -3 7 -7 -2 -11 -10 -5 -9 -10 5 -21 10 -8 12 -12 6 -8
-17 8 -17 -27 -1 -43 7 -7 8 -12 4 -12 -5 0 -3 -7 4 -15 9 -11 9 -15 1 -15 -7
0 -9 -5 -5 -12 14 -23 13 -58 -2 -58 -8 0 -14 -9 -14 -20 0 -11 -4 -20 -9 -20
-5 0 -12 -11 -15 -25 -4 -16 -11 -22 -21 -19 -10 4 -15 0 -15 -11 0 -9 -4 -13
-10 -10 -5 3 -10 1 -10 -4 0 -6 -9 -11 -20 -11 -12 0 -20 -7 -21 -17 -1 -17
-2 -17 -6 0 -2 9 -11 17 -19 17 -16 0 -19 -16 -4 -25 6 -3 10 -11 10 -17 0 -6
-9 -3 -20 7 -18 17 -20 17 -20 1 0 -14 -2 -15 -14 -4 -8 7 -13 17 -13 22 1 5
-3 10 -9 13 -7 2 -10 -13 -8 -47 2 -40 -1 -50 -13 -50 -9 0 -22 -8 -29 -18
-11 -14 -14 -14 -14 -2 -1 10 -4 9 -11 -5 -7 -17 -8 -15 -6 10 2 27 -1 30 -26
29 -21 -1 -29 4 -33 23 -8 29 -26 25 -35 -8 -6 -22 -7 -21 -8 8 -1 26 -4 31
-18 26 -17 -6 -17 -5 0 14 9 11 17 24 17 29 0 5 -7 1 -14 -9 -13 -17 -46 -14
-46 5 0 5 -5 6 -10 3 -6 -4 -8 -11 -5 -16 11 -17 -6 -9 -33 16 -15 14 -21 25
-14 25 6 0 12 5 12 11 0 6 -8 8 -17 5 -21 -6 -85 45 -65 52 6 2 12 11 12 19 0
9 -6 13 -14 10 -10 -4 -15 4 -18 29 -2 19 0 34 7 34 6 0 6 3 -1 8 -6 4 -10 16
-8 27 2 11 4 34 6 50 2 39 23 82 46 93 9 5 57 10 106 10 49 1 91 4 94 7 11 11
-22 24 -45 18 -13 -3 -23 -1 -23 5 0 8 -9 8 -31 0 -36 -12 -142 -4 -147 12 -2
6 -10 17 -18 24 -8 8 -11 22 -8 30 3 9 1 16 -5 16 -8 0 -9 5 -1 19 7 14 7 22
-1 27 -6 3 -9 17 -6 30 2 13 0 24 -6 24 -5 0 -4 7 3 15 7 8 9 15 5 15 -4 0 -2
7 5 15 12 15 5 55 -11 55 -5 0 -9 -9 -9 -21 0 -12 -4 -18 -11 -13 -28 17 -37
-46 -15 -92 14 -28 22 -122 14 -154 -2 -8 -10 -26 -17 -39 -7 -13 -8 -21 -3
-17 6 3 14 1 18 -5 4 -8 3 -9 -4 -5 -8 5 -11 -1 -9 -16 1 -18 -2 -22 -17 -20
-17 3 -18 1 -7 -12 10 -11 10 -19 1 -33 -10 -16 -11 -16 -6 -1 3 10 2 20 -3
22 -4 3 -8 0 -8 -7 0 -7 -4 -21 -9 -31 -6 -16 -4 -18 9 -13 10 4 16 2 14 -5
-4 -22 -22 -36 -37 -30 -8 3 -12 2 -8 -3 4 -4 3 -14 -4 -22 -9 -11 -7 -12 8
-7 17 5 17 5 2 -6 -10 -6 -56 -12 -102 -14 -46 -2 -90 -7 -96 -11 -9 -5 -10
-1 -5 14 4 12 2 21 -4 21 -6 0 -11 -4 -11 -10 0 -5 -5 -10 -11 -10 -6 0 -9 7
-6 15 4 8 2 17 -3 20 -13 8 -13 25 1 25 5 0 8 -4 4 -9 -3 -5 -1 -12 5 -16 16
-10 12 18 -8 46 -10 15 -23 24 -32 21 -12 -4 -13 -2 -2 9 17 18 15 32 -4 25
-8 -3 -13 -2 -11 2 3 4 1 16 -3 27 -4 13 -2 24 8 31 12 9 12 13 2 19 -9 5 -11
4 -6 -3 4 -7 2 -12 -3 -12 -16 0 -13 19 4 36 21 21 19 33 -7 43 -21 8 -22 10
-5 16 15 6 16 10 5 16 -10 7 -10 9 0 9 6 0 12 7 12 16 0 11 -6 14 -17 10 -15
-5 -15 -4 1 9 20 15 20 15 0 16 -10 0 -13 3 -6 6 15 6 16 47 2 74 -8 14 -7 19
2 20 7 0 4 4 -7 9 -17 7 -17 9 -2 9 19 1 21 18 8 71 -4 20 -4 46 0 57 6 17 4
23 -12 28 -10 4 -17 10 -14 15 3 5 12 7 20 3 9 -3 15 1 15 11 0 21 -24 20 -46
-1 -17 -17 -18 -17 -11 1 6 16 3 17 -20 13 -16 -4 -22 -4 -15 -1 10 5 10 10
-4 25 -9 10 -21 16 -27 12 -6 -4 -7 -1 -2 6 4 8 -3 23 -17 39 -29 32 -82 122
-75 128 3 3 19 -18 36 -47 43 -69 50 -56 10 20 -18 34 -29 64 -26 67 3 4 18
-19 34 -50 15 -31 32 -56 39 -56 17 0 47 37 34 42 -11 3 -50 100 -50 123 1 14
40 -37 40 -53 0 -24 38 -78 47 -68 2 2 -1 15 -7 30 -5 15 -12 38 -14 51 -3 14
-7 35 -11 48 -5 21 -5 21 12 -2 10 -14 26 -45 35 -70z m294 -280 l32 -12 -34
-51 c-19 -27 -34 -60 -34 -73 0 -28 -27 -95 -39 -95 -10 0 -23 29 -67 143 -39
101 -41 125 -16 178 l17 38 55 -58 c30 -32 69 -63 86 -70z m1040 -708 c30 -34
68 -103 60 -110 -3 -3 -10 6 -15 21 -6 14 -13 26 -17 26 -3 0 -4 -6 -1 -13 3
-8 1 -20 -4 -28 -6 -10 -9 -4 -9 19 0 22 -5 32 -16 32 -12 0 -14 -7 -10 -27 6
-30 -23 -73 -57 -86 -12 -4 -17 -18 -17 -42 0 -19 -2 -35 -4 -35 -2 0 -12 -3
-20 -6 -12 -5 -15 -2 -10 10 5 12 2 15 -10 10 -15 -6 -20 -17 -17 -36 2 -13
-17 -9 -21 4 -3 9 -12 8 -32 -6 -15 -9 -31 -14 -34 -10 -4 4 -1 9 6 11 18 7
15 21 -8 28 -11 3 -20 10 -20 15 0 5 7 7 16 3 14 -5 15 -1 9 28 -4 19 -4 31 0
27 4 -4 10 -22 14 -40 8 -39 39 -51 48 -19 3 12 9 21 14 21 5 0 9 12 9 28 0
21 -2 24 -10 12 -8 -12 -10 -11 -10 6 0 11 3 24 8 28 7 8 9 14 11 47 1 13 12
24 31 30 17 6 30 17 30 25 0 18 -30 2 -78 -41 -26 -24 -32 -26 -26 -10 7 20 7
20 -15 0 -14 -12 -21 -27 -18 -41 2 -12 -2 -21 -10 -21 -7 0 -13 9 -13 19 0
25 28 78 40 78 6 0 10 7 10 15 0 14 12 19 33 16 4 0 7 4 7 10 0 8 6 7 17 -2
15 -12 16 -12 10 4 -3 9 -2 17 3 17 6 0 10 -4 10 -10 0 -15 27 -12 42 5 20 22
46 18 74 -12z m-198 -310 c-7 -16 -21 -36 -32 -46 l-21 -18 25 3 c20 3 26 -3
35 -32 5 -19 15 -44 22 -56 7 -13 8 -25 2 -35 -7 -11 -9 -8 -9 11 l-1 25 -19
-24 c-11 -13 -20 -29 -20 -36 0 -7 -5 -15 -11 -17 -7 -2 -4 -10 7 -18 16 -14
17 -13 11 4 -6 16 -5 17 8 6 18 -15 20 0 3 20 -7 8 -3 6 9 -4 17 -14 19 -21
10 -31 -7 -7 -15 -11 -19 -8 -5 2 -8 -1 -8 -8 0 -7 -9 -5 -22 7 -13 10 -20 15
-16 10 4 -5 3 -15 -2 -21 -7 -9 -6 -16 4 -24 12 -10 12 -18 4 -36 -12 -26 -41
-44 -31 -19 3 7 0 14 -6 14 -16 0 -14 -22 4 -48 14 -20 14 -21 0 -16 -8 3 -15
1 -15 -5 0 -6 -7 -8 -17 -4 -10 4 -14 2 -9 -5 3 -6 2 -13 -3 -16 -5 -4 -12 -2
-16 4 -3 5 -11 10 -16 10 -6 0 -7 -4 -4 -10 3 -5 -1 -20 -9 -32 -18 -25 -21
-58 -6 -58 21 0 9 -20 -15 -26 -14 -3 -26 -11 -27 -18 -4 -34 -3 -42 5 -53 13
-18 -7 -17 -22 1 -9 11 -9 15 1 19 9 4 9 6 1 6 -21 2 -23 -16 -3 -34 19 -17
19 -17 0 -38 -17 -17 -22 -18 -37 -6 -16 13 -17 12 -5 -3 9 -11 11 -22 4 -34
-6 -11 -11 -13 -16 -5 -4 6 -2 11 4 11 6 0 8 5 5 10 -3 6 -11 10 -16 10 -6 0
-7 -4 -4 -10 3 -5 1 -10 -6 -10 -7 0 -5 -8 6 -20 21 -24 11 -27 -12 -4 -15 15
-18 14 -34 -8 -10 -12 -19 -19 -19 -15 0 18 29 74 49 91 11 11 21 23 21 28 0
6 9 21 20 35 11 15 32 63 45 108 20 64 30 84 47 88 18 5 20 11 15 43 -3 20 -1
46 4 57 8 14 8 26 -2 43 -10 20 -10 29 4 57 l18 32 -6 -29 c-6 -26 -5 -28 10
-16 10 8 14 22 11 33 -3 13 4 31 20 49 13 16 24 40 24 53 0 12 7 25 15 29 8 3
15 12 15 19 0 14 36 45 52 46 4 1 2 -11 -4 -26z m-778 -52 c0 -5 -3 -11 -7
-14 -5 -2 -3 -3 3 -1 6 1 16 -2 22 -8 7 -7 12 -3 17 11 9 30 20 27 66 -21 55
-57 109 -181 109 -252 0 -19 7 -51 16 -72 9 -21 18 -51 20 -67 2 -17 11 -38
20 -48 10 -11 13 -25 9 -40 -7 -20 -8 -20 -17 -5 -5 9 -14 13 -20 10 -8 -5 -9
-1 -5 10 6 14 3 16 -16 11 -19 -5 -20 -4 -4 5 9 6 17 18 17 26 0 12 -4 12 -20
4 -12 -6 -20 -7 -20 -1 0 5 6 12 13 14 7 3 4 6 -6 6 -11 1 -15 6 -11 12 4 8
-1 9 -17 5 -20 -6 -21 -5 -6 4 21 13 23 32 2 24 -11 -5 -13 -2 -9 10 5 12 0
19 -13 22 -11 3 -30 19 -42 35 -12 16 -27 26 -35 23 -10 -4 -12 2 -9 19 6 30
-12 43 -35 25 -15 -12 -16 -11 -3 5 16 20 8 35 -12 19 -7 -6 -18 -7 -25 -3
-10 6 -9 11 3 21 13 11 14 10 9 -6 -7 -19 -7 -19 14 0 24 21 19 40 -9 33 -12
-3 -17 -1 -12 6 4 6 0 8 -10 4 -22 -8 -22 1 1 26 16 20 16 20 -2 14 -13 -5
-17 -3 -13 8 4 8 -1 21 -9 30 -8 8 -12 19 -9 25 11 18 -11 11 -30 -10 -10 -11
-23 -20 -28 -20 -6 0 -1 9 11 20 29 28 28 34 -3 14 -21 -14 -24 -14 -20 -2 4
9 17 20 31 27 31 14 37 14 29 1 -10 -16 11 -12 25 5 7 8 9 15 5 15 -4 0 -2 7
5 15 14 17 30 20 30 6z m910 -41 c0 -5 -6 -10 -12 -13 -10 -3 -10 -7 -1 -17
16 -17 35 -3 28 21 -4 13 -2 19 9 19 8 0 17 -13 21 -30 6 -26 24 -43 25 -22 0
4 12 15 26 26 26 18 26 18 15 -2 -6 -12 -16 -24 -21 -27 -16 -10 -12 -25 5
-19 9 4 21 17 28 31 12 23 13 22 13 -19 1 -24 -1 -35 -3 -25 -3 9 -8 15 -13
12 -5 -3 -6 -13 -3 -23 6 -15 5 -16 -12 -2 -17 14 -18 11 -13 -68 4 -63 2 -82
-7 -78 -7 2 -28 -11 -46 -30 -48 -49 -47 -50 -52 43 -3 53 -3 53 14 27 9 -14
19 -22 22 -17 3 5 2 15 -4 23 -12 21 -12 23 13 50 20 22 21 23 3 16 -41 -17
-52 -17 -59 -1 -4 13 -2 15 13 10 11 -3 21 0 24 9 4 9 -3 16 -18 20 -17 4 -25
14 -27 34 -2 19 -8 27 -20 26 -25 -2 -22 11 5 29 22 14 47 13 47 -3z m-1117
-27 c-7 -2 -13 -19 -13 -35 0 -17 -3 -28 -7 -25 -3 4 -12 -1 -18 -10 -10 -14
-10 -20 2 -31 17 -17 22 -13 29 24 7 39 20 50 39 34 18 -15 20 -31 3 -25 -7 3
-21 -9 -31 -26 -15 -26 -21 -30 -45 -25 -26 6 -26 6 -8 -9 11 -8 23 -15 28
-15 4 0 8 -5 8 -10 0 -19 37 -52 44 -41 9 14 64 -26 72 -52 3 -11 1 -23 -5
-27 -9 -5 -9 -13 0 -33 10 -23 9 -30 -6 -47 -25 -27 -50 -25 -74 7 -12 14 -24
24 -27 20 -11 -10 16 -47 46 -62 28 -14 30 -20 30 -69 0 -29 8 -71 17 -92 23
-53 23 -254 0 -389 -22 -130 -45 -256 -67 -380 l-18 -100 31 -27 c17 -16 42
-28 54 -28 13 0 23 -4 23 -9 0 -14 -37 -23 -63 -15 -12 4 -38 6 -57 6 -19 -1
-37 3 -41 9 -3 6 -19 -10 -35 -35 -29 -46 -52 -56 -45 -20 3 19 3 19 -18 0
-21 -19 -21 -19 -21 7 0 16 12 37 32 56 l33 31 -3 116 c-2 86 2 129 14 168 13
42 14 61 6 92 l-10 39 -1 -44 c-1 -62 -40 -200 -63 -223 -29 -29 -65 -23 -88
15 -11 17 -20 40 -20 50 0 11 -8 17 -21 17 -18 0 -19 2 -9 15 7 8 10 16 6 16
-3 1 -10 2 -16 3 -15 2 -39 39 -40 61 0 17 2 17 10 5 8 -13 11 -11 16 7 7 27
24 21 24 -8 0 -11 5 -17 10 -14 5 3 10 1 10 -5 0 -6 4 -8 10 -5 6 3 10 15 10
27 0 16 3 18 13 9 10 -8 19 -7 33 4 26 20 34 19 34 -4 0 -11 5 -21 11 -23 6
-2 -7 -23 -30 -46 -46 -46 -50 -63 -21 -92 28 -28 34 -26 58 24 29 58 44 140
36 200 -4 30 -2 51 4 55 8 4 1 37 -20 96 -41 117 -45 230 -11 287 19 32 21 44
13 95 -4 32 -15 74 -24 93 l-16 35 7 -35 c12 -62 8 -132 -16 -265 -24 -137
-42 -185 -67 -185 -21 0 -41 -22 -47 -51 -4 -21 -4 -21 -6 5 0 18 10 46 27 70
23 33 27 48 25 95 -2 31 2 147 7 259 8 180 11 207 30 238 12 19 33 37 46 40
17 4 24 13 24 29 0 26 15 41 25 25 3 -5 1 -10 -4 -10 -19 0 -12 -26 14 -50 14
-13 25 -20 25 -16 0 4 11 -5 23 -20 20 -23 33 -28 82 -30 46 -2 61 1 71 14 14
19 2 42 -21 42 -8 0 -16 6 -19 13 -3 6 -3 2 0 -10 4 -17 1 -23 -10 -23 -9 0
-16 -5 -16 -11 0 -6 -7 -3 -16 6 -9 8 -30 21 -47 29 -40 16 -56 36 -59 69 -1
14 -6 24 -10 21 -4 -2 -6 4 -5 15 0 10 7 17 13 14 8 -3 11 2 8 14 -7 27 18 68
41 68 11 0 19 5 18 10 -1 6 10 11 25 12 15 1 21 -1 15 -4z m1567 -180 c0 -12
5 -25 11 -29 8 -5 8 -9 -1 -14 -15 -9 -4 -30 13 -26 7 1 9 1 5 -1 -13 -8 -9
-35 5 -30 13 4 36 -21 37 -41 0 -7 -10 -26 -22 -42 -17 -23 -19 -33 -10 -42 7
-7 12 -19 12 -27 0 -31 -24 8 -26 44 -2 26 1 35 13 35 12 0 13 3 4 14 -10 11
-9 15 3 18 11 2 13 7 6 18 -9 13 -11 13 -20 0 -8 -13 -10 -12 -10 3 0 25 -19
21 -31 -7 -8 -16 -17 -23 -28 -19 -12 4 -13 3 -2 -5 15 -11 -2 -27 -19 -17
-14 9 -12 99 2 113 9 9 8 12 -5 12 -26 0 -20 25 9 38 14 7 22 17 19 22 -4 6
-12 4 -22 -5 -8 -9 -18 -13 -22 -10 -3 4 2 11 12 16 18 10 23 38 9 55 -4 5 7
-4 25 -21 18 -16 33 -40 33 -52z m-290 47 c0 -5 11 -10 25 -10 28 0 97 -64
122 -115 9 -16 31 -51 49 -77 54 -76 53 -88 -3 -138 -26 -23 -43 -39 -36 -36
7 4 21 1 32 -6 26 -16 63 1 68 33 3 13 5 47 6 76 1 28 5 55 10 59 7 7 11 -16
8 -48 -1 -10 3 -27 9 -39 9 -15 9 -24 1 -32 -7 -7 -7 -14 0 -23 27 -33 69 28
61 90 -2 22 -1 36 5 33 5 -3 10 -25 12 -49 1 -24 6 -44 12 -46 5 -2 9 -18 9
-36 0 -18 4 -36 9 -41 5 -6 11 -29 15 -52 5 -35 2 -46 -16 -67 -13 -14 -35
-40 -51 -58 -25 -30 -32 -33 -75 -31 -26 2 -60 6 -77 9 -35 8 -80 48 -70 64 4
6 3 19 -1 28 -14 31 -11 96 6 109 8 7 10 13 4 13 -7 0 -22 -8 -34 -18 -19 -15
-21 -22 -11 -39 6 -12 8 -28 5 -36 -3 -9 0 -25 6 -37 13 -25 10 -32 -9 -21 -7
5 -18 32 -26 62 -11 45 -13 49 -14 22 -1 -18 6 -58 14 -90 20 -78 19 -160 -6
-268 -11 -49 -22 -111 -26 -137 -4 -31 -9 -45 -18 -42 -7 3 -15 -4 -18 -15 -6
-23 8 -29 17 -8 14 30 -5 -115 -23 -178 -30 -106 -28 -126 19 -169 46 -41 48
-47 19 -64 -17 -11 -24 -10 -50 13 -17 14 -37 25 -44 25 -19 0 -22 17 -13 75
13 81 20 505 8 505 -9 0 -14 -56 -12 -147 4 -152 -1 -319 -9 -339 -5 -14 -9
-35 -9 -46 0 -12 -16 -36 -36 -54 l-35 -33 6 32 c5 29 4 30 -8 15 -18 -23 -27
-23 -27 2 0 10 18 33 40 51 43 35 51 69 29 126 -21 54 -40 148 -38 193 1 25
-1 52 -4 60 -21 54 -54 269 -50 324 7 92 7 95 5 174 -2 55 -6 74 -18 79 -9 3
-21 -3 -30 -16 -17 -24 -104 -71 -132 -71 -10 0 -22 -3 -26 -7 -4 -5 -13 -8
-19 -8 -6 0 -14 -13 -19 -30 -12 -45 -34 -57 -74 -40 -20 8 -34 10 -34 4 0 -6
-4 -7 -10 -4 -5 3 -10 11 -10 16 0 6 5 7 10 4 6 -3 10 -1 10 6 0 8 4 8 15 -1
8 -7 15 -9 15 -4 0 5 5 2 10 -6 6 -9 10 -10 10 -3 0 7 -7 16 -16 21 -12 7 -13
10 -2 19 7 6 22 13 33 16 11 2 3 3 -18 2 -37 -3 -38 -3 -21 16 9 10 28 19 41
19 12 0 40 15 60 34 21 18 54 42 73 53 l35 20 10 126 c11 145 22 167 80 167
20 0 34 -4 30 -9 -3 -5 -1 -12 3 -15 5 -3 9 -30 9 -61 0 -44 -3 -55 -16 -55
-11 0 -12 -3 -4 -8 8 -5 9 -12 2 -22 -8 -13 -10 -13 -19 0 -8 12 -10 9 -10
-12 0 -30 20 -50 21 -21 0 16 1 16 8 -2 9 -21 4 -38 -8 -31 -7 5 -36 -63 -29
-69 1 -1 12 -5 24 -9 16 -5 23 0 31 17 6 13 7 30 3 37 -5 9 -1 23 11 38 10 14
19 28 19 33 0 4 5 20 12 36 6 15 11 31 10 36 -3 10 6 9 29 -3 14 -8 19 -7 19
3 0 8 11 19 25 25 14 6 25 20 25 30 0 11 11 31 25 46 28 31 30 37 13 54 -9 9
-9 12 0 12 7 0 12 -4 12 -10z m-1140 -194 c0 -5 6 -17 14 -25 8 -9 17 -31 21
-49 6 -28 4 -33 -11 -30 -9 2 -19 -3 -22 -11 -3 -9 1 -11 17 -6 12 3 21 2 21
-4 0 -5 -9 -13 -20 -16 -16 -5 -19 -13 -16 -33 2 -15 5 -37 5 -49 1 -13 6 -23
11 -23 13 0 13 37 0 45 -6 4 -5 12 4 21 21 21 27 17 20 -11 -3 -14 -2 -31 4
-38 5 -6 13 -23 16 -37 l7 -25 -14 23 c-12 21 -15 22 -27 8 -9 -12 -11 -38 -8
-91 5 -74 9 -83 65 -155 l28 -35 -38 29 c-39 28 -60 29 -37 1 15 -19 6 -32
-12 -17 -20 16 -36 87 -44 187 -3 50 -11 98 -16 108 -14 27 -18 157 -5 183 5
13 16 24 23 26 12 2 11 8 -1 32 -8 15 -15 31 -15 35 1 10 30 -32 30 -43z m440
-231 c0 -3 -7 -5 -15 -5 -13 0 -14 -4 -5 -20 8 -15 8 -18 -3 -14 -15 5 -32
-22 -19 -30 13 -8 8 -119 -6 -123 -7 -3 -10 1 -6 10 7 20 -23 77 -40 77 -8 0
-16 -9 -19 -20 -3 -11 -12 -20 -21 -20 -19 0 -21 11 -5 27 9 9 -3 11 -44 10
-31 0 -53 -5 -51 -9 3 -4 -2 -8 -11 -8 -12 0 -15 -6 -10 -20 4 -11 8 -35 10
-53 3 -26 2 -28 -6 -14 -6 9 -14 15 -20 12 -5 -3 -6 1 -3 10 4 9 1 27 -7 41
-11 22 -10 27 8 46 14 13 35 21 61 22 22 0 38 4 36 8 -8 12 21 9 33 -3 8 -8
16 -8 30 1 15 9 15 11 1 6 -12 -3 -15 -1 -12 9 4 10 12 11 30 5 13 -5 24 -6
24 -1 0 5 -8 11 -18 13 -10 3 -19 13 -19 22 0 9 8 16 19 16 24 0 19 23 -7 32
-17 5 -16 6 7 7 15 1 29 5 33 10 5 8 55 -32 55 -44z m-154 -163 c1 -7 2 -15 4
-19 1 -5 1 -63 0 -130 -1 -87 3 -123 11 -129 7 -4 15 -2 17 5 3 9 8 9 21 -2 9
-8 25 -17 35 -18 12 -3 23 -16 28 -35 12 -46 73 -68 120 -43 11 6 33 25 49 42
22 25 28 28 29 14 1 -52 -59 -107 -115 -107 -51 0 -115 49 -115 88 0 20 -2 22
-15 12 -11 -9 -20 -8 -42 8 -15 11 -38 22 -50 26 -12 4 -26 20 -32 36 -5 17
-14 30 -18 31 -49 4 -64 17 -69 55 -1 15 -14 37 -27 48 -14 12 -27 36 -30 56
-3 19 -3 29 0 23 2 -7 11 -13 18 -13 15 0 48 -47 41 -59 -3 -4 15 -29 39 -56
25 -27 45 -53 45 -58 0 -5 8 -6 17 -3 9 4 20 1 25 -6 5 -8 7 23 4 72 -5 100
-10 138 -19 146 -3 3 -3 12 0 20 6 17 27 13 29 -4z m1050 -137 c-8 -33 1 -50
19 -35 15 12 19 7 29 -32 5 -21 2 -30 -13 -37 -14 -8 -20 -7 -25 4 -3 8 -10
15 -16 15 -6 0 -4 -7 4 -16 9 -8 16 -30 16 -47 1 -30 1 -31 15 -13 8 11 24 20
34 21 16 1 19 -4 16 -26 -2 -15 -13 -37 -24 -48 -13 -13 -21 -34 -21 -54 0
-74 -64 -136 -123 -122 -32 8 -59 57 -64 116 -6 68 13 63 21 -5 8 -61 19 -74
65 -80 41 -4 61 23 61 81 0 35 -5 46 -29 64 -32 24 -48 78 -32 107 6 9 11 14
12 10 1 -5 3 -12 4 -18 1 -5 3 -13 4 -16 0 -4 8 -1 16 6 14 12 14 15 -1 31
-18 20 -13 57 12 97 19 29 28 28 20 -3z m234 -878 l0 -135 -407 1 c-225 1
-698 1 -1053 -1 -355 -1 -651 -2 -657 -2 -10 0 -13 33 -13 129 l0 130 43 3
c23 2 502 5 1065 6 l1022 4 0 -135z"/>
<path d="M1100 268 c0 -4 4 -10 10 -13 11 -7 10 -93 -2 -117 -7 -15 -4 -18 24
-18 117 1 179 59 129 121 -16 20 -31 25 -90 29 -39 3 -71 2 -71 -2z"/>
</g>
</svg>
