<?xml version="1.0" standalone="no"?>
<!DOCTYPE svg PUBLIC "-//W3C//DTD SVG 20010904//EN"
 "http://www.w3.org/TR/2001/REC-SVG-20010904/DTD/svg10.dtd">
<svg version="1.0" xmlns="http://www.w3.org/2000/svg"
 width="233.000000pt" height="400.000000pt" viewBox="0 0 233.000000 400.000000"
 preserveAspectRatio="xMidYMid meet">
<metadata>
Created by potrace 1.15, written by Peter Selinger 2001-2017
</metadata>
<g transform="translate(0.000000,400.000000) scale(0.100000,-0.100000)"
fill="#000000" stroke="none">
<path d="M63 3937 c-4 -7 -7 -793 -6 -1747 2 -954 3 -1823 3 -1931 0 -174 2
-198 17 -203 18 -7 968 -7 1698 -1 l470 5 0 827 c0 923 -15 3044 -22 3055 -2
4 -487 7 -1078 7 -829 0 -1076 -3 -1082 -12z m2134 -15 c9 -6 12 -169 12 -687
1 -775 -3 -875 -30 -848 -13 13 9 195 24 205 8 5 6 12 -5 25 -10 12 -15 31
-13 56 2 26 -1 40 -11 44 -8 3 -14 9 -14 15 0 5 5 6 10 3 6 -3 10 3 10 14 0
14 -5 19 -15 15 -11 -4 -15 0 -15 16 0 18 3 20 13 11 21 -16 26 -4 16 37 -12
51 -11 55 6 49 11 -5 12 -1 5 19 -6 14 -6 33 -2 42 11 21 1 64 -16 70 -7 2
-12 -5 -12 -17 0 -18 -17 -38 -24 -30 -2 2 -6 21 -9 42 -4 28 -2 37 9 37 19 0
18 10 -3 26 -17 13 -17 13 0 14 19 0 24 20 5 20 -9 0 -8 3 2 10 12 8 12 11 -1
27 -19 22 -14 53 9 53 10 0 13 3 7 8 -6 4 -11 31 -11 61 -1 38 -7 57 -18 63
-9 5 -18 29 -22 59 -4 30 -11 48 -18 46 -6 -3 -9 -11 -7 -18 8 -26 0 -114 -12
-128 -10 -12 -9 -14 6 -8 9 3 17 2 17 -3 0 -6 -4 -10 -8 -10 -4 0 -13 -13 -19
-30 -9 -25 -9 -30 4 -30 9 0 13 -6 9 -15 -3 -8 -1 -15 5 -15 5 0 12 7 15 15 4
8 10 15 15 15 14 0 -11 -54 -34 -73 l-22 -18 23 6 c13 4 22 2 22 -4 0 -12 -48
-27 -56 -18 -3 3 -1 21 4 40 12 43 5 53 -21 30 -20 -18 -20 -17 -14 36 4 34 2
60 -4 68 -9 9 -8 17 1 28 9 10 9 15 1 15 -18 0 -13 28 8 39 10 6 21 18 25 26
4 12 0 15 -17 13 -19 -3 -22 1 -21 30 0 17 -1 32 -2 32 -15 0 -34 -15 -34 -27
0 -8 -4 -11 -10 -8 -17 11 -11 24 19 40 21 10 31 11 33 3 2 -6 10 -9 17 -7 9
3 7 11 -7 29 -10 14 -17 30 -15 36 2 6 -10 11 -28 11 -29 0 -30 -2 -14 -14 10
-7 16 -16 12 -19 -4 -4 -13 -2 -20 5 -22 18 -45 -14 -29 -40 15 -23 6 -43 -14
-35 -22 8 -27 -14 -9 -34 10 -11 15 -26 12 -34 -4 -9 -2 -18 3 -21 6 -4 10
-14 10 -23 0 -13 -2 -13 -14 4 -20 27 -43 6 -27 -25 12 -22 2 -28 -16 -10 -18
18 -33 0 -30 -37 2 -33 17 -49 17 -18 0 11 8 15 28 12 17 -2 26 2 24 10 -1 6
2 12 7 12 12 0 11 -52 -1 -67 -5 -7 -7 -22 -3 -34 6 -18 4 -20 -16 -14 -18 6
-21 4 -16 -9 4 -9 2 -16 -3 -16 -5 0 -10 8 -13 18 -3 14 -6 13 -15 -8 -6 -14
-12 -22 -13 -17 -4 19 -7 27 -8 32 0 3 -11 1 -22 -6 -16 -8 -18 -13 -9 -19 11
-7 10 -12 -3 -25 -9 -9 -23 -13 -29 -10 -7 4 2 -6 20 -22 33 -29 40 -43 22
-43 -6 0 -20 -8 -31 -19 -12 -11 -29 -17 -40 -14 -22 6 -26 23 -4 23 8 0 15 7
15 15 0 12 7 14 28 9 26 -6 26 -6 7 9 -10 8 -24 13 -31 10 -6 -2 -14 7 -18 21
-4 18 -11 24 -23 19 -12 -5 -15 -2 -10 10 3 9 2 19 -3 22 -6 4 -10 16 -10 28
0 17 -6 23 -25 25 -18 1 -25 -3 -25 -16 0 -10 -6 -26 -13 -36 -11 -15 -17 -16
-35 -7 -13 7 -19 17 -16 26 7 17 -11 21 -21 4 -4 -5 1 -19 11 -30 9 -10 14
-22 10 -27 -4 -4 -13 1 -20 11 -19 26 -27 21 -15 -10 7 -19 7 -29 0 -31 -6 -2
-11 -10 -11 -18 0 -9 -4 -12 -10 -9 -5 3 -10 -1 -10 -9 0 -10 -6 -13 -15 -10
-18 7 -20 -7 -3 -24 8 -8 5 -14 -15 -21 -36 -14 -34 -25 3 -17 17 3 30 1 30
-4 0 -6 -4 -10 -10 -10 -5 0 -10 -4 -10 -10 0 -5 7 -10 16 -10 8 0 12 -4 9
-10 -3 -5 -15 -10 -26 -10 -10 0 -19 5 -19 10 0 18 -17 10 -28 -14 -10 -23
-10 -23 34 -18 34 4 45 1 50 -12 3 -9 1 -23 -6 -31 -7 -8 -9 -15 -5 -15 4 0 2
-7 -5 -15 -18 -22 -29 -19 -36 10 -9 36 -34 32 -34 -6 0 -28 -2 -30 -16 -18
-15 12 -16 11 -10 -7 5 -16 2 -23 -12 -26 -15 -4 -23 3 -36 31 -9 20 -25 47
-36 61 -16 20 -20 22 -20 8 0 -11 -5 -15 -15 -12 -22 9 -19 -42 4 -65 10 -10
22 -28 25 -39 4 -11 13 -26 22 -33 13 -10 13 -8 4 16 -6 15 -9 30 -6 32 6 6
46 -63 46 -80 0 -9 14 -30 30 -47 17 -17 30 -37 30 -44 0 -15 61 -109 67 -102
2 2 -7 22 -20 43 -30 47 -87 159 -87 170 1 13 40 -41 40 -54 0 -7 5 -13 10
-13 6 0 10 -7 10 -15 0 -9 11 -33 25 -55 14 -22 25 -44 25 -50 0 -6 14 -19 32
-30 18 -11 39 -34 48 -52 10 -23 25 -36 48 -43 21 -6 31 -14 27 -23 -3 -8 1
-26 9 -40 8 -15 17 -34 19 -43 3 -9 19 -18 35 -21 l30 -4 -3 98 c-2 79 1 98
12 98 8 0 12 4 8 9 -3 5 10 9 30 8 l36 -2 -26 -21 c-25 -20 -26 -23 -21 -120
5 -116 4 -113 15 -96 6 10 11 6 19 -16 9 -27 8 -30 -6 -25 -9 4 -23 15 -30 25
-7 10 -18 15 -24 12 -6 -4 -13 -2 -17 4 -4 6 -22 7 -49 2 -44 -8 -59 3 -58 40
1 18 21 21 21 3 0 -7 6 -18 14 -25 12 -11 13 -10 7 5 -3 10 -6 23 -6 27 0 16
-58 70 -75 70 -8 0 -15 3 -16 8 0 4 -2 17 -3 29 -3 28 -16 42 -17 20 -2 -30
-4 -35 -11 -43 -5 -4 -8 0 -8 9 0 10 -2 17 -4 17 -2 0 -11 3 -20 6 -22 8 -20
-15 2 -33 9 -8 -2 -5 -25 7 -34 16 -48 32 -68 73 -14 28 -20 44 -13 34 27 -39
46 -58 52 -49 9 14 -57 83 -72 74 -7 -5 -10 -16 -6 -25 3 -9 2 -17 -4 -17 -5
0 -12 9 -15 21 -4 15 0 23 14 26 15 4 17 8 8 19 -6 8 -8 25 -5 39 7 28 -25
115 -43 115 -5 0 -24 23 -42 50 -18 28 -34 50 -36 50 -8 0 9 -45 23 -61 12
-13 9 -17 -21 -32 -19 -9 -35 -24 -35 -33 0 -13 -3 -14 -15 -4 -12 10 -15 9
-15 -7 0 -19 17 -43 32 -43 4 0 5 7 2 15 -4 8 -1 15 5 15 10 0 16 -35 12 -67
-1 -7 6 -38 16 -70 9 -32 16 -64 15 -70 -4 -20 12 -15 26 8 7 12 16 18 19 15
3 -3 0 -12 -7 -21 -8 -10 -9 -15 -1 -15 6 0 11 -9 11 -20 0 -21 20 -29 20 -7
1 6 7 -1 15 -18 19 -40 43 -70 51 -62 3 3 -3 18 -15 33 -26 34 -27 53 -1 29
14 -12 27 -15 47 -10 23 5 26 4 16 -6 -7 -7 -13 -20 -13 -28 0 -10 7 -8 25 9
14 13 25 18 25 12 0 -6 -22 -26 -50 -44 -52 -34 -58 -46 -38 -66 17 -17 33
-15 18 3 -11 13 -10 14 4 9 9 -3 16 -12 16 -20 0 -21 18 -17 25 5 10 32 39 34
86 6 24 -13 54 -25 67 -25 13 0 22 -6 22 -15 0 -8 -7 -15 -15 -15 -8 0 -15 -5
-15 -11 0 -5 -4 -8 -9 -5 -5 3 -15 -2 -22 -11 -12 -14 -11 -15 9 -9 16 6 22 3
22 -8 0 -9 5 -16 11 -16 6 0 8 8 4 19 -4 12 0 21 11 25 24 9 25 4 12 -32 -13
-33 -22 -39 -33 -22 -3 6 -19 10 -34 10 -16 0 -43 10 -62 23 -19 12 -48 28
-64 35 -37 15 -95 68 -95 87 0 7 6 15 12 17 10 4 8 14 -7 41 -22 42 -45 48
-46 15 -1 -18 -4 -15 -16 15 -9 20 -20 37 -24 37 -5 0 -2 -17 6 -37 8 -21 16
-54 18 -73 4 -39 46 -126 47 -97 0 10 -4 26 -9 35 -15 30 -24 78 -12 67 6 -6
19 -43 29 -83 21 -82 37 -107 29 -45 -5 39 -4 41 14 30 13 -8 17 -18 12 -35
-3 -15 -1 -27 8 -33 12 -8 12 -11 -1 -19 -8 -5 -22 -7 -30 -4 -30 11 -35 8
-38 -23 -3 -25 1 -33 13 -33 12 0 15 6 10 20 -9 27 4 25 37 -7 31 -29 51 -24
24 6 -17 19 -16 20 24 46 30 19 45 24 53 16 7 -7 6 -12 -4 -15 -8 -2 -23 -8
-34 -12 -19 -7 -19 -8 3 -11 16 -3 22 -11 22 -29 0 -13 5 -24 10 -24 6 0 10
-6 10 -14 0 -7 9 -16 20 -19 23 -6 36 -5 33 4 -1 3 25 21 59 41 l60 35 22 -21
c12 -11 20 -26 18 -33 -2 -7 4 -10 20 -6 21 5 21 3 -8 -23 -16 -16 -39 -44
-49 -62 -11 -18 -36 -44 -56 -58 l-37 -25 24 -62 c13 -33 24 -67 24 -74 0 -7
9 -33 21 -58 14 -30 19 -54 15 -71 -4 -14 -3 -31 3 -37 5 -7 18 -48 29 -92 11
-44 23 -89 27 -100 6 -19 6 -19 -8 -2 -8 10 -27 57 -42 105 -15 48 -45 124
-66 168 -40 84 -46 104 -29 104 15 0 12 57 -5 90 -14 27 -14 30 15 57 17 15
32 26 33 23 8 -11 35 22 30 36 -3 8 -1 14 5 14 5 0 12 11 15 25 3 19 -1 29
-15 36 -22 12 -69 4 -80 -14 -10 -16 -10 -29 0 -23 4 2 14 1 22 -5 12 -7 10
-9 -8 -9 -12 0 -30 -8 -40 -18 -14 -14 -35 -17 -118 -17 -57 0 -112 -5 -125
-12 -13 -6 -39 -16 -57 -22 -30 -9 -33 -8 -28 7 4 11 -2 23 -14 32 -11 8 -20
18 -20 22 0 13 28 9 33 -4 3 -8 6 -5 6 5 1 10 5 15 11 12 5 -3 20 1 32 9 l22
16 -29 0 c-36 0 -140 -48 -173 -80 -25 -24 -22 -41 3 -20 9 7 18 10 22 6 4 -3
-2 -13 -13 -21 -19 -15 -19 -15 0 -30 11 -8 26 -15 33 -15 16 0 16 -2 -1 -34
-13 -25 -14 -25 -19 -6 -4 15 -13 20 -36 20 -17 0 -31 -4 -31 -10 0 -5 11 -10
24 -10 13 0 26 -7 30 -15 10 -26 33 -16 53 22 14 26 29 40 51 45 18 5 32 15
32 23 0 8 8 15 19 15 10 0 34 6 52 14 19 8 65 17 103 21 67 7 68 7 57 -13 -13
-25 0 -66 23 -75 9 -4 13 -13 10 -22 -5 -12 2 -15 30 -15 33 0 36 -2 36 -30 0
-16 -5 -30 -11 -30 -14 0 -5 -30 36 -115 18 -38 41 -97 51 -130 10 -33 40
-104 66 -158 27 -54 48 -102 48 -108 0 -5 9 -28 21 -50 22 -45 18 -66 -7 -31
-21 30 -38 28 -19 -2 9 -13 37 -34 63 -47 26 -13 55 -30 64 -38 21 -16 24 -41
6 -41 -7 0 -33 -14 -57 -30 -48 -33 -35 -41 14 -9 47 30 57 33 73 22 25 -15
29 -37 5 -25 -22 12 -95 -15 -109 -41 -5 -7 -22 -17 -39 -21 l-30 -8 22 20 22
19 -35 1 c-20 1 -32 -3 -29 -8 3 -6 -5 -10 -19 -10 -27 0 -44 -16 -24 -22 16
-6 0 -28 -20 -28 -15 0 -15 2 -2 10 13 8 12 10 -2 10 -10 0 -18 -4 -18 -10 0
-15 -20 -12 -20 3 -1 26 -47 104 -82 139 -25 26 -43 59 -62 115 -32 95 -35
134 -7 83 11 -19 27 -49 35 -66 30 -61 109 -155 147 -174 46 -24 81 -26 73 -6
-3 8 -11 13 -18 10 -36 -14 -139 88 -182 179 -10 20 -21 37 -25 37 -4 0 -13
16 -19 36 -8 22 -17 34 -25 30 -14 -5 -13 -11 -40 229 -9 77 -21 149 -27 159
-8 15 -6 21 6 28 9 5 14 13 11 18 -8 13 -35 1 -35 -15 0 -8 -5 -17 -11 -21
-12 -7 -4 93 12 150 5 19 5 34 -1 40 -7 7 -10 2 -10 -12 0 -15 -9 -26 -25 -32
-13 -5 -31 -22 -39 -38 -13 -26 -13 -31 0 -51 8 -11 21 -21 27 -21 9 0 12 -32
11 -113 -1 -125 -8 -151 -31 -118 -8 12 -21 21 -29 21 -9 0 -3 -10 15 -27 23
-22 28 -32 21 -48 -7 -17 -9 -17 -9 -2 -1 9 -5 17 -11 17 -6 0 -9 -29 -9 -67
2 -90 0 -108 -8 -99 -5 4 -8 35 -8 69 0 47 -4 62 -15 65 -18 3 -26 -43 -10
-53 6 -4 8 -11 4 -16 -3 -5 -1 -16 6 -24 9 -11 7 -16 -8 -24 -18 -10 -20 -6
-27 35 -4 28 -2 50 5 59 6 8 7 14 1 17 -10 3 -19 197 -10 213 4 6 12 27 18 48
7 20 17 37 22 37 6 0 8 8 5 18 -4 11 3 33 16 53 49 73 58 89 51 89 -17 0 -76
-105 -105 -183 -18 -50 -40 -91 -57 -107 -16 -14 -26 -31 -24 -38 4 -10 9 -8
19 5 17 23 17 9 -1 -51 -8 -27 -15 -61 -14 -75 0 -22 2 -20 15 13 8 22 17 64
21 93 3 30 10 56 16 60 6 4 7 -8 2 -33 -4 -21 -7 -69 -6 -106 1 -37 -3 -76 -9
-87 -8 -15 -8 -27 0 -41 6 -11 7 -20 3 -20 -18 1 -32 17 -48 58 -10 23 -23 42
-31 42 -17 0 -19 20 -1 20 6 0 0 8 -15 18 -16 9 -28 23 -28 31 0 18 -29 51
-45 51 -7 0 -16 7 -19 16 -5 13 -2 15 16 9 13 -3 31 -8 40 -9 10 -1 21 -6 25
-11 5 -4 2 -5 -4 -1 -7 4 -13 2 -13 -4 0 -6 7 -13 15 -16 8 -4 13 -9 11 -13
-9 -15 11 -30 32 -24 49 13 13 83 -43 83 -20 0 -35 6 -39 15 -4 10 -1 15 9 13
7 -2 13 2 12 7 -2 11 -4 11 -61 0 -31 -6 -38 -5 -34 6 5 14 9 15 48 18 34 2
22 21 -14 21 -40 0 -96 46 -96 79 0 12 -6 21 -15 21 -12 0 -13 -5 -3 -27 7
-16 18 -36 26 -45 8 -9 12 -23 10 -30 -6 -16 -38 33 -55 81 -14 40 -2 56 29
40 25 -14 41 -1 35 27 -5 30 2 30 31 -1 24 -25 22 -45 -4 -45 -8 0 -14 -10
-14 -22 0 -19 2 -20 13 -6 22 28 44 28 56 1 6 -13 8 -29 5 -35 -4 -6 1 -8 14
-4 11 4 23 2 27 -5 6 -8 10 -7 16 2 14 22 11 29 -11 29 -11 0 -20 5 -20 10 0
6 11 8 26 4 20 -5 25 -3 22 7 -3 8 4 22 15 31 17 15 18 20 6 34 -16 19 -87 14
-100 -8 -10 -16 -169 146 -169 172 0 28 -11 51 -21 44 -17 -10 -9 -41 22 -84
24 -34 28 -44 17 -51 -34 -22 -42 -11 -54 76 -3 28 -10 55 -14 60 -14 20 -18
58 -9 84 6 14 12 53 14 86 11 207 13 277 9 255 -15 -84 -24 -174 -25 -235 0
-38 -7 -89 -15 -113 -8 -24 -12 -48 -9 -53 10 -15 36 -122 31 -126 -2 -3 -10
5 -16 17 -6 12 -9 24 -6 27 3 3 -1 15 -9 27 -9 12 -15 43 -15 74 0 33 -4 51
-10 47 -6 -3 -10 -2 -10 3 0 6 6 12 13 15 14 5 45 232 33 244 -3 4 -7 -7 -7
-23 -1 -25 -2 -23 -9 11 -4 22 -6 54 -3 70 4 26 0 32 -26 43 -17 8 -28 18 -25
24 4 6 10 6 17 -1 6 -6 18 -11 26 -11 14 1 13 3 -1 14 -25 18 -22 29 3 16 28
-15 37 -5 10 12 -26 16 -27 28 -3 28 16 1 16 1 -1 14 -23 18 -22 29 3 21 14
-4 20 -2 20 8 0 23 -47 18 -58 -7 -7 -13 -11 -16 -11 -6 0 8 6 24 15 35 11 15
17 17 23 7 6 -10 10 -10 21 3 18 22 32 19 25 -6 -5 -16 -4 -19 5 -14 10 6 12
1 8 -19 -4 -18 -1 -26 8 -26 8 0 14 -9 14 -19 0 -11 4 -22 9 -25 5 -3 7 -27 5
-53 l-3 -48 10 43 c8 35 7 52 -5 83 -9 22 -16 51 -16 64 0 14 -10 35 -21 46
-12 12 -17 24 -13 28 5 3 10 27 12 54 2 38 -1 48 -15 53 -10 3 -26 10 -35 15
-20 10 -21 8 -12 -15 3 -9 13 -16 21 -16 8 0 11 -4 8 -10 -3 -5 -1 -19 5 -30
8 -16 8 -28 -2 -50 l-12 -29 -13 31 c-9 21 -10 34 -3 38 7 4 -1 31 -21 75 -28
62 -29 70 -15 81 9 6 16 14 16 18 0 11 -28 6 -33 -6 -3 -7 -6 -1 -6 13 -1 16
6 29 15 33 8 3 13 2 10 -3 -3 -5 4 -11 15 -14 18 -5 21 -11 16 -35 -6 -30 15
-74 29 -60 4 4 2 14 -5 21 -6 8 -9 22 -5 31 3 9 -1 27 -10 41 -13 20 -22 63
-13 66 38 9 92 8 98 -3 6 -9 9 -10 9 -1 0 18 -34 33 -50 23 -22 -14 -41 21
-31 57 5 17 6 52 3 78 -4 37 -2 46 7 40 7 -4 11 -18 8 -33 -5 -28 10 -82 24
-82 12 0 11 17 -1 25 -20 12 -9 56 23 98 l33 43 -1 -35 c0 -20 4 -47 9 -60 7
-20 6 -23 -8 -18 -24 10 -19 -7 6 -18 43 -19 44 -115 2 -115 -9 0 -14 -3 -12
-7 2 -5 16 -35 31 -67 32 -70 50 -85 98 -86 28 0 38 -5 42 -20 3 -11 1 -20 -5
-20 -5 0 -17 -9 -26 -20 -17 -19 -17 -19 -41 0 -13 11 -21 26 -18 34 7 17 -19
30 -29 15 -3 -5 -1 -15 4 -22 5 -7 13 -29 16 -51 6 -32 5 -38 -7 -33 -9 3 -18
-1 -21 -9 -11 -29 -6 -34 15 -13 14 14 28 19 44 15 19 -5 22 -3 18 14 -3 11 0
20 6 20 6 0 11 -5 11 -12 0 -19 31 -48 52 -48 10 0 18 -7 18 -15 0 -12 -4 -14
-19 -5 -13 7 -22 7 -26 0 -3 -5 -1 -10 4 -10 6 0 11 -4 11 -10 0 -5 -13 -10
-30 -10 -30 0 -33 -4 -43 -70 -3 -14 -5 -2 -6 25 -2 46 -3 48 -13 23 -7 -22
-5 -41 11 -88 11 -32 22 -79 24 -102 2 -24 10 -66 17 -95 10 -39 17 -50 29
-46 14 4 14 3 1 -6 -12 -8 -12 -13 -2 -23 9 -9 12 -9 12 3 0 9 7 5 19 -11 19
-24 19 -25 0 -38 -10 -7 -19 -20 -19 -28 0 -17 -31 -19 -48 -2 -13 13 -27 5
-17 -11 7 -12 135 -13 135 -1 0 5 9 6 20 3 33 -9 7 -23 -47 -27 -13 0 -23 -5
-23 -10 0 -5 15 -5 33 -1 17 3 65 12 106 19 71 11 73 12 46 24 -19 9 -25 16
-18 23 12 12 53 -17 53 -36 0 -5 11 -11 25 -11 38 -3 40 27 7 89 -16 30 -33
80 -36 111 -5 38 -12 56 -21 56 -10 0 -12 6 -8 18 6 14 4 15 -9 5 -21 -18 -28
-7 -28 44 0 27 -4 42 -10 38 -12 -7 -14 -105 -2 -105 5 0 17 -29 27 -64 13
-44 22 -63 32 -59 8 3 13 -2 13 -15 0 -12 11 -32 25 -46 32 -32 35 -62 5 -46
-29 15 -65 76 -86 142 -15 51 -19 55 -36 45 -15 -10 -21 -9 -28 3 -11 17 -8
32 7 37 6 2 13 -3 15 -12 1 -9 4 34 5 97 0 68 -2 105 -7 93 -10 -23 -11 -21
-16 18 -1 15 1 27 7 27 5 0 9 11 9 25 0 14 -4 25 -9 25 -12 0 -23 -76 -15
-114 4 -24 1 -38 -11 -50 -21 -20 -20 -20 -28 24 -6 33 -6 34 7 11 21 -37 26
-10 11 55 -18 77 -21 116 -11 132 4 7 5 21 1 31 -3 11 -1 22 5 26 5 3 12 -1
15 -9 16 -50 17 -52 25 -26 6 22 8 23 15 8 9 -23 45 -24 45 -2 0 14 -2 15 -17
3 -15 -13 -16 -11 -9 16 9 34 17 45 23 29 2 -6 11 -20 19 -30 15 -19 15 -18 9
1 -4 11 -9 46 -11 79 -3 32 -9 68 -15 80 -10 20 -9 20 5 2 8 -10 19 -15 25
-12 6 4 3 14 -10 27 -11 11 -22 33 -26 49 -6 30 -17 38 -28 20 -3 -5 -1 -10 6
-10 7 0 9 -3 6 -6 -4 -4 -13 -2 -20 4 -14 12 -27 7 -27 -10 0 -5 4 -6 10 -3 6
4 10 -5 10 -20 0 -14 7 -28 15 -31 9 -4 20 -15 26 -26 9 -16 8 -19 -2 -13 -9
6 -10 3 -5 -11 16 -38 18 -54 7 -54 -5 0 -8 6 -5 14 3 8 -3 16 -15 19 -17 4
-18 2 -11 -18 7 -19 5 -24 -11 -28 -10 -3 -19 -10 -19 -16 0 -15 27 -14 34 2
3 6 5 3 3 -8 -3 -29 -28 -29 -60 0 -15 14 -32 23 -37 20 -6 -3 -10 -2 -10 3 0
6 16 13 35 16 30 6 35 11 41 44 4 20 12 40 18 44 7 4 4 9 -6 13 -11 4 -14 13
-10 23 5 15 4 15 -11 3 -9 -7 -17 -10 -17 -5 0 5 -7 0 -15 -10 -14 -19 -15
-18 -15 10 0 16 4 36 9 43 6 9 6 22 0 34 -8 13 -6 30 6 60 19 45 21 127 5 158
-14 25 -52 46 -44 24 4 -8 11 -16 18 -16 6 -1 -7 -5 -29 -8 -39 -6 -40 -7 -43
-48 -3 -45 3 -53 22 -28 6 9 21 17 34 18 12 0 22 7 22 14 0 7 5 13 11 13 13 0
4 -79 -15 -125 -17 -39 -61 -75 -93 -75 -32 0 -68 25 -92 64 -23 37 -39 136
-22 136 6 0 11 -4 11 -9 0 -5 9 -13 20 -16 15 -5 26 0 40 17 28 33 25 38 -22
38 -40 0 -41 0 -23 20 10 11 14 20 10 20 -13 0 -97 -72 -91 -77 7 -7 -12 -43
-23 -43 -5 0 -12 8 -15 17 -5 12 2 25 25 43 l31 26 -32 28 c-33 27 -33 38 -3
42 11 2 13 0 5 -8 -15 -15 10 -38 41 -38 18 0 29 8 38 29 7 16 17 27 21 25 5
-3 6 -9 4 -13 -3 -4 5 -8 16 -8 12 -1 22 5 25 17 4 15 8 16 18 7 9 -8 10 -16
3 -24 -7 -8 -3 -10 12 -6 14 4 19 11 15 23 -4 13 1 17 25 17 31 0 40 -11 18
-21 -7 -3 -1 -4 13 -1 21 4 26 1 25 -12 0 -9 14 -25 34 -36 l35 -19 -30 26
c-16 14 -26 28 -23 31 6 6 38 -17 85 -62 l23 -22 0 24 c0 13 4 26 10 30 5 3 6
13 3 22 -5 12 -2 15 10 10 9 -3 19 -2 22 4 4 5 3 9 -2 8 -29 -5 -43 3 -43 24
0 13 -6 29 -12 35 -10 10 -10 15 1 21 9 6 10 11 2 15 -6 4 -11 16 -11 27 0 10
-4 19 -9 19 -6 0 -7 -16 -4 -36 6 -35 5 -36 -15 -25 -20 11 -21 10 -13 -11 5
-13 16 -22 25 -22 9 1 17 -1 17 -5 1 -3 3 -15 4 -26 2 -11 6 -29 10 -40 5 -13
4 -16 -2 -7 -5 7 -17 10 -26 6 -12 -4 -17 -1 -17 11 0 10 5 14 13 9 6 -4 3 2
-8 14 -24 24 -65 38 -65 23 0 -6 7 -11 15 -11 8 0 15 -4 15 -10 0 -13 -6 -13
-31 0 -10 6 -19 16 -19 22 0 6 -8 17 -17 23 -17 13 -17 14 0 33 17 19 17 19
-8 15 -22 -5 -25 -2 -25 21 0 19 5 26 20 26 12 0 20 -7 20 -16 0 -10 6 -14 14
-11 8 3 17 0 20 -8 2 -7 -2 -16 -9 -19 -8 -3 -12 -12 -9 -20 8 -21 31 -9 36
19 3 15 0 26 -10 30 -10 3 -12 13 -8 30 4 14 2 25 -3 25 -5 0 -11 -9 -13 -21
-3 -21 -4 -20 -31 5 -32 30 -37 31 -37 11 0 -8 -4 -15 -10 -15 -14 0 -12 13 5
36 17 23 19 34 5 34 -5 0 -10 -7 -10 -15 0 -19 -19 -20 -26 -1 -9 22 -30 26
-30 6 0 -10 4 -16 9 -13 10 6 27 -15 27 -33 0 -7 -12 -14 -26 -17 -18 -3 -24
-1 -20 9 3 7 0 16 -6 20 -7 5 -9 -2 -6 -20 3 -16 1 -26 -7 -26 -20 0 -24 11
-13 42 8 22 7 33 -2 41 -9 9 -11 7 -10 -8 4 -36 0 -45 -17 -45 -9 0 -14 -3
-10 -6 3 -4 -1 -13 -9 -21 -9 -9 -12 -23 -8 -35 5 -16 2 -19 -13 -16 -10 2
-16 11 -14 19 13 49 12 55 -12 66 -25 11 -37 8 -37 -9 0 -5 4 -7 9 -4 15 10
39 -4 37 -21 -2 -9 -11 -22 -21 -29 -17 -12 -17 -14 -2 -14 22 0 22 -27 0 -32
-16 -3 -15 -6 5 -16 20 -11 22 -10 22 8 0 18 4 20 23 14 12 -3 24 -8 26 -10 7
-6 -43 -43 -59 -44 -9 0 -26 -7 -38 -16 -13 -9 -25 -14 -28 -11 -7 7 7 37 17
37 5 0 9 7 9 15 0 8 -7 15 -16 15 -8 0 -13 4 -10 9 4 5 1 20 -4 33 -10 22 -10
22 -5 -4 3 -16 0 -28 -8 -31 -9 -4 -9 -8 2 -15 12 -9 12 -13 2 -26 -7 -9 -11
-23 -7 -31 3 -9 0 -15 -9 -15 -8 0 -15 -4 -15 -10 0 -16 -17 -11 -24 6 -9 25
3 56 20 50 16 -6 20 19 4 29 -5 3 -10 1 -10 -4 0 -6 -4 -11 -9 -11 -6 0 -8 29
-6 68 3 37 0 79 -6 94 -12 30 -56 52 -91 45 -18 -3 -17 -5 8 -6 18 0 42 -9 55
-20 21 -17 22 -21 9 -50 -8 -21 -16 -28 -20 -21 -6 9 -9 9 -15 0 -4 -7 -1 -16
6 -21 9 -6 4 -7 -15 -3 -23 6 -27 4 -21 -7 7 -12 6 -12 -7 -1 -13 10 -17 10
-21 0 -3 -8 -6 -6 -6 5 -1 10 -8 29 -17 42 -15 23 -15 27 0 50 20 31 3 33 -18
3 -28 -40 -20 -84 23 -128 37 -38 67 -57 41 -25 -10 13 -7 17 25 31 42 17 40
18 50 -15 6 -20 4 -23 -10 -17 -13 5 -16 2 -11 -10 4 -11 2 -15 -8 -11 -24 9
-29 -44 -11 -113 16 -61 16 -63 -4 -82 -12 -10 -21 -31 -21 -46 -1 -53 -9
-148 -16 -185 -5 -31 -2 -45 15 -68 25 -33 26 -39 7 -39 -20 0 -39 27 -42 58
-1 15 -5 36 -9 48 -4 13 -1 27 10 38 9 9 13 16 8 16 -15 0 -33 -23 -33 -41 0
-10 -11 -30 -25 -45 -30 -32 -34 -18 -5 16 11 13 20 31 20 40 0 10 7 23 15 30
13 11 13 15 3 22 -8 6 -5 7 11 3 17 -5 22 -4 19 6 -3 8 -14 15 -26 17 -23 4
-30 28 -11 34 8 3 9 15 4 37 -5 23 -11 31 -22 27 -8 -3 -18 -6 -23 -6 -5 0 -4
-15 1 -32 11 -40 11 -38 -1 -38 -5 0 -10 9 -10 20 0 11 -5 20 -11 20 -7 0 -10
-12 -7 -30 3 -16 1 -30 -4 -30 -5 0 -8 -6 -7 -12 4 -30 -2 -58 -11 -58 -16 0
-25 31 -11 39 6 4 9 15 5 24 -5 15 -7 15 -22 1 -8 -9 -15 -29 -15 -45 0 -36
-18 -33 -28 5 -9 32 -1 86 12 86 5 0 9 5 9 10 0 12 -40 13 -59 1 -16 -10 -41
-4 -41 11 0 5 9 6 20 3 11 -4 20 -2 20 4 0 6 9 11 20 11 11 0 20 4 20 9 0 5 9
11 20 14 11 3 20 10 20 16 0 6 -7 8 -15 5 -11 -5 -13 -2 -9 10 4 11 2 16 -7
14 -8 -2 -15 6 -16 17 -2 35 -15 65 -25 59 -5 -3 -7 -12 -4 -19 6 -16 -21 -29
-29 -15 -12 19 -26 10 -15 -9 16 -30 12 -34 -11 -12 -12 11 -18 24 -14 30 3 6
2 11 -4 11 -5 0 -11 8 -13 18 -2 9 -6 12 -10 7 -7 -11 18 -71 40 -98 11 -13
11 -20 -3 -40 -13 -20 -14 -29 -5 -44 17 -27 56 -43 70 -29 8 8 9 6 5 -6 -4
-10 -13 -18 -21 -18 -8 0 -14 -4 -14 -10 0 -5 5 -10 10 -10 6 0 10 -5 10 -11
0 -6 -9 -8 -20 -4 -11 3 -20 2 -20 -3 0 -5 -8 -12 -18 -14 -20 -6 -42 20 -42
48 0 9 -11 25 -25 36 -18 14 -24 26 -20 39 4 10 3 19 -2 19 -15 -1 -43 -27
-43 -40 0 -8 -9 -11 -26 -7 -20 4 -28 0 -32 -15 -4 -18 -6 -18 -23 -2 -23 21
-25 42 -3 23 15 -12 16 -11 10 9 -5 14 -3 22 4 22 12 0 49 39 50 52 0 4 -6 5
-14 2 -23 -9 -27 12 -5 35 11 12 17 26 14 31 -10 16 -22 11 -30 -12 l-7 -23
-7 24 c-6 22 -8 23 -23 8 -20 -20 -29 -22 -26 -4 2 6 12 17 23 24 11 7 14 12
8 13 -7 0 -13 9 -13 21 0 11 -4 17 -10 14 -7 -4 -10 108 -10 329 l0 336 1053
0 c578 0 1057 -4 1064 -8z m-1407 -709 c0 -15 8 -35 17 -45 17 -19 16 -19 -12
-13 -29 7 -29 7 -10 -8 l20 -16 -20 -2 c-11 -1 -32 -2 -48 -3 -15 -1 -35 -10
-45 -20 -16 -18 -16 -18 8 -2 31 20 46 21 30 1 -20 -24 -6 -27 20 -5 25 21 41
22 48 2 2 -7 -5 -12 -17 -12 -11 0 -23 -5 -26 -10 -4 -7 2 -9 18 -5 28 7 43
-16 27 -43 -8 -15 -9 -14 -10 5 0 19 -3 20 -28 11 -27 -10 -29 -15 -30 -70 -2
-76 -24 -115 -63 -115 -25 0 -29 4 -29 28 0 15 4 29 10 31 5 2 10 45 11 96 l1
93 48 27 c43 24 48 30 43 54 -6 29 12 62 28 52 5 -3 9 -17 9 -31z m336 -240
c-19 -96 -19 -101 3 -115 12 -7 21 -23 21 -37 0 -20 -2 -21 -15 -11 -12 10
-15 10 -15 -4 0 -23 -17 -20 -23 4 -3 11 -13 20 -22 20 -15 0 -15 -3 -5 -15 7
-9 10 -19 6 -22 -4 -4 -11 -1 -17 7 -8 13 -11 13 -20 -2 -13 -24 -29 -23 -29
1 0 11 -4 23 -10 26 -5 3 -10 -1 -10 -9 0 -28 -15 -17 -33 26 -17 40 -16 42 3
60 11 10 20 23 20 27 0 9 39 26 82 35 15 4 33 13 40 21 20 23 30 17 24 -12z
m-735 -101 c-30 -10 -4 -17 64 -17 51 1 76 -3 79 -12 6 -14 -33 -45 -46 -37
-4 3 -8 1 -8 -4 0 -5 -9 -12 -20 -15 -11 -3 -23 -13 -27 -24 -4 -10 -15 -24
-25 -31 -13 -9 -18 -26 -18 -57 0 -26 -5 -45 -12 -48 -10 -3 -10 -8 2 -21 13
-17 14 -17 21 1 7 16 8 15 8 -4 1 -13 6 -23 11 -23 14 0 12 16 -6 52 -10 19
-11 27 -3 23 9 -6 10 -1 5 18 -7 28 1 57 16 57 5 0 7 -4 3 -9 -3 -5 -1 -12 5
-16 6 -4 10 8 10 29 0 20 4 36 10 36 5 0 7 -8 4 -17 -3 -11 0 -10 8 4 15 25
84 74 92 65 10 -9 7 -24 -4 -17 -17 10 -11 -12 7 -26 15 -12 16 -12 10 5 -5
13 -3 17 7 13 12 -5 12 -2 1 20 -14 26 -10 53 6 53 5 0 9 -11 9 -24 0 -13 10
-35 21 -50 12 -15 19 -30 15 -33 -3 -4 -6 -1 -6 6 0 7 -4 10 -10 6 -5 -3 -7
-13 -4 -23 5 -14 3 -14 -10 2 -15 19 -16 19 -16 2 0 -15 -3 -16 -15 -6 -9 7
-18 11 -21 8 -3 -3 9 -17 26 -31 32 -28 39 -43 15 -33 -20 7 -45 -3 -45 -20 0
-8 -6 -11 -15 -8 -8 4 -15 1 -15 -4 0 -18 20 -24 35 -12 10 8 15 9 15 2 0 -6
-6 -15 -14 -19 -7 -4 -18 -18 -25 -31 -7 -13 -25 -25 -41 -29 -19 -3 -27 -10
-23 -17 4 -6 0 -6 -9 2 -14 11 -48 8 -48 -5 0 -30 27 -83 51 -99 28 -18 38
-34 21 -34 -5 0 -18 9 -31 21 -25 23 -65 20 -75 -7 -5 -14 14 -44 29 -44 16 0
56 -52 51 -68 -8 -26 9 -49 27 -34 7 7 17 9 21 5 6 -6 35 25 36 40 0 4 -7 7
-15 7 -8 0 -15 -4 -15 -9 0 -5 -8 -12 -17 -15 -13 -5 -11 0 6 18 20 21 22 26
8 26 -9 0 -17 4 -17 9 0 5 -9 13 -20 16 -11 4 -18 11 -15 16 4 5 22 -3 41 -17
36 -28 56 -25 37 4 -6 9 -18 16 -27 14 -11 -2 -14 2 -10 13 5 11 10 13 19 5 7
-6 17 -10 21 -8 5 1 19 -3 32 -10 15 -9 28 -10 41 -3 16 9 19 6 23 -21 4 -26
3 -28 -7 -15 -13 18 -35 23 -35 9 0 -5 6 -16 13 -26 12 -17 18 -17 50 -7 37
12 52 35 21 29 -12 -2 -20 9 -28 36 -6 22 -17 41 -24 44 -8 2 -10 -3 -6 -15 6
-16 5 -16 -9 2 -14 17 -18 18 -27 5 -7 -11 -10 -11 -10 -2 0 7 -4 11 -9 7 -6
-3 -14 3 -20 12 -6 10 -11 12 -11 6 0 -22 -20 -14 -20 7 0 22 -15 27 -23 8 -4
-8 -6 -7 -6 3 -1 9 -10 19 -21 22 -11 3 -20 13 -20 22 0 12 5 15 23 9 12 -3
24 -11 25 -15 5 -13 49 -11 71 3 11 7 26 8 37 3 17 -8 16 -9 -6 -13 -26 -4
-42 -20 -34 -33 8 -14 88 -21 114 -11 23 9 26 7 28 -14 2 -24 -12 -32 -23 -14
-13 21 -23 9 -15 -19 4 -16 5 -33 2 -37 -4 -4 0 -4 8 -2 8 3 14 11 12 17 -3
16 13 14 28 -4 11 -13 10 -14 -4 -9 -9 3 -16 1 -16 -5 0 -13 69 -43 81 -35 5
3 9 -34 9 -85 0 -49 -5 -93 -10 -96 -6 -4 -11 8 -12 27 l-1 33 -4 -32 c-2 -17
-10 -37 -18 -43 -11 -9 -12 -7 -8 12 4 19 2 18 -11 -6 -20 -36 -21 -34 10 -28
19 3 25 1 20 -7 -4 -6 -16 -11 -27 -11 -10 0 -19 -4 -19 -10 0 -15 47 -12 53
3 3 6 6 2 6 -9 1 -17 -4 -20 -23 -17 -25 5 -42 -10 -30 -28 4 -8 9 -8 17 0 20
20 27 12 27 -29 0 -22 -4 -40 -8 -40 -11 0 7 -123 19 -131 8 -5 49 -78 49 -87
0 -2 -7 -2 -15 1 -8 4 -17 2 -20 -3 -7 -12 -46 -14 -43 -2 1 4 -4 22 -12 40
-12 25 -20 32 -36 28 -15 -4 -25 3 -40 27 -24 41 -24 52 1 52 14 0 21 8 23 28
4 35 -8 34 -42 -3 -23 -26 -25 -33 -15 -53 7 -12 15 -24 18 -27 9 -7 30 -42
41 -67 9 -22 34 -31 43 -15 2 4 2 1 1 -5 -2 -7 -1 -20 2 -28 5 -12 10 -13 20
-4 11 9 14 8 14 -6 0 -9 6 -15 13 -12 6 2 11 10 10 16 -3 13 16 14 35 2 20
-12 24 -64 5 -57 -8 4 -27 9 -41 12 -15 4 -32 11 -39 16 -7 5 -17 7 -22 4 -5
-4 -13 -1 -18 6 -4 7 -25 21 -45 30 -21 10 -38 22 -38 28 0 5 -5 10 -10 10
-22 0 -82 75 -119 147 -13 27 -21 61 -21 94 0 41 -8 66 -35 116 -20 36 -32 69
-29 75 4 7 2 8 -4 4 -6 -4 -40 15 -74 42 -69 53 -152 175 -164 241 -4 20 -13
44 -21 53 -8 9 -13 23 -11 30 3 8 9 4 18 -12 7 -13 34 -45 60 -72 40 -40 46
-52 44 -83 -2 -19 1 -35 6 -35 4 0 6 14 4 30 -4 23 -1 30 10 30 9 0 16 5 16
10 0 6 -4 10 -9 10 -17 0 -72 61 -64 73 5 8 9 7 11 -6 2 -9 8 -15 13 -12 5 4
9 0 9 -8 0 -8 7 -17 15 -21 18 -7 45 3 45 16 0 6 -7 7 -16 4 -9 -3 -12 -2 -9
5 4 5 -5 25 -19 44 -14 18 -26 40 -26 47 0 7 6 4 12 -7 17 -31 98 -108 106
-101 3 4 -15 28 -41 54 -26 26 -47 51 -47 55 0 5 -11 18 -25 31 -14 13 -25 32
-25 44 0 11 -7 22 -15 26 -27 10 -17 41 18 58 31 15 34 15 34 0 0 -10 -4 -20
-9 -23 -6 -4 4 -21 22 -39 32 -33 45 -35 34 -6 -3 9 -13 16 -21 16 -8 0 -11 5
-7 11 3 6 17 9 31 6 14 -3 31 2 40 12 12 12 17 13 21 3 4 -13 32 -17 32 -4 0
4 -14 20 -30 36 -16 16 -27 33 -24 38 3 5 31 9 63 8 92 -3 113 -1 106 10 -3 6
-42 10 -86 10 -64 0 -79 3 -79 15 0 8 7 15 15 15 8 0 15 7 15 16 0 14 2 14 16
3 10 -8 12 -15 5 -17z m1516 -662 c6 -21 28 -27 38 -10 11 18 35 11 35 -10 0
-11 -4 -20 -10 -20 -5 0 -10 5 -10 10 0 6 -4 10 -10 10 -21 0 -9 -20 15 -26
24 -6 25 -9 23 -66 l-3 -61 36 -12 c22 -8 42 -9 50 -4 11 7 11 9 -3 9 -14 0
-17 9 -16 45 0 25 5 48 10 51 5 3 4 11 -2 19 -7 8 -7 16 -2 19 12 7 24 -37 16
-57 -8 -22 7 -27 41 -12 19 9 24 14 13 14 -21 1 -26 51 -5 51 8 0 7 4 -3 10
-13 8 -13 10 1 10 9 0 20 -7 23 -16 3 -8 10 -12 16 -9 6 4 10 -6 10 -24 0 -16
-6 -34 -14 -38 -17 -9 -69 -80 -79 -106 -4 -10 -11 -15 -17 -12 -5 3 -8 0 -5
-7 10 -27 11 -398 1 -408 -5 -5 -6 -10 -2 -10 5 0 3 -7 -4 -15 -10 -12 -10
-15 0 -15 7 0 10 -7 6 -15 -3 -8 -1 -15 5 -15 6 0 7 -5 3 -11 -4 -8 -9 -7 -15
2 -9 15 -12 8 -11 -31 1 -21 -1 -20 -10 8 -9 27 -9 35 3 43 10 6 10 9 2 9 -19
0 -16 101 3 161 14 40 16 75 11 170 -6 131 -16 158 -68 187 -16 10 -27 23 -24
30 3 7 1 11 -4 7 -5 -3 -17 15 -27 40 -9 25 -21 45 -25 45 -5 0 -9 5 -9 10 0
23 21 7 40 -30 11 -22 25 -40 31 -40 8 0 7 5 -1 15 -9 10 -9 15 -1 15 6 0 11
5 11 11 0 6 -7 9 -15 5 -9 -3 -15 0 -15 7 0 7 -13 26 -30 42 -31 30 -38 45
-19 45 6 0 13 -9 16 -20z m302 -55 c-3 -5 -9 -26 -13 -46 -3 -20 -23 -55 -43
-79 -36 -42 -37 -43 -37 -136 -1 -52 2 -94 7 -94 4 0 7 -82 7 -182 0 -104 -4
-177 -9 -168 -5 8 -11 120 -14 249 -4 166 -9 236 -18 242 -15 9 17 65 77 133
19 21 24 37 22 65 -2 20 -8 35 -15 34 -6 -1 -14 4 -17 13 -4 10 -2 13 6 8 8
-5 9 -1 4 12 -5 13 2 10 22 -11 15 -16 25 -34 21 -40z m-1957 33 c2 -16 9 -22
21 -20 9 2 17 -2 17 -8 0 -5 -5 -10 -11 -10 -8 0 -8 -4 0 -14 8 -9 8 -21 2
-37 -10 -24 -13 -21 -15 16 -1 14 -7 19 -21 17 -11 -2 -23 -9 -27 -15 -10 -15
-6 -42 6 -36 5 2 12 -6 17 -18 9 -24 34 -29 59 -13 12 8 12 12 2 18 -10 7 -9
12 4 23 16 12 17 12 11 -3 -4 -11 0 -21 11 -28 15 -8 15 -11 2 -20 -8 -5 -23
-10 -33 -10 -10 0 -29 -7 -42 -16 -24 -16 -25 -16 -23 7 2 17 -2 24 -14 23
-12 -1 -17 5 -15 20 1 12 -3 20 -10 19 -7 -2 -13 2 -13 7 0 6 5 10 10 10 6 0
10 7 10 15 0 8 -7 15 -15 15 -8 0 -15 -9 -15 -19 0 -11 -4 -23 -10 -26 -16
-10 -12 -23 10 -30 11 -3 20 -15 20 -26 0 -10 5 -19 11 -19 8 0 8 -5 -1 -15
-7 -8 -20 -15 -29 -14 -10 0 -11 2 -3 6 19 8 14 23 -8 23 -16 0 -20 7 -20 30
0 17 -5 30 -11 30 -6 0 -9 -7 -5 -15 6 -18 -2 -45 -15 -45 -5 0 -6 12 -3 26 5
19 4 25 -5 20 -6 -4 -11 -3 -11 2 0 5 10 12 22 15 17 5 19 9 10 20 -9 10 -8
18 4 33 15 18 15 18 9 -8 -8 -38 10 -35 24 3 11 32 6 54 -10 44 -5 -4 -9 0 -9
8 0 8 9 17 21 20 16 4 19 2 15 -10 -4 -9 1 -24 10 -34 13 -14 20 -16 40 -7 23
11 33 28 16 28 -4 0 -8 9 -8 20 0 27 14 25 18 -2z m1606 -38 c23 0 62 -43 62
-69 0 -10 -9 -5 -29 17 -22 23 -39 32 -61 32 -18 0 -29 -4 -25 -10 3 -5 13
-10 22 -10 10 0 14 -6 11 -18 -4 -13 1 -18 16 -20 17 -1 18 1 6 8 -13 8 -12
10 3 10 10 0 20 -7 23 -15 4 -8 12 -15 18 -15 7 0 18 -12 25 -27 10 -26 10
-27 -4 -9 -14 19 -15 19 -15 2 0 -40 81 -87 92 -54 3 8 8 6 15 -7 13 -25 23
-185 11 -185 -4 0 -8 11 -8 24 0 16 -7 27 -20 31 -11 3 -20 14 -20 23 0 12 3
13 12 4 7 -7 16 -12 20 -12 9 0 11 51 2 75 -6 14 -9 13 -30 -6 -32 -30 -32
-73 1 -95 14 -9 25 -25 24 -38 0 -11 -3 -15 -6 -8 -7 17 -23 15 -23 -3 0 -8 7
-15 15 -15 9 0 12 -6 8 -16 -5 -13 -2 -15 16 -9 20 6 21 4 15 -22 -8 -31 -24
-56 -32 -48 -3 3 -11 0 -19 -6 -10 -9 -18 -7 -34 7 -19 17 -21 27 -16 87 7 78
-7 83 -16 6 -4 -35 -2 -63 8 -86 8 -20 15 -45 15 -56 0 -11 8 -29 18 -40 13
-15 14 -21 4 -24 -9 -3 -10 -9 -3 -17 14 -16 1 -136 -14 -136 -7 0 -15 -10
-19 -22 -8 -33 -7 -48 4 -48 6 0 10 14 10 30 0 17 4 30 10 30 5 0 7 -12 5 -27
-3 -16 -6 -44 -9 -63 -6 -56 -16 -71 -43 -68 -17 2 -28 -5 -41 -26 -13 -22
-14 -30 -4 -33 13 -5 17 -23 4 -23 -5 0 -14 11 -20 25 -6 14 -7 25 -3 25 15 0
59 104 86 204 27 99 30 116 16 116 -4 0 -11 -19 -14 -42 -7 -53 -49 -180 -76
-231 l-20 -39 -11 42 c-10 37 -8 52 19 136 33 101 35 114 23 114 -13 0 -40
-78 -48 -139 -2 -13 -8 -29 -14 -35 -18 -18 -6 52 25 151 31 97 63 156 50 94
-5 -23 -4 -31 4 -27 6 4 11 14 11 22 0 8 8 14 18 14 16 1 16 1 0 11 -22 12
-23 29 -3 29 8 0 15 5 15 10 0 6 -9 10 -20 10 -24 0 -27 15 -4 24 22 8 8 25
-16 19 -11 -3 -20 -14 -20 -24 0 -11 -5 -19 -11 -19 -6 0 -9 -6 -6 -14 9 -23
-10 -77 -32 -93 -11 -7 -23 -30 -27 -51 -7 -35 -8 -36 -17 -14 -8 17 -7 26 1
31 12 7 132 310 132 333 0 27 -19 -11 -49 -98 -17 -50 -45 -122 -63 -160 -31
-67 -32 -68 -39 -39 -11 50 -10 85 4 85 6 0 17 11 23 24 9 20 9 26 -4 31 -8 3
-20 1 -26 -5 -14 -14 -23 -13 -30 7 -4 10 -4 14 0 11 4 -4 16 -2 27 3 15 8 22
8 28 -2 13 -19 59 33 59 65 0 40 27 113 58 160 32 47 32 58 0 30 -14 -14 -20
-14 -33 -4 -18 15 -20 0 -2 -20 10 -12 9 -12 -5 -1 -34 25 -76 -27 -46 -57 8
-8 8 -12 1 -12 -6 0 -14 8 -17 17 -5 13 -9 14 -19 4 -9 -10 -7 -16 11 -28 25
-17 30 -38 7 -29 -8 3 -15 2 -15 -2 0 -4 -12 -7 -27 -7 -16 -1 -37 -4 -48 -8
-15 -5 -23 -1 -31 17 -10 22 -8 27 27 53 21 15 43 40 49 54 18 43 63 79 111
88 37 8 40 9 14 11 -16 1 -24 4 -17 7 21 8 3 23 -29 23 -16 0 -29 5 -29 10 0
6 7 10 15 10 35 0 11 18 -40 30 l-55 13 24 23 c33 34 67 45 87 28 8 -8 25 -14
37 -14z m362 -77 c0 -5 -11 -26 -25 -48 -41 -67 -54 -99 -44 -109 5 -6 9 -32
9 -59 0 -27 4 -46 9 -42 12 7 23 -179 21 -359 0 -95 3 -132 12 -138 10 -7 9
-9 -2 -5 -12 3 -16 36 -22 178 -12 293 -14 315 -17 184 -2 -66 -7 -149 -11
-185 -6 -44 -8 2 -6 143 1 120 -2 207 -7 207 -5 0 -7 34 -5 75 3 66 7 78 30
100 15 13 29 34 33 45 6 19 25 29 25 13z m-2101 -283 c4 0 15 -25 25 -55 16
-53 45 -83 66 -70 5 3 7 -1 4 -9 -3 -8 -12 -17 -20 -20 -8 -3 -14 -13 -14 -22
0 -13 -7 -15 -37 -9 -59 11 -63 18 -63 112 0 74 2 84 16 79 9 -3 19 -6 23 -6z
m483 -150 c66 0 106 -13 125 -40 8 -11 21 -20 29 -20 8 0 14 -5 14 -10 0 -7
-7 -7 -21 0 -25 14 -100 15 -126 2 -11 -6 -69 -5 -155 1 -121 9 -137 12 -141
29 -4 14 2 22 20 29 14 5 48 20 76 34 l50 24 36 -25 c27 -18 49 -24 93 -24z
m829 -36 c4 -21 9 -64 12 -95 5 -50 3 -56 -11 -52 -20 5 -58 -58 -49 -81 7
-18 42 -22 52 -6 8 13 25 13 25 -1 0 -23 -30 -41 -60 -34 -34 7 -39 -1 -12
-21 16 -13 16 -13 0 -14 -24 0 -23 -15 4 -40 30 -28 37 -25 34 15 -4 39 17 66
36 47 8 -8 5 -17 -13 -32 -24 -21 -24 -21 -2 -17 18 4 23 -1 28 -27 21 -98 51
-172 89 -220 51 -63 76 -102 76 -117 0 -9 -3 -9 -14 0 -18 15 -59 0 -80 -30
l-16 -23 -23 22 c-29 28 -46 29 -22 2 16 -17 16 -20 2 -20 -9 0 -19 5 -23 11
-4 8 -9 7 -15 -2 -8 -14 -8 -14 -24 36 -2 8 -17 16 -32 16 -17 1 -21 3 -10 6
9 2 17 8 17 13 0 5 -20 2 -45 -7 -25 -8 -45 -19 -45 -24 0 -12 17 -11 25 1 3
6 11 10 17 10 6 0 3 -9 -7 -20 -10 -11 -24 -20 -30 -20 -7 0 -18 -6 -24 -14
-17 -20 -81 -26 -81 -8 0 8 6 12 14 9 8 -3 17 -3 20 0 11 11 -16 32 -50 39
-47 9 -53 24 -10 24 30 0 38 5 52 31 15 30 15 43 0 80 -5 11 -1 18 13 22 14 3
21 0 21 -9 0 -8 7 -14 15 -14 8 0 15 -4 15 -10 0 -5 7 -10 15 -10 8 0 15 9 15
21 0 11 4 17 10 14 11 -7 22 18 39 87 11 50 8 72 -17 100 -20 24 -11 118 19
183 18 41 22 65 20 138 -1 68 2 88 11 85 7 -3 16 -22 19 -44z m-678 -63 c28
-25 37 -43 52 -109 26 -115 13 -190 -63 -358 -32 -72 -68 -144 -81 -160 -22
-28 -14 -47 12 -26 7 5 37 10 67 11 52 1 57 -1 73 -29 10 -17 26 -30 36 -30 9
0 21 -4 26 -9 6 -5 28 -11 50 -14 22 -3 64 -9 93 -13 31 -4 62 -2 75 4 54 25
295 38 502 28 33 -2 69 2 80 8 11 6 25 11 30 11 6 1 20 7 33 14 15 8 64 12
143 12 127 0 149 3 149 24 0 8 21 15 57 20 89 11 106 20 99 53 -4 15 -17 35
-29 44 -76 60 -97 84 -97 110 0 27 1 27 53 21 28 -3 67 -12 85 -19 l32 -13 0
-155 c0 -118 -3 -156 -12 -157 -10 0 -10 -2 0 -6 6 -2 12 -14 12 -25 0 -16 -3
-18 -13 -10 -10 8 -27 7 -63 -4 -27 -8 -74 -17 -104 -20 -30 -3 -74 -8 -97
-11 -38 -5 -43 -3 -43 15 0 12 -4 24 -10 27 -6 4 -10 -18 -10 -59 0 -37 -4
-66 -10 -66 -5 0 -10 5 -10 11 0 5 -4 8 -9 5 -9 -6 -24 35 -16 43 3 2 5 -1 5
-7 0 -26 18 -10 23 21 6 38 -5 62 -13 29 -5 -23 -25 -27 -25 -5 -1 43 -53 36
-62 -9 -4 -21 -8 -26 -14 -16 -5 7 -6 21 -3 30 3 10 1 26 -5 35 -8 14 -10 5
-11 -41 0 -47 3 -57 15 -53 8 4 17 2 20 -4 12 -18 25 2 25 37 0 19 5 34 11 34
8 0 9 -11 5 -31 -3 -18 -1 -38 5 -45 8 -10 9 -14 0 -14 -6 0 -11 -9 -11 -20 0
-11 -7 -23 -15 -26 -15 -6 -20 -35 -8 -48 8 -7 8 -15 11 -123 3 -101 22 -93
23 10 2 92 6 79 11 -31 4 -73 4 -73 -22 -70 -24 3 -25 6 -25 71 0 48 -3 66
-12 63 -13 -6 -28 49 -21 81 2 10 -4 23 -17 30 -11 7 -14 12 -7 13 14 0 16 46
2 55 -5 3 -10 31 -10 61 0 34 -4 53 -10 49 -5 -3 -10 -19 -10 -36 0 -16 -5
-29 -12 -29 -7 0 -5 -5 5 -11 21 -12 22 -38 2 -45 -10 -4 -13 -14 -9 -29 8
-33 -12 -40 -24 -7 -20 51 -24 72 -13 72 6 0 11 -4 11 -10 0 -5 4 -10 9 -10 5
0 7 8 4 19 -3 13 -11 17 -25 13 -17 -4 -19 -11 -15 -38 6 -38 -6 -45 -23 -14
-11 20 -35 27 -44 12 -3 -5 -1 -30 3 -58 9 -49 14 -39 13 26 -1 58 15 13 23
-65 3 -38 11 -74 16 -79 13 -14 11 -36 -3 -33 -13 2 -15 -4 -17 -63 -1 -38 -3
-40 -32 -40 l-30 0 2 55 c1 30 -1 58 -4 62 -4 3 -8 1 -8 -5 -1 -7 -3 -16 -4
-22 -1 -5 -3 -28 -4 -50 0 -22 -6 -40 -12 -40 -7 0 -9 21 -5 62 3 35 5 67 6
71 0 5 4 6 10 2 5 -3 5 7 -1 25 -6 17 -8 37 -5 45 3 8 2 15 -2 15 -5 0 -13
-48 -20 -107 -6 -58 -14 -108 -17 -111 -13 -13 -15 10 -5 74 5 38 10 92 10
120 0 37 4 54 15 58 9 3 15 18 15 35 0 16 5 33 10 36 13 8 13 -26 0 -59 -5
-14 -6 -26 -1 -26 14 0 29 -54 24 -83 -3 -15 -1 -27 5 -27 6 0 13 10 15 23 2
12 6 -14 7 -58 l3 -80 8 83 c7 75 6 85 -11 102 -20 20 -30 64 -27 115 2 23 9
33 32 42 l30 12 -27 -2 c-15 -2 -30 -6 -34 -10 -15 -15 -24 -6 -18 19 5 20 2
26 -15 31 -11 3 -21 10 -21 15 0 5 -7 17 -16 26 -15 15 -16 15 -11 -3 14 -47
11 -149 -3 -140 -6 4 -22 -1 -36 -10 -22 -14 -24 -22 -22 -75 1 -33 -1 -62 -5
-66 -4 -4 -7 4 -7 18 0 14 -7 31 -16 39 -9 8 -14 25 -12 45 3 44 -10 56 -18
16 -9 -43 -21 -32 -16 13 3 26 8 35 18 31 29 -11 12 10 -18 24 -18 7 -36 15
-40 18 -14 7 -8 -16 8 -32 10 -11 14 -30 12 -58 -3 -36 -6 -42 -22 -40 -17 3
-18 2 -7 -12 8 -9 16 -14 19 -11 3 2 11 -3 18 -13 12 -16 13 -16 19 0 7 18 35
14 35 -6 0 -21 -54 -15 -87 10 -17 13 -36 24 -42 24 -6 0 -11 8 -11 18 0 19
-18 42 -33 42 -5 0 -5 -5 1 -12 13 -17 9 -61 -6 -66 -8 -2 -12 9 -12 30 0 51
10 77 26 71 9 -3 14 2 14 16 0 12 -5 21 -11 21 -5 0 -9 8 -8 18 4 48 -2 72
-19 72 -10 0 -23 -5 -30 -12 -15 -15 -16 -84 -2 -93 6 -4 10 14 10 45 0 37 4
50 13 47 8 -2 11 -19 9 -51 -6 -72 -8 -81 -20 -80 -7 1 -18 2 -26 3 -11 1 -13
15 -10 61 2 33 -1 62 -5 65 -5 2 -11 -24 -13 -60 -4 -60 -11 -85 -23 -73 -2 2
-1 34 3 71 8 65 1 89 -14 45 -18 -56 -30 -356 -15 -371 19 -19 12 -37 -11 -33
-22 3 -23 7 -26 122 -2 108 -5 121 -23 132 -23 15 -49 1 -49 -26 0 -8 -3 -13
-6 -9 -3 3 2 37 12 77 12 51 20 68 28 60 8 -8 7 -13 -3 -19 -9 -6 -10 -11 -3
-15 6 -4 8 -14 5 -22 -4 -10 2 -17 16 -21 11 -3 21 -10 21 -16 0 -7 3 -7 9 -2
5 6 11 42 13 80 2 39 8 74 13 78 6 4 -3 4 -20 1 -16 -4 -37 -17 -45 -28 -14
-20 -14 -20 -20 3 -3 13 -15 28 -28 32 -18 7 -23 4 -28 -19 -4 -15 -12 -30
-18 -34 -8 -5 -7 -8 2 -8 6 0 12 -7 12 -15 0 -8 5 -15 10 -15 6 0 10 18 10 41
0 28 4 39 13 36 14 -4 12 -38 -5 -112 l-12 -50 -6 34 c-5 36 -17 46 -38 33
-17 -11 -29 -82 -13 -82 6 0 11 10 11 23 0 12 5 29 10 37 12 18 12 -9 1 -88
-5 -36 -4 -51 3 -49 6 2 12 22 14 45 2 23 7 42 13 42 5 0 7 -43 5 -102 -2 -57
-5 -113 -5 -125 -1 -13 -7 -23 -16 -23 -12 0 -15 14 -15 68 0 48 -3 63 -10 52
-6 -8 -9 -37 -8 -64 2 -40 -1 -50 -16 -52 -16 -2 -17 9 -15 134 1 75 6 143 12
150 14 18 -3 15 -25 -5 -19 -17 -25 -39 -8 -28 16 10 12 -7 -7 -27 -9 -11 -11
-18 -5 -18 8 0 12 -33 12 -107 0 -58 -3 -103 -7 -99 -4 3 -6 46 -6 94 1 81 0
85 -13 57 l-13 -30 -1 27 c0 15 5 30 11 34 7 4 7 10 1 16 -13 13 1 62 23 84 9
9 14 23 11 30 -3 7 -2 16 3 18 4 3 8 31 9 63 1 42 -2 53 -9 41 -5 -10 -10 -33
-11 -53 -1 -19 -8 -40 -15 -47 -12 -10 -13 -7 -7 17 5 20 4 26 -5 21 -6 -4
-11 -15 -11 -24 0 -14 -2 -15 -9 -2 -6 8 -8 17 -5 21 2 4 0 10 -6 14 -5 3 -10
1 -10 -4 0 -6 -4 -11 -10 -11 -16 0 -12 46 5 60 8 7 15 23 15 36 0 25 15 33
23 12 2 -7 7 -10 11 -7 7 7 -3 39 -13 39 -17 -1 -32 -19 -34 -41 0 -13 -7 -28
-14 -34 -7 -5 -14 -25 -15 -42 -1 -18 -7 -34 -13 -37 -8 -3 -10 20 -7 77 5 95
-7 100 -14 5 -8 -96 -9 -103 -19 -101 -6 1 -10 -10 -10 -23 0 -13 2 -24 5 -24
3 0 5 -19 4 -42 -1 -24 1 -31 3 -15 2 15 9 25 14 22 5 -4 9 3 9 14 0 33 21 70
36 64 9 -3 14 2 14 13 0 33 11 6 16 -39 3 -30 0 -56 -10 -76 -18 -34 -22 -161
-6 -161 6 0 10 31 10 74 0 41 5 78 10 81 12 8 13 -132 1 -190 -7 -32 -9 -34
-10 -12 -1 34 -21 36 -21 1 0 -15 -4 -23 -10 -19 -6 4 -8 21 -4 41 3 18 3 42
-1 51 -4 10 -7 38 -6 63 1 25 -3 52 -9 60 -8 11 -10 4 -10 -30 0 -25 0 -55 0
-68 0 -13 4 -32 10 -42 24 -45 3 -55 -23 -11 -20 34 -22 77 -4 85 9 5 9 7 -1
12 -18 8 -54 83 -48 99 2 7 1 26 -4 42 l-8 28 -1 -27 c-1 -16 -7 -28 -17 -30
-12 -2 -29 -39 -55 -113 -21 -60 -43 -111 -48 -113 -6 -2 -11 -15 -11 -28 0
-14 -3 -23 -7 -21 -5 3 -8 70 -8 149 1 78 -2 130 -5 113 -6 -30 -6 -30 -13 -5
-12 42 -8 230 4 230 6 0 9 9 6 20 -3 11 -1 20 4 20 4 0 6 6 3 14 -3 8 -1 17 5
21 12 7 14 -13 12 -127 0 -48 3 -67 12 -65 7 1 13 -10 15 -25 4 -33 -15 -38
-21 -5 -2 12 -5 -43 -5 -123 0 -80 2 -138 5 -130 2 8 9 25 15 37 7 14 8 52 4
103 -4 52 -3 80 4 80 12 0 13 67 1 74 -11 7 -11 96 0 96 18 0 27 -34 16 -58
-9 -20 -8 -26 6 -37 9 -6 13 -16 9 -20 -4 -5 1 -5 11 -2 11 4 17 1 17 -8 0 -8
-7 -15 -15 -15 -8 0 -15 -5 -15 -11 0 -5 5 -7 10 -4 5 3 10 2 10 -4 0 -5 -5
-13 -11 -16 -6 -4 -8 -13 -5 -21 3 -7 1 -16 -4 -19 -6 -4 -10 -18 -9 -33 1
-26 1 -26 10 5 5 18 14 33 19 33 6 0 10 11 10 25 0 14 4 25 8 25 5 0 7 14 4
30 -2 17 -10 30 -18 30 -8 0 -14 3 -15 8 0 4 -2 30 -4 59 -3 51 -20 83 -45 83
-27 0 0 25 29 27 28 2 32 0 27 -15 -4 -11 0 -9 10 6 19 26 33 28 49 5 7 -9 14
-12 18 -6 4 6 -50 64 -120 129 -152 143 -181 194 -189 328 -5 70 -3 85 16 114
37 59 116 75 176 35 20 -13 24 -12 46 12 27 29 87 54 130 55 16 0 41 -12 61
-29z m1261 -186 c-3 -33 -6 -87 -8 -119 -2 -48 -7 -62 -24 -74 -32 -21 -29
-69 9 -120 23 -32 37 -42 57 -41 21 1 23 2 7 6 -11 3 -24 10 -30 15 -7 8 -5 9
8 5 27 -10 20 11 -10 25 -14 7 -29 20 -31 28 -4 12 -2 13 9 3 8 -7 25 -10 36
-7 18 5 21 2 16 -15 -3 -14 0 -23 11 -27 9 -4 25 -23 36 -43 14 -26 19 -30 20
-17 0 15 3 17 11 9 7 -7 9 -18 6 -26 -7 -19 -108 -18 -115 2 -3 9 1 11 17 6
23 -7 60 8 43 19 -6 3 -14 2 -17 -4 -5 -8 -11 -8 -19 -1 -7 6 -23 12 -37 15
-18 2 -23 9 -22 25 2 13 -3 21 -12 21 -8 0 -19 8 -24 19 -6 10 -22 22 -36 25
-32 8 -33 30 -1 24 21 -4 24 -1 29 36 3 23 2 42 -3 44 -13 5 0 32 15 32 17 0
31 53 15 58 -7 3 -6 12 6 29 12 20 14 38 9 79 -3 29 -3 75 1 101 l8 48 12 -60
c7 -33 10 -87 8 -120z m-1781 59 c-3 -8 0 -14 5 -14 6 0 12 8 15 18 2 10 7 2
11 -20 5 -21 14 -38 21 -38 7 0 15 -19 19 -42 12 -77 25 -112 60 -165 19 -29
31 -53 25 -53 -5 0 -4 -10 3 -21 11 -18 11 -23 0 -26 -9 -4 -10 -9 -2 -18 7
-9 6 -16 -5 -25 -12 -10 -13 -16 -4 -26 6 -8 9 -23 6 -34 -3 -11 -2 -22 2 -25
4 -2 7 -14 6 -27 -1 -17 -7 -22 -23 -20 -12 2 -22 -2 -22 -7 0 -6 4 -11 8 -11
4 0 8 -9 8 -20 0 -11 -4 -20 -8 -20 -4 0 -8 7 -8 15 0 8 -7 15 -15 15 -7 0
-18 6 -22 13 -4 8 -16 16 -25 20 -14 5 -18 17 -17 49 1 55 11 90 27 96 10 3
11 -11 6 -62 -5 -47 -3 -70 6 -81 23 -28 30 -16 24 40 -5 38 -3 55 5 55 6 0
11 -18 11 -45 0 -25 5 -45 10 -45 12 0 13 80 1 99 -5 8 -16 11 -25 8 -22 -9
-20 9 3 25 15 11 36 88 24 88 -15 0 -45 -42 -41 -58 4 -15 1 -18 -13 -15 -16
5 -19 16 -21 87 l-2 81 -6 -80 c-3 -44 -7 -74 -8 -67 -2 16 -31 46 -38 40 -2
-3 2 -18 11 -34 19 -36 19 -68 0 -119 l-14 -40 -2 45 c-1 25 -2 61 -3 81 -1
21 -9 46 -20 58 -15 16 -17 24 -8 33 9 9 12 9 12 -1 0 -7 3 -10 8 -8 4 3 5 29
3 59 -3 42 -6 48 -12 28 l-7 -25 -2 25 c-1 14 -2 28 -1 33 0 4 -4 7 -10 7 -7
0 -8 -16 -3 -45 3 -25 4 -51 0 -60 -9 -25 -36 -5 -36 27 0 17 -4 27 -10 23 -5
-3 -10 1 -10 10 0 10 -6 15 -13 12 -15 -6 -11 50 5 71 8 9 5 12 -9 12 -17 0
-20 -8 -22 -62 -3 -92 -11 -84 -11 10 0 66 3 82 15 82 8 0 15 5 15 10 0 6 -7
10 -16 10 -8 0 -12 5 -9 11 4 6 19 7 37 4 21 -5 28 -4 24 4 -4 6 -18 11 -31
11 -13 0 -27 5 -31 12 -5 8 4 9 34 4 26 -4 42 -2 42 4 0 5 -5 10 -11 10 -6 0
-18 7 -26 16 -15 14 -12 15 29 9 29 -4 48 -3 52 4 10 15 36 2 29 -15z m807
-456 c-21 -23 -17 -46 6 -27 11 9 14 8 14 -5 0 -14 13 -21 23 -13 2 1 11 -4
20 -12 14 -11 20 -11 32 -1 9 8 15 9 15 2 0 -6 -4 -14 -10 -17 -5 -3 -10 -15
-10 -26 0 -18 4 -19 38 -13 20 4 34 3 29 -1 -4 -5 -26 -10 -50 -11 -23 -2 -63
-6 -89 -10 -51 -7 -98 1 -98 16 0 6 11 8 25 4 18 -4 27 -1 32 11 6 16 7 16 18
2 8 -11 15 -13 26 -6 11 8 11 12 1 16 -9 4 -10 8 -2 18 15 18 -6 31 -26 14
-11 -9 -18 -8 -34 6 -16 14 -23 16 -32 7 -9 -9 -9 -12 0 -12 7 0 12 -5 12 -11
0 -6 -7 -8 -16 -5 -9 4 -13 2 -8 -5 4 -8 -1 -9 -15 -4 -23 7 -28 -4 -10 -22 7
-7 7 -13 1 -17 -6 -4 -18 4 -26 16 -21 29 -20 38 3 38 10 0 31 16 46 36 27 35
49 49 85 51 19 2 19 1 0 -19z m-864 -131 c-2 -74 -1 -78 9 -44 l10 37 18 -29
c14 -23 16 -42 11 -85 -5 -37 -3 -56 4 -56 10 0 6 -199 -4 -209 -2 -2 -4 37
-4 88 0 68 -3 93 -14 97 -9 4 -12 19 -10 52 4 43 3 44 -6 17 -6 -16 -11 -99
-12 -182 -1 -84 -6 -153 -10 -153 -4 0 -8 62 -8 138 0 75 -3 201 -7 280 -5
128 -5 142 10 136 13 -5 15 -20 13 -87z m1890 -212 c-7 -34 -7 -35 24 -29 17
4 30 2 30 -3 0 -6 -13 -13 -30 -16 -34 -7 -41 -27 -9 -27 11 0 17 5 14 10 -3
6 0 10 7 10 8 0 14 -9 14 -19 0 -13 -9 -21 -29 -25 -26 -5 -28 -8 -16 -23 13
-15 14 -15 17 0 6 30 32 19 32 -13 0 -22 -4 -28 -15 -24 -12 5 -15 -3 -15 -35
0 -24 5 -41 11 -41 7 0 9 10 7 25 -7 32 7 42 17 12 4 -12 7 -25 6 -29 -1 -5 3
-8 8 -8 4 0 7 30 5 68 l-3 67 12 -65 11 -65 6 50 5 50 7 -54 c4 -30 6 -57 3
-59 -2 -3 -28 -5 -57 -6 l-53 -1 2 38 c1 20 -3 37 -8 37 -5 0 -9 -16 -9 -35 0
-40 -14 -46 -25 -12 -7 21 -8 21 -12 -6 -5 -33 -26 -31 -31 2 -2 15 0 21 7 17
7 -5 11 2 11 18 0 14 4 27 9 30 5 4 7 -3 4 -14 -3 -11 0 -20 6 -20 6 0 11 14
11 31 0 17 -4 28 -10 24 -6 -4 -10 9 -9 32 0 37 1 37 12 13 11 -24 11 -23 14
20 4 61 13 110 20 110 3 0 2 -16 -1 -35z m117 -274 l47 -1 0 -128 0 -129 -412
-6 c-597 -10 -1701 -8 -1717 2 -11 7 -14 36 -14 125 0 64 2 118 4 120 2 2 395
6 873 10 479 3 871 7 872 9 2 2 131 1 347 -2z"/>
<path d="M1710 3535 c0 -8 -4 -15 -10 -15 -5 0 -10 -9 -10 -20 0 -13 -5 -18
-15 -14 -12 5 -14 0 -9 -25 5 -25 3 -31 -11 -31 -13 0 -15 -3 -6 -13 14 -17 4
-28 -17 -20 -12 4 -10 -1 6 -16 26 -26 28 -33 5 -29 -11 2 -19 -5 -21 -17 -3
-11 -9 -23 -15 -27 -7 -4 -7 -11 2 -22 9 -11 10 -16 2 -16 -6 0 -11 -6 -11
-14 0 -9 -7 -12 -20 -9 -15 4 -22 -2 -30 -23 -6 -15 -8 -34 -5 -41 6 -17 51
-13 48 4 -1 6 6 9 17 6 11 -3 20 0 20 6 0 5 6 8 13 6 7 -3 13 5 14 21 1 30 23
49 35 31 13 -22 22 4 11 33 -6 17 -9 39 -6 50 3 11 0 20 -6 20 -14 0 -14 27 0
32 6 2 14 27 17 56 2 29 8 52 12 52 4 0 7 11 6 25 -1 26 -16 36 -16 10z"/>
<path d="M828 2835 c-8 -9 31 -117 45 -127 7 -4 7 -11 0 -20 -13 -15 -7 -86 8
-105 6 -6 7 -18 3 -24 -5 -8 -3 -9 6 -4 9 5 10 2 6 -13 -4 -12 0 -34 9 -53 10
-18 14 -41 11 -55 -4 -14 -2 -24 4 -24 5 0 9 -10 9 -22 -1 -17 -2 -19 -6 -5
-8 32 -22 17 -28 -30 -4 -27 -9 -57 -11 -68 -2 -11 -1 -14 2 -8 11 26 37 -15
31 -50 -27 -155 -39 -186 -37 -87 2 91 1 114 -6 107 -3 -3 -7 -41 -9 -84 -2
-43 -8 -92 -13 -110 -9 -28 -8 -34 13 -47 15 -10 26 -12 30 -6 3 6 17 10 31
10 14 0 22 -4 19 -10 -3 -5 -2 -10 3 -10 5 0 10 -26 11 -57 2 -58 21 -102 61
-138 29 -26 25 -11 -10 37 -28 38 -41 86 -21 73 19 -11 19 12 0 28 -20 18 -25
37 -9 37 6 0 10 -6 10 -14 0 -21 54 -30 95 -16 37 12 40 17 26 38 -5 9 -17 11
-36 6 -20 -5 -26 -4 -21 5 4 6 13 11 19 11 7 0 24 6 38 14 51 26 131 48 158
43 15 -3 33 -2 41 4 10 6 -3 9 -41 9 -41 0 -78 -9 -130 -30 -87 -36 -125 -44
-134 -30 -4 6 -1 18 6 26 16 19 4 30 -16 14 -26 -22 -18 -49 18 -59 l32 -9
-32 -1 c-39 -1 -83 50 -63 74 8 10 9 19 0 35 -6 11 -8 31 -4 43 7 22 8 22 15
-3 6 -22 7 -20 8 13 1 31 -2 37 -19 37 -26 0 -26 16 0 23 20 5 24 37 7 53 -11
11 -8 36 3 29 6 -3 10 -2 10 4 0 5 -6 12 -12 14 -8 3 -6 6 5 6 9 1 17 6 17 12
0 5 -4 8 -8 5 -4 -2 -8 12 -9 32 -1 20 -5 55 -8 77 l-8 40 21 -25 c25 -30 28
-21 6 21 -11 23 -21 30 -35 26 -10 -3 -19 -1 -19 4 0 8 21 12 38 7 11 -4 21
85 11 97 -5 5 -9 -4 -9 -24 l0 -33 -29 24 c-26 20 -30 30 -33 86 -1 34 -7 62
-13 61 -5 0 -19 27 -30 61 -11 34 -23 58 -27 55z"/>
<path d="M1198 2030 c-21 -13 -24 -60 -4 -60 7 0 31 7 52 17 22 9 68 18 104
21 l65 4 -19 -21 c-11 -12 -16 -27 -12 -37 6 -16 8 -15 21 2 12 16 14 17 15 3
0 -13 10 -16 51 -15 28 1 54 7 58 14 5 9 12 8 27 -3 22 -17 34 -19 34 -5 0 12
-84 55 -126 64 -18 4 -65 9 -105 10 -41 2 -90 7 -109 10 -19 4 -43 2 -52 -4z"/>
<path d="M544 2359 c-2 -4 7 -19 21 -33 14 -14 25 -31 25 -38 0 -9 -3 -9 -10
2 -9 13 -13 11 -30 -10 -31 -38 -35 -67 -14 -98 27 -38 44 -99 44 -154 0 -37
3 -46 14 -42 10 4 12 13 6 33 -7 26 -6 29 18 29 24 0 25 -1 7 -14 -23 -17 -13
-29 13 -15 19 10 28 61 11 61 -5 0 -6 7 -3 15 8 19 -10 20 -25 1 -9 -11 -9
-15 1 -18 8 -3 6 -7 -5 -11 -25 -9 -22 29 3 43 11 6 20 18 20 27 0 13 -3 14
-12 5 -17 -17 -45 -15 -52 3 -3 9 3 19 17 26 18 9 20 9 10 -2 -17 -18 -16 -29
2 -29 8 0 15 5 15 10 0 6 7 10 15 10 8 0 15 -9 15 -19 0 -11 4 -21 9 -23 5 -1
10 -31 13 -65 3 -48 1 -64 -10 -68 -10 -3 -12 0 -8 10 7 19 -17 20 -33 1 -6
-7 -9 -21 -5 -30 7 -19 9 -19 34 -3 17 10 22 9 30 -3 5 -8 12 -12 15 -9 9 10
9 75 -1 90 -4 8 -7 24 -5 37 5 43 -51 189 -95 247 -13 18 -22 34 -19 37 3 2
-2 5 -10 5 -9 0 -18 -4 -21 -8z"/>
<path d="M1433 1092 c-25 -16 -34 -61 -18 -92 15 -28 21 -32 79 -45 27 -6 27
-7 10 -20 -11 -8 -17 -15 -14 -15 34 -7 60 -7 60 1 0 5 -4 9 -10 9 -5 0 -10 5
-10 10 0 6 7 10 15 10 8 0 15 5 15 11 0 6 -9 8 -20 4 -20 -6 -28 9 -10 20 13
8 13 55 0 55 -5 0 -18 10 -30 22 -15 16 -17 24 -8 30 8 5 2 8 -17 8 -16 0 -35
-4 -42 -8z"/>
<path d="M545 1471 c-55 -17 -92 -76 -80 -130 7 -32 49 -80 71 -82 8 -1 19 -2
26 -3 6 0 15 -14 19 -29 8 -29 7 -29 -38 -43 -7 -2 -13 -8 -13 -14 0 -7 12 -9
34 -4 34 6 35 5 42 -30 7 -40 31 -45 25 -5 -7 47 -6 53 14 57 37 7 42 24 6 20
-27 -2 -35 1 -42 20 -7 18 -2 28 26 53 39 36 53 85 36 127 -20 47 -81 77 -126
63z m53 -22 c43 -15 67 -68 52 -115 -21 -63 -90 -78 -138 -30 -44 43 -26 122
33 147 11 4 20 8 21 8 1 1 15 -4 32 -10z"/>
</g>
</svg>
