<?xml version="1.0" standalone="no"?>
<!DOCTYPE svg PUBLIC "-//W3C//DTD SVG 20010904//EN"
 "http://www.w3.org/TR/2001/REC-SVG-20010904/DTD/svg10.dtd">
<svg version="1.0" xmlns="http://www.w3.org/2000/svg"
 width="233.000000pt" height="400.000000pt" viewBox="0 0 233.000000 400.000000"
 preserveAspectRatio="xMidYMid meet">
<metadata>
Created by potrace 1.15, written by Peter Selinger 2001-2017
</metadata>
<g transform="translate(0.000000,400.000000) scale(0.100000,-0.100000)"
fill="#000000" stroke="none">
<path d="M1949 3966 c-2 -2 -256 -7 -564 -10 -994 -10 -1319 -18 -1327 -30 -4
-6 -7 -886 -8 -1955 l0 -1944 462 7 c255 4 748 7 1095 8 620 1 633 1 639 21 9
30 -8 3356 -20 3802 l-2 100 -135 3 c-74 1 -137 1 -140 -2z m247 -33 c4 -10
10 -592 13 -1293 2 -701 5 -1313 5 -1360 1 -47 0 -146 -2 -220 -1 -74 1 -224
4 -333 7 -227 11 -219 -86 -167 -30 17 -60 30 -67 30 -7 0 -28 -14 -48 -31
-31 -27 -38 -30 -64 -21 -15 5 -34 6 -42 2 -8 -5 -23 -3 -39 5 -14 8 -43 21
-64 30 -38 15 -40 15 -65 -9 -19 -17 -36 -23 -64 -22 l-37 1 -5 164 c-3 90 -8
168 -11 172 -19 31 -33 2235 -14 2284 11 30 -13 150 -36 177 -66 80 -108 108
-161 108 -36 0 -47 6 -80 41 -59 63 -73 96 -66 155 l5 51 -55 6 c-31 4 -67 3
-82 -3 -14 -5 -41 -10 -59 -10 -31 0 -132 -45 -165 -74 -9 -7 -26 -17 -38 -20
-19 -6 -23 -3 -23 13 0 24 -36 52 -58 44 -12 -5 -11 -8 7 -14 34 -13 36 -19
57 -274 2 -33 7 -70 10 -82 3 -18 0 -23 -16 -23 -16 0 -20 7 -20 34 0 19 -5
47 -10 62 -8 21 -8 29 2 36 10 6 11 10 0 16 -19 13 -33 71 -33 137 0 33 -4 67
-9 75 -14 22 -11 -81 6 -185 20 -128 20 -129 -17 -95 -17 15 -39 35 -48 43 -9
8 -34 38 -56 66 -22 29 -52 67 -67 85 -16 19 -28 38 -28 44 0 17 -49 42 -77
40 -16 -1 -43 6 -60 15 -43 23 -145 25 -176 3 -47 -33 -60 -46 -53 -53 4 -4
16 -2 26 5 25 16 25 16 26 -12 2 -21 -2 -23 -28 -19 -28 4 -28 3 -16 -18 7
-13 21 -32 31 -43 9 -11 17 -23 17 -28 0 -4 7 -5 15 -2 19 8 19 -10 0 -26 -8
-7 -14 -19 -13 -26 2 -7 1 -12 -2 -11 -12 3 -90 -48 -90 -60 0 -7 -4 -13 -8
-13 -12 0 -42 -56 -42 -79 0 -12 8 -25 18 -28 9 -4 20 -11 23 -16 4 -5 6 -83
6 -173 0 -115 4 -169 12 -177 8 -8 46 -12 110 -11 77 1 105 5 130 20 25 15 31
23 25 39 -4 11 -9 82 -11 157 l-4 138 27 23 27 24 -19 31 c-10 18 -22 32 -26
32 -4 0 -8 6 -8 14 0 19 -55 64 -86 72 -24 6 -24 7 -9 31 9 14 14 27 11 31 -3
3 -6 0 -6 -6 0 -6 -9 -10 -20 -9 -14 1 -20 8 -20 24 0 13 -5 23 -11 23 -6 0
-9 9 -6 20 3 11 1 20 -4 20 -5 0 -9 7 -9 15 0 8 5 15 10 15 6 0 10 -7 10 -15
0 -8 8 -15 18 -15 13 0 14 -2 4 -9 -9 -5 -11 -17 -6 -34 6 -26 24 -38 24 -16
0 5 4 8 9 4 5 -3 13 0 16 6 4 5 14 8 22 5 9 -4 22 -1 30 6 12 10 13 7 8 -14
-8 -30 9 -68 30 -68 9 0 15 -10 15 -25 0 -14 8 -44 19 -68 10 -23 24 -55 30
-71 7 -18 14 -105 17 -215 5 -205 9 -235 28 -228 18 7 37 -29 30 -58 -5 -19
-2 -25 11 -25 13 0 16 -6 12 -22 -3 -13 -9 -59 -12 -103 -8 -93 -8 -93 74
-119 55 -18 65 -15 75 19 3 11 3 -41 1 -115 -3 -74 -6 -218 -7 -318 -2 -164 0
-185 15 -193 9 -6 17 -21 17 -34 0 -13 6 -30 13 -37 15 -15 37 -235 37 -376 0
-134 31 -195 83 -163 16 11 22 10 35 -3 13 -13 17 -57 24 -238 5 -123 12 -270
17 -328 l8 -105 2 150 c0 83 -6 254 -14 380 -8 127 -17 282 -19 345 -13 297
-43 727 -52 741 -2 4 -8 76 -14 160 -5 85 -14 210 -19 279 -5 69 -13 196 -17
283 -7 167 -5 174 38 136 16 -14 20 -43 29 -210 5 -107 13 -257 17 -334 5 -77
6 -153 2 -170 -7 -34 -1 -115 9 -115 3 0 6 -37 7 -82 0 -46 3 -105 7 -133 12
-82 29 -311 32 -445 4 -142 14 -360 20 -435 13 -162 19 -206 26 -211 15 -9 10
-26 -6 -21 -8 4 -17 2 -20 -3 -4 -6 0 -10 8 -10 16 0 18 -110 2 -123 -7 -6 -6
-10 3 -14 16 -6 16 -30 0 -36 -8 -4 -7 -6 3 -6 20 -1 31 -77 15 -103 -7 -11
-6 -25 3 -44 9 -20 9 -30 2 -32 -6 -2 -11 -11 -11 -19 0 -13 2 -13 17 -2 14
12 16 12 11 -1 -3 -9 -17 -15 -34 -15 -25 0 -29 4 -32 33 -2 19 1 32 8 32 6 0
8 5 5 10 -9 15 -35 -14 -35 -39 0 -24 -3 -25 -28 -12 -9 6 -28 12 -42 15 -15
3 -46 24 -70 46 -45 41 -65 45 -77 13 -10 -29 -66 -83 -86 -83 -10 0 -33 -11
-50 -24 -51 -39 -108 -51 -161 -36 -29 8 -65 10 -97 6 -28 -4 -56 -3 -62 2 -7
5 -32 17 -57 26 l-46 17 -61 -30 c-34 -17 -63 -31 -65 -31 -5 0 -3 3458 2
3463 10 10 274 17 1045 27 435 6 806 12 825 13 19 2 81 4 136 5 88 2 103 0
110 -15z m-956 -268 c0 -8 -5 -15 -11 -15 -8 0 -7 -5 2 -16 11 -13 9 -14 -17
-8 -31 7 -32 7 -52 5 -20 -2 -3 -21 19 -21 10 0 19 -5 19 -11 0 -7 -13 -9 -37
-5 -21 4 -58 9 -82 13 -58 7 -46 -12 13 -21 25 -4 60 -18 79 -31 26 -17 38
-20 46 -12 14 14 31 -6 31 -35 0 -20 -15 -24 -26 -7 -5 8 -10 6 -16 -5 -11
-20 -28 -21 -28 -1 0 8 4 15 10 15 5 0 7 6 4 13 -6 17 -145 59 -181 55 -23 -3
-17 -6 32 -19 36 -9 59 -21 57 -28 -1 -7 5 -20 15 -29 16 -16 16 -16 11 5 -4
15 -2 20 7 17 7 -3 15 -19 17 -35 5 -32 4 -33 -20 -20 -9 4 -35 11 -57 15 -37
6 -39 5 -21 -9 11 -8 30 -15 42 -15 13 0 26 -5 29 -10 14 -22 81 -47 115 -43
30 4 38 0 58 -26 12 -17 31 -31 41 -31 10 0 24 -6 31 -14 9 -12 7 -17 -9 -28
-12 -7 -21 -22 -21 -33 0 -14 -7 -20 -24 -21 -18 -1 -28 7 -41 34 -9 20 -26
43 -38 52 -36 26 -91 59 -117 70 -14 5 -32 15 -40 20 -68 46 -125 55 -202 34
-15 -4 -18 1 -18 33 0 66 9 83 41 83 16 0 29 5 29 11 0 27 80 71 145 80 99 13
165 10 165 -6z m-787 -63 c45 -24 48 -28 43 -56 -3 -16 -11 -35 -18 -43 -10
-12 -14 -11 -28 7 -16 22 -18 22 -43 5 -25 -16 -29 -16 -52 -1 -36 24 -34 49
4 41 33 -7 81 3 81 17 0 5 -15 6 -32 3 -51 -8 -132 7 -136 27 -8 42 103 42
181 0z m635 -192 c54 -26 92 -50 92 -58 0 -12 -3 -12 -15 -2 -13 11 -14 10 -9
-4 3 -9 12 -16 20 -16 17 0 17 -5 4 -31 -13 -23 -7 -25 14 -3 15 14 16 14 16
0 0 -9 5 -16 10 -16 6 0 10 -5 10 -11 0 -8 -5 -7 -15 1 -9 7 -19 9 -23 5 -4
-4 -1 -10 6 -12 17 -7 15 -38 -5 -54 -15 -13 -15 -12 -5 8 14 26 15 33 3 33
-5 0 -13 -10 -17 -22 l-6 -21 -12 22 -12 22 -14 -25 c-10 -20 -11 -31 -2 -51
6 -14 17 -25 24 -25 9 0 10 3 2 8 -16 10 -25 45 -15 60 7 11 9 11 14 -2 4 -9
18 -21 32 -26 30 -11 34 -30 5 -23 -15 4 -20 0 -20 -13 0 -16 2 -16 10 -4 19
31 18 2 -1 -38 -25 -50 -34 -54 -25 -10 3 17 3 29 0 25 -8 -8 -44 36 -44 54 0
7 -3 9 -7 6 -3 -4 -1 -18 6 -31 8 -13 11 -30 8 -38 -4 -9 -8 -6 -12 10 -9 26
-22 29 -28 5 -4 -14 -5 -14 -6 3 -1 20 -10 23 -53 15 -5 0 -8 -9 -8 -18 0 -15
-2 -14 -19 3 -19 21 -41 58 -41 69 0 3 9 3 21 0 19 -6 20 -4 14 25 -4 18 -16
41 -26 51 -10 10 -19 23 -19 28 0 5 -16 26 -35 47 -96 107 6 137 183 54z m433
-137 c19 -27 39 -57 43 -68 7 -18 8 -287 3 -935 -1 -107 0 -313 2 -458 2 -144
1 -266 -3 -269 -3 -3 -6 8 -6 25 0 17 -4 33 -9 37 -14 8 -25 -15 -13 -27 6 -6
8 -17 5 -24 -3 -8 2 -17 11 -20 15 -6 15 -8 -1 -19 -15 -11 -20 -10 -31 6 -10
14 -25 19 -62 19 -58 0 -79 -19 -23 -22 64 -2 66 -3 71 -16 2 -6 10 -12 18
-12 18 0 18 -17 0 -27 -8 -4 -18 -21 -22 -37 -6 -26 -5 -28 15 -21 11 3 21 2
21 -3 0 -11 -39 -21 -57 -15 -9 3 -9 12 -2 29 12 34 12 34 -15 34 -14 0 -31 7
-39 15 -19 18 -76 139 -107 223 -15 42 -27 61 -36 58 -18 -7 -20 -2 -45 105
-11 52 -23 104 -26 117 -4 18 -1 22 19 22 33 0 38 7 28 36 -6 15 -5 26 2 30
17 10 -15 24 -40 17 -26 -6 -27 -12 -7 -40 12 -18 13 -22 1 -26 -18 -7 -23 13
-41 170 -8 69 -18 130 -22 136 -3 6 -7 22 -8 36 -2 14 -6 44 -9 66 -6 31 -5
36 4 23 12 -19 50 -25 50 -8 0 6 -4 10 -9 10 -5 0 -12 23 -16 52 -6 45 -9 50
-20 35 -11 -15 -13 -16 -19 -2 -6 18 -32 20 -42 4 -3 -6 -1 -15 7 -19 10 -7
10 -11 0 -24 -12 -14 -17 -12 -44 15 -24 25 -28 33 -16 40 11 7 9 9 -8 9 -12
0 -25 5 -28 10 -3 6 1 10 9 10 23 0 20 17 -4 23 -23 6 -27 27 -5 27 8 0 15 5
15 10 0 6 -9 10 -20 10 -16 0 -20 7 -20 33 0 19 -6 47 -14 63 -8 18 -16 79
-19 159 -6 144 -17 183 -56 191 -47 10 -55 14 -45 24 5 4 23 10 39 13 23 3 20
4 -14 6 -33 1 -42 4 -38 16 4 8 2 17 -3 20 -20 12 -9 24 33 34 l42 10 -47 -2
c-51 -2 -61 6 -29 23 51 27 97 1 146 -80 24 -41 38 -46 60 -24 16 16 18 16 29
2 7 -9 29 -19 49 -23 32 -6 36 -10 25 -22 -10 -12 -9 -18 7 -29 17 -12 17 -14
2 -14 -9 0 -17 -4 -17 -10 0 -5 -11 -10 -25 -10 -14 0 -25 4 -25 10 0 5 8 7
18 4 15 -5 15 -4 -1 6 -17 11 -17 13 -3 23 15 11 14 13 -4 25 -17 10 -21 10
-19 0 1 -7 -1 -20 -4 -28 -3 -8 -8 -31 -10 -50 -2 -20 -4 -9 -5 28 -1 34 -5
62 -10 62 -4 0 -7 -21 -6 -47 1 -27 2 -99 3 -160 l2 -113 33 0 c48 0 96 -11
96 -22 0 -6 -26 -8 -60 -6 -69 3 -85 -16 -21 -26 42 -6 101 9 101 27 0 27 -19
38 -76 45 -46 5 -60 11 -62 25 -3 15 1 18 16 13 38 -13 92 -16 92 -6 0 6 -7
10 -15 10 -8 0 -15 5 -15 11 0 18 43 5 46 -14 4 -30 13 -32 23 -6 7 18 10 -5
11 -86 0 -60 4 -116 9 -123 4 -7 6 12 5 45 -2 39 -1 50 4 33 6 -17 9 0 10 57
1 45 -2 92 -6 104 -5 13 -5 34 1 48 10 30 -7 86 -23 76 -5 -3 -11 -27 -11 -53
l-1 -47 -9 40 c-13 64 -11 85 8 85 9 0 27 -10 39 -21 27 -25 51 -20 56 13 2
15 9 22 20 20 22 -3 31 29 23 79 -4 25 -3 45 5 54 6 8 9 18 6 24 -7 11 31 80
54 98 8 7 23 13 32 13 10 0 23 7 30 15 21 23 32 18 69 -32z m-1238 -90 c-3 -7
1 -13 8 -13 19 0 20 -209 1 -229 -7 -7 -16 -10 -20 -7 -3 4 -1 11 6 15 10 6 8
13 -7 32 -11 13 -20 18 -21 12 0 -7 5 -13 10 -13 14 0 12 -19 -3 -34 -10 -11
-15 -10 -27 2 -13 14 -12 15 3 9 21 -8 22 6 2 23 -20 16 -22 152 -2 149 25 -3
35 1 41 18 6 16 6 16 -12 0 -20 -18 -42 -7 -42 23 1 12 3 11 11 -4 9 -15 13
-16 20 -5 5 8 9 19 9 24 0 6 -4 4 -9 -3 -7 -11 -9 -11 -14 2 -5 13 0 16 22 14
19 -1 27 -7 24 -15z m518 -48 c6 -25 15 -48 20 -51 5 -3 9 -12 9 -20 0 -8 -4
-13 -9 -10 -5 4 -20 2 -33 -3 -20 -8 -21 -10 -5 -16 9 -4 24 -5 32 -1 9 3 15
0 15 -9 0 -9 -10 -15 -26 -15 -14 0 -23 -4 -19 -10 3 -5 15 -10 26 -10 10 0
19 -4 19 -10 0 -5 -11 -10 -25 -10 -14 0 -25 -4 -25 -10 0 -5 14 -10 31 -10
17 0 28 -4 24 -10 -3 -5 -17 -10 -31 -10 -13 0 -24 -4 -24 -10 0 -5 14 -10 30
-10 17 0 30 -4 30 -10 0 -5 -14 -10 -31 -10 -19 0 -28 -4 -23 -11 3 -6 17 -9
30 -6 19 3 24 0 24 -16 0 -14 -5 -18 -20 -14 -11 3 -20 1 -20 -5 0 -5 9 -12
20 -15 31 -8 24 -23 -11 -23 -17 0 -28 -4 -24 -10 3 -5 19 -10 36 -10 16 0 29
-4 29 -10 0 -5 -14 -10 -32 -10 -34 0 -29 -15 7 -22 28 -5 33 -38 6 -38 -12 0
-21 -4 -21 -10 0 -5 9 -10 20 -10 13 0 20 -7 20 -20 0 -14 -7 -20 -21 -20 -28
0 -19 -23 12 -31 23 -7 23 -7 -4 -8 -18 -1 -27 -6 -24 -13 2 -7 14 -12 26 -11
13 2 21 -3 21 -12 0 -11 -7 -14 -25 -11 -23 4 -25 2 -22 -21 3 -25 33 -46 50
-36 4 2 7 -3 7 -13 0 -12 -6 -15 -25 -11 -16 3 -24 0 -22 -7 2 -6 13 -12 25
-14 33 -5 26 -22 -9 -22 -17 0 -28 -4 -24 -10 3 -5 17 -10 30 -10 13 0 27 -4
30 -10 4 -6 -5 -10 -21 -10 -22 0 -25 -2 -14 -15 7 -8 19 -15 26 -15 8 0 14
-4 14 -10 0 -5 -13 -10 -30 -10 -35 0 -40 -14 -7 -25 l22 -8 -22 -4 c-13 -2
-23 -8 -23 -13 0 -4 10 -11 23 -15 l22 -8 -22 -4 c-27 -5 -31 -23 -5 -23 16
-1 16 -1 0 -14 -22 -17 -13 -26 25 -26 17 0 27 -3 24 -7 -4 -3 -20 -6 -37 -5
-16 0 -30 -3 -30 -8 0 -10 25 -20 51 -20 10 0 19 -4 19 -10 0 -5 -17 -10 -37
-10 -43 0 -34 -18 10 -22 15 -1 27 -6 27 -11 0 -5 -13 -7 -30 -4 -16 4 -32 2
-35 -3 -3 -6 -1 -10 5 -10 6 0 10 -8 8 -17 -2 -14 5 -19 30 -21 41 -4 42 -22
1 -22 -17 0 -28 -4 -24 -10 3 -5 17 -10 30 -10 13 0 27 -4 30 -10 4 -6 -5 -10
-19 -10 -14 0 -26 -4 -26 -10 0 -5 9 -10 20 -10 11 0 20 -4 20 -10 0 -5 -7
-10 -16 -10 -9 0 -14 -6 -11 -12 2 -7 11 -12 20 -12 9 1 14 -2 11 -7 -3 -5
-14 -9 -25 -9 -24 0 -26 -20 -1 -21 9 -1 20 -1 25 0 17 3 5 -17 -13 -22 -27
-7 -25 -27 3 -28 l22 -2 -23 -4 c-28 -5 -24 -27 6 -31 12 -2 22 -10 22 -17 0
-8 -6 -12 -14 -9 -8 3 -17 0 -21 -6 -4 -7 2 -14 14 -17 29 -7 26 -23 -4 -23
-27 0 -32 -9 -13 -28 10 -10 10 -15 -2 -22 -12 -8 -12 -12 -2 -18 7 -5 10 -16
6 -25 -6 -16 4 -22 34 -18 6 1 12 -3 12 -9 0 -5 -12 -10 -26 -10 -19 0 -25 -4
-22 -17 2 -12 11 -17 26 -15 15 2 22 -2 22 -12 0 -11 -9 -16 -26 -16 -16 0
-24 -5 -21 -12 2 -7 13 -13 25 -13 34 -1 36 -13 2 -20 -37 -8 -35 -29 3 -33
34 -4 25 -22 -9 -22 -34 0 -26 -24 9 -28 37 -4 34 -22 -3 -22 -20 0 -30 -5
-30 -15 0 -9 9 -15 25 -15 14 0 25 -4 25 -10 0 -5 -7 -10 -16 -10 -15 0 -15
-2 -1 -24 15 -23 15 -24 -6 -30 -26 -7 -62 15 -70 43 -3 12 -2 21 3 21 4 0 10
-9 13 -20 3 -12 13 -20 24 -19 16 1 16 2 1 6 -23 6 -35 76 -43 248 -5 124 -17
289 -30 410 -2 22 -4 68 -4 103 -1 45 -4 61 -12 56 -9 -5 -10 -40 -6 -120 4
-63 2 -114 -2 -114 -5 0 -11 6 -13 13 -2 6 0 149 4 317 7 285 4 461 -8 538 -4
23 -10 32 -24 32 -11 0 -20 5 -20 10 0 6 9 10 20 10 11 0 20 5 20 10 0 6 -9
10 -21 10 -25 0 -20 22 7 30 24 6 29 29 9 36 -19 8 -19 24 0 24 16 0 20 16 6
24 -12 8 -14 146 -1 146 5 0 10 -7 10 -15 0 -15 21 -21 33 -9 9 9 -30 47 -41
40 -11 -7 -22 16 -22 45 0 14 7 19 25 19 21 0 26 -7 36 -45z m-101 -112 c-1
-25 -2 -26 -13 -11 -9 11 -18 14 -28 7 -12 -8 -12 -10 1 -19 13 -9 13 -11 0
-20 -12 -8 -9 -10 13 -10 16 0 27 -5 27 -14 0 -9 -7 -12 -20 -9 -11 3 -20 0
-20 -6 0 -6 9 -11 20 -11 28 0 25 -14 -7 -30 -23 -11 -25 -14 -10 -17 9 -3 17
-9 17 -14 0 -5 -8 -9 -17 -9 -17 -1 -17 -2 0 -15 18 -13 18 -14 -2 -25 -24
-13 -30 -53 -6 -44 8 4 15 1 15 -5 0 -6 -6 -11 -14 -11 -8 0 -21 -3 -30 -6
-11 -4 -16 0 -16 14 0 31 -11 52 -26 52 -10 0 -14 13 -13 43 1 58 10 79 29 67
13 -8 13 -11 1 -19 -15 -9 -8 -81 8 -81 11 0 31 102 31 155 0 44 13 65 42 65
13 0 18 -8 18 -27z m294 -615 c3 -24 8 -92 11 -152 8 -131 38 -387 49 -404 7
-12 36 -17 36 -6 0 3 -4 13 -9 22 -10 18 -36 212 -33 247 1 11 2 82 2 158 1
108 4 137 14 137 8 0 17 7 20 16 14 37 24 -5 31 -133 12 -244 38 -386 75 -413
3 -3 15 -41 26 -85 16 -67 23 -81 40 -83 16 -2 23 -12 27 -36 3 -19 24 -71 46
-117 33 -68 49 -90 85 -113 35 -24 44 -35 43 -55 -2 -20 3 -26 20 -26 11 0 24
-3 28 -7 4 -4 13 -4 21 -1 8 3 14 0 14 -5 0 -17 -21 -25 -33 -13 -14 14 -57
15 -57 1 0 -5 8 -10 18 -11 13 0 12 -2 -5 -9 -13 -5 -23 -14 -23 -19 0 -19 21
-23 43 -9 36 23 57 29 57 15 0 -13 -54 -37 -83 -37 -17 0 -24 -25 -9 -34 5 -3
21 2 36 10 33 16 66 19 66 4 0 -5 -4 -11 -10 -11 -5 -1 -16 -2 -22 -3 -7 -1
-12 -9 -10 -19 3 -18 -14 -24 -20 -7 -1 5 -13 7 -26 3 -31 -8 -22 -29 12 -25
14 1 26 -2 26 -8 0 -5 -11 -10 -25 -10 -16 0 -25 -6 -25 -16 0 -13 7 -15 31
-10 24 4 30 3 26 -8 -3 -7 0 -19 6 -25 8 -8 8 -11 -1 -11 -7 0 -12 -4 -12 -10
0 -5 9 -10 19 -10 11 0 23 -4 26 -10 4 -6 -7 -10 -24 -10 -17 0 -31 5 -31 10
0 6 -9 10 -19 10 -17 0 -19 -6 -17 -47 1 -43 4 -48 24 -46 12 2 22 -2 22 -7 0
-6 11 -10 25 -10 14 0 25 -4 25 -10 0 -5 -11 -10 -25 -10 -14 0 -25 5 -25 10
0 6 -9 10 -20 10 -11 0 -20 -4 -20 -10 0 -5 8 -10 18 -10 10 0 13 -3 6 -8 -6
-4 -10 -28 -9 -54 2 -37 -2 -48 -13 -48 -12 0 -12 -3 4 -15 19 -14 19 -14 -1
-15 l-20 -1 20 -9 c17 -7 17 -9 3 -9 -22 -1 -24 -21 -3 -21 8 0 15 -5 15 -11
0 -6 -10 -9 -22 -7 -23 3 -23 6 -25 148 -3 162 -10 230 -24 230 -5 0 -9 -4 -9
-10 0 -5 -7 -10 -15 -10 -8 0 -15 -4 -15 -10 0 -5 7 -10 15 -10 8 0 15 -4 15
-10 0 -5 -7 -10 -15 -10 -8 0 -15 -6 -15 -14 0 -8 -6 -17 -12 -19 -7 -3 -3 -6
9 -6 29 -1 39 -19 16 -28 -37 -13 -44 -42 -10 -44 l22 -2 -22 -4 c-28 -5 -30
-23 -3 -23 11 0 20 -4 20 -9 0 -4 -11 -6 -25 -3 -15 2 -25 0 -25 -7 0 -6 8
-12 18 -12 16 -1 16 -2 0 -6 -27 -7 -22 -23 6 -23 14 0 28 -4 31 -10 4 -6 -6
-10 -22 -10 -23 0 -28 -5 -29 -25 -1 -14 2 -22 7 -19 5 3 17 0 26 -6 15 -9 11
-10 -19 -6 -21 2 -38 1 -38 -5 0 -5 9 -9 19 -9 11 0 22 -4 25 -9 3 -4 -6 -6
-19 -3 -14 2 -25 0 -25 -6 0 -6 18 -13 40 -17 35 -6 40 -10 40 -33 0 -14 -3
-22 -7 -18 -5 4 -8 13 -8 19 0 7 -16 13 -35 14 -19 1 -26 -1 -15 -4 34 -9 41
-23 11 -23 -17 0 -25 -4 -21 -11 4 -6 13 -8 21 -5 7 3 16 1 19 -4 4 -6 -4 -10
-17 -11 l-23 0 23 -9 c12 -5 22 -12 22 -15 0 -4 -4 -4 -9 0 -5 3 -12 1 -16 -5
-3 -5 1 -10 9 -10 9 0 16 -4 16 -10 0 -5 -6 -7 -14 -4 -25 10 -26 -13 -1 -26
14 -7 25 -20 25 -29 0 -11 -3 -11 -14 4 -10 13 -25 19 -52 18 -22 0 -33 2 -26
4 17 6 15 23 -3 23 -8 0 -15 5 -15 10 0 6 7 10 15 10 25 0 20 86 -5 102 -25
16 -26 37 -2 54 14 11 15 16 5 33 -7 12 -13 28 -13 36 0 16 -16 20 -24 6 -7
-10 -46 -3 -46 9 0 4 12 5 26 2 19 -3 25 -1 20 7 -4 6 -1 11 8 11 17 0 18 5
20 57 1 23 -4 33 -16 37 -22 5 -24 26 -3 26 8 0 15 9 15 20 0 26 -30 60 -52
60 -23 0 -24 20 0 21 13 0 12 3 -5 11 -13 6 -23 15 -23 20 0 5 4 7 9 3 5 -3
12 -1 15 4 3 5 -1 11 -9 15 -8 3 -15 10 -15 15 0 6 7 8 15 5 8 -4 15 -1 15 5
0 6 -7 11 -15 11 -21 0 -19 27 3 39 16 9 16 11 -3 25 -16 13 -17 15 -2 10 21
-7 23 14 2 22 -17 7 -22 94 -5 94 6 0 10 5 10 11 0 6 -7 9 -15 5 -12 -4 -15 6
-15 64 0 66 -13 99 -26 66 -3 -9 -10 -13 -15 -10 -5 3 -9 -2 -9 -10 0 -9 4
-16 9 -16 6 0 9 -21 9 -47 -2 -71 7 -130 23 -149 11 -13 11 -18 2 -21 -8 -3
-13 -21 -13 -44 0 -21 -5 -39 -11 -39 -6 0 -7 -5 -2 -12 4 -7 9 -24 10 -38 3
-19 1 -22 -6 -10 -8 11 -13 12 -22 3 -14 -14 -2 -36 17 -29 8 3 11 0 7 -10 -8
-21 -22 -17 -33 9 -5 12 -13 154 -18 315 -6 178 -13 297 -20 304 -19 19 -21
-26 -9 -342 11 -286 14 -315 30 -318 9 -2 17 -8 17 -14 0 -6 -10 -8 -25 -4
-18 5 -25 2 -25 -9 0 -8 12 -17 28 -21 15 -3 38 -10 52 -15 22 -8 21 -9 -8 -4
-25 3 -34 0 -39 -13 -4 -9 -11 -20 -17 -25 -7 -5 -5 -12 7 -21 24 -18 21 -29
-5 -20 -30 9 -31 9 -33 41 -1 16 -5 66 -9 113 -4 47 -9 135 -11 195 -2 61 -8
169 -14 240 -5 72 -13 180 -16 240 -6 121 -8 145 -26 287 -6 54 -9 105 -5 114
3 9 1 44 -5 78 -12 65 -4 216 11 216 5 0 11 -19 14 -42z m101 -1798 c3 -5 19
-10 35 -10 17 0 33 -7 39 -17 6 -12 20 -17 40 -15 44 3 39 -9 -17 -40 -26 -14
-58 -38 -71 -52 -24 -25 -24 -26 -5 -47 20 -22 33 -22 154 7 135 32 200 55
200 70 0 10 6 13 18 10 10 -4 34 1 52 10 30 15 38 16 73 3 51 -18 69 -45 44
-64 -13 -9 -16 -20 -11 -40 6 -23 4 -26 -7 -19 -36 22 -199 8 -184 -17 3 -4
28 -11 55 -15 108 -14 27 -22 -246 -23 -219 -1 -284 1 -278 10 4 8 3 9 -5 5
-6 -4 -19 -2 -28 5 -8 7 -25 18 -36 24 -37 18 -31 40 19 74 32 21 51 28 58 21
17 -17 65 -11 86 10 11 11 31 20 44 20 14 0 28 5 32 11 4 7 -6 10 -32 7 -39
-3 -39 -3 -45 40 -5 40 2 54 16 32z m-201 -91 c23 -7 45 -14 49 -17 4 -2 -12
-17 -37 -33 -26 -16 -46 -35 -46 -42 0 -7 -16 -19 -36 -26 -20 -7 -46 -23 -57
-35 -21 -20 -31 -21 -359 -26 l-338 -5 0 46 c0 40 3 48 22 52 27 8 38 -1 18
-13 -13 -8 -12 -10 2 -10 9 0 20 5 23 10 3 6 15 10 26 10 11 0 24 11 30 24
l11 24 47 -20 c75 -33 95 -37 121 -23 18 10 32 10 69 -2 36 -11 57 -11 100 -2
63 13 101 28 101 41 0 4 13 8 30 8 21 0 39 11 67 41 21 22 42 47 46 55 6 11
14 8 39 -15 17 -16 49 -35 72 -42z m903 30 c16 -16 80 -30 141 -31 40 -1 60 4
82 20 37 28 40 27 100 -3 27 -14 60 -25 74 -25 31 0 32 -4 28 -90 l-4 -70
-133 0 c-111 0 -141 3 -180 20 -26 11 -59 20 -75 20 -36 0 -112 57 -121 90 -5
20 0 31 25 52 34 30 47 33 63 17z m425 -354 l3 -135 -315 0 c-173 0 -658 -3
-1077 -6 l-763 -6 0 135 0 135 323 4 c177 3 502 6 721 7 220 1 401 2 402 4 1
1 160 1 353 -1 l350 -2 3 -135z"/>
<path d="M1013 3875 c2 -5 14 -11 26 -13 20 -3 22 -8 19 -55 -3 -44 -6 -52
-22 -52 -11 0 -21 -5 -23 -11 -4 -13 277 -6 292 7 5 6 1 9 -10 10 -11 1 -26 2
-33 3 -7 0 -20 13 -29 28 -15 24 -15 28 0 52 11 16 27 26 42 26 13 0 27 5 30
11 5 7 -40 9 -144 7 -95 -2 -150 -7 -148 -13z"/>
<path d="M2047 1043 c-4 -3 -7 -14 -7 -24 0 -10 -9 -20 -19 -24 -32 -10 -34
-35 -3 -36 l27 -1 -25 -7 c-16 -4 -25 -14 -25 -26 0 -12 9 -21 25 -25 25 -6
25 -6 3 -12 -18 -5 -23 -13 -23 -40 0 -25 3 -29 10 -18 5 8 10 23 10 33 0 29
17 19 24 -14 3 -17 6 -62 6 -100 0 -51 3 -69 13 -69 11 0 13 20 9 99 l-5 98
52 7 c86 11 80 66 -7 66 -50 0 -53 11 -3 12 17 1 31 3 31 5 0 13 -32 33 -52
33 l-22 0 22 16 c12 8 20 20 17 25 -7 10 -48 12 -58 2z"/>
<path d="M940 3022 c0 -6 4 -13 9 -17 10 -6 12 -15 32 -198 9 -79 17 -115 32
-133 28 -36 39 -17 21 35 -9 26 -18 100 -21 178 -5 118 -8 133 -24 133 -9 0
-24 3 -33 6 -9 3 -16 1 -16 -4z"/>
<path d="M1305 1782 c-13 -14 -2 -22 33 -23 31 -1 33 -2 13 -8 -40 -11 -38
-31 3 -31 20 0 36 -4 36 -10 0 -5 -11 -10 -25 -10 -31 0 -33 -20 -2 -21 17 -1
18 -2 4 -6 -10 -3 -16 -10 -14 -16 5 -17 197 -36 197 -21 0 7 -24 15 -54 18
-105 14 -118 24 -29 25 73 1 82 3 88 22 7 22 -5 43 -12 22 -3 -9 -28 -13 -75
-13 -80 0 -84 16 -5 19 9 1 17 6 17 11 0 6 -21 10 -47 11 -43 0 -45 1 -23 11
14 6 21 12 15 13 -21 7 -115 12 -120 7z"/>
<path d="M1549 277 c6 -8 12 -41 13 -75 2 -50 6 -62 19 -62 14 0 16 8 12 48
l-5 47 19 -35 c23 -44 49 -50 64 -16 17 36 29 32 29 -9 0 -32 12 -46 24 -27 2
4 6 36 7 71 2 57 0 65 -17 67 -14 2 -24 -9 -40 -44 l-20 -47 -28 48 c-24 40
-33 47 -58 47 -24 0 -28 -3 -19 -13z"/>
</g>
</svg>
