<?xml version="1.0" standalone="no"?>
<!DOCTYPE svg PUBLIC "-//W3C//DTD SVG 20010904//EN"
 "http://www.w3.org/TR/2001/REC-SVG-20010904/DTD/svg10.dtd">
<svg version="1.0" xmlns="http://www.w3.org/2000/svg"
 width="233.000000pt" height="400.000000pt" viewBox="0 0 233.000000 400.000000"
 preserveAspectRatio="xMidYMid meet">
<metadata>
Created by potrace 1.15, written by Peter Selinger 2001-2017
</metadata>
<g transform="translate(0.000000,400.000000) scale(0.100000,-0.100000)"
fill="#000000" stroke="none">
<path d="M469 3963 c-8 -2 -102 -4 -209 -5 l-195 -3 -2 -765 c-1 -557 1 -768
9 -778 8 -9 8 -16 1 -20 -14 -9 -27 -352 -13 -352 6 0 10 29 10 68 0 63 2 71
30 97 28 27 30 27 55 11 23 -15 26 -22 20 -56 -6 -34 -3 -43 28 -77 47 -51 51
-76 14 -80 -24 -2 -27 1 -22 17 5 15 2 18 -8 14 -22 -8 -30 13 -33 81 -2 44
-7 61 -18 63 -42 9 -67 -130 -32 -183 15 -23 23 -26 49 -22 66 10 78 -15 15
-31 -54 -14 -98 6 -98 43 0 14 -5 25 -11 25 -8 0 -9 -13 -5 -41 9 -54 8 -1727
0 -1841 l-7 -87 38 -7 c21 -4 221 -3 444 1 223 4 702 11 1064 14 l659 6 -2
1365 c-1 751 -3 1628 -5 1950 l-3 585 -24 2 c-33 3 -1731 9 -1749 6z m31 -32
c0 -15 -11 -19 -72 -25 -107 -9 -257 -25 -305 -32 l-43 -6 0 35 c0 35 1 36 43
40 23 2 117 4 210 5 157 2 167 1 167 -17z m1254 -33 c-8 -72 -21 -121 -51
-198 -34 -84 -73 -142 -147 -212 l-60 -57 57 -85 c31 -47 57 -92 57 -100 0
-37 -22 -21 -61 45 -55 93 -63 75 -9 -20 25 -44 39 -79 35 -89 -4 -12 -17 3
-45 53 -46 82 -53 71 -10 -15 17 -33 30 -66 30 -75 0 -30 -18 -14 -39 34 -11
28 -26 53 -31 56 -15 9 -13 2 15 -61 14 -31 22 -60 19 -65 -7 -12 -24 -12 -24
0 0 18 -31 83 -37 77 -3 -3 2 -23 12 -45 25 -56 13 -75 -13 -21 -17 34 -20 37
-15 15 4 -16 7 -42 7 -56 l1 -25 48 24 c26 14 47 29 47 33 0 5 5 9 11 9 5 0 7
-4 4 -10 -3 -5 -2 -10 3 -10 5 0 12 13 15 30 4 16 15 38 25 48 10 10 16 24 14
30 -2 7 1 12 6 12 11 0 52 108 52 139 0 14 4 20 11 15 8 -4 9 1 4 16 -8 26 11
96 33 122 13 16 12 20 -9 37 -13 11 -27 20 -31 21 -10 0 -10 40 0 40 4 0 24
-11 44 -25 29 -19 35 -29 31 -47 -3 -13 -12 -28 -20 -35 -20 -16 -35 -77 -35
-138 0 -40 -2 -45 -9 -25 -5 17 -7 -1 -5 -52 2 -63 0 -74 -10 -60 -7 9 -10 31
-8 47 4 28 4 29 -6 6 -6 -13 -8 -33 -4 -44 4 -12 2 -17 -4 -13 -5 3 -15 -1
-22 -9 -7 -8 -9 -15 -5 -15 4 0 2 -6 -4 -13 -6 -8 -7 -17 -3 -21 4 -4 0 -6 -8
-4 -11 2 -14 -4 -12 -22 2 -20 0 -22 -9 -10 -9 12 -10 10 -6 -8 5 -23 -22 -62
-43 -62 -5 0 -10 -5 -10 -11 0 -5 -5 -7 -12 -3 -9 6 -9 9 0 12 7 2 12 8 12 13
0 4 -7 6 -15 3 -8 -4 -15 -15 -15 -25 0 -10 -5 -19 -11 -19 -5 0 -7 5 -4 10 8
13 -6 13 -39 0 -14 -5 -26 -17 -26 -27 0 -13 -3 -14 -12 -5 -9 9 -8 15 7 26
17 12 17 17 5 60 -7 26 -17 49 -23 53 -6 4 -8 -3 -3 -18 4 -13 9 -39 13 -56 9
-50 -13 -40 -26 12 -6 25 -14 45 -17 45 -11 0 7 -95 19 -102 6 -4 8 -10 5 -14
-12 -12 -39 25 -45 61 -3 19 -10 35 -14 35 -13 0 -3 -84 10 -88 6 -2 11 -10
11 -18 0 -13 -5 -12 -30 3 -18 10 -28 23 -25 31 6 17 -5 62 -15 62 -5 0 -6
-16 -3 -35 7 -41 -3 -46 -17 -9 -12 31 6 104 26 104 8 0 23 20 34 44 11 25 24
48 30 51 6 3 17 19 25 36 14 26 14 29 0 29 -8 0 -15 -8 -15 -17 0 -9 -10 -27
-21 -39 -17 -18 -26 -21 -40 -13 -13 6 -19 6 -19 -1 0 -5 5 -10 11 -10 15 0 7
-63 -9 -68 -11 -3 -12 0 -2 18 6 12 9 25 5 28 -9 10 -25 -20 -25 -48 0 -14
-10 -43 -23 -65 -19 -34 -28 -40 -60 -43 -32 -3 -41 2 -65 29 -39 46 -51 70
-52 102 0 15 -4 27 -10 27 -5 0 -10 9 -10 20 0 17 -7 20 -40 20 -27 0 -43 5
-46 15 -4 8 -11 15 -17 15 -6 0 -19 7 -29 17 -10 9 -18 12 -19 7 -6 -58 -3
-69 30 -91 19 -13 43 -23 55 -22 18 1 17 2 -5 9 -30 9 -79 39 -79 49 0 3 4 12
9 20 7 11 14 10 38 -7 16 -11 42 -22 58 -24 29 -3 49 -28 22 -28 -17 0 -17
-15 1 -47 15 -27 10 -29 -22 -7 -16 9 -26 11 -30 5 -7 -10 -15 -4 -83 62 -18
17 -33 27 -33 21 0 -5 25 -33 55 -63 30 -30 55 -51 55 -47 0 4 6 1 14 -7 11
-10 12 -24 5 -61 -11 -58 -28 -76 -76 -82 l-38 -4 32 12 c44 18 51 28 18 28
-26 0 -27 2 -22 38 3 20 9 47 13 60 3 12 2 22 -3 22 -6 0 -15 -25 -22 -55 -7
-30 -15 -55 -19 -55 -4 0 -25 7 -47 14 -45 16 -46 19 -10 101 25 56 33 87 17
69 -5 -5 -19 -35 -32 -66 -24 -62 -35 -71 -45 -38 -4 13 8 50 35 107 22 47 39
87 37 89 -2 2 -23 -34 -47 -81 -34 -67 -46 -83 -57 -74 -7 6 -13 15 -13 20 0
5 26 54 58 109 45 78 61 98 75 94 31 -10 18 10 -22 33 -156 89 -291 315 -291
487 l0 46 620 0 621 0 -7 -52z m474 18 l4 -29 -84 6 c-46 4 -139 9 -208 12
-150 7 -170 11 -170 30 0 13 31 15 228 13 l227 -3 3 -29z m-1728 -36 c0 -14
-9 -21 -32 -25 -18 -3 -109 -19 -202 -35 -93 -17 -173 -30 -177 -30 -14 0 -11
70 4 71 6 0 86 8 177 18 226 25 230 25 230 1z m1480 10 c239 -14 250 -16 250
-45 0 -13 -3 -26 -7 -28 -5 -2 -96 9 -203 24 -107 16 -207 29 -222 29 -18 0
-28 5 -28 15 0 18 -3 18 210 5z m68 -66 c95 -13 175 -24 178 -24 4 0 -1 -61
-5 -66 -1 -1 -40 7 -88 18 -49 10 -119 25 -158 32 -170 34 -215 48 -215 63 0
17 1 17 288 -23z m-1538 3 c0 -22 -9 -26 -92 -47 -51 -13 -147 -38 -212 -56
-66 -19 -121 -34 -123 -34 -2 0 -3 18 -3 40 0 48 -14 44 310 100 58 10 108 18
113 19 4 1 7 -10 7 -22z m1460 -53 c216 -45 250 -53 251 -62 5 -44 4 -52 -5
-52 -5 0 -110 28 -233 63 -185 52 -223 65 -223 80 0 13 5 17 18 13 9 -3 96
-21 192 -42z m-1442 -6 c3 -18 -19 -27 -210 -92 -59 -20 -122 -42 -140 -50
-18 -8 -48 -20 -65 -26 -18 -7 -33 -16 -33 -21 0 -5 8 -5 18 1 21 11 177 69
327 121 109 37 124 37 125 2 0 -12 -30 -28 -295 -153 -181 -86 -173 -83 -180
-59 -4 11 -4 57 0 102 l7 82 181 49 c100 26 193 52 207 56 35 12 54 8 58 -12z
m1682 -128 c17 -10 22 -60 5 -60 -6 0 -56 16 -111 36 -54 20 -157 56 -229 81
-71 25 -132 47 -134 49 -2 2 -1 10 2 18 5 11 47 2 229 -51 123 -36 230 -69
238 -73z m-229 5 c128 -47 234 -85 236 -85 2 0 3 -16 3 -35 0 -19 -2 -35 -4
-35 -5 0 -92 38 -174 76 -40 19 -75 34 -78 34 -3 0 -40 16 -82 36 -42 20 -94
43 -114 51 -33 13 -53 43 -29 43 4 0 113 -38 242 -85z m-149 -1 c158 -71 226
-105 196 -99 -16 3 -28 1 -28 -5 0 -5 9 -10 20 -10 33 0 92 -28 85 -40 -4 -6
-1 -10 6 -9 22 4 62 -17 88 -45 18 -19 21 -26 9 -26 -8 0 -23 10 -34 21 -10
12 -34 28 -51 36 -18 7 -33 18 -33 24 0 5 -4 8 -9 4 -5 -3 -13 0 -16 6 -4 5
-14 8 -22 5 -8 -3 -24 1 -37 9 -16 11 -37 14 -67 10 -32 -4 -39 -3 -24 4 11 5
34 10 50 10 21 1 26 4 16 10 -7 5 -22 6 -32 4 -10 -3 -56 15 -106 43 -116 63
-134 74 -127 85 7 13 3 14 116 -37z m-1265 4 c-3 -8 -47 -38 -98 -67 -151 -86
-229 -133 -229 -138 0 -3 7 -3 15 1 8 3 15 0 15 -5 0 -7 -9 -9 -22 -6 -14 4
-44 -7 -89 -34 -37 -21 -70 -39 -73 -39 -3 0 -6 23 -6 50 0 28 4 50 9 50 5 0
111 49 237 109 212 101 255 115 241 79z m28 -41 c0 -19 -139 -117 -166 -117
-12 0 -17 -4 -14 -11 4 -6 13 -8 21 -5 22 8 26 -12 5 -23 -27 -15 -51 -15 -31
0 12 8 8 9 -15 6 -16 -3 -45 -9 -62 -15 -38 -12 -49 -2 -25 23 23 24 264 164
277 161 6 -2 10 -10 10 -19z m-349 -400 c-35 -46 -58 -105 -51 -128 7 -20 7
-20 27 -2 19 17 19 17 7 -11 -11 -24 -11 -30 2 -40 17 -12 30 -40 34 -73 4
-29 44 -85 56 -78 5 4 0 16 -11 27 -19 21 -24 33 -21 51 1 4 -6 21 -14 37 -17
33 -20 70 -5 70 6 0 10 -7 10 -15 0 -8 4 -15 9 -15 5 0 11 -8 15 -17 3 -10 10
-25 15 -33 5 -8 15 -28 22 -45 8 -16 26 -41 41 -55 18 -16 30 -40 34 -68 l7
-43 -52 30 c-29 17 -64 31 -79 31 -15 0 -39 8 -52 17 -14 10 -38 25 -54 33
-17 8 -32 21 -34 28 -3 11 3 10 27 -2 27 -14 31 -15 31 -2 0 19 -56 50 -65 36
-3 -6 -12 -10 -18 -10 -7 0 -3 7 8 16 20 15 15 24 -20 37 -5 3 -7 8 -3 12 4 4
26 -4 48 -19 22 -14 40 -24 40 -20 0 12 -31 35 -66 50 -25 11 -34 20 -30 30 3
9 6 21 6 27 0 7 4 6 10 -3 6 -9 5 -17 -3 -22 -7 -5 -3 -8 13 -8 13 0 38 -14
57 -32 18 -18 33 -28 33 -24 0 4 -18 26 -41 48 l-40 40 19 22 c11 11 23 30 26
42 10 32 64 114 76 114 6 0 0 -15 -14 -33z m1899 -27 c3 -6 16 -8 28 -5 12 3
31 -2 41 -10 19 -14 19 -15 -7 -39 -14 -13 -24 -26 -21 -29 3 -3 -4 -20 -15
-38 -27 -44 -28 -73 -2 -39 11 13 17 28 15 32 -3 4 -1 8 4 8 16 0 42 -64 30
-71 -6 -4 -7 -12 -2 -20 5 -8 9 -120 10 -249 1 -218 0 -237 -18 -268 -11 -18
-26 -31 -33 -28 -7 2 -18 -1 -24 -7 -8 -8 -11 -5 -11 14 0 17 8 28 31 38 47
21 56 51 33 116 l-18 56 -45 -46 c-44 -45 -44 -47 -32 -81 8 -23 10 -49 5 -77
-7 -38 -9 -31 -19 68 l-11 110 30 37 c17 20 46 66 64 102 l34 66 -31 51 -32
50 23 32 c12 18 26 34 30 35 10 5 10 42 0 42 -9 0 -25 -26 -66 -104 -17 -32
-37 -70 -45 -84 -12 -23 -12 -30 8 -66 30 -57 26 -77 -5 -30 -15 21 -28 41
-30 43 -7 8 -52 -45 -55 -66 -2 -12 7 -36 20 -54 25 -34 41 -107 21 -94 -5 3
-10 13 -10 21 0 8 -6 14 -14 14 -7 0 -20 7 -27 16 -22 27 -52 34 -71 16 -10
-8 -18 -10 -18 -5 0 6 7 16 15 23 8 7 15 20 15 29 0 10 32 48 71 85 38 38 68
70 65 73 -6 6 -141 -127 -176 -174 -33 -43 -47 -41 -55 6 -10 60 15 105 105
189 59 55 80 80 80 99 0 33 32 123 44 123 4 0 5 -10 2 -22 -3 -13 -9 -52 -12
-88 -4 -47 -3 -61 5 -50 6 8 11 36 11 62 0 50 26 128 42 128 5 0 6 5 3 10 -3
6 -1 10 4 10 6 0 11 7 11 15 0 8 -4 15 -10 15 -5 0 -10 5 -10 10 0 13 17 13
25 0z m-1087 -57 c0 -16 1 -33 2 -38 5 -21 0 -45 -9 -45 -4 0 -7 18 -5 40 1
26 -2 40 -9 40 -8 0 -12 -21 -13 -57 -1 -48 -5 -60 -27 -79 -14 -12 -23 -25
-20 -28 4 -3 2 -6 -4 -6 -5 0 -10 -15 -9 -32 0 -38 -38 -126 -48 -110 -3 6 -2
13 4 17 5 3 10 11 10 16 0 6 -5 7 -12 3 -6 -4 -8 -3 -4 4 3 5 0 13 -6 16 -7 3
-3 3 10 0 13 -3 22 -1 22 6 0 6 -4 8 -10 5 -5 -3 -10 -1 -10 6 0 9 -3 9 -14 0
-9 -7 -12 -23 -9 -42 2 -18 -2 -40 -11 -54 -14 -21 -14 -24 -1 -19 8 4 15 10
15 15 0 5 5 9 11 9 8 0 8 -4 -1 -15 -6 -8 -9 -19 -5 -25 9 -15 25 -12 19 4 -3
8 -1 17 5 21 7 3 8 0 5 -9 -4 -10 -1 -16 7 -16 7 0 9 -3 6 -7 -4 -3 -2 -12 4
-20 9 -9 8 -13 0 -13 -6 0 -11 5 -11 11 0 5 -4 7 -10 4 -5 -3 -23 4 -40 16
-22 17 -28 28 -24 42 5 16 2 18 -18 13 -12 -3 -17 -3 -10 0 17 8 15 25 -2 18
-11 -4 -11 1 -3 29 10 31 13 33 25 18 12 -14 12 -13 6 8 -4 16 -3 21 5 17 6
-4 11 0 11 9 0 9 4 14 9 10 5 -3 16 1 24 9 8 8 17 13 20 10 2 -3 7 6 11 20 3
14 20 35 37 47 22 15 27 24 18 29 -9 6 -10 20 -2 59 7 36 7 51 -1 54 -6 2 -8
8 -4 12 4 4 14 3 22 -4 11 -9 15 -8 20 4 9 24 23 10 24 -22z m79 -83 c9 -16
22 -30 27 -30 6 0 5 5 -2 12 -18 18 -15 28 8 28 15 0 20 -7 20 -27 l1 -28 17
33 c18 33 32 34 32 0 0 -13 7 -18 25 -18 18 0 28 -7 36 -26 5 -15 8 -28 7 -29
-25 -21 -95 -43 -143 -46 -66 -3 -135 8 -135 22 0 11 3 11 37 -2 39 -15 134
-12 179 7 48 20 39 27 -11 9 -55 -20 -133 -18 -175 3 -39 19 -48 48 -13 45 17
-2 23 4 28 30 4 17 9 35 12 40 9 16 33 5 50 -23z m392 -51 c-12 -8 -11 -11 1
-19 22 -14 3 -12 -20 2 -10 7 -23 9 -27 4 -4 -4 0 -12 10 -17 9 -6 17 -16 17
-24 0 -9 7 -11 22 -7 21 5 21 6 2 13 -16 7 -15 8 7 8 38 1 41 -17 28 -138 -13
-119 -21 -143 -47 -134 -15 6 -15 5 -3 -10 12 -15 8 -28 -28 -103 -22 -47 -41
-92 -41 -100 0 -8 -9 -33 -20 -54 -17 -34 -23 -38 -38 -29 -14 9 -29 6 -70
-16 -29 -15 -56 -24 -60 -21 -10 11 -2 79 13 96 7 8 16 25 19 37 4 11 13 26
21 33 9 8 12 22 8 41 -6 32 -2 34 28 19 12 -7 19 -7 19 -1 0 13 -35 32 -44 24
-3 -3 -6 -1 -6 7 0 9 9 11 30 6 19 -3 29 -2 25 4 -7 12 -75 31 -87 24 -15 -9
-48 7 -48 23 0 9 7 25 17 35 13 14 13 18 2 18 -10 0 -11 2 -2 8 7 4 15 24 18
44 3 19 15 53 26 74 18 34 20 36 16 11 -3 -19 1 -32 13 -40 19 -14 23 -47 5
-47 -7 0 -11 -11 -10 -25 2 -16 -2 -25 -11 -25 -30 0 -12 -18 21 -22 38 -4 45
5 18 21 -17 10 -17 10 -1 11 23 0 27 21 32 160 3 63 5 116 6 118 1 13 29 -30
28 -44 -1 -11 2 -31 5 -46 5 -19 3 -28 -4 -28 -8 0 -9 -4 0 -13 6 -8 7 -18 3
-22 -4 -5 1 -5 11 -2 11 4 17 1 17 -8 0 -8 -5 -14 -11 -12 -6 1 -12 -33 -14
-91 -4 -84 -20 -149 -60 -246 -13 -30 14 -15 33 19 9 17 21 33 27 37 5 4 6 10
2 14 -4 4 1 13 11 20 14 11 14 13 2 14 -12 0 -10 4 4 15 11 8 14 15 8 15 -19
0 -14 20 6 21 10 0 12 3 5 6 -7 2 -13 9 -13 14 0 6 4 7 10 4 5 -3 15 7 21 22
6 15 16 36 21 47 17 32 -7 41 -31 10 -15 -19 -21 -22 -21 -10 0 9 5 16 10 16
6 0 10 7 10 15 0 9 7 18 15 21 8 4 12 11 8 18 -4 6 -6 21 -4 34 1 13 -3 30 -9
38 -7 7 -9 14 -4 14 5 0 2 5 -6 10 -10 6 -11 10 -2 10 17 0 15 29 -3 37 -14 5
-14 8 2 25 20 23 54 38 67 31 4 -3 2 -9 -5 -14z m154 -92 c18 -15 43 -36 57
-48 14 -11 19 -18 12 -14 -15 8 -40 -16 -34 -33 2 -6 -2 -12 -9 -12 -13 0 -3
-14 12 -16 5 -1 14 -2 19 -3 6 0 10 -5 10 -10 0 -6 -12 -6 -31 1 -40 14 -48 4
-12 -16 l28 -16 -30 5 -30 6 28 -16 c31 -18 37 -31 6 -15 -24 13 -41 4 -19
-10 12 -8 11 -10 -5 -10 -17 -1 -17 -3 5 -12 l25 -11 -30 -6 c-28 -6 -28 -7
-7 -13 30 -8 28 -26 -3 -20 -15 2 -25 0 -25 -7 0 -6 3 -10 8 -10 22 4 30 -3
25 -21 -3 -11 -9 -20 -14 -20 -5 0 -6 6 -3 13 5 15 -32 21 -41 6 -4 -5 -1 -9
5 -9 6 0 8 -4 5 -10 -3 -5 3 -10 14 -10 12 0 21 -4 21 -9 0 -5 -8 -7 -19 -4
-10 3 -22 0 -25 -6 -4 -7 1 -11 13 -11 12 0 21 -5 21 -10 0 -6 -11 -8 -25 -4
-15 4 -25 2 -25 -5 0 -6 9 -11 21 -11 11 0 18 -4 15 -9 -3 -5 -15 -7 -26 -4
-27 7 -25 -5 3 -18 20 -9 20 -9 -5 -4 -16 3 -28 1 -28 -5 0 -5 5 -10 10 -10 6
0 10 -4 10 -9 0 -5 -10 -7 -21 -4 -19 5 -21 3 -17 -20 4 -19 1 -27 -9 -27 -8
0 -11 -4 -8 -10 3 -5 -1 -10 -9 -10 -9 0 -16 -4 -16 -9 0 -5 -25 -34 -55 -65
-30 -30 -55 -61 -55 -69 0 -9 13 -26 29 -39 32 -27 47 -63 31 -73 -5 -3 -10 1
-10 10 0 32 -99 57 -140 35 -13 -7 -21 -7 -25 0 -3 5 -11 10 -18 10 -8 0 -8
-3 1 -12 7 -7 12 -16 12 -22 0 -6 -5 -5 -12 2 -7 7 -18 12 -26 12 -12 0 -12
-3 -2 -15 7 -8 8 -15 2 -15 -10 0 -38 29 -31 33 2 1 13 7 23 13 11 5 20 19 21
30 2 10 6 28 9 39 6 16 3 14 -11 -5 -10 -13 -30 -38 -45 -55 -26 -31 -26 -32
-7 -45 10 -8 19 -19 19 -24 0 -5 -11 1 -25 14 l-25 24 22 23 c35 38 16 35 -25
-4 -21 -19 -41 -32 -44 -29 -4 3 12 22 35 42 28 24 42 44 42 60 0 13 -4 24
-10 24 -5 0 -10 -10 -10 -22 0 -24 -46 -78 -67 -78 -14 0 -16 -10 -7 -33 4
-11 15 -14 39 -10 30 5 35 2 49 -26 17 -32 36 -41 36 -17 0 19 26 40 35 26 9
-15 25 -12 25 6 0 50 82 63 125 19 30 -29 32 -66 5 -90 -11 -10 -20 -23 -20
-30 0 -7 -9 -22 -20 -35 -11 -13 -20 -28 -20 -34 0 -6 6 -2 12 8 10 18 12 18
24 2 10 -14 9 -22 -4 -45 -15 -26 -17 -27 -41 -15 -14 8 -37 14 -51 15 -23 0
-23 1 -5 9 16 7 16 9 4 9 -9 1 -20 12 -23 26 -14 56 -76 82 -128 54 -18 -10
-25 -8 -39 10 -11 13 -33 24 -56 27 l-38 5 42 -22 c34 -17 45 -29 55 -60 12
-42 28 -52 28 -17 0 29 28 58 55 58 55 0 79 -86 36 -129 -16 -16 -22 -31 -18
-49 3 -15 0 -36 -5 -46 -9 -16 -6 -23 12 -38 29 -23 39 -15 15 12 -10 11 -15
23 -11 27 4 4 11 1 15 -6 6 -10 15 -4 35 21 28 37 32 48 16 48 -5 0 -17 -15
-26 -32 l-17 -33 -9 34 c-12 44 11 71 61 71 41 -1 67 -17 72 -45 5 -25 25 -17
22 8 -2 10 4 31 12 47 19 37 76 51 104 26 13 -12 20 -13 29 -4 10 10 17 7 35
-12 22 -24 23 -31 18 -118 -6 -90 -7 -95 -39 -123 -18 -16 -41 -29 -52 -29
-35 0 -88 27 -101 52 -19 36 -71 79 -93 76 -13 -2 -24 -15 -30 -36 -5 -18 -28
-50 -51 -71 -126 -116 -371 -63 -441 96 -29 66 -11 128 34 119 39 -8 47 2 48
60 1 66 35 104 96 104 26 0 37 4 32 11 -3 6 -17 8 -30 5 -17 -5 -26 -2 -30 9
-4 8 -18 15 -33 15 -39 0 -43 9 -20 42 12 16 18 32 14 36 -8 8 -35 -26 -35
-45 0 -7 -10 -13 -22 -14 -22 0 -23 0 -2 -9 11 -4 28 -20 37 -34 17 -25 17
-27 -4 -55 -14 -19 -22 -44 -22 -70 0 -38 -2 -41 -28 -41 -40 0 -69 -35 -69
-82 0 -21 5 -38 10 -38 6 0 10 -9 10 -19 0 -11 5 -23 10 -26 17 -11 11 -25
-11 -25 -14 0 -25 11 -35 38 -8 20 -28 65 -45 98 -26 55 -35 64 -79 83 -47 20
-49 23 -44 54 6 34 45 77 70 77 8 0 25 -7 37 -15 21 -13 22 -12 23 10 2 35 37
100 55 103 9 2 24 -4 32 -13 20 -19 27 -19 27 0 0 9 11 27 25 41 21 21 31 24
57 19 21 -5 28 -4 24 4 -14 22 -67 12 -98 -19 -35 -35 -38 -36 -31 -11 12 48
90 76 128 47 17 -12 18 -18 8 -34 -18 -30 -3 -35 19 -7 12 15 30 25 46 25 24
1 25 2 9 11 -10 6 -24 8 -32 5 -10 -3 -12 0 -8 11 5 13 2 15 -11 10 -11 -5
-15 -3 -10 5 5 7 -1 9 -19 4 -21 -5 -25 -3 -21 9 8 19 -10 20 -25 1 -13 -16
-51 -28 -51 -17 0 5 17 16 38 25 38 17 39 17 95 -8 30 -14 61 -26 67 -26 6 0
13 -7 16 -15 14 -36 54 2 64 60 5 27 8 30 40 27 19 -1 56 -7 82 -13 42 -10 51
-8 83 11 l35 22 -11 -26 c-7 -14 -19 -26 -26 -26 -8 0 -12 -4 -9 -8 3 -5 -4
-19 -15 -31 -17 -18 -18 -25 -9 -36 16 -20 34 -19 26 0 -4 12 0 14 19 9 26 -6
36 10 13 19 -7 3 3 6 22 7 31 1 33 2 18 14 -22 17 -23 30 -2 22 25 -10 37 4
17 20 -17 12 -16 13 10 14 30 0 37 16 10 23 -11 3 -7 5 10 6 28 1 37 15 15 24
-8 3 -6 6 5 6 9 1 17 5 17 10 0 5 -8 12 -17 14 -11 3 -7 5 10 6 29 1 38 20 10
22 -10 1 -4 5 12 9 17 4 22 8 13 9 -10 0 -18 5 -18 10 0 5 9 7 20 4 11 -3 20
-1 20 5 0 6 -8 13 -17 15 -14 4 -13 5 4 6 33 2 39 21 7 21 -32 0 -28 8 7 13
13 2 22 8 21 12 -2 4 2 12 10 16 9 6 7 9 -9 9 -13 0 -23 5 -23 10 0 6 11 10
25 10 14 0 25 4 25 9 0 5 -9 7 -20 4 -33 -9 -23 7 13 20 l32 11 -30 7 c-31 6
-31 6 23 25 14 6 13 8 -8 14 -15 5 -18 8 -8 9 9 1 20 6 24 12 4 8 0 9 -15 4
-12 -4 -21 -2 -21 4 0 6 6 11 13 11 7 0 22 7 33 16 18 15 18 15 -3 9 -13 -4
-23 -2 -23 3 0 6 11 13 25 16 31 8 33 26 3 19 -19 -4 -20 -3 -8 6 8 6 23 11
33 11 9 0 17 4 17 9 0 4 -12 7 -27 5 -17 -2 -20 -1 -8 2 34 10 44 27 13 22
-16 -3 -28 -1 -28 3 0 5 11 9 25 9 14 0 25 5 25 11 0 7 -10 9 -27 5 -21 -5
-24 -4 -13 4 8 5 23 10 33 10 9 0 17 4 17 10 0 5 -15 7 -32 5 -26 -4 -29 -3
-13 4 11 5 29 12 39 15 16 5 17 9 6 19 -10 9 -13 9 -17 0 -3 -7 -12 -13 -20
-13 -9 0 -13 6 -10 14 3 7 1 18 -5 24 -24 24 45 4 75 -21z m-613 -6 c0 -4 24
-4 53 0 77 11 125 11 107 -1 -27 -17 -2 -22 29 -6 35 18 41 19 41 7 0 -5 -13
-12 -30 -16 -16 -4 -30 -8 -30 -10 0 -16 15 -35 29 -36 9 -1 3 -5 -14 -9 -17
-4 -22 -8 -12 -9 29 -2 14 -26 -19 -30 -25 -3 -26 -4 -9 -11 19 -8 19 -8 -5
-18 l-25 -11 25 -1 c20 0 22 -2 10 -10 -8 -5 -26 -10 -40 -11 -20 -1 -18 -3
10 -9 l35 -7 -32 -8 c-40 -9 -44 -34 -5 -36 24 -2 25 -2 4 -6 -23 -4 -23 -5
-5 -20 11 -9 5 -7 -14 3 -18 10 -33 21 -33 25 0 11 -78 39 -110 39 -17 0 -30
4 -30 9 0 4 11 6 25 3 15 -2 25 0 25 7 0 6 -13 11 -29 11 -17 0 -33 5 -37 12
-5 8 0 9 14 6 12 -4 22 -2 22 3 0 5 -6 9 -13 9 -7 0 -22 7 -33 15 -18 15 -17
16 14 10 20 -4 32 -3 32 4 0 6 -9 11 -20 11 -13 0 -20 7 -20 20 0 23 10 26 28
8 9 -9 12 -8 12 4 0 9 -9 20 -20 23 -11 4 -18 11 -15 16 4 5 13 2 21 -6 9 -8
20 -15 25 -15 17 0 9 15 -16 31 l-25 15 40 1 c22 1 40 -2 40 -6z m-550 -60 c0
-11 4 -22 8 -25 4 -2 9 -44 11 -92 2 -75 0 -86 -13 -81 -9 4 -16 2 -16 -3 0
-6 7 -10 15 -10 11 0 13 -8 8 -32 -8 -42 -9 -44 -28 -28 -9 7 -18 10 -21 7 -3
-3 3 -12 15 -19 28 -17 27 -32 -1 -18 l-23 11 21 -18 c16 -14 74 -123 74 -138
0 -8 -77 18 -89 30 -11 11 -12 17 -2 29 18 22 -22 42 -55 27 -22 -10 -23 -8
-30 34 -5 37 -3 48 14 62 28 26 56 159 48 225 l-7 52 21 -19 c20 -18 20 -18
19 1 -1 10 -1 27 -1 37 2 16 4 17 17 3 8 -8 15 -24 15 -35z m103 2 c-10 -48
-10 -67 0 -98 9 -30 8 -38 -4 -46 -12 -7 -12 -9 1 -9 8 0 27 -26 42 -58 42
-86 121 -211 172 -270 44 -52 57 -82 36 -82 -16 0 -47 -32 -54 -57 -4 -13 -13
-23 -21 -23 -7 0 -15 -9 -18 -20 -7 -28 -34 -26 -32 3 1 14 8 21 18 19 15 -2
57 46 57 66 0 6 9 14 20 17 11 3 20 11 20 17 0 5 -7 7 -16 4 -12 -4 -15 -2
-10 9 3 9 0 15 -8 15 -20 0 -116 89 -116 107 0 8 -13 33 -28 56 -58 86 -81
148 -83 222 -3 117 0 147 14 142 6 -2 11 -9 10 -14z m-333 -198 c0 -12 8 -30
19 -39 10 -9 21 -30 25 -47 3 -16 12 -29 20 -29 15 0 32 -37 22 -47 -3 -4 -18
-8 -32 -9 -25 -3 -26 -1 -21 31 4 27 3 33 -9 28 -8 -3 -14 -13 -15 -22 0 -9
-5 -2 -10 14 -5 17 -6 38 -3 48 3 9 3 17 -1 17 -14 0 -64 -31 -68 -42 -3 -10
-8 -10 -17 -2 -15 15 -50 6 -50 -12 0 -17 17 -18 23 -1 2 6 7 9 11 5 8 -6 -23
-48 -36 -48 -3 0 -10 9 -13 20 -8 25 -31 26 -44 3 -9 -15 -10 -12 -11 15 0 29
2 31 19 20 17 -10 23 -9 40 6 12 11 21 29 22 40 0 15 2 17 6 6 7 -17 23 -30
37 -30 6 0 5 5 -2 12 -7 7 -12 25 -12 41 0 24 3 27 20 22 13 -4 23 0 31 13 16
26 49 17 49 -13z m1474 29 c19 -7 21 -30 4 -40 -8 -5 -9 -2 -5 9 9 23 -5 21
-20 -2 -10 -15 -10 -21 0 -25 9 -3 8 -7 -3 -15 -12 -8 -12 -13 -2 -23 6 -6 12
-17 12 -22 0 -6 -4 -5 -9 2 -7 11 -9 11 -14 -2 -4 -9 -2 -16 3 -16 6 0 10 -4
10 -10 0 -5 -7 -10 -15 -10 -8 0 -15 -5 -15 -11 0 -5 5 -7 10 -4 13 8 13 -16
-1 -35 -9 -13 -10 -12 -5 3 7 22 -10 23 -18 1 -4 -10 1 -22 11 -30 22 -16 10
-18 -18 -3 -19 10 -19 9 -9 -10 6 -12 15 -21 21 -21 6 0 7 -5 4 -10 -5 -8 -11
-7 -21 1 -23 19 -28 3 -5 -20 11 -11 16 -23 12 -26 -5 -2 -14 2 -21 10 -11 13
-14 13 -25 -2 -10 -14 -10 -21 2 -40 8 -12 13 -28 10 -35 -3 -8 -9 -2 -16 15
-11 29 -21 33 -38 16 -8 -8 -7 -18 2 -37 18 -37 29 -79 19 -69 -5 4 -13 22
-19 39 -5 17 -16 33 -23 36 -11 3 -11 -1 1 -19 21 -34 29 -87 16 -110 -12 -23
-29 -16 -29 12 0 30 -28 91 -39 85 -6 -4 -4 -17 5 -34 7 -15 14 -35 14 -44 0
-9 7 -24 16 -33 14 -13 14 -20 4 -45 -12 -30 -25 -35 -54 -24 -12 5 -13 10 -5
26 10 19 11 19 25 1 14 -16 15 -13 9 35 -7 66 -11 75 -35 90 -17 10 -20 10
-20 -3 0 -8 9 -19 20 -25 11 -6 20 -17 20 -26 0 -10 -12 -4 -35 17 -19 18 -35
40 -35 49 0 22 50 88 72 95 9 3 46 41 82 83 62 72 86 118 116 220 7 23 14 42
16 42 1 0 9 -3 18 -6z m82 -268 c24 -25 44 -55 44 -66 0 -28 17 -60 46 -86 13
-11 27 -30 31 -42 5 -11 23 -31 42 -44 19 -13 38 -35 42 -50 10 -38 -6 -36
-20 2 -13 37 -32 38 -52 3 -16 -30 -14 -73 3 -73 6 0 8 10 4 23 -3 14 1 32 9
43 14 18 14 18 15 -2 0 -12 7 -27 15 -34 16 -13 9 -35 -20 -64 -23 -22 -58 0
-50 32 3 12 1 22 -4 22 -15 0 -22 -30 -11 -51 15 -27 -5 -25 -24 3 -20 28 -20
48 -2 48 8 0 17 4 20 9 12 19 16 107 6 136 -22 67 -151 108 -199 64 -11 -10
-24 -19 -28 -18 -23 4 -34 -3 -32 -18 6 -60 -13 -87 -26 -36 -4 19 0 34 14 54
12 15 18 35 15 43 -3 9 -1 16 5 16 12 0 29 37 34 71 4 25 17 37 17 16 0 -19
25 -23 35 -6 4 6 13 8 21 5 8 -3 14 -1 14 4 0 5 -18 13 -40 16 -46 7 -46 19 0
22 26 2 40 -6 76 -42z m-66 -142 c0 -8 -4 -13 -9 -9 -10 6 -26 -13 -18 -21 8
-9 57 19 57 32 0 8 6 11 16 7 8 -3 13 -12 10 -20 -8 -19 2 -35 16 -27 6 4 5
10 -3 15 -11 7 -10 9 4 9 10 0 15 5 12 10 -3 6 -1 10 5 10 7 0 10 -6 7 -12
-16 -44 -17 -57 -3 -70 9 -10 11 -20 5 -31 -6 -10 -5 -18 1 -22 5 -3 10 3 10
14 0 12 5 21 11 21 11 0 9 -16 -6 -53 -6 -14 -4 -16 11 -10 12 4 15 3 10 -5
-10 -16 -36 -15 -36 1 0 7 -9 20 -20 30 -11 9 -20 12 -20 6 0 -5 9 -19 20 -31
11 -12 20 -35 20 -51 0 -40 44 -84 91 -92 44 -8 74 -31 88 -68 6 -14 12 -82
15 -150 3 -69 12 -154 21 -188 8 -35 15 -86 15 -112 0 -55 13 -87 36 -87 13 0
13 2 0 22 -9 12 -16 41 -16 63 0 22 -5 60 -11 85 -7 33 -7 46 1 48 7 3 33 24
59 49 l46 44 7 -33 c4 -18 7 -103 7 -188 l-1 -155 -26 33 c-15 18 -31 32 -35
32 -4 0 1 -10 13 -22 25 -27 27 -47 1 -24 -10 9 -25 14 -35 10 -20 -8 -57 24
-87 73 -11 18 -25 63 -30 100 -5 38 -17 83 -26 102 -20 44 -30 199 -14 229 9
18 9 21 -3 16 -8 -3 -19 -19 -25 -35 -8 -24 -15 -29 -43 -29 -19 0 -40 6 -47
13 -11 10 -13 9 -9 -3 3 -10 20 -16 51 -18 45 -3 47 -4 47 -33 0 -17 -9 -62
-21 -99 l-20 -68 19 -49 c32 -76 37 -132 37 -388 0 -237 0 -241 27 -310 15
-38 28 -90 28 -115 1 -67 16 -123 51 -181 16 -29 26 -55 22 -58 -5 -3 -8 -16
-7 -28 1 -26 0 -27 -26 -13 -11 6 -25 28 -31 50 -7 22 -18 45 -26 51 -7 6 -13
29 -13 51 0 27 -13 66 -40 119 -22 44 -43 97 -46 117 -3 20 -7 46 -10 57 -3
13 1 11 11 -7 9 -16 20 -28 25 -28 5 0 0 17 -12 38 -39 68 -47 86 -73 177 -37
127 -36 207 4 289 17 33 38 72 48 86 16 23 14 23 -14 -4 -17 -15 -37 -42 -44
-58 -9 -21 -14 -26 -20 -16 -7 11 -9 11 -9 0 0 -8 -9 -25 -20 -39 -14 -19 -20
-21 -20 -10 0 9 -6 14 -12 12 -7 -3 -26 15 -41 40 -16 25 -33 45 -38 45 -12 0
-1 -21 35 -69 16 -22 26 -48 26 -69 0 -28 5 -36 30 -45 l30 -11 0 -96 c-1 -52
-5 -127 -9 -167 -8 -65 -6 -77 14 -118 21 -41 23 -56 20 -153 -3 -76 0 -118
10 -147 20 -54 20 -53 -22 -61 -42 -8 -132 -46 -117 -51 5 -1 45 10 89 25 75
26 80 29 78 55 -1 21 4 28 22 33 13 3 29 12 36 20 17 21 49 18 49 -5 0 -11 5
-23 10 -26 6 -4 19 -24 30 -45 20 -38 63 -70 95 -70 22 0 20 62 -5 110 -25 50
-25 56 1 31 12 -11 33 -22 47 -26 57 -14 72 -32 72 -85 l0 -50 -565 -2 c-414
-2 -565 0 -565 8 0 13 -118 60 -127 50 -3 -3 8 -9 25 -12 40 -8 62 -32 41 -45
-8 -5 -27 -7 -43 -4 -16 3 -42 5 -58 5 -17 0 -27 4 -23 10 8 13 56 13 89 0 14
-5 26 -6 26 -1 0 15 -93 31 -145 25 -27 -3 -59 -5 -70 -5 -104 3 -105 3 -105
21 0 10 -7 23 -15 30 -11 9 -12 15 -5 20 6 4 -3 7 -19 7 -16 0 -37 5 -45 13
-19 15 -22 54 -3 48 6 -3 12 -11 12 -19 0 -17 28 -30 36 -17 4 6 48 5 120 -2
63 -7 149 -15 192 -17 42 -3 77 -9 77 -14 0 -11 -135 -5 -248 11 -46 7 -86 9
-89 6 -4 -3 1 -6 10 -6 10 0 17 -4 17 -9 0 -12 47 -29 105 -36 28 -4 61 -9 75
-12 19 -3 22 -2 10 6 -8 5 -40 13 -70 16 -62 7 -85 13 -78 21 3 2 61 -3 129
-11 120 -15 214 -38 224 -55 10 -17 75 -21 108 -7 44 20 146 38 242 44 71 4
82 7 101 30 16 20 30 26 72 28 52 2 69 -8 32 -20 -11 -3 -29 -19 -40 -34 -17
-25 -18 -30 -5 -41 20 -16 32 -5 16 14 -10 12 -7 18 14 33 64 44 95 76 95 98
0 13 -10 67 -21 121 -12 55 -25 126 -29 159 -7 52 -28 171 -70 390 -8 37 -10
100 -6 165 3 58 9 167 12 243 6 136 6 137 30 137 13 0 24 5 24 10 0 6 -14 10
-31 10 l-31 0 6 58 c5 57 5 57 -9 24 -9 -18 -15 -43 -15 -55 1 -12 3 -79 6
-148 6 -140 2 -154 -56 -219 -18 -19 -40 -54 -51 -76 -18 -40 -57 -86 -44 -53
9 24 -31 20 -44 -4 -11 -21 -11 -21 -5 3 10 39 25 52 52 45 14 -3 21 -2 18 4
-3 5 0 11 6 14 7 2 10 8 6 12 -4 4 -25 -1 -47 -12 -48 -24 -45 -3 4 25 22 14
38 35 51 68 10 27 31 71 46 97 22 38 28 60 28 107 0 78 18 207 35 247 8 18 29
42 47 54 28 17 29 20 8 14 -25 -7 -73 -51 -82 -76 -4 -11 -10 -9 -25 8 -19 21
-30 24 -115 24 -26 0 -50 4 -53 10 -11 17 5 64 26 77 29 18 38 5 11 -14 -22
-15 -29 -48 -13 -59 5 -3 11 7 13 22 2 21 9 29 28 32 24 3 24 2 7 -16 -19 -22
-22 -33 -7 -33 6 0 10 6 10 14 0 8 7 17 16 20 15 6 14 9 -5 25 -28 25 -15 34
20 14 35 -21 59 -6 51 33 -5 29 30 74 60 74 10 0 18 5 18 11 0 5 5 7 10 4 6
-3 10 4 10 16 0 28 10 19 14 -12 1 -13 8 -36 14 -51 7 -16 16 -39 22 -53 5
-14 16 -25 25 -25 17 0 20 -11 6 -25 -5 -6 -1 -18 10 -29 19 -19 19 -19 19 9
0 16 10 40 23 53 l22 25 -22 -12 c-35 -18 -63 -13 -72 12 -19 51 -23 69 -13
63 13 -8 24 36 12 48 -7 7 -10 2 -10 -12 0 -12 -5 -22 -11 -22 -8 0 -10 14 -6
40 3 22 1 40 -4 40 -5 0 -9 4 -9 10 0 5 7 7 15 4 9 -4 15 0 15 8 0 18 21 39
32 32 4 -3 8 -12 8 -20z m-1264 -39 c-6 -17 22 -55 41 -55 6 0 13 12 15 28 4
36 34 37 31 0 -1 -20 4 -28 22 -32 56 -14 56 -81 1 -115 -21 -13 -40 -37 -51
-63 -17 -43 -31 -42 -37 4 -2 16 5 35 17 49 l20 23 -31 -22 c-29 -20 -31 -25
-24 -56 11 -48 15 -52 62 -65 24 -6 50 -17 58 -24 24 -19 55 -75 90 -162 17
-44 35 -87 39 -95 9 -18 151 -114 158 -107 2 3 -23 24 -56 46 -54 37 -91 74
-91 92 0 4 10 9 21 12 26 7 120 -69 112 -89 -3 -7 2 -23 10 -35 9 -12 13 -27
10 -35 -3 -8 11 -21 34 -33 22 -11 46 -27 54 -37 13 -16 12 -16 -8 -6 -31 17
-37 15 -17 -5 15 -15 31 -19 61 -14 4 1 -8 17 -27 36 l-34 35 35 0 c19 0 40 5
47 12 6 6 13 10 14 7 2 -2 10 -17 18 -33 8 -16 37 -44 64 -63 64 -44 128 -46
206 -6 75 39 95 69 95 147 l0 63 43 1 c27 0 51 7 63 18 16 14 19 15 19 2 0 -8
-6 -28 -14 -44 -8 -16 -30 -63 -50 -105 -22 -47 -43 -79 -55 -82 -21 -5 -57
-70 -42 -75 7 -2 7 -12 0 -29 -16 -42 -3 -63 34 -56 37 6 50 20 83 88 13 28
38 66 54 85 l30 35 0 -92 c0 -51 9 -138 20 -195 38 -202 62 -384 50 -382 -3 0
-29 4 -58 8 -51 7 -146 42 -174 65 -108 88 -151 128 -179 163 -30 40 -99 116
-178 194 -61 61 -88 43 -160 -101 -41 -83 -65 -116 -138 -191 -68 -70 -96 -92
-121 -96 -17 -2 -34 -2 -37 0 -12 13 -3 106 21 207 17 73 27 153 31 240 5 113
3 140 -16 208 -26 97 -27 96 7 66 37 -34 71 -54 107 -63 63 -16 94 -37 116
-82 31 -65 106 -93 123 -47 7 18 -12 45 -26 37 -5 -3 -17 0 -26 8 -16 12 -16
11 -2 -6 14 -18 13 -19 -3 -13 -11 4 -16 3 -12 -4 4 -5 15 -7 25 -4 10 3 21 2
24 -3 3 -5 -5 -9 -19 -9 -24 0 -69 41 -90 82 -11 21 -30 32 -115 65 -64 26
-82 40 -122 98 -30 43 -34 78 -14 123 4 10 -1 25 -14 40 l-20 24 12 -28 c9
-22 9 -35 0 -61 -15 -41 -9 -91 25 -206 24 -78 25 -95 20 -220 -3 -74 -13
-166 -21 -205 -33 -141 -36 -169 -30 -249 5 -64 2 -98 -14 -161 -11 -44 -24
-101 -27 -127 l-7 -47 38 -16 c46 -19 60 -37 36 -47 -16 -6 -16 -7 1 -7 9 -1
17 -5 17 -11 0 -14 -5 -13 -60 15 -27 14 -55 25 -62 25 -11 0 -13 41 -11 203
5 396 18 590 40 625 18 29 8 43 -11 17 -12 -17 -15 -17 -50 10 -44 33 -48 25
-6 -13 35 -31 37 -45 26 -227 -9 -137 -21 -223 -51 -345 -13 -52 -26 -125 -30
-162 -5 -54 -10 -68 -25 -73 -11 -3 -29 -20 -41 -36 -14 -20 -28 -29 -43 -27
-32 5 -22 44 25 95 l40 43 -7 115 c-6 95 -4 122 10 158 16 41 15 49 -4 148
-11 57 -25 120 -30 139 -32 122 -34 171 -11 283 20 98 21 110 7 169 -8 34 -12
66 -10 70 3 5 17 9 32 9 l27 2 -25 4 c-38 7 -52 24 -48 54 3 16 0 25 -5 22 -5
-3 -6 -25 -2 -49 4 -31 1 -55 -14 -91 -11 -26 -27 -73 -35 -103 -8 -30 -31
-80 -50 -110 -20 -30 -36 -59 -36 -65 0 -12 -72 -76 -78 -70 -3 3 3 14 13 25
30 33 2 23 -43 -16 -23 -19 -42 -32 -42 -27 0 11 46 54 80 75 35 21 110 246
110 328 0 76 18 180 36 208 8 13 33 35 54 50 22 15 38 32 35 38 -2 6 2 18 8
25 10 11 9 11 -5 0 -10 -7 -18 -10 -18 -5 1 25 39 127 50 134 11 7 11 12 2 22
-9 11 -8 19 4 36 9 14 11 22 4 22 -6 0 -8 6 -4 13 4 6 -2 4 -14 -6 -13 -12
-18 -25 -14 -35 5 -15 4 -15 -11 -3 -21 17 -22 8 -1 -23 11 -18 12 -26 3 -32
-7 -4 -9 -3 -6 3 4 6 0 16 -8 23 -13 11 -15 7 -13 -30 1 -25 -4 -45 -12 -50
-7 -4 -10 -15 -7 -25 4 -9 12 -13 18 -9 8 4 9 -1 4 -17 -12 -43 -30 -79 -38
-79 -4 0 -4 8 1 18 20 37 23 72 7 72 -8 0 -15 -8 -16 -17 -1 -10 -2 -32 -3
-49 -1 -17 -9 -42 -19 -55 l-18 -24 7 30 c9 44 30 131 49 209 21 83 59 126
112 126 18 0 32 3 32 8 -3 16 2 22 17 22 10 0 14 -5 10 -15z m1716 -212 c3
-57 1 -62 -15 -57 -11 3 -28 15 -38 25 -26 26 -39 24 -39 -5 0 -13 -7 -29 -15
-36 -19 -16 -19 -31 2 -75 16 -33 16 -36 0 -52 -9 -9 -19 -14 -23 -11 -3 4 -5
49 -5 102 0 104 0 105 96 199 l30 29 2 -28 c1 -16 4 -57 5 -91z m-2070 -342
c3 -48 -1 -77 -14 -108 -23 -54 -23 -101 2 -138 28 -42 26 -91 -2 -106 -13 -6
-33 -21 -45 -32 l-23 -20 0 216 c0 139 4 224 11 235 6 9 23 17 39 18 28 1 28
0 32 -65z m1295 -80 c4 -27 0 -57 -12 -86 -20 -55 -70 -84 -157 -92 -47 -5
-62 -2 -92 16 -54 34 -76 67 -76 117 0 40 3 44 28 49 15 3 44 14 65 25 l37 19
25 -25 c21 -21 31 -24 62 -18 51 9 70 20 78 45 6 19 9 19 22 6 8 -8 17 -33 20
-56z m-1071 -38 c4 -22 2 -61 -6 -93 -20 -88 -28 -177 -20 -217 5 -21 20 -92
34 -159 41 -191 35 -274 -19 -274 -21 0 -25 5 -25 29 0 15 -10 41 -21 56 -19
23 -22 39 -21 118 0 51 8 119 16 152 21 78 20 108 -4 147 -11 18 -20 42 -20
53 -1 27 63 225 72 225 4 0 10 -17 14 -37z m1699 -220 c13 -27 40 -65 59 -87
29 -31 40 -38 64 -34 l29 4 2 -228 1 -228 -48 6 c-26 3 -59 10 -73 16 -15 5
-38 8 -50 6 l-24 -3 -3 138 c-2 132 -2 137 18 137 11 0 20 4 20 9 0 5 10 11
23 13 12 2 21 9 19 16 -1 8 8 22 20 33 l23 20 -27 -17 c-25 -15 -33 -13 -29 9
0 4 -2 7 -7 7 -4 0 -6 18 -4 40 2 22 8 37 13 34 5 -3 7 -10 4 -15 -11 -17 6
-31 21 -18 11 9 14 7 14 -10 0 -11 5 -21 11 -21 8 0 9 -11 5 -32 -5 -31 -5
-32 9 -14 8 11 15 28 15 38 0 22 -30 58 -47 58 -7 0 -13 7 -13 15 0 24 -31 31
-46 10 -8 -10 -14 -15 -14 -11 0 5 -6 3 -14 -3 -12 -10 -13 -4 -10 36 2 26 3
65 4 86 0 20 2 37 5 37 2 0 16 -21 30 -47z m-1768 -98 c-5 -55 -22 -105 -50
-149 -18 -27 -18 -28 0 -41 17 -13 17 -15 1 -31 -16 -16 -17 -16 -12 3 3 12 0
24 -6 28 -14 8 -70 -42 -70 -62 0 -8 -4 -11 -10 -8 -5 3 -10 21 -10 40 0 24
11 47 43 85 83 102 90 116 89 172 -1 50 0 52 14 33 11 -14 14 -35 11 -70z
m-162 -160 c-21 -45 -19 -93 5 -133 13 -21 20 -50 20 -81 0 -46 -2 -50 -31
-60 -72 -25 -69 -35 -69 200 0 196 1 210 18 205 9 -3 28 3 42 14 l25 19 3 -66
c2 -44 -2 -76 -13 -98z m993 96 c112 -117 133 -143 126 -166 -3 -13 -2 -16 3
-8 7 9 23 -1 59 -38 46 -48 120 -103 188 -141 22 -12 25 -17 11 -15 -11 1 -26
6 -32 10 -18 11 -32 1 -28 -21 1 -9 0 -11 -2 -4 -5 14 -23 16 -23 2 0 -5 -5
-10 -11 -10 -8 0 -7 6 2 17 12 15 12 16 -6 10 -20 -7 -20 -7 0 8 11 9 25 13
32 11 7 -3 13 -1 13 4 0 9 -17 14 -47 13 -7 -1 -13 6 -13 15 0 13 -2 13 -19
-2 -17 -16 -18 -16 -14 7 4 19 -1 26 -26 37 -17 7 -31 19 -31 26 0 8 -3 13 -7
13 -19 -3 -57 3 -46 7 16 7 5 34 -12 28 -7 -3 -15 2 -19 11 -3 10 -12 15 -20
12 -9 -4 -16 5 -20 26 -5 25 -9 29 -16 17 -7 -11 -10 -11 -10 -2 0 9 -7 11
-22 7 -17 -6 -20 -4 -14 10 5 14 4 15 -7 7 -11 -9 -13 -7 -13 11 1 21 -16 29
-93 46 -2 1 4 13 14 27 10 15 12 23 4 19 -9 -6 -11 -4 -6 7 3 9 1 20 -5 26
-12 12 -1 35 13 27 5 -4 9 -1 9 4 0 24 25 7 88 -58z m-58 -226 c0 -8 3 -14 8
-14 19 3 33 -2 27 -11 -3 -5 -12 -7 -20 -3 -21 7 -19 -4 6 -30 15 -17 19 -18
14 -4 -8 19 10 24 18 5 3 -7 6 -1 6 14 1 23 5 27 24 24 13 -2 21 -9 19 -18 -1
-8 4 -15 13 -15 8 0 12 4 9 9 -8 13 6 28 21 21 17 -6 21 -43 5 -43 -5 0 -10
-8 -9 -17 0 -11 3 -13 6 -6 3 10 8 10 19 -1 16 -17 19 -30 4 -21 -7 4 -9 -11
-6 -44 6 -60 0 -82 -20 -74 -8 3 -14 -1 -14 -10 0 -10 7 -15 18 -12 12 2 18
-4 19 -18 2 -22 2 -22 -13 -3 -8 11 -14 14 -14 8 0 -10 -3 -10 -14 0 -7 7 -12
18 -9 24 5 14 -23 38 -36 29 -6 -3 -19 -1 -30 4 -14 8 -21 8 -24 -2 -3 -6 -6
-2 -6 11 -1 12 4 22 9 22 6 0 10 4 10 10 0 5 -7 7 -15 4 -11 -5 -15 -21 -15
-60 0 -30 -5 -54 -10 -54 -6 0 -8 11 -4 25 4 15 2 25 -5 25 -6 0 -12 -8 -13
-17 -1 -10 -4 11 -8 47 -7 65 -7 65 -8 14 -2 -55 -18 -66 -49 -32 -9 10 -11
18 -5 18 6 0 13 -6 15 -12 8 -19 8 23 0 51 -6 23 -7 23 -14 5 -6 -16 -8 -16
-8 -2 -1 10 -7 16 -13 14 -7 -1 -10 -1 -5 1 4 3 7 13 7 24 0 10 7 19 15 19 22
0 19 40 -2 41 -15 0 -15 2 2 8 11 5 23 7 28 4 7 -4 11 12 8 36 -2 7 2 11 6 8
5 -3 15 -2 23 4 21 13 30 11 30 -6z m229 -103 c1 13 8 17 24 14 13 -2 21 -10
21 -20 -2 -14 14 -21 39 -17 4 0 7 -3 7 -9 0 -5 -4 -10 -10 -10 -5 0 -10 -9
-10 -20 0 -11 7 -20 15 -20 9 0 15 -9 15 -25 0 -14 5 -25 10 -25 6 0 10 -4 10
-10 0 -5 -7 -10 -15 -10 -10 0 -15 10 -15 31 0 18 -4 28 -10 24 -6 -4 -8 -11
-5 -16 4 -5 1 -17 -4 -26 -8 -15 -11 -10 -12 22 l-1 40 -9 -35 c-4 -19 -6 -44
-3 -55 4 -16 3 -17 -5 -5 -6 8 -10 40 -10 70 0 30 3 49 6 43 6 -17 23 -16 23
1 0 7 -9 16 -20 19 -19 5 -20 0 -21 -81 -1 -69 -3 -79 -9 -48 -4 21 -5 47 -3
58 3 10 1 18 -4 18 -5 0 -10 -19 -10 -42 -1 -74 -3 -88 -12 -88 -6 0 -6 12 -2
28 4 15 5 37 3 50 -3 22 -4 23 -17 5 -13 -17 -14 -16 -8 6 5 19 3 22 -8 16
-11 -7 -12 -6 -2 6 6 8 12 19 13 24 1 6 6 9 11 8 5 -2 9 15 9 38 0 24 -4 38
-10 34 -14 -8 -13 1 3 25 12 20 12 20 18 -7 4 -15 7 -20 8 -11z m-1051 -299
c-12 -15 0 -17 21 -4 8 5 11 16 8 25 -8 20 0 20 19 1 19 -18 61 -20 67 -2 2 6
7 9 11 5 4 -3 -9 -24 -28 -46 -37 -41 -57 -99 -38 -111 6 -3 -36 -6 -93 -6
-57 0 -101 3 -98 8 2 4 12 7 23 7 10 0 20 7 24 15 3 10 19 15 45 15 70 0 77
11 19 31 -29 10 -62 19 -73 19 l-20 1 20 11 c11 6 22 14 25 18 3 3 13 10 24
13 10 4 16 13 13 21 -9 23 5 27 23 8 12 -12 14 -21 8 -29z m1972 -321 l0 -149
-1077 -7 c-870 -5 -1078 -4 -1085 6 -9 13 -7 252 2 261 10 10 260 17 845 23
325 3 592 8 594 10 2 2 166 4 363 4 l358 0 0 -148z"/>
<path d="M1022 3863 c8 -10 22 -37 31 -60 16 -41 16 -42 -6 -46 -12 -2 25 -4
83 -4 58 0 95 2 82 4 -21 4 -23 9 -20 56 2 35 7 51 16 50 6 -2 12 2 12 7 0 6
-42 10 -107 10 -100 0 -105 -1 -91 -17z"/>
<path d="M1139 3549 c-11 -16 -21 -19 -46 -14 -20 4 -33 2 -33 -5 0 -5 7 -10
16 -10 13 0 12 -5 -5 -26 -25 -32 -26 -49 -6 -100 9 -22 10 -31 2 -19 -25 40
-71 76 -89 72 -10 -3 -18 -1 -18 4 0 5 5 9 11 9 6 0 8 9 4 20 -7 23 -2 25 27
9 15 -8 23 -8 31 0 14 14 19 73 6 65 -5 -3 -9 -17 -9 -31 0 -26 -5 -27 -70 -8
-11 4 -15 -4 -15 -33 0 -20 6 -41 13 -45 18 -12 15 -27 -5 -20 -12 4 -11 0 5
-11 28 -21 46 -13 32 15 -17 30 6 23 32 -11 51 -67 67 -84 68 -72 0 6 4 12 10
12 5 0 7 -7 4 -15 -5 -11 -2 -13 10 -9 10 4 15 12 12 19 -2 7 1 19 7 26 10 11
9 11 -5 0 -19 -14 -53 -7 -43 9 3 5 0 18 -6 28 -7 12 -9 33 -5 55 8 41 21 48
29 16 3 -12 10 -18 16 -14 6 3 9 16 5 29 -3 15 2 28 15 40 21 19 21 19 21 -13
0 -27 3 -31 23 -30 45 4 56 -1 60 -28 3 -23 4 -21 6 10 0 20 -3 37 -9 37 -5 0
-6 8 -3 17 6 16 5 16 -17 0 -33 -23 -53 -22 -45 2 3 10 -1 23 -8 29 -10 9 -17
6 -28 -9z"/>
<path d="M1075 265 c-48 -47 -20 -122 51 -139 72 -18 130 99 73 147 -32 26
-94 22 -124 -8z"/>
</g>
</svg>
