<?xml version="1.0" standalone="no"?>
<!DOCTYPE svg PUBLIC "-//W3C//DTD SVG 20010904//EN"
 "http://www.w3.org/TR/2001/REC-SVG-20010904/DTD/svg10.dtd">
<svg version="1.0" xmlns="http://www.w3.org/2000/svg"
 width="233.000000pt" height="400.000000pt" viewBox="0 0 233.000000 400.000000"
 preserveAspectRatio="xMidYMid meet">
<metadata>
Created by potrace 1.15, written by Peter Selinger 2001-2017
</metadata>
<g transform="translate(0.000000,400.000000) scale(0.100000,-0.100000)"
fill="#000000" stroke="none">
<path d="M2159 3965 c-2 -1 -479 -6 -1059 -10 -580 -4 -1056 -8 -1057 -10 -4
-3 -3 -3857 1 -3880 3 -20 12 -20 616 -23 338 -1 611 0 608 3 -3 4 -203 6
-444 6 -242 -1 -512 2 -601 5 l-162 7 -3 136 c-2 75 -2 137 -2 139 1 1 106 5
235 7 149 3 235 8 237 15 2 5 10 10 17 10 23 0 131 60 175 97 23 20 50 55 60
77 10 23 19 34 19 26 1 -8 -6 -28 -14 -44 -17 -32 -12 -46 16 -46 32 0 87 61
114 125 13 33 24 51 24 40 1 -25 -32 -98 -59 -132 -29 -37 -79 -62 -137 -67
-13 -2 -31 -10 -40 -18 -10 -9 -37 -24 -60 -33 -24 -10 -43 -21 -43 -26 0 -5
-8 -9 -17 -9 -10 0 -23 -4 -30 -8 -14 -9 429 -8 1135 2 445 7 532 6 534 -5 0
-8 2 -73 3 -145 l2 -131 -111 -7 c-61 -3 -257 -6 -435 -6 -179 0 -321 -3 -315
-8 5 -4 203 -6 441 -4 l432 3 3 172 c8 451 -6 3726 -15 3733 -6 4 -65 12 -68
9z m46 -27 c2 -7 6 -352 10 -767 l6 -754 -32 7 c-48 9 -89 52 -89 92 0 38 -19
86 -31 78 -4 -2 -6 -10 -3 -17 3 -8 -4 -13 -16 -13 -11 0 -20 6 -20 13 0 7 4
13 9 13 10 0 24 30 17 37 -11 11 -56 -87 -56 -123 0 -33 -5 -42 -35 -63 -32
-22 -35 -27 -35 -75 0 -46 2 -52 22 -53 15 -2 18 1 10 6 -18 11 -12 107 6 104
6 -2 12 3 12 10 0 7 9 18 20 25 11 7 20 23 20 37 0 19 6 25 23 26 l22 2 -22 4
c-33 6 -28 23 7 23 27 0 30 -3 30 -34 0 -25 7 -40 25 -54 32 -25 31 -32 -2
-32 -14 0 -23 -3 -19 -7 4 -4 22 -6 41 -5 18 1 36 -2 40 -8 3 -5 -2 -10 -12
-11 -10 0 -13 -3 -5 -6 16 -6 15 -38 -3 -74 -9 -16 -13 -34 -10 -38 3 -5 7
-33 10 -61 4 -39 2 -51 -7 -48 -7 3 -15 15 -16 29 -4 24 -39 65 -48 56 -7 -7
7 -37 17 -37 5 0 9 -4 9 -9 0 -5 -8 -8 -17 -6 -10 1 -17 10 -17 19 2 23 -20
14 -25 -10 -1 -10 -9 -26 -17 -35 -8 -9 -11 -19 -8 -22 4 -4 2 -12 -4 -19 -7
-9 -40 -13 -106 -12 -53 1 -99 -3 -102 -7 -3 -5 3 -9 13 -10 107 -6 140 -6
150 3 7 6 13 5 17 -1 4 -5 21 -8 39 -5 42 7 59 8 76 3 7 -2 16 2 18 9 3 8 -6
12 -25 12 -17 0 -33 6 -35 13 -3 6 -6 3 -6 -8 -1 -17 -3 -17 -11 -5 -5 8 -10
19 -10 23 0 12 95 1 96 -12 1 -6 2 -19 4 -28 1 -11 4 -13 6 -6 4 8 13 9 30 3
13 -5 31 -7 39 -4 13 5 15 -8 15 -89 0 -52 3 -115 6 -141 7 -45 6 -46 -19 -46
-20 0 -28 -6 -33 -25 -9 -36 3 -43 17 -11 7 14 15 26 19 26 21 0 28 -135 8
-143 -7 -2 -24 0 -37 4 -19 8 -22 15 -19 39 3 19 1 29 -6 27 -6 -2 -12 -16
-14 -30 -4 -34 -26 -35 -48 -2 -15 23 -14 25 5 46 12 13 21 28 21 33 0 6 7 2
15 -8 8 -11 18 -17 22 -13 3 4 -2 16 -13 28 l-19 21 -23 -29 -23 -28 2 75 c0
41 1 101 0 132 l-1 57 -112 3 c-62 2 -116 -1 -119 -5 -3 -4 -4 -69 -1 -143 4
-146 0 -184 -23 -184 -8 0 -15 5 -15 10 0 6 7 10 15 10 8 0 15 5 15 11 0 5 -4
8 -9 4 -5 -3 -13 0 -17 7 -5 8 -10 6 -16 -8 -5 -12 -7 -4 -4 25 3 26 11 48 20
53 9 5 16 21 16 36 l-1 27 -17 -30 c-16 -29 -17 -17 -28 330 -7 198 -12 455
-13 570 -1 150 -4 214 -13 223 -9 9 -6 12 13 12 33 0 41 8 29 31 -7 11 -6 19
1 21 12 4 -4 253 -26 399 -10 68 -11 107 -5 130 6 19 10 66 10 105 0 60 -3 72
-17 75 -10 2 -97 2 -193 -1 -96 -3 -393 -7 -660 -8 -363 -2 -488 -6 -497 -15
-9 -9 -10 -29 -3 -77 17 -123 13 -269 -11 -425 -11 -76 -11 -159 1 -130 7 18
8 19 15 3 10 -25 -2 -51 -20 -44 -8 3 -15 1 -15 -5 0 -5 7 -12 15 -15 10 -4
13 -13 10 -24 -3 -11 0 -20 10 -24 21 -8 19 -29 -3 -22 -26 9 -43 -57 -26 -99
7 -17 22 -109 34 -205 11 -96 28 -229 36 -295 8 -66 16 -150 18 -188 2 -37 6
-70 9 -74 4 -3 -3 -19 -14 -35 -21 -29 -20 -54 6 -123 6 -14 5 -17 -3 -10 -6
6 -16 31 -23 56 -11 41 -10 50 4 73 18 27 23 51 8 42 -5 -4 -16 -3 -25 0 -18
7 -22 39 -6 49 16 10 12 42 -10 82 -11 21 -20 52 -20 70 0 18 -11 48 -24 68
l-25 36 -16 -31 c-9 -17 -15 -36 -14 -43 3 -28 -2 -48 -11 -42 -6 4 -8 10 -5
15 3 4 -3 11 -12 15 -10 3 -19 1 -21 -4 -2 -6 -8 -11 -13 -11 -5 0 -9 34 -9
75 0 71 -1 75 -30 97 -17 12 -30 29 -30 37 -1 14 -2 14 -10 0 -6 -10 -6 -28 0
-48 8 -27 6 -31 -11 -31 -16 0 -18 3 -9 19 17 32 11 38 -10 11 -13 -16 -19
-39 -18 -65 1 -37 2 -37 5 -7 2 18 8 30 13 27 5 -3 7 -12 3 -20 -4 -11 -1 -13
11 -9 9 3 13 10 10 15 -3 5 0 9 5 9 6 0 11 -18 11 -40 0 -22 4 -40 9 -40 12 0
18 97 8 116 -5 10 -4 12 7 8 20 -8 26 -37 26 -137 0 -56 4 -86 10 -82 5 3 10
14 10 24 0 10 7 24 15 31 28 23 17 -36 -16 -84 -20 -31 -28 -53 -24 -66 6 -19
-8 -26 -38 -21 -5 1 -5 -3 -2 -9 4 -6 13 -9 21 -6 7 3 16 1 19 -4 4 -6 0 -10
-7 -10 -10 0 -9 -3 2 -10 8 -5 12 -11 9 -15 -9 -8 -59 35 -59 51 0 20 -8 17
-36 -13 -22 -26 -25 -27 -38 -11 -16 21 -12 136 5 152 9 8 10 5 6 -12 -3 -12
-1 -20 3 -17 5 3 12 -10 16 -30 8 -43 24 -47 19 -4 -8 59 -23 88 -46 89 -11 0
-29 -51 -29 -85 0 -19 -4 -35 -10 -35 -9 0 -11 194 -12 1533 0 131 2 240 4
242 5 5 1219 21 1721 23 326 2 418 -1 422 -10z m-449 -235 c-4 -9 -2 -11 5 -7
7 4 10 1 7 -7 -3 -8 -11 -13 -18 -11 -9 2 -11 -6 -7 -28 4 -17 2 -30 -3 -30
-6 0 -10 -5 -10 -11 0 -5 4 -8 8 -5 5 3 9 -14 10 -37 1 -25 -2 -37 -6 -29 -5
7 -17 10 -28 7 -17 -6 -18 -6 -2 7 11 10 14 19 8 29 -8 12 -12 11 -24 -6 -9
-11 -16 -23 -16 -26 0 -10 30 -33 47 -35 20 -3 28 -12 19 -21 -4 -4 -12 -1
-17 7 -9 13 -10 12 -6 -1 6 -18 -40 -69 -61 -69 -7 0 -12 -4 -12 -10 0 -16 9
-12 49 18 53 42 61 45 61 28 0 -9 -5 -15 -11 -13 -14 3 -36 -30 -26 -39 4 -4
14 1 22 12 9 12 14 14 15 6 0 -17 -25 -43 -34 -35 -3 4 -6 1 -6 -7 0 -10 -3
-10 -15 0 -11 9 -18 10 -28 1 -8 -6 -16 -8 -19 -6 -6 6 -34 -91 -54 -185 -15
-67 -11 -100 10 -100 8 0 11 -14 10 -42 -1 -27 3 -49 13 -60 17 -19 14 -109
-5 -116 -6 -2 -28 14 -50 35 -38 37 -39 40 -45 128 -3 50 -6 147 -7 217 l-1
128 33 14 33 14 -40 1 c-22 1 -53 8 -69 16 -16 9 -36 13 -43 11 -7 -3 -13 -1
-13 5 0 5 -6 9 -12 8 -31 -4 -55 3 -78 22 -19 16 -20 19 -6 15 16 -6 17 -4 6
9 -10 12 -16 13 -27 3 -11 -9 -17 -8 -27 3 -19 19 -30 59 -17 59 6 0 11 -6 11
-14 0 -8 11 -17 24 -20 14 -3 38 -17 54 -31 16 -13 32 -22 36 -18 3 3 6 1 6
-5 0 -15 43 -9 48 7 2 6 0 11 -5 9 -21 -6 -73 13 -73 26 0 10 -6 13 -15 10
-18 -7 -20 17 -4 33 13 13 59 -3 59 -19 0 -5 5 -6 10 -3 6 3 10 -1 10 -9 0
-10 6 -13 17 -9 10 4 14 2 10 -4 -4 -6 4 -18 18 -27 14 -9 25 -12 25 -7 0 6
-8 15 -17 20 -10 6 -13 11 -6 11 6 0 19 -7 27 -16 9 -8 16 -12 16 -8 0 3 6 1
13 -5 8 -6 17 -8 20 -4 4 3 7 -2 7 -11 0 -14 -5 -17 -25 -12 -15 4 -25 2 -25
-5 0 -6 -7 -3 -16 5 -18 18 -34 21 -34 5 0 -5 5 -7 10 -4 6 3 10 -1 10 -9 0
-16 35 -23 43 -8 2 4 3 2 1 -4 -1 -7 13 -10 39 -8 23 2 45 -2 48 -8 5 -8 12
-6 24 5 9 10 12 17 6 17 -21 0 -10 18 14 22 22 5 23 3 13 -16 -10 -19 -8 -19
15 3 30 28 28 33 -21 65 -63 40 -92 75 -87 105 4 20 3 22 -3 7 -6 -14 -11 -16
-16 -8 -4 7 -14 12 -23 12 -14 0 -14 -2 1 -19 10 -11 14 -25 9 -37 -6 -17 -5
-18 12 -4 16 14 17 13 11 -8 -6 -18 -4 -21 11 -15 16 6 17 5 3 -12 -14 -17
-13 -18 2 -13 10 4 19 1 22 -9 4 -8 13 -13 21 -9 8 3 15 1 15 -4 0 -5 7 -7 15
-4 11 5 13 2 9 -10 -3 -9 -7 -16 -8 -16 0 0 -16 4 -34 9 -25 8 -32 7 -32 -4 0
-7 6 -15 13 -18 7 -2 8 -8 3 -13 -5 -5 -11 -4 -13 4 -3 6 -8 10 -12 8 -4 -3
-5 8 -3 24 4 25 1 28 -17 23 -12 -3 -21 -1 -21 6 0 5 -7 8 -15 5 -11 -5 -14
-1 -9 12 5 15 4 16 -4 5 -9 -12 -14 -12 -36 2 -14 9 -32 17 -41 17 -8 0 -15 9
-15 21 0 11 -4 17 -10 14 -6 -4 -18 -1 -27 7 -12 10 -17 10 -20 1 -2 -7 -10
-11 -16 -9 -7 1 -8 1 -4 -2 10 -5 -12 -32 -27 -32 -6 0 -36 23 -66 50 -58 53
-65 57 -76 38 -5 -8 -2 -9 9 -5 10 3 17 2 17 -3 0 -6 -4 -10 -10 -10 -5 0 -10
-5 -10 -11 0 -6 7 -8 17 -5 25 10 61 -29 55 -60 -4 -24 -5 -24 -23 -8 -23 21
-25 36 -4 28 8 -4 15 -2 15 4 0 16 -33 24 -42 10 -9 -15 -11 -12 -55 62 -15
25 -32 48 -37 52 -21 14 5 21 41 10 20 -6 42 -8 47 -3 6 5 81 9 166 9 85 1
149 -1 143 -4 -18 -8 3 -44 25 -43 10 0 12 3 5 6 -17 6 -17 36 -1 31 7 -3 15
-15 19 -29 8 -27 12 -17 9 20 -2 23 -1 24 85 19 47 -2 88 -1 91 4 9 14 26 -3
20 -19z m-1271 -19 c13 -16 14 -16 9 -1 -3 9 -1 17 5 17 6 0 11 -6 11 -12 0
-9 4 -8 10 2 9 13 11 13 20 0 8 -13 10 -13 10 2 0 20 37 21 44 1 7 -18 36 -16
36 2 0 11 10 14 43 12 23 -1 45 -6 49 -12 5 -6 8 -5 8 3 0 8 19 12 59 12 51 0
61 -3 66 -20 3 -11 11 -20 18 -20 8 0 8 3 -1 12 -21 21 -13 28 31 27 34 0 39
-2 25 -12 -15 -10 -15 -12 0 -23 13 -10 15 -17 6 -30 -18 -30 -38 -30 -32 0 6
31 -8 45 -17 18 -7 -24 2 -51 28 -79 28 -31 41 -29 20 3 -17 26 -17 27 6 19
17 -5 21 -4 16 5 -6 9 -3 9 13 1 15 -8 21 -8 25 2 3 9 7 9 20 -2 12 -9 17 -10
17 -2 0 6 -7 14 -15 17 -22 9 -19 35 3 28 9 -3 6 1 -8 9 -25 16 -53 11 -29 -4
11 -7 11 -9 1 -9 -7 0 -21 8 -31 18 -25 23 -9 37 47 41 28 2 42 -2 42 -9 0 -9
-11 -11 -32 -7 l-33 6 29 -15 c20 -11 31 -13 39 -5 6 6 19 11 29 11 17 0 16
-4 -7 -49 -29 -59 -82 -102 -97 -80 -8 11 -9 10 -4 -3 3 -12 0 -18 -9 -18 -8
0 -15 -4 -15 -8 0 -4 -8 -8 -19 -9 -21 -2 -44 39 -35 62 5 11 -8 7 -39 -12
-25 -15 -43 -31 -41 -35 2 -4 -1 -10 -7 -14 -7 -4 -9 -3 -6 3 4 6 0 16 -8 23
-13 11 -14 10 -8 -6 6 -17 5 -17 -10 -5 -15 12 -17 11 -14 -7 4 -24 17 -42 17
-23 0 7 5 9 10 6 17 -11 52 5 46 22 -5 11 -1 13 15 8 15 -5 19 -4 15 4 -10 16
3 14 20 -3 21 -22 17 -34 -16 -51 -32 -17 -41 -19 -38 -7 2 4 -1 7 -7 7 -5 0
-9 -5 -7 -11 4 -17 -49 -28 -59 -12 -7 10 -9 8 -9 -5 0 -26 -30 -34 -46 -12
-17 23 -18 43 -2 27 7 -7 18 -12 25 -12 11 0 11 4 1 19 -7 11 -16 17 -21 14
-5 -3 -6 4 -2 16 9 30 -9 26 -23 -4 -10 -21 -9 -30 4 -50 14 -22 15 -25 1 -25
-9 0 -18 13 -22 30 -7 33 -25 51 -25 25 0 -13 -6 -16 -25 -11 -18 5 -25 2 -25
-8 0 -20 19 -31 32 -18 8 8 15 7 24 -3 20 -20 18 -21 -26 -17 -27 3 -40 9 -40
19 0 10 -6 13 -16 9 -12 -5 -15 -2 -10 10 3 8 6 18 6 20 0 2 7 4 15 4 8 0 15
5 15 10 0 17 -29 11 -42 -9 -9 -16 -14 -17 -25 -6 -17 18 -16 25 3 25 8 0 12
5 9 10 -3 6 -3 10 2 10 4 0 22 11 38 24 28 23 28 25 8 23 -13 -1 -23 -7 -23
-14 0 -19 -10 -16 -36 12 -27 29 -30 30 -38 9 -3 -8 -2 -13 2 -10 4 2 14 1 22
-4 11 -7 12 -14 2 -34 -14 -32 -32 -34 -25 -3 4 20 2 19 -14 -5 -10 -16 -20
-28 -23 -28 -12 0 -4 76 10 87 13 11 13 12 -2 13 -22 0 -24 20 -3 20 8 0 15 7
15 16 0 10 -6 14 -14 11 -14 -5 -30 29 -21 43 8 13 45 3 60 -16z m676 -129
c24 6 27 4 22 -15 -3 -11 -2 -20 3 -19 34 6 90 -40 99 -81 4 -17 11 -30 16
-30 5 0 9 -6 9 -14 0 -9 10 -14 28 -13 15 0 40 -1 56 -2 28 -1 29 -2 10 -16
-19 -14 -19 -14 1 -15 22 0 27 -32 10 -60 -5 -9 -4 -15 3 -18 17 -5 15 -22 -3
-22 -8 0 -15 -5 -15 -11 0 -6 7 -9 15 -5 17 6 19 -14 9 -76 -8 -48 -40 -59
-49 -17 -4 16 -11 29 -16 29 -6 0 -7 -6 -3 -12 5 -8 0 -7 -11 2 -17 14 -18 13
-12 -4 6 -16 5 -17 -8 -6 -9 7 -12 16 -7 19 5 3 11 14 15 23 4 12 2 15 -9 11
-8 -3 -14 1 -14 9 0 7 9 14 20 15 19 2 25 -8 20 -32 -1 -5 4 -5 10 2 10 9 9
16 -2 32 -8 12 -18 18 -22 14 -8 -8 -26 15 -26 35 0 7 12 24 26 37 21 19 30
22 40 14 16 -13 18 -1 5 20 -5 7 -14 10 -20 7 -6 -4 -11 -2 -11 4 0 7 -8 9
-20 5 -28 -9 -57 10 -63 44 -8 39 -48 84 -68 76 -11 -4 -14 -14 -11 -31 5 -27
-9 -32 -29 -8 -11 14 -15 13 -31 -8 -15 -19 -18 -20 -18 -5 0 20 -13 22 -42 6
-19 -10 -19 -9 -13 20 5 26 4 30 -9 25 -10 -4 -16 -1 -16 9 0 8 5 17 11 19 9
3 9 10 0 26 -10 19 -9 22 7 22 10 0 23 -5 30 -12 9 -9 15 -4 24 23 l12 34 10
-28 c9 -24 14 -27 37 -22z m-495 -162 l34 -28 0 -146 c0 -184 7 -237 32 -250
23 -13 39 -2 18 11 -8 6 -10 10 -5 10 6 0 16 -5 23 -12 9 -9 12 -9 12 0 0 7
-7 15 -15 18 -8 4 -12 10 -9 15 3 5 -2 9 -10 9 -19 0 -22 20 -3 21 10 0 10 2
0 6 -7 2 -13 16 -13 29 0 13 6 24 13 24 8 0 7 4 -3 10 -13 9 -13 10 0 10 10 0
11 3 4 8 -12 8 -25 62 -15 62 3 0 4 23 3 50 -6 74 3 100 33 100 l25 0 2 -137
c1 -76 1 -148 0 -160 0 -17 5 -23 20 -23 12 0 18 5 15 13 -15 40 -17 57 -8 57
16 0 24 -64 12 -107 -19 -69 -104 -132 -178 -133 -33 0 -41 8 -24 26 5 5 5 36
0 74 -11 86 -16 470 -6 470 4 0 24 -12 43 -27z m814 -58 c0 -8 4 -15 9 -15 5
0 7 -9 4 -20 -3 -11 -1 -20 5 -20 11 0 11 -18 -1 -37 -5 -8 -3 -13 5 -14 10 0
10 -2 -1 -6 -11 -5 -11 -7 0 -14 10 -6 11 -9 2 -9 -7 0 -13 -9 -13 -20 0 -11
6 -20 13 -20 8 0 7 -4 -3 -10 -12 -8 -13 -13 -2 -30 10 -16 10 -20 0 -20 -9 0
-8 -3 2 -10 13 -9 13 -10 0 -10 -13 0 -13 -1 0 -10 13 -9 13 -11 0 -20 -13 -9
-13 -10 0 -10 8 -1 4 -6 -10 -12 -20 -9 -22 -12 -8 -15 13 -3 15 -9 8 -28 -10
-26 -5 -35 21 -35 15 0 79 -51 79 -63 0 -13 -82 -17 -120 -7 -54 14 -125 84
-132 128 -4 26 -1 32 13 32 32 0 48 -11 41 -28 -5 -15 -4 -16 13 -2 17 14 18
13 12 -2 -7 -20 0 -22 23 -8 13 8 14 35 12 169 -2 88 -1 165 3 171 9 15 25 12
25 -5z m-294 -28 c8 3 14 -1 14 -11 0 -11 -9 -16 -27 -16 -45 0 -55 -13 -51
-61 2 -37 0 -44 -14 -43 -21 2 -24 -12 -5 -19 25 -9 49 13 43 39 -6 21 -2 25
24 30 28 6 43 24 20 24 -5 0 -10 4 -10 10 0 5 7 7 15 4 39 -15 0 -163 -49
-185 -70 -32 -150 37 -157 136 -3 39 -1 50 11 50 8 0 14 8 12 17 -1 8 6 18 15
22 10 3 34 12 53 19 31 12 38 12 64 -4 16 -9 35 -15 42 -12z m-585 -440 c-5
-5 -17 -5 -29 2 -49 26 -56 3 -12 -38 37 -33 41 -79 16 -184 -9 -38 -14 -73
-10 -78 9 -15 28 -10 47 11 16 19 15 20 -3 30 -27 14 -27 44 0 37 11 -3 23 -1
26 4 3 5 -4 9 -15 9 -14 0 -21 6 -21 20 0 22 3 23 49 14 17 -4 28 -10 25 -15
-3 -5 3 -6 12 -2 12 4 15 2 12 -8 -2 -8 -15 -15 -27 -17 -19 -3 -20 -6 -9 -20
11 -13 11 -15 -3 -10 -12 5 -16 0 -16 -18 0 -20 2 -22 14 -13 10 9 17 9 25 1
7 -7 25 -12 40 -12 26 0 28 -3 28 -43 0 -23 6 -66 14 -95 11 -46 11 -52 -2
-52 -9 0 -24 -7 -34 -17 -20 -18 -25 -53 -7 -53 7 0 9 -10 4 -27 -9 -38 -13
-40 -31 -15 -8 12 -20 22 -26 22 -6 0 -1 -11 12 -26 16 -16 21 -27 14 -32 -6
-4 -14 -17 -18 -29 -7 -21 -9 -22 -31 -7 -13 8 -26 11 -29 6 -3 -5 6 -14 19
-20 14 -7 25 -17 25 -23 0 -8 -6 -6 -17 4 -21 19 -79 35 -70 20 4 -6 0 -13 -8
-17 -17 -6 -19 0 -35 129 -6 49 -15 94 -20 100 -16 19 -15 50 2 74 19 27 19
27 34 -8 9 -21 10 -17 10 27 -1 29 -4 52 -8 52 -5 0 -8 -7 -8 -16 0 -9 -6 -14
-12 -12 -14 5 -18 49 -21 254 -2 127 0 144 17 163 11 12 15 21 10 21 -5 1 6 7
24 15 31 14 32 16 26 56 -5 30 -3 43 7 50 12 7 14 -10 17 -98 1 -58 -1 -110
-7 -116z m579 182 c-11 -37 -6 -51 15 -43 20 8 31 -24 17 -47 -18 -28 -14 -34
8 -14 26 24 25 53 -2 82 l-22 23 35 -6 c19 -4 35 -7 36 -8 5 -3 -19 -101 -27
-112 -6 -7 -34 -18 -61 -24 -49 -12 -50 -13 -43 -42 4 -20 2 -33 -7 -38 -17
-11 -40 14 -37 41 3 20 -4 25 -48 35 -28 6 -57 14 -63 18 -15 10 -37 54 -46
94 -6 28 -4 32 13 32 16 0 20 -6 19 -34 -1 -41 14 -61 56 -75 l32 -11 -32 28
c-31 27 -53 72 -35 72 6 0 12 -7 16 -15 9 -24 23 -17 29 15 5 21 11 28 22 24
8 -3 15 -10 15 -15 0 -5 5 -9 10 -9 6 0 10 7 10 15 0 8 8 15 18 15 9 1 28 7
42 15 36 21 40 19 30 -16z m137 -11 c8 -75 92 -163 169 -175 18 -3 55 0 81 6
35 9 49 9 51 1 3 -8 8 -8 17 0 10 8 14 -12 19 -99 9 -136 6 -219 -11 -284 -7
-28 -13 -61 -12 -72 1 -11 8 6 16 38 8 31 19 57 24 57 12 0 12 -3 -7 -67 -9
-30 -13 -57 -11 -60 3 -3 11 13 18 36 7 23 16 41 21 41 14 0 9 -28 -14 -75
-21 -44 -22 -47 -7 -154 l15 -109 -36 -6 c-20 -3 -45 -15 -55 -26 -26 -28 -39
-25 -19 5 9 14 12 25 6 25 -6 0 -12 -6 -15 -12 -2 -7 -8 -10 -12 -6 -5 5 0 17
10 28 10 11 15 23 11 28 -4 4 -13 -1 -20 -11 -18 -23 -29 -22 -16 2 7 14 6 21
-3 24 -9 3 -8 8 3 22 14 17 13 18 -3 12 -26 -10 -33 19 -12 43 10 11 13 20 7
20 -6 0 -12 -6 -15 -12 -2 -7 -8 -10 -12 -6 -5 5 0 17 10 28 20 22 14 26 -16
10 -27 -15 -37 14 -14 39 15 18 15 21 0 51 -15 30 -20 32 -56 27 -43 -6 -44
-5 -28 24 6 12 16 48 23 82 l13 62 22 -47 c26 -58 37 -64 15 -8 -13 32 -14 43
-4 55 23 28 39 17 46 -32 3 -27 12 -70 20 -98 18 -71 18 -12 -1 75 -7 36 -12
66 -11 68 2 1 16 -4 32 -13 16 -8 37 -15 48 -15 13 0 16 -5 11 -17 -4 -10 -9
-43 -11 -73 -4 -55 -4 -55 17 25 l22 80 -22 117 c-11 64 -21 126 -21 137 0 19
-2 20 -20 9 -13 -9 -16 -15 -7 -20 18 -11 7 -15 -57 -23 -38 -5 -57 -4 -53 2
4 6 -12 15 -33 22 -22 6 -59 30 -82 52 -40 38 -43 39 -56 22 -10 -13 -12 -34
-8 -70 7 -64 19 -91 73 -170 40 -58 53 -93 35 -93 -4 0 -13 14 -20 30 -8 17
-17 28 -22 25 -16 -10 -51 49 -72 122 -11 40 -25 73 -31 73 -5 0 -7 -6 -4 -13
3 -7 13 -41 22 -75 12 -42 30 -77 57 -107 27 -31 35 -45 24 -45 -9 0 -16 4
-16 8 0 11 -78 47 -86 39 -3 -3 16 -18 43 -33 26 -15 52 -34 56 -41 4 -7 15
-13 22 -13 8 0 15 -4 15 -10 0 -16 -13 -12 -63 20 -71 45 -81 36 -13 -12 33
-23 54 -44 47 -46 -7 -2 -20 3 -29 11 -32 28 -132 88 -132 79 0 -5 34 -31 75
-58 41 -27 75 -52 75 -56 0 -13 -8 -9 -57 26 -62 43 -107 66 -130 65 -17 -1
-17 -2 0 -6 11 -3 16 -11 13 -19 -3 -8 3 -25 14 -36 24 -26 21 -32 -13 -19
-15 6 -29 6 -31 2 -3 -5 8 -11 25 -15 21 -4 29 -10 26 -20 -6 -14 14 -25 83
-45 32 -10 31 -10 -15 -5 -36 3 -46 2 -35 -5 8 -6 25 -11 38 -11 12 0 22 -4
22 -9 0 -4 -24 -4 -52 1 -29 4 -79 9 -110 9 -84 1 -77 18 12 32 17 3 13 5 -12
6 -21 0 -55 -8 -78 -20 -22 -11 -59 -23 -82 -25 l-43 -4 51 13 c45 12 124 52
124 63 0 5 -51 -15 -65 -25 -21 -16 -75 -30 -80 -20 -4 5 0 9 7 10 32 2 52 9
86 32 21 14 47 28 60 32 22 6 31 25 12 25 -5 0 -10 -4 -10 -10 0 -5 -8 -10
-17 -10 -13 0 -14 3 -5 12 24 24 11 28 -18 7 -16 -12 -26 -27 -23 -33 3 -6 3
-8 -2 -4 -4 4 -33 -6 -64 -21 -61 -31 -126 -37 -126 -11 0 14 86 64 156 90 19
6 29 14 22 17 -6 2 -32 -5 -57 -16 -25 -12 -49 -21 -53 -21 -4 0 -21 -7 -37
-15 -16 -9 -31 -13 -33 -11 -6 6 81 56 98 56 19 1 88 39 70 40 -7 0 -46 -11
-85 -25 -63 -22 -68 -23 -46 -6 14 11 44 25 68 32 23 6 45 16 49 21 7 13 -24
3 -96 -28 -30 -14 -56 -23 -58 -20 -4 3 47 38 89 61 19 10 24 25 9 25 -4 0
-24 -11 -44 -24 -42 -29 -77 -41 -77 -27 0 5 13 12 29 16 16 3 37 15 47 26 23
25 4 25 -26 -1 -13 -11 -34 -20 -47 -20 -20 0 -22 -4 -17 -25 9 -35 -2 -31
-15 5 -10 29 -7 34 38 84 54 60 93 122 110 178 11 33 9 43 -13 90 -36 76 -42
108 -22 108 9 0 16 -8 16 -19 0 -28 26 -84 49 -105 11 -10 18 -22 15 -27 -2
-4 18 -11 46 -15 34 -4 50 -11 50 -21 0 -12 -10 -13 -47 -8 -26 3 -51 12 -55
18 -6 9 -8 9 -8 0 0 -6 7 -19 16 -28 20 -19 11 -33 -10 -16 -12 10 -18 5 -37
-31 -22 -44 -75 -114 -112 -149 -11 -10 -17 -22 -14 -26 12 -11 102 92 127
145 22 46 25 49 47 39 31 -14 29 -29 -3 -21 -18 5 -25 3 -21 -3 10 -16 78 -22
74 -7 -1 7 2 14 7 16 5 2 10 -10 12 -26 2 -23 0 -27 -17 -23 -10 3 -19 1 -19
-4 0 -5 9 -9 21 -9 11 0 18 -4 15 -9 -4 -5 -3 -16 0 -25 13 -33 19 -14 16 46
-3 43 -9 66 -20 74 -10 7 -13 16 -8 21 5 4 11 2 13 -5 4 -10 8 -10 20 -1 12
10 16 10 23 -2 8 -11 13 -12 30 -1 23 14 64 16 55 3 -8 -13 10 -22 29 -15 24
9 19 34 -6 36 -42 2 -47 3 -54 10 -8 9 11 17 51 21 60 6 98 53 88 110 -6 38 4
113 14 103 4 -3 8 -20 10 -38z m-441 -32 c12 -69 -50 -169 -123 -197 -43 -16
-108 -10 -153 14 -24 13 -45 28 -48 35 -2 8 6 7 25 -3 15 -8 53 -15 84 -15 46
0 64 6 104 32 50 33 84 90 85 141 0 38 18 34 26 -7z m834 -22 c0 -14 -2 -15
-17 -3 -14 12 -16 12 -12 0 9 -25 38 -38 49 -21 8 13 10 13 14 0 3 -8 8 -195
11 -415 3 -220 7 -434 10 -475 2 -41 1 -68 -3 -60 -4 8 -15 26 -24 40 -23 34
-58 186 -58 251 0 33 8 69 21 95 16 33 18 47 10 63 -6 11 -8 26 -5 34 3 9 -1
17 -10 19 -14 3 -17 34 -20 238 -3 129 -2 238 0 242 9 14 34 8 34 -8z m-1258
-266 c17 -112 27 -188 33 -264 2 -21 10 -75 19 -119 21 -108 39 -312 30 -327
-10 -16 -49 215 -69 412 -9 85 -20 180 -25 210 -14 92 -22 200 -13 200 4 0 16
-51 25 -112z m939 -259 c-20 -59 -16 -72 25 -67 31 4 35 2 31 -16 -3 -12 -2
-57 2 -101 4 -44 7 -81 5 -83 -1 -2 -13 2 -26 8 l-23 12 24 -22 c20 -19 22
-29 17 -63 -4 -23 -8 -43 -10 -45 -2 -2 -28 12 -57 31 -105 66 -378 137 -530
137 -47 0 -48 0 -39 28 20 66 17 65 94 59 39 -3 87 -8 106 -11 19 -3 27 -3 17
0 -65 20 86 32 211 18 100 -13 53 -25 -68 -18 -82 5 -120 4 -120 -4 0 -15 64
-36 69 -21 2 8 5 8 10 0 4 -6 56 -26 116 -44 61 -19 118 -38 128 -42 15 -6 12
3 -12 49 -33 60 -36 76 -22 104 9 18 35 83 45 116 4 10 9 16 12 13 4 -3 1 -20
-5 -38z m-601 -313 c-11 -48 -20 -111 -20 -141 l0 -55 50 0 c45 0 50 2 51 23
0 12 5 31 10 42 7 15 8 9 5 -23 l-4 -43 51 3 52 3 12 94 c15 125 22 161 32
161 5 0 3 -25 -5 -56 -7 -31 -14 -88 -15 -128 -2 -66 -1 -71 19 -74 17 -3 21
1 16 15 -5 16 -4 16 8 3 10 -12 29 -14 82 -10 l70 5 -3 60 c-1 33 -6 79 -11
103 -4 23 -4 44 0 47 9 6 17 -33 26 -132 l7 -73 34 0 35 0 -5 88 c-5 79 -5 82
4 32 6 -30 12 -69 15 -86 4 -26 10 -33 34 -36 27 -4 30 -2 30 21 0 28 -13 84
-25 114 -4 9 -3 17 3 17 5 0 12 -12 16 -27 26 -112 32 -126 60 -128 26 -1 27
1 24 50 l-3 50 51 3 c46 3 51 1 62 -23 6 -14 16 -25 21 -25 5 0 7 -15 4 -34
-5 -32 -3 -34 31 -46 20 -6 54 -9 79 -5 29 5 47 3 51 -4 10 -16 22 -15 -651
-25 l-513 -8 0 34 c0 30 4 35 33 43 24 8 33 16 35 37 3 27 28 49 70 62 23 8
24 7 20 -55 -2 -43 1 -63 10 -66 9 -3 12 11 12 50 0 74 34 247 46 234 2 -2 -5
-43 -16 -91z m-373 47 c3 -9 2 -23 -4 -32 -13 -22 -16 -108 -3 -116 6 -3 10 3
10 14 0 12 6 21 14 21 12 0 12 -5 3 -30 -11 -30 -12 -30 -84 -30 -42 0 -73 4
-73 10 0 6 8 10 18 11 11 0 7 4 -10 11 -19 7 -28 17 -28 32 0 19 5 23 30 22
16 -1 30 -5 30 -10 0 -6 5 -5 12 2 8 8 15 9 25 1 19 -16 17 20 -2 45 -20 27
-19 54 3 58 39 8 53 6 59 -9z m-248 -114 c-11 -7 -10 -9 4 -9 10 0 17 -8 17
-19 0 -11 5 -23 10 -26 6 -3 10 -2 10 3 0 5 11 12 25 14 17 4 25 1 25 -8 0 -8
-10 -14 -24 -14 -31 0 -48 -22 -45 -57 1 -15 1 -58 1 -94 -2 -58 -5 -67 -22
-72 -11 -3 -20 -12 -20 -21 0 -25 -14 -19 -34 14 -13 23 -23 29 -37 25 -17 -6
-19 -1 -19 58 0 43 4 67 13 71 10 5 10 7 0 12 -8 3 -13 25 -13 51 l0 46 47 -7
c35 -4 44 -3 36 5 -13 13 14 52 30 42 5 -3 3 -9 -4 -14z m1779 -94 c2 -19 -2
-35 -8 -35 -6 0 -8 10 -4 24 3 13 1 27 -5 30 -7 5 -11 -7 -11 -34 0 -34 3 -41
18 -38 12 2 19 16 23 48 5 35 6 38 8 15 1 -16 6 -39 11 -50 7 -14 8 -6 5 28
-2 26 1 47 6 47 5 0 10 -19 11 -42 l1 -43 4 43 c6 63 21 51 20 -15 -1 -45 2
-58 13 -58 12 0 15 -21 16 -115 1 -89 -1 -101 -6 -55 -7 59 -7 58 -8 -29 -2
-74 -4 -87 -17 -82 -9 3 -15 0 -15 -9 0 -8 7 -15 15 -15 12 0 15 -14 17 -62
l2 -63 6 70 6 70 2 -92 c2 -87 -9 -121 -22 -70 -12 49 -94 107 -153 107 -10 0
-13 44 -13 188 0 103 -3 197 -6 210 -4 12 -2 22 4 22 6 0 13 -8 15 -17 2 -10
3 -6 2 10 -2 28 9 37 18 15 3 -7 6 -3 6 10 1 14 7 22 19 22 13 0 19 -9 20 -35z
m-1639 -36 c0 13 4 21 8 17 4 -3 13 4 21 16 9 15 11 17 8 5 -14 -46 -18 -97
-7 -97 6 0 11 13 11 29 0 37 16 81 30 81 7 0 8 -6 0 -19 -12 -24 -13 -64 -1
-57 5 3 12 22 15 41 16 81 21 21 18 -205 -2 -163 0 -240 7 -240 7 0 11 25 11
60 0 86 32 74 39 -14 2 -18 19 8 24 34 2 14 5 -1 6 -32 l1 -58 -42 -2 c-24 0
-52 0 -63 1 -40 4 -103 -10 -124 -28 -11 -10 -28 -35 -36 -55 -8 -20 -17 -36
-20 -36 -3 0 -4 26 -4 58 1 31 4 47 6 35 2 -13 8 -23 13 -23 4 0 6 9 3 20 -7
27 5 72 17 65 6 -3 10 -1 10 4 0 6 -4 11 -9 11 -5 0 -12 10 -16 23 -7 18 -9
15 -15 -23 -7 -43 -7 -42 -8 23 -1 39 2 67 8 67 6 0 10 15 9 33 0 27 -2 29 -9
12 -6 -13 -9 9 -9 66 -1 126 9 207 27 214 11 4 13 -1 10 -25 -3 -16 -1 -30 4
-30 4 0 9 10 9 23 1 17 3 16 8 -8 7 -28 8 -27 16 20 l9 50 7 -40 c4 -24 7 -30
8 -16z m1116 -69 c-4 -11 -2 -20 4 -20 6 0 11 9 11 20 0 28 20 25 21 -2 l2
-23 4 23 c5 27 23 29 23 2 0 -11 5 -20 11 -20 6 0 8 9 4 20 -5 17 -2 20 24 20
28 0 31 -3 31 -30 0 -16 5 -30 10 -30 6 0 10 15 10 33 1 27 2 29 11 14 6 -9 8
-26 4 -36 -3 -11 -1 -22 5 -26 6 -4 10 9 10 34 0 24 5 41 11 41 8 0 10 -18 5
-61 -5 -42 -4 -59 3 -54 6 3 11 31 11 61 0 52 2 55 23 52 20 -3 23 -10 28 -73
l5 -70 2 73 c1 40 6 72 12 72 6 0 11 -32 11 -72 l1 -73 9 55 c4 30 6 63 3 73
-3 9 -1 17 5 17 6 0 7 -42 4 -115 -4 -81 -3 -115 5 -115 7 0 12 31 15 83 2 51
4 27 5 -65 l2 -148 -67 0 c-129 0 -175 -28 -186 -115 -4 -26 -18 -92 -31 -148
-39 -167 -40 -173 -15 -198 24 -24 19 -42 -32 -101 l-28 -33 15 49 c17 58 17
69 4 61 -5 -3 -10 -17 -10 -31 0 -13 -4 -24 -10 -24 -5 0 -10 4 -10 8 0 13
-47 32 -78 32 -60 0 -102 -58 -102 -140 0 -27 -4 -50 -9 -50 -5 0 -15 -16 -21
-36 -12 -34 -10 -74 6 -151 l6 -33 -61 0 c-49 0 -61 3 -61 16 0 10 6 14 15 10
17 -6 21 9 5 19 -12 7 -3 74 11 90 12 13 11 38 -1 30 -5 -3 -10 1 -10 10 0 9
-13 30 -30 47 -16 16 -30 40 -30 52 0 40 -42 91 -78 94 -40 4 -98 -23 -105
-49 -7 -27 -30 -15 -85 45 -48 52 -52 71 -18 80 40 10 40 38 0 148 -21 57 -45
136 -55 177 -23 99 -42 117 -119 113 l-59 -2 2 117 c0 65 3 90 4 56 7 -111 23
-69 20 51 -2 112 -12 141 -20 61 -2 -27 -4 -18 -5 28 -2 65 -1 67 22 67 13 0
27 -6 29 -12 4 -10 8 -9 17 2 10 13 11 13 6 -2 -3 -10 -1 -20 4 -23 6 -4 10 3
10 14 0 16 6 21 29 21 16 0 32 -6 34 -12 4 -10 8 -9 16 2 7 10 11 11 11 3 0
-7 5 -13 11 -13 5 0 7 5 4 11 -5 7 11 9 47 7 l53 -3 5 -65 5 -65 7 46 c4 25 4
56 1 68 -4 18 -2 22 8 19 9 -3 16 -25 20 -59 6 -55 14 -32 10 29 -2 23 2 32
13 32 13 0 16 -11 16 -51 0 -32 4 -48 10 -44 7 4 8 24 4 51 l-6 44 106 0 c88
0 106 -3 106 -15 0 -8 5 -15 11 -15 6 0 9 7 5 15 -3 8 -1 15 4 15 6 0 10 -11
10 -25 0 -14 5 -25 11 -25 7 0 9 10 5 25 -4 14 -2 25 4 25 6 0 10 -28 10 -66
0 -51 3 -65 13 -61 10 4 13 -2 9 -19 -2 -14 0 -24 7 -24 7 0 11 21 10 58 -1
44 -3 50 -8 27 -12 -53 -20 -2 -12 72 1 12 27 15 164 21 65 3 68 2 62 -18z
m-927 -447 c-13 -69 -7 -93 21 -93 22 0 31 18 31 63 0 37 33 97 54 97 41 0 60
-24 28 -34 -23 -8 -48 -51 -57 -98 -8 -42 2 -47 44 -24 20 11 28 11 52 -1 17
-8 29 -23 29 -34 0 -16 -7 -19 -54 -19 -38 0 -66 7 -90 21 -30 17 -47 20 -118
16 -46 -2 -93 -7 -105 -12 -15 -5 -23 -3 -23 4 0 6 8 11 18 11 17 0 18 7 14
80 l-5 80 27 0 c25 0 27 -3 25 -37 -1 -21 -2 -53 -1 -70 2 -31 5 -33 37 -33
l35 0 0 69 c0 64 2 70 23 73 12 2 23 3 24 3 1 -1 -3 -28 -9 -62z m1677 45 c3
-13 5 -72 3 -133 l-3 -110 -37 -3 c-29 -2 -38 0 -38 12 0 19 11 21 28 4 9 -9
12 -9 12 0 0 6 -11 14 -25 18 -17 4 -27 15 -31 33 -3 14 -9 36 -14 49 -7 16
-6 22 4 22 9 0 12 14 11 53 -2 52 -2 52 34 63 50 16 50 17 56 -8z m-1986 -20
c5 -13 7 -26 4 -30 -2 -4 1 -17 7 -28 9 -16 6 -36 -10 -88 -28 -86 -33 -96
-56 -101 -16 -3 -17 -1 -5 13 9 10 10 16 2 16 -6 0 -11 7 -11 16 0 11 6 14 20
9 11 -4 20 -2 20 4 0 6 -11 11 -25 11 -23 0 -25 3 -24 60 1 37 7 66 15 75 10
9 10 15 2 17 -18 6 10 48 33 48 11 0 23 -10 28 -22z m1675 -106 l40 -7 -1 -66
c-1 -75 -33 -154 -65 -165 -26 -8 -87 4 -115 22 -13 8 -30 28 -38 44 -22 43
-38 131 -25 144 10 10 110 34 145 35 11 0 38 -3 59 -7z m362 -97 c3 -53 2 -55
-24 -56 l-27 -2 28 -4 c26 -4 28 -7 24 -46 l-4 -41 -61 3 c-34 1 -62 -1 -62
-6 0 -5 25 -10 56 -11 31 -1 61 -5 65 -8 22 -13 4 -19 -56 -19 -36 0 -64 -4
-62 -9 1 -5 29 -9 62 -10 l60 -1 3 -123 c1 -96 -1 -127 -12 -138 -19 -18 -36
-18 -36 1 0 8 -4 15 -10 15 -12 0 -13 -10 -1 -28 4 -8 19 -12 32 -10 l24 3 -3
-160 c-2 -124 -6 -165 -18 -183 -15 -23 -15 -24 5 -17 17 5 20 3 15 -10 -6
-14 -17 -15 -73 -9 -36 4 -76 11 -89 15 -39 15 -60 9 -24 -7 17 -8 32 -16 32
-18 0 -3 -34 -5 -75 -5 -46 0 -73 3 -70 9 3 6 13 10 21 10 9 0 29 13 45 29 16
16 31 25 34 20 8 -11 54 12 79 40 11 12 16 24 12 28 -4 5 -12 0 -17 -9 -13
-23 -38 -48 -49 -48 -5 0 -15 7 -24 15 -8 8 -19 15 -25 15 -6 0 -15 10 -22 22
-10 18 -9 20 4 15 9 -3 17 -1 20 6 2 6 10 -3 18 -21 14 -33 29 -42 29 -18 0 7
7 19 15 26 8 7 15 17 15 23 0 5 -8 3 -18 -6 -23 -21 -32 -21 -32 -2 0 9 16 25
35 37 37 21 42 38 7 19 -11 -6 -28 -8 -36 -5 -9 4 -16 1 -16 -6 0 -7 -7 -10
-15 -7 -8 4 -17 2 -21 -4 -3 -5 -15 -7 -26 -4 -14 5 -21 1 -25 -14 -5 -21 -43
-30 -43 -11 0 6 7 10 15 10 8 0 15 4 15 10 0 18 74 47 133 53 99 10 125 -11
129 -102 2 -35 -3 -56 -13 -66 -14 -14 -15 -13 -11 15 2 17 0 30 -7 30 -13 0
-34 -37 -23 -43 4 -2 2 -2 -5 -1 -6 1 -24 -1 -40 -6 l-28 -8 28 -1 c15 -1 27
-5 27 -9 0 -15 58 0 76 19 24 27 22 124 -4 159 -15 20 -29 26 -72 28 l-52 3 5
46 c3 26 -1 71 -9 100 -16 63 -18 146 -4 173 10 19 45 31 123 45 45 7 49 31 7
37 -31 5 -50 -6 -28 -15 7 -3 1 -6 -14 -6 -15 -1 -30 -5 -33 -11 -3 -5 -12
-10 -19 -10 -10 0 -13 16 -12 62 2 50 6 64 23 75 17 12 20 21 16 54 l-6 39 40
0 c40 0 70 20 59 39 -7 11 4 74 12 66 3 -3 7 -30 8 -60z m-1486 -130 c17 -9
30 -18 30 -20 0 -3 -17 -13 -37 -24 -31 -15 -52 -18 -110 -14 -63 5 -73 8 -73
24 0 23 -13 24 -31 3 -24 -29 -62 -42 -96 -32 -18 5 -33 13 -33 18 0 13 6 13
29 -2 23 -14 77 5 92 34 7 13 16 17 30 13 11 -4 19 -2 19 4 0 17 146 14 180
-4z m1078 -58 c27 -25 30 -92 7 -157 -8 -23 -13 -53 -10 -66 3 -13 7 -35 10
-49 3 -14 10 -25 16 -25 6 0 8 7 5 16 -5 14 -1 16 22 11 31 -6 77 16 125 61
l27 26 0 -34 c0 -19 8 -54 17 -78 14 -36 15 -52 5 -86 -6 -25 -7 -42 -1 -44 5
-2 9 -10 9 -18 0 -20 -36 -18 -44 3 -6 15 -8 14 -20 -2 -9 -13 -15 -15 -20 -7
-4 7 -28 12 -54 13 -26 0 -63 6 -82 14 -33 12 -32 13 40 10 41 -1 62 -1 45 1
-114 15 -117 16 -111 30 8 22 -11 17 -38 -11 -36 -36 -106 -36 -135 2 -12 14
-24 23 -28 20 -12 -13 58 -69 83 -67 4 1 13 -15 20 -35 20 -60 42 -77 94 -74
25 2 62 -2 82 -9 20 -7 45 -12 55 -10 19 3 20 -2 8 -39 -5 -18 -3 -22 9 -17
19 7 20 -5 2 -28 -25 -33 -101 -41 -196 -20 -135 30 -180 60 -208 142 -11 32
-24 55 -33 55 -8 0 -23 19 -34 43 -11 23 -23 42 -28 42 -15 0 3 -52 33 -98 43
-65 25 -90 -35 -53 -62 37 -133 173 -164 313 -8 36 -8 37 23 40 l31 4 -32 9
c-31 10 -31 10 -18 43 8 17 21 32 30 32 18 0 37 -43 29 -65 -5 -11 -2 -13 9
-9 11 4 15 15 12 36 -11 88 -92 75 -111 -19 -8 -41 28 -169 73 -261 44 -89
103 -145 174 -163 51 -13 87 -39 55 -39 -39 0 -114 25 -152 51 -83 57 -162
223 -171 362 -5 80 -4 90 18 122 29 42 51 51 88 35 34 -13 65 -72 48 -89 -6
-6 -8 -13 -5 -16 9 -9 118 114 118 133 0 15 2 15 10 2 5 -8 10 -24 10 -36 0
-28 73 -175 98 -198 24 -21 121 -56 138 -49 6 2 17 22 23 44 10 34 10 44 -3
63 -25 39 -56 147 -56 197 l0 47 33 -15 c17 -9 42 -25 55 -36z m-1663 -137
c14 0 29 -8 34 -18 9 -18 6 -19 -42 -15 -38 2 -47 1 -32 -6 11 -5 34 -10 51
-10 23 -1 37 -9 49 -28 17 -25 17 -29 0 -78 -10 -31 -14 -61 -10 -74 9 -30
-13 -121 -31 -121 -7 0 -23 -10 -35 -22 -18 -19 -21 -20 -15 -4 5 14 2 17 -9
12 -9 -3 -15 0 -15 9 0 20 -17 19 -29 -2 -8 -14 -11 1 -12 57 -3 125 0 163 13
173 10 7 10 10 1 14 -17 6 -17 30 0 36 9 4 9 8 1 14 -7 4 -12 20 -12 35 1 27
24 40 56 32 8 -2 24 -4 37 -4z m1072 -113 c-6 -17 21 -104 50 -160 30 -60 92
-147 104 -147 5 0 9 -4 9 -8 0 -5 -14 -9 -31 -10 -39 -1 -52 -12 -15 -12 27 0
64 -29 84 -65 6 -11 12 -14 12 -7 0 6 4 12 9 12 5 0 7 -10 4 -22 -4 -22 -4
-22 11 -4 11 14 13 24 5 38 -15 28 -8 30 47 13 27 -8 63 -15 79 -15 30 -1 70
-22 59 -32 -3 -4 1 -6 8 -5 34 1 58 -4 58 -12 0 -6 -61 -11 -140 -13 -110 -2
-141 0 -145 11 -3 7 -11 11 -19 8 -7 -3 -23 8 -36 25 -12 16 -24 27 -27 24 -3
-3 0 -12 6 -20 7 -8 11 -22 9 -31 -2 -12 -9 -10 -31 11 -27 25 -54 27 -29 2
16 -16 15 -28 -3 -28 -9 0 -20 12 -26 28 -7 15 -13 22 -16 15 -3 -7 -8 -13
-13 -13 -11 0 0 42 17 61 20 24 12 74 -27 153 -18 39 -35 89 -38 112 -6 53 5
117 19 108 6 -3 8 -11 6 -17z m-569 -207 c-60 -114 -75 -123 -209 -124 -75 -1
-109 -5 -109 -12 0 -24 -34 -25 -51 -2 -10 12 -15 25 -13 28 3 3 10 -3 15 -13
6 -9 15 -17 20 -17 12 0 -23 62 -53 96 -10 11 -18 23 -18 27 0 11 74 -43 97
-71 28 -34 30 -14 2 22 -12 15 -19 29 -16 32 2 3 14 -7 26 -22 21 -26 22 -27
36 -8 13 18 14 17 15 -15 l0 -34 75 6 c53 4 83 11 104 26 31 23 72 87 91 147
8 23 16 32 22 26 6 -6 -5 -38 -34 -92z m579 -32 c23 -43 26 -86 9 -113 -21
-32 -25 -92 -6 -80 6 3 10 -1 10 -9 0 -14 -18 -16 -120 -16 -73 0 -120 4 -120
10 0 6 3 10 8 10 4 0 16 16 26 35 18 33 18 38 3 70 -15 32 -15 37 0 80 l17 45
78 0 c77 0 78 0 95 -32z"/>
<path d="M943 3876 c-3 -5 6 -7 20 -4 14 3 30 2 35 -1 9 -6 42 -85 42 -101 0
-5 -21 -11 -47 -13 -27 -2 29 -4 122 -4 94 0 158 2 143 4 -27 4 -28 7 -28 59
0 45 3 54 18 54 9 0 24 5 32 10 10 7 -43 9 -158 8 -96 -2 -176 -7 -179 -12z"/>
<path d="M1293 1751 c-12 -3 -31 -18 -43 -33 -24 -32 -35 -34 -56 -13 -18 18
-57 19 -83 3 -16 -10 -26 -7 -60 16 -41 29 -42 29 -126 11 -88 -19 -358 -141
-352 -160 5 -13 122 -16 162 -4 68 20 213 11 227 -15 7 -12 4 -16 -12 -16 -19
0 -20 -6 -20 -88 0 -84 2 -92 31 -132 31 -42 31 -46 26 -122 -3 -43 -1 -81 4
-84 5 -3 9 18 9 45 0 34 4 50 12 49 7 -2 15 11 19 27 l7 30 2 -30 c2 -25 3
-26 7 -7 6 31 18 28 33 -9 29 -68 100 -77 125 -15 15 35 40 58 92 87 37 20 63
97 63 188 l0 68 -30 -5 c-44 -6 -37 13 11 27 31 9 44 10 55 0 8 -6 27 -9 44
-5 17 3 42 1 56 -4 18 -7 30 -7 39 0 7 5 41 13 76 16 75 8 105 19 74 29 -11 3
-78 34 -150 70 -71 35 -143 66 -160 70 -16 3 -37 7 -45 9 -8 2 -25 1 -37 -3z
m-121 -200 c18 -10 56 -19 83 -20 87 -3 88 -4 81 -76 -9 -93 -27 -137 -67
-162 -69 -45 -79 -54 -79 -73 0 -10 -7 -26 -16 -34 -20 -21 -45 -8 -72 38 -11
19 -36 42 -56 51 -20 10 -49 33 -66 51 -28 33 -30 40 -30 118 l0 84 81 4 c64
2 84 7 93 21 13 21 8 21 48 -2z"/>
<path d="M1116 1492 c-4 -10 -22 -26 -41 -35 -26 -12 -35 -23 -35 -41 0 -26
34 -66 56 -66 6 0 14 -18 18 -40 5 -29 11 -40 24 -40 25 0 42 20 42 50 0 17 9
30 30 42 23 13 30 24 30 48 0 26 -6 33 -35 46 -19 8 -34 18 -34 22 6 35 -45
48 -55 14z"/>
<path d="M360 215 l0 -85 28 0 c26 0 27 2 24 40 -4 40 -4 40 30 40 34 0 35 -1
34 -40 -1 -35 2 -40 22 -40 21 0 22 4 22 85 0 82 -1 85 -22 81 -18 -2 -23 -10
-23 -32 0 -25 -4 -29 -32 -32 -32 -3 -33 -2 -33 32 0 32 -3 36 -25 36 -25 0
-25 -1 -25 -85z"/>
<path d="M1745 268 c-22 -26 -26 -38 -21 -67 7 -44 28 -61 77 -61 30 0 42 6
58 29 24 33 26 50 10 84 -12 26 -47 47 -79 47 -10 0 -30 -14 -45 -32z"/>
</g>
</svg>
