<?xml version="1.0" standalone="no"?>
<!DOCTYPE svg PUBLIC "-//W3C//DTD SVG 20010904//EN"
 "http://www.w3.org/TR/2001/REC-SVG-20010904/DTD/svg10.dtd">
<svg version="1.0" xmlns="http://www.w3.org/2000/svg"
 width="233.000000pt" height="400.000000pt" viewBox="0 0 233.000000 400.000000"
 preserveAspectRatio="xMidYMid meet">
<metadata>
Created by potrace 1.15, written by Peter Selinger 2001-2017
</metadata>
<g transform="translate(0.000000,400.000000) scale(0.100000,-0.100000)"
fill="#000000" stroke="none">
<path d="M745 3963 l-700 -3 -3 -1023 c-1 -562 -4 -1441 -7 -1954 -3 -563 -2
-934 4 -937 18 -12 2200 -13 2203 -2 6 21 3 3904 -3 3911 -9 8 -671 12 -1494
8z m1472 -26 c8 -13 17 -2859 9 -2893 -5 -17 -11 -20 -36 -16 l-30 4 0 84 c0
63 3 84 13 84 7 0 21 6 31 13 16 12 17 16 5 35 -8 12 -22 22 -31 22 -10 0 -18
5 -18 10 0 6 11 10 25 10 14 0 25 5 25 10 0 6 -11 8 -25 4 -15 -4 -25 -2 -25
5 0 6 10 12 23 12 l22 2 -22 4 c-28 5 -30 20 -3 28 30 10 24 25 -10 25 -25 0
-30 -4 -30 -25 0 -14 -6 -25 -12 -26 -10 0 -10 -2 0 -6 17 -7 15 -23 -3 -23
-8 0 -15 5 -15 10 0 6 -4 10 -10 10 -5 0 -10 -7 -10 -15 0 -9 9 -15 25 -15 32
0 32 -16 0 -24 -30 -8 -34 -26 -6 -26 11 0 23 -4 26 -10 4 -6 -7 -10 -24 -10
-17 0 -31 -5 -31 -11 0 -7 11 -8 29 -4 l29 6 4 -88 c3 -74 1 -91 -14 -108 -18
-19 -18 -18 -12 30 5 41 4 48 -7 38 -7 -7 -22 -13 -34 -13 -12 0 -26 -5 -33
-12 -9 -9 -12 -8 -12 5 0 9 -4 17 -9 17 -13 0 -22 -28 -11 -35 13 -8 13 -42
-1 -50 -20 -13 -21 4 -9 102 16 126 15 184 -4 258 -18 68 -21 125 -6 125 6 0
10 -6 10 -14 0 -20 25 -37 44 -30 9 4 16 17 16 34 0 15 11 39 25 54 14 15 25
35 25 45 0 11 7 21 15 25 17 6 22 95 6 112 -5 5 -12 19 -15 30 -5 17 -2 23 18
28 23 6 25 11 24 51 -2 37 -5 44 -19 40 -21 -7 -34 22 -18 41 15 18 -11 20
-29 2 -19 -19 -40 6 -22 27 15 18 -1 20 -18 3 -7 -7 -26 -13 -43 -14 -34 -2
-69 34 -69 73 0 13 -5 34 -11 45 -18 34 -13 178 9 234 64 163 34 352 -65 409
-23 14 -43 33 -43 41 0 11 4 12 19 4 24 -12 41 -13 21 0 -8 5 -11 12 -7 16 3
4 12 2 20 -4 7 -6 22 -9 32 -7 11 2 24 4 28 4 5 1 5 6 2 11 -4 6 -15 8 -25 5
-10 -3 -21 -1 -25 5 -4 6 -1 11 6 9 26 -3 39 1 39 12 0 6 -7 9 -15 5 -17 -6
-18 -4 -9 18 4 11 11 13 31 5 37 -14 45 -11 37 13 -6 20 -5 21 10 9 24 -21 31
-6 17 39 -7 23 -9 50 -6 60 5 15 0 21 -18 25 -16 4 -23 13 -23 28 1 14 -4 21
-14 20 -9 -2 -21 10 -29 27 -11 26 -11 33 0 47 12 14 10 15 -21 8 l-35 -7 19
21 c17 19 17 21 3 21 -10 0 -17 -5 -17 -12 0 -6 -3 -8 -7 -4 -5 4 -8 13 -8 19
0 7 -12 12 -27 12 -20 1 -28 -4 -28 -17 0 -11 -5 -15 -15 -12 -11 5 -15 -2
-16 -27 0 -19 -3 -28 -6 -21 -2 6 -14 12 -26 12 -16 0 -18 3 -9 12 22 22 12
32 -10 11 -13 -11 -29 -18 -35 -16 -8 3 -13 -3 -13 -13 0 -36 -17 3 -29 66
-11 61 -11 71 10 130 12 36 32 79 45 97 13 17 24 38 24 47 0 21 -39 46 -70 45
-27 -1 -22 -4 23 -13 20 -5 27 -12 27 -31 0 -21 -5 -25 -32 -26 -24 -1 -27 -3
-10 -6 24 -5 24 -5 16 -27 -3 -9 -18 -17 -33 -17 -17 -1 -20 -3 -8 -6 19 -5
19 -5 11 -27 -3 -9 -16 -17 -28 -17 -18 -1 -18 -2 -3 -6 11 -3 16 -10 13 -20
-3 -8 -6 -19 -6 -24 0 -5 -11 -9 -25 -9 -22 0 -24 -3 -19 -30 4 -19 2 -30 -5
-30 -6 0 -11 9 -11 20 0 11 -4 20 -10 20 -5 0 -10 -9 -10 -20 0 -11 -5 -20
-11 -20 -6 0 -9 13 -6 34 6 47 -51 193 -75 188 -36 -7 -32 38 5 56 12 6 16 11
9 11 -19 1 -64 -47 -57 -60 4 -5 17 -14 30 -19 16 -6 30 -29 49 -80 31 -85 32
-90 6 -90 -24 0 -27 -32 -5 -50 8 -7 15 -18 15 -25 0 -23 23 -22 62 4 27 17
38 32 39 50 1 23 2 23 10 -7 9 -29 7 -36 -13 -52 -13 -10 -20 -22 -16 -26 4
-4 14 -1 23 6 26 21 30 2 4 -21 l-24 -21 22 5 c32 7 39 -11 8 -19 -14 -3 -25
-12 -25 -20 0 -9 6 -11 17 -7 10 4 3 -6 -14 -23 -38 -35 -60 -113 -28 -100 15
5 16 4 5 -9 -14 -17 -53 -20 -80 -5 -14 7 -17 19 -15 47 2 21 6 72 9 113 5 70
4 73 -9 45 -8 -16 -14 -55 -15 -86 0 -38 -5 -61 -15 -69 -10 -8 -15 -30 -15
-65 l0 -52 -98 18 c-105 18 -151 37 -247 103 -33 23 -62 42 -63 43 -2 1 6 15
19 32 l22 30 47 -24 c26 -13 57 -22 71 -20 13 2 48 7 76 11 71 9 80 22 52 76
-31 60 -48 161 -39 228 4 30 4 59 -1 64 -5 6 -9 39 -9 75 0 82 34 162 77 183
17 8 28 21 28 33 0 26 -94 53 -185 53 -71 0 -158 -25 -174 -50 -14 -23 11 -50
43 -46 27 3 35 -10 106 -162 11 -24 28 -45 37 -48 10 -2 18 -9 18 -14 0 -6 -7
-7 -16 -4 -23 9 -44 -12 -44 -44 0 -14 -3 -30 -7 -34 -4 -3 -8 -14 -9 -24 -13
-95 -116 -321 -134 -292 -4 6 -17 12 -30 13 -13 1 -27 11 -33 24 -12 28 12 88
55 136 42 47 71 87 61 86 -10 0 -93 -103 -112 -138 -19 -37 -18 -36 -40 -10
-35 42 -35 86 -1 168 16 41 38 79 47 86 27 20 9 43 -39 49 -121 16 -230 11
-259 -13 l-23 -19 37 -41 c20 -23 37 -47 37 -54 0 -7 12 -37 26 -66 22 -43 24
-55 13 -62 -11 -6 -9 -13 10 -32 16 -17 19 -27 11 -32 -14 -9 -6 -123 10 -139
7 -7 9 0 6 22 -2 21 1 31 8 29 6 -2 11 -15 12 -29 1 -14 4 -33 7 -42 4 -10 -4
-28 -22 -49 -26 -29 -28 -36 -21 -85 5 -43 13 -60 39 -84 l32 -30 -23 -36
c-13 -20 -23 -39 -23 -42 1 -3 -5 -4 -12 -2 -17 4 -46 -43 -40 -65 3 -13 5
-11 6 7 1 31 17 16 25 -25 5 -25 1 -35 -24 -59 -31 -29 -54 -30 -30 -1 10 12
10 15 -4 15 -12 0 -16 -10 -16 -40 0 -24 -12 -65 -30 -102 -16 -34 -30 -65
-30 -70 0 -5 -15 -41 -34 -81 -18 -40 -39 -97 -46 -127 -7 -30 -19 -73 -26
-95 l-14 -40 5 50 c5 53 36 187 45 195 3 3 5 17 5 33 -1 15 3 27 7 27 4 0 8 9
8 20 0 11 5 20 11 20 6 0 9 6 6 14 -3 8 -1 17 6 20 9 3 8 8 -3 15 -13 9 -12
12 7 17 13 4 20 10 17 15 -3 5 0 9 5 9 6 0 11 7 11 15 0 8 6 15 13 16 9 0 9 2
0 5 -8 4 -5 12 8 25 15 15 17 24 9 39 -9 17 -14 18 -30 7 -11 -6 -20 -16 -20
-21 0 -4 6 -3 14 3 8 7 17 8 20 3 8 -14 -39 -53 -56 -47 -18 7 -42 -19 -35
-37 4 -8 6 -7 6 5 1 19 9 21 31 7 13 -8 12 -11 -5 -24 -11 -9 -26 -13 -33 -11
-7 3 -11 1 -8 -3 3 -5 -8 -9 -24 -9 -24 0 -33 7 -49 41 -12 24 -20 33 -21 23
0 -10 5 -27 11 -38 6 -11 8 -25 6 -32 -3 -7 -8 -4 -12 8 -4 11 -14 35 -22 53
-17 39 -11 76 23 135 29 51 31 72 4 37 -11 -14 -20 -21 -20 -17 0 13 42 69 69
93 23 20 24 27 23 110 -1 49 -5 96 -8 106 -2 9 0 19 6 23 6 4 8 20 4 40 -3 18
-3 42 1 54 9 29 53 48 100 43 52 -5 71 -39 60 -109 -12 -83 -19 -93 -67 -93
l-43 0 33 -26 34 -27 -40 -41 c-21 -22 -45 -60 -52 -84 -16 -51 -37 -73 -50
-52 -5 8 -12 12 -15 8 -4 -3 -1 -15 7 -27 10 -16 10 -23 0 -33 -14 -14 -16
-28 -3 -28 5 0 14 14 21 30 12 28 38 45 27 18 -14 -39 -17 -58 -10 -58 5 0 15
28 22 62 12 61 47 148 60 148 10 1 75 63 94 90 9 13 17 31 17 40 0 8 -11 -2
-25 -23 -27 -39 -54 -53 -35 -18 5 11 14 22 19 25 5 3 12 21 15 40 4 19 13 39
21 46 22 18 18 67 -7 92 -14 14 -18 23 -10 26 7 2 12 8 12 13 0 6 -5 7 -12 3
-8 -5 -9 -2 -5 10 6 14 3 16 -15 10 -17 -5 -20 -3 -15 10 8 19 -13 22 -31 4
-8 -8 -15 -9 -20 -3 -8 11 -48 35 -58 35 -3 0 -3 -11 0 -25 6 -23 4 -25 -18
-19 -13 3 -26 1 -30 -4 -3 -5 -17 -7 -31 -4 -20 3 -24 1 -19 -12 3 -9 2 -16
-4 -16 -6 0 -12 6 -14 12 -4 10 -8 9 -20 -2 -8 -8 -13 -21 -11 -27 3 -7 -5
-20 -16 -30 -26 -22 -27 -43 -2 -43 20 0 39 -32 22 -38 -17 -6 -13 -32 4 -32
20 0 19 -19 -1 -27 -11 -4 -14 -13 -9 -30 4 -19 1 -26 -15 -30 -11 -3 -20 -9
-20 -14 0 -5 6 -6 13 -3 7 2 19 -10 28 -30 16 -34 15 -35 -5 -38 -16 -2 -21
-9 -19 -30 1 -22 -2 -27 -19 -25 -20 2 -48 -27 -36 -38 3 -4 15 -2 27 4 12 6
30 16 42 22 17 8 19 8 13 -3 -12 -19 -13 -88 -2 -88 6 0 7 -9 3 -22 -24 -82
-25 -96 -4 -143 23 -52 27 -138 10 -214 -6 -25 -15 -89 -20 -141 -8 -81 -18
-151 -24 -170 -1 -3 3 -5 8 -5 6 0 9 3 7 8 -1 4 3 7 9 7 6 0 9 7 5 15 -3 9 1
15 11 15 13 0 13 3 3 15 -10 12 -10 15 1 16 12 0 12 1 0 6 -9 4 -10 8 -2 12 6
4 12 41 14 82 2 40 7 81 10 89 2 8 13 56 22 105 21 106 34 138 35 83 0 -21
-11 -77 -25 -124 -17 -57 -25 -108 -24 -153 l1 -66 14 100 c13 100 29 161 66
243 25 57 34 47 14 -15 -24 -75 -64 -252 -72 -315 -5 -46 -3 -58 7 -58 16 0
22 -49 8 -66 -5 -7 -34 -15 -63 -18 -54 -7 -80 -25 -105 -73 -14 -27 -4 -77
19 -98 15 -14 17 -27 13 -69 -8 -73 12 -151 52 -212 36 -53 130 -144 151 -144
26 0 63 -49 82 -110 11 -36 20 -66 18 -67 -1 -1 -12 0 -25 4 -18 4 -21 11 -17
29 6 21 4 23 -16 15 -13 -5 -22 -16 -20 -25 2 -9 -4 -16 -13 -16 -9 0 -15 9
-15 24 0 26 -20 39 -45 30 -8 -4 -15 -17 -15 -30 0 -27 -14 -31 -36 -10 -12
12 -12 19 1 50 8 19 15 37 15 39 0 3 -18 1 -39 -3 -36 -6 -40 -5 -45 16 -4 13
-11 24 -17 24 -8 0 -7 -5 1 -15 10 -12 9 -15 -5 -15 -17 0 -17 -1 -2 -18 20
-21 19 -72 -1 -79 -7 -3 -19 3 -27 13 -9 12 -14 14 -15 6 0 -7 -4 -11 -9 -8
-16 10 -73 -25 -68 -43 2 -9 -3 -23 -11 -30 -12 -12 -13 -11 -8 5 4 14 -1 22
-17 29 -22 10 -26 30 -6 30 17 0 33 30 26 49 -4 9 -16 16 -27 16 -29 0 -25 17
6 24 38 10 60 -1 74 -34 13 -31 24 -37 35 -20 10 16 22 11 30 -13 l7 -22 7 25
c9 33 -11 55 -37 41 -16 -8 -21 -6 -30 14 -10 22 -18 25 -61 25 -32 0 -55 -6
-65 -16 -23 -23 -20 -32 14 -39 17 -4 30 -11 30 -17 0 -6 -11 -8 -26 -4 -17 5
-25 3 -23 -6 5 -42 -1 -51 -30 -45 -29 6 -30 5 -26 -28 4 -28 2 -35 -13 -35
-9 0 -26 -3 -38 -6 -20 -5 -20 -3 -18 243 1 136 3 809 5 1494 l3 1246 1072 1
c838 1 1075 -1 1081 -11z m-916 -258 c21 -5 39 -15 42 -23 4 -10 0 -12 -14 -9
-11 3 -19 0 -19 -7 0 -7 -8 -10 -20 -7 -21 5 -29 -8 -9 -15 9 -3 9 -10 0 -26
-8 -15 -22 -22 -44 -23 -30 -2 -30 -2 -4 -6 27 -4 34 -13 20 -27 -5 -4 -8 -13
-8 -19 0 -7 -10 -13 -22 -15 -13 -2 -23 -10 -23 -18 0 -8 6 -14 14 -12 8 2 15
-1 15 -7 0 -5 -9 -10 -20 -9 -14 0 -18 -4 -13 -18 3 -10 1 -18 -5 -18 -6 0
-11 9 -11 19 0 11 -3 21 -7 23 -5 2 -19 30 -32 63 -28 70 -66 125 -86 125 -9
0 -12 -6 -9 -15 5 -11 2 -13 -10 -9 -29 11 -13 36 34 55 48 19 154 18 231 -2z
m-432 -287 c73 -9 80 -30 9 -26 -46 2 -48 2 -13 -4 32 -6 40 -11 38 -27 -2
-28 -45 -139 -61 -158 -16 -18 -52 -18 -52 0 0 7 -7 13 -15 13 -14 0 -29 25
-34 55 -1 6 8 13 21 17 20 5 18 6 -9 7 -37 1 -46 20 -10 22 20 2 20 2 -3 6
-30 6 -60 31 -60 50 0 7 -7 13 -16 13 -27 0 3 28 34 33 42 6 112 6 171 -1z
m350 -99 c1 -12 6 -23 13 -25 7 -3 12 -23 12 -46 1 -23 4 -42 7 -42 4 0 9 -15
12 -32 6 -41 29 -100 42 -110 6 -5 5 -11 -4 -17 -14 -9 -121 -24 -128 -17 -2
2 1 41 6 87 5 46 13 125 17 174 5 60 10 83 15 70 4 -11 8 -30 8 -42z m-49
-125 c-7 -73 -14 -140 -16 -148 -1 -8 -3 -17 -3 -19 -1 -2 -9 3 -18 11 -10 9
-28 19 -40 22 -24 8 -30 25 -14 41 5 6 18 37 30 70 12 33 25 67 28 75 3 8 7
17 8 20 1 3 5 13 8 23 4 9 9 24 12 33 15 46 17 -10 5 -128z m681 -203 c-38
-13 -60 -42 -38 -51 12 -4 13 -13 5 -42 -15 -54 -18 -162 -6 -199 7 -23 16
-33 30 -33 14 0 18 -5 15 -15 -4 -8 -2 -17 4 -20 13 -9 0 -27 -16 -21 -7 2
-21 -4 -31 -15 -21 -23 -10 -24 36 -1 29 14 34 22 32 45 -2 15 1 27 8 27 6 0
8 -5 5 -10 -4 -6 0 -22 9 -35 20 -31 20 -36 -1 -28 -15 5 -16 3 -5 -8 17 -18
15 -30 -3 -23 -8 4 -15 2 -15 -4 0 -5 7 -12 15 -16 21 -7 19 -26 -2 -26 -14 0
-13 -3 5 -16 29 -20 29 -44 0 -37 -19 3 -18 1 6 -12 29 -17 29 -18 11 -95 -2
-8 -8 -34 -13 -57 -5 -24 -8 -88 -5 -143 5 -93 4 -100 -13 -100 -16 -1 -15 -3
6 -15 l25 -15 -24 -6 -25 -7 25 -10 24 -10 -25 -6 c-19 -5 -21 -8 -9 -13 9 -4
19 -16 22 -27 4 -16 0 -21 -16 -22 -20 -1 -20 -2 2 -8 33 -9 39 -31 9 -32
l-23 0 23 -9 c24 -10 30 -30 10 -30 -9 0 -8 -4 2 -10 13 -9 13 -11 0 -20 -10
-6 -11 -10 -2 -10 6 0 12 -5 12 -11 0 -5 -4 -7 -10 -4 -5 3 -10 1 -10 -4 0 -6
6 -11 13 -12 6 0 3 -4 -8 -9 -16 -7 -17 -9 -3 -9 34 -2 30 -50 -6 -52 -19 -1
-18 -2 4 -8 23 -6 25 -12 28 -68 3 -59 2 -61 -20 -57 l-23 5 23 -12 c24 -13
31 -35 7 -26 -8 4 -17 2 -20 -2 -3 -5 2 -11 10 -15 8 -3 15 -10 15 -17 0 -6
-7 -9 -15 -5 -8 3 -15 1 -15 -4 0 -9 14 -14 33 -11 4 0 7 -4 7 -9 0 -6 -4 -10
-9 -10 -5 0 -7 -10 -3 -22 3 -14 1 -19 -6 -14 -6 3 -13 2 -17 -4 -3 -5 1 -10
9 -10 24 0 19 -17 -6 -25 l-23 -8 23 -4 c25 -5 30 -23 7 -23 -8 0 -15 -4 -15
-9 0 -5 9 -7 20 -4 29 8 25 -15 -5 -29 -14 -6 -25 -16 -25 -21 0 -5 7 -4 15 3
8 6 19 10 24 8 6 -1 -7 -18 -29 -35 -30 -26 -48 -33 -87 -34 -55 -2 -91 14
-147 65 -21 20 -44 36 -51 36 -22 0 -25 28 -4 33 23 6 26 27 3 27 -8 0 -12 -4
-9 -10 3 -5 2 -10 -4 -10 -5 0 -13 5 -16 11 -4 6 -27 9 -51 8 -24 -2 -45 -1
-47 2 -2 2 -7 69 -11 149 -3 80 -9 180 -12 222 -6 67 -4 83 16 125 13 26 31
92 41 145 10 54 23 107 29 117 5 11 10 38 10 60 0 55 8 71 36 71 17 0 24 -6
24 -19 0 -11 5 -23 10 -26 18 -11 10 39 -15 93 -27 58 -30 72 -17 72 5 0 16
-17 25 -37 44 -108 57 -143 57 -157 0 -8 5 -18 12 -22 19 -12 0 72 -32 142
-17 35 -30 71 -30 81 0 10 -8 25 -19 32 -14 11 -17 20 -11 46 4 18 11 38 15
45 4 7 7 38 6 71 0 32 3 60 7 63 5 3 22 1 38 -4 22 -6 24 -9 9 -10 l-20 -1 20
-8 c11 -5 26 -6 33 -4 7 3 28 -2 47 -12 20 -9 43 -15 53 -13 12 3 7 9 -18 20
-19 9 -43 18 -52 21 -9 3 -24 20 -33 36 -15 30 -15 32 16 63 l31 33 -24 5
c-34 9 -48 46 -48 133 0 70 9 93 25 67 3 -5 16 -10 29 -10 12 0 27 -5 34 -12
9 -9 20 -7 49 8 21 10 39 22 41 26 2 4 11 4 20 1 12 -5 8 -9 -17 -18z m-776
-56 c47 -41 155 -90 238 -107 55 -11 83 -22 79 -28 -15 -23 -48 -32 -99 -27
-37 4 -58 2 -69 -8 -15 -12 -16 -11 -10 8 6 20 5 21 -23 13 -34 -9 -42 -5 -34
18 4 13 3 14 -5 4 -12 -18 -64 -11 -70 8 -5 13 -3 13 11 1 21 -17 22 -5 2 15
-8 9 -15 12 -15 7 0 -17 -31 53 -39 89 -9 40 -5 41 34 7z m411 -579 c6 -148 5
-205 -4 -285 -6 -62 -8 -49 -15 114 -4 115 -11 187 -18 192 -6 3 -13 31 -15
60 -2 30 -5 65 -7 79 -2 14 1 30 5 36 5 6 4 24 -2 40 -6 15 -8 35 -4 43 12 30
55 -169 60 -279z m-763 21 c0 -18 -8 -40 -17 -50 -9 -10 -16 -23 -16 -31 0 -7
-10 -34 -21 -59 -12 -25 -26 -56 -32 -68 -5 -11 -6 -27 -2 -34 5 -7 4 -10 -1
-6 -6 3 -11 -10 -11 -29 -1 -20 -8 -43 -17 -53 -9 -10 -16 -32 -16 -50 0 -35
-36 -95 -51 -86 -11 7 -3 43 22 103 10 23 14 42 9 42 -6 0 -10 7 -10 15 0 8 4
15 9 15 5 0 7 9 4 21 -4 15 0 22 17 26 13 3 17 9 11 13 -13 7 14 70 29 70 5 0
7 7 4 15 -4 8 -1 15 5 15 6 0 8 7 5 15 -4 8 -1 15 5 15 6 0 8 7 5 15 -4 8 -1
15 6 15 6 0 8 5 5 10 -3 6 1 10 11 10 13 0 14 3 4 15 -10 13 -9 15 11 15 18 0
20 3 11 12 -18 18 -15 28 6 21 15 -6 16 -5 2 12 -13 16 -13 18 0 13 10 -3 14
-17 13 -37z m571 -27 c17 -17 22 -49 6 -39 -5 3 -10 -3 -10 -14 0 -13 5 -18
13 -15 10 3 12 -8 10 -43 -1 -27 -3 -50 -4 -53 0 -3 -2 -14 -3 -25 0 -11 -7
-19 -13 -17 -7 1 -13 -7 -13 -19 0 -11 5 -17 10 -14 14 9 12 -15 -3 -45 -7
-14 -11 -33 -9 -42 4 -22 40 -24 48 -3 8 20 21 19 27 -2 3 -10 6 -2 6 17 1 19
4 55 7 80 3 25 6 62 7 82 l0 37 23 -22 c18 -17 20 -23 9 -30 -14 -7 -22 -49
-30 -145 -6 -81 -42 -171 -68 -172 -5 0 1 12 12 26 16 20 18 30 10 40 -15 18
-38 7 -32 -17 3 -10 0 -19 -6 -19 -6 0 -11 -6 -11 -14 0 -8 -8 -13 -17 -11
-10 2 -20 4 -22 4 -2 1 6 9 17 20 12 10 22 23 22 29 0 11 51 48 63 44 4 -1 7
2 7 7 0 12 -37 24 -49 16 -6 -3 -18 6 -28 21 -15 24 -18 25 -24 8 -4 -11 -8
-13 -8 -6 -1 9 -7 9 -25 -3 -21 -14 -24 -14 -30 0 -3 9 -11 13 -17 9 -8 -4 -9
-3 -5 5 4 6 0 14 -9 17 -10 4 -15 14 -12 25 4 16 2 17 -14 9 -15 -8 -17 -7
-13 5 4 8 1 15 -5 15 -6 0 -11 6 -11 13 0 7 -8 23 -17 36 l-17 24 -28 -33
c-15 -19 -28 -30 -28 -24 0 6 11 21 25 34 29 27 32 40 9 40 -8 0 -13 4 -9 10
3 5 13 6 22 3 13 -5 15 -2 10 17 -4 17 -3 20 5 12 6 -6 11 -25 10 -42 -1 -28
11 -40 21 -22 2 4 2 1 0 -6 -3 -15 21 -44 30 -35 3 3 1 16 -4 30 l-10 26 28
-19 c50 -32 57 -42 41 -62 -7 -9 -17 -20 -23 -24 -10 -7 21 -48 37 -48 11 0
60 37 57 42 -7 9 23 98 31 93 6 -3 10 -1 10 4 0 6 -4 11 -8 11 -5 0 -8 24 -8
53 0 28 -2 71 -6 95 -8 47 -6 49 16 26z m-188 -461 c18 -11 23 -22 19 -42 -3
-14 -2 -20 1 -13 4 9 15 4 37 -18 17 -17 37 -28 44 -26 8 3 13 -2 13 -12 0
-15 2 -15 10 -2 8 12 10 12 10 -5 1 -18 2 -17 11 4 5 13 7 33 3 44 -4 13 -2
17 5 13 6 -4 11 -13 11 -21 0 -21 26 -25 27 -4 1 11 -2 17 -8 14 -5 -4 -9 3
-9 15 0 20 1 20 26 4 16 -11 21 -20 14 -24 -6 -4 -10 -16 -8 -26 2 -11 -2 -18
-10 -16 -9 1 -11 -6 -7 -25 l6 -28 -16 30 c-8 17 -13 22 -10 13 3 -12 -1 -18
-13 -19 -9 0 -27 -2 -40 -3 -12 -2 -27 3 -32 9 -5 7 -23 11 -40 10 -30 -2 -39
8 -20 20 6 3 9 14 9 23 -1 15 -2 15 -6 0 -6 -23 -19 -23 -27 -2 -4 9 -9 14
-12 11 -11 -11 -31 17 -26 37 3 10 1 17 -4 14 -14 -9 -31 15 -29 40 1 12 -2
22 -7 22 -5 0 -6 5 -3 10 3 6 -1 10 -9 10 -8 0 -20 -8 -25 -17 -6 -10 -11 -13
-11 -8 0 6 8 21 18 33 l17 22 34 -36 c18 -19 44 -42 57 -51z m-536 -143 c0 -5
-4 -10 -8 -10 -5 0 -9 -7 -9 -16 0 -15 11 -15 48 0 10 5 19 1 22 -8 5 -12 0
-16 -23 -16 -16 0 -32 -5 -35 -10 -4 -7 8 -8 36 -4 31 5 40 4 35 -4 -4 -7 -16
-12 -27 -12 -10 0 -19 -4 -19 -9 0 -6 12 -6 30 -1 30 9 44 -5 16 -16 -8 -3
-12 -13 -9 -24 4 -15 9 -17 23 -10 15 8 19 5 24 -16 4 -15 5 -29 1 -32 -3 -3
-5 2 -5 11 0 10 -4 17 -10 17 -25 0 -5 -42 40 -83 46 -42 66 -87 39 -87 -6 0
-8 -7 -5 -16 6 -17 -8 -14 -71 12 -18 7 -35 9 -38 5 -5 -9 31 -26 78 -37 15
-3 27 -8 27 -9 0 -15 -15 -35 -26 -35 -8 0 -14 -8 -14 -17 0 -16 2 -16 11 -3
9 13 10 13 6 0 -6 -25 -122 -14 -153 15 -13 12 -24 27 -24 34 0 6 -4 11 -10
11 -5 0 -10 6 -10 14 0 8 -4 18 -10 21 -6 3 -10 -5 -10 -19 0 -17 14 -39 42
-66 36 -34 48 -40 83 -39 59 3 82 -8 96 -44 7 -18 15 -35 17 -40 2 -4 -8 -2
-22 4 -21 10 -25 17 -20 38 6 26 6 26 -11 6 -14 -17 -16 -17 -11 -2 3 9 1 17
-4 17 -6 0 -10 -6 -11 -12 0 -7 -4 -4 -9 7 -7 17 -9 17 -9 3 -3 -70 -178 81
-219 187 -6 17 -14 52 -18 79 -6 45 -5 50 22 73 29 24 29 24 4 17 -23 -6 -24
-5 -10 11 8 9 23 21 35 25 19 8 18 9 -5 10 -25 2 -25 2 5 15 20 10 24 14 12
15 -10 0 -16 4 -13 9 3 5 15 7 26 4 12 -3 20 0 20 6 0 7 15 18 33 26 39 17 47
18 47 5z m1003 -440 c28 0 80 -24 97 -45 14 -17 75 -38 115 -40 25 0 31 -5 33
-28 2 -15 7 -27 11 -27 5 0 7 12 5 28 -2 15 -1 21 2 15 8 -17 24 -16 24 1 0
15 28 42 35 34 3 -2 0 -20 -6 -39 -6 -19 -14 -92 -18 -162 -11 -176 -30 -191
-23 -18 7 173 -11 173 -26 1 -6 -71 -13 -134 -17 -140 -10 -16 -33 -12 -37 8
-4 19 16 164 27 200 4 13 3 22 -3 22 -14 0 -33 -81 -39 -169 -5 -63 -4 -76 11
-87 13 -9 16 -19 10 -36 -9 -27 -8 -113 0 -127 4 -6 1 -19 -6 -30 -9 -15 -28
-22 -69 -27 -47 -5 -61 -11 -78 -35 -12 -16 -22 -39 -24 -51 -2 -21 1 -23 42
-20 52 3 102 31 132 73 12 17 24 27 27 24 3 -3 14 18 24 47 l18 53 -5 -49 c-4
-40 -3 -46 9 -37 7 6 21 9 30 5 11 -4 19 2 26 20 6 17 14 24 24 20 10 -4 22 5
34 26 14 22 21 27 25 17 3 -8 0 -20 -6 -26 -19 -19 2 -25 23 -6 10 9 26 15 35
12 17 -7 21 -27 5 -27 -5 0 -10 -6 -10 -14 0 -13 94 -31 111 -20 15 9 -15 44
-37 44 -12 0 -33 11 -48 25 -18 16 -22 25 -12 25 8 0 27 17 44 37 l30 37 0
-29 c0 -44 65 -78 77 -40 15 48 18 50 25 20 11 -46 10 -505 -1 -505 -5 0 -9 7
-9 15 0 9 -12 20 -26 25 -22 9 -25 14 -19 40 9 40 -3 90 -21 90 -12 0 -12 -4
1 -30 9 -17 11 -30 5 -30 -5 0 -10 4 -10 9 0 19 -64 71 -81 66 -15 -5 -16 -3
-6 19 7 14 15 26 20 26 4 0 7 5 7 10 0 6 -7 10 -15 10 -8 0 -15 -4 -15 -9 0
-8 -51 -23 -58 -17 -7 8 12 36 24 36 8 0 14 5 14 10 0 6 -5 10 -12 10 -17 0
-48 -31 -48 -48 0 -12 -3 -12 -15 -2 -28 23 -110 -21 -104 -57 3 -20 -3 -22
-25 -8 -23 15 -61 11 -51 -5 3 -5 -10 -6 -29 -3 -49 8 -80 -2 -95 -31 -8 -13
-19 -22 -26 -20 -7 3 -29 -2 -50 -10 -42 -18 -65 -11 -38 11 17 13 16 14 -12
8 -39 -9 -44 -14 -23 -29 17 -12 17 -14 -2 -31 -20 -18 -20 -18 -18 6 3 20 -1
24 -22 24 -21 0 -25 -4 -23 -27 2 -25 -2 -28 -28 -28 -16 0 -29 -4 -29 -9 0
-6 -12 -9 -27 -8 -20 1 -31 -4 -38 -20 -5 -13 -16 -23 -23 -23 -9 0 -11 -7 -7
-20 4 -14 2 -20 -8 -20 -8 0 -17 13 -20 29 -4 17 -15 35 -26 40 -23 13 -51 5
-51 -14 0 -8 -10 -15 -22 -17 -17 -2 -22 -9 -21 -26 2 -13 -1 -21 -7 -17 -6 3
-10 17 -10 31 0 19 -5 24 -25 24 -14 0 -25 -5 -25 -10 0 -7 -7 -7 -21 0 -15 8
-24 8 -34 0 -8 -6 -35 -13 -60 -15 -46 -3 -75 -18 -62 -32 4 -4 13 -1 19 5 18
18 46 15 44 -5 -1 -14 7 -18 34 -18 32 0 35 2 33 28 -1 15 2 27 8 27 5 0 9 -8
9 -19 0 -22 25 -45 40 -36 5 3 11 21 11 38 2 30 2 31 6 4 5 -32 38 -54 57 -38
9 7 16 7 23 0 21 -21 35 1 29 43 -5 30 -3 39 6 36 7 -3 14 -17 16 -31 3 -26
33 -53 46 -40 3 3 6 1 6 -5 0 -22 29 -12 32 10 5 39 67 34 68 -6 0 -5 -6 -3
-13 3 -10 8 -18 7 -31 -2 -23 -17 -17 -47 10 -57 27 -10 46 2 48 31 1 26 37
40 88 33 18 -3 50 -4 71 -4 22 0 45 -6 53 -15 13 -12 19 -13 30 -4 11 9 14 7
14 -9 0 -12 5 -24 12 -28 16 -10 79 -6 94 7 8 6 16 4 24 -6 9 -11 22 -14 44
-9 33 7 64 30 53 40 -3 3 -13 -1 -22 -10 -21 -21 -51 -21 -63 0 -6 11 -18 15
-35 12 -16 -3 -28 0 -31 8 -9 25 -36 16 -36 -12 0 -14 -4 -23 -10 -19 -5 3
-10 16 -10 29 0 14 -10 28 -25 36 -14 7 -25 18 -25 23 0 6 -8 19 -17 29 -13
14 -14 21 -5 30 14 14 16 38 3 38 -5 0 -13 -10 -17 -22 -4 -13 -17 -34 -30
-47 -24 -23 -24 -23 -24 -2 0 11 4 21 9 21 6 0 20 18 32 40 14 25 29 40 39 38
21 -4 26 -56 6 -64 -13 -5 -11 -11 10 -39 30 -39 49 -48 74 -35 14 7 21 5 32
-12 13 -19 18 -20 73 -10 38 6 64 7 72 1 16 -14 65 0 59 17 -7 19 1 17 31 -6
19 -15 30 -17 44 -9 13 7 19 6 19 -1 0 -20 45 -6 55 18 6 13 16 20 24 17 16
-6 51 22 51 42 0 21 21 15 27 -7 3 -11 12 -19 21 -18 13 3 17 -12 20 -84 3
-86 3 -88 -20 -89 -113 -4 -2118 3 -2136 8 l-22 5 0 275 c0 196 3 272 11 267
6 -3 9 -22 7 -40 -2 -19 0 -34 4 -34 4 0 8 -9 8 -19 0 -10 8 -29 18 -41 16
-20 19 -20 31 -6 10 12 16 13 31 3 11 -6 23 -8 27 -4 4 5 1 12 -7 17 -8 6 -10
10 -4 10 17 0 37 -27 25 -34 -11 -7 30 -56 47 -56 6 0 14 9 17 20 9 27 24 25
18 -2 l-5 -23 20 24 c19 23 19 23 25 2 4 -16 13 -21 37 -21 l33 0 -6 44 c-4
29 -2 46 5 48 6 2 8 16 3 36 -9 44 -28 41 -19 -3 6 -32 4 -35 -17 -35 -21 1
-22 2 -6 11 9 5 17 15 17 20 0 6 -10 3 -22 -5 -20 -14 -24 -14 -39 0 -10 9
-15 22 -12 30 3 8 -1 14 -10 14 -9 0 -17 -10 -19 -22 -4 -27 -26 -35 -34 -13
-9 22 5 33 17 15 9 -13 10 -12 6 2 -3 9 -2 18 2 20 5 2 11 12 15 23 4 15 0 23
-16 30 -29 13 -35 35 -10 35 24 0 54 -43 45 -66 -4 -12 -2 -15 8 -12 15 6 15
10 4 45 -5 18 -3 22 9 17 9 -3 16 -2 16 4 0 5 -12 13 -26 16 -20 5 -24 10 -16
18 8 8 18 7 36 -5 21 -14 25 -14 30 -2 3 10 -3 17 -20 21 -23 6 -24 8 -9 24 8
9 12 20 8 23 -8 9 5 9 35 1 12 -4 22 -12 22 -20 0 -19 38 -37 68 -31 19 4 33
-2 49 -19 23 -25 43 -24 77 5 18 15 18 15 12 -15 -5 -21 -2 -45 8 -69 15 -35
18 -37 48 -31 74 14 104 15 126 4 18 -9 28 -9 43 0 16 10 19 10 19 -3 0 -11
10 -15 35 -15 32 0 35 -2 29 -24 -3 -13 1 -40 10 -60 10 -24 13 -52 9 -85 -5
-48 -5 -48 27 -55 18 -3 51 -6 74 -5 33 0 37 2 20 9 -33 13 -37 26 -38 111 -1
48 -6 83 -14 91 -18 18 -15 37 6 36 9 0 25 3 35 7 20 8 21 -2 7 -40 -6 -16 -8
-55 -4 -92 6 -56 12 -70 41 -99 37 -38 46 -31 9 9 -17 19 -25 42 -31 92 -4 37
-4 69 0 73 3 4 22 5 41 3 22 -2 55 7 87 22 67 31 104 33 112 7 3 -11 3 -25 -1
-31 -5 -8 -3 -9 6 -4 7 4 16 2 21 -6 8 -12 11 -11 20 3 7 12 22 18 48 18 l38
0 6 -52 c4 -29 3 -56 -2 -61 -5 -5 -34 3 -65 17 -31 14 -61 26 -67 26 -6 0 -9
7 -5 15 3 8 1 15 -4 15 -6 0 -10 -4 -10 -10 0 -5 -5 -10 -11 -10 -5 0 -7 5 -3
12 5 8 -4 9 -32 5 -36 -6 -37 -5 -20 8 11 8 15 15 9 15 -16 0 -36 -28 -28 -40
3 -5 15 -10 25 -10 11 0 34 -9 51 -19 17 -11 37 -17 43 -15 7 3 31 -2 55 -11
24 -8 50 -15 57 -15 23 0 34 35 25 83 -6 33 -4 49 6 63 8 10 13 35 13 54 -1
19 -2 40 -1 47 1 13 41 5 41 -9 0 -5 -4 -7 -9 -3 -10 5 -27 -13 -19 -21 9 -8
58 22 53 33 -6 18 13 26 62 27 47 1 54 -7 23 -24 -11 -6 -17 -16 -14 -22 5 -7
11 -6 19 5 7 10 18 17 24 17 27 0 5 35 -25 40 -16 3 -42 14 -56 26 -23 18 -28
32 -37 112 -5 50 -8 108 -5 129 4 32 3 35 -6 20 -8 -12 -11 -53 -8 -113 2 -74
0 -94 -10 -94 -11 0 -13 18 -8 93 4 50 9 176 12 279 6 183 6 186 25 167 10
-10 30 -19 42 -19z m395 -32 c19 -40 20 -214 1 -202 -7 4 -9 22 -6 44 4 32 2
37 -13 33 -15 -4 -16 -10 -8 -46 11 -47 6 -102 -13 -163 -7 -25 -9 -49 -4 -60
5 -10 9 -32 11 -49 1 -16 5 -46 8 -65 9 -45 -5 -70 -28 -50 -16 12 -15 44 1
103 2 9 0 17 -6 17 -13 0 -24 -55 -23 -117 1 -41 -2 -53 -13 -53 -26 0 -24 25
11 180 35 157 41 214 29 290 -12 75 -8 140 7 140 7 0 8 -19 3 -55 -4 -37 -3
-55 4 -55 10 0 16 65 12 113 -3 24 14 21 27 -5z m-5 -844 c34 -5 47 -12 56
-31 9 -19 8 -25 -4 -29 -11 -5 -12 -10 -3 -24 7 -10 16 -16 20 -14 4 3 8 0 8
-5 0 -6 -4 -11 -10 -11 -5 0 -10 -5 -10 -11 0 -5 4 -8 9 -4 5 3 12 1 16 -5 3
-5 -1 -10 -9 -10 -19 0 -20 -5 -5 -31 7 -13 16 -18 29 -14 17 5 17 3 7 -19 -9
-19 -13 -22 -15 -10 -3 13 -12 15 -45 10 -33 -6 -39 -4 -30 5 9 9 10 16 2 26
-9 10 -8 13 2 13 9 1 8 5 -5 15 -19 14 -19 15 -1 15 17 0 17 1 -1 21 -20 22
-27 89 -9 90 6 0 -1 5 -14 10 -30 12 -38 5 -20 -17 12 -15 11 -16 -9 -10 -13
5 -22 3 -22 -3 0 -6 6 -11 13 -11 8 0 7 -4 -3 -10 -13 -9 -13 -12 3 -21 10 -6
17 -21 16 -37 -1 -27 -1 -27 -8 -3 -4 14 -13 27 -20 29 -10 3 -12 0 -8 -11 3
-9 2 -19 -4 -22 -14 -9 -1 -25 22 -25 10 0 19 -5 19 -10 0 -6 -11 -8 -25 -4
-15 4 -25 2 -25 -5 0 -6 5 -11 11 -11 5 0 8 -4 4 -9 -3 -6 3 -14 12 -20 14 -8
15 -10 3 -11 -20 0 -31 9 -58 44 -26 34 -28 46 -6 46 11 0 14 6 9 23 -8 24 -8
24 -6 48 1 22 39 69 55 69 7 0 34 -3 59 -6z m-140 -31 c8 -48 7 -82 -3 -88
-16 -10 -12 -35 11 -67 24 -34 18 -49 -10 -24 -18 16 -20 16 -34 -4 -17 -25
-37 -19 -37 11 0 23 -32 26 -50 4 -10 -12 -16 -13 -26 -4 -22 18 -16 58 12 84
31 28 26 70 -7 62 -22 -6 -23 -3 -9 24 12 21 50 25 81 8 11 -5 17 -15 13 -20
-7 -12 27 -40 39 -32 5 3 6 21 2 39 -3 20 -2 34 4 34 5 0 12 -12 14 -27z"/>
<path d="M1040 3900 c0 -5 7 -10 15 -10 24 0 21 -97 -2 -102 -44 -9 11 -13
107 -7 58 3 95 6 83 7 -21 2 -23 7 -23 52 0 43 3 50 20 50 11 0 20 5 20 10 0
6 -43 10 -110 10 -67 0 -110 -4 -110 -10z"/>
<path d="M1760 2062 c0 -35 -4 -52 -12 -52 -9 0 -8 -4 2 -11 12 -8 12 -12 2
-16 -10 -4 -10 -8 -1 -20 10 -12 10 -16 -2 -24 -10 -6 -10 -9 -1 -9 6 0 12 -7
12 -16 0 -8 -4 -12 -10 -9 -5 3 -10 1 -10 -4 0 -6 7 -11 15 -11 14 0 16 -34
15 -286 -1 -157 1 -288 4 -291 3 -4 6 -1 6 5 0 6 8 13 18 15 14 4 14 5 1 6
-21 1 -22 50 -2 58 8 3 10 8 5 12 -6 4 -12 145 -16 346 -4 202 -10 343 -16
349 -7 7 -10 -8 -10 -42z"/>
</g>
</svg>
