<?xml version="1.0" standalone="no"?>
<!DOCTYPE svg PUBLIC "-//W3C//DTD SVG 20010904//EN"
 "http://www.w3.org/TR/2001/REC-SVG-20010904/DTD/svg10.dtd">
<svg version="1.0" xmlns="http://www.w3.org/2000/svg"
 width="233.000000pt" height="400.000000pt" viewBox="0 0 233.000000 400.000000"
 preserveAspectRatio="xMidYMid meet">
<metadata>
Created by potrace 1.15, written by Peter Selinger 2001-2017
</metadata>
<g transform="translate(0.000000,400.000000) scale(0.100000,-0.100000)"
fill="#000000" stroke="none">
<path d="M42 3957 c-13 -16 -14 -948 -2 -1302 6 -154 11 -803 12 -1443 l1
-1162 276 -1 c152 0 645 -1 1096 -1 l820 0 -1 1946 c-1 1500 -4 1950 -13 1959
-18 18 -2175 22 -2189 4z m2024 -7 l131 0 7 -402 c3 -222 7 -936 9 -1588 l2
-1185 -23 -3 c-45 -7 -90 18 -138 76 -27 31 -58 65 -69 75 -32 30 -92 57 -124
57 -23 0 -30 5 -35 26 -4 15 -2 32 3 37 6 6 11 28 11 48 0 51 8 69 33 69 25 0
20 5 -14 14 -23 5 -28 2 -33 -20 l-7 -25 -30 25 c-31 26 -49 33 -49 18 0 -5
11 -14 25 -20 46 -21 44 -93 -4 -100 -11 -2 -21 -7 -21 -12 0 -5 -13 -16 -29
-25 -28 -14 -30 -14 -37 8 -5 12 -7 26 -6 31 2 5 -5 5 -14 2 -11 -4 -8 3 9 20
22 22 29 24 42 14 8 -7 15 -20 15 -28 0 -11 3 -13 10 -6 19 19 -12 63 -45 66
l-30 3 37 25 c41 27 48 39 22 36 -9 0 -19 5 -21 12 -3 6 1 12 7 12 16 0 61 36
53 43 -3 4 -15 1 -27 -5 -23 -13 -28 -15 -51 -17 -8 0 -15 -7 -15 -15 0 -7 7
-19 15 -26 23 -19 18 -31 -14 -28 -23 2 -28 5 -19 15 7 9 7 13 -1 13 -8 0 -10
11 -6 34 5 26 0 47 -25 97 -18 35 -38 71 -44 79 -17 21 -17 57 0 64 22 8 17
35 -8 46 -36 16 -95 62 -118 93 -12 15 -19 27 -16 27 3 0 40 -15 83 -34 160
-71 263 -77 369 -23 112 57 167 143 172 272 3 66 -1 93 -22 155 -33 96 -49
116 -124 166 -102 68 -278 109 -419 97 l-62 -5 -35 71 c-20 39 -36 79 -36 89
0 24 -54 72 -100 88 -19 7 -54 13 -77 14 l-43 0 0 39 c0 35 3 39 29 44 24 5
32 14 40 44 6 20 23 46 37 58 23 18 27 29 26 70 0 49 24 119 95 274 24 52 36
97 40 143 6 66 5 68 -27 98 -28 26 -37 30 -69 24 -20 -4 -48 -13 -63 -20 -25
-13 -128 -151 -174 -233 -31 -56 -95 -121 -127 -129 -41 -11 -75 -55 -58 -76
10 -12 10 -19 -3 -37 -9 -14 -13 -32 -9 -47 5 -22 3 -23 -18 -17 -20 6 -22 5
-11 -6 14 -16 16 -53 2 -44 -6 4 -7 12 -4 18 5 8 3 8 -6 0 -20 -18 6 -63 35
-63 13 0 28 -6 34 -14 10 -12 8 -17 -8 -25 -10 -6 -24 -26 -31 -45 -9 -29 -56
-76 -64 -64 -1 2 -23 37 -49 78 -87 142 -238 271 -345 296 -132 31 -232 9
-301 -65 l-36 -39 3 567 c1 311 2 574 2 583 0 23 10 23 1020 21 465 -2 904 -3
976 -3z m-1607 -1104 c112 -56 221 -162 286 -275 27 -48 31 -62 20 -71 -10 -8
-25 6 -66 62 -108 150 -262 275 -369 300 -82 19 -170 -20 -220 -98 -39 -62
-46 -117 -25 -191 41 -141 166 -261 325 -311 87 -27 176 -50 225 -56 22 -3 54
-8 70 -10 17 -2 61 -7 100 -10 68 -7 115 -26 115 -48 0 -16 -197 0 -265 22
-51 17 -138 38 -185 45 -57 8 -254 104 -298 145 -34 31 -95 121 -105 155 -4
11 -9 52 -12 91 -7 85 16 159 68 218 45 52 93 67 198 63 68 -3 97 -10 138 -31z
m-57 -32 c102 -72 119 -220 34 -312 -30 -34 -63 -48 -127 -56 -47 -5 -63 -2
-105 19 -28 14 -50 20 -52 14 -5 -12 -32 8 -32 23 0 6 7 5 15 -2 22 -18 18 -6
-9 35 -28 40 -41 108 -31 153 11 53 59 116 106 140 62 32 143 27 201 -14z
m702 -24 c6 0 17 5 24 12 8 8 14 5 21 -15 6 -15 15 -27 21 -27 5 0 10 -12 10
-26 0 -22 -2 -24 -15 -14 -23 19 -43 5 -50 -34 -5 -26 -11 -33 -23 -29 -10 4
-13 2 -8 -5 4 -7 1 -12 -7 -12 -9 0 -14 -10 -14 -25 0 -31 24 -33 37 -2 13 31
35 57 49 57 6 0 11 7 11 15 0 8 -4 15 -10 15 -5 0 -10 5 -10 11 0 8 5 8 15 -1
22 -18 19 -33 -17 -87 -49 -74 -71 -81 -113 -36 -19 21 -25 24 -25 11 0 -9 14
-27 30 -40 l31 -24 -21 -27 c-24 -31 -40 -35 -40 -10 0 25 -30 53 -57 53 -32
0 -37 17 -23 81 7 30 12 66 11 81 0 15 5 30 11 34 7 5 9 2 5 -9 -3 -9 -2 -19
2 -22 5 -3 11 1 14 8 3 8 22 22 42 31 20 10 39 25 42 34 4 9 14 22 22 29 13 9
17 8 19 -8 2 -10 9 -19 16 -19z m-455 -194 c39 -51 71 -96 71 -99 0 -3 -20
-26 -45 -51 -25 -26 -46 -54 -46 -64 -1 -9 -3 -24 -4 -32 -1 -8 -3 -25 -4 -37
-2 -39 -29 -26 -114 57 -45 44 -85 80 -89 80 -4 0 -6 -8 -6 -17 1 -32 -11
-125 -16 -131 -3 -3 -1 -11 6 -19 14 -18 -73 19 -116 49 -46 32 -116 101 -116
115 0 6 13 -2 30 -18 l29 -30 40 21 c43 22 86 26 96 10 9 -15 35 -12 30 3 -3
6 11 23 30 36 71 48 105 173 70 258 -8 19 -15 38 -15 40 0 18 111 -94 169
-171z m293 -96 c6 -19 11 -45 10 -56 -1 -15 6 -24 20 -28 23 -5 41 11 31 28
-3 5 -1 6 6 2 8 -5 7 -15 -6 -37 -14 -24 -15 -33 -5 -49 6 -11 12 -31 12 -44
0 -13 7 -27 15 -30 12 -4 13 -10 6 -25 -8 -14 -6 -23 10 -37 l21 -19 -33 -6
c-19 -3 -37 -3 -42 -1 -13 6 -83 115 -127 197 -45 85 -60 106 -60 88 0 -31
171 -306 260 -418 22 -27 65 -83 96 -123 67 -87 190 -188 317 -259 146 -83
239 -102 339 -67 47 15 128 77 128 96 0 6 -9 3 -20 -7 -11 -10 -23 -16 -26
-12 -6 6 34 31 51 32 17 0 58 99 63 153 6 73 -18 131 -75 182 -26 22 -58 43
-72 47 -14 3 -30 9 -36 13 -19 13 -120 48 -170 59 -81 18 -210 15 -355 -8 -74
-12 -145 -24 -157 -27 -44 -11 -104 -10 -120 2 -14 9 -4 13 58 19 87 9 133 23
84 25 -40 3 74 25 238 47 103 13 143 14 205 6 160 -23 279 -68 327 -125 14
-17 40 -58 58 -92 29 -57 31 -68 32 -166 0 -98 -2 -108 -28 -152 -74 -124
-220 -181 -364 -144 -169 43 -416 215 -524 366 -14 19 -57 78 -95 130 -38 52
-81 113 -95 135 -30 46 -159 282 -159 290 0 3 7 5 15 5 18 0 95 49 95 60 0 5
13 3 30 -3 21 -8 33 -22 42 -47z m303 -10 c42 -14 95 -66 94 -93 -1 -12 -5
-35 -9 -52 l-8 -30 -1 27 c0 15 -6 30 -12 33 -7 5 -8 -14 -3 -63 8 -82 19 -74
-130 -95 -88 -13 -90 -12 -114 10 -21 19 -23 25 -11 39 11 13 10 17 -4 25 -10
6 -17 22 -17 39 0 16 -4 32 -10 35 -5 3 -10 13 -10 21 0 13 2 13 16 -1 22 -21
39 -14 39 16 0 17 -5 24 -17 23 -12 -1 -18 5 -18 18 0 16 3 18 14 9 11 -9 18
-8 30 4 9 9 16 12 16 6 0 -6 7 -11 15 -11 10 0 15 10 15 29 0 29 1 29 48 25
26 -3 61 -9 77 -14z m-1096 -131 c33 -37 70 -62 150 -101 58 -29 107 -53 109
-54 1 -1 3 -37 5 -82 2 -72 5 -84 29 -109 14 -15 36 -49 48 -75 34 -74 88 -97
196 -83 61 7 100 36 106 78 2 18 7 13 26 -24 12 -25 22 -49 22 -53 0 -5 -16
-35 -36 -67 -49 -82 -114 -352 -93 -391 7 -14 7 -23 -2 -34 -11 -13 -5 -19 16
-14 63 13 70 10 89 -49 10 -30 38 -88 63 -128 55 -91 98 -186 107 -238 4 -22
10 -50 13 -62 3 -13 0 -23 -6 -23 -15 0 -102 -56 -95 -62 9 -10 -26 -30 -56
-33 -17 -1 -33 -5 -37 -9 -10 -10 -87 -7 -122 5 -32 11 -42 29 -16 29 8 0 15
4 15 9 0 5 -9 7 -20 4 -11 -3 -20 -1 -20 3 0 14 26 83 33 90 10 11 8 24 -3 24
-5 0 -10 -4 -10 -9 0 -5 -7 -25 -16 -46 -14 -35 -16 -36 -29 -19 -18 24 -20
67 -2 61 7 -2 11 -17 9 -33 l-2 -29 14 25 c13 22 13 27 0 41 -8 9 -12 18 -10
20 2 2 6 18 9 34 6 27 4 25 -14 -10 -10 -22 -17 -30 -15 -17 5 27 -10 29 -19
2 -4 -11 -10 -18 -14 -15 -5 2 -17 -5 -27 -16 -16 -17 -16 -22 -4 -30 11 -8 9
-9 -10 -5 -130 32 -174 26 -267 -36 -93 -62 -106 -68 -147 -68 l-36 0 0 138
c0 75 -2 457 -5 847 -5 683 -5 709 12 686 10 -13 38 -45 62 -72z m395 -184
c38 -9 93 -22 121 -30 29 -9 68 -16 89 -17 36 -1 64 -18 31 -18 -10 0 -15 -6
-12 -13 3 -8 -3 -14 -14 -14 -10 -1 -19 3 -19 8 0 6 -5 7 -10 4 -8 -5 -7 -11
1 -21 16 -20 4 -30 -15 -12 -9 10 -11 20 -5 29 5 8 9 18 9 23 0 13 -34 -34
-53 -71 -13 -28 -13 -33 -1 -33 8 0 14 -3 14 -8 0 -10 -49 -82 -57 -82 -3 0 0
7 7 15 11 13 8 20 -14 40 l-28 26 27 44 c34 58 51 59 20 1 l-24 -45 21 -23 21
-23 -6 36 c-4 27 1 49 18 82 20 41 21 46 7 52 -15 6 -35 -12 -45 -39 -2 -6 -8
-7 -13 -3 -4 4 -3 17 4 27 7 11 10 20 7 20 -9 0 -75 -108 -75 -122 1 -7 10 4
20 24 22 40 40 57 40 36 0 -15 -28 -59 -44 -70 -5 -3 -15 -4 -23 -1 -7 3 -13
-1 -13 -8 0 -7 -3 -10 -6 -7 -3 4 2 20 11 38 9 18 14 34 11 37 -3 3 -11 -6
-17 -21 -13 -28 -32 -37 -22 -9 5 12 2 15 -10 10 -14 -5 -15 -2 -6 21 6 15 21
41 35 59 27 35 32 52 10 34 -11 -9 -15 -9 -20 1 -3 7 -3 3 -1 -9 3 -12 1 -24
-5 -28 -5 -3 -10 2 -10 12 0 15 -2 16 -10 3 -5 -9 -5 -17 1 -21 11 -6 1 -39
-12 -39 -4 0 -6 6 -3 14 3 8 0 17 -6 21 -8 5 -7 11 2 23 11 13 11 14 0 8 -10
-6 -13 -2 -10 15 2 18 -2 24 -14 23 -10 -1 -18 5 -18 13 0 11 6 14 23 9 12 -4
53 -13 91 -21z m934 -71 c12 -34 22 -68 22 -78 0 -9 6 -16 13 -16 14 0 37 -40
37 -65 0 -8 -5 -15 -11 -15 -6 0 -8 7 -5 16 4 10 1 14 -6 12 -7 -2 -26 -30
-43 -61 -31 -59 -63 -88 -45 -42 5 14 8 30 6 37 -1 7 -1 10 2 5 2 -4 13 4 24
19 24 30 11 56 -15 30 -14 -15 -17 -15 -26 1 -8 16 -11 15 -21 -12 -9 -23 -13
-26 -20 -15 -5 8 -6 17 -2 20 4 3 15 19 24 37 16 31 16 32 -2 20 -11 -6 -21
-18 -24 -27 -2 -9 -4 -6 -5 7 0 12 5 26 13 30 20 12 40 53 25 53 -6 0 -9 9 -6
20 3 11 2 18 -3 15 -4 -3 -11 3 -14 12 -5 11 -10 13 -17 6 -8 -8 -8 -17 0 -31
16 -31 13 -61 -8 -88 -16 -20 -19 -38 -17 -95 2 -38 -1 -69 -6 -69 -4 0 -8 10
-9 23 -3 69 0 116 8 133 6 10 8 26 6 34 -4 12 -3 13 5 1 8 -11 11 -9 17 9 8
24 -14 48 -26 28 -8 -13 -18 37 -15 77 3 28 5 30 52 33 27 2 51 5 53 8 8 8 17
-9 39 -72z m132 66 c81 -11 170 -37 170 -50 0 -4 -18 -10 -40 -14 -47 -7 -120
-68 -140 -116 -12 -29 -40 -32 -40 -4 0 8 -8 22 -19 33 -16 16 -71 137 -71
155 0 9 54 7 140 -4z m-319 -34 c-9 -11 -9 -15 1 -19 10 -4 10 -8 -2 -17 -12
-9 -12 -13 -2 -17 10 -4 9 -8 -5 -19 -11 -8 -13 -13 -5 -14 19 0 14 -27 -9
-43 -15 -11 -17 -16 -7 -20 9 -4 7 -6 -4 -6 -10 -1 -18 -6 -18 -12 0 -6 7 -9
15 -5 8 3 15 1 15 -4 0 -6 -11 -10 -25 -10 -14 0 -25 -5 -25 -11 0 -6 9 -8 20
-4 15 5 20 2 20 -14 0 -11 -5 -23 -10 -26 -6 -4 -8 -11 -5 -16 12 -19 -13 -8
-35 16 -13 14 -24 38 -25 53 0 20 -6 28 -22 30 -32 5 -66 51 -58 79 4 16 0 25
-10 29 -8 4 -15 13 -15 22 0 13 2 13 13 -2 16 -22 53 -17 49 6 -2 12 7 19 30
23 139 25 139 25 119 1z m-313 -73 c22 -32 63 -85 91 -118 28 -33 49 -65 47
-72 -5 -13 2 -22 39 -48 18 -12 13 -13 -47 -11 -82 3 -251 54 -243 74 3 7 1
11 -4 8 -5 -3 -14 1 -21 9 -16 20 -30 94 -19 101 5 3 9 -1 10 -8 2 -44 10 -72
21 -79 23 -15 33 -10 12 6 -14 10 -15 14 -5 15 11 0 10 4 -5 16 -19 15 -19 16
0 9 19 -5 19 -5 4 12 -17 19 -22 44 -20 106 l2 37 49 0 c47 0 49 -1 89 -57z
m903 14 c132 -70 146 -261 26 -348 -41 -30 -94 -40 -82 -16 4 6 0 4 -8 -5 -21
-27 -27 -22 -14 12 15 40 -1 57 -30 31 -11 -11 -23 -17 -27 -14 -3 3 -12 0
-20 -6 -42 -35 -126 78 -126 169 0 148 153 244 281 177z m-1016 -277 c3 -5 12
-10 19 -10 8 0 29 -7 49 -15 l35 -14 -18 -36 c-15 -29 -16 -43 -9 -65 7 -20 7
-35 -1 -50 -13 -25 -9 -33 12 -25 18 7 38 47 38 75 0 30 47 60 96 60 23 0 45
4 48 9 3 4 31 11 61 15 50 6 60 4 93 -21 59 -43 122 -105 148 -145 13 -21 31
-38 39 -38 8 0 26 -11 41 -25 15 -14 33 -25 41 -25 8 0 11 -5 8 -10 -4 -6 -23
-7 -47 -4 -39 7 -40 6 -34 -17 7 -23 6 -23 -8 -5 -9 11 -16 23 -16 28 0 4 -9
8 -20 8 -11 0 -20 5 -20 11 0 6 -12 9 -27 7 -39 -4 -42 -34 -7 -66 29 -28 29
-28 -28 -46 -14 -4 -16 -12 -12 -35 l6 -29 -38 13 c-31 10 -40 19 -44 42 -3
15 -11 28 -18 27 -31 -3 -33 -5 -27 -34 3 -16 3 -49 0 -75 -6 -36 -11 -45 -27
-45 -11 0 -26 6 -34 14 -7 8 -18 16 -24 18 -6 2 -16 26 -23 53 -8 32 -17 50
-27 50 -10 0 -14 -8 -13 -23 2 -13 -3 -38 -11 -56 -11 -26 -20 -33 -39 -33
-29 0 -47 35 -47 91 0 36 -16 57 -36 49 -10 -4 -13 -15 -8 -38 5 -27 2 -36
-17 -48 -12 -9 -26 -14 -30 -11 -4 2 -10 0 -14 -6 -10 -16 -25 -1 -25 25 0 13
-5 35 -11 49 -9 20 -9 29 0 40 15 18 6 36 -19 36 -18 0 -33 -33 -34 -75 -1
-31 -40 -31 -54 0 -9 20 -9 46 3 118 31 196 97 340 130 287z m920 -90 c-5 -21
-16 -35 -38 -45 -31 -15 -30 -15 36 -11 37 2 67 2 67 -1 0 -2 -16 -11 -35 -19
-67 -28 -203 -10 -274 35 l-24 15 29 9 c16 6 34 14 41 19 8 6 24 1 50 -16 46
-32 83 -34 83 -7 0 11 5 23 12 27 8 5 9 0 6 -14 -10 -36 12 -25 28 14 18 42
29 39 19 -6z m-401 -502 l21 -17 -38 -39 c-58 -60 -66 -112 -32 -232 14 -52 9
-105 -13 -131 -15 -17 -17 -17 -45 7 -15 13 -33 24 -38 24 -5 0 -9 7 -9 15 0
21 8 19 47 -11 19 -14 37 -23 40 -20 10 10 -18 35 -52 47 -25 10 -35 20 -39
43 -3 17 -22 57 -41 89 -27 45 -35 69 -36 110 0 29 -4 78 -8 110 -7 56 0 84
13 51 3 -8 14 -14 23 -12 10 1 24 -1 31 -6 18 -11 23 -4 29 43 l6 40 60 -47
c33 -26 69 -55 81 -64z m206 -145 c-26 -33 -25 -37 6 -52 15 -6 24 -14 21 -18
-4 -3 -12 -1 -19 5 -10 7 -20 5 -37 -9 l-25 -20 29 -27 c16 -15 42 -32 58 -37
l29 -11 -44 -45 c-24 -25 -54 -53 -68 -63 -14 -10 -8 -8 15 4 22 12 53 37 68
56 16 19 34 34 40 34 15 0 -51 -67 -91 -92 -19 -11 -50 -21 -70 -21 -36 -1
-37 0 -34 34 5 46 27 108 73 206 22 46 39 88 39 94 0 8 4 8 15 -1 13 -11 12
-15 -5 -37z m373 -155 c26 -17 64 -51 85 -76 39 -48 83 -72 131 -72 23 0 30
-5 33 -25 5 -22 2 -25 -24 -25 -46 0 -107 33 -180 97 -62 55 -118 83 -164 83
-39 -1 -105 -41 -178 -109 -57 -52 -86 -72 -118 -79 l-43 -10 35 -1 c42 -1 97
33 162 100 42 44 83 69 135 84 31 9 107 -27 158 -74 67 -61 119 -92 171 -99
35 -5 50 -12 52 -25 3 -15 -5 -17 -65 -17 -80 0 -145 18 -220 61 -72 41 -120
36 -200 -21 -44 -31 -65 -40 -97 -40 l-41 0 41 19 c22 10 55 36 72 59 35 44
99 82 137 82 41 0 78 -19 125 -65 48 -47 125 -86 168 -84 19 0 7 7 -38 22 -45
15 -77 33 -105 62 -60 59 -94 78 -140 78 -52 0 -98 -24 -158 -84 -27 -27 -64
-54 -83 -61 -19 -6 -34 -16 -34 -20 0 -4 -11 -8 -25 -8 -14 0 -25 -5 -25 -11
0 -8 48 -10 158 -8 232 6 530 -1 507 -11 -11 -4 -161 -7 -333 -6 -172 0 -312
-2 -312 -6 0 -5 151 -8 335 -8 l335 0 0 -274 0 -274 -957 -1 c-527 -1 -1011 2
-1076 5 l-118 7 4 286 3 286 512 0 c453 0 568 -4 490 -16 -47 -8 -688 -4 -835
5 -92 5 -153 5 -153 0 0 -5 53 -10 118 -12 64 -1 158 -6 207 -11 50 -5 191 -5
315 -1 124 5 260 6 303 3 69 -5 78 -8 83 -28 9 -35 -33 -119 -77 -154 -41 -34
-94 -114 -85 -130 7 -10 101 9 164 34 22 9 54 32 71 51 17 19 37 34 45 34 7 0
21 9 31 20 15 17 16 25 6 72 -25 109 -29 98 42 98 59 0 65 -2 98 -36 18 -20
48 -43 66 -50 36 -16 143 -19 143 -5 0 19 -36 71 -53 77 -20 6 -58 63 -74 111
-11 31 -11 31 30 42 29 7 67 33 122 82 44 39 90 78 103 86 60 40 143 37 215
-9z m-1479 -49 c24 -6 61 -26 82 -45 92 -80 111 -89 194 -89 73 0 79 2 141 43
36 23 73 42 82 42 20 0 23 16 5 23 -8 4 -7 6 4 6 9 1 24 -13 32 -31 19 -38 19
-38 1 -38 -8 0 -37 -14 -65 -31 -53 -33 -164 -55 -230 -46 -19 2 -82 28 -140
57 -81 40 -119 53 -166 57 -66 6 -78 2 -161 -54 -42 -29 -64 -36 -117 -40 -57
-5 -66 -3 -66 11 0 12 10 16 38 16 31 0 57 12 123 56 46 31 93 60 104 65 29
11 89 11 139 -2z m76 -116 c152 -72 157 -74 261 -61 73 9 102 18 146 45 31 18
62 33 69 33 7 0 23 -18 34 -40 25 -48 26 -68 5 -50 -12 10 -21 10 -41 1 -14
-6 -42 -11 -62 -11 l-37 0 47 25 c26 14 54 25 63 25 9 0 14 4 10 9 -8 14 -119
-26 -135 -49 -3 -4 -89 -11 -191 -15 -155 -6 -188 -5 -195 7 -10 16 -78 38
-117 38 -14 0 -45 -8 -69 -18 -57 -24 -268 -31 -268 -9 0 10 18 16 60 20 63 7
103 23 155 63 74 56 126 53 265 -13z m818 -6 c20 -12 46 -28 57 -34 11 -6 20
-20 19 -32 0 -14 9 -25 28 -33 15 -7 28 -16 28 -21 0 -4 16 -17 35 -28 20 -12
40 -30 46 -40 9 -17 6 -19 -40 -19 -31 0 -55 6 -65 15 -8 8 -19 15 -25 15 -6
0 -11 5 -11 10 0 6 5 10 11 10 6 0 4 7 -5 15 -8 9 -22 12 -32 8 -12 -4 -15 -3
-10 5 4 7 2 12 -5 12 -8 0 -7 5 2 16 12 15 11 16 -9 10 -13 -4 -22 -3 -22 3 0
6 -13 24 -29 40 -20 21 -28 37 -24 51 7 25 5 25 51 -3z m-128 -223 c11 -29 13
-40 4 -31 -10 10 -36 -22 -28 -34 4 -8 3 -9 -4 -5 -7 4 -12 1 -12 -9 0 -9 -4
-13 -10 -10 -5 3 -10 -1 -10 -10 0 -9 -5 -13 -10 -10 -6 4 -10 3 -9 -2 4 -21
-3 -31 -27 -42 -35 -16 -167 -52 -172 -47 -12 12 64 110 79 101 9 -6 44 41 53
73 5 14 15 22 29 21 17 -1 18 -2 4 -6 -9 -2 -15 -9 -12 -14 4 -5 1 -9 -4 -9
-6 0 -11 -5 -11 -12 0 -6 -7 -20 -16 -30 -16 -16 -15 -18 0 -24 21 -8 56 22
56 48 0 10 4 18 9 18 5 0 12 8 16 19 5 16 37 38 58 40 4 1 12 -11 17 -25z"/>
<path d="M1080 3885 c0 -8 9 -15 20 -15 17 0 20 -7 20 -45 0 -41 -2 -45 -25
-45 -14 0 -25 -4 -25 -9 0 -10 86 -18 142 -13 42 4 53 22 13 22 -14 0 -25 6
-26 13 -5 65 -4 71 20 77 14 3 26 11 29 18 3 9 -19 12 -82 12 -70 0 -86 -3
-86 -15z"/>
<path d="M1796 2008 c4 -18 15 -52 25 -75 18 -42 17 -43 -3 -57 -18 -13 -24
-13 -44 1 -21 13 -22 18 -11 37 6 11 12 28 13 36 1 8 4 25 8 38 11 33 -3 27
-15 -8 -9 -25 -16 -30 -42 -30 -18 0 -42 -3 -55 -6 -22 -6 -21 -8 15 -32 21
-14 39 -26 41 -27 1 -1 -7 -23 -18 -49 l-20 -47 22 7 c13 4 35 16 50 27 l28
21 39 -32 c35 -28 61 -40 61 -28 0 2 -7 23 -15 46 -20 57 -20 58 22 82 20 12
31 24 25 26 -6 2 -21 -6 -34 -17 -12 -12 -25 -21 -28 -21 -9 0 -36 59 -44 97
-10 44 -27 53 -20 11z"/>
</g>
</svg>
