<?xml version="1.0" standalone="no"?>
<!DOCTYPE svg PUBLIC "-//W3C//DTD SVG 20010904//EN"
 "http://www.w3.org/TR/2001/REC-SVG-20010904/DTD/svg10.dtd">
<svg version="1.0" xmlns="http://www.w3.org/2000/svg"
 width="233.000000pt" height="400.000000pt" viewBox="0 0 233.000000 400.000000"
 preserveAspectRatio="xMidYMid meet">
<metadata>
Created by potrace 1.15, written by Peter Selinger 2001-2017
</metadata>
<g transform="translate(0.000000,400.000000) scale(0.100000,-0.100000)"
fill="#000000" stroke="none">
<path d="M52 3956 c-4 -6 -8 -894 -10 -1973 l-3 -1963 358 0 c293 0 1201 12
1732 23 l114 2 0 995 c0 547 -1 1429 -2 1960 l-1 965 -1090 1 c-804 1 -1092
-1 -1098 -10z m2138 -15 l25 -7 2 -354 c6 -925 7 -2650 1 -2655 -3 -3 -23 1
-44 10 -34 14 -36 16 -19 29 17 13 17 14 -1 54 -25 54 -45 60 -83 26 -24 -21
-29 -32 -24 -55 4 -22 2 -29 -11 -29 -9 0 -16 8 -16 18 0 32 -32 85 -81 134
-95 95 -109 127 -100 238 l6 75 40 0 c29 0 39 4 37 14 -2 8 3 11 12 8 9 -4 26
3 38 13 13 11 37 31 54 45 43 34 46 62 13 155 -16 44 -40 123 -54 176 -24 90
-58 165 -93 206 -19 23 -9 61 22 77 27 15 62 86 71 146 8 45 30 99 57 134 22
29 23 85 2 157 -12 42 -29 67 -80 119 -35 35 -76 68 -89 71 -14 3 -32 19 -41
35 -13 27 -13 29 4 29 10 0 19 7 19 15 0 8 -6 15 -14 15 -7 0 -13 5 -13 11 0
6 9 8 20 4 11 -4 20 -2 20 4 0 6 -6 11 -12 12 -10 0 -10 2 0 6 24 10 14 60
-17 83 -17 11 -33 29 -36 40 -3 10 -29 30 -57 44 -42 21 -54 23 -67 13 -12
-10 -13 -9 -7 1 9 15 -27 8 -84 -16 -19 -8 -45 -16 -57 -16 -13 -1 -29 -8 -37
-16 -18 -20 -30 -87 -16 -95 5 -3 10 3 10 14 0 12 5 21 10 21 6 0 10 -9 10
-20 0 -23 17 -27 22 -5 3 13 8 13 42 -4 21 -11 42 -18 46 -16 4 3 10 -4 13
-15 5 -18 40 -27 80 -21 11 2 9 -17 -3 -24 -18 -11 -11 -26 8 -17 16 8 59 9
66 1 2 -2 20 -28 39 -56 l36 -53 -44 -26 c-25 -14 -49 -23 -54 -19 -6 3 -19 0
-30 -7 -28 -17 -32 -8 -22 48 11 57 8 63 -17 41 -10 -10 -25 -17 -33 -17 -8 0
-20 -5 -27 -12 -9 -9 -14 -6 -20 13 -6 14 -6 25 -1 27 5 2 9 8 9 14 0 6 -7 8
-15 4 -8 -3 -15 -1 -15 4 0 6 -7 10 -15 10 -10 0 -15 10 -15 33 -1 30 -19 67
-34 67 -4 0 -2 -9 4 -19 5 -11 10 -36 10 -55 0 -24 5 -36 14 -36 8 0 23 -17
34 -37 17 -34 23 -38 53 -35 l34 2 -30 -16 c-16 -8 -37 -22 -46 -30 -8 -8 -20
-14 -26 -14 -11 0 -58 -50 -65 -69 -2 -6 -17 -7 -40 -2 -21 5 -36 5 -33 1 3
-5 23 -11 45 -15 65 -11 51 -33 -17 -29 -32 2 -71 0 -88 -5 -25 -7 -19 -8 34
-9 36 0 68 -5 75 -12 9 -10 1 -11 -34 -7 l-45 5 38 -11 c20 -6 37 -15 37 -19
0 -5 -8 -7 -17 -4 -10 3 -31 8 -48 11 -23 5 -26 4 -15 -4 8 -6 23 -11 32 -11
9 0 19 -4 22 -9 4 -5 -13 -7 -36 -5 -45 4 -43 0 5 -10 38 -9 34 -23 -5 -20
-18 2 -24 1 -13 -2 35 -10 41 -24 10 -25 -21 -1 -24 -3 -10 -6 38 -9 42 -25 5
-19 l-35 6 30 -14 30 -14 -30 -3 c-22 -1 -24 -3 -9 -6 12 -2 34 -18 50 -34 24
-25 26 -31 14 -39 -12 -7 -16 -4 -18 14 -4 29 -42 45 -90 38 -37 -5 -44 14 -9
28 21 8 20 9 -7 9 -32 1 -26 15 9 24 13 3 8 5 -13 6 -19 1 -31 5 -27 11 3 6 3
10 -2 10 -14 0 -35 59 -28 80 4 11 2 20 -4 20 -6 0 -11 5 -11 10 0 6 7 10 15
10 8 0 15 5 15 10 0 12 -2 12 -34 0 -20 -7 -26 -6 -26 4 0 10 23 18 73 26 97
16 105 21 27 16 -36 -2 -73 -7 -82 -11 -14 -5 -18 -2 -18 14 0 12 -6 30 -12
41 -11 18 -9 24 19 50 43 40 59 99 38 139 -8 16 -25 37 -37 45 -12 9 -20 17
-17 19 2 2 25 15 50 30 67 38 99 80 99 128 0 48 -27 64 -72 42 -33 -17 -36
-39 -6 -48 16 -6 26 -1 39 16 22 29 25 13 4 -28 -24 -47 -78 -102 -108 -109
l-28 -7 3 66 c1 36 -1 69 -5 73 -4 4 -7 -1 -7 -12 0 -16 -2 -16 -10 -4 -6 10
-4 17 7 24 10 5 18 4 24 -5 4 -7 9 -11 11 -9 2 3 8 14 14 25 6 11 26 28 46 37
19 9 40 23 47 32 8 9 21 16 31 16 23 0 40 21 81 97 6 12 18 24 26 27 8 3 11 1
8 -4 -8 -14 47 -13 82 1 15 6 37 15 48 19 25 10 73 21 103 23 22 2 32 17 10
17 -6 0 -8 3 -5 6 4 4 13 2 20 -4 7 -7 39 -10 73 -8 39 2 66 -1 79 -10 22 -16
57 -18 71 -5 5 5 20 11 34 13 16 2 27 12 31 28 4 14 7 22 8 18 1 -5 0 -11 -1
-14 -5 -10 65 -35 80 -29 7 3 22 0 33 -5 28 -15 33 7 14 54 -20 47 -173 202
-219 221 -19 8 -37 19 -41 25 -3 5 -14 10 -24 10 -10 0 -24 6 -30 14 -6 7 -35
16 -64 20 -88 10 -113 15 -138 24 -33 13 -77 7 -100 -14 -14 -13 -19 -31 -19
-72 0 -57 -29 -126 -58 -137 -8 -3 -15 -4 -16 -3 -1 2 -11 14 -23 29 -19 21
-21 30 -14 56 7 25 6 33 -6 37 -24 9 -71 7 -78 -4 -3 -5 -12 -10 -18 -10 -7 0
1 10 17 22 l30 22 -65 12 c-35 7 -72 10 -82 7 -11 -3 -28 4 -43 18 -20 18 -24
20 -29 7 -4 -9 -26 -21 -51 -28 -24 -7 -44 -18 -44 -26 0 -8 -15 -14 -37 -16
-39 -3 -39 -4 -42 -61 -1 -16 -6 -27 -13 -26 -38 5 -55 -19 -38 -52 7 -13 7
-19 0 -19 -5 0 -10 -10 -10 -22 0 -18 2 -20 10 -8 5 8 11 12 14 9 3 -2 1 -11
-3 -18 -7 -10 -13 -11 -30 -2 -12 7 -21 17 -20 24 3 20 -12 47 -27 47 -8 0
-11 6 -8 15 5 11 12 7 31 -16 33 -39 40 -31 12 15 -20 34 -20 41 -9 75 10 33
10 43 -5 74 -9 20 -22 40 -28 45 -22 16 -75 30 -83 22 -5 -5 -41 -15 -80 -23
-39 -9 -88 -27 -109 -41 -21 -14 -45 -26 -54 -26 -9 0 -29 -9 -46 -20 -16 -11
-38 -20 -47 -20 -27 0 -92 -68 -120 -125 -52 -103 -57 -119 -45 -127 11 -7 8
-9 -9 -7 -11 1 -44 -55 -44 -73 0 -10 5 -18 10 -18 12 0 62 30 70 42 3 4 22 9
42 11 37 4 94 34 85 44 -3 2 -16 0 -29 -7 l-23 -11 24 21 c18 15 26 18 32 9 6
-10 24 -9 80 4 52 11 76 12 80 5 4 -6 20 -8 38 -5 25 5 29 3 24 -9 -5 -14 3
-15 53 -12 32 2 66 8 75 12 12 5 27 -2 49 -24 27 -27 39 -31 71 -28 26 2 40
-1 44 -10 3 -9 13 -12 25 -9 28 7 26 -18 -2 -39 l-23 -16 22 5 c14 3 28 -2 39
-14 9 -10 25 -19 34 -19 10 0 23 -7 30 -15 7 -8 24 -15 39 -15 34 -1 66 -28
69 -60 18 -184 16 -189 -60 -110 -50 52 -62 82 -29 73 10 -3 22 0 25 6 9 14
-12 53 -24 46 -5 -3 -11 -1 -15 5 -10 16 -55 12 -62 -6 -11 -30 18 -95 62
-140 25 -24 51 -44 60 -44 22 0 19 -8 -20 -44 -28 -27 -35 -41 -35 -71 0 -43
33 -108 66 -130 20 -13 21 -18 11 -44 l-11 -30 -85 4 -86 4 85 -12 c72 -10 85
-15 88 -32 2 -16 1 -17 -7 -6 -8 12 -11 12 -23 0 -7 -8 -15 -23 -16 -34 -2
-11 -8 -22 -13 -23 -6 -2 -5 -10 2 -18 9 -11 7 -14 -12 -15 -17 -1 -19 -3 -6
-6 22 -6 22 -23 0 -24 -17 -1 -17 -2 0 -6 25 -6 21 -23 -5 -24 -17 -1 -19 -2
-5 -6 9 -2 17 -8 17 -13 0 -5 -8 -7 -17 -3 -15 5 -16 3 -5 -8 22 -24 13 -29
-23 -12 -34 16 -36 16 -50 -3 -8 -11 -15 -14 -15 -6 0 6 -8 12 -17 13 -11 0
-5 6 15 15 41 18 41 25 0 13 -42 -12 -44 -11 -31 2 6 6 26 15 45 19 32 8 32 8
5 9 -16 1 -37 -4 -48 -9 -13 -7 -19 -7 -19 -1 0 6 12 13 28 17 46 10 49 14 5
10 -29 -3 -43 0 -47 10 -4 11 6 14 42 15 45 2 45 2 12 8 -35 7 -35 7 -8 14 14
4 34 4 42 1 9 -3 16 -1 16 5 0 16 -50 14 -82 -3 -16 -8 -28 -11 -28 -6 0 4 -3
15 -6 23 -4 12 6 18 38 26 l43 10 -47 -5 c-27 -3 -48 -1 -48 4 0 5 33 13 73
18 68 8 70 9 25 12 -26 2 -64 -2 -84 -7 -26 -7 -34 -7 -27 0 6 6 32 16 59 24
27 7 40 14 29 14 -31 1 -92 -18 -104 -33 -9 -11 -7 -22 8 -47 22 -39 65 -195
56 -209 -3 -5 0 -12 6 -15 16 -11 -42 -46 -64 -39 -10 3 -24 1 -31 -5 -17 -15
-28 -1 -56 68 -44 113 -124 232 -171 256 -25 13 -28 19 -19 35 6 11 17 20 25
20 8 0 21 16 29 35 8 19 20 35 25 35 6 0 11 15 11 34 0 18 5 58 11 87 6 30 12
63 12 74 0 11 6 24 11 28 7 5 5 7 -4 4 -8 -2 -23 0 -32 4 -10 6 -19 5 -24 -2
-5 -8 -8 -8 -14 0 -12 20 -101 28 -160 15 -41 -9 -61 -20 -82 -46 -16 -18 -37
-44 -49 -58 -12 -14 -18 -33 -15 -44 3 -11 0 -26 -6 -33 -8 -10 -5 -13 12 -13
19 0 21 -2 10 -15 -10 -12 -10 -19 -2 -27 7 -7 12 -21 12 -31 0 -10 8 -21 19
-24 26 -7 16 -40 -18 -57 -14 -8 -36 -25 -48 -38 -26 -27 -31 -90 -38 -486 -3
-134 -7 -248 -10 -253 -4 -5 -6 -209 -6 -454 l-1 -445 -22 0 c-12 0 -26 -4
-31 -9 -6 -6 -34 -13 -63 -17 l-52 -7 0 1509 c1 830 4 1519 7 1531 l5 23 1047
-1 c575 -1 1057 -4 1071 -8z m-1544 -1128 c-3 -21 -6 -53 -6 -70 1 -23 -4 -33
-15 -33 -8 0 -15 -4 -15 -10 0 -5 -8 -10 -17 -11 -11 0 -13 -3 -5 -6 22 -9 14
-43 -10 -43 -25 1 -68 32 -68 50 0 6 -5 8 -11 5 -7 -5 -5 -14 5 -30 8 -12 16
-40 18 -61 2 -29 9 -42 26 -49 12 -5 22 -13 22 -17 0 -5 -31 8 -70 27 -38 19
-79 35 -91 35 -16 0 -19 4 -14 18 4 9 14 36 22 60 8 23 21 42 28 42 22 0 39
28 26 44 -9 11 -6 13 18 10 17 -2 34 3 41 11 7 8 16 15 21 15 4 0 19 11 33 25
14 14 35 25 47 25 19 0 21 -4 15 -37z m1259 -93 c3 -5 -11 -18 -32 -29 -21
-11 -44 -29 -52 -42 -11 -18 -15 -19 -23 -8 -8 11 -9 10 -4 -3 3 -11 -4 -24
-18 -35 -26 -21 -40 -75 -24 -91 6 -6 24 -8 41 -5 23 5 29 3 25 -8 -3 -8 -15
-13 -27 -12 -11 2 -21 -2 -21 -7 0 -6 5 -10 10 -10 6 0 10 -7 10 -15 0 -13 -4
-13 -22 -3 -13 7 -27 19 -31 26 -12 18 -44 15 -51 -5 -4 -9 -2 -21 4 -27 7 -7
4 -16 -12 -28 -22 -18 -23 -19 -4 -33 13 -10 23 -12 32 -5 8 7 13 6 18 -5 9
-25 36 -18 36 9 0 14 5 28 10 31 6 3 10 -5 10 -19 0 -14 -4 -28 -10 -31 -5 -3
-7 -19 -4 -34 6 -26 4 -28 -19 -24 -30 6 -47 -25 -23 -43 9 -6 16 -17 16 -24
0 -7 7 -10 16 -6 8 3 12 2 9 -4 -8 -13 14 -52 26 -45 5 4 9 -8 9 -25 0 -17 -4
-29 -9 -25 -5 3 -11 -5 -13 -17 -2 -13 -7 -21 -13 -18 -5 3 -9 16 -7 28 2 15
-1 21 -7 17 -6 -3 -11 -17 -11 -31 0 -31 -27 -32 -40 -1 -5 12 -10 19 -11 15
-1 -5 -3 -12 -4 -18 -1 -5 -3 -14 -4 -20 0 -5 -8 -10 -17 -10 -11 0 -13 6 -9
19 3 11 2 22 -3 25 -5 3 -12 -8 -16 -24 -3 -17 -9 -30 -14 -30 -11 0 -10 73 1
81 5 3 5 18 1 32 -5 23 -11 27 -45 27 -21 0 -39 5 -39 11 0 5 5 7 10 4 11 -7
14 8 3 18 -3 4 -12 -1 -19 -11 -12 -16 -13 -15 -14 6 0 12 5 22 10 22 6 0 10
7 10 15 0 22 18 18 25 -6 12 -38 100 -59 100 -24 1 11 4 26 9 33 10 16 -11 43
-28 36 -8 -3 -16 2 -19 10 -8 20 -33 21 -40 2 -3 -8 -3 -24 0 -35 3 -12 1 -21
-6 -21 -12 0 -12 -2 -16 65 -3 66 -3 65 -21 65 -10 0 -15 8 -14 23 4 39 1 45
-20 40 -11 -3 -20 -1 -20 4 0 14 52 69 73 76 9 4 17 10 17 15 0 5 7 9 15 9 8
0 15 -4 15 -9 0 -5 -7 -11 -15 -14 -8 -4 -15 -10 -15 -16 0 -5 5 -6 10 -3 6 3
10 -1 10 -10 0 -11 -6 -14 -24 -9 -29 7 -42 -10 -28 -39 6 -12 13 -30 16 -39
7 -24 31 -23 66 4 36 26 36 28 10 58 -16 18 -19 31 -14 54 4 17 10 33 14 36 4
3 12 16 19 30 l12 25 -20 -24 c-12 -13 -21 -17 -21 -10 0 7 7 20 16 30 13 14
21 16 45 7 25 -8 38 -6 83 17 29 14 66 37 82 50 32 27 40 29 49 15z m-1422
-171 c57 -28 90 -39 108 -35 24 4 31 -2 67 -63 45 -75 86 -168 97 -219 l7 -33
-38 7 c-26 5 -35 4 -30 -5 4 -6 14 -11 22 -11 8 0 14 -4 14 -9 0 -13 -26 -32
-33 -24 -4 3 -15 -1 -25 -10 -11 -10 -23 -13 -31 -8 -19 12 -6 41 19 41 30 0
24 27 -10 45 -16 8 -37 30 -46 48 -9 17 -30 48 -45 67 -16 19 -29 40 -29 46 0
6 -17 27 -39 47 -38 34 -47 37 -163 53 -51 7 -65 28 -25 37 12 3 33 9 47 13
14 4 22 3 18 -1 -4 -4 9 -16 30 -26 20 -11 38 -15 40 -10 2 7 12 7 28 0 56
-21 61 -2 6 23 -22 11 -38 14 -40 8 -2 -6 -8 -10 -13 -10 -4 0 -6 6 -3 14 7
18 -20 27 -73 22 -44 -3 -48 8 -9 24 39 16 67 10 149 -31z m669 -81 c-4 -60
19 -123 41 -115 34 11 48 97 22 133 -13 20 -11 34 6 34 4 0 22 -30 40 -67 30
-64 44 -142 27 -158 -3 -3 -25 3 -48 15 -62 32 -58 19 6 -15 30 -16 57 -38 60
-48 7 -23 -4 -36 -15 -18 -6 9 -18 11 -34 7 -19 -4 -33 1 -55 19 -17 14 -39
25 -50 25 -12 0 -24 5 -28 11 -5 9 7 10 42 5 37 -6 46 -5 38 4 -6 6 -30 14
-53 17 -55 8 -63 22 -9 16 30 -3 39 -2 29 5 -7 5 -31 9 -52 8 -22 0 -39 0 -39
0 0 7 32 162 36 172 2 8 12 12 21 10 15 -3 17 -13 15 -60z m835 -30 c17 -14
16 -32 -8 -133 -27 -115 -35 -136 -66 -162 -29 -26 -48 -30 -40 -10 3 8 1 20
-4 28 -6 10 -9 7 -9 -13 0 -16 -4 -28 -10 -28 -5 0 -11 12 -11 28 l-1 27 -8
-30 -8 -30 -1 28 c0 15 -9 40 -18 54 -13 19 -14 28 -5 31 9 3 9 9 1 24 -8 15
-8 22 1 28 9 5 9 9 1 14 -17 11 -13 41 9 61 24 21 26 37 5 29 -8 -4 -15 -4
-15 -2 0 8 85 66 105 71 25 6 66 -1 82 -15z m-487 -153 c0 -13 -6 -25 -12 -28
-10 -3 -9 -8 2 -22 9 -11 10 -16 3 -11 -18 10 -16 2 6 -35 24 -39 17 -69 -16
-69 l-24 0 21 -30 c14 -19 30 -30 46 -30 13 0 24 -4 24 -10 0 -5 8 -7 18 -4
14 5 14 3 -3 -11 -18 -14 -20 -14 -23 -1 -2 9 -8 16 -13 16 -10 0 0 -90 13
-106 15 -21 -39 -290 -78 -382 -8 -19 -14 -41 -14 -49 0 -21 41 -63 61 -63 9
0 19 -9 22 -20 4 -16 12 -20 38 -18 33 3 33 3 46 -62 8 -36 12 -81 9 -101 -6
-38 9 -99 24 -99 5 0 5 12 0 28 -4 15 -11 74 -14 132 l-5 105 97 0 97 0 -19
-108 c-14 -82 -16 -114 -8 -130 25 -50 46 -159 36 -189 -5 -17 -131 -84 -140
-75 -3 3 -10 52 -15 108 -5 57 -15 108 -20 114 -8 7 -9 -11 -5 -60 4 -48 3
-63 -3 -49 -5 12 -14 25 -20 28 -6 4 -8 12 -5 19 5 15 -32 67 -48 67 -6 0 -19
-7 -29 -16 -10 -9 -35 -20 -55 -24 -31 -7 -40 -6 -50 9 -15 21 -112 23 -137 3
-13 -11 -16 -10 -19 9 -2 14 -20 31 -51 47 -41 23 -49 24 -61 12 -16 -18 -28
-98 -15 -106 5 -3 9 -10 9 -16 0 -6 -9 -3 -19 6 -17 15 -23 16 -43 5 -13 -7
-27 -14 -33 -14 -5 0 -9 -11 -8 -23 2 -17 -2 -22 -20 -22 -12 0 -37 -9 -55
-20 -23 -14 -50 -20 -96 -20 l-63 0 -7 46 c-3 26 -6 95 -7 153 0 58 -4 156 -9
216 -9 111 -39 601 -40 643 0 16 6 22 20 22 19 0 20 2 5 29 -8 17 -12 37 -9
45 10 27 -27 32 -48 7 -17 -22 -18 -22 -18 -4 0 11 11 30 25 43 23 22 25 22
25 4 1 -16 2 -17 13 -4 17 21 57 42 57 31 0 -6 -4 -13 -10 -16 -5 -3 -10 -22
-10 -41 0 -19 -4 -34 -10 -34 -13 0 -13 -27 -1 -34 12 -8 58 10 77 29 20 19
44 19 44 0 0 -22 -57 -145 -78 -168 -16 -18 -15 -20 11 -43 16 -13 33 -24 40
-24 7 0 0 10 -15 21 l-27 20 34 62 c18 34 41 86 50 115 10 28 22 52 27 52 15
0 0 -122 -23 -195 -25 -80 -24 -95 4 -95 35 0 177 34 177 42 0 5 -4 8 -9 8 -5
0 -11 12 -14 28 -3 15 -15 59 -26 97 -11 39 -20 87 -20 108 -1 20 -5 37 -11
37 -5 0 -10 -7 -10 -15 0 -8 -6 -15 -12 -16 -10 0 -10 -2 0 -6 17 -7 15 -21
-5 -26 -14 -4 -12 -5 5 -6 12 0 22 -5 22 -11 0 -5 -10 -11 -22 -11 l-23 -2 23
-4 c12 -2 22 -8 22 -13 0 -5 -10 -11 -22 -13 -20 -4 -19 -4 5 -6 32 -1 37 -21
5 -22 -22 -1 -22 -1 2 -9 26 -7 21 -12 -25 -24 -11 -3 -3 -4 18 -1 20 2 37 0
37 -6 0 -5 -15 -10 -32 -10 -32 -2 -31 -2 7 -9 l40 -6 -30 -8 c-50 -13 -52
-16 -7 -12 36 4 42 1 42 -15 0 -11 -7 -19 -17 -19 -16 0 -16 2 -3 11 12 8 10
9 -10 5 -14 -3 -34 -6 -44 -6 -20 0 -20 0 -1 -14 19 -13 17 -15 -18 -21 -21
-4 -40 -5 -43 -3 -2 3 4 39 15 79 11 41 23 100 27 132 5 50 12 64 40 90 20 18
34 40 34 54 0 27 8 28 53 9 18 -7 55 -16 82 -20 27 -5 62 -14 76 -22 15 -7 29
-10 33 -7 20 20 6 -96 -21 -171 -40 -115 -41 -110 12 -140 52 -28 59 -31 50
-16 -3 5 -21 17 -40 26 -40 19 -42 27 -18 86 9 24 24 70 33 103 11 43 21 61
34 63 18 4 18 -3 12 -143 -6 -121 -5 -146 6 -142 7 3 38 14 68 23 30 10 56 19
58 20 2 1 -6 17 -16 35 -17 30 -48 157 -42 175 3 11 -54 44 -77 44 -13 0 -23
5 -23 11 0 6 9 9 20 6 11 -3 20 -1 20 4 0 5 -11 9 -25 9 -14 0 -25 4 -25 9 0
4 11 6 25 3 15 -2 25 0 25 7 0 6 -16 11 -36 11 -21 0 -33 4 -29 10 3 6 20 10
36 10 19 0 28 4 24 10 -4 6 -14 10 -23 8 -30 -5 -27 17 4 23 21 4 38 -1 61
-18 17 -13 38 -23 45 -23 10 0 9 3 -2 10 -12 7 -12 13 -1 33 7 14 10 30 7 36
-5 7 -1 9 8 5 9 -3 16 -17 16 -29z m-465 0 c-5 -2 -22 -6 -37 -9 -46 -10 -31
-25 20 -20 34 3 43 2 32 -5 -8 -6 -25 -11 -37 -11 -13 0 -23 -5 -23 -10 0 -6
12 -8 28 -5 24 6 25 5 7 -6 -19 -12 -19 -12 0 -19 17 -6 12 -11 -30 -32 -27
-14 -66 -30 -85 -36 -19 -5 -44 -13 -54 -18 -17 -7 -19 -4 -13 30 5 30 19 50
64 92 50 46 63 53 98 53 22 0 36 -2 30 -4z m-585 -140 c0 -28 43 -57 76 -52
18 3 44 -1 59 -9 32 -17 35 -17 35 -4 0 5 -17 17 -37 25 -60 25 -67 55 -13 55
19 0 33 -7 40 -20 13 -25 47 -26 73 -2 20 16 20 16 14 -2 -10 -25 8 -44 49
-52 19 -3 34 -10 34 -15 0 -12 -27 -12 -34 0 -4 5 -22 5 -43 0 -51 -12 -113
-11 -113 1 0 14 -43 13 -58 -2 -8 -8 -15 -8 -27 2 -8 7 -15 10 -15 6 0 -12
-51 26 -61 46 -10 19 -5 38 12 38 5 0 9 -7 9 -15z m302 -170 c3 -44 9 -161 13
-260 4 -99 11 -202 16 -230 5 -27 12 -153 15 -280 3 -126 12 -276 20 -333 8
-56 14 -122 14 -147 0 -43 -12 -65 -25 -45 -3 5 -17 10 -31 10 -15 0 -24 6
-24 15 0 8 -9 15 -20 15 -11 0 -20 5 -20 10 0 6 5 10 11 10 9 0 10 68 5 257
-7 256 -12 319 -25 292 -4 -8 -4 -86 0 -174 4 -88 7 -206 8 -263 1 -102 1
-103 -21 -100 l-23 3 0 510 c0 353 -4 533 -12 585 -7 41 -13 103 -13 137 l0
62 33 4 c72 9 71 10 79 -78z m-287 -3 c4 3 20 2 37 -4 l30 -11 -3 -206 c-2
-113 1 -309 6 -436 4 -126 8 -308 7 -404 -1 -96 1 -171 5 -167 5 4 8 206 9
449 0 243 4 473 9 511 5 50 5 67 -4 62 -6 -4 -11 -36 -11 -77 0 -38 -4 -69 -9
-69 -4 0 -6 21 -4 48 2 26 5 101 6 167 l2 120 36 6 37 5 6 -70 c9 -89 17 -665
10 -648 -13 30 -19 6 -16 -70 7 -220 23 -535 28 -555 12 -44 20 -22 16 42 -4
53 -2 65 11 65 11 0 17 -19 24 -67 l10 -68 2 53 c0 28 5 52 9 52 5 0 8 -33 8
-72 l-1 -73 -30 -1 c-52 -2 -63 5 -69 49 -21 144 -46 624 -40 757 4 103 3 142
-4 135 -18 -16 -17 -310 1 -552 30 -402 27 -380 53 -394 32 -17 30 -29 -3 -29
-16 0 -41 -7 -57 -15 -33 -18 -39 -19 -31 -5 4 7 -8 8 -34 4 -39 -6 -41 -6
-41 20 0 25 1 26 16 11 18 -17 60 -13 79 7 10 11 3 9 -39 -8 -17 -7 -47 22
-40 40 3 8 -1 27 -9 43 -12 23 -14 53 -8 153 3 69 6 166 4 215 -1 50 -2 135
-2 189 -1 55 -3 97 -5 95 -3 -2 -7 -175 -10 -383 -5 -328 -7 -381 -21 -396
-17 -19 -65 -33 -65 -19 0 5 -20 9 -44 9 -31 0 -46 5 -50 16 -7 19 22 46 42
39 11 -4 17 13 13 43 -1 6 10 28 25 48 25 33 27 43 32 159 3 69 9 125 13 125
5 0 9 -64 9 -142 0 -145 -2 -153 -44 -212 -20 -29 -16 -39 22 -51 17 -5 22 -2
22 10 0 11 -5 15 -15 12 -23 -9 -27 10 -7 30 11 10 24 34 30 53 12 41 13 897
0 877 -4 -7 -8 -97 -9 -202 -2 -172 -3 -181 -10 -100 -5 50 -9 180 -10 290 0
110 -1 226 -2 258 0 32 4 62 10 65 6 4 12 39 15 77 5 77 24 128 39 104 4 -7
11 -11 14 -7z m755 -912 c0 -6 10 -8 24 -4 13 3 27 1 30 -5 4 -6 15 -11 25
-11 10 0 23 -6 29 -13 6 -7 34 -14 63 -15 28 -1 72 -9 97 -18 25 -8 75 -18
109 -21 35 -3 66 -10 69 -14 7 -12 -69 -11 -101 1 -14 5 -40 11 -58 12 -18 1
-34 5 -37 9 -9 12 -70 21 -70 10 0 -6 -17 -11 -39 -11 -21 0 -51 -4 -67 -9
-16 -5 -46 -12 -66 -16 -21 -3 -38 -11 -38 -17 0 -6 8 -7 18 -3 18 7 91 23
160 35 29 5 57 3 82 -6 22 -8 46 -11 54 -8 21 8 83 -14 90 -31 3 -8 17 -15 31
-15 28 0 45 -30 45 -78 0 -15 9 -35 20 -45 11 -9 20 -29 20 -45 0 -25 -4 -29
-27 -29 -16 0 -206 -1 -423 -2 -217 -2 -395 1 -396 6 -1 4 -4 28 -7 53 l-4 45
61 1 c39 0 78 9 110 22 26 12 52 20 56 17 11 -7 80 26 80 37 0 5 -10 3 -22 -3
-12 -6 -33 -12 -47 -14 -14 -1 -48 -12 -75 -24 -37 -16 -63 -21 -104 -18 -57
4 -72 16 -72 55 0 23 1 23 85 27 42 1 159 64 121 65 -35 0 -3 16 59 30 39 9
66 22 78 37 19 24 37 30 37 13z m648 -97 c-2 -9 -25 -25 -53 -36 -58 -24 -60
-25 -52 -33 3 -3 27 4 53 15 26 12 49 19 52 17 2 -3 -1 -21 -8 -41 -9 -28 -22
-41 -61 -60 -55 -28 -104 -32 -113 -10 -4 11 1 15 17 15 21 1 21 1 -3 15 -14
8 -19 14 -10 15 11 0 11 3 2 12 -16 16 -15 28 3 28 21 0 141 55 149 69 11 17
28 13 24 -6z m299 -40 c29 -9 53 -20 53 -25 0 -4 -8 -5 -17 -1 -17 5 -17 5 0
-8 15 -12 17 -27 15 -94 l-3 -80 -87 -2 -87 -1 -7 36 c-3 21 -12 64 -19 96 -9
40 -10 68 -4 84 9 23 13 24 56 18 26 -3 71 -14 100 -23z m-122 -282 c8 -17 15
-36 15 -44 0 -18 -55 -28 -70 -13 -7 7 -10 6 -10 -3 0 -11 -3 -11 -15 -1 -12
10 -15 10 -15 -3 0 -10 -6 -14 -15 -11 -8 4 -15 2 -15 -3 0 -10 -45 -11 -55
-1 -10 10 5 48 19 48 7 0 17 10 23 23 38 79 41 90 30 102 -7 7 -15 11 -19 9
-4 -2 -9 0 -13 5 -3 5 1 13 8 18 7 4 17 16 20 26 6 15 3 17 -16 12 -20 -5 -19
-4 4 11 15 9 35 31 44 47 l18 31 23 -112 c13 -61 30 -125 39 -141z m-1935 199
c0 -5 -7 -7 -15 -4 -8 4 -15 1 -15 -5 0 -7 25 -11 70 -11 68 0 70 -1 70 -25 0
-16 6 -25 15 -25 10 0 15 -11 15 -35 l0 -35 -95 0 -95 0 0 75 c0 73 1 75 25
75 14 0 25 -4 25 -10z m1719 -36 c-11 -13 -11 -18 -1 -21 18 -7 17 -123 -2
-123 -25 0 -27 -16 -6 -43 15 -19 20 -40 20 -84 l-1 -58 -17 28 c-17 27 -32
35 -32 18 0 -6 5 -13 10 -16 12 -8 13 -35 1 -35 -5 0 -11 9 -14 21 -3 12 -10
18 -17 14 -8 -5 -8 -11 -1 -19 6 -7 8 -16 4 -20 -4 -4 -16 3 -26 16 l-18 23 6
-25 c6 -25 6 -24 -19 5 -14 16 -28 26 -32 22 -4 -4 1 -16 11 -27 10 -11 15
-23 11 -27 -3 -4 -13 3 -22 15 -8 12 -20 22 -27 22 -8 0 -8 -3 1 -12 7 -7 12
-19 12 -28 -1 -12 -2 -12 -11 3 -13 22 -31 23 -22 1 5 -14 3 -15 -16 -4 -16 8
-26 8 -35 1 -14 -12 -46 -5 -46 9 0 12 22 25 75 45 28 10 67 35 88 55 31 31
37 45 37 79 0 25 5 41 12 41 6 0 3 7 -8 15 -18 14 -18 14 4 15 14 0 21 4 17
11 -4 6 -13 8 -21 5 -8 -3 -14 -1 -14 4 0 6 12 10 26 10 14 0 23 4 20 9 -3 5
-15 7 -26 4 -11 -3 -20 0 -20 6 0 6 10 11 23 11 13 0 34 13 50 31 28 32 52 34
26 3z m-109 -119 c0 -12 -16 -15 -87 -15 -49 0 -250 -3 -448 -7 -334 -6 -359
-5 -346 10 12 15 48 17 305 20 160 1 355 3 434 5 121 2 142 0 142 -13z m503
-43 c3 -9 5 -143 6 -298 l2 -281 -263 -6 c-145 -4 -633 -10 -1086 -13 l-823
-7 2 301 2 302 122 0 122 0 6 -37 c5 -26 2 -40 -7 -45 -7 -4 -23 -16 -36 -26
-23 -19 -23 -20 -7 -45 13 -20 27 -26 76 -32 44 -5 68 -3 89 8 33 16 86 11
119 -10 26 -18 170 -20 186 -4 7 7 5 16 -6 29 -21 23 -13 32 27 32 48 0 54 9
51 73 -3 48 -1 57 13 57 9 0 216 3 460 7 l442 6 0 -30 c0 -41 -47 -82 -127
-111 -94 -34 -106 -62 -35 -81 43 -11 131 -7 194 9 24 6 60 16 81 21 29 8 37
15 37 32 0 19 11 25 74 45 41 12 83 22 94 22 32 0 48 27 35 60 -12 33 -11 34
89 37 46 2 58 -1 61 -15z"/>
</g>
</svg>
