<?xml version="1.0" standalone="no"?>
<!DOCTYPE svg PUBLIC "-//W3C//DTD SVG 20010904//EN"
 "http://www.w3.org/TR/2001/REC-SVG-20010904/DTD/svg10.dtd">
<svg version="1.0" xmlns="http://www.w3.org/2000/svg"
 width="233.000000pt" height="400.000000pt" viewBox="0 0 233.000000 400.000000"
 preserveAspectRatio="xMidYMid meet">
<metadata>
Created by potrace 1.15, written by Peter Selinger 2001-2017
</metadata>
<g transform="translate(0.000000,400.000000) scale(0.100000,-0.100000)"
fill="#000000" stroke="none">
<path d="M403 3962 l-373 -2 0 -123 c-1 -260 1 -2241 3 -3004 l2 -803 105 -1
c58 -1 141 -1 185 -1 44 0 489 4 990 8 654 5 912 10 918 18 5 6 6 565 3 1241
-3 677 -6 1555 -6 1952 l0 722 -727 -2 c-401 -1 -896 -3 -1100 -5z m1805 -190
l2 -173 -32 -32 c-18 -18 -69 -85 -113 -150 -44 -66 -94 -137 -111 -160 -17
-23 -85 -118 -152 -212 -176 -246 -369 -511 -428 -586 -28 -36 -56 -75 -63
-86 l-11 -22 -29 27 c-24 22 -31 38 -37 89 -4 37 -3 68 3 75 12 16 -2 85 -22
112 -11 15 -30 19 -96 22 -144 5 -161 -14 -165 -179 -2 -98 -5 -113 -22 -125
-17 -11 -22 -10 -42 15 -30 38 -168 236 -243 347 -33 50 -63 93 -67 96 -3 3
-22 30 -43 60 -20 30 -54 80 -75 110 -21 30 -108 157 -194 281 -86 124 -170
240 -187 258 l-31 33 0 182 c0 101 3 185 6 188 3 4 488 6 1077 5 l1072 -2 3
-173z m-10 -220 c-1 -4 -75 -112 -163 -240 -88 -128 -164 -241 -170 -250 -5
-9 -28 -42 -51 -72 -22 -30 -63 -87 -90 -125 -336 -482 -330 -473 -345 -458
-10 10 -7 20 17 50 16 21 37 49 46 63 10 14 49 68 88 120 39 52 104 142 145
200 41 58 145 202 231 320 85 118 183 257 216 308 34 50 66 92 71 92 5 0 7 -4
5 -8z m-2011 -187 c47 -71 128 -188 178 -260 51 -71 127 -182 170 -245 44 -63
97 -140 118 -170 43 -61 170 -248 180 -267 4 -6 3 -14 -2 -18 -5 -3 -32 28
-59 68 -27 40 -65 96 -84 123 -142 203 -213 307 -343 499 -82 121 -181 268
-222 327 -40 59 -73 113 -73 120 1 19 38 -29 137 -177z m2016 148 c-6 -16
-412 -631 -570 -863 -35 -52 -92 -136 -126 -187 -58 -86 -76 -102 -84 -76 -2
5 34 63 79 127 241 339 295 417 544 784 87 127 159 232 160 232 2 0 0 -8 -3
-17z m-2036 -185 c120 -181 385 -572 484 -716 104 -150 123 -182 112 -193 -6
-6 -29 21 -64 76 -30 47 -129 199 -220 338 -183 277 -411 625 -423 645 -4 6
-5 12 -2 12 3 0 54 -73 113 -162z m2042 -556 l2 -699 -33 -1 c-38 -2 -85 11
-146 40 -40 19 -49 20 -97 8 -29 -7 -68 -10 -86 -6 -19 3 -68 0 -111 -7 -69
-13 -80 -12 -125 5 -26 10 -58 18 -70 18 -37 0 -93 -32 -93 -53 0 -38 41 -53
85 -31 19 10 48 11 70 3 6 -2 11 1 13 6 1 6 -2 10 -8 10 -5 0 -9 5 -8 10 2 6
7 8 13 6 5 -2 35 -5 65 -6 30 -1 87 -6 125 -10 40 -4 66 -4 62 1 -10 10 -14
11 -64 13 -57 2 -31 13 29 12 29 0 77 5 106 11 48 10 56 9 90 -10 21 -12 71
-27 110 -33 48 -8 72 -16 72 -25 0 -15 10 -15 -507 -18 l-293 -1 0 32 c0 25 4
31 15 27 8 -4 15 -1 15 5 0 6 -7 11 -15 11 -8 0 -15 6 -15 13 0 6 -3 22 -6 34
-5 18 -3 21 14 16 14 -3 26 4 41 25 11 17 21 34 21 39 0 4 -16 22 -35 38 l-36
30 66 95 c37 52 103 151 148 220 45 69 150 229 234 355 84 127 159 239 166
250 59 88 179 265 181 265 1 0 3 -314 5 -698z m-2134 648 c8 -16 73 -117 143
-224 70 -107 161 -248 202 -312 41 -64 135 -207 208 -318 72 -110 132 -207
132 -215 0 -8 11 -29 25 -47 l25 -32 -39 -35 c-54 -48 -56 -55 -30 -83 28 -30
36 -30 67 -1 23 20 25 20 17 2 -4 -11 -10 -34 -13 -52 -5 -37 -23 -44 -91 -36
-44 5 -105 -3 -212 -29 -31 -7 -51 -8 -64 -1 -12 7 -31 6 -64 -4 -25 -8 -110
-17 -188 -21 l-143 -7 0 723 c0 397 2 722 5 722 2 0 11 -13 20 -30z m1115
-964 c0 -30 -23 -90 -40 -103 -22 -18 -68 -16 -89 5 -20 19 -51 78 -51 98 0
14 32 19 123 19 50 0 57 -2 57 -19z m8 -173 l26 -22 -29 -31 c-27 -28 -35 -31
-80 -28 -64 4 -107 37 -87 68 6 11 12 31 12 45 0 25 14 33 25 15 10 -16 71
-12 86 7 13 15 14 14 17 -8 2 -13 15 -34 30 -46z m190 -237 c4 -97 2 -114 -19
-157 -26 -56 -51 -63 -90 -26 -25 23 -33 27 -48 27 -5 0 -11 9 -14 20 -4 16
-11 19 -36 14 -26 -6 -32 -3 -43 22 -10 22 -10 28 0 32 16 5 16 29 0 36 -7 3
-4 4 7 1 14 -3 26 4 39 24 l20 29 43 -21 c28 -14 46 -31 54 -51 9 -24 13 -27
16 -13 3 9 9 17 14 17 5 0 -1 18 -13 40 -23 39 -41 50 -53 30 -7 -11 -25 -4
-25 9 0 5 13 14 28 20 17 7 40 32 57 62 l29 49 15 -27 c10 -18 17 -66 19 -137z
m-497 93 c18 -17 44 -35 58 -41 l24 -9 -33 -17 c-19 -9 -36 -23 -38 -31 -3 -9
6 -7 27 8 17 12 36 21 42 19 5 -2 -10 -18 -35 -35 -32 -23 -46 -40 -46 -55 0
-17 3 -19 9 -10 6 10 10 8 16 -10 7 -21 9 -19 12 13 2 21 13 45 25 55 20 19
21 19 14 -3 -6 -19 -3 -23 13 -23 13 0 21 8 23 23 2 14 9 21 21 21 16 -2 21 7
18 34 -3 17 10 15 25 -5 12 -16 13 -15 14 10 0 36 15 35 29 -3 7 -23 16 -30
35 -30 15 0 26 -4 26 -10 0 -5 -13 -10 -28 -10 -37 0 -56 -18 -40 -38 10 -11
1 -24 -47 -68 -32 -30 -60 -54 -63 -54 -2 0 -17 -11 -34 -25 -46 -39 -75 -30
-107 32 -18 35 -25 227 -9 263 7 16 14 30 14 30 1 0 17 -14 35 -31z m-81 -116
l0 -22 -217 -1 c-146 0 -220 -3 -227 -11 -8 -8 50 -10 217 -8 l229 4 3 -46 c2
-44 15 -75 44 -111 12 -16 12 -18 -4 -18 -15 0 -16 -3 -7 -12 8 -8 15 -9 23
-1 5 5 21 8 35 5 21 -4 24 -10 24 -48 0 -23 -4 -46 -10 -49 -5 -3 -10 -24 -10
-45 0 -61 -18 -90 -54 -90 -17 0 -26 -4 -20 -8 15 -9 12 -60 -4 -88 -6 -12 -9
-24 -6 -27 3 -3 -4 -15 -15 -26 -15 -15 -21 -34 -21 -66 0 -27 -5 -47 -14 -52
-8 -4 -39 -31 -68 -59 -50 -46 -55 -54 -55 -94 0 -24 -5 -46 -11 -48 -7 -2
-12 4 -12 13 0 13 -6 16 -25 13 -13 -3 -26 -1 -27 3 -2 5 -48 9 -104 10 -63 1
-109 6 -125 15 -22 12 -17 13 54 14 44 0 77 4 77 10 0 6 20 10 45 10 25 0 45
5 45 10 0 6 -20 10 -44 10 -24 0 -52 3 -62 7 -16 6 -16 7 2 14 17 7 17 8 -3 8
-13 1 -23 -4 -23 -10 0 -17 -231 -1 -245 16 -5 8 -21 16 -35 18 -14 2 -4 5 23
6 26 0 47 -3 47 -9 0 -6 38 -10 95 -10 57 0 95 4 95 10 0 6 -24 10 -54 10 -52
0 -108 19 -107 36 1 5 -5 9 -11 9 -7 0 -12 -6 -10 -13 1 -8 -12 -12 -40 -11
-43 0 -41 4 17 25 33 12 205 15 205 4 0 -13 147 -13 155 0 4 6 -14 10 -47 10
-30 0 -60 6 -66 12 -10 10 -15 10 -22 -2 -7 -10 -12 -12 -17 -4 -5 7 -65 14
-147 18 -77 3 -142 10 -145 14 -13 18 -40 21 -44 4 -4 -13 -5 -12 -6 4 0 12
-7 27 -15 33 -23 19 -16 51 11 51 13 0 23 5 23 11 0 6 -9 9 -20 6 -11 -3 -23
-1 -26 4 -9 16 42 28 103 24 l58 -4 -45 10 c-25 5 -62 8 -82 5 -34 -4 -38 -2
-38 19 0 21 3 22 45 17 29 -3 45 -1 45 6 0 6 -19 12 -42 14 -53 4 -61 31 -10
36 19 2 32 -1 32 -8 0 -7 -8 -9 -20 -5 -11 4 -20 2 -20 -4 0 -8 61 -11 185
-11 107 0 185 4 185 9 0 5 -8 11 -17 14 -10 2 10 6 45 8 69 4 86 -7 20 -14
-24 -2 9 -4 72 -4 63 0 124 4 135 8 17 7 17 8 3 8 -10 1 -18 6 -18 11 0 6 24
10 53 10 55 0 97 8 97 19 0 3 -15 12 -32 20 -18 8 -44 25 -57 38 -20 20 -30
22 -65 17 -63 -10 -109 -9 -114 4 -2 7 -12 12 -22 12 -9 0 -44 16 -75 35 -87
52 -118 55 -187 17 -32 -18 -71 -32 -90 -32 -19 0 -51 -9 -73 -20 -22 -11 -48
-20 -60 -20 -20 1 -20 1 -1 15 15 11 16 15 5 15 -9 0 -16 11 -17 29 -2 27 0
29 50 37 l53 8 -52 4 c-83 5 -62 22 27 22 50 0 80 4 80 11 0 6 -12 10 -28 9
-15 -1 -51 -2 -79 -1 -46 1 -53 4 -53 21 0 18 6 20 86 19 47 0 88 2 91 5 5 5
-78 10 -159 9 -11 0 -18 8 -18 19 0 14 8 18 36 18 22 0 33 4 29 11 -4 6 -19 7
-36 4 -19 -4 -29 -3 -29 5 0 9 39 10 150 5 104 -4 150 -3 150 4 0 6 -12 12
-27 12 -44 2 62 19 147 24 41 2 95 6 120 9 29 3 47 1 52 -7 5 -8 8 -7 8 4 0
14 12 16 80 15 76 -1 80 -2 80 -23z m1400 -200 c2 -98 4 -232 5 -298 2 -66 1
-164 -2 -217 l-5 -96 -33 5 c-28 5 -33 2 -39 -21 -4 -18 -14 -26 -29 -28 -12
0 -38 -2 -57 -4 -19 -2 -53 -3 -75 -3 -43 0 -40 -16 5 -24 18 -3 15 -5 -12 -6
-61 -2 -44 -21 18 -21 49 0 55 -2 44 -15 -11 -13 -8 -15 16 -16 54 -1 76 -6
83 -17 3 -6 24 -12 46 -14 27 -2 40 -8 40 -18 0 -23 -41 -24 -64 -1 -30 30
-75 27 -106 -8 -20 -22 -34 -28 -60 -26 -19 1 -35 -2 -35 -7 0 -4 -32 -8 -71
-8 -51 0 -68 -3 -63 -12 5 -7 2 -9 -9 -5 -30 11 -202 10 -200 -2 2 -6 -1 -11
-6 -11 -11 0 -12 72 -2 88 3 5 17 12 31 15 24 4 24 4 -4 6 -27 1 -28 2 -14 24
36 54 29 112 -21 175 -14 19 -34 46 -43 60 -11 17 -30 29 -50 32 -31 5 -33 7
-31 44 3 38 -30 116 -49 116 -4 0 -8 9 -8 19 0 11 -4 22 -9 25 -4 3 -11 24
-15 46 -6 37 -22 77 -37 90 -3 3 -11 31 -18 63 -9 39 -17 57 -28 57 -11 0 -13
-3 -5 -12 6 -7 13 -30 17 -51 6 -32 4 -41 -14 -53 -11 -8 -21 -22 -21 -31 0
-11 5 -9 18 7 20 24 48 19 38 -6 -3 -8 1 -14 8 -14 8 0 16 -10 20 -22 9 -35 7
-40 -11 -34 -23 7 -48 -8 -38 -24 6 -9 9 -9 15 1 6 9 12 9 24 -4 9 -8 16 -18
16 -22 0 -3 11 -16 25 -29 31 -29 32 -41 3 -25 -37 20 -113 4 -157 -33 -51
-43 -44 -49 11 -9 55 41 131 44 170 8 22 -20 25 -32 25 -88 0 -61 0 -62 -10
-26 -13 53 -92 100 -112 68 -3 -5 8 -9 25 -9 17 1 37 -5 45 -13 30 -31 51
-104 54 -189 2 -85 33 -311 52 -383 6 -22 9 -40 7 -40 -2 -1 -13 -8 -25 -15
-14 -7 -23 -8 -23 -2 0 5 5 10 10 10 6 0 10 5 10 11 0 5 -5 7 -10 4 -5 -3 -10
-1 -10 4 0 6 5 11 11 11 5 0 7 5 4 10 -4 6 -11 7 -17 4 -7 -5 -8 -2 -2 7 15
24 13 39 -4 39 -15 0 -17 -12 -17 -82 l0 -83 -40 -6 c-104 -17 -167 -30 -190
-39 -33 -13 -104 -3 -135 19 -39 28 -64 33 -86 16 -47 -36 -62 -15 -84 120
-11 65 -26 184 -35 264 -8 80 -20 148 -25 151 -6 4 -13 22 -15 41 -2 19 -7 57
-11 85 -5 44 -4 53 13 65 12 8 20 25 19 39 -1 20 8 30 44 48 l45 23 -37 -5
c-22 -3 -38 0 -38 5 0 17 52 59 74 61 33 2 40 1 64 -6 22 -7 23 -6 13 13 -8
14 -21 21 -41 21 -25 0 -30 4 -30 24 0 14 -5 28 -10 31 -6 4 -8 11 -4 16 7 12
124 -69 124 -86 0 -13 29 -29 38 -21 6 7 -77 84 -109 101 -32 17 -41 55 -27
113 8 34 18 46 49 64 22 12 47 33 56 47 15 24 17 24 24 6 4 -11 8 -37 8 -57 1
-21 5 -38 10 -38 9 0 4 99 -5 109 -2 2 1 10 7 17 9 11 14 10 28 -6 9 -10 49
-35 89 -56 39 -20 72 -41 72 -46 0 -5 15 -8 33 -6 28 3 35 10 59 58 15 30 28
67 28 82 0 25 4 27 48 30 26 2 205 5 399 6 l351 2 2 -177z m-1404 -911 c-6
-150 -5 -159 14 -180 12 -12 19 -22 18 -23 -2 0 -23 -3 -47 -5 -56 -7 -62 3
-60 87 1 36 0 70 -3 75 -10 18 -19 134 -12 169 6 34 8 35 52 35 l45 0 -7 -158z
m769 -4 c0 -77 3 -142 8 -145 4 -2 7 11 7 30 0 34 1 35 44 38 25 2 166 4 313
4 249 0 268 -1 267 -17 0 -10 -1 -179 -2 -375 -1 -197 -6 -363 -10 -370 -5 -8
-236 -13 -892 -18 -487 -4 -967 -7 -1068 -8 l-183 -2 -3 386 -2 387 125 6 c69
3 216 5 326 3 l200 -2 3 -67 3 -68 42 -1 c81 -1 142 -10 152 -23 6 -7 17 -15
25 -18 10 -3 6 -9 -15 -19 -16 -8 -31 -22 -33 -32 -3 -14 4 -17 47 -17 28 0
74 9 102 20 37 15 71 20 118 19 36 -2 93 1 126 5 52 7 68 5 107 -13 53 -24
116 -28 124 -8 3 8 -9 29 -26 47 -41 44 -40 45 63 48 40 2 47 5 47 22 0 11 -4
20 -10 20 -5 0 -10 -7 -10 -15 0 -12 -13 -15 -55 -15 -54 0 -73 13 -36 25 10
3 25 13 34 23 14 15 14 23 2 69 -13 51 -18 100 -16 180 1 43 13 53 56 45 19
-3 20 -11 20 -144z m640 -38 c0 -13 -20 -15 -120 -14 -66 0 -204 2 -307 2
-104 1 -188 6 -188 11 0 5 100 9 222 10 121 0 224 3 227 6 3 3 41 4 86 3 63
-2 80 -6 80 -18z m-1515 -8 c0 -11 -232 -22 -467 -22 -162 0 -196 4 -178 21 8
9 645 9 645 1z"/>
<path d="M990 3882 c-6 -2 -10 -8 -10 -14 0 -6 7 -8 15 -4 29 11 45 -5 45 -44
0 -35 -3 -39 -27 -42 -16 -2 -27 -7 -26 -13 4 -15 215 -13 220 3 3 7 -5 12
-21 12 -22 0 -26 4 -26 30 0 17 0 33 0 38 0 4 11 8 25 10 41 5 29 22 -17 23
-138 4 -169 4 -178 1z"/>
<path d="M1544 3561 c-35 -21 -74 -67 -74 -87 0 -21 10 -17 32 11 38 49 133
27 153 -36 9 -26 -20 -68 -59 -87 -29 -15 -26 -32 5 -32 46 0 112 55 129 106
9 27 8 40 -6 69 -33 71 -114 96 -180 56z"/>
<path d="M1732 1900 c-12 -5 -25 -18 -29 -27 -12 -34 -36 -53 -68 -53 -18 0
-49 -7 -68 -15 -20 -8 -64 -15 -97 -15 -38 0 -59 -4 -55 -10 3 -5 28 -10 55
-10 27 0 52 -4 55 -10 9 -14 43 -12 48 3 3 9 73 12 315 10 176 -1 312 2 312 7
0 4 -21 16 -47 26 -27 10 -53 25 -59 33 -11 15 -43 16 -124 6 -36 -4 -50 -1
-70 15 l-25 20 35 1 c32 1 33 2 10 8 -14 4 -29 4 -35 0 -12 -9 -51 -5 -88 10
-33 13 -35 13 -65 1z"/>
<path d="M2078 469 c-10 -5 -18 -16 -18 -23 0 -8 -12 -17 -26 -20 -30 -8 -27
-30 4 -34 32 -5 27 -18 -8 -25 -31 -7 -42 -27 -15 -27 8 0 15 -4 15 -10 0 -5
7 -10 15 -10 12 0 15 -13 15 -59 0 -81 18 -88 22 -9 l3 63 55 5 c55 5 75 22
32 28 -12 2 -20 8 -17 13 4 5 -12 9 -34 9 -23 0 -41 5 -41 10 0 6 23 10 52 10
l52 0 -22 20 c-12 11 -25 20 -29 19 -27 -4 -53 3 -53 15 0 14 21 26 46 26 25
0 15 -19 -13 -23 l-28 -4 30 -1 c36 -2 60 11 51 27 -9 14 -65 14 -88 0z"/>
</g>
</svg>
