<?xml version="1.0" standalone="no"?>
<!DOCTYPE svg PUBLIC "-//W3C//DTD SVG 20010904//EN"
 "http://www.w3.org/TR/2001/REC-SVG-20010904/DTD/svg10.dtd">
<svg version="1.0" xmlns="http://www.w3.org/2000/svg"
 width="233.000000pt" height="400.000000pt" viewBox="0 0 233.000000 400.000000"
 preserveAspectRatio="xMidYMid meet">
<metadata>
Created by potrace 1.15, written by Peter Selinger 2001-2017
</metadata>
<g transform="translate(0.000000,400.000000) scale(0.100000,-0.100000)"
fill="#000000" stroke="none">
<path d="M678 3962 c-63 -2 -98 -7 -98 -14 0 -6 -8 -17 -17 -25 -12 -10 -9
-10 10 1 15 9 27 12 27 7 0 -6 -20 -22 -45 -37 -25 -14 -43 -30 -40 -34 7 -11
66 28 99 66 14 16 26 24 26 18 0 -18 -39 -62 -61 -69 -12 -4 -18 -13 -15 -21
3 -7 -3 -18 -12 -24 -12 -8 -13 -10 -2 -7 8 2 19 13 24 24 6 12 22 28 38 38
15 9 31 27 34 41 3 13 10 24 15 24 15 0 10 -20 -13 -53 -13 -18 -21 -34 -19
-36 3 -3 -11 -20 -30 -40 -19 -19 -26 -29 -16 -22 35 27 18 -20 -22 -60 -21
-21 -35 -41 -32 -44 3 -4 -5 -15 -19 -25 -27 -21 -15 -26 23 -9 17 8 23 18 21
35 -1 13 5 30 14 37 20 14 72 92 72 107 0 5 4 10 10 10 10 0 3 -27 -12 -46 -4
-6 -5 -19 -2 -28 4 -10 2 -16 -4 -14 -12 3 -66 -72 -57 -80 10 -10 69 60 70
84 1 13 12 38 26 55 13 17 29 45 36 63 12 28 12 29 -2 12 -9 -12 -15 -15 -15
-7 0 11 -3 11 -15 1 -19 -16 -19 -7 0 30 18 34 30 40 22 10 -3 -11 -1 -18 4
-14 5 3 9 13 9 22 0 15 2 15 10 2 6 -10 10 -11 10 -2 0 31 144 -4 155 -38 32
-100 -45 -222 -130 -206 -24 5 -34 2 -39 -9 -3 -8 -12 -15 -21 -15 -27 0 -16
-20 14 -26 46 -9 66 -39 66 -95 0 -27 2 -49 5 -49 3 0 13 14 22 30 19 34 39
38 72 13 l22 -17 -19 -74 -19 -73 36 -73 c31 -63 36 -82 36 -145 0 -63 3 -77
25 -103 37 -44 43 -78 17 -99 -24 -19 -29 -44 -11 -55 7 -4 9 0 5 14 -8 23 10
40 26 24 8 -8 7 -16 -2 -27 -10 -12 -10 -15 4 -15 12 0 16 -9 16 -34 0 -27 -7
-39 -36 -61 -19 -15 -33 -29 -30 -32 2 -3 22 9 44 26 37 31 38 33 35 84 -4 50
-2 54 37 95 23 23 37 42 31 42 -6 0 -11 5 -11 10 0 19 21 10 29 -12 7 -17 4
-28 -10 -41 -24 -22 -28 -127 -5 -127 8 0 14 6 13 13 -1 43 2 47 26 23 12 -12
31 -28 42 -34 11 -6 16 -14 12 -18 -4 -5 -17 -3 -27 4 -11 7 -25 12 -32 12 -9
0 -8 -3 2 -10 18 -11 6 -25 -23 -26 -12 -1 -32 -2 -44 -3 -12 0 -34 -12 -50
-25 -16 -13 -67 -34 -118 -48 -73 -19 -103 -23 -160 -17 -38 3 -58 7 -42 7 34
2 35 13 1 29 -19 9 -32 9 -45 2 -11 -5 -19 -6 -19 -1 0 12 41 32 73 36 30 3
50 16 24 16 -9 0 -17 5 -17 10 0 6 8 10 17 10 13 0 14 3 5 12 -7 7 -12 25 -12
40 0 31 -20 37 -40 13 -19 -23 -63 -18 -89 9 -19 20 -21 28 -12 44 6 12 11 29
11 40 0 13 9 21 27 25 35 6 56 -2 49 -20 -5 -11 -2 -11 16 -2 l22 12 -22 8
c-24 9 -29 25 -9 32 6 3 3 6 -9 6 -18 1 -20 8 -21 75 -1 73 -17 146 -32 146
-5 0 -2 -23 5 -52 15 -57 19 -198 6 -183 -5 6 -14 39 -21 75 -7 36 -17 69 -22
74 -13 14 -11 -3 7 -74 8 -34 13 -64 10 -67 -3 -3 -8 8 -11 23 -4 16 -12 39
-18 52 -11 24 -74 68 -83 59 -3 -3 4 -11 16 -17 52 -28 60 -42 60 -107 0 -35
-4 -63 -10 -63 -5 0 -10 -5 -10 -11 0 -5 5 -7 10 -4 22 14 8 -36 -14 -50 -31
-21 -131 -32 -140 -16 -11 17 -36 13 -36 -7 0 -26 -28 -62 -59 -74 l-26 -10
26 -10 c42 -14 57 -105 19 -115 -29 -8 -25 -20 10 -26 114 -23 112 -237 -3
-299 -37 -19 -87 -27 -120 -17 -37 10 -42 7 -28 -19 13 -24 -9 -47 -56 -57
l-33 -7 35 -32 c39 -38 47 -85 20 -135 -15 -29 -66 -58 -84 -46 -7 4 -11 187
-10 564 l0 558 56 42 c42 31 65 41 94 41 21 0 41 -5 44 -10 4 -6 11 -8 16 -4
20 12 -14 34 -53 34 -45 0 -83 -17 -117 -54 -14 -14 -28 -26 -33 -26 -4 0 -8
56 -8 125 l0 125 25 6 c26 6 75 -17 75 -36 0 -6 5 -10 10 -10 17 0 11 18 -11
39 -13 12 -19 26 -16 35 5 12 0 16 -18 16 -34 0 -67 50 -63 97 4 51 22 52 53
3 17 -27 31 -40 41 -36 11 4 13 -1 8 -22 -6 -27 -6 -27 14 4 23 36 40 49 50
39 3 -3 0 -10 -8 -15 -8 -5 -12 -11 -10 -14 3 -2 20 9 39 26 l35 31 -28 -7
c-21 -5 -32 -2 -43 11 -14 17 -14 17 -9 -1 6 -19 -9 -46 -25 -46 -11 0 -12 27
-1 33 4 2 1 2 -6 1 -7 -2 -15 3 -18 11 -3 7 -12 11 -19 9 -11 -5 -65 53 -65
70 0 3 21 -9 48 -27 34 -24 53 -32 67 -27 11 4 28 3 39 -2 10 -5 27 -8 37 -5
12 3 23 -2 29 -14 6 -10 15 -19 20 -19 5 0 -6 25 -25 55 -20 30 -42 78 -49
107 -8 29 -15 45 -15 36 -1 -21 -31 -25 -31 -4 0 7 -6 19 -14 25 -11 9 -15 7
-19 -10 -5 -20 -6 -20 -33 -2 -16 10 -30 17 -31 15 -2 -1 -10 1 -19 6 -11 6
-14 22 -12 63 l3 54 134 3 c134 3 135 3 116 -17 -13 -16 -16 -31 -13 -64 3
-26 0 -50 -7 -60 -15 -21 -25 -22 -25 -3 0 17 -18 32 -50 40 l-25 6 25 -12
c33 -17 38 -24 51 -88 12 -59 34 -110 48 -110 5 0 -2 21 -15 47 -25 49 -31 83
-14 83 6 0 10 6 10 14 0 7 6 19 14 25 9 7 12 26 9 54 -6 72 8 80 145 88 88 4
51 6 -153 7 l-271 2 3 -1377 c2 -758 4 -1546 3 -1750 0 -272 3 -373 11 -373 9
0 10 77 5 291 -5 230 -3 290 7 287 6 -3 16 -14 22 -26 10 -23 25 -30 25 -12 0
6 -12 21 -26 33 -19 17 -27 35 -30 67 -5 42 -4 44 11 26 8 -11 12 -28 9 -38
-6 -19 27 -38 91 -52 l30 -6 -32 17 c-30 17 -82 73 -67 73 3 0 22 -9 40 -21
38 -23 40 -20 19 36 -15 39 -16 39 -12 7 2 -17 2 -32 0 -32 -13 0 -63 32 -63
40 0 6 -7 10 -15 10 -23 0 -21 156 3 183 14 17 14 19 1 15 -14 -5 -16 26 -16
298 -1 175 2 306 8 309 5 4 9 19 9 35 0 23 8 33 40 51 65 37 92 150 44 189
-13 11 -12 14 8 24 13 6 29 24 36 39 10 21 20 27 44 27 26 0 29 -2 18 -15 -17
-21 1 -61 32 -70 13 -4 26 -13 30 -19 6 -8 8 -8 8 1 0 6 -14 20 -30 30 -40 23
-37 55 5 64 17 4 24 7 16 8 -11 1 -11 4 -1 16 18 21 33 19 25 -4 -3 -11 -2
-22 3 -25 6 -3 12 5 14 19 3 14 1 25 -5 25 -6 0 0 11 13 25 21 23 24 23 36 7
7 -9 10 -19 8 -22 -3 -2 -9 2 -14 10 -6 9 -10 10 -10 3 0 -6 6 -18 13 -25 15
-14 12 -38 -5 -38 -6 0 -7 7 -4 16 4 10 1 14 -6 12 -7 -3 -13 -13 -13 -23 0
-12 -10 -22 -25 -26 -21 -6 -22 -7 -5 -9 11 -1 26 -2 32 -1 16 2 17 5 -7 -64
-11 -32 -20 -69 -20 -82 0 -12 -4 -23 -10 -23 -5 0 -10 6 -10 14 0 8 -4 17 -9
20 -5 4 -7 -11 -4 -32 5 -41 -7 -59 -45 -65 -12 -2 -25 -7 -29 -11 -14 -15 62
6 79 21 16 15 17 11 17 -56 l-1 -71 -21 32 c-12 17 -29 34 -37 36 -8 3 -3 -9
13 -25 15 -16 27 -38 27 -49 0 -35 -42 -64 -101 -71 -70 -8 -89 -18 -89 -48 0
-27 31 -49 58 -42 12 3 11 5 -5 6 -12 0 -27 10 -33 22 -15 28 3 49 44 49 51 0
104 19 124 45 l19 24 11 -57 c7 -31 15 -70 18 -85 l7 -29 -31 16 c-19 10 -52
15 -84 14 l-53 -1 63 -6 c53 -5 68 -11 88 -34 30 -35 30 -60 2 -87 -12 -11
-16 -20 -9 -20 6 0 22 11 34 24 l23 24 14 -31 c24 -56 89 -145 148 -203 57
-56 162 -135 194 -147 27 -10 -55 -88 -115 -111 -83 -31 -47 -41 151 -41 l177
0 68 -32 c38 -18 107 -49 155 -68 48 -20 110 -47 137 -61 28 -13 56 -24 62
-24 41 0 255 175 363 295 52 58 108 115 125 127 16 11 53 50 81 87 50 65 51
68 63 166 7 55 15 114 18 132 5 32 5 32 35 17 16 -8 38 -24 49 -35 15 -15 24
-17 39 -9 25 13 25 38 1 115 -10 33 -21 83 -24 111 -3 29 -10 61 -16 72 -14
27 -36 96 -52 162 l-12 55 -13 -30 c-9 -20 -11 -50 -7 -87 5 -54 4 -58 -15
-58 -12 0 -23 -4 -27 -10 -3 -5 7 -8 25 -7 32 2 44 18 41 57 -1 14 8 0 18 -30
24 -65 24 -63 11 -55 -6 4 -10 -8 -10 -30 0 -28 4 -35 17 -33 12 2 19 -10 28
-52 7 -30 20 -78 28 -106 13 -47 13 -51 -2 -50 -9 0 -27 13 -41 27 -14 15 -38
34 -53 44 -15 10 -26 24 -23 31 3 8 0 11 -10 7 -8 -3 -14 1 -14 9 0 8 -9 23
-20 33 -20 18 -20 18 -9 -16 7 -19 18 -42 26 -51 9 -10 12 -22 7 -29 -4 -8 -7
-29 -5 -49 l2 -35 -21 23 c-38 41 -98 21 -136 -44 -12 -22 -27 -38 -34 -36 -6
1 -9 -2 -5 -8 3 -5 -10 -27 -31 -48 -34 -35 -35 -35 -15 -5 11 17 21 36 21 42
0 19 37 71 45 63 5 -4 5 -1 1 6 -10 16 30 62 54 62 9 0 24 17 34 40 17 40 17
96 0 193 -5 27 -3 37 6 37 12 0 10 27 -5 75 l-7 20 13 -20 c7 -11 15 -35 18
-54 4 -19 12 -36 18 -38 18 -6 7 48 -25 120 -17 40 -28 54 -34 45 -4 -7 -7
-89 -6 -183 2 -179 -1 -197 -45 -225 -18 -11 -19 -10 -12 7 12 29 27 223 21
279 -7 67 -48 190 -91 276 -41 81 -41 82 -16 68 33 -17 133 -12 175 10 l39 19
29 -24 c16 -14 36 -26 44 -26 8 -1 20 -2 27 -3 6 0 13 -14 15 -29 2 -19 13
-34 33 -45 18 -11 29 -25 29 -40 0 -14 8 -26 24 -32 l24 -9 6 -553 c14 -1128
13 -1167 -7 -1156 -10 5 -23 7 -30 4 -7 -2 -4 -5 6 -5 9 -1 17 -5 17 -10 0 -5
-8 -12 -17 -15 -10 -3 -6 -4 9 -2 31 3 38 -12 38 -90 l0 -51 -342 -8 c-380 -9
-654 -12 -1011 -14 -131 -1 -236 -5 -233 -9 5 -9 72 -9 944 3 l642 8 0 -135 0
-136 -272 -6 c-150 -3 -633 -11 -1073 -17 -440 -6 -802 -13 -804 -15 -11 -10
2008 11 2108 22 l53 6 -6 931 c-4 513 -8 1388 -9 1944 -1 727 -5 1013 -13
1013 -7 0 -10 -22 -8 -62 2 -35 1 -140 -3 -234 -6 -171 -6 -171 -26 -151 -16
16 -29 19 -77 14 -31 -2 -71 -12 -88 -21 -37 -19 -66 -69 -59 -103 3 -15 -1
-27 -12 -33 -20 -10 -51 5 -51 25 0 17 -12 19 -26 5 -7 -7 -17 -3 -32 10 -11
11 -25 20 -29 20 -5 0 -6 -33 -2 -72 4 -40 4 -79 2 -85 -3 -7 0 -13 7 -13 9 0
11 19 8 70 -3 65 2 84 17 60 3 -5 14 -10 23 -10 23 -1 65 -37 57 -50 -3 -5 -1
-10 4 -10 6 0 11 4 11 10 0 5 7 7 15 3 10 -3 15 0 13 8 -2 8 4 13 15 13 15 -2
17 4 11 45 -5 41 -3 49 21 73 15 15 44 30 64 34 65 11 80 8 110 -16 l23 -20 6
-601 c4 -475 2 -600 -8 -594 -6 4 -10 18 -7 31 3 18 0 24 -13 24 -19 0 -60 36
-60 53 0 7 7 23 16 35 12 18 12 22 2 22 -8 0 -19 -5 -25 -11 -14 -14 -67 -3
-86 19 -23 27 -29 74 -13 105 8 15 10 27 5 27 -6 0 -21 -25 -34 -55 -31 -69
-61 -89 -136 -90 -51 0 -61 4 -89 30 -17 16 -33 40 -36 52 -4 13 -13 23 -21
23 -10 0 -12 -6 -8 -20 9 -30 -1 -25 -42 20 -20 23 -63 60 -96 83 l-59 41 33
9 c44 11 69 41 69 84 0 46 -48 95 -112 113 -31 10 -48 20 -48 30 0 25 -86 135
-117 149 -26 13 -27 14 -8 21 35 13 48 37 42 75 -6 35 -45 101 -54 91 -3 -3 4
-17 15 -31 11 -14 24 -40 28 -57 5 -26 2 -35 -16 -50 -29 -24 -42 -23 -86 7
-46 31 -62 31 -95 1 -20 -18 -29 -22 -38 -13 -8 8 -15 6 -27 -9 -15 -18 -15
-18 -10 11 6 29 6 29 -10 10 -16 -20 -16 -19 -9 5 4 13 14 30 21 37 7 8 11 20
8 27 -3 8 0 17 7 22 9 5 10 2 6 -9 -3 -10 -2 -17 4 -17 5 0 14 11 19 24 5 13
14 27 20 31 9 6 9 2 1 -14 -7 -11 -8 -21 -3 -21 4 0 16 15 25 33 10 17 42 72
72 122 55 88 65 112 44 99 -13 -8 17 52 42 85 12 14 19 18 19 10 1 -10 4 -8
11 4 5 9 8 21 5 25 -3 5 1 9 9 9 15 0 -3 -43 -50 -117 -12 -19 -49 -87 -83
-151 l-62 -116 33 0 c17 0 24 2 15 4 -25 6 -21 24 18 82 2 2 10 -4 19 -13 27
-26 40 -18 15 9 l-24 25 27 53 c15 28 37 70 49 92 120 209 146 269 124 282 -7
5 -23 23 -36 41 -13 17 -30 32 -37 32 -7 0 -13 7 -13 16 0 11 5 14 18 9 9 -3
21 -7 25 -8 11 -3 24 21 32 55 8 42 68 77 118 68 21 -4 48 -17 61 -29 27 -26
41 -26 58 -3 29 38 45 44 81 31 29 -10 38 -10 58 4 23 16 21 17 -56 17 -44 0
-189 3 -322 6 -187 5 -243 3 -243 -6 0 -9 23 -11 83 -10 45 2 110 2 145 1 l63
-1 -35 -34 c-20 -18 -36 -43 -36 -55 0 -14 -6 -21 -20 -21 -10 0 -30 -5 -44
-11 -20 -10 -34 -9 -69 5 -23 9 -52 16 -62 15 -13 -1 -7 -5 15 -13 19 -6 49
-19 67 -29 18 -9 41 -17 52 -17 20 0 71 -56 71 -78 0 -24 -74 -6 -92 22 -4 6
-10 7 -14 3 -11 -10 11 -30 46 -42 30 -10 41 -31 16 -29 -8 1 -12 -6 -9 -16 3
-10 0 -21 -6 -24 -6 -4 -11 0 -11 8 0 8 -18 34 -39 58 -34 36 -41 40 -47 25
-4 -11 -17 -17 -38 -17 -45 0 -92 -33 -107 -74 -7 -20 -18 -36 -24 -37 -5 0
-26 -1 -45 -2 -25 -2 -34 -6 -32 -17 15 -62 14 -80 -2 -80 -12 0 -16 10 -16
43 0 37 -4 46 -25 55 -23 11 -29 9 -52 -14 -18 -18 -28 -22 -33 -14 -4 7 -24
12 -43 13 -29 1 -38 6 -47 27 -6 14 -24 34 -41 44 -36 21 -29 36 18 36 47 0
99 40 124 94 24 52 24 92 0 139 l-19 37 74 0 c45 0 74 4 74 11 0 10 -51 10
-352 1z m-604 -172 c3 -16 11 -30 17 -30 8 0 8 4 -1 15 -16 20 -11 25 16 15
13 -5 27 -24 34 -44 10 -32 13 -34 27 -20 8 8 12 18 9 22 -4 3 -11 0 -15 -7
-6 -9 -9 -4 -8 14 0 19 3 23 10 16 6 -6 21 -11 34 -11 24 0 34 -29 11 -31 -10
0 -10 -2 0 -6 20 -8 14 -26 -8 -20 -12 3 -20 0 -20 -7 0 -8 10 -11 29 -8 22 3
32 -1 40 -17 10 -18 9 -21 -9 -21 -12 0 -18 4 -15 10 4 6 -6 7 -25 4 -23 -5
-30 -3 -30 9 0 9 -5 19 -10 22 -7 4 -8 -3 -4 -20 6 -26 6 -27 -17 -15 -35 18
-89 72 -89 88 0 12 3 12 18 1 16 -13 16 -13 0 7 -19 21 -25 64 -9 64 5 0 11
-13 15 -30z m1254 -141 l24 -45 -56 -93 c-31 -52 -56 -96 -56 -99 0 -2 8 2 17
9 14 11 13 7 -3 -21 -70 -118 -96 -160 -100 -160 -6 0 -8 -5 44 85 l42 70 -26
60 c-14 33 -32 77 -41 98 -9 20 -20 37 -25 37 -14 0 -9 43 9 62 20 23 88 25
97 3 9 -25 29 -18 22 9 -6 24 1 39 17 33 6 -2 21 -23 35 -48z m-255 -176 c-7
-2 -13 -18 -13 -34 0 -16 -5 -29 -11 -29 -6 0 -9 -7 -6 -14 4 -10 1 -13 -9 -9
-7 3 -14 1 -14 -5 0 -13 27 -23 45 -16 10 4 13 14 9 30 -7 25 12 58 27 48 5
-3 9 0 9 7 0 7 3 10 6 7 10 -11 -16 -85 -37 -103 -16 -16 -24 -17 -39 -7 -29
18 -35 15 -16 -7 14 -15 23 -18 41 -11 20 8 23 5 27 -18 2 -15 -2 -49 -10 -76
-13 -47 -14 -48 -32 -30 -23 25 -50 97 -50 133 0 16 -7 42 -15 57 -8 16 -15
40 -15 54 l0 24 16 -22 c20 -29 32 -28 40 3 5 19 12 25 33 24 14 0 20 -3 14
-6z m167 -383 c14 -11 28 -20 31 -20 13 0 98 -86 128 -129 34 -48 40 -85 16
-95 -12 -4 -14 -19 -13 -64 l3 -58 62 -2 c53 -2 63 0 73 18 17 31 -12 77 -60
96 -22 9 -40 20 -40 25 0 12 8 11 52 -4 60 -21 88 -53 88 -103 0 -62 -43 -85
-112 -57 -21 8 -41 13 -44 10 -4 -3 -31 5 -61 19 -31 13 -62 24 -69 24 -7 0
-11 6 -8 13 8 21 -54 95 -86 102 -16 4 -41 21 -56 38 -21 25 -25 38 -20 66 8
49 46 85 90 85 28 0 33 3 24 13 -13 16 -42 9 -81 -18 -43 -31 -54 -12 -16 27
37 39 63 42 99 14z m-595 -218 c47 6 47 6 49 -44 1 -21 -4 -27 -25 -32 -39 -8
-90 -66 -58 -66 6 0 19 5 31 11 18 9 19 8 13 -10 -7 -23 9 -27 94 -22 29 2 41
-1 37 -8 -4 -6 -12 -11 -17 -11 -6 0 -41 -20 -77 -44 -78 -50 -173 -140 -222
-209 -20 -29 -36 -43 -39 -35 -2 7 -8 15 -12 18 -5 3 -2 28 7 55 27 89 9 153
-55 197 -15 11 -20 21 -15 29 14 23 13 61 -1 90 -14 25 -13 31 7 61 22 33 24
34 79 30 38 -3 65 1 85 11 27 14 31 14 51 -5 18 -17 31 -20 68 -16z m460 -141
c0 -1 41 -3 90 -5 157 -5 286 -67 426 -206 74 -73 93 -99 131 -180 56 -116 76
-192 79 -290 8 -237 -60 -421 -215 -582 -28 -30 -45 -39 -85 -44 -66 -9 -110
-36 -118 -74 -10 -51 -91 -78 -263 -87 -263 -13 -483 86 -633 286 -54 72 -78
118 -113 216 -27 74 -29 91 -29 230 0 131 3 159 23 220 51 152 123 263 226
348 104 85 212 137 336 161 52 10 145 15 145 7z m853 -987 c12 -4 22 -14 22
-25 0 -10 4 -21 10 -24 12 -7 10 -85 -2 -85 -4 0 -8 -17 -8 -37 0 -48 -45
-115 -108 -163 -26 -19 -59 -50 -75 -67 -31 -35 -53 -44 -43 -17 3 9 2 12 -5
9 -6 -4 -8 -13 -6 -19 7 -17 0 -25 -55 -70 -32 -26 -54 -37 -68 -33 -11 3 -18
1 -15 -3 6 -10 -69 -37 -155 -56 -77 -17 -93 -17 -85 -4 3 6 18 10 33 10 17 1
34 10 44 24 17 23 17 24 -6 22 -13 0 -22 -4 -19 -8 2 -5 -6 -8 -19 -8 -18 0
-20 -2 -8 -10 12 -8 11 -10 -7 -10 -12 0 -24 -8 -27 -18 -7 -21 -13 -22 -120
-23 -82 -1 -98 7 -89 42 3 10 0 19 -6 19 -11 0 -15 -13 -11 -39 1 -9 -4 -12
-15 -7 -9 3 -26 6 -36 6 -16 0 -20 6 -17 27 2 18 9 28 21 29 12 1 13 1 2 -3
-8 -2 -14 -14 -14 -26 1 -16 2 -18 6 -5 2 10 10 15 19 11 9 -3 14 2 14 17 0
19 2 20 15 10 9 -7 18 -10 21 -7 3 3 -3 10 -13 15 -21 11 -83 4 -83 -9 0 -5
-3 -8 -7 -8 -26 4 -35 -3 -15 -11 34 -14 26 -38 -12 -31 -4 1 -36 4 -70 7 -33
3 -75 9 -93 14 -18 4 -49 4 -70 -1 -21 -5 -54 -9 -73 -9 l-35 0 37 25 c19 13
45 37 56 52 l21 28 33 -32 c30 -29 41 -33 87 -33 49 0 52 -1 46 -21 -6 -19 -5
-20 8 -8 8 8 13 17 10 22 -2 4 6 7 19 7 13 0 28 4 34 10 5 5 31 13 56 16 37 5
57 2 92 -15 25 -11 53 -21 61 -21 9 0 13 -4 10 -10 -3 -5 -1 -10 4 -10 6 0 11
6 11 13 0 6 37 28 83 47 64 28 83 40 85 58 2 12 7 20 11 18 4 -3 7 3 8 12 3
35 10 54 24 63 19 12 99 12 99 -1 0 -5 23 4 50 20 28 16 50 27 50 24 0 -14
-29 -70 -41 -81 -8 -6 -34 -13 -59 -14 -43 -3 -45 -2 -51 26 -6 29 -13 17 -10
-16 1 -9 -14 -27 -34 -40 -40 -27 -49 -69 -15 -69 10 0 24 -8 29 -17 6 -10 11
-13 11 -8 0 16 60 18 60 3 0 -9 3 -10 8 -2 10 15 62 24 62 11 0 -11 15 0 15
11 1 4 20 27 44 52 24 24 59 69 78 98 27 40 38 50 45 40 6 -9 7 -6 3 9 -5 18
4 28 52 62 32 22 65 48 74 56 17 16 31 64 23 77 -3 4 -48 -37 -100 -90 -69
-70 -94 -90 -89 -72 5 19 4 21 -4 10 -6 -8 -8 -22 -5 -31 2 -9 -1 -23 -8 -30
-7 -8 -26 -33 -41 -57 -16 -25 -32 -40 -39 -36 -7 4 -8 3 -4 -5 10 -16 -11
-39 -52 -57 -40 -16 -56 -18 -47 -4 3 6 2 10 -2 10 -5 0 -9 8 -10 18 -1 14 5
18 30 16 21 -2 38 5 52 19 22 24 70 117 80 158 8 31 92 135 106 131 6 -1 8 1
5 6 -3 5 10 24 29 42 19 19 35 40 35 47 0 14 20 42 30 42 3 1 15 -2 28 -5z
m-370 -626 c-18 -14 -64 -51 -103 -82 -75 -60 -86 -64 -108 -42 -8 8 -64 36
-125 62 -113 49 -135 64 -65 45 21 -6 52 -11 68 -12 29 -1 30 -1 5 -9 -23 -7
-23 -8 -3 -9 12 -1 25 -6 28 -11 4 -6 15 -8 25 -5 10 3 21 1 25 -5 3 -5 11
-10 17 -10 6 0 1 9 -12 20 -13 12 -30 18 -37 16 -7 -3 -13 1 -13 9 0 22 26 18
55 -9 15 -14 23 -30 19 -39 -3 -8 -1 -18 5 -22 6 -3 11 -1 11 4 0 6 5 11 11
11 8 0 9 -4 0 -13 -6 -8 -8 -17 -4 -20 15 -15 19 -5 18 38 -3 51 19 79 72 90
25 5 32 3 36 -12 4 -15 5 -14 6 4 1 26 14 31 64 29 l39 -1 -34 -27z"/>
<path d="M1015 2510 c-213 -42 -366 -185 -421 -393 -64 -240 87 -519 327 -607
35 -13 69 -27 74 -31 15 -11 166 -3 228 12 279 65 460 372 377 638 -49 156
-140 265 -275 332 -108 53 -209 69 -310 49z m195 -30 c76 -17 170 -71 232
-133 262 -265 151 -719 -204 -827 -75 -23 -202 -21 -199 4 3 20 0 26 -10 21
-6 -4 -8 -14 -5 -22 5 -13 0 -14 -31 -8 -126 23 -271 140 -330 265 -54 115
-64 253 -26 373 48 152 188 286 337 322 63 16 176 18 236 5z"/>
<path d="M1084 2466 c-3 -7 -4 -17 -3 -22 1 -5 1 -22 0 -39 -2 -29 -3 -29 -13
-7 -6 12 -15 22 -20 22 -13 0 -9 -34 8 -58 15 -21 15 -25 0 -41 -22 -24 -20
-36 10 -60 26 -20 26 -45 0 -35 -8 3 -17 0 -21 -6 -4 -7 2 -14 14 -17 32 -8
26 -37 -11 -49 -18 -6 -40 -14 -48 -18 -20 -8 -180 173 -180 203 0 25 -13 27
-34 5 -17 -16 -13 -33 7 -35 11 0 153 -154 170 -184 4 -8 -1 -30 -13 -52 -11
-21 -20 -43 -20 -50 0 -9 -15 -13 -45 -13 -39 0 -47 4 -57 25 -6 14 -19 25
-29 25 -9 0 -24 3 -33 6 -9 3 -26 -5 -41 -20 -26 -26 -65 -35 -65 -16 0 22
-18 8 -23 -17 -7 -34 5 -49 23 -28 14 16 50 21 50 6 0 -39 77 -54 110 -21 27
27 110 29 110 3 0 -10 7 -31 15 -47 8 -15 15 -34 15 -42 0 -8 -43 -57 -95
-111 -77 -79 -93 -99 -82 -110 10 -10 20 -3 54 40 23 28 67 76 96 105 l54 54
31 -16 c17 -9 40 -16 52 -16 18 0 20 -6 20 -61 0 -55 -2 -61 -18 -57 -20 6
-60 -18 -49 -28 4 -4 20 -7 37 -6 16 0 30 -3 30 -8 0 -12 -25 -19 -52 -14
l-23 6 24 -22 c13 -11 31 -18 39 -15 12 4 14 -3 9 -44 -5 -39 -3 -51 9 -55 22
-8 36 2 30 22 -2 10 -8 32 -11 51 -6 29 -5 33 10 27 9 -3 30 2 46 11 31 18 41
40 11 24 -23 -12 -72 -2 -72 15 0 17 5 17 29 2 15 -9 22 -8 36 6 10 9 15 20
11 23 -3 4 -11 2 -18 -5 -8 -8 -17 -7 -34 5 -20 13 -24 24 -24 69 0 47 2 54
20 54 11 0 30 6 41 13 18 10 23 9 41 -13 11 -14 46 -53 78 -87 32 -33 66 -75
75 -92 17 -34 27 -38 45 -16 12 15 5 39 -10 30 -4 -3 -48 41 -98 96 l-90 101
29 46 c16 25 29 54 29 64 0 26 26 22 34 -4 l7 -23 16 23 c19 27 33 28 33 3 0
-33 11 -51 32 -51 20 0 89 33 119 57 13 11 18 11 29 -2 7 -8 16 -15 21 -15 12
0 11 57 -1 65 -5 3 -10 1 -10 -4 0 -19 -30 -12 -97 24 -36 19 -70 35 -75 35
-4 0 -8 -16 -8 -35 0 -24 -5 -35 -15 -35 -8 0 -15 9 -15 20 0 13 -7 20 -20 20
-13 0 -20 -7 -20 -20 0 -30 -29 -24 -40 8 -6 15 -14 34 -19 43 -7 13 12 37 89
114 56 56 103 95 109 91 16 -10 13 15 -4 38 -14 19 -15 19 -21 0 -8 -22 -100
-118 -161 -169 l-42 -36 -38 21 c-21 11 -43 20 -50 20 -17 0 -17 37 0 43 9 3
9 7 -2 21 -12 14 -11 19 3 34 21 24 21 58 -1 70 -15 9 -15 11 1 27 19 19 18
61 -2 58 -15 -4 -16 19 -1 34 6 6 8 16 5 22 -10 15 -36 14 -42 -3z"/>
<path d="M443 2089 c-60 -17 -72 -94 -21 -132 24 -18 32 -19 66 -9 50 15 68
50 52 98 -11 31 -36 55 -57 53 -4 0 -23 -5 -40 -10z"/>
<path d="M1660 2042 c0 -14 10 -24 34 -32 60 -20 53 -58 -16 -80 -62 -19 -46
-33 30 -25 113 11 112 11 112 64 l0 46 -67 19 c-38 11 -74 21 -80 24 -8 2 -13
-4 -13 -16z"/>
<path d="M1028 1443 c-24 -6 -23 -16 7 -51 22 -26 23 -30 8 -44 -20 -20 -9
-54 20 -62 12 -3 41 -6 65 -6 l43 0 -3 83 c-3 76 -5 82 -25 85 -21 3 -23 -1
-23 -37 0 -23 -4 -41 -9 -41 -4 0 -20 18 -35 40 -14 22 -27 39 -29 39 -1 -1
-10 -3 -19 -6z"/>
<path d="M1010 3902 c-21 -7 -9 -24 13 -18 17 4 29 -3 50 -29 l28 -35 -23 -30
c-14 -19 -31 -30 -47 -30 -13 0 -21 -3 -18 -6 10 -10 179 -4 197 6 12 8 11 9
-6 10 -21 0 -47 23 -56 50 -9 25 24 70 49 70 13 0 23 4 23 9 0 7 -187 10 -210
3z"/>
<path d="M440 3849 c-38 -15 -60 -40 -60 -66 l0 -24 28 28 c15 15 26 31 25 35
-4 13 15 9 23 -4 4 -7 2 -14 -6 -16 -8 -3 -24 -16 -36 -29 -26 -28 -44 -23
-44 13 0 13 -5 24 -11 24 -8 0 -10 -14 -6 -40 3 -22 0 -56 -6 -76 -9 -29 -8
-37 4 -45 22 -14 27 -11 39 26 6 19 15 35 20 35 4 0 6 9 3 20 -5 20 12 50 28
50 17 0 9 -29 -8 -33 -14 -3 -12 -6 10 -15 27 -11 35 -26 19 -36 -5 -3 -7 -23
-6 -46 2 -36 0 -40 -17 -35 -36 12 -20 -23 16 -36 35 -13 46 -33 23 -42 -7 -2
14 -12 47 -22 81 -23 88 -33 64 -98 -10 -29 -23 -51 -29 -49 -5 1 -9 -3 -8 -9
2 -6 -18 -27 -43 -45 -43 -32 -49 -33 -76 -22 -18 8 -28 19 -25 27 3 8 -1 12
-9 9 -8 -3 -13 -14 -11 -24 2 -10 4 -25 4 -31 1 -7 5 -13 9 -13 4 0 16 -3 26
-6 13 -4 11 0 -7 15 -26 22 -13 28 21 10 11 -6 18 -17 15 -24 -2 -7 2 -16 11
-19 16 -7 46 14 91 64 16 17 25 21 29 13 2 -7 10 -13 16 -13 12 0 137 -174
137 -190 0 -5 -12 -18 -26 -29 -24 -19 -26 -41 -3 -41 6 0 8 4 5 9 -3 5 1 14
8 20 11 10 24 8 58 -9 42 -21 42 -21 18 -1 -14 11 -31 21 -38 21 -8 0 -12 8
-10 18 3 9 -24 58 -60 112 -51 75 -65 102 -63 129 1 18 -3 39 -10 47 -8 10 -8
22 0 45 16 45 -6 77 -60 85 -40 7 -59 26 -59 60 0 22 16 7 23 -21 5 -20 5 -19
6 1 0 11 -5 29 -13 39 -12 16 -16 17 -30 6 -14 -11 -16 -11 -16 3 0 19 46 22
53 4 3 -9 10 -7 21 7 18 23 20 35 6 35 -5 0 -10 -4 -10 -8 0 -4 -16 -8 -36 -9
-29 -1 -34 2 -29 15 16 42 16 69 0 85 -9 10 -11 17 -5 17 8 0 7 6 -1 22 -9 16
-9 23 0 26 6 2 11 12 11 23 0 10 5 19 11 19 5 0 7 5 4 10 -8 12 -22 12 -55 -1z"/>
<path d="M2085 3812 c-21 -25 -25 -34 -12 -29 28 11 20 -6 -25 -50 -47 -45
-96 -73 -128 -73 -12 0 -20 -7 -20 -17 0 -13 3 -14 12 -5 7 7 21 12 33 12 11
0 31 7 43 16 12 8 22 11 22 6 0 -10 -21 -31 -70 -72 -24 -20 -24 -21 -2 -10
37 18 36 5 -3 -29 -26 -23 -42 -30 -57 -25 -14 4 -18 2 -14 -5 4 -6 2 -11 -3
-11 -6 0 -11 9 -11 20 0 12 -10 25 -25 32 -14 6 -25 15 -25 20 0 11 7 10 30
-2 16 -9 18 -7 15 10 -4 23 23 28 43 8 9 -9 12 -9 12 0 0 14 -60 41 -77 35 -6
-3 -9 -11 -6 -19 8 -21 -10 -17 -24 6 -11 16 -10 18 2 14 8 -4 15 -1 15 5 0 6
-5 11 -11 11 -7 0 -9 10 -5 25 4 14 2 25 -3 25 -5 0 0 18 10 40 11 22 24 40
29 40 15 0 12 -15 -10 -43 -22 -27 -25 -37 -12 -37 5 0 15 11 22 25 15 29 30
33 30 8 0 -14 2 -15 13 -4 10 10 9 14 -5 22 -10 6 -18 17 -18 24 0 8 -6 15
-12 15 -36 -1 -63 -51 -71 -128 -4 -34 -14 -73 -22 -85 -14 -22 -13 -26 10
-53 14 -16 22 -36 20 -45 -3 -9 2 -22 11 -29 13 -12 17 -11 24 0 7 11 11 8 19
-13 12 -32 21 -36 14 -6 -4 16 -2 20 8 17 8 -3 13 -12 11 -21 -2 -11 3 -14 18
-10 18 5 19 8 7 22 -23 26 -30 58 -13 64 10 4 13 1 9 -9 -3 -7 0 -14 5 -14 6
0 13 9 17 19 3 11 21 31 40 45 18 14 37 36 41 48 4 13 17 36 30 51 13 16 21
33 18 38 -3 6 13 28 36 50 26 25 46 54 50 75 10 43 3 42 -35 -4z"/>
<path d="M1607 3698 c-3 -23 -12 -47 -20 -53 -31 -22 -48 -75 -45 -136 2 -32
6 -59 10 -59 11 0 77 -73 78 -86 0 -5 14 -32 30 -58 17 -26 28 -52 24 -57 -5
-9 -37 -6 -85 7 -21 6 -50 -22 -43 -41 8 -19 24 -19 24 0 0 9 9 15 24 15 30 0
48 -21 36 -40 -12 -18 -13 -30 -2 -30 4 0 16 16 27 36 11 20 21 31 23 25 2 -6
16 -11 30 -11 l27 0 -24 19 c-13 10 -21 23 -17 30 4 6 3 11 -2 11 -11 0 -52
73 -52 91 1 11 3 10 13 -2 7 -8 19 -18 28 -21 9 -3 26 -34 39 -68 18 -49 25
-58 32 -45 9 15 11 15 22 -1 12 -16 13 -16 20 2 5 12 1 23 -10 31 -20 14 -35
17 -33 6 1 -5 1 -12 0 -18 -3 -17 -51 109 -51 133 0 14 -4 21 -11 16 -6 -3 -9
-15 -6 -25 8 -30 4 -28 -70 36 -48 41 -76 108 -66 158 3 18 18 48 33 67 30 38
47 95 32 104 -5 3 -12 -13 -15 -36z"/>
<path d="M360 3620 c-8 -5 -35 -17 -60 -28 -36 -16 -45 -25 -47 -47 0 -15 -7
-32 -13 -39 -10 -9 -11 -3 -6 24 l6 35 -25 -28 c-20 -22 -25 -24 -25 -11 0 13
-3 15 -10 8 -14 -14 19 -74 41 -74 12 0 15 -7 12 -24 -5 -25 24 -86 41 -86 5
0 2 8 -7 18 -30 33 -27 126 4 143 18 9 24 8 33 -7 6 -11 11 -30 11 -44 0 -15
6 -24 13 -22 7 1 12 -3 11 -10 -1 -7 1 -21 6 -31 4 -10 2 -36 -4 -58 -13 -44
-3 -69 28 -69 14 0 14 2 1 10 -8 5 -11 10 -6 10 5 0 3 6 -3 14 -8 10 -8 21 -1
40 7 18 7 34 0 46 -5 10 -11 39 -12 64 -2 27 -9 48 -17 51 -7 3 -10 12 -7 20
4 11 -2 15 -24 15 -35 0 -39 14 -9 31 18 9 27 7 50 -10 17 -13 29 -17 29 -10
0 7 -8 18 -17 25 -10 7 -14 16 -10 21 5 4 17 -2 27 -14 10 -13 26 -23 36 -23
16 0 16 2 -3 15 -12 8 -23 24 -25 34 -2 13 -7 16 -18 11z"/>
<path d="M2136 1139 c-14 -17 -26 -35 -26 -40 0 -5 -8 -9 -18 -9 -10 0 -29
-10 -41 -22 l-23 -21 -32 36 c-61 71 -131 80 -229 31 -54 -28 -78 -69 -83
-139 -3 -51 -2 -49 -16 -38 -7 6 -26 13 -41 17 -23 5 -34 1 -59 -24 -17 -17
-36 -29 -43 -26 -7 2 -23 -3 -36 -12 -17 -12 -40 -16 -81 -13 -45 2 -65 -2
-92 -18 -54 -34 -69 -64 -64 -133 4 -57 3 -60 -23 -74 -16 -8 -32 -20 -36 -28
-4 -8 -29 -17 -55 -21 l-48 -7 0 40 c0 53 -36 96 -100 119 -44 16 -47 19 -39
40 11 30 -11 87 -41 103 -12 6 -34 12 -51 12 -20 1 -29 6 -29 17 0 24 -54 79
-85 87 -32 8 -97 -10 -115 -31 -9 -11 -17 -12 -31 -4 -11 5 -24 7 -29 4 -6 -4
-10 6 -10 22 0 33 -22 68 -53 84 -31 17 -87 28 -87 18 0 -5 10 -9 23 -9 12 0
38 -12 56 -27 26 -22 33 -37 36 -71 3 -48 12 -63 25 -43 14 23 40 5 40 -28 0
-16 4 -33 10 -36 6 -4 10 5 10 20 0 33 49 85 82 86 42 2 53 -2 81 -32 29 -31
34 -58 16 -76 -9 -9 2 -10 43 -6 50 5 57 3 72 -18 26 -37 20 -77 -15 -110 -34
-31 -28 -39 10 -13 21 15 26 15 67 -1 26 -10 55 -31 70 -51 36 -47 28 -110
-19 -150 -28 -24 -29 -27 -9 -22 19 5 26 0 42 -32 17 -34 37 -50 61 -50 17 0
9 15 -13 25 -34 15 -47 78 -23 105 25 27 72 26 96 -2 l18 -23 1 32 c0 22 8 38
26 52 30 23 54 27 54 9 0 -9 3 -9 11 -1 9 9 8 21 -5 48 -24 49 -14 106 26 145
24 24 38 30 74 30 25 0 53 -4 63 -10 14 -7 23 -4 37 11 13 15 25 18 46 14 24
-6 29 -3 38 19 5 14 16 26 24 26 8 0 21 3 29 6 14 5 42 -15 49 -36 2 -6 11 -8
21 -5 13 6 17 19 17 57 0 84 17 125 64 152 57 33 103 40 146 22 40 -16 90 -71
90 -97 0 -33 20 -31 35 4 12 28 31 47 49 47 2 0 15 -11 31 -26 34 -31 41 -26
19 13 -15 26 -15 32 -3 58 8 18 23 31 37 33 27 4 30 22 3 22 -11 0 -31 -14
-45 -31z"/>
<path d="M414 903 c3 -23 9 -49 13 -59 5 -14 2 -16 -15 -12 -16 5 -19 2 -15
-11 3 -9 10 -21 15 -28 14 -17 0 -35 -25 -32 -12 1 -33 -3 -47 -9 -17 -7 -20
-11 -8 -11 22 -1 34 -21 18 -31 -8 -5 -10 -15 -5 -26 8 -17 9 -17 12 4 3 12 9
22 15 22 5 0 8 7 5 15 -8 19 12 30 26 16 9 -9 8 -15 -5 -22 -19 -11 -25 -49
-8 -49 6 0 10 9 10 21 0 18 4 20 28 15 22 -5 24 -4 10 4 -10 6 -18 18 -18 27
0 13 3 14 11 6 6 -6 17 -9 24 -7 23 9 22 -30 0 -53 -17 -16 -26 -18 -34 -10
-6 6 -11 7 -11 1 0 -10 35 -44 46 -44 2 0 4 8 2 18 -2 10 2 16 10 14 8 -1 11
2 8 7 -9 13 9 22 28 15 20 -8 21 -24 2 -24 -17 0 -27 -25 -19 -46 3 -9 13 -14
24 -11 11 3 22 1 25 -4 3 -5 12 -2 21 6 8 9 12 19 8 23 -4 4 -10 1 -12 -5 -3
-7 -8 -13 -13 -13 -14 0 -21 32 -10 46 9 9 5 17 -13 28 -33 22 -67 101 -83
191 -10 57 -27 81 -20 28z"/>
<path d="M2064 932 c3 -5 -17 -19 -44 -32 -28 -13 -50 -27 -50 -31 0 -4 -10
-11 -22 -15 -13 -4 -36 -17 -53 -29 -16 -12 -47 -28 -68 -35 -21 -6 -36 -14
-34 -16 2 -3 15 -1 28 4 46 17 81 23 75 13 -4 -5 -32 -17 -62 -26 -31 -9 -54
-19 -51 -22 3 -3 20 -1 36 5 19 7 31 7 31 1 0 -5 -20 -14 -45 -21 -46 -12 -64
-30 -22 -22 14 3 9 -2 -13 -13 -55 -28 -65 -40 -48 -61 12 -15 11 -16 -4 -4
-13 11 -20 11 -37 0 -12 -7 -21 -17 -21 -22 0 -4 7 -2 17 5 11 10 17 10 20 3
15 -44 79 -67 104 -38 9 11 8 18 -6 34 -15 17 -16 20 -3 20 20 0 42 -26 33
-40 -3 -5 1 -10 10 -10 12 0 15 5 10 18 -4 9 -8 23 -8 30 0 6 -6 12 -13 12 -7
0 -16 5 -20 12 -5 8 0 9 14 6 12 -4 22 -2 22 2 0 5 -15 11 -32 13 -31 4 -31 4
7 6 22 1 60 6 85 11 39 8 35 8 -23 4 -71 -5 -86 8 -24 21 17 4 52 18 75 32 26
14 52 23 64 20 15 -4 33 7 69 46 26 29 48 61 48 72 0 19 0 19 -13 2 -7 -9 -20
-16 -27 -14 -8 2 -11 2 -6 0 4 -3 4 -10 1 -15 -4 -7 -2 -8 4 -4 21 13 13 -10
-10 -31 -29 -26 -68 -46 -76 -39 -3 3 -3 7 -1 9 74 56 74 60 -1 22 -27 -14
-51 -25 -53 -25 -3 0 -4 12 -4 26 0 17 2 22 7 13 7 -10 17 -9 52 6 50 22 77
41 34 25 -25 -9 -27 -9 -16 5 7 8 27 24 46 36 33 20 44 39 23 39 -5 0 -8 -4
-5 -8z"/>
<path d="M2151 841 c-25 -23 -31 -37 -31 -68 0 -22 -3 -43 -7 -47 -4 -3 -8
-13 -9 -21 -3 -22 -47 -74 -63 -74 -9 -1 -1 14 20 36 l34 36 -36 -26 c-41 -31
-57 -33 -85 -12 -22 17 -34 19 -34 6 0 -5 17 -16 37 -24 l37 -14 -32 -17 c-34
-18 -52 -43 -52 -75 0 -17 -8 -21 -47 -24 l-48 -3 51 -2 c32 -1 56 -8 64 -17
7 -8 21 -15 31 -15 11 0 19 -4 19 -10 0 -5 -12 -10 -27 -10 -20 0 -24 -3 -16
-11 8 -8 17 -8 31 0 11 6 41 11 66 11 40 0 46 3 52 25 9 35 -4 111 -21 125
-21 17 -19 34 6 56 21 19 60 87 58 101 -1 5 0 13 1 18 2 6 3 19 4 29 1 24 26
34 26 11 0 -9 -5 -26 -11 -38 -11 -21 -10 -21 6 -5 18 17 31 88 16 88 -5 0
-23 -13 -40 -29z m-75 -238 c7 -10 14 -42 14 -70 l0 -53 -40 0 c-49 0 -96 22
-105 50 -16 50 28 93 67 65 31 -21 47 -19 41 5 -7 25 5 26 23 3z"/>
<path d="M1820 824 c-25 -14 -64 -43 -86 -66 -43 -41 -44 -41 -69 6 -6 12 -23
20 -43 21 -19 2 -39 8 -45 14 -19 19 -43 12 -80 -22 -37 -34 -67 -90 -67 -127
0 -17 -5 -20 -27 -15 -23 4 -23 3 4 -7 27 -9 32 -15 27 -33 -6 -26 20 -41 51
-29 15 6 16 4 6 -14 -7 -12 -16 -22 -21 -22 -6 0 -10 -4 -10 -10 0 -5 14 -10
30 -10 17 0 30 5 30 13 0 9 2 9 9 -1 6 -10 15 -7 39 13 26 22 32 34 32 65 0
21 5 42 11 46 8 4 9 -3 4 -25 -4 -18 -3 -31 3 -31 5 0 12 15 15 33 4 23 0 38
-14 52 -18 19 -19 19 -36 1 -17 -18 -17 -19 0 -12 13 4 17 2 14 -6 -2 -7 -14
-13 -27 -13 -14 0 -26 -9 -31 -20 -7 -19 -8 -19 -8 -1 -1 14 -4 16 -14 7 -8
-6 -17 -8 -20 -4 -4 3 1 12 11 20 15 13 15 13 -8 7 -14 -4 -30 -9 -36 -11 -22
-8 -23 28 -3 65 18 32 73 92 84 92 5 0 35 -56 35 -63 0 -3 -10 -7 -22 -10 -18
-5 -19 -8 -8 -22 9 -11 16 -13 24 -5 5 5 18 10 27 10 21 0 38 22 21 28 -15 5
-3 32 15 32 11 0 13 -7 9 -26 -5 -17 -3 -23 4 -19 7 4 9 -3 5 -22 -6 -27 -6
-27 9 -9 9 11 19 17 23 13 3 -4 -1 -15 -10 -25 -26 -28 -20 -44 6 -19 13 12
22 25 19 30 -5 11 100 112 137 131 17 9 31 19 31 21 0 7 -1 7 -50 -21z"/>
<path d="M45 343 c1 -60 3 -152 4 -205 1 -54 4 -98 9 -98 4 0 6 65 4 144 l-3
144 118 6 c65 3 191 5 281 5 90 -1 166 1 169 5 6 5 -199 10 -273 6 -34 -1 -50
13 -56 50 -2 20 -9 25 -31 25 -18 -1 -26 3 -23 12 8 21 -8 15 -22 -8 -13 -20
-12 -21 24 -17 36 3 38 1 41 -29 l4 -33 -115 0 -116 0 0 50 c0 28 -4 50 -9 50
-6 0 -8 -45 -6 -107z"/>
<path d="M76 281 c-4 -5 -2 -11 2 -13 5 -1 21 -32 35 -68 27 -68 47 -88 47
-48 1 13 7 34 14 47 13 24 13 24 36 -23 13 -25 27 -43 30 -39 3 5 14 34 24 65
25 84 38 83 35 -3 -2 -61 0 -73 14 -75 14 -2 17 6 17 42 0 42 1 44 29 44 28 0
30 -2 28 -42 -1 -25 3 -43 11 -45 9 -4 12 14 12 65 0 39 3 77 6 86 4 12 0 16
-16 16 -18 0 -21 -5 -18 -32 3 -29 0 -33 -24 -36 -25 -3 -28 0 -28 27 0 30 -2
31 -41 31 -24 0 -38 -4 -34 -10 7 -11 -15 -90 -25 -90 -11 0 -35 63 -32 83 2
11 -3 17 -16 17 -14 0 -19 -5 -16 -18 3 -9 -2 -33 -10 -52 l-14 -35 -11 28
c-6 16 -11 36 -11 46 0 29 -32 52 -44 32z"/>
<path d="M1270 248 c-19 -43 -18 -51 15 -92 22 -29 73 -25 102 8 48 56 16 126
-58 126 -37 0 -41 -3 -59 -42z"/>
</g>
</svg>
