<?xml version="1.0" standalone="no"?>
<!DOCTYPE svg PUBLIC "-//W3C//DTD SVG 20010904//EN"
 "http://www.w3.org/TR/2001/REC-SVG-20010904/DTD/svg10.dtd">
<svg version="1.0" xmlns="http://www.w3.org/2000/svg"
 width="898.000000pt" height="310.000000pt" viewBox="0 0 898.000000 310.000000"
 preserveAspectRatio="xMidYMid meet">
<metadata>
Created by potrace 1.15, written by Peter Selinger 2001-2017
</metadata>
<g transform="translate(0.000000,310.000000) scale(0.100000,-0.100000)"
fill="#000000" stroke="none">
<path d="M1584 2550 c-276 -40 -543 -259 -649 -530 -43 -110 -58 -209 -52
-339 6 -139 31 -232 92 -351 111 -213 305 -368 540 -431 115 -31 300 -31 410
0 97 27 125 44 125 75 0 29 -18 44 -108 91 -90 47 -206 153 -266 243 -95 144
-137 315 -119 482 12 107 30 165 79 263 77 154 172 243 383 359 24 13 31 24
31 48 0 27 -6 33 -43 49 -103 44 -283 62 -423 41z m235 -96 c17 -4 31 -9 31
-13 0 -3 -22 -21 -50 -40 -92 -63 -211 -203 -267 -316 -72 -144 -99 -340 -69
-510 37 -210 143 -389 305 -517 42 -33 77 -64 79 -68 6 -15 -123 -22 -205 -10
-110 15 -173 34 -263 81 -183 94 -321 266 -375 464 -24 91 -30 246 -12 332 33
155 98 275 208 383 109 108 229 174 373 205 66 14 194 19 245 9z"/>
<path d="M3977 2170 c-51 -40 -42 -120 16 -148 41 -20 94 0 114 44 16 31 15
37 0 69 -26 55 -85 70 -130 35z"/>
<path d="M4380 2141 c-30 -16 -74 -34 -97 -41 -35 -11 -43 -18 -43 -37 0 -19
5 -23 29 -23 17 0 33 -6 38 -12 4 -7 10 -177 13 -378 l5 -365 25 -2 c14 -2 68
10 120 25 80 23 96 31 98 50 3 18 -1 22 -26 22 -57 0 -57 0 -62 409 -6 431 2
405 -100 352z"/>
<path d="M7285 2139 c-33 -16 -79 -34 -102 -40 -36 -9 -43 -16 -43 -35 0 -20
5 -24 28 -24 15 0 33 -5 40 -12 9 -9 12 -104 12 -364 0 -194 3 -359 6 -368 8
-22 23 -21 141 11 92 25 103 30 103 51 0 17 -6 22 -28 22 -15 0 -33 5 -40 12
-9 9 -12 107 -12 379 0 202 -3 374 -6 383 -9 22 -30 19 -99 -15z"/>
<path d="M7650 2140 c-30 -16 -77 -34 -103 -40 -41 -10 -48 -16 -45 -34 2 -14
11 -22 28 -24 51 -7 50 -1 50 -371 0 -190 3 -357 7 -369 5 -21 11 -23 42 -19
20 2 73 15 118 28 72 21 83 27 83 47 0 18 -6 22 -30 22 -19 0 -33 7 -40 19 -6
13 -10 151 -10 380 0 197 -3 366 -6 375 -9 23 -31 19 -94 -14z"/>
<path d="M2360 2062 c0 -13 13 -24 40 -35 l40 -16 -2 -323 -3 -323 -42 -15
c-27 -9 -43 -20 -43 -31 0 -14 18 -16 158 -15 86 0 195 -1 242 -3 65 -3 96 1
130 14 162 65 238 200 227 400 -3 49 -10 107 -16 127 -18 59 -72 130 -124 165
-88 59 -128 66 -379 71 -220 3 -228 3 -228 -16z m413 -46 c99 -42 158 -204
142 -389 -17 -204 -85 -295 -210 -285 -90 8 -85 -14 -85 359 l0 329 60 0 c33
0 75 -6 93 -14z"/>
<path d="M5660 2056 c0 -21 5 -26 24 -26 56 0 57 -3 54 -353 l-3 -322 -42 -9
c-34 -8 -43 -14 -43 -30 0 -20 5 -21 180 -21 l180 0 0 23 c0 17 -6 22 -26 22
-59 0 -64 10 -64 139 l0 118 81 12 c159 24 283 90 315 168 18 42 18 125 0 166
-20 47 -65 85 -132 109 -53 19 -84 22 -291 26 l-233 4 0 -26z m431 -48 c50
-28 73 -76 73 -153 0 -112 -73 -187 -194 -202 l-50 -6 0 192 0 191 66 0 c49 0
76 -6 105 -22z"/>
<path d="M3430 1930 c-69 -17 -126 -48 -158 -85 -28 -31 -33 -43 -30 -78 2
-35 8 -44 31 -55 57 -27 97 0 123 83 21 66 49 95 101 102 59 8 76 -17 81 -120
l4 -82 -93 -24 c-94 -23 -198 -68 -233 -99 -81 -74 -70 -224 21 -267 96 -46
214 -24 269 51 15 22 30 42 34 46 3 4 5 -21 5 -55 0 -51 3 -62 18 -65 10 -2
65 14 122 35 90 33 105 41 105 61 0 18 -6 22 -29 22 -16 0 -33 6 -39 13 -6 7
-12 95 -14 212 -3 226 -11 254 -80 288 -42 21 -184 31 -238 17z m150 -364 c0
-72 -4 -91 -28 -137 -44 -84 -109 -104 -156 -48 -70 83 0 219 134 260 49 15
50 14 50 -75z"/>
<path d="M4032 1920 c-24 -11 -68 -27 -98 -36 -40 -11 -54 -20 -54 -34 0 -12
10 -21 31 -25 19 -4 34 -16 40 -32 12 -33 12 -399 -1 -423 -5 -10 -23 -21 -40
-25 -22 -5 -30 -12 -30 -28 0 -22 2 -22 160 -22 158 0 160 0 160 22 0 16 -8
23 -30 28 -51 11 -53 25 -49 319 l4 271 -25 2 c-14 1 -45 -7 -68 -17z"/>
<path d="M4610 1905 c0 -20 5 -25 25 -25 14 0 32 -8 40 -18 17 -19 196 -408
240 -521 l27 -68 -62 -122 c-34 -67 -61 -124 -59 -126 10 -9 55 -14 66 -7 7 4
85 192 172 418 106 271 167 415 182 427 12 9 32 17 45 17 19 0 24 5 24 25 l0
25 -120 0 -120 0 0 -25 c0 -21 5 -25 29 -25 28 0 61 -22 61 -40 0 -4 -21 -61
-46 -127 -25 -65 -55 -142 -66 -171 -11 -30 -24 -50 -29 -45 -21 21 -150 330
-147 353 2 20 9 26 36 28 26 3 32 7 32 28 l0 24 -165 0 -165 0 0 -25z"/>
<path d="M6443 1923 c-48 -4 -53 -6 -53 -28 0 -19 6 -24 33 -27 l32 -3 6 -225
c5 -234 10 -264 52 -308 34 -37 75 -54 131 -54 88 -1 158 42 217 131 15 23 15
21 15 -50 l-1 -74 30 1 c17 1 69 16 118 34 67 25 87 37 87 51 0 13 -7 19 -24
19 -52 0 -56 23 -56 288 0 208 -2 243 -15 248 -9 4 -63 3 -120 -1 -102 -7
-105 -8 -105 -31 0 -20 5 -24 30 -24 19 0 33 -7 40 -19 6 -11 10 -90 10 -184
l0 -165 -39 -58 c-41 -61 -83 -94 -121 -94 -28 0 -56 15 -66 37 -5 10 -11 135
-14 278 l-5 260 -65 1 c-36 0 -89 -1 -117 -3z"/>
</g>
</svg>
